<?xml version="1.0" encoding="UTF-8" standalone="no"?>
<!-- Created with Inkscape (http://www.inkscape.org/) -->

<svg
   xmlns:dc="http://purl.org/dc/elements/1.1/"
   xmlns:cc="http://creativecommons.org/ns#"
   xmlns:rdf="http://www.w3.org/1999/02/22-rdf-syntax-ns#"
   xmlns:svg="http://www.w3.org/2000/svg"
   xmlns="http://www.w3.org/2000/svg"
   xmlns:sodipodi="http://sodipodi.sourceforge.net/DTD/sodipodi-0.dtd"
   xmlns:inkscape="http://www.inkscape.org/namespaces/inkscape"
   id="svg2"
   version="1.1"
   inkscape:version="0.92.1 r15371"
   width="20"
   height="20"
   xml:space="preserve"
   sodipodi:docname="battery-low-charging-symbolic.svg"><metadata
     id="metadata8"><rdf:RDF><cc:Work
         rdf:about=""><dc:format>image/svg+xml</dc:format><dc:type
           rdf:resource="http://purl.org/dc/dcmitype/StillImage" /><dc:title></dc:title></cc:Work></rdf:RDF></metadata><defs
     id="defs6"><clipPath
       clipPathUnits="userSpaceOnUse"
       id="clipPath16"><path
         d="M 0,12 H 22 V 0 H 0 Z"
         id="path18"
         inkscape:connector-curvature="0" /></clipPath><clipPath
       id="clipPath3032"
       clipPathUnits="userSpaceOnUse"><path
         id="path3034"
         d="M 0,6 H 1 V 0 H 0 Z"
         inkscape:connector-curvature="0" /></clipPath><clipPath
       id="clipPath3058"
       clipPathUnits="userSpaceOnUse"><path
         id="path3060"
         d="M 0,6 H 1 V 0 H 0 Z"
         inkscape:connector-curvature="0" /></clipPath><clipPath
       id="clipPath3862"
       clipPathUnits="userSpaceOnUse"><path
         id="path3864"
         d="M 0,6 H 1 V 0 H 0 Z"
         inkscape:connector-curvature="0" /></clipPath><clipPath
       id="clipPath3918"
       clipPathUnits="userSpaceOnUse"><path
         id="path3920"
         d="M 0,0 H 32 V 32 H 0 Z"
         inkscape:connector-curvature="0" /></clipPath><clipPath
       id="clipPath16-5"
       clipPathUnits="userSpaceOnUse"><path
         inkscape:connector-curvature="0"
         id="path18-3"
         d="M 0,12 22,12 22,0 0,0 0,12 z" /></clipPath><clipPath
       clipPathUnits="userSpaceOnUse"
       id="clipPath3032-5"><path
         d="M 0,6 1,6 1,0 0,0 0,6 z"
         id="path3034-6" /></clipPath><clipPath
       clipPathUnits="userSpaceOnUse"
       id="clipPath3058-2"><path
         d="M 0,6 1,6 1,0 0,0 0,6 z"
         id="path3060-9" /></clipPath><clipPath
       clipPathUnits="userSpaceOnUse"
       id="clipPath3862-1"><path
         d="M 0,6 1,6 1,0 0,0 0,6 z"
         id="path3864-2" /></clipPath><clipPath
       clipPathUnits="userSpaceOnUse"
       id="clipPath3918-7"><path
         d="M 0,0 32,0 32,32 0,32 0,0 z"
         id="path3920-0" /></clipPath></defs><sodipodi:namedview
     pagecolor="#ffffff"
     bordercolor="#666666"
     borderopacity="1"
     objecttolerance="10"
     gridtolerance="10"
     guidetolerance="10"
     inkscape:pageopacity="0"
     inkscape:pageshadow="2"
     inkscape:window-width="1366"
     inkscape:window-height="725"
     id="namedview4"
     showgrid="false"
     inkscape:zoom="8"
     inkscape:cx="35.497478"
     inkscape:cy="7.3196117"
     inkscape:window-x="0"
     inkscape:window-y="21"
     inkscape:window-maximized="1"
     inkscape:current-layer="g10"
     showguides="true"
     inkscape:guide-bbox="true"
     inkscape:snap-bbox="true"
     inkscape:bbox-paths="true"
     inkscape:bbox-nodes="true"
     inkscape:snap-bbox-edge-midpoints="true"
     inkscape:snap-bbox-midpoints="true"
     inkscape:snap-page="true"
     inkscape:pagecheckerboard="false" /><g
     id="g10"
     inkscape:groupmode="layer"
     inkscape:label="BatteryEmpty"
     transform="matrix(1.25,0,0,-1.25,0,20)"><g
       id="g938"><path
         sodipodi:nodetypes="csccscc"
         inkscape:connector-curvature="0"
         id="rect63"
         d="M 1.6,12.8 C 1.6,12.8 0,11.2 0,8 0,4.8 1.6,3.2 1.6,3.2 h 1.6 c 0,0 -2,1.6 -2,4.8 0,3.2 2,4.8 2,4.8 z"
         style="opacity:1;fill:#000000;fill-opacity:1;stroke:none;stroke-width:1.36524928;stroke-linecap:butt;stroke-linejoin:miter;stroke-miterlimit:4;stroke-dasharray:none;stroke-opacity:1" /><path
         style="opacity:1;fill:#000000;fill-opacity:1;stroke:none;stroke-width:1.36524928;stroke-linecap:butt;stroke-linejoin:miter;stroke-miterlimit:4;stroke-dasharray:none;stroke-opacity:1"
         d="m 13.6,12.8 c 0,0 -1.2,-1.6 -1.2,-4.8 0,-3.2 1.2,-4.8 1.2,-4.8 h 1.2 c 0,0 -1.2,1.6 -1.2,4.8 0,3.2 1.2,4.8 1.2,4.8 z"
         id="path92"
         inkscape:connector-curvature="0"
         sodipodi:nodetypes="csccscc" /><path
         sodipodi:nodetypes="ccccc"
         inkscape:connector-curvature="0"
         id="rect94"
         d="m 1.6,12.8 h 12 v -1.2 h -12 z"
         style="opacity:1;fill:#000000;fill-opacity:1;stroke:none;stroke-width:1.29364097;stroke-linecap:butt;stroke-linejoin:miter;stroke-miterlimit:4;stroke-dasharray:none;stroke-opacity:1" /><path
         style="opacity:1;fill:#000000;fill-opacity:1;stroke:none;stroke-width:1.29364097;stroke-linecap:butt;stroke-linejoin:miter;stroke-miterlimit:4;stroke-dasharray:none;stroke-opacity:1"
         d="m 1.6,4.4 h 12 V 3.2 h -12 z"
         id="path97"
         inkscape:connector-curvature="0"
         sodipodi:nodetypes="ccccc" /><path
         id="circle916"
         transform="matrix(0.8,0,0,-0.8,0,16)"
         d="M 18.21875 7.6074219 C 18.089772 8.2783946 18 9.0712623 18 10 C 18 10.927807 18.089983 11.720071 18.21875 12.390625 A 2.5 2.5 0 0 0 20 10 A 2.5 2.5 0 0 0 18.21875 7.6074219 z "
         style="opacity:1;fill:#000000;fill-opacity:1;stroke:none;stroke-width:2;stroke-linecap:butt;stroke-linejoin:miter;stroke-miterlimit:4;stroke-dasharray:none;stroke-opacity:1" /></g><path
       style="fill:#000000;fill-opacity:1;fill-rule:evenodd;stroke:none;stroke-width:0.7567243px;stroke-linecap:butt;stroke-linejoin:miter;stroke-opacity:1"
       d="m 3.2,7.2 3,3.2 L 8,7.6 10.8,8.8 7.8,5.6 6,8.4 Z"
       id="path1139"
       inkscape:connector-curvature="0"
       sodipodi:nodetypes="ccccccc" /><g
       id="g3959"
       inkscape:label="IconMaskActivate"
       transform="matrix(0.30769231,0,0,0.29950395,31.174189,4.971673)"
       style="opacity:0.5;fill:#ffffff;fill-opacity:1"><g
         id="g3961"
         style="fill:#ffffff;fill-opacity:1" /><g
         id="g3963"
         style="fill:#ffffff;fill-opacity:1"><g
           id="g3965"
           clip-path="url(#clipPath3918-7)"
           style="fill:#ffffff;fill-opacity:1"><path
             inkscape:connector-curvature="0"
             d="m 3,13.62027 -10e-8,2.671083 L 13.634,24.0001 l 2.364,-4.579 z"
             style="fill:#ffffff;fill-opacity:1;fill-rule:evenodd;stroke:none"
             id="path3967"
             sodipodi:nodetypes="ccccc" /><path
             inkscape:connector-curvature="0"
             d="m 18.3633,7.9736 -7.092,11.448 2.363,4.568 7.091,-11.437 z"
             style="fill:#ffffff;fill-opacity:1;fill-rule:evenodd;stroke:none"
             id="path3969" /><path
             inkscape:connector-curvature="0"
             d="M 29,18.326719 18.363,7.9736 15.998,12.5526 29,20.997802 Z"
             style="fill:#ffffff;fill-opacity:1;fill-rule:evenodd;stroke:none"
             id="path3971"
             sodipodi:nodetypes="ccccc" /></g></g></g></g></svg>