<?xml version="1.0" encoding="UTF-8" standalone="no"?>
<!-- Created with Inkscape (http://www.inkscape.org/) -->

<svg
   xmlns:dc="http://purl.org/dc/elements/1.1/"
   xmlns:cc="http://creativecommons.org/ns#"
   xmlns:rdf="http://www.w3.org/1999/02/22-rdf-syntax-ns#"
   xmlns:svg="http://www.w3.org/2000/svg"
   xmlns="http://www.w3.org/2000/svg"
   xmlns:sodipodi="http://sodipodi.sourceforge.net/DTD/sodipodi-0.dtd"
   xmlns:inkscape="http://www.inkscape.org/namespaces/inkscape"
   id="svg2"
   version="1.1"
   inkscape:version="0.92.1 r15371"
   width="20"
   height="20"
   xml:space="preserve"
   sodipodi:docname="battery-full-symbolic.svg"><metadata
     id="metadata8"><rdf:RDF><cc:Work
         rdf:about=""><dc:format>image/svg+xml</dc:format><dc:type
           rdf:resource="http://purl.org/dc/dcmitype/StillImage" /><dc:title></dc:title></cc:Work></rdf:RDF></metadata><defs
     id="defs6"><clipPath
       clipPathUnits="userSpaceOnUse"
       id="clipPath16"><path
         d="M 0,12 H 22 V 0 H 0 Z"
         id="path18"
         inkscape:connector-curvature="0" /></clipPath><clipPath
       id="clipPath3032"
       clipPathUnits="userSpaceOnUse"><path
         id="path3034"
         d="M 0,6 H 1 V 0 H 0 Z"
         inkscape:connector-curvature="0" /></clipPath><clipPath
       id="clipPath3058"
       clipPathUnits="userSpaceOnUse"><path
         id="path3060"
         d="M 0,6 H 1 V 0 H 0 Z"
         inkscape:connector-curvature="0" /></clipPath><clipPath
       id="clipPath3862"
       clipPathUnits="userSpaceOnUse"><path
         id="path3864"
         d="M 0,6 H 1 V 0 H 0 Z"
         inkscape:connector-curvature="0" /></clipPath><clipPath
       id="clipPath3918"
       clipPathUnits="userSpaceOnUse"><path
         id="path3920"
         d="M 0,0 H 32 V 32 H 0 Z"
         inkscape:connector-curvature="0" /></clipPath></defs><sodipodi:namedview
     pagecolor="#ffffff"
     bordercolor="#666666"
     borderopacity="1"
     objecttolerance="10"
     gridtolerance="10"
     guidetolerance="10"
     inkscape:pageopacity="0"
     inkscape:pageshadow="2"
     inkscape:window-width="1366"
     inkscape:window-height="725"
     id="namedview4"
     showgrid="false"
     inkscape:zoom="8"
     inkscape:cx="20.911121"
     inkscape:cy="7.0880738"
     inkscape:window-x="0"
     inkscape:window-y="21"
     inkscape:window-maximized="1"
     inkscape:current-layer="g10"
     showguides="true"
     inkscape:guide-bbox="true"
     inkscape:snap-bbox="true"
     inkscape:bbox-paths="true"
     inkscape:bbox-nodes="true"
     inkscape:snap-bbox-edge-midpoints="true"
     inkscape:snap-bbox-midpoints="true"
     inkscape:snap-page="true"
     inkscape:pagecheckerboard="false" /><g
     id="g10"
     inkscape:groupmode="layer"
     inkscape:label="BatteryEmpty"
     transform="matrix(1.25,0,0,-1.25,0,20)"><g
       id="g938"><path
         sodipodi:nodetypes="csccscc"
         inkscape:connector-curvature="0"
         id="rect63"
         d="M 1.6,12.8 C 1.6,12.8 0,11.2 0,8 0,4.8 1.6,3.2 1.6,3.2 h 1.6 c 0,0 -2,1.6 -2,4.8 0,3.2 2,4.8 2,4.8 z"
         style="opacity:1;fill:#000000;fill-opacity:1;stroke:none;stroke-width:1.36524928;stroke-linecap:butt;stroke-linejoin:miter;stroke-miterlimit:4;stroke-dasharray:none;stroke-opacity:1" /><path
         style="opacity:1;fill:#000000;fill-opacity:1;stroke:none;stroke-width:1.36524928;stroke-linecap:butt;stroke-linejoin:miter;stroke-miterlimit:4;stroke-dasharray:none;stroke-opacity:1"
         d="m 13.6,12.8 c 0,0 -1.2,-1.6 -1.2,-4.8 0,-3.2 1.2,-4.8 1.2,-4.8 h 1.2 c 0,0 -1.2,1.6 -1.2,4.8 0,3.2 1.2,4.8 1.2,4.8 z"
         id="path92"
         inkscape:connector-curvature="0"
         sodipodi:nodetypes="csccscc" /><path
         sodipodi:nodetypes="ccccc"
         inkscape:connector-curvature="0"
         id="rect94"
         d="m 1.6,12.8 h 12 v -1.2 h -12 z"
         style="opacity:1;fill:#000000;fill-opacity:1;stroke:none;stroke-width:1.29364097;stroke-linecap:butt;stroke-linejoin:miter;stroke-miterlimit:4;stroke-dasharray:none;stroke-opacity:1" /><path
         style="opacity:1;fill:#000000;fill-opacity:1;stroke:none;stroke-width:1.29364097;stroke-linecap:butt;stroke-linejoin:miter;stroke-miterlimit:4;stroke-dasharray:none;stroke-opacity:1"
         d="m 1.6,4.4 h 12 V 3.2 h -12 z"
         id="path97"
         inkscape:connector-curvature="0"
         sodipodi:nodetypes="ccccc" /><path
         id="circle916"
         transform="matrix(0.8,0,0,-0.8,0,16)"
         d="M 18.21875 7.6074219 C 18.089772 8.2783946 18 9.0712623 18 10 C 18 10.927807 18.089983 11.720071 18.21875 12.390625 A 2.5 2.5 0 0 0 20 10 A 2.5 2.5 0 0 0 18.21875 7.6074219 z "
         style="opacity:1;fill:#000000;fill-opacity:1;stroke:none;stroke-width:2;stroke-linecap:butt;stroke-linejoin:miter;stroke-miterlimit:4;stroke-dasharray:none;stroke-opacity:1" /></g><path
       transform="scale(1,-1)"
       style="opacity:1;fill:#000000;fill-opacity:1;stroke:none;stroke-width:2.4000001;stroke-linecap:butt;stroke-linejoin:miter;stroke-miterlimit:4;stroke-dasharray:none;stroke-opacity:1"
       d="m 3.2,-10.4 h 8 c 0,0 -0.4,0.8 -0.4,2.4000005 0,1.5999992 0.4,2.4000005 0.4,2.4000005 h -8 c 0,0 -0.7999999,-0.8000013 -0.7999999,-2.4000005 C 2.4000001,-9.6000004 3.2,-10.4 3.2,-10.4 Z"
       id="rect943"
       inkscape:connector-curvature="0"
       sodipodi:nodetypes="ccsccsc" /></g></svg>