<?xml version="1.0" encoding="UTF-8" standalone="no"?>
<!-- Created with Inkscape (http://www.inkscape.org/) -->

<svg
   xmlns:dc="http://purl.org/dc/elements/1.1/"
   xmlns:cc="http://creativecommons.org/ns#"
   xmlns:rdf="http://www.w3.org/1999/02/22-rdf-syntax-ns#"
   xmlns:svg="http://www.w3.org/2000/svg"
   xmlns="http://www.w3.org/2000/svg"
   xmlns:xlink="http://www.w3.org/1999/xlink"
   xmlns:sodipodi="http://sodipodi.sourceforge.net/DTD/sodipodi-0.dtd"
   xmlns:inkscape="http://www.inkscape.org/namespaces/inkscape"
   version="1.1"
   width="20"
   height="20"
   id="svg3942"
   inkscape:version="0.92.1 r15371"
   sodipodi:docname="vmware-workstation-panel.svg">
  <sodipodi:namedview
     pagecolor="#959595"
     bordercolor="#666666"
     borderopacity="1"
     objecttolerance="10"
     gridtolerance="10"
     guidetolerance="10"
     inkscape:pageopacity="1"
     inkscape:pageshadow="2"
     inkscape:window-width="1366"
     inkscape:window-height="725"
     id="namedview40"
     showgrid="false"
     showguides="false"
     inkscape:zoom="8"
     inkscape:cx="10.348791"
     inkscape:cy="2.723024"
     inkscape:window-x="0"
     inkscape:window-y="21"
     inkscape:window-maximized="1"
     inkscape:current-layer="svg3942"
     inkscape:snap-bbox="true"
     inkscape:bbox-paths="true"
     inkscape:bbox-nodes="true"
     inkscape:snap-bbox-edge-midpoints="true"
     inkscape:snap-bbox-midpoints="true"
     inkscape:object-paths="true"
     inkscape:snap-smooth-nodes="true"
     inkscape:measure-start="11,11.292"
     inkscape:measure-end="12.3103,9.9822">
    <inkscape:grid
       type="xygrid"
       id="grid3017"
       empspacing="5"
       visible="true"
       enabled="true"
       snapvisiblegridlinesonly="true" />
  </sodipodi:namedview>
  <defs
     id="defs3944">
    <radialGradient
       cx="20.930695"
       cy="8.4497671"
       r="19.99999"
       fx="20.930695"
       fy="8.4497671"
       id="radialGradient3035"
       xlink:href="#linearGradient2867-449-88-871-390-598-476-591-434-148-57-177-641-289-620-227-114-444-680-744-4-8-69-5-4-8-426-2-9-1-4-965"
       gradientUnits="userSpaceOnUse"
       gradientTransform="matrix(1.165708e-8,1.4381477,-1.483354,-2.6496169e-8,28.53406,-5.4214298)" />
    <linearGradient
       x1="23.99999"
       y1="4.999989"
       x2="23.99999"
       y2="43"
       id="linearGradient3027"
       xlink:href="#linearGradient3924"
       gradientUnits="userSpaceOnUse"
       gradientTransform="matrix(0.62162164,0,0,0.56756755,1.0810837,2.3783866)" />
    <linearGradient
       x1="30.643436"
       y1="3.915791"
       x2="30.643436"
       y2="30.093096"
       id="linearGradient3024"
       xlink:href="#linearGradient4549"
       gradientUnits="userSpaceOnUse"
       gradientTransform="translate(-27.316332)" />
    <linearGradient
       id="linearGradient3702-501-757">
      <stop
         id="stop2895"
         style="stop-color:#181818;stop-opacity:0"
         offset="0" />
      <stop
         id="stop2897"
         style="stop-color:#181818;stop-opacity:1"
         offset="0.5" />
      <stop
         id="stop2899"
         style="stop-color:#181818;stop-opacity:0"
         offset="1" />
    </linearGradient>
    <linearGradient
       x1="25.058096"
       y1="47.027729"
       x2="25.058096"
       y2="39.999443"
       id="linearGradient3167"
       xlink:href="#linearGradient3702-501-757"
       gradientUnits="userSpaceOnUse" />
    <linearGradient
       id="linearGradient3688-464-309">
      <stop
         id="stop2889"
         style="stop-color:#181818;stop-opacity:1"
         offset="0" />
      <stop
         id="stop2891"
         style="stop-color:#181818;stop-opacity:0"
         offset="1" />
    </linearGradient>
    <radialGradient
       cx="4.9929786"
       cy="43.5"
       r="2.5"
       fx="4.9929786"
       fy="43.5"
       id="radialGradient3165"
       xlink:href="#linearGradient3688-464-309"
       gradientUnits="userSpaceOnUse"
       gradientTransform="matrix(2.003784,0,0,1.4,-20.01187,-104.4)" />
    <linearGradient
       id="linearGradient3688-166-749">
      <stop
         id="stop2883"
         style="stop-color:#181818;stop-opacity:1"
         offset="0" />
      <stop
         id="stop2885"
         style="stop-color:#181818;stop-opacity:0"
         offset="1" />
    </linearGradient>
    <radialGradient
       cx="4.9929786"
       cy="43.5"
       r="2.5"
       fx="4.9929786"
       fy="43.5"
       id="radialGradient3163"
       xlink:href="#linearGradient3688-166-749"
       gradientUnits="userSpaceOnUse"
       gradientTransform="matrix(2.003784,0,0,1.4,27.98813,-17.4)" />
    <linearGradient
       id="linearGradient2867-449-88-871-390-598-476-591-434-148-57-177-641-289-620-227-114-444-680-744-4-8-69-5-4-8-426-2-9-1-4-965">
      <stop
         id="stop4036"
         style="stop-color:#f4f4f4;stop-opacity:1"
         offset="0" />
      <stop
         id="stop4040"
         style="stop-color:#d0d0d0;stop-opacity:1"
         offset="1" />
    </linearGradient>
    <linearGradient
       id="linearGradient3924">
      <stop
         id="stop3926"
         style="stop-color:#ffffff;stop-opacity:1"
         offset="0" />
      <stop
         id="stop3928"
         style="stop-color:#ffffff;stop-opacity:0.23529412"
         offset="0.06316455" />
      <stop
         id="stop3930"
         style="stop-color:#ffffff;stop-opacity:0.15686275"
         offset="0.95056331" />
      <stop
         id="stop3932"
         style="stop-color:#ffffff;stop-opacity:0.39215687"
         offset="1" />
    </linearGradient>
    <linearGradient
       id="linearGradient4549">
      <stop
         id="stop4551"
         style="stop-color:#000000;stop-opacity:0.27205881"
         offset="0" />
      <stop
         id="stop4553"
         style="stop-color:#000000;stop-opacity:0.36764705"
         offset="1" />
    </linearGradient>
    <linearGradient
       x1="23.99999"
       y1="4.999989"
       x2="23.99999"
       y2="43"
       id="linearGradient3075"
       xlink:href="#linearGradient3924"
       gradientUnits="userSpaceOnUse"
       gradientTransform="matrix(0.62162164,0,0,0.56756755,-52.647729,-11.765681)" />
    <linearGradient
       x1="30.643436"
       y1="3.915791"
       x2="30.643436"
       y2="30.093096"
       id="linearGradient3082"
       xlink:href="#linearGradient4549"
       gradientUnits="userSpaceOnUse"
       gradientTransform="translate(-81.045145,-14.144068)" />
    <radialGradient
       cx="20.930695"
       cy="8.4497671"
       r="19.99999"
       fx="20.930695"
       fy="8.4497671"
       id="radialGradient3086"
       xlink:href="#linearGradient2867-449-88-871-390-598-476-591-434-148-57-177-641-289-620-227-114-444-680-744-4-8-69-5-4-8-426-2-9-1-4-965"
       gradientUnits="userSpaceOnUse"
       gradientTransform="matrix(1.165708e-8,1.4381477,-1.483354,-2.6496169e-8,-25.194753,-19.565498)" />
  </defs>
  <metadata
     id="metadata3947">
    <rdf:RDF>
      <cc:Work
         rdf:about="">
        <dc:format>image/svg+xml</dc:format>
        <dc:type
           rdf:resource="http://purl.org/dc/dcmitype/StillImage" />
        <dc:title></dc:title>
      </cc:Work>
    </rdf:RDF>
  </metadata>
  <g
     style="fill:#ffffff;fill-opacity:1;opacity:0.5"
     id="g924"
     transform="translate(0,1)">
    <path
       style="opacity:1;fill:#ffffff;fill-opacity:1;stroke:none;stroke-width:1.53336275;stroke-linecap:butt;stroke-linejoin:miter;stroke-miterlimit:4;stroke-dasharray:none;stroke-opacity:1"
       d="m 3,1 -0.00195,0.00195 A 2,2 0 0 0 1.5859375,1.5859375 2,2 0 0 0 1.0019531,2.9980469 L 1,3 V 3.0292969 11.5 A 2.5,2.5 0 0 0 3.5,14 H 4 10.5 a 0.5,0.5 0 0 0 0.353516,-0.146484 0.5,0.5 0 0 0 0,-0.707032 L 8.7070312,11 H 5.9453125 a 2.5,2.5 0 0 0 0,-0.002 A 1.9999996,1.9999996 0 0 1 4.0058594,9.1054688 L 4.0214844,4 h 0.7089844 4.3242187 a 2.5,2.5 0 0 0 0,0.00195 1.9999996,1.9999996 0 0 1 1.9433595,1.9453125 2.5,2.5 0 0 0 0.002,0 v 2.7597656 l 2.146484,2.1464848 a 0.5,0.5 0 0 0 0.707032,0 A 0.5,0.5 0 0 0 14,10.5 v -7 A 2.5,2.5 0 0 0 11.5,1 H 3.0292969 Z"
       id="path920"
       inkscape:connector-curvature="0" />
    <path
       id="path922"
       d="m 17,19 0.002,-0.002 a 2,2 0 0 0 1.41211,-0.583984 2,2 0 0 0 0.583984,-1.41211 L 19,17 V 16.9707 8.5 A 2.5,2.5 0 0 0 16.5,6 H 16 9.5 a 0.5,0.5 0 0 0 -0.353516,0.146484 0.5,0.5 0 0 0 0,0.707032 L 11.292969,9 h 2.761719 a 2.5,2.5 0 0 0 0,0.002 1.9999996,1.9999996 0 0 1 1.939453,1.892578 L 15.978516,16 h -0.708985 -4.324218 a 2.5,2.5 0 0 0 0,-0.002 1.9999996,1.9999996 0 0 1 -1.94336,-1.945266 2.5,2.5 0 0 0 -0.002,0 V 11.292969 L 6.853516,9.146484 a 0.5,0.5 0 0 0 -0.707032,0 A 0.5,0.5 0 0 0 6,9.5 v 7 A 2.5,2.5 0 0 0 8.5,19 h 8.470703 z"
       style="opacity:1;fill:#ffffff;fill-opacity:1;stroke:none;stroke-width:1.53336275;stroke-linecap:butt;stroke-linejoin:miter;stroke-miterlimit:4;stroke-dasharray:none;stroke-opacity:1"
       inkscape:connector-curvature="0" />
  </g>
  <path
     id="path877"
     d="m -16.970703,1 a 2,2 0 0 0 -1.443359,0.5859375 2,2 0 0 0 0,2.828125 A 2,2 0 0 0 -16,4.7304688 V 4 h 0.730469 A 2,2 0 0 0 -15.585938,1.5859375 2,2 0 0 0 -16.970703,1 Z"
     style="opacity:0.5;fill:#000000;fill-opacity:1;stroke:none;stroke-width:1.53336275;stroke-linecap:butt;stroke-linejoin:miter;stroke-miterlimit:4;stroke-dasharray:none;stroke-opacity:1"
     inkscape:connector-curvature="0" />
  <path
     id="path879"
     d="m -8.5,1 a 2.5,2.5 0 0 0 -2.5,2.5 2.5,2.5 0 0 0 0.05469,0.5019531 1.9999996,1.9999996 0 0 1 1.94336,1.9453125 A 2.5,2.5 0 0 0 -8.5,6 2.5,2.5 0 0 0 -6,3.5 2.5,2.5 0 0 0 -8.5,1 Z"
     style="opacity:0.5;fill:#000000;fill-opacity:1;stroke:none;stroke-width:1.91670346;stroke-linecap:butt;stroke-linejoin:miter;stroke-miterlimit:4;stroke-dasharray:none;stroke-opacity:1"
     inkscape:connector-curvature="0" />
  <path
     sodipodi:nodetypes="ccccccccccccccc"
     inkscape:connector-curvature="0"
     id="path881"
     d="M -8.5,1 H -17 l -1.999995,2 -5e-6,8.5 2.5,2.5 H -16 V 11 L -15.97916,4.0000001 -9,4 V 8.708 L -6.853554,10.853553 -6.5,11 -6,10.5 v -7 z"
     style="opacity:0.5;fill:#000000;fill-opacity:1;fill-rule:evenodd;stroke:none;stroke-width:1px;stroke-linecap:butt;stroke-linejoin:miter;stroke-opacity:1" />
  <path
     inkscape:connector-curvature="0"
     style="opacity:0.5;fill:#000000;fill-opacity:1;stroke:none;stroke-width:1.91670346;stroke-linecap:butt;stroke-linejoin:miter;stroke-miterlimit:4;stroke-dasharray:none;stroke-opacity:1"
     d="M -16.5,14 A 2.5,2.5 0 0 0 -14,11.5 2.5,2.5 0 0 0 -14.054688,10.998047 1.9999996,1.9999996 0 0 1 -15.998047,9.052734 2.5,2.5 0 0 0 -16.5,9 2.5,2.5 0 0 0 -19,11.5 2.5,2.5 0 0 0 -16.5,14 Z"
     id="path883" />
  <circle
     transform="rotate(45)"
     r="0.5"
     cy="12.020816"
     cx="2.8284264"
     id="circle885"
     style="opacity:0.5;fill:#000000;fill-opacity:1;stroke:none;stroke-width:2.06758571;stroke-linecap:butt;stroke-linejoin:miter;stroke-miterlimit:4;stroke-dasharray:none;stroke-opacity:1" />
  <path
     style="opacity:0.5;fill:#000000;fill-opacity:1;fill-rule:evenodd;stroke:none;stroke-width:1px;stroke-linecap:butt;stroke-linejoin:miter;stroke-opacity:1"
     d="m -16,11 h 4.708 L -9.146447,13.146446 -9,13.5 -9.5,14 H -16 Z"
     id="path887"
     inkscape:connector-curvature="0"
     sodipodi:nodetypes="ccccccc" />
  <circle
     style="opacity:0.5;fill:#000000;fill-opacity:1;stroke:none;stroke-width:2.06758571;stroke-linecap:butt;stroke-linejoin:miter;stroke-miterlimit:4;stroke-dasharray:none;stroke-opacity:1"
     id="circle889"
     cx="2.8284264"
     cy="-16.263456"
     r="0.5"
     transform="matrix(0.70710678,0.70710678,0.70710678,-0.70710678,0,0)" />
  <g
     id="g900"
     style="fill:#f3442b;fill-opacity:1">
    <path
       id="path40"
       d="M 3 1 L 2.9980469 1.0019531 A 2 2 0 0 0 1.5859375 1.5859375 A 2 2 0 0 0 1.0019531 2.9980469 L 1 3 L 1 3.0292969 L 1 11.5 A 2.5 2.5 0 0 0 3.5 14 L 4 14 L 10.5 14 A 0.5 0.5 0 0 0 10.853516 13.853516 A 0.5 0.5 0 0 0 10.853516 13.146484 L 8.7070312 11 L 5.9453125 11 A 2.5 2.5 0 0 0 5.9453125 10.998047 A 1.9999996 1.9999996 0 0 1 4.0058594 9.1054688 L 4.0214844 4 L 4.7304688 4 L 9.0546875 4 A 2.5 2.5 0 0 0 9.0546875 4.0019531 A 1.9999996 1.9999996 0 0 1 10.998047 5.9472656 A 2.5 2.5 0 0 0 11 5.9472656 L 11 8.7070312 L 13.146484 10.853516 A 0.5 0.5 0 0 0 13.853516 10.853516 A 0.5 0.5 0 0 0 14 10.5 L 14 3.5 A 2.5 2.5 0 0 0 11.5 1 L 3.0292969 1 L 3 1 z "
       style="opacity:1;fill:#f3442b;fill-opacity:1;stroke:none;stroke-width:1.53336275;stroke-linecap:butt;stroke-linejoin:miter;stroke-miterlimit:4;stroke-dasharray:none;stroke-opacity:1" />
    <path
       inkscape:connector-curvature="0"
       style="opacity:1;fill:#f3442b;fill-opacity:1;stroke:none;stroke-width:1.53336275;stroke-linecap:butt;stroke-linejoin:miter;stroke-miterlimit:4;stroke-dasharray:none;stroke-opacity:1"
       d="m 17,19 0.002,-0.002 a 2,2 0 0 0 1.41211,-0.583984 2,2 0 0 0 0.583984,-1.41211 L 19,17 V 16.9707 8.5 A 2.5,2.5 0 0 0 16.5,6 H 16 9.5 a 0.5,0.5 0 0 0 -0.353516,0.146484 0.5,0.5 0 0 0 0,0.707032 L 11.292969,9 h 2.761719 a 2.5,2.5 0 0 0 0,0.002 1.9999996,1.9999996 0 0 1 1.939453,1.892578 L 15.978516,16 h -0.708985 -4.324218 a 2.5,2.5 0 0 0 0,-0.002 1.9999996,1.9999996 0 0 1 -1.94336,-1.945266 2.5,2.5 0 0 0 -0.002,0 V 11.292969 L 6.853516,9.146484 a 0.5,0.5 0 0 0 -0.707032,0 A 0.5,0.5 0 0 0 6,9.5 v 7 A 2.5,2.5 0 0 0 8.5,19 h 8.470703 z"
       id="path892" />
  </g>
  <path
     style="opacity:0.5;fill:#000000;fill-opacity:1;stroke:none;stroke-width:1.53336275;stroke-linecap:butt;stroke-linejoin:miter;stroke-miterlimit:4;stroke-dasharray:none;stroke-opacity:1"
     d="M 3 1 L 2.9980469 1.0019531 A 2 2 0 0 0 1.5859375 1.5859375 A 2 2 0 0 0 1.0019531 2.9980469 L 1 3 L 1 3.0292969 L 1 4 L 1.0019531 3.9980469 A 2 2 0 0 1 1.5859375 2.5859375 A 2 2 0 0 1 2.9980469 2.0019531 L 3 2 L 3.0292969 2 L 11.5 2 A 2.5 2.5 0 0 1 14 4.5 L 14 3.5 A 2.5 2.5 0 0 0 11.5 1 L 3.0292969 1 L 3 1 z M 9.5 6 A 0.5 0.5 0 0 0 9.1464844 6.1464844 A 0.5 0.5 0 0 0 9.1464844 6.8535156 L 9.3242188 7.03125 A 0.5 0.5 0 0 1 9.5 7 L 11 7 L 11 6.9472656 A 2.5 2.5 0 0 0 10.998047 6.9472656 A 1.9999996 1.9999996 0 0 0 10.728516 6 L 9.5 6 z M 14 6 L 14 7 L 16 7 L 16.5 7 A 2.5 2.5 0 0 1 19 9.5 L 19 8.5 A 2.5 2.5 0 0 0 16.5 6 L 16 6 L 14 6 z M 6.4921875 9 A 0.5 0.5 0 0 0 6.1464844 9.1464844 A 0.5 0.5 0 0 0 6 9.5 L 6 10.5 A 0.5 0.5 0 0 1 6.1464844 10.146484 A 0.5 0.5 0 0 1 6.8535156 10.146484 L 8.7070312 12 L 9 12.292969 L 10.675781 13.96875 A 0.5 0.5 0 0 0 10.853516 13.853516 A 0.5 0.5 0 0 0 10.853516 13.146484 L 9 11.292969 L 8.7070312 11 L 6.8535156 9.1464844 A 0.5 0.5 0 0 0 6.4921875 9 z M 4.0097656 9.1347656 L 4.0058594 10.105469 A 1.9999996 1.9999996 0 0 0 5.9453125 11.998047 A 2.5 2.5 0 0 0 5.9453125 12 L 6 12 L 6 11 L 5.9453125 11 A 2.5 2.5 0 0 0 5.9453125 10.998047 A 1.9999996 1.9999996 0 0 1 4.0097656 9.1347656 z M 15.990234 11.865234 L 15.978516 16 L 15.269531 16 L 10.945312 16 A 2.5 2.5 0 0 0 10.945312 15.998047 A 1.9999996 1.9999996 0 0 1 9.2714844 15 L 9 15 L 9 15.052734 A 2.5 2.5 0 0 0 9.0019531 15.052734 A 1.9999996 1.9999996 0 0 0 10.945312 16.998047 A 2.5 2.5 0 0 0 10.945312 17 L 15.269531 17 L 15.978516 17 L 15.994141 11.894531 A 1.9999996 1.9999996 0 0 0 15.990234 11.865234 z "
     id="path902" />
</svg>
