<?xml version="1.0" encoding="UTF-8" standalone="no"?>
<!-- Created with Inkscape (http://www.inkscape.org/) -->

<svg
   xmlns:dc="http://purl.org/dc/elements/1.1/"
   xmlns:cc="http://creativecommons.org/ns#"
   xmlns:rdf="http://www.w3.org/1999/02/22-rdf-syntax-ns#"
   xmlns:svg="http://www.w3.org/2000/svg"
   xmlns="http://www.w3.org/2000/svg"
   xmlns:xlink="http://www.w3.org/1999/xlink"
   xmlns:sodipodi="http://sodipodi.sourceforge.net/DTD/sodipodi-0.dtd"
   xmlns:inkscape="http://www.inkscape.org/namespaces/inkscape"
   id="svg2"
   version="1.1"
   inkscape:version="0.92.1 r15371"
   width="20"
   height="20"
   sodipodi:docname="notifications.svg">
  <metadata
     id="metadata8">
    <rdf:RDF>
      <cc:Work
         rdf:about="">
        <dc:format>image/svg+xml</dc:format>
        <dc:type
           rdf:resource="http://purl.org/dc/dcmitype/StillImage" />
        <dc:title></dc:title>
      </cc:Work>
    </rdf:RDF>
  </metadata>
  <defs
     id="defs6">
    <linearGradient
       id="linearGradient3833">
      <stop
         style="stop-color:#000000;stop-opacity:1;"
         offset="0"
         id="stop3835" />
      <stop
         id="stop3841"
         offset="0.57058835"
         style="stop-color:#303030;stop-opacity:1;" />
      <stop
         style="stop-color:#7b7b7b;stop-opacity:1;"
         offset="1"
         id="stop3837" />
    </linearGradient>
    <mask
       maskUnits="userSpaceOnUse"
       id="mask3762">
      <circle
         style="fill:#ffffff;fill-opacity:1;stroke:none"
         id="path3764"
         transform="matrix(1.3767123,0,0,1.3767123,-1.6778649,-7.9556143)"
         cx="5.5684657"
         cy="6.2781363"
         r="9.678524" />
    </mask>
    <clipPath
       clipPathUnits="userSpaceOnUse"
       id="clipPath3781">
      <path
         sodipodi:nodetypes="cccsccscsscccccccccccsccscccccccccccsccccccccccccsccccscsccsccscccccccccccccccsccccscccc"
         inkscape:connector-curvature="0"
         id="path3783"
         d="M 5.5400901,22.987449 C 5.0667036,22.912267 4.6773685,22.71264 4.362827,22.383723 4.1843602,22.197078 4.099202,22.073006 3.990742,21.841553 3.8615099,21.565694 3.8100182,21.325875 3.8100182,20.999172 c 0,-0.326689 0.051462,-0.566507 0.1807238,-0.842366 0.1083878,-0.231454 0.1936182,-0.355525 0.372085,-0.542171 0.3871932,-0.404903 0.8753716,-0.611804 1.4435473,-0.611804 0.3266885,0 0.5665084,0.05146 0.8423808,0.180723 0.231439,0.108393 0.3555105,0.193604 0.5421568,0.372086 0.4049034,0.387192 0.6118042,0.87537 0.6118042,1.443532 0,0.568175 -0.2069008,1.056353 -0.6118042,1.443547 -0.082513,0.07878 -0.1973989,0.175722 -0.2554024,0.215253 -0.1642642,0.11198 -0.4493798,0.237117 -0.6507318,0.28569 -0.2129671,0.05132 -0.5660915,0.07216 -0.7446876,0.04384 z m 8.7680909,-2.286531 c -0.272552,-0.04198 -0.597328,-0.149128 -1.08325,-0.35728 -0.779116,-0.333761 -1.146802,-0.419867 -1.802752,-0.422195 -0.673014,-0.0029 -1.051754,0.08266 -1.8573633,0.417079 -0.4560645,0.189305 -0.742977,0.297679 -0.7535858,0.284641 -0.00288,-0.0029 -0.021563,-0.122189 -0.041544,-0.26377 -0.1325384,-0.937125 -0.7065648,-1.74837 -1.5399324,-2.176447 -0.7144998,-0.36701 -1.5040521,-0.42799 -2.2617922,-0.1747 -0.1426014,0.04772 -0.2619719,0.08381 -0.26512,0.08021 C 4.6637413,18.044326 4.3719122,17.57386 4.2312087,17.328118 3.4614797,15.983773 2.8840033,14.299055 2.6620519,12.750239 2.5801139,12.178096 2.5618567,11.906162 2.5620009,11.253418 2.562159,10.065561 2.7245544,9.1930206 3.1179434,8.2664886 c 0.09617,-0.22648 0.3454479,-0.691543 0.4604343,-0.859013 l 0.033495,-0.04887 0.158471,0.07978 c 0.7106899,0.357897 1.5847678,0.361895 2.2812557,0.01012 C 6.5734868,7.1851436 7.024678,6.7082356 7.253012,6.1786006 7.3858384,5.8706854 7.465706,5.5055001 7.4666403,5.2026745 l 4.458e-4,-0.1395808 0.3660043,0.01288 c 0.591219,0.020133 1.0424245,0.1374187 2.0625389,0.5361767 1.1964107,0.4676792 1.2667907,0.4677662 2.4552377,0.00291 1.245128,-0.4868811 1.877719,-0.6331473 2.611251,-0.603779 0.590399,0.023721 1.055549,0.1043597 1.551447,0.2691302 0.92682,0.3080007 1.712103,0.870052 2.292914,1.64112 l 0.110968,0.147293 -0.04844,0.03277 c -1.078965,0.72902 -1.794084,1.708883 -2.068993,2.834971 -0.092,0.3765714 -0.120169,0.6260364 -0.119602,1.0545854 8.35e-4,0.567401 0.0667,0.999875 0.227027,1.489276 0.364725,1.113797 1.208573,2.077934 2.305679,2.634365 l 0.245541,0.124492 -0.09401,0.274507 c -0.400678,1.169773 -0.969342,2.206261 -1.888543,3.44216 -0.424282,0.570461 -0.852818,1.022328 -1.216407,1.282662 -0.595373,0.426264 -1.221855,0.574643 -1.951419,0.462188 z m 4.867193,-7.59031 c -0.473388,-0.07518 -0.862722,-0.274809 -1.17725,-0.603726 -0.17848,-0.186647 -0.263624,-0.310718 -0.372099,-0.54217 -0.129231,-0.275859 -0.180708,-0.515679 -0.180708,-0.842367 0,-0.326703 0.05146,-0.566523 0.180708,-0.84238 0.10853,-0.231455 0.193619,-0.3555264 0.372099,-0.5421574 0.38718,-0.404919 0.875358,-0.61182 1.443534,-0.61182 0.326688,0 0.566522,0.05146 0.842381,0.180725 0.231439,0.10853 0.35551,0.193618 0.542156,0.372099 0.404904,0.3871794 0.611805,0.8753574 0.611805,1.4435334 0,0.568161 -0.206901,1.056339 -0.611805,1.443533 -0.08251,0.07878 -0.197398,0.175721 -0.255402,0.215253 -0.164264,0.11198 -0.44938,0.237117 -0.650732,0.28569 -0.212968,0.05132 -0.566092,0.07216 -0.744687,0.04384 z M 4.4952792,6.7937876 C 3.8678924,6.7129986 3.2937078,6.3128676 2.9905515,5.7451088 2.4718547,4.7737263 2.843408,3.5616173 3.819664,3.0403193 4.6775554,2.5822424 5.742089,2.8129916 6.343773,3.5874496 6.6502501,3.9819465 6.8054581,4.5293351 6.7482883,5.0141063 6.6370254,5.9571418 5.9272833,6.6779226 4.9946844,6.7948656 c -0.2037238,0.02559 -0.2941001,0.0253 -0.4994052,-0.0011 z M 10.974121,4.7413681 c -0.02947,-0.09286 -0.01538,-0.6598321 0.02228,-0.8937429 0.09445,-0.5874535 0.345621,-1.2193825 0.704093,-1.7717744 0.594942,-0.9167861 1.588793,-1.64696909 2.649762,-1.94676179 0.243313,-0.068712 0.570461,-0.12894389523 0.701979,-0.1290879952273 0.0713,-1.006999997e-4 0.08064,0.00718999523 0.09286,0.068136995227 0.02128,0.1063761 0.0161,0.522923 -0.01012,0.757467 C 15.002066,2.0486676 14.286359,3.2951612 13.296762,4.0269978 12.667435,4.4924059 11.98722,4.748124 11.298365,4.7782681 l -0.308878,0.01288 -0.0161,-0.0506 z"
         style="fill:url(#linearGradient3785);fill-opacity:1" />
    </clipPath>
    <linearGradient
       inkscape:collect="always"
       xlink:href="#linearGradient3833"
       id="linearGradient3785"
       gradientUnits="userSpaceOnUse"
       x1="6.6399784"
       y1="0.14898448"
       x2="11.947667"
       y2="23.04451" />
    <clipPath
       clipPathUnits="userSpaceOnUse"
       id="clipPath3791">
      <path
         sodipodi:nodetypes="cccsccscsscccccccccccsccscccccccccccsccccccccccccsccccscsccsccscccccccccccccccsccccscccc"
         inkscape:connector-curvature="0"
         id="path3793"
         d="M 5.5400901,22.987449 C 5.0667036,22.912267 4.6773685,22.71264 4.362827,22.383723 4.1843602,22.197078 4.099202,22.073006 3.990742,21.841553 3.8615099,21.565694 3.8100182,21.325875 3.8100182,20.999172 c 0,-0.326689 0.051462,-0.566507 0.1807238,-0.842366 0.1083878,-0.231454 0.1936182,-0.355525 0.372085,-0.542171 0.3871932,-0.404903 0.8753716,-0.611804 1.4435473,-0.611804 0.3266885,0 0.5665084,0.05146 0.8423808,0.180723 0.231439,0.108393 0.3555105,0.193604 0.5421568,0.372086 0.4049034,0.387192 0.6118042,0.87537 0.6118042,1.443532 0,0.568175 -0.2069008,1.056353 -0.6118042,1.443547 -0.082513,0.07878 -0.1973989,0.175722 -0.2554024,0.215253 -0.1642642,0.11198 -0.4493798,0.237117 -0.6507318,0.28569 -0.2129671,0.05132 -0.5660915,0.07216 -0.7446876,0.04384 z m 8.7680909,-2.286531 c -0.272552,-0.04198 -0.597328,-0.149128 -1.08325,-0.35728 -0.779116,-0.333761 -1.146802,-0.419867 -1.802752,-0.422195 -0.673014,-0.0029 -1.051754,0.08266 -1.8573633,0.417079 -0.4560645,0.189305 -0.742977,0.297679 -0.7535858,0.284641 -0.00288,-0.0029 -0.021563,-0.122189 -0.041544,-0.26377 -0.1325384,-0.937125 -0.7065648,-1.74837 -1.5399324,-2.176447 -0.7144998,-0.36701 -1.5040521,-0.42799 -2.2617922,-0.1747 -0.1426014,0.04772 -0.2619719,0.08381 -0.26512,0.08021 C 4.6637413,18.044326 4.3719122,17.57386 4.2312087,17.328118 3.4614797,15.983773 2.8840033,14.299055 2.6620519,12.750239 2.5801139,12.178096 2.5618567,11.906162 2.5620009,11.253418 2.562159,10.065561 2.7245544,9.1930206 3.1179434,8.2664886 c 0.09617,-0.22648 0.3454479,-0.691543 0.4604343,-0.859013 l 0.033495,-0.04887 0.158471,0.07978 c 0.7106899,0.357897 1.5847678,0.361895 2.2812557,0.01012 C 6.5734868,7.1851436 7.024678,6.7082356 7.253012,6.1786006 7.3858384,5.8706854 7.465706,5.5055001 7.4666403,5.2026745 l 4.458e-4,-0.1395808 0.3660043,0.01288 c 0.591219,0.020133 1.0424245,0.1374187 2.0625389,0.5361767 1.1964107,0.4676792 1.2667907,0.4677662 2.4552377,0.00291 1.245128,-0.4868811 1.877719,-0.6331473 2.611251,-0.603779 0.590399,0.023721 1.055549,0.1043597 1.551447,0.2691302 0.92682,0.3080007 1.712103,0.870052 2.292914,1.64112 l 0.110968,0.147293 -0.04844,0.03277 c -1.078965,0.72902 -1.794084,1.708883 -2.068993,2.834971 -0.092,0.3765714 -0.120169,0.6260364 -0.119602,1.0545854 8.35e-4,0.567401 0.0667,0.999875 0.227027,1.489276 0.364725,1.113797 1.208573,2.077934 2.305679,2.634365 l 0.245541,0.124492 -0.09401,0.274507 c -0.400678,1.169773 -0.969342,2.206261 -1.888543,3.44216 -0.424282,0.570461 -0.852818,1.022328 -1.216407,1.282662 -0.595373,0.426264 -1.221855,0.574643 -1.951419,0.462188 z m 4.867193,-7.59031 c -0.473388,-0.07518 -0.862722,-0.274809 -1.17725,-0.603726 -0.17848,-0.186647 -0.263624,-0.310718 -0.372099,-0.54217 -0.129231,-0.275859 -0.180708,-0.515679 -0.180708,-0.842367 0,-0.326703 0.05146,-0.566523 0.180708,-0.84238 0.10853,-0.231455 0.193619,-0.3555264 0.372099,-0.5421574 0.38718,-0.404919 0.875358,-0.61182 1.443534,-0.61182 0.326688,0 0.566522,0.05146 0.842381,0.180725 0.231439,0.10853 0.35551,0.193618 0.542156,0.372099 0.404904,0.3871794 0.611805,0.8753574 0.611805,1.4435334 0,0.568161 -0.206901,1.056339 -0.611805,1.443533 -0.08251,0.07878 -0.197398,0.175721 -0.255402,0.215253 -0.164264,0.11198 -0.44938,0.237117 -0.650732,0.28569 -0.212968,0.05132 -0.566092,0.07216 -0.744687,0.04384 z M 4.4952792,6.7937876 C 3.8678924,6.7129986 3.2937078,6.3128676 2.9905515,5.7451088 2.4718547,4.7737263 2.843408,3.5616173 3.819664,3.0403193 4.6775554,2.5822424 5.742089,2.8129916 6.343773,3.5874496 6.6502501,3.9819465 6.8054581,4.5293351 6.7482883,5.0141063 6.6370254,5.9571418 5.9272833,6.6779226 4.9946844,6.7948656 c -0.2037238,0.02559 -0.2941001,0.0253 -0.4994052,-0.0011 z M 10.974121,4.7413681 c -0.02947,-0.09286 -0.01538,-0.6598321 0.02228,-0.8937429 0.09445,-0.5874535 0.345621,-1.2193825 0.704093,-1.7717744 0.594942,-0.9167861 1.588793,-1.64696909 2.649762,-1.94676179 0.243313,-0.068712 0.570461,-0.12894389523 0.701979,-0.1290879952273 0.0713,-1.006999997e-4 0.08064,0.00718999523 0.09286,0.068136995227 0.02128,0.1063761 0.0161,0.522923 -0.01012,0.757467 C 15.002066,2.0486676 14.286359,3.2951612 13.296762,4.0269978 12.667435,4.4924059 11.98722,4.748124 11.298365,4.7782681 l -0.308878,0.01288 -0.0161,-0.0506 z"
         style="fill:url(#linearGradient3795);fill-opacity:1" />
    </clipPath>
    <linearGradient
       inkscape:collect="always"
       xlink:href="#linearGradient3833"
       id="linearGradient3795"
       gradientUnits="userSpaceOnUse"
       x1="6.6399784"
       y1="0.14898448"
       x2="11.947667"
       y2="23.04451" />
    <linearGradient
       inkscape:collect="always"
       xlink:href="#linearGradient3833"
       id="linearGradient3807"
       gradientUnits="userSpaceOnUse"
       x1="6.6399784"
       y1="0.14898448"
       x2="11.947667"
       y2="23.04451"
       gradientTransform="matrix(0.85227275,0,0,0.85227275,1.0738635,1.840909)" />
    <linearGradient
       inkscape:collect="always"
       xlink:href="#linearGradient3833"
       id="linearGradient3810"
       gradientUnits="userSpaceOnUse"
       x1="6.6399784"
       y1="0.14898448"
       x2="11.947667"
       y2="23.04451" />
    <linearGradient
       inkscape:collect="always"
       xlink:href="#linearGradient3833"
       id="linearGradient3816"
       gradientUnits="userSpaceOnUse"
       x1="6.6399784"
       y1="0.14898448"
       x2="11.947667"
       y2="23.04451"
       gradientTransform="matrix(0.85227275,0,0,0.85227275,1.0738635,3.5454545)" />
    <linearGradient
       inkscape:collect="always"
       xlink:href="#linearGradient3833-4"
       id="linearGradient3839-6"
       x1="6.6399784"
       y1="0.14898448"
       x2="11.947667"
       y2="23.04451"
       gradientUnits="userSpaceOnUse"
       gradientTransform="translate(0.03799994)" />
    <linearGradient
       id="linearGradient3833-4">
      <stop
         style="stop-color:#000000;stop-opacity:1;"
         offset="0"
         id="stop3835-3" />
      <stop
         id="stop3841-7"
         offset="0.60000002"
         style="stop-color:#000000;stop-opacity:1;" />
      <stop
         style="stop-color:#525252;stop-opacity:1;"
         offset="1"
         id="stop3837-4" />
    </linearGradient>
    <linearGradient
       inkscape:collect="always"
       xlink:href="#linearGradient3833-4"
       id="linearGradient3803"
       x1="64.638397"
       y1="879.5412"
       x2="110.36166"
       y2="1050.1827"
       gradientUnits="userSpaceOnUse" />
    <linearGradient
       inkscape:collect="always"
       xlink:href="#linearGradient3833-4"
       id="linearGradient3805"
       gradientUnits="userSpaceOnUse"
       x1="64.638397"
       y1="879.5412"
       x2="110.36166"
       y2="1050.1827" />
    <linearGradient
       inkscape:collect="always"
       xlink:href="#linearGradient3833-4"
       id="linearGradient3808"
       gradientUnits="userSpaceOnUse"
       x1="64.638397"
       y1="879.5412"
       x2="110.36166"
       y2="1050.1827" />
    <linearGradient
       inkscape:collect="always"
       xlink:href="#linearGradient3833-4"
       id="linearGradient3811"
       gradientUnits="userSpaceOnUse"
       x1="64.638397"
       y1="879.5412"
       x2="110.36166"
       y2="1050.1827" />
    <linearGradient
       inkscape:collect="always"
       xlink:href="#linearGradient3833-4"
       id="linearGradient3813"
       gradientUnits="userSpaceOnUse"
       x1="64.638397"
       y1="879.5412"
       x2="110.36166"
       y2="1050.1827" />
    <linearGradient
       inkscape:collect="always"
       xlink:href="#linearGradient3833-4"
       id="linearGradient3815"
       gradientUnits="userSpaceOnUse"
       x1="64.638397"
       y1="879.5412"
       x2="110.36166"
       y2="1050.1827" />
    <linearGradient
       inkscape:collect="always"
       xlink:href="#linearGradient3833-4"
       id="linearGradient3819"
       gradientUnits="userSpaceOnUse"
       x1="64.638397"
       y1="879.5412"
       x2="110.36166"
       y2="1050.1827"
       gradientTransform="matrix(0.13142853,0,0,0.13142853,0,1.5949954e-6)" />
    <linearGradient
       inkscape:collect="always"
       xlink:href="#linearGradient3833-4"
       id="linearGradient3822"
       gradientUnits="userSpaceOnUse"
       x1="64.638397"
       y1="879.5412"
       x2="110.36166"
       y2="1050.1827"
       gradientTransform="matrix(0.13142853,0,0,0.13142853,0,1.5949954e-6)" />
    <linearGradient
       inkscape:collect="always"
       xlink:href="#linearGradient3833-4"
       id="linearGradient3825"
       gradientUnits="userSpaceOnUse"
       x1="64.638397"
       y1="879.5412"
       x2="110.36166"
       y2="1050.1827"
       gradientTransform="matrix(0.13142853,0,0,0.13142853,0,1.5949954e-6)" />
    <linearGradient
       inkscape:collect="always"
       xlink:href="#linearGradient3833-4"
       id="linearGradient3828"
       gradientUnits="userSpaceOnUse"
       x1="64.638397"
       y1="879.5412"
       x2="110.36166"
       y2="1050.1827"
       gradientTransform="matrix(0.13142853,0,0,0.13142853,0,1.5949954e-6)" />
    <clipPath
       clipPathUnits="userSpaceOnUse"
       id="clipPath3855">
      <path
         id="path3857"
         d="M 6.5625,0 C 2.933201,0 0,2.933201 0,6.5625 c 0,3.629299 2.933201,6.59375 6.5625,6.59375 0.094021,0 0.1881871,-0.02735 0.28125,-0.03125 C 6.6641469,12.61369 6.5625,12.072689 6.5625,11.5 6.5625,9.5994299 7.6428983,7.9473434 9.21875,7.125 9.2046313,6.9404079 9.1875,6.75072 9.1875,6.5625 9.1875,4.7112109 9.886716,3.0288509 11.03125,1.75 9.8587618,0.66237376 8.2878977,0 6.5625,0 Z m 9.875,0 c -3.629298,0 -6.59375,2.933201 -6.59375,6.5625 0,0.094021 0.02734,0.1881871 0.03125,0.28125 0.511311,-0.1796031 1.052312,-0.28125 1.625,-0.28125 1.90057,0 3.552657,1.0803983 4.375,2.65625 0.184577,-0.014119 0.37428,-0.03125 0.5625,-0.03125 1.851289,0 3.533649,0.6992166 4.8125,1.84375 C 22.337627,9.8587631 23,8.2878977 23,6.5625 23,2.933201 20.066799,0 16.4375,0 Z M 11.5,7.21875 c -2.3590441,0 -4.28125,1.922206 -4.28125,4.28125 0,2.359044 1.9222059,4.28125 4.28125,4.28125 2.359044,0 4.28125,-1.922206 4.28125,-4.28125 0,-2.359044 -1.922206,-4.28125 -4.28125,-4.28125 z m 4.9375,2.625 c -0.09402,0 -0.188187,0.02734 -0.28125,0.03125 0.179603,0.51131 0.28125,1.052311 0.28125,1.625 0,1.90057 -1.080398,3.552657 -2.65625,4.375 0.01412,0.184577 0.03125,0.37428 0.03125,0.5625 0,1.851289 -0.699216,3.533648 -1.84375,4.8125 C 13.141238,22.337637 14.712103,23 16.4375,23 20.066799,23 23,20.066794 23,16.4375 23,12.808198 20.066799,9.84375 16.4375,9.84375 Z M 1.75,11.96875 C 0.66237376,13.141238 0,14.7121 0,16.4375 0,20.066794 2.933201,23 6.5625,23 c 3.629298,0 6.59375,-2.933206 6.59375,-6.5625 0,-0.09402 -0.02735,-0.188187 -0.03125,-0.28125 -0.511311,0.179604 -1.052311,0.28125 -1.625,0.28125 -1.9005696,0 -3.5526567,-1.080398 -4.375,-2.65625 -0.1845772,0.01412 -0.37428,0.03125 -0.5625,0.03125 -1.8512891,0 -3.5336491,-0.699217 -4.8125,-1.84375 z"
         style="opacity:0.6;fill:url(#linearGradient3859);fill-opacity:1;stroke:none"
         inkscape:connector-curvature="0" />
    </clipPath>
    <linearGradient
       inkscape:collect="always"
       xlink:href="#linearGradient3833-4"
       id="linearGradient3859"
       gradientUnits="userSpaceOnUse"
       x1="8.49576"
       y1="0.2880277"
       x2="14.504238"
       y2="22.711973" />
    <linearGradient
       inkscape:collect="always"
       xlink:href="#linearGradient3833"
       id="linearGradient3863"
       gradientUnits="userSpaceOnUse"
       x1="8.49576"
       y1="0.2880277"
       x2="14.504238"
       y2="22.711973" />
    <clipPath
       clipPathUnits="userSpaceOnUse"
       id="clipPath3877">
      <path
         id="path3879"
         d="M 6.5625,0 C 2.933201,0 0,2.933201 0,6.5625 c 0,3.629299 2.933201,6.59375 6.5625,6.59375 0.094021,0 0.1881871,-0.02735 0.28125,-0.03125 C 6.6641469,12.61369 6.5625,12.072689 6.5625,11.5 6.5625,9.5994299 7.6428983,7.9473434 9.21875,7.125 9.2046313,6.9404079 9.1875,6.75072 9.1875,6.5625 9.1875,4.7112109 9.886716,3.0288509 11.03125,1.75 9.8587618,0.66237376 8.2878977,0 6.5625,0 Z m 9.875,0 c -3.629298,0 -6.59375,2.933201 -6.59375,6.5625 0,0.094021 0.02734,0.1881871 0.03125,0.28125 0.511311,-0.1796031 1.052312,-0.28125 1.625,-0.28125 1.90057,0 3.552657,1.0803983 4.375,2.65625 0.184577,-0.014119 0.37428,-0.03125 0.5625,-0.03125 1.851289,0 3.533649,0.6992166 4.8125,1.84375 C 22.337627,9.8587631 23,8.2878977 23,6.5625 23,2.933201 20.066799,0 16.4375,0 Z M 11.5,7.21875 c -2.3590441,0 -4.28125,1.922206 -4.28125,4.28125 0,2.359044 1.9222059,4.28125 4.28125,4.28125 2.359044,0 4.28125,-1.922206 4.28125,-4.28125 0,-2.359044 -1.922206,-4.28125 -4.28125,-4.28125 z m 4.9375,2.625 c -0.09402,0 -0.188187,0.02734 -0.28125,0.03125 0.179603,0.51131 0.28125,1.052311 0.28125,1.625 0,1.90057 -1.080398,3.552657 -2.65625,4.375 0.01412,0.184577 0.03125,0.37428 0.03125,0.5625 0,1.851289 -0.699216,3.533648 -1.84375,4.8125 C 13.141238,22.337637 14.712103,23 16.4375,23 20.066799,23 23,20.066794 23,16.4375 23,12.808198 20.066799,9.84375 16.4375,9.84375 Z M 1.75,11.96875 C 0.66237376,13.141238 0,14.7121 0,16.4375 0,20.066794 2.933201,23 6.5625,23 c 3.629298,0 6.59375,-2.933206 6.59375,-6.5625 0,-0.09402 -0.02735,-0.188187 -0.03125,-0.28125 -0.511311,0.179604 -1.052311,0.28125 -1.625,0.28125 -1.9005696,0 -3.5526567,-1.080398 -4.375,-2.65625 -0.1845772,0.01412 -0.37428,0.03125 -0.5625,0.03125 -1.8512891,0 -3.5336491,-0.699217 -4.8125,-1.84375 z"
         style="opacity:0.8;fill:url(#linearGradient3881);fill-opacity:1;stroke:none"
         inkscape:connector-curvature="0" />
    </clipPath>
    <linearGradient
       inkscape:collect="always"
       xlink:href="#linearGradient3833"
       id="linearGradient3881"
       gradientUnits="userSpaceOnUse"
       x1="8.49576"
       y1="0.2880277"
       x2="14.504238"
       y2="22.711973" />
    <linearGradient
       inkscape:collect="always"
       xlink:href="#linearGradient3833"
       id="linearGradient3884"
       gradientUnits="userSpaceOnUse"
       gradientTransform="translate(0.0379999,40)"
       x1="6.6399784"
       y1="0.14898448"
       x2="11.947667"
       y2="23.04451" />
    <linearGradient
       inkscape:collect="always"
       xlink:href="#linearGradient3833"
       id="linearGradient3895"
       gradientUnits="userSpaceOnUse"
       gradientTransform="translate(0.0379999,40)"
       x1="6.6399784"
       y1="0.14898448"
       x2="11.947667"
       y2="23.04451" />
    <clipPath
       clipPathUnits="userSpaceOnUse"
       id="clipPath3899">
      <circle
         clip-path="none"
         transform="matrix(1.4933333,0,0,1.4933333,-4.202,-6.84)"
         id="path3901"
         style="opacity:0.4;fill:#000000;fill-opacity:1;stroke:none"
         cx="6.1875"
         cy="5.25"
         r="9.375" />
    </clipPath>
    <clipPath
       clipPathUnits="userSpaceOnUse"
       id="clipPath3903">
      <path
         style="fill:url(#linearGradient3907);fill-opacity:1"
         d="M 5.7955313,23.137031 C 5.3920769,23.072955 5.0602572,22.902819 4.7921821,22.622492 4.6400797,22.463419 4.5675017,22.357677 4.4750642,22.160414 c -0.110141,-0.235106 -0.154026,-0.439497 -0.154026,-0.717937 0,-0.278429 0.04386,-0.482819 0.154026,-0.717927 0.092376,-0.19726 0.1650155,-0.303003 0.3171179,-0.462077 0.3299942,-0.345087 0.7460553,-0.521423 1.230296,-0.521423 0.2784277,0 0.4828197,0.04386 0.7179382,0.154025 0.1972492,0.09238 0.3029919,0.165003 0.4620655,0.317119 0.3450881,0.329993 0.521424,0.746054 0.521424,1.230283 0,0.48424 -0.1763359,0.9003 -0.521424,1.230295 -0.070324,0.06714 -0.1682377,0.149763 -0.2176725,0.183455 -0.1399979,0.09544 -0.3829942,0.202087 -0.554601,0.243485 -0.1815061,0.04374 -0.4824644,0.0615 -0.634677,0.03736 z m 7.4728047,-1.948748 c -0.232288,-0.03578 -0.509086,-0.127098 -0.923224,-0.3045 -0.66402,-0.284456 -0.977388,-0.357841 -1.536437,-0.359825 -0.573591,-0.0025 -0.8963808,0.07045 -1.5829797,0.355465 -0.3886914,0.16134 -0.6332191,0.253703 -0.6422607,0.242591 -0.00245,-0.0025 -0.018377,-0.104139 -0.035407,-0.224804 C 8.4350693,20.098524 7.9458422,19.407122 7.2355857,19.042284 6.626637,18.729491 5.9537232,18.67752 5.3079218,18.893392 5.1863867,18.934062 5.0846504,18.964821 5.0819673,18.961753 5.0486435,18.924142 4.7999255,18.523176 4.6800076,18.313737 4.0239885,17.167989 3.5318211,15.732149 3.342658,14.412136 3.2728244,13.924514 3.2572644,13.692752 3.2573873,13.136435 3.257522,12.124058 3.3959271,11.380415 3.7312019,10.590758 3.8131649,10.397735 4.0256177,10.001374 4.1236175,9.8586437 l 0.028547,-0.04165 0.1350605,0.067994 C 4.8929263,10.190014 5.6378791,10.193422 6.2314769,9.893621 6.6762673,9.6691562 7.0608051,9.2627005 7.2554081,8.8113071 7.3686124,8.5488795 7.4366814,8.2376423 7.4374777,7.9795519 l 3.799e-4,-0.1189602 0.3119355,0.010977 c 0.5038797,0.017156 0.88843,0.1171184 1.7578457,0.456969 1.0196682,0.3985901 1.0796512,0.3986642 2.0925322,0.00247 1.061189,-0.4149554 1.600329,-0.5396139 2.225498,-0.5145844 0.503181,0.020216 0.899616,0.088943 1.322256,0.2293722 0.789903,0.2625008 1.459179,0.7415216 1.954188,1.3986818 l 0.09458,0.1255339 -0.04127,0.027929 c -0.919571,0.6213238 -1.529049,1.4564348 -1.763347,2.4161688 -0.07841,0.320941 -0.102416,0.533554 -0.101933,0.898793 7.11e-4,0.483582 0.05685,0.852167 0.193489,1.269271 0.310845,0.949258 1.030034,1.770966 1.965068,2.245196 l 0.209268,0.106101 -0.08012,0.233956 c -0.341487,0.996966 -0.826144,1.880335 -1.609554,2.933658 -0.361604,0.48619 -0.726834,0.871303 -1.036711,1.093179 -0.507418,0.363294 -1.041353,0.489753 -1.66314,0.39391 z m 4.148176,-6.469015 c -0.403455,-0.06406 -0.735274,-0.234212 -1.003338,-0.514539 -0.152113,-0.159073 -0.224679,-0.264816 -0.31713,-0.462077 -0.11014,-0.235107 -0.154012,-0.439499 -0.154012,-0.717925 0,-0.278442 0.04386,-0.482834 0.154012,-0.717938 0.0925,-0.197263 0.165017,-0.303006 0.31713,-0.462067 0.329983,-0.345101 0.746044,-0.521437 1.230285,-0.521437 0.278427,0 0.482831,0.04386 0.717938,0.154027 0.197249,0.0925 0.302992,0.165015 0.462065,0.31713 0.345089,0.329982 0.521425,0.746043 0.521425,1.230285 0,0.484227 -0.176336,0.900287 -0.521425,1.230283 -0.07032,0.06714 -0.168237,0.149762 -0.217672,0.183454 -0.139998,0.09544 -0.382994,0.202089 -0.554601,0.243485 -0.181507,0.04374 -0.482465,0.0615 -0.634677,0.03736 z M 4.9050675,9.3356142 C 4.3703628,9.2667599 3.8810009,8.9257392 3.6226291,8.4418545 3.1805579,7.6139712 3.4972227,6.5809238 4.329259,6.1366357 5.0604165,5.7462291 5.9676895,5.9428902 6.4804884,6.6029397 6.7416904,6.9391587 6.87397,7.4056834 6.8252457,7.8188406 6.7304194,8.6225644 6.1255255,9.2368656 5.3306969,9.3365329 5.1570687,9.3583426 5.0800434,9.3580954 4.9050675,9.3355954 Z M 10.426808,7.5863934 c -0.02512,-0.079142 -0.01311,-0.5623568 0.01899,-0.7617128 0.0805,-0.5006702 0.294565,-1.0392469 0.600081,-1.5100347 0.507052,-0.7813526 1.354084,-1.4036668 2.258319,-1.6591722 0.207369,-0.05856 0.48619,-0.1098955 0.598277,-0.1100182 0.06077,-8.61e-5 0.06873,0.00614 0.07914,0.058074 0.01814,0.090661 0.01372,0.445673 -0.0086,0.6455684 -0.113272,1.0423832 -0.723251,2.1047361 -1.566657,2.72846 -0.536358,0.3966545 -1.116087,0.614596 -1.70318,0.6402878 l -0.263247,0.010977 -0.01372,-0.043125 z"
         id="path3905"
         inkscape:connector-curvature="0"
         sodipodi:nodetypes="cccsccscsscccccccccccsccscccccccccccsccccccccccccsccccscsccsccscccccccccccccccsccccscccc" />
    </clipPath>
    <linearGradient
       inkscape:collect="always"
       xlink:href="#linearGradient3833"
       id="linearGradient3907"
       gradientUnits="userSpaceOnUse"
       gradientTransform="matrix(0.85227275,0,0,0.85227275,1.0738635,3.5454546)"
       x1="6.6399784"
       y1="0.14898448"
       x2="11.947667"
       y2="23.04451" />
    <clipPath
       clipPathUnits="userSpaceOnUse"
       id="clipPath1132">
      <circle
         clip-path="none"
         id="circle1134"
         style="opacity:0.4;fill:#000000;fill-opacity:1;stroke:none;stroke-width:1.27999997"
         cx="4"
         cy="1"
         r="12" />
    </clipPath>
    <clipPath
       clipPathUnits="userSpaceOnUse"
       id="clipPath1361">
      <path
         inkscape:connector-curvature="0"
         id="path1363"
         d="M 5.5,0 C 2.462434,0 0,2.4624339 0,5.5 0.0017,8.4489443 2.328906,10.871759 5.275391,10.992188 5.107866,10.522524 5,10.025046 5,9.5 5,7.9438698 5.802766,6.5668105 7.013672,5.7578125 7.010225,5.6716547 7,5.5869902 7,5.5 7,3.7921357 7.670812,2.2386784 8.755859,1.0761719 7.81299,0.3796454 6.67224,0.0025889 5.5,0 Z m 8,0 C 10.551056,0.0017288 8.128242,2.3289061 8.007812,5.2753906 8.477477,5.107866 8.974954,5 9.5,5 11.05613,5 12.43319,5.8027663 13.242188,7.0136719 13.328345,7.0102251 13.41301,7 13.5,7 15.207864,7 16.761322,7.6708117 17.923828,8.7558594 18.620355,7.8129896 18.997411,6.6722397 19,5.5 19,2.4624339 16.537566,0 13.5,0 Z m -4,6 A 3.5,3.5 0 0 0 6,9.5 3.5,3.5 0 0 0 9.5,13 3.5,3.5 0 0 0 13,9.5 3.5,3.5 0 0 0 9.5,6 Z m 4.224609,2.0078125 C 13.892134,8.477476 14,8.9749543 14,9.5 14,11.05613 13.197234,12.433189 11.986328,13.242188 11.989775,13.328345 12,13.41301 12,13.5 12,15.207864 11.329188,16.761322 10.244141,17.923828 11.187011,18.620354 12.32776,18.997411 13.5,19 16.537566,19 19,16.537566 19,13.5 18.998271,10.551056 16.671094,8.128241 13.724609,8.0078125 Z M 1.076172,10.244141 C 0.379645,11.187011 0.002589,12.32776 0,13.5 0,16.537566 2.462434,19 5.5,19 8.448944,18.9983 10.871758,16.671094 10.992188,13.724609 10.522523,13.892134 10.025046,14 9.5,14 7.94387,14 6.566812,13.197234 5.757812,11.986328 5.671655,11.989775 5.58699,12 5.5,12 3.792136,12 2.238678,11.329188 1.076172,10.244141 Z"
         style="opacity:0.6;fill:#ffffff;fill-opacity:1;stroke:none;stroke-width:1.68971622;stroke-linecap:butt;stroke-linejoin:miter;stroke-miterlimit:4;stroke-dasharray:none;stroke-opacity:1" />
    </clipPath>
  </defs>
  <sodipodi:namedview
     pagecolor="#b3b3b3"
     bordercolor="#666666"
     borderopacity="1"
     objecttolerance="10"
     gridtolerance="10"
     guidetolerance="10"
     inkscape:pageopacity="1"
     inkscape:pageshadow="2"
     inkscape:window-width="1366"
     inkscape:window-height="724"
     id="namedview4"
     showgrid="false"
     borderlayer="false"
     inkscape:showpageshadow="true"
     inkscape:zoom="11.313708"
     inkscape:cx="8.1505117"
     inkscape:cy="8.9457074"
     inkscape:window-x="0"
     inkscape:window-y="22"
     inkscape:window-maximized="1"
     inkscape:current-layer="svg2"
     inkscape:object-paths="true"
     inkscape:object-nodes="true"
     inkscape:snap-smooth-nodes="true"
     inkscape:snap-nodes="true" />
  <g
     id="g934"
     transform="translate(0,1)"
     style="fill:#fcfcfc;fill-opacity:1;opacity:0.25">
    <circle
       style="opacity:1;fill:#fcfcfc;fill-opacity:1;stroke:none;stroke-width:1.65923619;stroke-linecap:butt;stroke-linejoin:miter;stroke-miterlimit:4;stroke-dasharray:none;stroke-opacity:1"
       id="circle922"
       cx="1.5"
       cy="4.5"
       r="1.5" />
    <path
       style="opacity:1;fill:#fcfcfc;fill-opacity:1;stroke:none;stroke-width:1.65923619;stroke-linecap:butt;stroke-linejoin:miter;stroke-miterlimit:4;stroke-dasharray:none;stroke-opacity:1"
       d="M 6.5,3 A 1.5,1.5 0 0 0 5,4.5 1.5,1.5 0 0 0 6.5,6 h 12 A 1.5,1.5 0 0 0 20,4.5 1.5,1.5 0 0 0 18.5,3 Z"
       id="path924"
       inkscape:connector-curvature="0" />
    <circle
       r="1.5"
       cy="9.5"
       cx="1.5"
       id="circle926"
       style="opacity:1;fill:#fcfcfc;fill-opacity:1;stroke:none;stroke-width:1.65923619;stroke-linecap:butt;stroke-linejoin:miter;stroke-miterlimit:4;stroke-dasharray:none;stroke-opacity:1" />
    <path
       id="path928"
       d="M 6.5,8 C 5.6715729,8 5,8.6715729 5,9.5 5,10.328427 5.6715729,11 6.5,11 h 8 C 15.328427,11 16,10.328427 16,9.5 16,8.6715729 15.328427,8 14.5,8 Z"
       style="opacity:1;fill:#fcfcfc;fill-opacity:1;stroke:none;stroke-width:1.65923619;stroke-linecap:butt;stroke-linejoin:miter;stroke-miterlimit:4;stroke-dasharray:none;stroke-opacity:1"
       inkscape:connector-curvature="0"
       sodipodi:nodetypes="sssssss" />
    <circle
       style="opacity:1;fill:#fcfcfc;fill-opacity:1;stroke:none;stroke-width:1.65923619;stroke-linecap:butt;stroke-linejoin:miter;stroke-miterlimit:4;stroke-dasharray:none;stroke-opacity:1"
       id="circle930"
       cx="1.5"
       cy="14.5"
       r="1.5" />
    <path
       inkscape:connector-curvature="0"
       style="opacity:1;fill:#fcfcfc;fill-opacity:1;stroke:none;stroke-width:1.65923619;stroke-linecap:butt;stroke-linejoin:miter;stroke-miterlimit:4;stroke-dasharray:none;stroke-opacity:1"
       d="M 6.5,13 C 5.6715729,13 5,13.671573 5,14.5 5,15.328427 5.6715729,16 6.5,16 h 10 C 17.328427,16 18,15.328427 18,14.5 18,13.671573 17.328427,13 16.5,13 Z"
       id="path932"
       sodipodi:nodetypes="sssssss" />
  </g>
  <g
     id="g920">
    <circle
       r="1.5"
       cy="4.5"
       cx="1.5"
       id="path894"
       style="opacity:1;fill:#000000;fill-opacity:1;stroke:none;stroke-width:1.65923619;stroke-linecap:butt;stroke-linejoin:miter;stroke-miterlimit:4;stroke-dasharray:none;stroke-opacity:1" />
    <path
       id="circle896"
       d="M 6.5 3 A 1.5 1.5 0 0 0 5 4.5 A 1.5 1.5 0 0 0 6.5 6 L 18.5 6 A 1.5 1.5 0 0 0 20 4.5 A 1.5 1.5 0 0 0 18.5 3 L 6.5 3 z "
       style="opacity:1;fill:#000000;fill-opacity:1;stroke:none;stroke-width:1.65923619;stroke-linecap:butt;stroke-linejoin:miter;stroke-miterlimit:4;stroke-dasharray:none;stroke-opacity:1" />
    <circle
       style="opacity:1;fill:#000000;fill-opacity:1;stroke:none;stroke-width:1.65923619;stroke-linecap:butt;stroke-linejoin:miter;stroke-miterlimit:4;stroke-dasharray:none;stroke-opacity:1"
       id="circle906"
       cx="1.5"
       cy="9.5"
       r="1.5" />
    <path
       sodipodi:nodetypes="sssssss"
       inkscape:connector-curvature="0"
       style="opacity:1;fill:#000000;fill-opacity:1;stroke:none;stroke-width:1.65923619;stroke-linecap:butt;stroke-linejoin:miter;stroke-miterlimit:4;stroke-dasharray:none;stroke-opacity:1"
       d="M 6.5,8 C 5.6715729,8 5,8.6715729 5,9.5 5,10.328427 5.6715729,11 6.5,11 h 8 C 15.328427,11 16,10.328427 16,9.5 16,8.6715729 15.328427,8 14.5,8 Z"
       id="path908" />
    <circle
       r="1.5"
       cy="14.5"
       cx="1.5"
       id="circle910"
       style="opacity:1;fill:#000000;fill-opacity:1;stroke:none;stroke-width:1.65923619;stroke-linecap:butt;stroke-linejoin:miter;stroke-miterlimit:4;stroke-dasharray:none;stroke-opacity:1" />
    <path
       sodipodi:nodetypes="sssssss"
       id="path912"
       d="M 6.5,13 C 5.6715729,13 5,13.671573 5,14.5 5,15.328427 5.6715729,16 6.5,16 h 10 C 17.328427,16 18,15.328427 18,14.5 18,13.671573 17.328427,13 16.5,13 Z"
       style="opacity:1;fill:#000000;fill-opacity:1;stroke:none;stroke-width:1.65923619;stroke-linecap:butt;stroke-linejoin:miter;stroke-miterlimit:4;stroke-dasharray:none;stroke-opacity:1"
       inkscape:connector-curvature="0" />
  </g>
</svg>
