<?xml version="1.0" encoding="UTF-8" standalone="no"?>
<!-- Created with Inkscape (http://www.inkscape.org/) -->

<svg
   xmlns:dc="http://purl.org/dc/elements/1.1/"
   xmlns:cc="http://creativecommons.org/ns#"
   xmlns:rdf="http://www.w3.org/1999/02/22-rdf-syntax-ns#"
   xmlns:svg="http://www.w3.org/2000/svg"
   xmlns="http://www.w3.org/2000/svg"
   xmlns:xlink="http://www.w3.org/1999/xlink"
   xmlns:sodipodi="http://sodipodi.sourceforge.net/DTD/sodipodi-0.dtd"
   xmlns:inkscape="http://www.inkscape.org/namespaces/inkscape"
   width="16"
   height="16"
   id="svg3018"
   version="1.1"
   inkscape:version="0.48.4 r9939"
   sodipodi:docname="transmission.svg">
  <defs
     id="defs3020">
    <linearGradient
       id="linearGradient3993">
      <stop
         style="stop-color:#ffffff;stop-opacity:1;"
         offset="0"
         id="stop3995" />
      <stop
         style="stop-color:#d5d5d5;stop-opacity:1;"
         offset="1"
         id="stop3997" />
    </linearGradient>
    <linearGradient
       id="linearGradient4398"
       inkscape:collect="always">
      <stop
         id="stop4400"
         offset="0"
         style="stop-color:#000000;stop-opacity:1;" />
      <stop
         id="stop4402"
         offset="1"
         style="stop-color:#000000;stop-opacity:0;" />
    </linearGradient>
    <linearGradient
       y2="516.97302"
       x2="412.17142"
       y1="516.97302"
       x1="404.33392"
       gradientUnits="userSpaceOnUse"
       id="linearGradient4491"
       xlink:href="#linearGradient4398"
       inkscape:collect="always" />
    <linearGradient
       id="linearGradient4422-5">
      <stop
         id="stop4424-7"
         offset="0"
         style="stop-color:#235ea2;stop-opacity:1" />
      <stop
         id="stop4426-6"
         offset="1"
         style="stop-color:#1992f1;stop-opacity:1" />
    </linearGradient>
    <linearGradient
       inkscape:collect="always"
       xlink:href="#linearGradient4422-5"
       id="linearGradient4582"
       x1="3.3645334"
       y1="1046.2201"
       x2="36.073566"
       y2="1007.7176"
       gradientUnits="userSpaceOnUse" />
    <linearGradient
       inkscape:collect="always"
       xlink:href="#linearGradient4422-5"
       id="linearGradient4602"
       gradientUnits="userSpaceOnUse"
       x1="3.3645334"
       y1="1046.2201"
       x2="36.073566"
       y2="1007.7176" />
    <linearGradient
       inkscape:collect="always"
       xlink:href="#linearGradient4422-5"
       id="linearGradient4604"
       gradientUnits="userSpaceOnUse"
       x1="3.3645334"
       y1="1046.2201"
       x2="36.073566"
       y2="1007.7176" />
    <linearGradient
       inkscape:collect="always"
       xlink:href="#linearGradient4422-5"
       id="linearGradient4606"
       gradientUnits="userSpaceOnUse"
       x1="3.3645334"
       y1="1046.2201"
       x2="36.073566"
       y2="1007.7176" />
    <linearGradient
       id="linearGradient4613">
      <stop
         style="stop-color:#7fbc51;stop-opacity:1;"
         offset="0"
         id="stop4615" />
      <stop
         style="stop-color:#64ac31;stop-opacity:1;"
         offset="1"
         id="stop4617" />
    </linearGradient>
    <linearGradient
       inkscape:collect="always"
       xlink:href="#linearGradient4422-5"
       id="linearGradient3032"
       gradientUnits="userSpaceOnUse"
       x1="3.3645334"
       y1="1046.2201"
       x2="36.073566"
       y2="1007.7176" />
    <linearGradient
       inkscape:collect="always"
       xlink:href="#linearGradient4422-5"
       id="linearGradient3034"
       gradientUnits="userSpaceOnUse"
       x1="3.3645334"
       y1="1046.2201"
       x2="36.073566"
       y2="1007.7176" />
    <linearGradient
       inkscape:collect="always"
       xlink:href="#linearGradient4422-5"
       id="linearGradient3036"
       gradientUnits="userSpaceOnUse"
       x1="3.3645334"
       y1="1046.2201"
       x2="36.073566"
       y2="1007.7176" />
    <linearGradient
       inkscape:collect="always"
       xlink:href="#linearGradient4422-5"
       id="linearGradient3038"
       gradientUnits="userSpaceOnUse"
       x1="3.3645334"
       y1="1046.2201"
       x2="36.073566"
       y2="1007.7176" />
    <linearGradient
       inkscape:collect="always"
       xlink:href="#linearGradient4422-5"
       id="linearGradient3052"
       gradientUnits="userSpaceOnUse"
       x1="3.3645334"
       y1="1046.2201"
       x2="36.073566"
       y2="1007.7176" />
    <linearGradient
       inkscape:collect="always"
       xlink:href="#linearGradient4422-5"
       id="linearGradient3054"
       gradientUnits="userSpaceOnUse"
       x1="3.3645334"
       y1="1046.2201"
       x2="36.073566"
       y2="1007.7176" />
    <linearGradient
       inkscape:collect="always"
       xlink:href="#linearGradient4422-5"
       id="linearGradient3056"
       gradientUnits="userSpaceOnUse"
       x1="3.3645334"
       y1="1046.2201"
       x2="36.073566"
       y2="1007.7176" />
    <linearGradient
       inkscape:collect="always"
       xlink:href="#linearGradient4422-5"
       id="linearGradient3837"
       gradientUnits="userSpaceOnUse"
       x1="3.3645334"
       y1="1046.2201"
       x2="36.073566"
       y2="1007.7176" />
    <linearGradient
       inkscape:collect="always"
       xlink:href="#linearGradient4422-5"
       id="linearGradient3839"
       gradientUnits="userSpaceOnUse"
       x1="3.3645334"
       y1="1046.2201"
       x2="36.073566"
       y2="1007.7176" />
    <linearGradient
       inkscape:collect="always"
       xlink:href="#linearGradient4422-5"
       id="linearGradient3849"
       gradientUnits="userSpaceOnUse"
       x1="3.3645334"
       y1="1046.2201"
       x2="36.073566"
       y2="1007.7176" />
    <linearGradient
       inkscape:collect="always"
       xlink:href="#linearGradient4422-5"
       id="linearGradient3851"
       gradientUnits="userSpaceOnUse"
       x1="3.3645334"
       y1="1046.2201"
       x2="36.073566"
       y2="1007.7176" />
    <radialGradient
       inkscape:collect="always"
       xlink:href="#linearGradient3993"
       id="radialGradient4001"
       cx="422.68771"
       cy="501.05939"
       fx="422.68771"
       fy="501.05939"
       r="16.006945"
       gradientTransform="matrix(0.54863714,2.047545,-1.2873697,0.34494911,835.8342,-538.52615)"
       gradientUnits="userSpaceOnUse" />
    <clipPath
       clipPathUnits="userSpaceOnUse"
       id="clipPath4031">
      <circle
         transform="matrix(1.6055766,0,0,1.6055766,-215.26001,-343.25515)"
         style="fill:url(#radialGradient4035);fill-opacity:1;stroke:none"
         id="circle4033"
         cx="400.57144"
         cy="531.79797"
         r="13.999958"
         d="m 414.5714,531.79797 c 0,7.73197 -6.268,13.99996 -13.99996,13.99996 -7.73196,0 -13.99996,-6.26799 -13.99996,-13.99996 0,-7.73196 6.268,-13.99995 13.99996,-13.99995 7.73196,0 13.99996,6.26799 13.99996,13.99995 z"
         sodipodi:cx="400.57144"
         sodipodi:cy="531.79797"
         sodipodi:rx="13.999958"
         sodipodi:ry="13.999958" />
    </clipPath>
    <radialGradient
       inkscape:collect="always"
       xlink:href="#linearGradient4613"
       id="radialGradient4035"
       gradientUnits="userSpaceOnUse"
       gradientTransform="matrix(0.75263447,1.3036011,-0.90911383,0.52487712,588.1117,-270.29249)"
       cx="394.38266"
       cy="535.84143"
       fx="394.38266"
       fy="535.84143"
       r="13.999958" />
    <radialGradient
       inkscape:collect="always"
       xlink:href="#linearGradient4613"
       id="radialGradient4116"
       gradientUnits="userSpaceOnUse"
       gradientTransform="matrix(0.74570573,1.2916038,-0.96776872,0.55873995,622.31177,-283.72494)"
       cx="394.56799"
       cy="536.46356"
       fx="394.56799"
       fy="536.46356"
       r="13.999958" />
    <linearGradient
       inkscape:collect="always"
       xlink:href="#linearGradient4333-6"
       id="linearGradient3130"
       gradientUnits="userSpaceOnUse"
       gradientTransform="matrix(0.30527986,0,0,0.30527988,11.855285,1013.8507)"
       x1="12.240457"
       y1="75.628754"
       x2="11.398323"
       y2="10.648995" />
    <linearGradient
       id="linearGradient4333-6">
      <stop
         id="stop4335-0"
         offset="0"
         style="stop-color:#e6e6e6;stop-opacity:1;" />
      <stop
         id="stop4337-9"
         offset="1"
         style="stop-color:#ffffff;stop-opacity:1;" />
    </linearGradient>
    <linearGradient
       inkscape:collect="always"
       xlink:href="#linearGradient4333-6"
       id="linearGradient4226"
       gradientUnits="userSpaceOnUse"
       gradientTransform="matrix(0.87967871,0.25229434,-0.25229434,0.87967871,178.74853,-57.22537)"
       x1="484.40863"
       y1="542.38678"
       x2="432.74045"
       y2="456.40686" />
    <clipPath
       clipPathUnits="userSpaceOnUse"
       id="clipPath4238">
      <circle
         sodipodi:ry="13.999958"
         sodipodi:rx="13.999958"
         sodipodi:cy="531.79797"
         sodipodi:cx="400.57144"
         d="m 414.5714,531.79797 c 0,7.73197 -6.268,13.99996 -13.99996,13.99996 -7.73196,0 -13.99996,-6.26799 -13.99996,-13.99996 0,-7.73196 6.268,-13.99995 13.99996,-13.99995 7.73196,0 13.99996,6.26799 13.99996,13.99995 z"
         r="13.999958"
         cy="531.79797"
         cx="400.57144"
         id="circle4240"
         style="fill:url(#radialGradient4242);fill-opacity:1;stroke:none"
         transform="matrix(4.2857178,0,0,4.2857178,-1268.1797,-1795.4409)" />
    </clipPath>
    <radialGradient
       inkscape:collect="always"
       xlink:href="#linearGradient4613"
       id="radialGradient4242"
       gradientUnits="userSpaceOnUse"
       gradientTransform="matrix(0.74570573,1.2916038,-0.96776872,0.55873995,622.31177,-283.72494)"
       cx="394.56799"
       cy="536.46356"
       fx="394.56799"
       fy="536.46356"
       r="13.999958" />
    <radialGradient
       inkscape:collect="always"
       xlink:href="#linearGradient3993"
       id="radialGradient4252"
       gradientUnits="userSpaceOnUse"
       gradientTransform="matrix(0.54863714,2.047545,-1.2873697,0.34494911,835.8342,-538.52615)"
       cx="422.68771"
       cy="501.05939"
       fx="422.68771"
       fy="501.05939"
       r="16.006945" />
    <radialGradient
       inkscape:collect="always"
       xlink:href="#linearGradient3993"
       id="radialGradient4254"
       gradientUnits="userSpaceOnUse"
       gradientTransform="matrix(0.54863714,2.047545,-1.2873697,0.34494911,835.8342,-538.52615)"
       cx="422.68771"
       cy="501.05939"
       fx="422.68771"
       fy="501.05939"
       r="16.006945" />
    <radialGradient
       inkscape:collect="always"
       xlink:href="#linearGradient3993"
       id="radialGradient4256"
       gradientUnits="userSpaceOnUse"
       gradientTransform="matrix(0.54863714,2.047545,-1.2873697,0.34494911,835.8342,-538.52615)"
       cx="422.68771"
       cy="501.05939"
       fx="422.68771"
       fy="501.05939"
       r="16.006945" />
    <radialGradient
       inkscape:collect="always"
       xlink:href="#linearGradient3993"
       id="radialGradient4258"
       gradientUnits="userSpaceOnUse"
       gradientTransform="matrix(0.54863714,2.047545,-1.2873697,0.34494911,835.8342,-538.52615)"
       cx="422.68771"
       cy="501.05939"
       fx="422.68771"
       fy="501.05939"
       r="16.006945" />
    <radialGradient
       inkscape:collect="always"
       xlink:href="#linearGradient4613"
       id="radialGradient3064"
       gradientUnits="userSpaceOnUse"
       gradientTransform="matrix(0.74570573,1.2916038,-0.96776872,0.55873995,622.31177,-283.72494)"
       cx="394.56799"
       cy="536.46356"
       fx="394.56799"
       fy="536.46356"
       r="13.999958" />
    <linearGradient
       inkscape:collect="always"
       xlink:href="#linearGradient4333-6"
       id="linearGradient3066"
       gradientUnits="userSpaceOnUse"
       gradientTransform="matrix(0.87967871,0.25229434,-0.25229434,0.87967871,178.74853,-57.22537)"
       x1="484.40863"
       y1="542.38678"
       x2="432.74045"
       y2="456.40686" />
    <radialGradient
       inkscape:collect="always"
       xlink:href="#linearGradient4613"
       id="radialGradient3819"
       gradientUnits="userSpaceOnUse"
       gradientTransform="matrix(0.74570573,1.2916038,-0.96776872,0.55873995,622.31177,-283.72494)"
       cx="394.56799"
       cy="536.46356"
       fx="394.56799"
       fy="536.46356"
       r="13.999958" />
    <radialGradient
       inkscape:collect="always"
       xlink:href="#linearGradient4613"
       id="radialGradient3823"
       gradientUnits="userSpaceOnUse"
       gradientTransform="matrix(0.42611777,0.73806151,-0.55301097,0.31928092,134.70884,-458.01447)"
       cx="394.56799"
       cy="536.46356"
       fx="394.56799"
       fy="536.46356"
       r="13.999958" />
    <radialGradient
       inkscape:collect="always"
       xlink:href="#linearGradient4613"
       id="radialGradient3830"
       gradientUnits="userSpaceOnUse"
       gradientTransform="matrix(0.74570573,1.2916038,-0.96776872,0.55873995,622.31177,-283.72494)"
       cx="394.56799"
       cy="536.46356"
       fx="394.56799"
       fy="536.46356"
       r="13.999958" />
    <radialGradient
       inkscape:collect="always"
       xlink:href="#linearGradient4613"
       id="radialGradient3832"
       gradientUnits="userSpaceOnUse"
       gradientTransform="matrix(0.42611777,0.73806151,-0.55301097,0.31928092,134.70884,-458.01447)"
       cx="394.56799"
       cy="536.46356"
       fx="394.56799"
       fy="536.46356"
       r="13.999958" />
  </defs>
  <sodipodi:namedview
     id="base"
     pagecolor="#5a5a5a"
     bordercolor="#666666"
     borderopacity="1.0"
     inkscape:pageopacity="0"
     inkscape:pageshadow="2"
     inkscape:zoom="18.58594"
     inkscape:cx="6.8491062"
     inkscape:cy="16.075541"
     inkscape:document-units="px"
     inkscape:current-layer="layer1-5"
     showgrid="false"
     inkscape:snap-bbox="true"
     inkscape:window-width="1280"
     inkscape:window-height="1000"
     inkscape:window-x="0"
     inkscape:window-y="24"
     inkscape:window-maximized="1"
     inkscape:bbox-nodes="true"
     inkscape:snap-bbox-edge-midpoints="true"
     inkscape:snap-grids="true"
     showborder="true"
     inkscape:showpageshadow="true"
     borderlayer="false">
    <inkscape:grid
       type="xygrid"
       id="grid3026"
       empspacing="5"
       visible="true"
       enabled="true"
       snapvisiblegridlinesonly="true" />
  </sodipodi:namedview>
  <metadata
     id="metadata3023">
    <rdf:RDF>
      <cc:Work
         rdf:about="">
        <dc:format>image/svg+xml</dc:format>
        <dc:type
           rdf:resource="http://purl.org/dc/dcmitype/StillImage" />
        <dc:title />
      </cc:Work>
    </rdf:RDF>
  </metadata>
  <g
     inkscape:label="Layer 1"
     inkscape:groupmode="layer"
     id="layer1"
     transform="translate(0,-1036.3622)">
    <g
       transform="translate(-384.55629,504.6672)"
       id="layer1-5"
       inkscape:label="Capa 1">
      <g
         style="fill:url(#linearGradient4491);fill-opacity:1"
         transform="matrix(0.39473753,0,0,2.1052628,235.8719,-571.56602)"
         id="g4434-2-3" />
      <circle
         transform="matrix(4.2857178,0,0,4.2857178,-1284.1797,-1795.4409)"
         style="fill:url(#linearGradient3849);fill-opacity:1;stroke:none"
         id="ellipse4233"
         cx="400.57138"
         cy="531.79791"
         r="0"
         sodipodi:cx="400.57138"
         sodipodi:cy="531.79791"
         sodipodi:rx="0"
         sodipodi:ry="0" />
      <g
         style="opacity:0.25;fill:none;stroke:#000000;stroke-width:0.56195134;stroke-miterlimit:4;stroke-opacity:1;stroke-dasharray:none"
         transform="matrix(2.6692702,0,0,2.6692702,-709.5926,-1019.2002)"
         id="g4260"
         clip-path="url(#clipPath4031)">
        <path
           style="fill:none;stroke:#000000;stroke-width:0.56195134;stroke-miterlimit:4;stroke-opacity:1;stroke-dasharray:none"
           id="path4262"
           d="m 416.51125,503.96117 c -3.645,3.65517 -5.64798,8.53043 -5.63781,13.73613 0.0152,10.85875 8.21644,15.84523 18.20178,15.33948 l 0,0 c -8.84562,0 -14.81097,-6.468 -14.82622,-15.3492 -0.005,-4.3008 1.64203,-8.32751 4.65157,-11.34214 3.0248,-3.02988 7.08158,-4.70241 11.42305,-4.70241 l 0,-3.37557 c -5.24636,0 -10.14704,2.0233 -13.81238,5.69373"
           inkscape:connector-curvature="0"
           sodipodi:nodetypes="cccccsccc" />
        <path
           sodipodi:nodetypes="cccccccccc"
           style="fill:none;stroke:#000000;stroke-width:0.56195134;stroke-miterlimit:4;stroke-opacity:1;stroke-dasharray:none"
           id="path4264"
           d="m 426.59451,503.35086 c -3.88394,1.04724 -7.08666,3.48232 -9.01846,6.85789 -4.05679,7.09175 -1.9013,15.74927 5.12435,20.58386 6.51175,4.51452 14.59252,0.44949 16.88187,-1.01967 -0.17793,0.0457 -5.93687,4.70876 -15.10785,-1.58993 -5.5463,-3.81276 -7.13222,-10.76545 -3.96509,-16.2965 1.48444,-2.5876 3.95511,-4.46348 6.96466,-5.27178 3.0858,-0.83373 6.27835,-0.42703 8.99304,1.13874 l 1.68779,-2.9282 c -3.49758,-2.01823 -7.6052,-2.54185 -11.56031,-1.47427"
           inkscape:connector-curvature="0" />
        <path
           sodipodi:nodetypes="csccccccccccccccsccccccc"
           style="fill:none;stroke:#000000;stroke-width:0.56195134;stroke-miterlimit:4;stroke-opacity:1;stroke-dasharray:none"
           id="path4266"
           d="m 425.7034,508.96637 c -3.37048,1.94705 -5.25653,5.49039 -5.25653,9.13031 0,1.68778 0.42195,3.39082 1.27092,4.96676 l -0.0102,0.0102 c 0,0.005 0.0305,0.0559 0.0407,0.0763 l -0.005,0 c 0,0 0.0203,0.0305 0.0356,0.0559 0.0203,0.0407 0.0712,0.13218 0.0763,0.13726 l 0,0 c 0.5287,0.90998 2.56726,3.97544 7.03582,5.60223 5.41611,1.97683 7.23934,1.82836 9.76869,1.37607 2.7532,-1.57322 4.22759,-2.97515 4.22759,-2.97515 -2.89677,0.31368 -7.00282,0.55615 -12.84228,-1.57316 -3.51792,-1.28109 -4.9871,-3.61959 -5.25654,-4.10254 l 0,0 c 0,0 -0.0102,-0.0153 -0.0102,-0.0203 -0.64563,-1.12349 -0.95574,-2.34866 -0.95574,-3.55858 0,-2.47067 1.28109,-4.87526 3.56875,-6.2021 1.6522,-0.95065 3.57892,-1.20483 5.4243,-0.71171 1.84029,0.49311 3.38065,1.67761 4.33638,3.32981 l 2.97904,-1.58611 -0.0559,-0.10167 c -1.40309,-2.43509 -3.67042,-4.17371 -6.38511,-4.90576 -2.71469,-0.72697 -5.55139,-0.35078 -7.98648,1.05232"
           inkscape:connector-curvature="0" />
      </g>
      <g
         id="g4244"
         transform="matrix(2.6692702,0,0,2.6692702,-709.5926,-1019.2002)"
         style="fill:url(#radialGradient4258);fill-opacity:1">
        <path
           sodipodi:nodetypes="cccccsccc"
           inkscape:connector-curvature="0"
           d="m 416.51125,503.96117 c -3.645,3.65517 -5.64798,8.53043 -5.63781,13.73613 0.0152,10.85875 8.21644,15.84523 18.20178,15.33948 l 0,0 c -8.84562,0 -14.81097,-6.468 -14.82622,-15.3492 -0.005,-4.3008 1.64203,-8.32751 4.65157,-11.34214 3.0248,-3.02988 7.08158,-4.70241 11.42305,-4.70241 l 0,-3.37557 c -5.24636,0 -10.14704,2.0233 -13.81238,5.69373"
           id="path4246"
           style="fill:url(#radialGradient4252);fill-opacity:1;fill-rule:nonzero;stroke:none" />
        <path
           inkscape:connector-curvature="0"
           d="m 426.59451,503.35086 c -3.88394,1.04724 -7.08666,3.48232 -9.01846,6.85789 -4.05679,7.09175 -1.9013,15.74927 5.12435,20.58386 6.51175,4.51452 14.59252,0.44949 16.88187,-1.01967 -0.17793,0.0457 -5.93687,4.70876 -15.10785,-1.58993 -5.5463,-3.81276 -7.13222,-10.76545 -3.96509,-16.2965 1.48444,-2.5876 3.95511,-4.46348 6.96466,-5.27178 3.0858,-0.83373 6.27835,-0.42703 8.99304,1.13874 l 1.68779,-2.9282 c -3.49758,-2.01823 -7.6052,-2.54185 -11.56031,-1.47427"
           id="path4248"
           style="fill:url(#radialGradient4254);fill-opacity:1;fill-rule:nonzero;stroke:none"
           sodipodi:nodetypes="cccccccccc" />
        <path
           inkscape:connector-curvature="0"
           d="m 425.7034,508.96637 c -3.37048,1.94705 -5.25653,5.49039 -5.25653,9.13031 0,1.68778 0.42195,3.39082 1.27092,4.96676 l -0.0102,0.0102 c 0,0.005 0.0305,0.0559 0.0407,0.0763 l -0.005,0 c 0,0 0.0203,0.0305 0.0356,0.0559 0.0203,0.0407 0.0712,0.13218 0.0763,0.13726 l 0,0 c 0.5287,0.90998 2.56726,3.97544 7.03582,5.60223 5.41611,1.97683 7.23934,1.82836 9.76869,1.37607 2.7532,-1.57322 4.22759,-2.97515 4.22759,-2.97515 -2.89677,0.31368 -7.00282,0.55615 -12.84228,-1.57316 -3.51792,-1.28109 -4.9871,-3.61959 -5.25654,-4.10254 l 0,0 c 0,0 -0.0102,-0.0153 -0.0102,-0.0203 -0.64563,-1.12349 -0.95574,-2.34866 -0.95574,-3.55858 0,-2.47067 1.28109,-4.87526 3.56875,-6.2021 1.6522,-0.95065 3.57892,-1.20483 5.4243,-0.71171 1.84029,0.49311 3.38065,1.67761 4.33638,3.32981 l 2.97904,-1.58611 -0.0559,-0.10167 c -1.40309,-2.43509 -3.67042,-4.17371 -6.38511,-4.90576 -2.71469,-0.72697 -5.55139,-0.35078 -7.98648,1.05232"
           id="path4250"
           style="fill:url(#radialGradient4256);fill-opacity:1;fill-rule:nonzero;stroke:none"
           sodipodi:nodetypes="csccccccccccccccsccccccc" />
      </g>
      <circle
         transform="matrix(0.57142885,0,0,0.57143027,163.65823,235.80955)"
         style="fill:url(#radialGradient3064);fill-opacity:1;stroke:none"
         id="circle4174"
         cx="400.57144"
         cy="531.79797"
         r="13.999958"
         d="m 414.5714,531.79797 c 0,7.73197 -6.268,13.99996 -13.99996,13.99996 -7.73196,0 -13.99996,-6.26799 -13.99996,-13.99996 0,-7.73196 6.268,-13.99995 13.99996,-13.99995 7.73196,0 13.99996,6.26799 13.99996,13.99995 z"
         sodipodi:cx="400.57144"
         sodipodi:cy="531.79797"
         sodipodi:rx="13.999958"
         sodipodi:ry="13.999958" />
      <path
         inkscape:connector-curvature="0"
         id="path4268"
         d="m 476.46034,450.87098 c -2.53524,-0.47263 -4.01666,1.97188 -4.01666,1.97188 l -23.24442,39.86426 c 0,0 -4.13958,6.12926 2.23848,4.53941 l 16.95476,-4.24118 1.41252,5.55205 9.58161,38.4792 c 0.40093,1.60837 0.37461,1.61686 2.57982,1.06714 l 26.46746,-6.60034 c 2.32451,-0.57942 2.30665,-0.59696 1.79787,-2.638 l -9.40558,-37.74442 -1.47902,-5.8389 16.27497,-4.04939 c 5.23591,-1.30515 0.53865,-4.36769 0.53865,-4.36769 0,0 -34.07011,-23.38535 -38.56164,-25.60792 -0.40438,-0.20196 -0.77664,-0.31859 -1.13882,-0.3861 z m -45.6263,11.16145 c -0.36684,-0.0254 -0.916,0.103 -1.78768,0.32032 l -26.43997,6.60824 c -2.20523,0.54969 -2.18262,0.55824 -1.7817,2.16662 l 9.58951,38.45169 1.37714,5.57167 -16.98225,4.23331 c -6.37807,1.58988 0.1678,5.01657 0.1678,5.01657 l 39.25824,24.32014 c 0,0 3.17078,1.8977 5.26887,-1.04748 2.92281,-4.07076 22.02354,-40.69044 22.02354,-40.69044 0,0 2.70186,-4.91779 -2.53403,-3.61262 l -16.24748,4.05727 -1.45152,-5.83102 -9.40559,-37.74442 c -0.31798,-1.27565 -0.44348,-1.77767 -1.05488,-1.81985 z"
         clip-path="url(#clipPath4238)"
         style="opacity:0.2;fill:none;stroke:#000000;stroke-width:14.99998631000000060;stroke-miterlimit:4;stroke-opacity:1;stroke-dasharray:none"
         transform="matrix(0.13333329,0,0,0.13333362,332.7488,475.20218)" />
      <path
         style="fill:url(#linearGradient3066);fill-opacity:1;stroke:none"
         clip-path="url(#clipPath4238)"
         d="m 476.46034,450.87098 c -2.53524,-0.47263 -4.01666,1.97188 -4.01666,1.97188 l -23.24442,39.86426 c 0,0 -4.13958,6.12926 2.23848,4.53941 l 16.95476,-4.24118 1.41252,5.55205 9.58161,38.4792 c 0.40093,1.60837 0.37461,1.61686 2.57982,1.06714 l 26.46746,-6.60034 c 2.32451,-0.57942 2.30665,-0.59696 1.79787,-2.638 l -9.40558,-37.74442 -1.47902,-5.8389 16.27497,-4.04939 c 5.23591,-1.30515 0.53865,-4.36769 0.53865,-4.36769 0,0 -34.07011,-23.38535 -38.56164,-25.60792 -0.40438,-0.20196 -0.77664,-0.31859 -1.13882,-0.3861 z m -45.6263,11.16145 c -0.36684,-0.0254 -0.916,0.103 -1.78768,0.32032 l -26.43997,6.60824 c -2.20523,0.54969 -2.18262,0.55824 -1.7817,2.16662 l 9.58951,38.45169 1.37714,5.57167 -16.98225,4.23331 c -6.37807,1.58988 0.1678,5.01657 0.1678,5.01657 l 39.25824,24.32014 c 0,0 3.17078,1.8977 5.26887,-1.04748 2.92281,-4.07076 22.02354,-40.69044 22.02354,-40.69044 0,0 2.70186,-4.91779 -2.53403,-3.61262 l -16.24748,4.05727 -1.45152,-5.83102 -9.40559,-37.74442 c -0.31798,-1.27565 -0.44348,-1.77767 -1.05488,-1.81985 z"
         id="path7-8"
         inkscape:connector-curvature="0"
         transform="matrix(0.13333329,0,0,0.13333362,332.7488,475.20218)" />
      <path
         id="path4359"
         d="m 371.29198,533.64493 c -1.60505,1.46312 -2.6125,3.56955 -2.6125,5.91252 0,4.41828 3.58173,8.00001 8,8.00001 2.34296,0 4.44938,-1.00745 5.91249,-2.6125 -1.42069,1.29126 -3.3081,2.07917 -5.37916,2.07917 -4.41827,0 -8,-3.58174 -8,-8.00002 0,-2.07107 0.78791,-3.95848 2.07917,-5.37918 z"
         style="opacity:0.02000002;fill:#000000;fill-opacity:1;stroke:none"
         inkscape:connector-curvature="0" />
      <path
         inkscape:connector-curvature="0"
         style="opacity:0.03999999;fill:#000000;fill-opacity:1;stroke:none"
         d="m 371.16879,533.78247 c -1.60505,1.46312 -2.6125,3.56955 -2.6125,5.91252 0,4.41827 3.58173,8.00001 8,8.00001 2.34296,0 4.44938,-1.00746 5.91249,-2.6125 -1.42069,1.29125 -3.3081,2.07917 -5.37916,2.07917 -4.41827,0 -8,-3.58174 -8,-8.00002 0,-2.07107 0.78791,-3.95848 2.07917,-5.37918 z"
         id="circle4106" />
      <path
         inkscape:connector-curvature="0"
         style="opacity:0.12000002;fill:#000000;fill-opacity:1;stroke:none"
         d="m 371.03545,533.90747 c -1.52695,1.4569 -2.47916,3.5104 -2.47916,5.78752 0,4.41827 3.58173,8.00001 8,8.00001 2.2771,0 4.33061,-0.95221 5.78749,-2.47917 -1.43579,1.36991 -3.37967,2.21251 -5.52083,2.21251 -4.41826,0 -7.99999,-3.58174 -7.99999,-8.00002 0,-2.14117 0.84258,-4.08505 2.21249,-5.52085 z"
         id="circle4039" />
      <path
         id="path4361"
         d="m 371.15864,533.76994 c -1.52695,1.45689 -2.47916,3.51039 -2.47916,5.78751 0,4.41828 3.58173,8.00001 8,8.00001 2.2771,0 4.3306,-0.95221 5.78749,-2.47917 -1.43579,1.36992 -3.37967,2.21251 -5.52083,2.21251 -4.41826,0 -8,-3.58174 -8,-8.00002 0,-2.14116 0.84259,-4.08505 2.2125,-5.52084 z"
         style="opacity:0.03999999;fill:#000000;fill-opacity:1;stroke:none"
         inkscape:connector-curvature="0" />
      <path
         style="opacity:0.2;fill:#000000;fill-opacity:1;stroke:none"
         d="m 370.70629,534.24081 c -1.33276,1.42905 -2.15,3.34594 -2.15,5.45418 0,4.41827 3.58173,8.00001 8,8.00001 2.37672,0 4.50973,-1.03777 5.97499,-2.68334 -1.46033,1.56585 -3.53996,2.54584 -5.84999,2.54584 -4.41827,0 -8,-3.58174 -8,-8.00001 0,-2.04156 0.76637,-3.90318 2.025,-5.31668 z"
         id="circle4370"
         inkscape:connector-curvature="0" />
      <path
         style="fill:#000000;fill-opacity:1;stroke:none;opacity:0.05"
         d="M 3.4375 1.4375 C 1.3622626 2.8827932 -1.841245e-17 5.279349 0 8 C 0 12.418278 3.5817331 16 8 16 C 10.720644 16 13.11721 14.637743 14.5625 12.5625 C 13.267597 13.464331 11.697623 14 10 14 C 5.5817331 14 2 10.418278 2 6 C 2 4.3023731 2.5356708 2.7324061 3.4375 1.4375 z "
         id="circle3826"
         transform="translate(384.55629,531.695)" />
      <path
         style="fill:#000000;fill-opacity:1;stroke:none;opacity:0.15"
         d="M 2.8125 1.90625 C 1.0926115 3.3735949 -1.6499437e-17 5.5620188 0 8 C 0 12.418278 3.5817331 16 8 16 C 10.437975 16 12.626409 14.907393 14.09375 13.1875 C 12.710882 14.328747 10.932992 15 9 15 C 4.5817331 15 1 11.418278 1 7 C 1 5.0670034 1.6712558 3.2891217 2.8125 1.90625 z "
         transform="translate(384.55629,531.695)"
         id="circle3821" />
    </g>
  </g>
</svg>
