<?xml version="1.0" encoding="UTF-8" standalone="no"?>
<!-- Created with Inkscape (http://www.inkscape.org/) -->

<svg
   xmlns:dc="http://purl.org/dc/elements/1.1/"
   xmlns:cc="http://creativecommons.org/ns#"
   xmlns:rdf="http://www.w3.org/1999/02/22-rdf-syntax-ns#"
   xmlns:svg="http://www.w3.org/2000/svg"
   xmlns="http://www.w3.org/2000/svg"
   xmlns:xlink="http://www.w3.org/1999/xlink"
   xmlns:sodipodi="http://sodipodi.sourceforge.net/DTD/sodipodi-0.dtd"
   xmlns:inkscape="http://www.inkscape.org/namespaces/inkscape"
   version="1.1"
   width="128"
   height="128"
   id="svg3901"
   inkscape:version="0.92.1 r15371"
   sodipodi:docname="Mime Template - Java (clear).svg">
  <sodipodi:namedview
     pagecolor="#ffffff"
     bordercolor="#666666"
     borderopacity="1"
     objecttolerance="10"
     gridtolerance="10"
     guidetolerance="10"
     inkscape:pageopacity="0"
     inkscape:pageshadow="2"
     inkscape:window-width="1366"
     inkscape:window-height="724"
     id="namedview37"
     showgrid="false"
     inkscape:zoom="1.0000001"
     inkscape:cx="-184.21578"
     inkscape:cy="14.98088"
     inkscape:window-x="0"
     inkscape:window-y="22"
     inkscape:window-maximized="1"
     inkscape:current-layer="svg3901"
     showguides="false"
     inkscape:guide-bbox="true"
     inkscape:object-nodes="true"
     inkscape:snap-smooth-nodes="true"
     inkscape:snap-object-midpoints="false"
     inkscape:snap-center="false"
     inkscape:snap-bbox="true"
     inkscape:bbox-paths="true"
     inkscape:bbox-nodes="true"
     inkscape:snap-bbox-edge-midpoints="true"
     inkscape:snap-bbox-midpoints="true"
     inkscape:snap-page="true"
     inkscape:object-paths="true"
     inkscape:snap-midpoints="true"
     inkscape:snap-intersection-paths="true"
     inkscape:pagecheckerboard="false">
    <inkscape:grid
       type="xygrid"
       id="grid3254"
       spacingx="0.25"
       spacingy="0.25"
       empspacing="4" />
    <sodipodi:guide
       position="24,28"
       orientation="0,1"
       id="guide193"
       inkscape:locked="false" />
    <sodipodi:guide
       position="32,15"
       orientation="0,1"
       id="guide195"
       inkscape:locked="false" />
    <sodipodi:guide
       position="32.000001,102"
       orientation="0,1"
       id="guide1058"
       inkscape:locked="false" />
    <sodipodi:guide
       position="32,38"
       orientation="0,1"
       id="guide1060"
       inkscape:locked="false" />
    <sodipodi:guide
       position="104,14"
       orientation="1,0"
       id="guide1068"
       inkscape:locked="false" />
    <sodipodi:guide
       position="24,15"
       orientation="1,0"
       id="guide1131"
       inkscape:locked="false" />
    <sodipodi:guide
       position="-45,82.5"
       orientation="0,1"
       id="guide1183"
       inkscape:locked="false" />
    <sodipodi:guide
       position="25,102"
       orientation="1,0"
       inkscape:locked="false"
       id="guide1324" />
    <sodipodi:guide
       position="103,38"
       orientation="1,0"
       inkscape:locked="false"
       id="guide1326" />
  </sodipodi:namedview>
  <defs
     id="defs3903">
    <linearGradient
       id="linearGradient1491"
       inkscape:collect="always">
      <stop
         id="stop1487"
         offset="0"
         style="stop-color:#000000;stop-opacity:0" />
      <stop
         id="stop1489"
         offset="1"
         style="stop-color:#000000;stop-opacity:1" />
    </linearGradient>
    <linearGradient
       inkscape:collect="always"
       id="linearGradient1432">
      <stop
         style="stop-color:#000000;stop-opacity:0.5"
         offset="0"
         id="stop1428" />
      <stop
         style="stop-color:#000000;stop-opacity:1"
         offset="1"
         id="stop1430" />
    </linearGradient>
    <linearGradient
       inkscape:collect="always"
       id="linearGradient1424">
      <stop
         style="stop-color:#000000;stop-opacity:1;"
         offset="0"
         id="stop1420" />
      <stop
         style="stop-color:#000000;stop-opacity:0;"
         offset="1"
         id="stop1422" />
    </linearGradient>
    <linearGradient
       inkscape:collect="always"
       id="linearGradient1352">
      <stop
         style="stop-color:#000000;stop-opacity:1;"
         offset="0"
         id="stop1348" />
      <stop
         id="stop1356"
         offset="0.5"
         style="stop-color:#000000;stop-opacity:1" />
      <stop
         style="stop-color:#000000;stop-opacity:0"
         offset="0.75"
         id="stop1358" />
      <stop
         style="stop-color:#000000;stop-opacity:0;"
         offset="1"
         id="stop1350" />
    </linearGradient>
    <linearGradient
       inkscape:collect="always"
       id="linearGradient1338">
      <stop
         style="stop-color:#ededed;stop-opacity:1"
         offset="0"
         id="stop1334" />
      <stop
         id="stop1342"
         offset="0.25"
         style="stop-color:#ffffff;stop-opacity:1" />
      <stop
         style="stop-color:#cccccc;stop-opacity:1"
         offset="0.5"
         id="stop1344" />
      <stop
         id="stop1360"
         offset="0.75"
         style="stop-color:#c9c9c9;stop-opacity:1" />
      <stop
         style="stop-color:#d2d2d2;stop-opacity:1"
         offset="1"
         id="stop1336" />
    </linearGradient>
    <linearGradient
       inkscape:collect="always"
       id="linearGradient1305">
      <stop
         style="stop-color:#ffffff;stop-opacity:0"
         offset="0"
         id="stop1301" />
      <stop
         id="stop1309"
         offset="0.5"
         style="stop-color:#ffffff;stop-opacity:0" />
      <stop
         style="stop-color:#ffffff;stop-opacity:1"
         offset="1"
         id="stop1303" />
    </linearGradient>
    <linearGradient
       inkscape:collect="always"
       id="linearGradient1222">
      <stop
         style="stop-color:#ebebeb;stop-opacity:1"
         offset="0"
         id="stop1218" />
      <stop
         style="stop-color:#f8fafd;stop-opacity:1"
         offset="1"
         id="stop1220" />
    </linearGradient>
    <linearGradient
       inkscape:collect="always"
       id="linearGradient1195">
      <stop
         style="stop-color:#c8c8c8;stop-opacity:1"
         offset="0"
         id="stop1191" />
      <stop
         id="stop1205"
         offset="0.25"
         style="stop-color:#c7c7c7;stop-opacity:1" />
      <stop
         id="stop1203"
         offset="0.75"
         style="stop-color:#969696;stop-opacity:1" />
      <stop
         style="stop-color:#848484;stop-opacity:1"
         offset="1"
         id="stop1193" />
    </linearGradient>
    <linearGradient
       inkscape:collect="always"
       id="linearGradient1168">
      <stop
         style="stop-color:#ffffff;stop-opacity:1"
         offset="0"
         id="stop1164" />
      <stop
         id="stop1177"
         offset="0.25"
         style="stop-color:#ffffff;stop-opacity:1" />
      <stop
         id="stop1175"
         offset="0.5"
         style="stop-color:#ffffff;stop-opacity:0.75" />
      <stop
         style="stop-color:#ffffff;stop-opacity:0"
         offset="1"
         id="stop1166" />
    </linearGradient>
    <linearGradient
       inkscape:collect="always"
       id="linearGradient1156">
      <stop
         style="stop-color:#979797;stop-opacity:1"
         offset="0"
         id="stop1152" />
      <stop
         id="stop1160"
         offset="0.5"
         style="stop-color:#cacbcb;stop-opacity:1" />
      <stop
         style="stop-color:#979797;stop-opacity:1"
         offset="1"
         id="stop1154" />
    </linearGradient>
    <linearGradient
       inkscape:collect="always"
       id="linearGradient1140">
      <stop
         style="stop-color:#453513;stop-opacity:1"
         offset="0"
         id="stop1136" />
      <stop
         id="stop1144"
         offset="0.5"
         style="stop-color:#4a3814;stop-opacity:1" />
      <stop
         style="stop-color:#594119;stop-opacity:1"
         offset="1"
         id="stop1138" />
    </linearGradient>
    <linearGradient
       inkscape:collect="always"
       id="linearGradient1122">
      <stop
         style="stop-color:#614b25;stop-opacity:1"
         offset="0"
         id="stop1118" />
      <stop
         id="stop1126"
         offset="0.5"
         style="stop-color:#5a4722;stop-opacity:1" />
      <stop
         style="stop-color:#453513;stop-opacity:1"
         offset="1"
         id="stop1120" />
    </linearGradient>
    <linearGradient
       inkscape:collect="always"
       id="linearGradient1101">
      <stop
         style="stop-color:#000000;stop-opacity:0"
         offset="0"
         id="stop1097" />
      <stop
         id="stop1105"
         offset="0.40000001"
         style="stop-color:#000000;stop-opacity:0" />
      <stop
         style="stop-color:#000000;stop-opacity:1"
         offset="0.5"
         id="stop1107" />
      <stop
         id="stop1109"
         offset="0.60000002"
         style="stop-color:#000000;stop-opacity:0" />
      <stop
         style="stop-color:#000000;stop-opacity:0;"
         offset="1"
         id="stop1099" />
    </linearGradient>
    <linearGradient
       inkscape:collect="always"
       id="linearGradient1072">
      <stop
         style="stop-color:#ffffff;stop-opacity:0.49803922"
         offset="0"
         id="stop1068" />
      <stop
         id="stop1076"
         offset="0.5"
         style="stop-color:#ffffff;stop-opacity:1" />
      <stop
         style="stop-color:#ffffff;stop-opacity:0.49803922"
         offset="1"
         id="stop1070" />
    </linearGradient>
    <linearGradient
       inkscape:collect="always"
       id="linearGradient1048">
      <stop
         style="stop-color:#8c8c8c;stop-opacity:1"
         offset="0"
         id="stop1044" />
      <stop
         style="stop-color:#dcdcdc;stop-opacity:1"
         offset="1"
         id="stop1046" />
    </linearGradient>
    <linearGradient
       inkscape:collect="always"
       id="linearGradient1192">
      <stop
         style="stop-color:#ffffff;stop-opacity:1"
         offset="0"
         id="stop1188" />
      <stop
         id="stop1196"
         offset="0.55000001"
         style="stop-color:#ffffff;stop-opacity:1" />
      <stop
         style="stop-color:#cfcfcf;stop-opacity:1"
         offset="1"
         id="stop1190" />
    </linearGradient>
    <linearGradient
       inkscape:collect="always"
       id="linearGradient1176">
      <stop
         style="stop-color:#e5e5e5;stop-opacity:1"
         offset="0"
         id="stop1172" />
      <stop
         id="stop1180"
         offset="0.25"
         style="stop-color:#ececec;stop-opacity:1" />
      <stop
         style="stop-color:#fafafa;stop-opacity:1"
         offset="0.625"
         id="stop1184" />
      <stop
         style="stop-color:#ffffff;stop-opacity:1"
         offset="1"
         id="stop1174" />
    </linearGradient>
    <linearGradient
       inkscape:collect="always"
       xlink:href="#linearGradient1176"
       id="linearGradient1050"
       x1="184"
       y1="2.0000246"
       x2="184"
       y2="120"
       gradientUnits="userSpaceOnUse"
       gradientTransform="translate(-120)" />
    <linearGradient
       inkscape:collect="always"
       xlink:href="#linearGradient1192"
       id="linearGradient1058"
       x1="203.75"
       y1="27.5"
       x2="212.65933"
       y2="18.345024"
       gradientUnits="userSpaceOnUse"
       gradientTransform="translate(-120)" />
    <clipPath
       clipPathUnits="userSpaceOnUse"
       id="clipPath1105">
      <path
         inkscape:connector-curvature="0"
         id="path1107"
         d="m 19,2 v 118 h 90 V 38 l -0.004,-0.01172 a 8.0000018,8.0000018 0 0 0 -2.33984,-5.644531 l -28,-28 C 77.09415,2.781653 75.04737,2 73,2 Z"
         style="opacity:1;fill:#000000;fill-opacity:1;fill-rule:evenodd;stroke:none;stroke-width:2px;stroke-linecap:butt;stroke-linejoin:miter;stroke-opacity:1" />
    </clipPath>
    <filter
       inkscape:collect="always"
       style="color-interpolation-filters:sRGB"
       id="filter1164"
       x="-0.14398219"
       width="1.2879644"
       y="-0.14401782"
       height="1.2880356">
      <feGaussianBlur
         inkscape:collect="always"
         stdDeviation="2.16029"
         id="feGaussianBlur1166" />
    </filter>
    <clipPath
       clipPathUnits="userSpaceOnUse"
       id="clipPath1172">
      <path
         inkscape:connector-curvature="0"
         id="path1174"
         d="m 19,2 v 118 h 90 V 38 l -0.004,-0.01172 a 8.0000018,8.0000018 0 0 0 -2.33984,-5.644531 l -28,-28 C 77.09415,2.781653 75.04737,2 73,2 Z"
         style="opacity:1;fill:url(#linearGradient1177);fill-opacity:1;fill-rule:evenodd;stroke:none;stroke-width:2px;stroke-linecap:butt;stroke-linejoin:miter;stroke-opacity:1" />
    </clipPath>
    <linearGradient
       inkscape:collect="always"
       xlink:href="#linearGradient1176"
       id="linearGradient1177"
       gradientUnits="userSpaceOnUse"
       gradientTransform="translate(-120)"
       x1="184"
       y1="2.0000246"
       x2="184"
       y2="120" />
    <filter
       inkscape:collect="always"
       style="color-interpolation-filters:sRGB"
       id="filter1209"
       x="-0.45594357"
       width="1.9118871"
       y="-0.45605644"
       height="1.9121129">
      <feGaussianBlur
         inkscape:collect="always"
         stdDeviation="6.8409187"
         id="feGaussianBlur1211" />
    </filter>
    <clipPath
       clipPathUnits="userSpaceOnUse"
       id="clipPath1217">
      <path
         inkscape:connector-curvature="0"
         id="path1219"
         d="m 19,2 v 118 h 90 V 38 l -0.004,-0.01172 a 8.0000018,8.0000018 0 0 0 -2.33984,-5.644531 l -28,-28 C 77.09415,2.781653 75.04737,2 73,2 Z"
         style="opacity:1;fill:url(#linearGradient1221);fill-opacity:1;fill-rule:evenodd;stroke:none;stroke-width:2px;stroke-linecap:butt;stroke-linejoin:miter;stroke-opacity:1" />
    </clipPath>
    <linearGradient
       inkscape:collect="always"
       xlink:href="#linearGradient1176"
       id="linearGradient1221"
       gradientUnits="userSpaceOnUse"
       gradientTransform="translate(-120)"
       x1="184"
       y1="2.0000246"
       x2="184"
       y2="120" />
    <linearGradient
       inkscape:collect="always"
       xlink:href="#linearGradient1048"
       id="linearGradient1051"
       x1="-203"
       y1="49.000015"
       x2="-203"
       y2="83"
       gradientUnits="userSpaceOnUse"
       gradientTransform="translate(228)" />
    <linearGradient
       inkscape:collect="always"
       xlink:href="#linearGradient1072"
       id="linearGradient1074"
       x1="-238"
       y1="74.207031"
       x2="-168"
       y2="74.207031"
       gradientUnits="userSpaceOnUse"
       gradientTransform="translate(228)" />
    <linearGradient
       inkscape:collect="always"
       xlink:href="#linearGradient1072"
       id="linearGradient1084"
       x1="-238"
       y1="73.914062"
       x2="-168"
       y2="73.914062"
       gradientUnits="userSpaceOnUse"
       gradientTransform="translate(228)" />
    <radialGradient
       inkscape:collect="always"
       xlink:href="#linearGradient1101"
       id="radialGradient1103"
       cx="-203"
       cy="71.612885"
       fx="-203"
       fy="71.612885"
       r="35"
       gradientTransform="matrix(1.4571425,0,0,0.74285719,320.79994,14.80186)"
       gradientUnits="userSpaceOnUse" />
    <radialGradient
       inkscape:collect="always"
       xlink:href="#linearGradient1122"
       id="radialGradient1124"
       cx="-64.5"
       cy="85"
       fx="-64.5"
       fy="85"
       r="19.5"
       gradientTransform="matrix(2,0,0,0.66666667,-155.5,-4.666667)"
       gradientUnits="userSpaceOnUse" />
    <clipPath
       clipPathUnits="userSpaceOnUse"
       id="clipPath1132">
      <ellipse
         ry="6.5"
         rx="19.5"
         cy="65.5"
         cx="-64.5"
         id="ellipse1134"
         style="opacity:1;fill:#000000;fill-opacity:1;stroke:none;stroke-width:1.8395319;stroke-linecap:butt;stroke-linejoin:miter;stroke-miterlimit:4;stroke-dasharray:none;stroke-opacity:1" />
    </clipPath>
    <linearGradient
       inkscape:collect="always"
       xlink:href="#linearGradient1140"
       id="linearGradient1142"
       x1="-64.5"
       y1="59.000004"
       x2="-64.5"
       y2="72"
       gradientUnits="userSpaceOnUse" />
    <linearGradient
       inkscape:collect="always"
       xlink:href="#linearGradient1156"
       id="linearGradient1158"
       x1="-84"
       y1="62.5"
       x2="-45"
       y2="62.5"
       gradientUnits="userSpaceOnUse"
       gradientTransform="translate(-220,-20)" />
    <radialGradient
       inkscape:collect="always"
       xlink:href="#linearGradient1168"
       id="radialGradient1170"
       cx="-64.5"
       cy="43"
       fx="-64.5"
       fy="43"
       r="19.5"
       gradientTransform="matrix(-2,0,0,-0.66666666,-413.5,64.66667)"
       gradientUnits="userSpaceOnUse" />
    <radialGradient
       inkscape:collect="always"
       xlink:href="#linearGradient1195"
       id="radialGradient1197"
       cx="-135"
       cy="52.25"
       fx="-135"
       fy="52.25"
       r="22.5"
       gradientTransform="matrix(-1.4666667,0,0,-0.84444447,-493,99.12222)"
       gradientUnits="userSpaceOnUse" />
    <clipPath
       clipPathUnits="userSpaceOnUse"
       id="clipPath1214">
      <path
         sodipodi:nodetypes="ccccccc"
         inkscape:connector-curvature="0"
         id="path1216"
         d="m -205,74 c 9,0 23,-6 23,-28.5 v -2 c 0,-6.5 -14,-9 -22.5,-9 -8.5,0 -22.5,2.5 -22.5,9 v 2 c 0,22.5 13,28.5 22,28.5 z"
         style="fill:#000000;fill-opacity:1;fill-rule:evenodd;stroke:none;stroke-width:1px;stroke-linecap:butt;stroke-linejoin:miter;stroke-opacity:1" />
    </clipPath>
    <linearGradient
       inkscape:collect="always"
       xlink:href="#linearGradient1222"
       id="linearGradient1230"
       gradientUnits="userSpaceOnUse"
       x1="-204.5"
       y1="34.5"
       x2="-204.5"
       y2="55" />
    <linearGradient
       inkscape:collect="always"
       xlink:href="#linearGradient1222"
       id="linearGradient1236"
       gradientUnits="userSpaceOnUse"
       x1="-204.5"
       y1="34.5"
       x2="-204.5"
       y2="55" />
    <linearGradient
       inkscape:collect="always"
       xlink:href="#linearGradient1222"
       id="linearGradient1238"
       gradientUnits="userSpaceOnUse"
       x1="-204.5"
       y1="34.5"
       x2="-204.5"
       y2="55" />
    <filter
       inkscape:collect="always"
       style="color-interpolation-filters:sRGB"
       id="filter1291"
       x="-0.086083452"
       width="1.1721669"
       y="-0.10849872"
       height="1.2169974">
      <feGaussianBlur
         inkscape:collect="always"
         stdDeviation="1.5126954"
         id="feGaussianBlur1293" />
    </filter>
    <linearGradient
       inkscape:collect="always"
       xlink:href="#linearGradient1305"
       id="linearGradient1307"
       x1="-284.5"
       y1="37.908142"
       x2="-284.5"
       y2="74"
       gradientUnits="userSpaceOnUse" />
    <clipPath
       clipPathUnits="userSpaceOnUse"
       id="clipPath1312">
      <path
         style="fill:#000000;fill-opacity:1;fill-rule:evenodd;stroke:none;stroke-width:1px;stroke-linecap:butt;stroke-linejoin:miter;stroke-opacity:1"
         d="m -285,74 c 9,0 23,-6 23,-28.5 v -2 c 0,-6.5 -14,-9 -22.5,-9 -8.5,0 -22.5,2.5 -22.5,9 v 2 c 0,22.5 13,28.5 22,28.5 z"
         id="path1314"
         inkscape:connector-curvature="0"
         sodipodi:nodetypes="ccccccc" />
    </clipPath>
    <linearGradient
       inkscape:collect="always"
       xlink:href="#linearGradient1338"
       id="linearGradient1340"
       x1="-206"
       y1="47.999996"
       x2="-206"
       y2="66"
       gradientUnits="userSpaceOnUse"
       gradientTransform="translate(-60)" />
    <linearGradient
       inkscape:collect="always"
       xlink:href="#linearGradient1352"
       id="linearGradient1354"
       x1="-222"
       y1="57"
       x2="-190"
       y2="57"
       gradientUnits="userSpaceOnUse"
       gradientTransform="translate(-60)" />
    <filter
       inkscape:collect="always"
       style="color-interpolation-filters:sRGB"
       id="filter1416"
       x="-0.044571429"
       width="1.0891429"
       y="-0.091764706"
       height="1.1835294">
      <feGaussianBlur
         inkscape:collect="always"
         stdDeviation="1.3"
         id="feGaussianBlur1418" />
    </filter>
    <linearGradient
       inkscape:collect="always"
       xlink:href="#linearGradient1424"
       id="linearGradient1426"
       x1="65"
       y1="48"
       x2="65"
       y2="84"
       gradientUnits="userSpaceOnUse"
       gradientTransform="translate(-40)" />
    <linearGradient
       inkscape:collect="always"
       xlink:href="#linearGradient1432"
       id="linearGradient1434"
       x1="-284.5"
       y1="33.5"
       x2="-284.5"
       y2="75"
       gradientUnits="userSpaceOnUse" />
    <linearGradient
       inkscape:collect="always"
       xlink:href="#linearGradient1491"
       id="linearGradient1493"
       gradientUnits="userSpaceOnUse"
       x1="-284.5"
       y1="33.5"
       x2="-284.5"
       y2="75" />
    <filter
       inkscape:collect="always"
       style="color-interpolation-filters:sRGB"
       id="filter1495"
       x="-0.19565217"
       width="1.3913043"
       y="-0.31034483"
       height="1.6206897">
      <feGaussianBlur
         inkscape:collect="always"
         stdDeviation="3.75"
         id="feGaussianBlur1497" />
    </filter>
    <clipPath
       clipPathUnits="userSpaceOnUse"
       id="clipPath1522">
      <ellipse
         style="opacity:1;fill:#000000;fill-opacity:1;stroke:none;stroke-width:4.28943968;stroke-linecap:round;stroke-linejoin:round;stroke-miterlimit:4;stroke-dasharray:none;stroke-opacity:0"
         id="ellipse1524"
         cx="85"
         cy="66"
         rx="36"
         ry="18" />
    </clipPath>
  </defs>
  <metadata
     id="metadata3906">
    <rdf:RDF>
      <cc:Work
         rdf:about="">
        <dc:format>image/svg+xml</dc:format>
        <dc:type
           rdf:resource="http://purl.org/dc/dcmitype/StillImage" />
        <dc:title />
      </cc:Work>
    </rdf:RDF>
  </metadata>
  <path
     inkscape:connector-curvature="0"
     id="path1068"
     d="m 19,4 v 118 h 90 V 40 l -0.004,-0.01172 a 8.0000018,8.0000018 0 0 0 -2.33984,-5.644531 l -28,-28 C 77.09415,4.781653 75.04737,4 73,4 Z"
     style="opacity:0.017;fill:none;fill-opacity:1;fill-rule:evenodd;stroke:#000000;stroke-width:6;stroke-linecap:round;stroke-linejoin:round;stroke-miterlimit:4;stroke-dasharray:none;stroke-opacity:1" />
  <path
     style="opacity:0.04;fill:none;fill-opacity:1;fill-rule:evenodd;stroke:#000000;stroke-width:4;stroke-linecap:round;stroke-linejoin:round;stroke-miterlimit:4;stroke-dasharray:none;stroke-opacity:1"
     d="m 19,3 v 118 h 90 V 39 l -0.004,-0.01172 a 8.0000018,8.0000018 0 0 0 -2.33984,-5.644531 l -28,-28 C 77.09415,3.781653 75.04737,3 73,3 Z"
     id="path1066"
     inkscape:connector-curvature="0" />
  <path
     inkscape:connector-curvature="0"
     id="path1114"
     d="m 19,1 v 118 h 90 V 37 l -0.004,-0.01172 a 8.0000018,8.0000018 0 0 0 -2.33984,-5.644531 l -28,-28 C 77.09415,1.781653 75.04737,1 73,1 Z"
     style="opacity:0.07;fill:#000000;fill-opacity:1;fill-rule:evenodd;stroke:none;stroke-width:2px;stroke-linecap:butt;stroke-linejoin:miter;stroke-opacity:1" />
  <path
     inkscape:connector-curvature="0"
     id="path1060"
     d="m 19,3 v 118 h 90 V 39 l -0.004,-0.01172 a 8.0000018,8.0000018 0 0 0 -2.33984,-5.644531 l -28,-28 C 77.09415,3.781653 75.04737,3 73,3 Z"
     style="opacity:0.11;fill:none;fill-opacity:1;fill-rule:evenodd;stroke:#000000;stroke-width:2px;stroke-linecap:round;stroke-linejoin:round;stroke-opacity:1" />
  <path
     style="opacity:0.06000001;fill:#000000;fill-opacity:1;fill-rule:evenodd;stroke:#000000;stroke-width:2px;stroke-linecap:round;stroke-linejoin:round;stroke-opacity:0.47843137"
     d="m 19,5 v 118 h 90 V 41 l -0.004,-0.01172 a 8.0000018,8.0000018 0 0 0 -2.33984,-5.644531 l -28,-28 C 77.09415,5.781653 75.04737,5 73,5 Z"
     id="path1097"
     inkscape:connector-curvature="0" />
  <path
     inkscape:connector-curvature="0"
     id="path1095"
     d="m 19,3 v 118 h 90 V 39 l -0.004,-0.01172 a 8.0000018,8.0000018 0 0 0 -2.33984,-5.644531 l -28,-28 C 77.09415,3.781653 75.04737,3 73,3 Z"
     style="opacity:0.16;fill:#000000;fill-opacity:1;fill-rule:evenodd;stroke:none;stroke-width:2px;stroke-linecap:round;stroke-linejoin:round;stroke-opacity:0.80392158" />
  <path
     style="opacity:1;fill:url(#linearGradient1050);fill-opacity:1;fill-rule:evenodd;stroke:none;stroke-width:2px;stroke-linecap:butt;stroke-linejoin:miter;stroke-opacity:1"
     d="m 19,2 v 118 h 90 V 38 l -0.004,-0.01172 a 8.0000018,8.0000018 0 0 0 -2.33984,-5.644531 l -28,-28 C 77.09415,2.781653 75.04737,2 73,2 Z"
     id="path230"
     inkscape:connector-curvature="0" />
  <path
     inkscape:connector-curvature="0"
     id="path1101"
     d="m 19,2 v 118 h 90 V 38 l -0.004,-0.01172 a 8.0000018,8.0000018 0 0 0 -2.33984,-5.644531 l -28,-28 C 77.09415,2.781653 75.04737,2 73,2 Z"
     style="opacity:0.12;fill:none;fill-opacity:1;fill-rule:evenodd;stroke:#ffffff;stroke-width:2px;stroke-linecap:round;stroke-linejoin:round;stroke-opacity:1"
     clip-path="url(#clipPath1105)" />
  <path
     style="opacity:0.35;fill:#000000;fill-opacity:1;fill-rule:evenodd;stroke:#000000;stroke-width:2px;stroke-linecap:butt;stroke-linejoin:round;stroke-opacity:1;filter:url(#filter1209)"
     d="m 78.65745,13.344821 28,28 c 0,0 2.34246,2.156856 2.34246,5.656856 0,0 1.25009,-11.25 -25.24991,-10.5 1.5,-26 -10.75009,-25.499692 -10.75009,-25.499692 3.5,-3.08e-4 5.65754,2.342836 5.65754,2.342836 z"
     id="path1187"
     inkscape:connector-curvature="0"
     sodipodi:nodetypes="cccccc"
     clip-path="url(#clipPath1217)" />
  <path
     style="opacity:0.4;fill:#000000;fill-opacity:1;fill-rule:evenodd;stroke:#000000;stroke-width:4;stroke-linecap:butt;stroke-linejoin:miter;stroke-miterlimit:4;stroke-dasharray:none;stroke-opacity:1;filter:url(#filter1164)"
     d="M 82.657154,4.3432652 108.65715,34.343265 c 0,0 2.34246,2.156856 2.34246,5.656856 0,0 1.25009,-11.25 -25.249906,-10.5 1.5,-25.9999998 -8.75009,-27.4996918 -8.75009,-27.4996918 3.5,-3.08e-4 5.65754,2.342836 5.65754,2.342836 z"
     id="path1133"
     inkscape:connector-curvature="0"
     sodipodi:nodetypes="cccccc"
     clip-path="url(#clipPath1172)" />
  <path
     sodipodi:nodetypes="cccccc"
     inkscape:connector-curvature="0"
     id="path236"
     d="m 78.65745,4.343144 28,28 c 0,0 2.34246,2.156856 2.34246,5.656856 0,0 1.25009,-11.25 -25.24991,-10.5 C 85.25,1.5 72.99991,2.000308 72.99991,2.000308 76.49991,2 78.65745,4.343144 78.65745,4.343144 Z"
     style="opacity:1;fill:url(#linearGradient1058);fill-opacity:1;fill-rule:evenodd;stroke:none;stroke-width:2px;stroke-linecap:butt;stroke-linejoin:miter;stroke-opacity:1" />
  <rect
     style="opacity:0.12;fill:#000000;fill-opacity:1;stroke:none;stroke-width:4.12482166;stroke-linecap:round;stroke-linejoin:round;stroke-miterlimit:4;stroke-dasharray:none;stroke-opacity:0.47843137"
     id="rect1099"
     width="3"
     height="1"
     x="-87"
     y="0" />
  <path
     style="opacity:0.25;fill:#ffffff;fill-opacity:1;fill-rule:evenodd;stroke:none;stroke-width:2px;stroke-linecap:butt;stroke-linejoin:miter;stroke-opacity:1"
     d="M 73 2 C 73 2 85.25 1.5 83.75 27.5 C 103.61354 26.937824 107.88532 33.117422 108.7793 36.248047 C 108.20951 33.804706 106.6582 32.34375 106.6582 32.34375 L 103.30273 28.988281 C 99.569128 27.380204 93.768808 26.244751 84.75 26.5 C 85.252403 17.791686 84.209207 12.066194 82.603516 8.2890625 L 78.658203 4.34375 C 78.658203 4.34375 76.5 1.999692 73 2 z M 108.79492 36.316406 C 108.84279 36.491724 108.87542 36.649453 108.9043 36.802734 C 108.87756 36.631318 108.83136 36.479251 108.79492 36.316406 z M 108.9043 36.802734 C 108.96346 37.182023 109 37.580773 109 38 C 109 38 109.04103 37.528491 108.9043 36.802734 z "
     id="path1120" />
  <text
     xml:space="preserve"
     style="font-style:normal;font-variant:normal;font-weight:normal;font-stretch:normal;font-size:21.58687401px;line-height:0%;font-family:'Lucida Sans Unicode';-inkscape-font-specification:'Lucida Sans Unicode';letter-spacing:0px;word-spacing:0px;fill:#525252;fill-opacity:1;stroke:none;stroke-width:1.79890597"
     x="40.407398"
     y="112.99916"
     id="text3801-7"
     transform="scale(0.9999926,1.0000074)"><tspan
       sodipodi:role="line"
       id="tspan3803-1"
       x="40.407398"
       y="112.99916"
       style="font-style:normal;font-variant:normal;font-weight:normal;font-stretch:normal;font-size:17.98906136px;line-height:1.25;font-family:'Lucida Sans Unicode';-inkscape-font-specification:'Lucida Sans Unicode';fill:#525252;fill-opacity:1;stroke-width:1.79890597">MIME</tspan></text>
  <g
     id="g1510"
     transform="translate(40)">
    <ellipse
       ry="17"
       rx="35"
       cy="68"
       cx="25"
       id="ellipse1410"
       style="opacity:0.55;fill:#000000;fill-opacity:1;stroke:none;stroke-width:3.2865696;stroke-linecap:butt;stroke-linejoin:miter;stroke-miterlimit:4;stroke-dasharray:none;stroke-opacity:1;filter:url(#filter1416)" />
    <ellipse
       ry="17"
       rx="35"
       cy="66"
       cx="25"
       id="ellipse1376"
       style="opacity:0.5;fill:none;fill-opacity:1;stroke:url(#linearGradient1426);stroke-width:2;stroke-linecap:round;stroke-linejoin:round;stroke-miterlimit:4;stroke-dasharray:none;stroke-opacity:1" />
    <ellipse
       ry="17"
       rx="35"
       cy="66"
       cx="25"
       id="path237"
       style="opacity:1;fill:url(#linearGradient1051);fill-opacity:1;stroke:none;stroke-width:3.2865696;stroke-linecap:butt;stroke-linejoin:miter;stroke-miterlimit:4;stroke-dasharray:none;stroke-opacity:1" />
    <ellipse
       style="opacity:0.1;fill:url(#radialGradient1103);fill-opacity:1;stroke:none;stroke-width:3.2865696;stroke-linecap:butt;stroke-linejoin:miter;stroke-miterlimit:4;stroke-dasharray:none;stroke-opacity:1"
       id="ellipse1095"
       cx="25"
       cy="66"
       rx="35"
       ry="17" />
    <path
       inkscape:connector-curvature="0"
       id="ellipse1111"
       d="M -8.88281,61.82227 A 35,17 0 0 0 -10,66 35,17 0 0 0 25,83 35,17 0 0 0 60,66 35,17 0 0 0 58.91992,61.875 34,17 0 0 1 59,63 34,17 0 0 1 25,80 34,17 0 0 1 -9,63 34,17 0 0 1 -8.88281,61.82227 Z"
       style="opacity:0.25;fill:#ffffff;fill-opacity:1;stroke:none;stroke-width:3.2865696;stroke-linecap:butt;stroke-linejoin:miter;stroke-miterlimit:4;stroke-dasharray:none;stroke-opacity:1" />
    <path
       inkscape:connector-curvature="0"
       id="ellipse1058"
       d="M 59.91406,64.82812 A 35,17 0 0 1 25,81 35,17 0 0 1 -9.91406,65.17187 35,17 0 0 0 -10,66 35,17 0 0 0 25,83 35,17 0 0 0 60,66 35,17 0 0 0 59.9141,64.82812 Z"
       style="opacity:0.75;fill:url(#linearGradient1084);fill-opacity:1;stroke:none;stroke-width:3.2865696;stroke-linecap:butt;stroke-linejoin:miter;stroke-miterlimit:4;stroke-dasharray:none;stroke-opacity:1" />
    <path
       inkscape:connector-curvature="0"
       id="ellipse1053"
       d="M 59.95703,65.41406 A 35,17 0 0 1 25,82 35,17 0 0 1 -9.95703,65.58594 35,17 0 0 0 -10,66 35,17 0 0 0 25,83 35,17 0 0 0 60,66 35,17 0 0 0 59.957,65.41406 Z"
       style="opacity:0.75;fill:url(#linearGradient1074);fill-opacity:1;stroke:none;stroke-width:3.2865696;stroke-linecap:butt;stroke-linejoin:miter;stroke-miterlimit:4;stroke-dasharray:none;stroke-opacity:1" />
  </g>
  <path
     style="opacity:0.75;fill:#000000;fill-opacity:1;fill-rule:evenodd;stroke:#000000;stroke-width:1px;stroke-linecap:butt;stroke-linejoin:miter;stroke-opacity:1;filter:url(#filter1495)"
     d="m 112,64 -2,-4 -4,-14 -40,16 6,8 8,5 14,-1 z"
     id="path1459"
     inkscape:connector-curvature="0"
     sodipodi:nodetypes="cccccccc"
     clip-path="url(#clipPath1522)"
     transform="translate(-20)" />
  <g
     id="g1408"
     transform="translate(348)">
    <path
       inkscape:connector-curvature="0"
       id="path1374"
       d="m -266,48 a 16,9 0 0 0 -16,9 16,9 0 0 0 16,9 16,9 0 0 0 16,-9 16,9 0 0 0 -16,-9 z m 0,3 a 13.5,5.5 0 0 1 13.5,5.5 13.5,5.5 0 0 1 -0.0234,0.193359 A 13.5,6 0 0 1 -252.5,57 13.5,6 0 0 1 -266,63 13.5,6 0 0 1 -279.5,57 13.5,6 0 0 1 -279.4746,56.785156 13.5,5.5 0 0 1 -279.5,56.5 13.5,5.5 0 0 1 -266,51 Z"
       style="opacity:0.25;fill:none;fill-opacity:1;stroke:#000000;stroke-width:2;stroke-linecap:round;stroke-linejoin:round;stroke-miterlimit:4;stroke-dasharray:none;stroke-opacity:1" />
    <path
       inkscape:connector-curvature="0"
       id="path1328"
       d="m -266,48 a 16,9 0 0 0 -16,9 16,9 0 0 0 16,9 16,9 0 0 0 16,-9 16,9 0 0 0 -16,-9 z m 0,3 a 13.5,5.5 0 0 1 13.5,5.5 13.5,5.5 0 0 1 -0.0234,0.193359 A 13.5,6 0 0 1 -252.5,57 13.5,6 0 0 1 -266,63 13.5,6 0 0 1 -279.5,57 13.5,6 0 0 1 -279.4746,56.785156 13.5,5.5 0 0 1 -279.5,56.5 13.5,5.5 0 0 1 -266,51 Z"
       style="opacity:1;fill:url(#linearGradient1340);fill-opacity:1;stroke:none;stroke-width:2.0062139;stroke-linecap:round;stroke-linejoin:round;stroke-miterlimit:4;stroke-dasharray:none;stroke-opacity:1" />
    <path
       inkscape:connector-curvature="0"
       id="path1346"
       d="m -266,48 a 16,9 0 0 0 -16,9 16,9 0 0 0 16,9 16,9 0 0 0 16,-9 16,9 0 0 0 -16,-9 z m 0,3 a 13.5,5.5 0 0 1 13.5,5.5 13.5,5.5 0 0 1 -0.0234,0.193359 A 13.5,6 0 0 1 -252.5,57 13.5,6 0 0 1 -266,63 13.5,6 0 0 1 -279.5,57 13.5,6 0 0 1 -279.4746,56.785156 13.5,5.5 0 0 1 -279.5,56.5 13.5,5.5 0 0 1 -266,51 Z"
       style="opacity:0.5;fill:url(#linearGradient1354);fill-opacity:1;stroke:none;stroke-width:2.0062139;stroke-linecap:round;stroke-linejoin:round;stroke-miterlimit:4;stroke-dasharray:none;stroke-opacity:1" />
  </g>
  <g
     id="g1372"
     transform="translate(348)">
    <path
       sodipodi:nodetypes="ccccccc"
       inkscape:connector-curvature="0"
       id="path1477"
       d="m -285,74 c 9,0 23,-6 23,-28.5 v -2 c 0,-6.5 -14,-9 -22.5,-9 -8.5,0 -22.5,2.5 -22.5,9 v 2 c 0,22.5 13,28.5 22,28.5 z"
       style="opacity:0.15;fill:none;fill-opacity:1;fill-rule:evenodd;stroke:url(#linearGradient1493);stroke-width:4;stroke-linecap:round;stroke-linejoin:round;stroke-miterlimit:4;stroke-dasharray:none;stroke-opacity:1" />
    <path
       style="opacity:0.25;fill:none;fill-opacity:1;fill-rule:evenodd;stroke:url(#linearGradient1434);stroke-width:2;stroke-linecap:round;stroke-linejoin:round;stroke-miterlimit:4;stroke-dasharray:none;stroke-opacity:1"
       d="m -285,74 c 9,0 23,-6 23,-28.5 v -2 c 0,-6.5 -14,-9 -22.5,-9 -8.5,0 -22.5,2.5 -22.5,9 v 2 c 0,22.5 13,28.5 22,28.5 z"
       id="path1316"
       inkscape:connector-curvature="0"
       sodipodi:nodetypes="ccccccc" />
    <path
       sodipodi:nodetypes="ccccccc"
       inkscape:connector-curvature="0"
       id="path1188"
       d="m -285,74 c 9,0 23,-6 23,-28.5 v -2 c 0,-6.5 -14,-9 -22.5,-9 -8.5,0 -22.5,2.5 -22.5,9 v 2 c 0,22.5 13,28.5 22,28.5 z"
       style="fill:url(#radialGradient1197);fill-opacity:1;fill-rule:evenodd;stroke:none;stroke-width:1px;stroke-linecap:butt;stroke-linejoin:miter;stroke-opacity:1" />
    <path
       transform="translate(-80)"
       sodipodi:nodetypes="sccsccs"
       inkscape:connector-curvature="0"
       id="path1234"
       d="m -204.5,36 c -10.5,0 -20.5,2.910149 -20.5,6.5 v 3 c 0,3.589851 10,6.5 20.5,6.5 10.5,0 20.5,-2.910149 20.5,-6.5 v -3 c 0,-3.589851 -10,-6.5 -20.5,-6.5 z"
       style="opacity:0.25;fill:none;fill-opacity:1;stroke:url(#linearGradient1230);stroke-width:6;stroke-linecap:butt;stroke-linejoin:miter;stroke-miterlimit:4;stroke-dasharray:none;stroke-opacity:1"
       clip-path="url(#clipPath1214)" />
    <path
       transform="translate(-80)"
       clip-path="url(#clipPath1214)"
       style="opacity:0.5;fill:none;fill-opacity:1;stroke:url(#linearGradient1238);stroke-width:4;stroke-linecap:butt;stroke-linejoin:miter;stroke-miterlimit:4;stroke-dasharray:none;stroke-opacity:1"
       d="m -204.5,36 c -10.5,0 -20.5,2.910149 -20.5,6.5 v 3 c 0,3.589851 10,6.5 20.5,6.5 10.5,0 20.5,-2.910149 20.5,-6.5 v -3 c 0,-3.589851 -10,-6.5 -20.5,-6.5 z"
       id="path1228"
       inkscape:connector-curvature="0"
       sodipodi:nodetypes="sccsccs" />
    <path
       transform="translate(-80)"
       sodipodi:nodetypes="sccsccs"
       inkscape:connector-curvature="0"
       id="path1232"
       d="m -204.5,36 c -10.5,0 -20.5,2.910149 -20.5,6.5 v 3 c 0,3.589851 10,6.5 20.5,6.5 10.5,0 20.5,-2.910149 20.5,-6.5 v -3 c 0,-3.589851 -10,-6.5 -20.5,-6.5 z"
       style="opacity:1;fill:none;fill-opacity:1;stroke:url(#linearGradient1236);stroke-width:2;stroke-linecap:butt;stroke-linejoin:miter;stroke-miterlimit:4;stroke-dasharray:none;stroke-opacity:1"
       clip-path="url(#clipPath1214)" />
    <ellipse
       style="opacity:1;fill:url(#linearGradient1158);fill-opacity:1;stroke:none;stroke-width:1.8395319;stroke-linecap:butt;stroke-linejoin:miter;stroke-miterlimit:4;stroke-dasharray:none;stroke-opacity:1"
       id="ellipse1146"
       cx="-284.5"
       cy="42.5"
       rx="19.5"
       ry="6.5" />
    <ellipse
       ry="6.5"
       rx="19.5"
       cy="42.5"
       cx="-284.5"
       id="ellipse1162"
       style="opacity:0.5;fill:url(#radialGradient1170);fill-opacity:1;stroke:none;stroke-width:1.8395319;stroke-linecap:butt;stroke-linejoin:miter;stroke-miterlimit:4;stroke-dasharray:none;stroke-opacity:1" />
    <ellipse
       ry="6.5"
       rx="19.5"
       cy="45.5"
       cx="-284.5"
       id="path1116"
       style="opacity:1;fill:url(#radialGradient1124);fill-opacity:1;stroke:none;stroke-width:1.8395319;stroke-linecap:butt;stroke-linejoin:miter;stroke-miterlimit:4;stroke-dasharray:none;stroke-opacity:1" />
    <ellipse
       transform="translate(-220,-20)"
       clip-path="url(#clipPath1132)"
       style="opacity:1;fill:none;fill-opacity:1;stroke:url(#linearGradient1142);stroke-width:2;stroke-linecap:round;stroke-linejoin:round;stroke-miterlimit:4;stroke-dasharray:none;stroke-opacity:1"
       id="ellipse1128"
       cx="-64.5"
       cy="65.5"
       rx="19.5"
       ry="6.5" />
    <path
       clip-path="url(#clipPath1312)"
       inkscape:connector-curvature="0"
       id="path1240"
       d="M -305.88281,41.538595 C -306.59051,42.416912 -307,43.399269 -307,44.499533 v 2 c 0,22.5 13,28.5 22,28.5 6.50552,0 15.61923,-3.139504 20.17383,-13.375 -4.79363,8.645345 -13.114,11.375 -19.17383,11.375 -9,0 -22,-6 -22,-28.5 v -2 c 0,-0.331689 0.0469,-0.649881 0.11719,-0.960938 z"
       style="opacity:0.5;fill:url(#linearGradient1307);fill-opacity:1;fill-rule:evenodd;stroke:none;stroke-width:1px;stroke-linecap:butt;stroke-linejoin:miter;stroke-opacity:1;filter:url(#filter1291)" />
  </g>
</svg>
