<?xml version="1.0" encoding="UTF-8" standalone="no"?>
<!-- Created with Inkscape (http://www.inkscape.org/) -->

<svg
   xmlns:dc="http://purl.org/dc/elements/1.1/"
   xmlns:cc="http://creativecommons.org/ns#"
   xmlns:rdf="http://www.w3.org/1999/02/22-rdf-syntax-ns#"
   xmlns:svg="http://www.w3.org/2000/svg"
   xmlns="http://www.w3.org/2000/svg"
   xmlns:xlink="http://www.w3.org/1999/xlink"
   xmlns:sodipodi="http://sodipodi.sourceforge.net/DTD/sodipodi-0.dtd"
   xmlns:inkscape="http://www.inkscape.org/namespaces/inkscape"
   version="1.1"
   width="128"
   height="128"
   id="svg3901"
   inkscape:version="0.92.1 r15371"
   sodipodi:docname="application-x-bittorrent.svg">
  <sodipodi:namedview
     pagecolor="#ffffff"
     bordercolor="#666666"
     borderopacity="1"
     objecttolerance="10"
     gridtolerance="10"
     guidetolerance="10"
     inkscape:pageopacity="0"
     inkscape:pageshadow="2"
     inkscape:window-width="1366"
     inkscape:window-height="724"
     id="namedview37"
     showgrid="false"
     inkscape:zoom="4"
     inkscape:cx="68.95033"
     inkscape:cy="38.755429"
     inkscape:window-x="0"
     inkscape:window-y="22"
     inkscape:window-maximized="1"
     inkscape:current-layer="svg3901"
     showguides="true"
     inkscape:guide-bbox="true"
     inkscape:object-nodes="true"
     inkscape:snap-smooth-nodes="true"
     inkscape:snap-object-midpoints="false"
     inkscape:snap-center="false"
     inkscape:snap-bbox="true"
     inkscape:bbox-paths="true"
     inkscape:bbox-nodes="true"
     inkscape:snap-bbox-edge-midpoints="true"
     inkscape:snap-bbox-midpoints="true"
     inkscape:snap-page="true"
     inkscape:object-paths="true"
     inkscape:snap-midpoints="true"
     inkscape:snap-intersection-paths="true">
    <inkscape:grid
       type="xygrid"
       id="grid3254"
       spacingx="0.25"
       spacingy="0.25"
       empspacing="4" />
    <sodipodi:guide
       position="32,15"
       orientation="0,1"
       id="guide195"
       inkscape:locked="false" />
    <sodipodi:guide
       position="104,14"
       orientation="1,0"
       id="guide1068"
       inkscape:locked="false" />
    <sodipodi:guide
       position="24,15"
       orientation="1,0"
       id="guide1131"
       inkscape:locked="false" />
  </sodipodi:namedview>
  <defs
     id="defs3903">
    <linearGradient
       inkscape:collect="always"
       id="linearGradient1192">
      <stop
         style="stop-color:#ffffff;stop-opacity:1"
         offset="0"
         id="stop1188" />
      <stop
         id="stop1196"
         offset="0.55000001"
         style="stop-color:#ffffff;stop-opacity:1" />
      <stop
         style="stop-color:#cfcfcf;stop-opacity:1"
         offset="1"
         id="stop1190" />
    </linearGradient>
    <linearGradient
       inkscape:collect="always"
       id="linearGradient1176">
      <stop
         style="stop-color:#e5e5e5;stop-opacity:1"
         offset="0"
         id="stop1172" />
      <stop
         id="stop1180"
         offset="0.25"
         style="stop-color:#ececec;stop-opacity:1" />
      <stop
         style="stop-color:#fafafa;stop-opacity:1"
         offset="0.625"
         id="stop1184" />
      <stop
         style="stop-color:#ffffff;stop-opacity:1"
         offset="1"
         id="stop1174" />
    </linearGradient>
    <linearGradient
       inkscape:collect="always"
       xlink:href="#linearGradient1176"
       id="linearGradient1050"
       x1="184"
       y1="2.0000246"
       x2="184"
       y2="120"
       gradientUnits="userSpaceOnUse"
       gradientTransform="translate(-120)" />
    <linearGradient
       inkscape:collect="always"
       xlink:href="#linearGradient1192"
       id="linearGradient1058"
       x1="203.75"
       y1="27.5"
       x2="212.65933"
       y2="18.345024"
       gradientUnits="userSpaceOnUse"
       gradientTransform="translate(-120)" />
    <clipPath
       clipPathUnits="userSpaceOnUse"
       id="clipPath1105">
      <path
         inkscape:connector-curvature="0"
         id="path1107"
         d="m 19,2 v 118 h 90 V 38 l -0.004,-0.01172 a 8.0000018,8.0000018 0 0 0 -2.33984,-5.644531 l -28,-28 C 77.09415,2.781653 75.04737,2 73,2 Z"
         style="opacity:1;fill:#000000;fill-opacity:1;fill-rule:evenodd;stroke:none;stroke-width:2px;stroke-linecap:butt;stroke-linejoin:miter;stroke-opacity:1" />
    </clipPath>
    <filter
       inkscape:collect="always"
       style="color-interpolation-filters:sRGB"
       id="filter1164"
       x="-0.14398219"
       width="1.2879644"
       y="-0.14401782"
       height="1.2880356">
      <feGaussianBlur
         inkscape:collect="always"
         stdDeviation="2.16029"
         id="feGaussianBlur1166" />
    </filter>
    <clipPath
       clipPathUnits="userSpaceOnUse"
       id="clipPath1172">
      <path
         inkscape:connector-curvature="0"
         id="path1174"
         d="m 19,2 v 118 h 90 V 38 l -0.004,-0.01172 a 8.0000018,8.0000018 0 0 0 -2.33984,-5.644531 l -28,-28 C 77.09415,2.781653 75.04737,2 73,2 Z"
         style="opacity:1;fill:url(#linearGradient1177);fill-opacity:1;fill-rule:evenodd;stroke:none;stroke-width:2px;stroke-linecap:butt;stroke-linejoin:miter;stroke-opacity:1" />
    </clipPath>
    <linearGradient
       inkscape:collect="always"
       xlink:href="#linearGradient1176"
       id="linearGradient1177"
       gradientUnits="userSpaceOnUse"
       gradientTransform="translate(-120)"
       x1="184"
       y1="2.0000246"
       x2="184"
       y2="120" />
    <filter
       inkscape:collect="always"
       style="color-interpolation-filters:sRGB"
       id="filter1209"
       x="-0.45594357"
       width="1.9118871"
       y="-0.45605644"
       height="1.9121129">
      <feGaussianBlur
         inkscape:collect="always"
         stdDeviation="6.8409187"
         id="feGaussianBlur1211" />
    </filter>
    <clipPath
       clipPathUnits="userSpaceOnUse"
       id="clipPath1217">
      <path
         inkscape:connector-curvature="0"
         id="path1219"
         d="m 19,2 v 118 h 90 V 38 l -0.004,-0.01172 a 8.0000018,8.0000018 0 0 0 -2.33984,-5.644531 l -28,-28 C 77.09415,2.781653 75.04737,2 73,2 Z"
         style="opacity:1;fill:url(#linearGradient1221);fill-opacity:1;fill-rule:evenodd;stroke:none;stroke-width:2px;stroke-linecap:butt;stroke-linejoin:miter;stroke-opacity:1" />
    </clipPath>
    <linearGradient
       inkscape:collect="always"
       xlink:href="#linearGradient1176"
       id="linearGradient1221"
       gradientUnits="userSpaceOnUse"
       gradientTransform="translate(-120)"
       x1="184"
       y1="2.0000246"
       x2="184"
       y2="120" />
    <radialGradient
       inkscape:collect="always"
       xlink:href="#linearGradient4613"
       id="radialGradient4116"
       gradientUnits="userSpaceOnUse"
       gradientTransform="matrix(0.74570573,1.2916038,-0.96776872,0.55873995,622.31177,-283.72494)"
       cx="394.56799"
       cy="536.46356"
       fx="394.56799"
       fy="536.46356"
       r="13.999958" />
    <linearGradient
       id="linearGradient4613">
      <stop
         style="stop-color:#7fbc51;stop-opacity:1;"
         offset="0"
         id="stop4615" />
      <stop
         style="stop-color:#64ac31;stop-opacity:1;"
         offset="1"
         id="stop4617" />
    </linearGradient>
    <clipPath
       clipPathUnits="userSpaceOnUse"
       id="clipPath4238">
      <circle
         r="13.999958"
         cy="531.79797"
         cx="400.57144"
         id="circle4240"
         style="fill:url(#radialGradient4242);fill-opacity:1;stroke:none"
         transform="matrix(4.2857178,0,0,4.2857178,-1268.1797,-1795.4409)" />
    </clipPath>
    <linearGradient
       inkscape:collect="always"
       xlink:href="#linearGradient4333-6"
       id="linearGradient4226"
       gradientUnits="userSpaceOnUse"
       gradientTransform="matrix(0.87967871,0.25229434,-0.25229434,0.87967871,178.74853,-57.22537)"
       x1="484.40863"
       y1="542.38678"
       x2="432.74045"
       y2="456.40686" />
    <linearGradient
       id="linearGradient4333-6">
      <stop
         id="stop4335-0"
         offset="0"
         style="stop-color:#e6e6e6;stop-opacity:1;" />
      <stop
         id="stop4337-9"
         offset="1"
         style="stop-color:#ffffff;stop-opacity:1;" />
    </linearGradient>
    <clipPath
       clipPathUnits="userSpaceOnUse"
       id="clipPath125">
      <circle
         r="13.999958"
         cy="531.79797"
         cx="400.57144"
         id="circle123"
         style="fill:url(#radialGradient4242);fill-opacity:1;stroke:none"
         transform="matrix(4.2857178,0,0,4.2857178,-1268.1797,-1795.4409)" />
    </clipPath>
  </defs>
  <metadata
     id="metadata3906">
    <rdf:RDF>
      <cc:Work
         rdf:about="">
        <dc:format>image/svg+xml</dc:format>
        <dc:type
           rdf:resource="http://purl.org/dc/dcmitype/StillImage" />
        <dc:title />
      </cc:Work>
    </rdf:RDF>
  </metadata>
  <path
     inkscape:connector-curvature="0"
     id="path1068"
     d="m 19,4 v 118 h 90 V 40 l -0.004,-0.01172 a 8.0000018,8.0000018 0 0 0 -2.33984,-5.644531 l -28,-28 C 77.09415,4.781653 75.04737,4 73,4 Z"
     style="opacity:0.017;fill:none;fill-opacity:1;fill-rule:evenodd;stroke:#000000;stroke-width:6;stroke-linecap:round;stroke-linejoin:round;stroke-miterlimit:4;stroke-dasharray:none;stroke-opacity:1" />
  <path
     style="opacity:0.04;fill:none;fill-opacity:1;fill-rule:evenodd;stroke:#000000;stroke-width:4;stroke-linecap:round;stroke-linejoin:round;stroke-miterlimit:4;stroke-dasharray:none;stroke-opacity:1"
     d="m 19,3 v 118 h 90 V 39 l -0.004,-0.01172 a 8.0000018,8.0000018 0 0 0 -2.33984,-5.644531 l -28,-28 C 77.09415,3.781653 75.04737,3 73,3 Z"
     id="path1066"
     inkscape:connector-curvature="0" />
  <path
     inkscape:connector-curvature="0"
     id="path1114"
     d="m 19,1 v 118 h 90 V 37 l -0.004,-0.01172 a 8.0000018,8.0000018 0 0 0 -2.33984,-5.644531 l -28,-28 C 77.09415,1.781653 75.04737,1 73,1 Z"
     style="opacity:0.07;fill:#000000;fill-opacity:1;fill-rule:evenodd;stroke:none;stroke-width:2px;stroke-linecap:butt;stroke-linejoin:miter;stroke-opacity:1" />
  <path
     inkscape:connector-curvature="0"
     id="path1060"
     d="m 19,3 v 118 h 90 V 39 l -0.004,-0.01172 a 8.0000018,8.0000018 0 0 0 -2.33984,-5.644531 l -28,-28 C 77.09415,3.781653 75.04737,3 73,3 Z"
     style="opacity:0.11;fill:none;fill-opacity:1;fill-rule:evenodd;stroke:#000000;stroke-width:2px;stroke-linecap:round;stroke-linejoin:round;stroke-opacity:1" />
  <path
     style="opacity:0.06000001;fill:#000000;fill-opacity:1;fill-rule:evenodd;stroke:#000000;stroke-width:2px;stroke-linecap:round;stroke-linejoin:round;stroke-opacity:0.47843137"
     d="m 19,5 v 118 h 90 V 41 l -0.004,-0.01172 a 8.0000018,8.0000018 0 0 0 -2.33984,-5.644531 l -28,-28 C 77.09415,5.781653 75.04737,5 73,5 Z"
     id="path1097"
     inkscape:connector-curvature="0" />
  <path
     inkscape:connector-curvature="0"
     id="path1095"
     d="m 19,3 v 118 h 90 V 39 l -0.004,-0.01172 a 8.0000018,8.0000018 0 0 0 -2.33984,-5.644531 l -28,-28 C 77.09415,3.781653 75.04737,3 73,3 Z"
     style="opacity:0.16;fill:#000000;fill-opacity:1;fill-rule:evenodd;stroke:none;stroke-width:2px;stroke-linecap:round;stroke-linejoin:round;stroke-opacity:0.80392158" />
  <path
     style="opacity:1;fill:url(#linearGradient1050);fill-opacity:1;fill-rule:evenodd;stroke:none;stroke-width:2px;stroke-linecap:butt;stroke-linejoin:miter;stroke-opacity:1"
     d="m 19,2 v 118 h 90 V 38 l -0.004,-0.01172 a 8.0000018,8.0000018 0 0 0 -2.33984,-5.644531 l -28,-28 C 77.09415,2.781653 75.04737,2 73,2 Z"
     id="path230"
     inkscape:connector-curvature="0" />
  <g
     transform="matrix(0.5,0,0,0.5,-160.27815,-183.8475)"
     id="g103">
    <g
       id="g3829">
      <circle
         r="13.999958"
         cy="531.79797"
         cx="400.57144"
         id="circle3827"
         style="opacity:0.05;fill:none;stroke:#000000;stroke-width:1.3999989;stroke-linejoin:round;stroke-miterlimit:4;stroke-dasharray:none;stroke-opacity:1"
         transform="matrix(4.2857178,0,0,4.2857178,-1268.1797,-1794.4409)" />
      <circle
         transform="matrix(4.2857178,0,0,4.2857178,-1268.1797,-1794.4409)"
         style="opacity:0.05;fill:none;stroke:#000000;stroke-width:0.93333256;stroke-linejoin:round;stroke-miterlimit:4;stroke-dasharray:none;stroke-opacity:1"
         id="circle3825"
         cx="400.57144"
         cy="531.79797"
         r="13.999958" />
      <circle
         r="13.999958"
         cy="531.79797"
         cx="400.57144"
         id="circle3055"
         style="opacity:0.05;fill:none;stroke:#000000;stroke-width:0.46666628;stroke-linejoin:round;stroke-miterlimit:4;stroke-dasharray:none;stroke-opacity:1"
         transform="matrix(4.2857178,0,0,4.2857178,-1268.1797,-1794.4409)" />
      <circle
         transform="matrix(4.2857178,0,0,4.2857178,-1268.1797,-1795.4409)"
         style="opacity:0.05;fill:none;stroke:#000000;stroke-width:0.46666628;stroke-linejoin:round;stroke-miterlimit:4;stroke-dasharray:none;stroke-opacity:1"
         id="circle3834"
         cx="400.57144"
         cy="531.79797"
         r="13.999958" />
    </g>
    <circle
       r="13.999958"
       cy="531.79797"
       cx="400.57144"
       id="circle4174"
       style="fill:url(#radialGradient4116);fill-opacity:1;stroke:none"
       transform="matrix(4.2857178,0,0,4.2857178,-1268.1797,-1795.4409)" />
    <path
       style="opacity:0.2;fill:none;fill-opacity:1;stroke:#000000;stroke-width:2;stroke-miterlimit:4;stroke-dasharray:none;stroke-opacity:1"
       clip-path="url(#clipPath4238)"
       d="m 476.46034,450.87098 c -2.53524,-0.47263 -4.01666,1.97188 -4.01666,1.97188 l -23.24442,39.86426 c 0,0 -4.13958,6.12926 2.23848,4.53941 l 16.95476,-4.24118 1.41252,5.55205 9.58161,38.4792 c 0.40093,1.60837 0.37461,1.61686 2.57982,1.06714 l 26.46746,-6.60034 c 2.32451,-0.57942 2.30665,-0.59696 1.79787,-2.638 l -9.40558,-37.74442 -1.47902,-5.8389 16.27497,-4.04939 c 5.23591,-1.30515 0.53865,-4.36769 0.53865,-4.36769 0,0 -34.07011,-23.38535 -38.56164,-25.60792 -0.40438,-0.20196 -0.77664,-0.31859 -1.13882,-0.3861 z m -45.6263,11.16145 c -0.36684,-0.0254 -0.916,0.103 -1.78768,0.32032 l -26.43997,6.60824 c -2.20523,0.54969 -2.18262,0.55824 -1.7817,2.16662 l 9.58951,38.45169 1.37714,5.57167 -16.98225,4.23331 c -6.37807,1.58988 0.1678,5.01657 0.1678,5.01657 l 39.25824,24.32014 c 0,0 3.17078,1.8977 5.26887,-1.04748 2.92281,-4.07076 22.02354,-40.69044 22.02354,-40.69044 0,0 2.70186,-4.91779 -2.53403,-3.61262 l -16.24748,4.05727 -1.45152,-5.83102 -9.40559,-37.74442 c -0.31798,-1.27565 -0.44348,-1.77767 -1.05488,-1.81985 z"
       id="path4268"
       inkscape:connector-curvature="0" />
    <path
       inkscape:connector-curvature="0"
       id="path7-8"
       d="m 476.46034,450.87098 c -2.53524,-0.47263 -4.01666,1.97188 -4.01666,1.97188 l -23.24442,39.86426 c 0,0 -4.13958,6.12926 2.23848,4.53941 l 16.95476,-4.24118 1.41252,5.55205 9.58161,38.4792 c 0.40093,1.60837 0.37461,1.61686 2.57982,1.06714 l 26.46746,-6.60034 c 2.32451,-0.57942 2.30665,-0.59696 1.79787,-2.638 l -9.40558,-37.74442 -1.47902,-5.8389 16.27497,-4.04939 c 5.23591,-1.30515 0.53865,-4.36769 0.53865,-4.36769 0,0 -34.07011,-23.38535 -38.56164,-25.60792 -0.40438,-0.20196 -0.77664,-0.31859 -1.13882,-0.3861 z m -45.6263,11.16145 c -0.36684,-0.0254 -0.916,0.103 -1.78768,0.32032 l -26.43997,6.60824 c -2.20523,0.54969 -2.18262,0.55824 -1.7817,2.16662 l 9.58951,38.45169 1.37714,5.57167 -16.98225,4.23331 c -6.37807,1.58988 0.1678,5.01657 0.1678,5.01657 l 39.25824,24.32014 c 0,0 3.17078,1.8977 5.26887,-1.04748 2.92281,-4.07076 22.02354,-40.69044 22.02354,-40.69044 0,0 2.70186,-4.91779 -2.53403,-3.61262 l -16.24748,4.05727 -1.45152,-5.83102 -9.40559,-37.74442 c -0.31798,-1.27565 -0.44348,-1.77767 -1.05488,-1.81985 z"
       clip-path="url(#clipPath4238)"
       style="opacity:1;fill:url(#linearGradient4226);fill-opacity:1;stroke:none" />
    <path
       inkscape:connector-curvature="0"
       transform="translate(384.55629,419.695)"
       id="circle3872"
       d="M 24.15625,19.15625 C 11.79556,30.146544 4,46.15885 4,64 c 0,33.137013 26.862987,60 60,60 17.84115,0 33.853456,-7.79556 44.84375,-20.15625 C 98.246483,113.26613 84.295863,119 69,119 35.862987,119 9,92.137013 9,59 9,43.704137 14.733874,29.753517 24.15625,19.15625 Z"
       style="opacity:0.02000002;fill:#000000;fill-opacity:1;stroke:none" />
    <path
       inkscape:connector-curvature="0"
       transform="translate(384.55629,419.695)"
       id="circle3863"
       d="M 23.59375,19.65625 C 11.555921,30.629577 4,46.427794 4,64 c 0,33.137013 26.862987,60 60,60 17.572206,0 33.370423,-7.55592 44.34375,-19.59375 C 97.688544,114.09065 83.532975,120 68,120 34.862987,120 8,93.137013 8,60 8,44.467025 13.909355,30.311456 23.59375,19.65625 Z"
       style="opacity:0.03999999;fill:#000000;fill-opacity:1;stroke:none" />
    <path
       inkscape:connector-curvature="0"
       transform="translate(384.55629,419.695)"
       id="circle3854"
       d="M 23.09375,20.09375 C 11.340793,31.046968 4,46.667027 4,64 c 0,33.137013 26.862987,60 60,60 17.332973,0 32.953032,-7.34079 43.90625,-19.09375 C 97.190016,114.89329 82.80404,121 67,121 33.862987,121 7,94.137013 7,61 7,45.19596 13.106711,30.809984 23.09375,20.09375 Z"
       style="opacity:0.07999998;fill:#000000;fill-opacity:1;stroke:none" />
    <path
       inkscape:connector-curvature="0"
       transform="translate(384.55629,419.695)"
       id="circle3845"
       d="M 22.59375,20.59375 C 11.141581,31.520424 4,46.921686 4,64 c 0,33.137013 26.862987,60 60,60 17.078314,0 32.479576,-7.14158 43.40625,-18.59375 C 96.637803,115.68058 82.058699,122 66,122 32.862987,122 6,95.137013 6,62 6,45.941301 12.319424,31.362197 22.59375,20.59375 Z"
       style="opacity:0.12000002;fill:#000000;fill-opacity:1;stroke:none" />
    <path
       inkscape:connector-curvature="0"
       transform="translate(384.55629,419.695)"
       id="circle3836"
       d="M 22.0625,21.0625 C 10.909104,31.957323 4,47.176835 4,64 c 0,33.137013 26.862987,60 60,60 16.823165,0 32.042677,-6.9091 42.9375,-18.0625 C 96.121771,116.50248 81.313847,123 65,123 31.862987,123 5,96.137013 5,63 5,46.686153 11.497516,31.878229 22.0625,21.0625 Z"
       style="opacity:0.13999999;fill:#000000;fill-opacity:1;stroke:none" />
  </g>
  <path
     inkscape:connector-curvature="0"
     id="path1101"
     d="m 19,2 v 118 h 90 V 38 l -0.004,-0.01172 a 8.0000018,8.0000018 0 0 0 -2.33984,-5.644531 l -28,-28 C 77.09415,2.781653 75.04737,2 73,2 Z"
     style="opacity:0.12;fill:none;fill-opacity:1;fill-rule:evenodd;stroke:#ffffff;stroke-width:2px;stroke-linecap:round;stroke-linejoin:round;stroke-opacity:1"
     clip-path="url(#clipPath1105)" />
  <path
     style="opacity:0.35;fill:#000000;fill-opacity:1;fill-rule:evenodd;stroke:#000000;stroke-width:2px;stroke-linecap:butt;stroke-linejoin:round;stroke-opacity:1;filter:url(#filter1209)"
     d="m 78.65745,13.344821 28,28 c 0,0 2.34246,2.156856 2.34246,5.656856 0,0 1.25009,-11.25 -25.24991,-10.5 1.5,-26 -10.75009,-25.499692 -10.75009,-25.499692 3.5,-3.08e-4 5.65754,2.342836 5.65754,2.342836 z"
     id="path1187"
     inkscape:connector-curvature="0"
     sodipodi:nodetypes="cccccc"
     clip-path="url(#clipPath1217)" />
  <path
     style="opacity:0.4;fill:#000000;fill-opacity:1;fill-rule:evenodd;stroke:#000000;stroke-width:4;stroke-linecap:butt;stroke-linejoin:miter;stroke-miterlimit:4;stroke-dasharray:none;stroke-opacity:1;filter:url(#filter1164)"
     d="M 82.657154,4.3432652 108.65715,34.343265 c 0,0 2.34246,2.156856 2.34246,5.656856 0,0 1.25009,-11.25 -25.249906,-10.5 1.5,-25.9999998 -8.75009,-27.4996918 -8.75009,-27.4996918 3.5,-3.08e-4 5.65754,2.342836 5.65754,2.342836 z"
     id="path1133"
     inkscape:connector-curvature="0"
     sodipodi:nodetypes="cccccc"
     clip-path="url(#clipPath1172)" />
  <path
     sodipodi:nodetypes="cccccc"
     inkscape:connector-curvature="0"
     id="path236"
     d="m 78.65745,4.343144 28,28 c 0,0 2.34246,2.156856 2.34246,5.656856 0,0 1.25009,-11.25 -25.24991,-10.5 C 85.25,1.5 72.99991,2.000308 72.99991,2.000308 76.49991,2 78.65745,4.343144 78.65745,4.343144 Z"
     style="opacity:1;fill:url(#linearGradient1058);fill-opacity:1;fill-rule:evenodd;stroke:none;stroke-width:2px;stroke-linecap:butt;stroke-linejoin:miter;stroke-opacity:1" />
  <path
     style="opacity:0.25;fill:#ffffff;fill-opacity:1;fill-rule:evenodd;stroke:none;stroke-width:2px;stroke-linecap:butt;stroke-linejoin:miter;stroke-opacity:1"
     d="M 73 2 C 73 2 85.25 1.5 83.75 27.5 C 103.61354 26.937824 107.88532 33.117422 108.7793 36.248047 C 108.20951 33.804706 106.6582 32.34375 106.6582 32.34375 L 103.30273 28.988281 C 99.569128 27.380204 93.768808 26.244751 84.75 26.5 C 85.252403 17.791686 84.209207 12.066194 82.603516 8.2890625 L 78.658203 4.34375 C 78.658203 4.34375 76.5 1.999692 73 2 z M 108.79492 36.316406 C 108.84279 36.491724 108.87542 36.649453 108.9043 36.802734 C 108.87756 36.631318 108.83136 36.479251 108.79492 36.316406 z M 108.9043 36.802734 C 108.96346 37.182023 109 37.580773 109 38 C 109 38 109.04103 37.528491 108.9043 36.802734 z "
     id="path1120" />
  <g
     aria-label="TORRENT"
     transform="scale(0.9999926,1.0000074)"
     style="font-style:normal;font-variant:normal;font-weight:normal;font-stretch:normal;font-size:20.99631119px;line-height:0%;font-family:'Lucida Sans Unicode';-inkscape-font-specification:'Lucida Sans Unicode';letter-spacing:0px;word-spacing:0px;fill:#525252;fill-opacity:1;stroke:none;stroke-width:1.74969232"
     id="text3801-7">
    <path
       d="M 28.485473,113.00805 V 101.7051 h -4.485296 v -1.34131 h 10.76471 v 1.34131 h -4.485296 v 11.30295 z"
       style="font-style:normal;font-variant:normal;font-weight:normal;font-stretch:normal;font-size:17.49692535px;line-height:1.25;font-family:'Lucida Sans Unicode';-inkscape-font-specification:'Lucida Sans Unicode';fill:#525252;fill-opacity:1;stroke-width:1.74969232"
       id="path106" />
    <path
       d="m 41.719232,113.32416 q -2.691178,0 -4.305884,-1.80267 -1.606164,-1.8112 -1.606164,-4.83557 0,-3.02437 1.606164,-4.82703 1.614706,-1.81121 4.305884,-1.81121 2.691177,0 4.29734,1.81121 1.614707,1.80266 1.614707,4.82703 0,3.02437 -1.614707,4.83557 -1.606163,1.80267 -4.29734,1.80267 z m 0,-1.34132 q 1.888095,0 2.94748,-1.40112 1.059384,-1.40967 1.059384,-3.91289 0,-2.48613 -1.059384,-3.87871 -1.059385,-1.40112 -2.94748,-1.40112 -1.888096,0 -2.947481,1.40112 -1.059384,1.39258 -1.059384,3.87871 0,2.50322 1.059384,3.91289 1.059385,1.40112 2.947481,1.40112 z"
       style="font-style:normal;font-variant:normal;font-weight:normal;font-stretch:normal;font-size:17.49692535px;line-height:1.25;font-family:'Lucida Sans Unicode';-inkscape-font-specification:'Lucida Sans Unicode';fill:#525252;fill-opacity:1;stroke-width:1.74969232"
       id="path108" />
    <path
       d="m 50.151588,113.00805 v -12.64426 h 3.827452 q 1.819749,0 2.785155,0.80308 0.97395,0.80308 0.97395,2.33235 0,1.20462 -0.67493,2.1444 -0.666387,0.93978 -1.879552,1.44384 l 4.220449,5.92059 H 57.19991 l -3.59678,-5.34818 h -1.674511 v 5.34818 z m 1.777031,-6.6895 h 0.580953 q 1.657423,0 2.520309,-0.67493 0.862885,-0.67493 0.862885,-1.97353 0,-1.96499 -2.836415,-1.96499 h -1.127732 z"
       style="font-style:normal;font-variant:normal;font-weight:normal;font-stretch:normal;font-size:17.49692535px;line-height:1.25;font-family:'Lucida Sans Unicode';-inkscape-font-specification:'Lucida Sans Unicode';fill:#525252;fill-opacity:1;stroke-width:1.74969232"
       id="path110" />
    <path
       d="m 61.223863,113.00805 v -12.64426 h 3.827452 q 1.819749,0 2.785155,0.80308 0.97395,0.80308 0.97395,2.33235 0,1.20462 -0.67493,2.1444 -0.666387,0.93978 -1.879552,1.44384 l 4.220449,5.92059 h -2.204202 l -3.59678,-5.34818 h -1.674511 v 5.34818 z m 1.777031,-6.6895 h 0.580953 q 1.657424,0 2.520309,-0.67493 0.862886,-0.67493 0.862886,-1.97353 0,-1.96499 -2.836416,-1.96499 h -1.127732 z"
       style="font-style:normal;font-variant:normal;font-weight:normal;font-stretch:normal;font-size:17.49692535px;line-height:1.25;font-family:'Lucida Sans Unicode';-inkscape-font-specification:'Lucida Sans Unicode';fill:#525252;fill-opacity:1;stroke-width:1.74969232"
       id="path112" />
    <path
       d="m 72.296136,113.00805 v -12.64426 h 7.065409 v 1.34131 h -5.27129 v 4.05813 h 4.416948 v 1.32423 h -4.416948 v 4.57927 h 5.638657 v 1.34132 z"
       style="font-style:normal;font-variant:normal;font-weight:normal;font-stretch:normal;font-size:17.49692535px;line-height:1.25;font-family:'Lucida Sans Unicode';-inkscape-font-specification:'Lucida Sans Unicode';fill:#525252;fill-opacity:1;stroke-width:1.74969232"
       id="path114" />
    <path
       d="m 81.796418,113.00805 v -12.64426 h 1.759945 l 6.364848,9.76513 v -9.76513 h 1.537816 v 12.64426 h -1.751401 l -6.373392,-9.76513 v 9.76513 z"
       style="font-style:normal;font-variant:normal;font-weight:normal;font-stretch:normal;font-size:17.49692535px;line-height:1.25;font-family:'Lucida Sans Unicode';-inkscape-font-specification:'Lucida Sans Unicode';fill:#525252;fill-opacity:1;stroke-width:1.74969232"
       id="path116" />
    <path
       d="M 97.721351,113.00805 V 101.7051 h -4.485296 v -1.34131 h 10.764705 v 1.34131 h -4.485291 v 11.30295 z"
       style="font-style:normal;font-variant:normal;font-weight:normal;font-stretch:normal;font-size:17.49692535px;line-height:1.25;font-family:'Lucida Sans Unicode';-inkscape-font-specification:'Lucida Sans Unicode';fill:#525252;fill-opacity:1;stroke-width:1.74969232"
       id="path118" />
  </g>
</svg>
