<?xml version="1.0" encoding="UTF-8" standalone="no"?>
<!-- Created with Inkscape (http://www.inkscape.org/) -->

<svg
   xmlns:dc="http://purl.org/dc/elements/1.1/"
   xmlns:cc="http://creativecommons.org/ns#"
   xmlns:rdf="http://www.w3.org/1999/02/22-rdf-syntax-ns#"
   xmlns:svg="http://www.w3.org/2000/svg"
   xmlns="http://www.w3.org/2000/svg"
   xmlns:xlink="http://www.w3.org/1999/xlink"
   xmlns:sodipodi="http://sodipodi.sourceforge.net/DTD/sodipodi-0.dtd"
   xmlns:inkscape="http://www.inkscape.org/namespaces/inkscape"
   version="1.1"
   width="128"
   height="128"
   id="svg3901"
   inkscape:version="0.92.1 r15371"
   sodipodi:docname="audio-x-voc.svg">
  <sodipodi:namedview
     pagecolor="#ffffff"
     bordercolor="#666666"
     borderopacity="1"
     objecttolerance="10"
     gridtolerance="10"
     guidetolerance="10"
     inkscape:pageopacity="0"
     inkscape:pageshadow="2"
     inkscape:window-width="1366"
     inkscape:window-height="724"
     id="namedview37"
     showgrid="false"
     inkscape:zoom="2.8284273"
     inkscape:cx="67.072049"
     inkscape:cy="62.161917"
     inkscape:window-x="0"
     inkscape:window-y="22"
     inkscape:window-maximized="1"
     inkscape:current-layer="svg3901"
     showguides="true"
     inkscape:guide-bbox="true"
     inkscape:object-nodes="true"
     inkscape:snap-smooth-nodes="true"
     inkscape:snap-object-midpoints="false"
     inkscape:snap-center="false"
     inkscape:snap-bbox="true"
     inkscape:bbox-paths="true"
     inkscape:bbox-nodes="true"
     inkscape:snap-bbox-edge-midpoints="true"
     inkscape:snap-bbox-midpoints="true"
     inkscape:snap-page="true"
     inkscape:object-paths="true"
     inkscape:snap-midpoints="true"
     inkscape:snap-intersection-paths="true">
    <inkscape:grid
       type="xygrid"
       id="grid3254"
       spacingx="0.25"
       spacingy="0.25"
       empspacing="4" />
    <sodipodi:guide
       position="32,15"
       orientation="0,1"
       id="guide195"
       inkscape:locked="false" />
    <sodipodi:guide
       position="104,14"
       orientation="1,0"
       id="guide1068"
       inkscape:locked="false" />
    <sodipodi:guide
       position="24,15"
       orientation="1,0"
       id="guide1131"
       inkscape:locked="false" />
  </sodipodi:namedview>
  <defs
     id="defs3903">
    <linearGradient
       inkscape:collect="always"
       id="linearGradient1192">
      <stop
         style="stop-color:#ffffff;stop-opacity:1"
         offset="0"
         id="stop1188" />
      <stop
         id="stop1196"
         offset="0.55000001"
         style="stop-color:#ffffff;stop-opacity:1" />
      <stop
         style="stop-color:#cfcfcf;stop-opacity:1"
         offset="1"
         id="stop1190" />
    </linearGradient>
    <linearGradient
       inkscape:collect="always"
       id="linearGradient1176">
      <stop
         style="stop-color:#e5e5e5;stop-opacity:1"
         offset="0"
         id="stop1172" />
      <stop
         id="stop1180"
         offset="0.25"
         style="stop-color:#ececec;stop-opacity:1" />
      <stop
         style="stop-color:#fafafa;stop-opacity:1"
         offset="0.625"
         id="stop1184" />
      <stop
         style="stop-color:#ffffff;stop-opacity:1"
         offset="1"
         id="stop1174" />
    </linearGradient>
    <linearGradient
       inkscape:collect="always"
       xlink:href="#linearGradient1176"
       id="linearGradient1050"
       x1="184"
       y1="2.0000246"
       x2="184"
       y2="120"
       gradientUnits="userSpaceOnUse"
       gradientTransform="translate(-120)" />
    <linearGradient
       inkscape:collect="always"
       xlink:href="#linearGradient1192"
       id="linearGradient1058"
       x1="203.75"
       y1="27.5"
       x2="212.65933"
       y2="18.345024"
       gradientUnits="userSpaceOnUse"
       gradientTransform="translate(-120)" />
    <clipPath
       clipPathUnits="userSpaceOnUse"
       id="clipPath1105">
      <path
         inkscape:connector-curvature="0"
         id="path1107"
         d="m 19,2 v 118 h 90 V 38 l -0.004,-0.01172 a 8.0000018,8.0000018 0 0 0 -2.33984,-5.644531 l -28,-28 C 77.09415,2.781653 75.04737,2 73,2 Z"
         style="opacity:1;fill:#000000;fill-opacity:1;fill-rule:evenodd;stroke:none;stroke-width:2px;stroke-linecap:butt;stroke-linejoin:miter;stroke-opacity:1" />
    </clipPath>
    <filter
       inkscape:collect="always"
       style="color-interpolation-filters:sRGB"
       id="filter1164"
       x="-0.14398219"
       width="1.2879644"
       y="-0.14401782"
       height="1.2880356">
      <feGaussianBlur
         inkscape:collect="always"
         stdDeviation="2.16029"
         id="feGaussianBlur1166" />
    </filter>
    <clipPath
       clipPathUnits="userSpaceOnUse"
       id="clipPath1172">
      <path
         inkscape:connector-curvature="0"
         id="path1174"
         d="m 19,2 v 118 h 90 V 38 l -0.004,-0.01172 a 8.0000018,8.0000018 0 0 0 -2.33984,-5.644531 l -28,-28 C 77.09415,2.781653 75.04737,2 73,2 Z"
         style="opacity:1;fill:url(#linearGradient1177);fill-opacity:1;fill-rule:evenodd;stroke:none;stroke-width:2px;stroke-linecap:butt;stroke-linejoin:miter;stroke-opacity:1" />
    </clipPath>
    <linearGradient
       inkscape:collect="always"
       xlink:href="#linearGradient1176"
       id="linearGradient1177"
       gradientUnits="userSpaceOnUse"
       gradientTransform="translate(-120)"
       x1="184"
       y1="2.0000246"
       x2="184"
       y2="120" />
    <filter
       inkscape:collect="always"
       style="color-interpolation-filters:sRGB"
       id="filter1209"
       x="-0.45594357"
       width="1.9118871"
       y="-0.45605644"
       height="1.9121129">
      <feGaussianBlur
         inkscape:collect="always"
         stdDeviation="6.8409187"
         id="feGaussianBlur1211" />
    </filter>
    <clipPath
       clipPathUnits="userSpaceOnUse"
       id="clipPath1217">
      <path
         inkscape:connector-curvature="0"
         id="path1219"
         d="m 19,2 v 118 h 90 V 38 l -0.004,-0.01172 a 8.0000018,8.0000018 0 0 0 -2.33984,-5.644531 l -28,-28 C 77.09415,2.781653 75.04737,2 73,2 Z"
         style="opacity:1;fill:url(#linearGradient1221);fill-opacity:1;fill-rule:evenodd;stroke:none;stroke-width:2px;stroke-linecap:butt;stroke-linejoin:miter;stroke-opacity:1" />
    </clipPath>
    <linearGradient
       inkscape:collect="always"
       xlink:href="#linearGradient1176"
       id="linearGradient1221"
       gradientUnits="userSpaceOnUse"
       gradientTransform="translate(-120)"
       x1="184"
       y1="2.0000246"
       x2="184"
       y2="120" />
    <linearGradient
       id="linearGradient1265">
      <stop
         style="stop-color:#00bcf3;stop-opacity:1"
         offset="0"
         id="stop1259" />
      <stop
         id="stop1267"
         offset="0.44999999"
         style="stop-color:#329ad8;stop-opacity:1" />
      <stop
         style="stop-color:#1151a7;stop-opacity:1"
         offset="0.75"
         id="stop1261" />
      <stop
         style="stop-color:#092c6f;stop-opacity:1"
         offset="1"
         id="stop1263" />
    </linearGradient>
    <linearGradient
       id="linearGradient4261">
      <stop
         style="stop-color:#ffffff;stop-opacity:0.14901961;"
         offset="0"
         id="stop4267" />
      <stop
         style="stop-color:#ffffff;stop-opacity:0;"
         offset="1"
         id="stop4269" />
    </linearGradient>
    <linearGradient
       id="linearGradient4230">
      <stop
         id="stop4232"
         offset="0"
         style="stop-color:#ffffff;stop-opacity:0.2;" />
      <stop
         id="stop4234"
         offset="1"
         style="stop-color:#848484;stop-opacity:1;" />
    </linearGradient>
    <linearGradient
       id="linearGradient4218">
      <stop
         id="stop4220"
         offset="0"
         style="stop-color:#000000;stop-opacity:0;" />
      <stop
         style="stop-color:#000000;stop-opacity:1;"
         offset="0.96296304"
         id="stop4222" />
      <stop
         id="stop4224"
         offset="1"
         style="stop-color:#000000;stop-opacity:0;" />
    </linearGradient>
    <linearGradient
       id="linearGradient4194">
      <stop
         id="stop4196"
         offset="0"
         style="stop-color:#373b44;stop-opacity:1;" />
      <stop
         id="stop4198"
         offset="1"
         style="stop-color:#919aa1;stop-opacity:1;" />
    </linearGradient>
    <linearGradient
       id="linearGradient3070">
      <stop
         style="stop-color:#c9c9c9;stop-opacity:1;"
         offset="0"
         id="stop3072" />
      <stop
         style="stop-color:#ffffff;stop-opacity:1;"
         offset="1"
         id="stop3074" />
    </linearGradient>
    <linearGradient
       inkscape:collect="always"
       id="linearGradient1663">
      <stop
         style="stop-color:#f1f1f1;stop-opacity:1"
         offset="0"
         id="stop1659" />
      <stop
         id="stop1679"
         offset="0.5"
         style="stop-color:#dcdcdc;stop-opacity:1" />
      <stop
         style="stop-color:#9d9d9d;stop-opacity:1"
         offset="1"
         id="stop1661" />
    </linearGradient>
    <linearGradient
       inkscape:collect="always"
       id="linearGradient1336">
      <stop
         style="stop-color:#b7e0f4;stop-opacity:0"
         offset="0"
         id="stop1332" />
      <stop
         id="stop1340"
         offset="0.5"
         style="stop-color:#b7e0f4;stop-opacity:1" />
      <stop
         style="stop-color:#b7e0f4;stop-opacity:0"
         offset="1"
         id="stop1334" />
    </linearGradient>
    <linearGradient
       inkscape:collect="always"
       id="linearGradient1303">
      <stop
         style="stop-color:#ffffff;stop-opacity:0.5"
         offset="0"
         id="stop1299" />
      <stop
         id="stop1305"
         offset="0.61538517"
         style="stop-color:#ffffff;stop-opacity:0.1254902" />
      <stop
         style="stop-color:#ffffff;stop-opacity:0;"
         offset="1"
         id="stop1301" />
    </linearGradient>
    <linearGradient
       inkscape:collect="always"
       id="linearGradient1275">
      <stop
         id="stop1273"
         offset="0"
         style="stop-color:#000000;stop-opacity:0;" />
      <stop
         style="stop-color:#000000;stop-opacity:0"
         offset="0.96296322"
         id="stop1281" />
      <stop
         id="stop1271"
         offset="1"
         style="stop-color:#000000;stop-opacity:1;" />
    </linearGradient>
    <linearGradient
       id="linearGradient3070-5">
      <stop
         style="stop-color:#ffffff;stop-opacity:1;"
         offset="0"
         id="stop3074-9" />
      <stop
         style="stop-color:#b2b5b6;stop-opacity:1"
         offset="1"
         id="stop3072-2" />
    </linearGradient>
    <linearGradient
       inkscape:collect="always"
       xlink:href="#linearGradient4194"
       id="linearGradient4200"
       x1="64.000008"
       y1="935.11798"
       x2="64"
       y2="1040.6185"
       gradientUnits="userSpaceOnUse"
       gradientTransform="matrix(0.50943395,0,0,0.50943395,-0.10377361,516.36156)" />
    <radialGradient
       inkscape:collect="always"
       xlink:href="#linearGradient4218"
       id="radialGradient4204"
       cx="64"
       cy="987.86853"
       fx="64"
       fy="987.86853"
       r="53"
       gradientUnits="userSpaceOnUse"
       gradientTransform="matrix(0.50943395,0,0,0.50943395,-0.10377361,516.36156)" />
    <linearGradient
       inkscape:collect="always"
       xlink:href="#linearGradient4230"
       id="linearGradient4236"
       x1="63.999996"
       y1="1041.869"
       x2="63.999996"
       y2="933.86798"
       gradientUnits="userSpaceOnUse"
       gradientTransform="matrix(1.0138889,0,0,1.0138889,713.11106,-992.589)" />
    <linearGradient
       y2="53.925961"
       x2="42.906704"
       y1="11.467441"
       x1="42.906704"
       gradientUnits="userSpaceOnUse"
       id="linearGradient4010"
       xlink:href="#linearGradient1303"
       inkscape:collect="always"
       gradientTransform="matrix(1.3606671,0,0,1.2247266,719.61821,-55.04454)" />
    <radialGradient
       inkscape:collect="always"
       xlink:href="#linearGradient1265"
       id="radialGradient1249"
       cx="32"
       cy="1019.3622"
       fx="32"
       fy="1019.3622"
       r="26"
       gradientUnits="userSpaceOnUse"
       gradientTransform="matrix(2,0,0,2.3846156,713.99995,-2421.787)" />
    <radialGradient
       inkscape:collect="always"
       xlink:href="#linearGradient1275"
       id="radialGradient1277"
       cx="32"
       cy="1020.3621"
       fx="32"
       fy="1020.3621"
       r="26"
       gradientUnits="userSpaceOnUse"
       gradientTransform="matrix(2,0,0,2.076919,713.99995,-2108.2097)" />
    <linearGradient
       inkscape:collect="always"
       xlink:href="#linearGradient4261"
       id="linearGradient1296"
       x1="32"
       y1="1043.3619"
       x2="31.999998"
       y2="1016.8622"
       gradientUnits="userSpaceOnUse"
       gradientTransform="matrix(2,0,0,2,713.99995,-2025.7244)" />
    <linearGradient
       inkscape:collect="always"
       xlink:href="#linearGradient1336"
       id="linearGradient1338"
       x1="11"
       y1="14.24707"
       x2="53"
       y2="14.24707"
       gradientUnits="userSpaceOnUse"
       gradientTransform="matrix(2,0,0,2,713.99995,-53)" />
    <linearGradient
       inkscape:collect="always"
       xlink:href="#linearGradient1336"
       id="linearGradient1348"
       x1="11"
       y1="14.492188"
       x2="53"
       y2="14.492188"
       gradientUnits="userSpaceOnUse"
       gradientTransform="matrix(2,0,0,2,713.99995,-53)" />
    <linearGradient
       inkscape:collect="always"
       xlink:href="#linearGradient1663"
       id="linearGradient1665"
       x1="30.999798"
       y1="14"
       x2="30.999798"
       y2="47.00074"
       gradientUnits="userSpaceOnUse"
       gradientTransform="matrix(2,0,0,2,713.99995,-53)" />
    <linearGradient
       gradientUnits="userSpaceOnUse"
       y2="1044.3622"
       x2="64"
       y1="928.36243"
       x1="64"
       id="linearGradient4846"
       xlink:href="#linearGradient3070-5"
       inkscape:collect="always"
       gradientTransform="translate(713.99995,-977.36218)" />
    <clipPath
       id="clipPath4854"
       clipPathUnits="userSpaceOnUse">
      <rect
         ry="58.000004"
         rx="58.000004"
         y="928.36218"
         x="6"
         height="116"
         width="116"
         id="rect4856"
         style="fill:#000000;fill-opacity:1;stroke:none;stroke-width:1.02024722" />
    </clipPath>
    <linearGradient
       inkscape:collect="always"
       xlink:href="#linearGradient1336"
       id="linearGradient1370"
       gradientUnits="userSpaceOnUse"
       gradientTransform="matrix(2,0,0,2,713.99995,-53)"
       x1="11"
       y1="14.492188"
       x2="53"
       y2="14.492188" />
    <linearGradient
       inkscape:collect="always"
       xlink:href="#linearGradient1336"
       id="linearGradient1372"
       gradientUnits="userSpaceOnUse"
       gradientTransform="matrix(2,0,0,2,713.99995,-53)"
       x1="11"
       y1="14.24707"
       x2="53"
       y2="14.24707" />
  </defs>
  <metadata
     id="metadata3906">
    <rdf:RDF>
      <cc:Work
         rdf:about="">
        <dc:format>image/svg+xml</dc:format>
        <dc:type
           rdf:resource="http://purl.org/dc/dcmitype/StillImage" />
        <dc:title />
      </cc:Work>
    </rdf:RDF>
  </metadata>
  <path
     inkscape:connector-curvature="0"
     id="path1068"
     d="m 19,4 v 118 h 90 V 40 l -0.004,-0.01172 a 8.0000018,8.0000018 0 0 0 -2.33984,-5.644531 l -28,-28 C 77.09415,4.781653 75.04737,4 73,4 Z"
     style="opacity:0.017;fill:none;fill-opacity:1;fill-rule:evenodd;stroke:#000000;stroke-width:6;stroke-linecap:round;stroke-linejoin:round;stroke-miterlimit:4;stroke-dasharray:none;stroke-opacity:1" />
  <path
     style="opacity:0.04;fill:none;fill-opacity:1;fill-rule:evenodd;stroke:#000000;stroke-width:4;stroke-linecap:round;stroke-linejoin:round;stroke-miterlimit:4;stroke-dasharray:none;stroke-opacity:1"
     d="m 19,3 v 118 h 90 V 39 l -0.004,-0.01172 a 8.0000018,8.0000018 0 0 0 -2.33984,-5.644531 l -28,-28 C 77.09415,3.781653 75.04737,3 73,3 Z"
     id="path1066"
     inkscape:connector-curvature="0" />
  <path
     inkscape:connector-curvature="0"
     id="path1114"
     d="m 19,1 v 118 h 90 V 37 l -0.004,-0.01172 a 8.0000018,8.0000018 0 0 0 -2.33984,-5.644531 l -28,-28 C 77.09415,1.781653 75.04737,1 73,1 Z"
     style="opacity:0.07;fill:#000000;fill-opacity:1;fill-rule:evenodd;stroke:none;stroke-width:2px;stroke-linecap:butt;stroke-linejoin:miter;stroke-opacity:1" />
  <path
     inkscape:connector-curvature="0"
     id="path1060"
     d="m 19,3 v 118 h 90 V 39 l -0.004,-0.01172 a 8.0000018,8.0000018 0 0 0 -2.33984,-5.644531 l -28,-28 C 77.09415,3.781653 75.04737,3 73,3 Z"
     style="opacity:0.11;fill:none;fill-opacity:1;fill-rule:evenodd;stroke:#000000;stroke-width:2px;stroke-linecap:round;stroke-linejoin:round;stroke-opacity:1" />
  <path
     style="opacity:0.06000001;fill:#000000;fill-opacity:1;fill-rule:evenodd;stroke:#000000;stroke-width:2px;stroke-linecap:round;stroke-linejoin:round;stroke-opacity:0.47843137"
     d="m 19,5 v 118 h 90 V 41 l -0.004,-0.01172 a 8.0000018,8.0000018 0 0 0 -2.33984,-5.644531 l -28,-28 C 77.09415,5.781653 75.04737,5 73,5 Z"
     id="path1097"
     inkscape:connector-curvature="0" />
  <path
     inkscape:connector-curvature="0"
     id="path1095"
     d="m 19,3 v 118 h 90 V 39 l -0.004,-0.01172 a 8.0000018,8.0000018 0 0 0 -2.33984,-5.644531 l -28,-28 C 77.09415,3.781653 75.04737,3 73,3 Z"
     style="opacity:0.16;fill:#000000;fill-opacity:1;fill-rule:evenodd;stroke:none;stroke-width:2px;stroke-linecap:round;stroke-linejoin:round;stroke-opacity:0.80392158" />
  <path
     style="opacity:1;fill:url(#linearGradient1050);fill-opacity:1;fill-rule:evenodd;stroke:none;stroke-width:2px;stroke-linecap:butt;stroke-linejoin:miter;stroke-opacity:1"
     d="m 19,2 v 118 h 90 V 38 l -0.004,-0.01172 a 8.0000018,8.0000018 0 0 0 -2.33984,-5.644531 l -28,-28 C 77.09415,2.781653 75.04737,2 73,2 Z"
     id="path230"
     inkscape:connector-curvature="0" />
  <g
     id="g1464"
     transform="matrix(0.5,0,0,0.5,-324.99997,52.499998)">
    <rect
       style="opacity:0.025;fill:none;fill-opacity:1;stroke:#000000;stroke-width:4;stroke-miterlimit:4;stroke-dasharray:none;stroke-opacity:1"
       id="rect1724"
       width="116"
       height="116"
       x="719.99994"
       y="-46.999996"
       rx="58.000004"
       ry="58.000004" />
    <rect
       ry="58.000004"
       rx="58.000004"
       y="-46.999996"
       x="719.99994"
       height="116"
       width="116"
       id="rect1202"
       style="opacity:0.05;fill:none;fill-opacity:1;stroke:#000000;stroke-width:2;stroke-miterlimit:4;stroke-dasharray:none;stroke-opacity:1" />
    <rect
       style="opacity:0.025;fill:none;fill-opacity:1;stroke:#000000;stroke-width:4;stroke-miterlimit:4;stroke-dasharray:none;stroke-opacity:1"
       id="rect1200"
       width="116"
       height="116"
       x="719.99994"
       y="-48.999996"
       rx="58.000004"
       ry="58.000004" />
    <rect
       ry="58.000004"
       rx="58.000004"
       y="-48.999996"
       x="719.99994"
       height="116"
       width="116"
       id="rect1722"
       style="opacity:0.05;fill:none;fill-opacity:1;stroke:#000000;stroke-width:2;stroke-miterlimit:4;stroke-dasharray:none;stroke-opacity:1" />
    <rect
       style="opacity:0.25;fill:#000000;fill-opacity:1;stroke:none;stroke-width:1.02024722"
       id="rect4862"
       width="116"
       height="116"
       x="719.99994"
       y="-46.999996"
       rx="58.000004"
       ry="58.000004" />
    <rect
       ry="58.000004"
       rx="58.000004"
       y="-47.999996"
       x="719.99994"
       height="116"
       width="116"
       id="rect4860"
       style="opacity:0.5;fill:#000000;fill-opacity:1;stroke:none;stroke-width:1.02024722" />
    <rect
       style="fill:url(#linearGradient4846);fill-opacity:1;stroke:none;stroke-width:1.02024722"
       id="rect3301"
       width="116"
       height="116"
       x="719.99994"
       y="-48.999996"
       rx="58.000004"
       ry="58.000004" />
    <rect
       style="opacity:1;fill:url(#linearGradient4236);fill-opacity:1;stroke:none;stroke-width:1.01388884"
       id="rect4226"
       width="109.5"
       height="109.5"
       x="723.24994"
       y="-45.749996"
       rx="54.75"
       ry="54.75" />
    <g
       id="g1207"
       transform="matrix(2,0,0,2,712.99995,-2030.2307)">
      <rect
         style="fill:url(#linearGradient4200);fill-opacity:1;stroke:none;stroke-width:0.50943398"
         id="rect4188"
         width="54"
         height="54"
         x="5.5000014"
         y="992.61536"
         rx="27"
         ry="27" />
      <rect
         ry="27"
         rx="27"
         y="992.61536"
         x="5.5000014"
         height="54"
         width="54"
         id="rect4202"
         style="fill:url(#radialGradient4204);fill-opacity:1;stroke:none;stroke-width:0.50943398" />
    </g>
    <rect
       style="fill:url(#radialGradient1249);fill-opacity:1;stroke:none;stroke-width:1.0196079"
       id="rect3307"
       width="104"
       height="104"
       x="725.99994"
       y="-42.999996"
       rx="52"
       ry="52" />
    <rect
       ry="52"
       rx="52"
       y="-42.999996"
       x="725.99994"
       height="104"
       width="104"
       id="rect1269"
       style="opacity:0.95;fill:url(#radialGradient1277);fill-opacity:1;stroke:none;stroke-width:1.0196079" />
    <path
       style="opacity:1;fill:url(#linearGradient1296);fill-opacity:1;stroke:none;stroke-width:1.0196079"
       d="m 726.02339,8.00004 c -0.006,0.3338 -0.0234,0.6646 -0.0234,1 0,28.80798 23.192,51.99998 52,51.99998 28.808,0 52,-23.192 52,-51.99998 0,-0.3354 -0.0172,-0.6662 -0.0234,-1 -0.53147,28.34078 -23.50402,50.99998 -51.97656,50.99998 -28.47255,0 -51.4451,-22.6592 -51.97656,-50.99998 z"
       id="rect1285"
       inkscape:connector-curvature="0" />
    <path
       style="fill:url(#linearGradient4010);fill-opacity:1;stroke:none;stroke-width:1.29090869"
       d="m 819.99995,-8.99996 c 10e-6,17.6732 -18.80403,20 -42,20 -23.19597,0 -42.00001,-2.3268 -42,-20 -7e-5,-17.6732 18.80399,-32.00008 42,-32.00008 23.19601,0 42.00007,14.32688 42,32.00008 z"
       id="path3311"
       inkscape:connector-curvature="0"
       sodipodi:nodetypes="cscsc" />
    <path
       id="path1199"
       d="m 803.99995,-25 c -23,0 -40,8 -40,8 v 6 6 6 22.64062 a 8.8872376,11.091303 77.641832 0 0 -7.39062,-0.207 8.8872376,11.091303 77.641832 0 0 -8.34766,11.3281 8.8872376,11.091303 77.641832 0 0 13.1289,5.8047 8.8872376,11.091303 77.641832 0 0 8.60547,-9.5664 h 0.004 V -1.32031 c 5.93295,-2.036 15.85391,-4.75569 28,-5.48047 v 22.4414 a 8.8872386,11.091303 77.641845 0 0 -7.39062,-0.20703 8.8872386,11.091303 77.641845 0 0 -8.34766,11.32813 8.8872386,11.091303 77.641845 0 0 13.1289,5.8047 8.8872386,11.091303 77.641845 0 0 8.60547,-9.5664 h 0.004 V -7 v -6 -6 z m -6,6.19922 v 6 c -12.14609,0.72478 -22.06705,3.44447 -28,5.48047 v -6 c 5.93295,-2.036 15.85391,-4.75569 28,-5.48047 z"
       style="opacity:0.025;fill:none;fill-opacity:1;stroke:#000000;stroke-width:12;stroke-linecap:round;stroke-linejoin:round;stroke-miterlimit:4;stroke-dasharray:none;stroke-opacity:1"
       inkscape:connector-curvature="0" />
    <path
       inkscape:connector-curvature="0"
       style="opacity:0.025;fill:none;fill-opacity:1;stroke:#000000;stroke-width:10;stroke-linecap:round;stroke-linejoin:round;stroke-miterlimit:4;stroke-dasharray:none;stroke-opacity:1"
       d="m 803.99995,-25 c -23,0 -40,8 -40,8 v 6 6 6 22.64062 a 8.8872376,11.091303 77.641832 0 0 -7.39062,-0.207 8.8872376,11.091303 77.641832 0 0 -8.34766,11.3281 8.8872376,11.091303 77.641832 0 0 13.1289,5.8047 8.8872376,11.091303 77.641832 0 0 8.60547,-9.5664 h 0.004 V -1.32031 c 5.93295,-2.036 15.85391,-4.75569 28,-5.48047 v 22.4414 a 8.8872386,11.091303 77.641845 0 0 -7.39062,-0.20703 8.8872386,11.091303 77.641845 0 0 -8.34766,11.32813 8.8872386,11.091303 77.641845 0 0 13.1289,5.8047 8.8872386,11.091303 77.641845 0 0 8.60547,-9.5664 h 0.004 V -7 v -6 -6 z m -6,6.19922 v 6 c -12.14609,0.72478 -22.06705,3.44447 -28,5.48047 v -6 c 5.93295,-2.036 15.85391,-4.75569 28,-5.48047 z"
       id="path1210" />
    <path
       style="opacity:0.075;fill:url(#linearGradient1370);fill-opacity:1;stroke:none;stroke-width:1.29090869"
       d="m 777.99995,-41 c -23.19601,0 -42.00007,14.3268 -42,32 0,0.68118 0.0387,1.33241 0.0937,1.96875 C 737.46905,-23.75787 755.6996,-37 777.99995,-37 c 22.30035,0 40.5309,13.24213 41.90625,29.96875 0.055,-0.63634 0.0937,-1.28757 0.0937,-1.96875 7e-5,-17.6732 -18.80399,-32 -42,-32 z"
       id="path1318"
       inkscape:connector-curvature="0" />
    <path
       style="opacity:0.15;fill:url(#linearGradient1348);fill-opacity:1;stroke:none;stroke-width:1.29090869"
       d="m 777.99995,-41 c -23.19601,0 -42.00007,14.3268 -42,32 0,0.44532 0.0337,0.86318 0.0606,1.28711 C 737.22912,-24.58941 755.5584,-38 777.99995,-38 800.4415,-38 818.77078,-24.58941 819.9394,-7.71289 819.9662,-8.13682 820,-8.55468 820,-9 c 7e-5,-17.6732 -18.80399,-32 -42,-32 z"
       id="path1221"
       inkscape:connector-curvature="0" />
    <path
       style="opacity:0.5;fill:url(#linearGradient1372);fill-opacity:1;stroke:none;stroke-width:1.29090869"
       d="m 777.99995,-41 c -23.19601,0 -42.00007,14.3268 -42,32 0,0.33834 0.0215,0.66109 0.0352,0.98828 C 736.73734,-25.21607 755.24885,-39 777.99995,-39 c 22.7511,0 41.26261,13.78393 41.96484,30.98828 0.0137,-0.32719 0.0352,-0.64994 0.0352,-0.98828 7e-5,-17.6732 -18.80399,-32 -42,-32 z"
       id="path1327"
       inkscape:connector-curvature="0" />
    <path
       style="fill:url(#linearGradient1338);fill-opacity:1;stroke:none;stroke-width:1.29090869"
       d="m 777.99995,-41 c -23.19601,0 -42.00007,14.3268 -42,32 0,0.16516 0.0108,0.32236 0.0176,0.48242 C 736.38191,-25.95101 755.03181,-40 777.99995,-40 c 22.96814,0 41.61804,14.04899 41.98242,31.48242 0.007,-0.16006 0.0176,-0.31726 0.0176,-0.48242 7e-5,-17.6732 -18.80399,-32 -42,-32 z"
       id="path1212"
       inkscape:connector-curvature="0" />
    <path
       style="opacity:0.05;fill:none;fill-opacity:1;stroke:#000000;stroke-width:8;stroke-linecap:round;stroke-linejoin:round;stroke-miterlimit:4;stroke-dasharray:none;stroke-opacity:1"
       d="m 803.99995,-25 c -23,0 -40,8 -40,8 v 6 6 6 22.64062 a 8.8872376,11.091303 77.641832 0 0 -7.39062,-0.207 8.8872376,11.091303 77.641832 0 0 -8.34766,11.3281 8.8872376,11.091303 77.641832 0 0 13.1289,5.8047 8.8872376,11.091303 77.641832 0 0 8.60547,-9.5664 h 0.004 V -1.32031 c 5.93295,-2.036 15.85391,-4.75569 28,-5.48047 v 22.4414 a 8.8872386,11.091303 77.641845 0 0 -7.39062,-0.20703 8.8872386,11.091303 77.641845 0 0 -8.34766,11.32813 8.8872386,11.091303 77.641845 0 0 13.1289,5.8047 8.8872386,11.091303 77.641845 0 0 8.60547,-9.5664 h 0.004 V -7 v -6 -6 z m -6,6.19922 v 6 c -12.14609,0.72478 -22.06705,3.44447 -28,5.48047 v -6 c 5.93295,-2.036 15.85391,-4.75569 28,-5.48047 z"
       id="path1197"
       inkscape:connector-curvature="0" />
    <path
       inkscape:connector-curvature="0"
       id="path1208"
       d="m 803.99995,-25 c -23,0 -40,8 -40,8 v 6 6 6 22.64062 a 8.8872376,11.091303 77.641832 0 0 -7.39062,-0.207 8.8872376,11.091303 77.641832 0 0 -8.34766,11.3281 8.8872376,11.091303 77.641832 0 0 13.1289,5.8047 8.8872376,11.091303 77.641832 0 0 8.60547,-9.5664 h 0.004 V -1.32031 c 5.93295,-2.036 15.85391,-4.75569 28,-5.48047 v 22.4414 a 8.8872386,11.091303 77.641845 0 0 -7.39062,-0.20703 8.8872386,11.091303 77.641845 0 0 -8.34766,11.32813 8.8872386,11.091303 77.641845 0 0 13.1289,5.8047 8.8872386,11.091303 77.641845 0 0 8.60547,-9.5664 h 0.004 V -7 v -6 -6 z m -6,6.19922 v 6 c -12.14609,0.72478 -22.06705,3.44447 -28,5.48047 v -6 c 5.93295,-2.036 15.85391,-4.75569 28,-5.48047 z"
       style="opacity:0.05;fill:none;fill-opacity:1;stroke:#000000;stroke-width:6;stroke-linecap:round;stroke-linejoin:round;stroke-miterlimit:4;stroke-dasharray:none;stroke-opacity:1" />
    <path
       inkscape:connector-curvature="0"
       style="opacity:0.25;fill:none;fill-opacity:1;stroke:#000000;stroke-width:4;stroke-linecap:round;stroke-linejoin:round;stroke-miterlimit:4;stroke-dasharray:none;stroke-opacity:1"
       d="m 803.99995,-25 c -23,0 -40,8 -40,8 v 6 6 6 22.64062 a 8.8872376,11.091303 77.641832 0 0 -7.39062,-0.207 8.8872376,11.091303 77.641832 0 0 -8.34766,11.3281 8.8872376,11.091303 77.641832 0 0 13.1289,5.8047 8.8872376,11.091303 77.641832 0 0 8.60547,-9.5664 h 0.004 V -1.32031 c 5.93295,-2.036 15.85391,-4.75569 28,-5.48047 v 22.4414 a 8.8872386,11.091303 77.641845 0 0 -7.39062,-0.20703 8.8872386,11.091303 77.641845 0 0 -8.34766,11.32813 8.8872386,11.091303 77.641845 0 0 13.1289,5.8047 8.8872386,11.091303 77.641845 0 0 8.60547,-9.5664 h 0.004 V -7 v -6 -6 z m -6,6.19922 v 6 c -12.14609,0.72478 -22.06705,3.44447 -28,5.48047 v -6 c 5.93295,-2.036 15.85391,-4.75569 28,-5.48047 z"
       id="path1206" />
    <path
       id="path390"
       d="m 803.99995,-25 c -23,0 -40,8 -40,8 v 6 6 6 22.64062 a 8.8872376,11.091303 77.641832 0 0 -7.39062,-0.207 8.8872376,11.091303 77.641832 0 0 -8.34766,11.3281 8.8872376,11.091303 77.641832 0 0 13.1289,5.8047 8.8872376,11.091303 77.641832 0 0 8.60547,-9.5664 h 0.004 V -1.32031 c 5.93295,-2.036 15.85391,-4.75569 28,-5.48047 v 22.4414 a 8.8872386,11.091303 77.641845 0 0 -7.39062,-0.20703 8.8872386,11.091303 77.641845 0 0 -8.34766,11.32813 8.8872386,11.091303 77.641845 0 0 13.1289,5.8047 8.8872386,11.091303 77.641845 0 0 8.60547,-9.5664 h 0.004 V -7 v -6 -6 z m -6,6.19922 v 6 c -12.14609,0.72478 -22.06705,3.44447 -28,5.48047 v -6 c 5.93295,-2.036 15.85391,-4.75569 28,-5.48047 z"
       style="opacity:0.5;fill:none;fill-opacity:1;stroke:#000000;stroke-width:2;stroke-linecap:round;stroke-linejoin:round;stroke-miterlimit:4;stroke-dasharray:none;stroke-opacity:1"
       inkscape:connector-curvature="0" />
    <path
       style="opacity:1;fill:url(#linearGradient1665);fill-opacity:1;stroke:none;stroke-width:0.41857147;stroke-linecap:butt;stroke-linejoin:miter;stroke-miterlimit:4;stroke-dasharray:none;stroke-opacity:1"
       d="m 803.99995,-25 c -23,0 -40,8 -40,8 v 6 6 6 22.64062 a 8.8872376,11.091303 77.641832 0 0 -7.39062,-0.207 8.8872376,11.091303 77.641832 0 0 -8.34766,11.3281 8.8872376,11.091303 77.641832 0 0 13.1289,5.8047 8.8872376,11.091303 77.641832 0 0 8.60547,-9.5664 h 0.004 V -1.32031 c 5.93295,-2.036 15.85391,-4.75569 28,-5.48047 v 22.4414 a 8.8872386,11.091303 77.641845 0 0 -7.39062,-0.20703 8.8872386,11.091303 77.641845 0 0 -8.34766,11.32813 8.8872386,11.091303 77.641845 0 0 13.1289,5.8047 8.8872386,11.091303 77.641845 0 0 8.60547,-9.5664 h 0.004 V -7 v -6 -6 z m -6,6.19922 v 6 c -12.14609,0.72478 -22.06705,3.44447 -28,5.48047 v -6 c 5.93295,-2.036 15.85391,-4.75569 28,-5.48047 z"
       id="ellipse1621"
       inkscape:connector-curvature="0" />
    <path
       style="opacity:0.25;fill:#000000;fill-opacity:1;stroke:none;stroke-width:0.41857147;stroke-linecap:butt;stroke-linejoin:miter;stroke-miterlimit:4;stroke-dasharray:none;stroke-opacity:1"
       d="m 803.99995,-25 c -0.33916,0 -0.66349,0.0162 -1,0.0196 V -19 v 6 6 30.00002 h -0.004 c 0.0964,4.2519 -3.50137,8.2514 -8.60547,9.5664 -0.94344,0.2407 -1.91009,0.3813 -2.875,0.418 1.29043,0.048 2.60248,-0.093 3.875,-0.418 5.1042,-1.315 8.70199,-5.3145 8.60556,-9.5664 h 0.004 V -7 v -6 -6 z m -7,6.19922 c -12.14609,0.7248 -22.06705,3.44447 -28,5.48047 v 6 c 0.28684,-0.0984 0.69472,-0.21118 1,-0.3125 v -5.6875 c 5.7661,-1.97874 15.31847,-4.58706 27,-5.39844 z m 0,12 c -12.14609,0.7248 -22.06705,3.44447 -28,5.48047 v 32.32033 h -0.004 c 0.0964,4.2519 -3.50137,8.2514 -8.60547,9.5664 -0.94344,0.2407 -1.91009,0.3813 -2.875,0.418 1.29043,0.048 2.60248,-0.093 3.875,-0.418 5.1042,-1.315 8.70199,-5.3145 8.60556,-9.5664 h 0.004 V -1.32031 c 5.7661,-1.97874 15.31847,-4.58706 27,-5.39844 z"
       id="path1693"
       inkscape:connector-curvature="0"
       sodipodi:nodetypes="ccccccccccccccccccccccccccccccccccc" />
    <path
       style="opacity:0.25;fill:#000000;fill-opacity:1;stroke:none;stroke-width:0.41857147;stroke-linecap:butt;stroke-linejoin:miter;stroke-miterlimit:4;stroke-dasharray:none;stroke-opacity:1"
       d="m 803.99995,-25 c -23,0 -40,8 -40,8 v 6 6 6 22.34762 a 8.8872376,11.091303 77.641832 0 1 1,0.293 V 1 v -6 -6 -6 c 0,0 16.51586,-7.75144 39,-7.98047 z m -5,6.19922 c -0.34157,0.0204 -0.66198,0.0585 -1,0.082 v 5.91797 c -11.55847,0.68971 -20.99081,3.17349 -27,5.16797 v 0.3125 c 5.93295,-2.036 15.85391,-4.75567 28,-5.48047 z m 0,12 c -0.34157,0.0204 -0.66198,0.0585 -1,0.082 v 22.0664 a 8.8872386,11.091303 77.641845 0 1 1,0.29297 z m -5.21094,21.80468 a 8.8872386,11.091303 77.641845 0 0 -3.17968,0.42969 8.8872386,11.091303 77.641845 0 0 -8.34766,11.32813 8.8872386,11.091303 77.641845 0 0 10.2539,6.2227 8.8872386,11.091303 77.641845 0 1 -9.2539,-6.2227 8.8872386,11.091303 77.641845 0 1 8.34766,-11.32813 8.8872386,11.091303 77.641845 0 1 2.91015,-0.41406 8.8872386,11.091303 77.641845 0 0 -0.73047,-0.0156 z m -34,8.00002 a 8.8872376,11.091303 77.641832 0 0 -3.17968,0.4297 8.8872376,11.091303 77.641832 0 0 -8.34766,11.3281 8.8872376,11.091303 77.641832 0 0 10.2539,6.2227 8.8872376,11.091303 77.641832 0 1 -9.2539,-6.2227 8.8872376,11.091303 77.641832 0 1 8.34766,-11.3281 8.8872376,11.091303 77.641832 0 1 2.91015,-0.4141 8.8872376,11.091303 77.641832 0 0 -0.73047,-0.016 z"
       id="path1699"
       inkscape:connector-curvature="0" />
    <path
       style="opacity:1;fill:#ffffff;fill-opacity:1;stroke:none;stroke-width:0.41857147;stroke-linecap:butt;stroke-linejoin:miter;stroke-miterlimit:4;stroke-dasharray:none;stroke-opacity:1"
       d="m 803.99995,-25 c -23,0 -40,8 -40,8 v 1 c 0,0 17,-8 40,-8 z m -6,12.19922 c -12.14609,0.72478 -22.06705,3.44447 -28,5.48047 v 1 c 5.93295,-2.036 15.85391,-4.75567 28,-5.48047 z m -4.21094,27.80468 a 8.8872386,11.091303 77.641845 0 0 -3.17968,0.42969 8.8872386,11.091303 77.641845 0 0 -8.58985,9.89843 8.8872386,11.091303 77.641845 0 1 8.58985,-8.89843 8.8872386,11.091303 77.641845 0 1 7.39062,0.20703 v -1 a 8.8872386,11.091303 77.641845 0 0 -4.21094,-0.63672 z m -34,8.00002 a 8.8872376,11.091303 77.641832 0 0 -3.17968,0.4297 8.8872376,11.091303 77.641832 0 0 -8.58985,9.8984 8.8872376,11.091303 77.641832 0 1 8.58985,-8.8984 8.8872376,11.091303 77.641832 0 1 7.39062,0.207 v -1 a 8.8872376,11.091303 77.641832 0 0 -4.21094,-0.6367 z"
       id="path1688"
       inkscape:connector-curvature="0" />
    <path
       style="opacity:0.5;fill:#000000;fill-opacity:1;stroke:none;stroke-width:0.41857147;stroke-linecap:butt;stroke-linejoin:miter;stroke-miterlimit:4;stroke-dasharray:none;stroke-opacity:1"
       d="m 797.99995,-19.80078 c -12.14609,0.7248 -22.06705,3.44447 -28,5.48047 v 1 c 5.93295,-2.036 15.85391,-4.75569 28,-5.48047 z m 0,12 c -12.14609,0.7248 -22.06705,3.44447 -28,5.48047 v 1 c 5.93295,-2.036 15.85391,-4.75569 28,-5.48047 z M 803.99604,22 a 8.8872386,11.091303 77.641845 0 1 -8.60547,9.56642 8.8872386,11.091303 77.641845 0 1 -13.1289,-5.8047 8.8872386,11.091303 77.641845 0 1 -0.24219,-1.4297 8.8872386,11.091303 77.641845 0 0 0.24219,2.4297 8.8872386,11.091303 77.641845 0 0 13.1289,5.8047 8.8872386,11.091303 77.641845 0 0 8.60547,-9.5664 h 0.004 V 22 Z m -34,8.00002 a 8.8872376,11.091303 77.641832 0 1 -8.60547,9.5664 8.8872376,11.091303 77.641832 0 1 -13.1289,-5.8047 8.8872376,11.091303 77.641832 0 1 -0.24219,-1.4297 8.8872376,11.091303 77.641832 0 0 0.24219,2.4297 8.8872376,11.091303 77.641832 0 0 13.1289,5.8047 8.8872376,11.091303 77.641832 0 0 8.60547,-9.5664 h 0.004 v -1 z"
       id="path1681"
       inkscape:connector-curvature="0" />
    <path
       style="opacity:0.35;fill:#000000;fill-opacity:1;fill-rule:evenodd;stroke:none;stroke-width:2px;stroke-linecap:butt;stroke-linejoin:miter;stroke-opacity:1"
       d="m 797.99995,-19.80078 v 1.08203 l 1,-0.082 z m -28,5.48047 -1,1 1,-0.33594 z m 28,6.51953 v 1.08203 l 1,-0.082 z m -28,5.48047 -1,1 1,-0.33594 z"
       id="path1704"
       inkscape:connector-curvature="0" />
    <path
       style="opacity:0.35;fill:#ffffff;fill-opacity:1;fill-rule:evenodd;stroke:none;stroke-width:2px;stroke-linecap:butt;stroke-linejoin:miter;stroke-opacity:1"
       d="m 798.99995,-12.80078 -1,0.0625 v 0.9375 z m -29,5.16797 -1,0.3125 1,1 z m 28,22.98046 v 1.29297 l 1,-1 z m -34,7.99997 v 1.293 l 1,-1 z"
       id="path1713"
       inkscape:connector-curvature="0" />
    <rect
       transform="translate(713.99995,-977.36218)"
       style="opacity:0.5;fill:none;fill-opacity:1;stroke:#ffffff;stroke-width:2;stroke-linecap:round;stroke-linejoin:round;stroke-miterlimit:4;stroke-dasharray:none;stroke-opacity:1"
       id="rect4858"
       width="116"
       height="116"
       x="6"
       y="928.36218"
       rx="58.000004"
       ry="58.000004"
       clip-path="url(#clipPath4854)" />
    <rect
       transform="translate(713.99995,-977.36218)"
       clip-path="url(#clipPath4854)"
       ry="58.000004"
       rx="58.000004"
       y="928.36218"
       x="6"
       height="116"
       width="116"
       id="rect4850"
       style="opacity:0.25;fill:none;fill-opacity:1;stroke:#000000;stroke-width:1;stroke-linecap:round;stroke-linejoin:round;stroke-miterlimit:4;stroke-dasharray:none;stroke-opacity:1" />
  </g>
  <path
     inkscape:connector-curvature="0"
     id="path1101"
     d="m 19,2 v 118 h 90 V 38 l -0.004,-0.01172 a 8.0000018,8.0000018 0 0 0 -2.33984,-5.644531 l -28,-28 C 77.09415,2.781653 75.04737,2 73,2 Z"
     style="opacity:0.12;fill:none;fill-opacity:1;fill-rule:evenodd;stroke:#ffffff;stroke-width:2px;stroke-linecap:round;stroke-linejoin:round;stroke-opacity:1"
     clip-path="url(#clipPath1105)" />
  <path
     style="opacity:0.35;fill:#000000;fill-opacity:1;fill-rule:evenodd;stroke:#000000;stroke-width:2px;stroke-linecap:butt;stroke-linejoin:round;stroke-opacity:1;filter:url(#filter1209)"
     d="m 78.65745,13.344821 28,28 c 0,0 2.34246,2.156856 2.34246,5.656856 0,0 1.25009,-11.25 -25.24991,-10.5 1.5,-26 -10.75009,-25.499692 -10.75009,-25.499692 3.5,-3.08e-4 5.65754,2.342836 5.65754,2.342836 z"
     id="path1187"
     inkscape:connector-curvature="0"
     sodipodi:nodetypes="cccccc"
     clip-path="url(#clipPath1217)" />
  <path
     style="opacity:0.4;fill:#000000;fill-opacity:1;fill-rule:evenodd;stroke:#000000;stroke-width:4;stroke-linecap:butt;stroke-linejoin:miter;stroke-miterlimit:4;stroke-dasharray:none;stroke-opacity:1;filter:url(#filter1164)"
     d="M 82.657154,4.3432652 108.65715,34.343265 c 0,0 2.34246,2.156856 2.34246,5.656856 0,0 1.25009,-11.25 -25.249906,-10.5 1.5,-25.9999998 -8.75009,-27.4996918 -8.75009,-27.4996918 3.5,-3.08e-4 5.65754,2.342836 5.65754,2.342836 z"
     id="path1133"
     inkscape:connector-curvature="0"
     sodipodi:nodetypes="cccccc"
     clip-path="url(#clipPath1172)" />
  <path
     sodipodi:nodetypes="cccccc"
     inkscape:connector-curvature="0"
     id="path236"
     d="m 78.65745,4.343144 28,28 c 0,0 2.34246,2.156856 2.34246,5.656856 0,0 1.25009,-11.25 -25.24991,-10.5 C 85.25,1.5 72.99991,2.000308 72.99991,2.000308 76.49991,2 78.65745,4.343144 78.65745,4.343144 Z"
     style="opacity:1;fill:url(#linearGradient1058);fill-opacity:1;fill-rule:evenodd;stroke:none;stroke-width:2px;stroke-linecap:butt;stroke-linejoin:miter;stroke-opacity:1" />
  <path
     style="opacity:0.25;fill:#ffffff;fill-opacity:1;fill-rule:evenodd;stroke:none;stroke-width:2px;stroke-linecap:butt;stroke-linejoin:miter;stroke-opacity:1"
     d="M 73 2 C 73 2 85.25 1.5 83.75 27.5 C 103.61354 26.937824 107.88532 33.117422 108.7793 36.248047 C 108.20951 33.804706 106.6582 32.34375 106.6582 32.34375 L 103.30273 28.988281 C 99.569128 27.380204 93.768808 26.244751 84.75 26.5 C 85.252403 17.791686 84.209207 12.066194 82.603516 8.2890625 L 78.658203 4.34375 C 78.658203 4.34375 76.5 1.999692 73 2 z M 108.79492 36.316406 C 108.84279 36.491724 108.87542 36.649453 108.9043 36.802734 C 108.87756 36.631318 108.83136 36.479251 108.79492 36.316406 z M 108.9043 36.802734 C 108.96346 37.182023 109 37.580773 109 38 C 109 38 109.04103 37.528491 108.9043 36.802734 z "
     id="path1120" />
  <g
     aria-label="VOC"
     transform="scale(0.9999926,1.0000074)"
     style="font-style:normal;font-variant:normal;font-weight:normal;font-stretch:normal;font-size:21.58687401px;line-height:0%;font-family:'Lucida Sans Unicode';-inkscape-font-specification:'Lucida Sans Unicode';letter-spacing:0px;word-spacing:0px;fill:#525252;fill-opacity:1;stroke:none;stroke-width:1.79890597"
     id="text3801-7">
    <path
       d="m 50.46915,112.99916 -4.9101,-12.999907 h 1.844581 l 4.022945,10.645867 3.882405,-10.645867 h 1.616204 l -4.716858,12.999907 z"
       style="font-style:normal;font-variant:normal;font-weight:normal;font-stretch:normal;font-size:17.98906136px;line-height:1.25;font-family:'Lucida Sans Unicode';-inkscape-font-specification:'Lucida Sans Unicode';fill:#525252;fill-opacity:1;stroke-width:1.79890597"
       id="path138" />
    <path
       d="m 64.004865,113.32416 q -2.766873,0 -4.426996,-1.85337 -1.65134,-1.86215 -1.65134,-4.97158 0,-3.10944 1.65134,-4.96281 1.660123,-1.862145 4.426996,-1.862145 2.766872,0 4.418211,1.862145 1.660124,1.85337 1.660124,4.96281 0,3.10943 -1.660124,4.97158 -1.651339,1.85337 -4.418211,1.85337 z m 0,-1.37905 q 1.941202,0 3.030384,-1.44053 1.089181,-1.44931 1.089181,-4.02294 0,-2.55606 -1.089181,-3.98781 -1.089182,-1.44053 -3.030384,-1.44053 -1.941203,0 -3.030384,1.44053 -1.089182,1.43175 -1.089182,3.98781 0,2.57363 1.089182,4.02294 1.089181,1.44053 3.030384,1.44053 z"
       style="font-style:normal;font-variant:normal;font-weight:normal;font-stretch:normal;font-size:17.98906136px;line-height:1.25;font-family:'Lucida Sans Unicode';-inkscape-font-specification:'Lucida Sans Unicode';fill:#525252;fill-opacity:1;stroke-width:1.79890597"
       id="path140" />
    <path
       d="m 82.441897,112.3316 q -1.923635,0.99256 -4.198619,0.99256 -3.030384,0 -4.681723,-1.77431 -1.65134,-1.77431 -1.65134,-5.04186 0,-3.25876 1.677691,-5.04186 1.686474,-1.791875 4.751993,-1.791875 1.739177,0 4.08443,0.570945 v 1.73039 q -2.670251,-0.92229 -4.119565,-0.92229 -2.116877,0 -3.276328,1.43175 -1.159451,1.43174 -1.159451,4.04051 0,2.49457 1.238505,3.92632 1.238504,1.43175 3.390516,1.43175 1.835798,0 3.943891,-1.1331 z"
       style="font-style:normal;font-variant:normal;font-weight:normal;font-stretch:normal;font-size:17.98906136px;line-height:1.25;font-family:'Lucida Sans Unicode';-inkscape-font-specification:'Lucida Sans Unicode';fill:#525252;fill-opacity:1;stroke-width:1.79890597"
       id="path142" />
  </g>
  <g
     transform="matrix(0.6767735,0,0,0.6767735,713.51482,-636.97256)"
     id="g6110" />
</svg>
