<?xml version="1.0" encoding="UTF-8" standalone="no"?>
<!-- Created with Inkscape (http://www.inkscape.org/) -->

<svg
   xmlns:dc="http://purl.org/dc/elements/1.1/"
   xmlns:cc="http://creativecommons.org/ns#"
   xmlns:rdf="http://www.w3.org/1999/02/22-rdf-syntax-ns#"
   xmlns:svg="http://www.w3.org/2000/svg"
   xmlns="http://www.w3.org/2000/svg"
   xmlns:xlink="http://www.w3.org/1999/xlink"
   xmlns:sodipodi="http://sodipodi.sourceforge.net/DTD/sodipodi-0.dtd"
   xmlns:inkscape="http://www.inkscape.org/namespaces/inkscape"
   version="1.1"
   width="128"
   height="128"
   id="svg3901"
   inkscape:version="0.92.1 r15371"
   sodipodi:docname="Mime Template (clear).svg">
  <sodipodi:namedview
     pagecolor="#ffffff"
     bordercolor="#666666"
     borderopacity="1"
     objecttolerance="10"
     gridtolerance="10"
     guidetolerance="10"
     inkscape:pageopacity="0"
     inkscape:pageshadow="2"
     inkscape:window-width="1366"
     inkscape:window-height="724"
     id="namedview37"
     showgrid="false"
     inkscape:zoom="4.0000002"
     inkscape:cx="64.187847"
     inkscape:cy="56.403675"
     inkscape:window-x="0"
     inkscape:window-y="22"
     inkscape:window-maximized="1"
     inkscape:current-layer="svg3901"
     showguides="true"
     inkscape:guide-bbox="true"
     inkscape:object-nodes="true"
     inkscape:snap-smooth-nodes="true"
     inkscape:snap-object-midpoints="false"
     inkscape:snap-center="false"
     inkscape:snap-bbox="true"
     inkscape:bbox-paths="true"
     inkscape:bbox-nodes="true"
     inkscape:snap-bbox-edge-midpoints="true"
     inkscape:snap-bbox-midpoints="true"
     inkscape:snap-page="true"
     inkscape:object-paths="true"
     inkscape:snap-midpoints="true"
     inkscape:snap-intersection-paths="true">
    <inkscape:grid
       type="xygrid"
       id="grid3254"
       spacingx="0.25"
       spacingy="0.25"
       empspacing="4" />
    <sodipodi:guide
       position="32,15"
       orientation="0,1"
       id="guide195"
       inkscape:locked="false" />
    <sodipodi:guide
       position="104,14"
       orientation="1,0"
       id="guide1068"
       inkscape:locked="false" />
    <sodipodi:guide
       position="24,15"
       orientation="1,0"
       id="guide1131"
       inkscape:locked="false" />
  </sodipodi:namedview>
  <defs
     id="defs3903">
    <linearGradient
       inkscape:collect="always"
       id="linearGradient1192">
      <stop
         style="stop-color:#ffffff;stop-opacity:1"
         offset="0"
         id="stop1188" />
      <stop
         id="stop1196"
         offset="0.55000001"
         style="stop-color:#ffffff;stop-opacity:1" />
      <stop
         style="stop-color:#cfcfcf;stop-opacity:1"
         offset="1"
         id="stop1190" />
    </linearGradient>
    <linearGradient
       inkscape:collect="always"
       id="linearGradient1176">
      <stop
         style="stop-color:#e5e5e5;stop-opacity:1"
         offset="0"
         id="stop1172" />
      <stop
         id="stop1180"
         offset="0.25"
         style="stop-color:#ececec;stop-opacity:1" />
      <stop
         style="stop-color:#fafafa;stop-opacity:1"
         offset="0.625"
         id="stop1184" />
      <stop
         style="stop-color:#ffffff;stop-opacity:1"
         offset="1"
         id="stop1174" />
    </linearGradient>
    <linearGradient
       inkscape:collect="always"
       xlink:href="#linearGradient1176"
       id="linearGradient1050"
       x1="184"
       y1="2.0000246"
       x2="184"
       y2="120"
       gradientUnits="userSpaceOnUse"
       gradientTransform="translate(-120)" />
    <linearGradient
       inkscape:collect="always"
       xlink:href="#linearGradient1192"
       id="linearGradient1058"
       x1="203.75"
       y1="27.5"
       x2="212.65933"
       y2="18.345024"
       gradientUnits="userSpaceOnUse"
       gradientTransform="translate(-120)" />
    <clipPath
       clipPathUnits="userSpaceOnUse"
       id="clipPath1105">
      <path
         inkscape:connector-curvature="0"
         id="path1107"
         d="m 19,2 v 118 h 90 V 38 l -0.004,-0.01172 a 8.0000018,8.0000018 0 0 0 -2.33984,-5.644531 l -28,-28 C 77.09415,2.781653 75.04737,2 73,2 Z"
         style="opacity:1;fill:#000000;fill-opacity:1;fill-rule:evenodd;stroke:none;stroke-width:2px;stroke-linecap:butt;stroke-linejoin:miter;stroke-opacity:1" />
    </clipPath>
    <filter
       inkscape:collect="always"
       style="color-interpolation-filters:sRGB"
       id="filter1164"
       x="-0.14398219"
       width="1.2879644"
       y="-0.14401782"
       height="1.2880356">
      <feGaussianBlur
         inkscape:collect="always"
         stdDeviation="2.16029"
         id="feGaussianBlur1166" />
    </filter>
    <clipPath
       clipPathUnits="userSpaceOnUse"
       id="clipPath1172">
      <path
         inkscape:connector-curvature="0"
         id="path1174"
         d="m 19,2 v 118 h 90 V 38 l -0.004,-0.01172 a 8.0000018,8.0000018 0 0 0 -2.33984,-5.644531 l -28,-28 C 77.09415,2.781653 75.04737,2 73,2 Z"
         style="opacity:1;fill:url(#linearGradient1177);fill-opacity:1;fill-rule:evenodd;stroke:none;stroke-width:2px;stroke-linecap:butt;stroke-linejoin:miter;stroke-opacity:1" />
    </clipPath>
    <linearGradient
       inkscape:collect="always"
       xlink:href="#linearGradient1176"
       id="linearGradient1177"
       gradientUnits="userSpaceOnUse"
       gradientTransform="translate(-120)"
       x1="184"
       y1="2.0000246"
       x2="184"
       y2="120" />
    <filter
       inkscape:collect="always"
       style="color-interpolation-filters:sRGB"
       id="filter1209"
       x="-0.45594357"
       width="1.9118871"
       y="-0.45605644"
       height="1.9121129">
      <feGaussianBlur
         inkscape:collect="always"
         stdDeviation="6.8409187"
         id="feGaussianBlur1211" />
    </filter>
    <clipPath
       clipPathUnits="userSpaceOnUse"
       id="clipPath1217">
      <path
         inkscape:connector-curvature="0"
         id="path1219"
         d="m 19,2 v 118 h 90 V 38 l -0.004,-0.01172 a 8.0000018,8.0000018 0 0 0 -2.33984,-5.644531 l -28,-28 C 77.09415,2.781653 75.04737,2 73,2 Z"
         style="opacity:1;fill:url(#linearGradient1221);fill-opacity:1;fill-rule:evenodd;stroke:none;stroke-width:2px;stroke-linecap:butt;stroke-linejoin:miter;stroke-opacity:1" />
    </clipPath>
    <linearGradient
       inkscape:collect="always"
       xlink:href="#linearGradient1176"
       id="linearGradient1221"
       gradientUnits="userSpaceOnUse"
       gradientTransform="translate(-120)"
       x1="184"
       y1="2.0000246"
       x2="184"
       y2="120" />
  </defs>
  <metadata
     id="metadata3906">
    <rdf:RDF>
      <cc:Work
         rdf:about="">
        <dc:format>image/svg+xml</dc:format>
        <dc:type
           rdf:resource="http://purl.org/dc/dcmitype/StillImage" />
        <dc:title />
      </cc:Work>
    </rdf:RDF>
  </metadata>
  <path
     inkscape:connector-curvature="0"
     id="path1068"
     d="m 19,4 v 118 h 90 V 40 l -0.004,-0.01172 a 8.0000018,8.0000018 0 0 0 -2.33984,-5.644531 l -28,-28 C 77.09415,4.781653 75.04737,4 73,4 Z"
     style="opacity:0.017;fill:none;fill-opacity:1;fill-rule:evenodd;stroke:#000000;stroke-width:6;stroke-linecap:round;stroke-linejoin:round;stroke-miterlimit:4;stroke-dasharray:none;stroke-opacity:1" />
  <path
     style="opacity:0.04;fill:none;fill-opacity:1;fill-rule:evenodd;stroke:#000000;stroke-width:4;stroke-linecap:round;stroke-linejoin:round;stroke-miterlimit:4;stroke-dasharray:none;stroke-opacity:1"
     d="m 19,3 v 118 h 90 V 39 l -0.004,-0.01172 a 8.0000018,8.0000018 0 0 0 -2.33984,-5.644531 l -28,-28 C 77.09415,3.781653 75.04737,3 73,3 Z"
     id="path1066"
     inkscape:connector-curvature="0" />
  <path
     inkscape:connector-curvature="0"
     id="path1114"
     d="m 19,1 v 118 h 90 V 37 l -0.004,-0.01172 a 8.0000018,8.0000018 0 0 0 -2.33984,-5.644531 l -28,-28 C 77.09415,1.781653 75.04737,1 73,1 Z"
     style="opacity:0.07;fill:#000000;fill-opacity:1;fill-rule:evenodd;stroke:none;stroke-width:2px;stroke-linecap:butt;stroke-linejoin:miter;stroke-opacity:1" />
  <path
     inkscape:connector-curvature="0"
     id="path1060"
     d="m 19,3 v 118 h 90 V 39 l -0.004,-0.01172 a 8.0000018,8.0000018 0 0 0 -2.33984,-5.644531 l -28,-28 C 77.09415,3.781653 75.04737,3 73,3 Z"
     style="opacity:0.11;fill:none;fill-opacity:1;fill-rule:evenodd;stroke:#000000;stroke-width:2px;stroke-linecap:round;stroke-linejoin:round;stroke-opacity:1" />
  <path
     style="opacity:0.06000001;fill:#000000;fill-opacity:1;fill-rule:evenodd;stroke:#000000;stroke-width:2px;stroke-linecap:round;stroke-linejoin:round;stroke-opacity:0.47843137"
     d="m 19,5 v 118 h 90 V 41 l -0.004,-0.01172 a 8.0000018,8.0000018 0 0 0 -2.33984,-5.644531 l -28,-28 C 77.09415,5.781653 75.04737,5 73,5 Z"
     id="path1097"
     inkscape:connector-curvature="0" />
  <path
     inkscape:connector-curvature="0"
     id="path1095"
     d="m 19,3 v 118 h 90 V 39 l -0.004,-0.01172 a 8.0000018,8.0000018 0 0 0 -2.33984,-5.644531 l -28,-28 C 77.09415,3.781653 75.04737,3 73,3 Z"
     style="opacity:0.16;fill:#000000;fill-opacity:1;fill-rule:evenodd;stroke:none;stroke-width:2px;stroke-linecap:round;stroke-linejoin:round;stroke-opacity:0.80392158" />
  <path
     style="opacity:1;fill:url(#linearGradient1050);fill-opacity:1;fill-rule:evenodd;stroke:none;stroke-width:2px;stroke-linecap:butt;stroke-linejoin:miter;stroke-opacity:1"
     d="m 19,2 v 118 h 90 V 38 l -0.004,-0.01172 a 8.0000018,8.0000018 0 0 0 -2.33984,-5.644531 l -28,-28 C 77.09415,2.781653 75.04737,2 73,2 Z"
     id="path230"
     inkscape:connector-curvature="0" />
  <path
     inkscape:connector-curvature="0"
     id="path1101"
     d="m 19,2 v 118 h 90 V 38 l -0.004,-0.01172 a 8.0000018,8.0000018 0 0 0 -2.33984,-5.644531 l -28,-28 C 77.09415,2.781653 75.04737,2 73,2 Z"
     style="opacity:0.12;fill:none;fill-opacity:1;fill-rule:evenodd;stroke:#ffffff;stroke-width:2px;stroke-linecap:round;stroke-linejoin:round;stroke-opacity:1"
     clip-path="url(#clipPath1105)" />
  <path
     style="opacity:0.35;fill:#000000;fill-opacity:1;fill-rule:evenodd;stroke:#000000;stroke-width:2px;stroke-linecap:butt;stroke-linejoin:round;stroke-opacity:1;filter:url(#filter1209)"
     d="m 78.65745,13.344821 28,28 c 0,0 2.34246,2.156856 2.34246,5.656856 0,0 1.25009,-11.25 -25.24991,-10.5 1.5,-26 -10.75009,-25.499692 -10.75009,-25.499692 3.5,-3.08e-4 5.65754,2.342836 5.65754,2.342836 z"
     id="path1187"
     inkscape:connector-curvature="0"
     sodipodi:nodetypes="cccccc"
     clip-path="url(#clipPath1217)" />
  <path
     style="opacity:0.4;fill:#000000;fill-opacity:1;fill-rule:evenodd;stroke:#000000;stroke-width:4;stroke-linecap:butt;stroke-linejoin:miter;stroke-miterlimit:4;stroke-dasharray:none;stroke-opacity:1;filter:url(#filter1164)"
     d="M 82.657154,4.3432652 108.65715,34.343265 c 0,0 2.34246,2.156856 2.34246,5.656856 0,0 1.25009,-11.25 -25.249906,-10.5 1.5,-25.9999998 -8.75009,-27.4996918 -8.75009,-27.4996918 3.5,-3.08e-4 5.65754,2.342836 5.65754,2.342836 z"
     id="path1133"
     inkscape:connector-curvature="0"
     sodipodi:nodetypes="cccccc"
     clip-path="url(#clipPath1172)" />
  <path
     sodipodi:nodetypes="cccccc"
     inkscape:connector-curvature="0"
     id="path236"
     d="m 78.65745,4.343144 28,28 c 0,0 2.34246,2.156856 2.34246,5.656856 0,0 1.25009,-11.25 -25.24991,-10.5 C 85.25,1.5 72.99991,2.000308 72.99991,2.000308 76.49991,2 78.65745,4.343144 78.65745,4.343144 Z"
     style="opacity:1;fill:url(#linearGradient1058);fill-opacity:1;fill-rule:evenodd;stroke:none;stroke-width:2px;stroke-linecap:butt;stroke-linejoin:miter;stroke-opacity:1" />
  <path
     style="opacity:0.25;fill:#ffffff;fill-opacity:1;fill-rule:evenodd;stroke:none;stroke-width:2px;stroke-linecap:butt;stroke-linejoin:miter;stroke-opacity:1"
     d="M 73 2 C 73 2 85.25 1.5 83.75 27.5 C 103.61354 26.937824 107.88532 33.117422 108.7793 36.248047 C 108.20951 33.804706 106.6582 32.34375 106.6582 32.34375 L 103.30273 28.988281 C 99.569128 27.380204 93.768808 26.244751 84.75 26.5 C 85.252403 17.791686 84.209207 12.066194 82.603516 8.2890625 L 78.658203 4.34375 C 78.658203 4.34375 76.5 1.999692 73 2 z M 108.79492 36.316406 C 108.84279 36.491724 108.87542 36.649453 108.9043 36.802734 C 108.87756 36.631318 108.83136 36.479251 108.79492 36.316406 z M 108.9043 36.802734 C 108.96346 37.182023 109 37.580773 109 38 C 109 38 109.04103 37.528491 108.9043 36.802734 z "
     id="path1120" />
  <g
     aria-label="CHANGELOG"
     transform="scale(0.9999926,1.0000074)"
     style="font-style:normal;font-variant:normal;font-weight:normal;font-stretch:normal;font-size:15.95985508px;line-height:0%;font-family:'Lucida Sans Unicode';-inkscape-font-specification:'Lucida Sans Unicode';letter-spacing:0px;word-spacing:0px;fill:#525252;fill-opacity:1;stroke:none;stroke-width:1.32998776"
     id="text3801-7">
    <path
       d="m 31.786583,112.59033 q -1.422204,0.73383 -3.104171,0.73383 -2.240458,0 -3.461345,-1.31181 -1.220888,-1.3118 -1.220888,-3.7276 0,-2.4093 1.24037,-3.7276 1.246863,-1.32479 3.513298,-1.32479 1.285828,0 3.019748,0.42211 v 1.27934 q -1.974201,-0.68188 -3.045724,-0.68188 -1.565074,0 -2.422293,1.05853 -0.857219,1.05854 -0.857219,2.98728 0,1.84432 0.915666,2.90285 0.915665,1.05854 2.506715,1.05854 1.357263,0 2.915843,-0.83774 z"
       style="font-style:normal;font-variant:normal;font-weight:normal;font-stretch:normal;font-size:13.29987907px;line-height:1.25;font-family:'Lucida Sans Unicode';-inkscape-font-specification:'Lucida Sans Unicode';fill:#525252;fill-opacity:1;stroke-width:1.32998776"
       id="path48" />
    <path
       d="m 33.760784,113.08388 v -9.61124 h 1.363757 v 4.0523 h 4.571833 v -4.0523 h 1.363758 v 9.61124 h -1.363758 v -4.53937 h -4.571833 v 4.53937 z"
       style="font-style:normal;font-variant:normal;font-weight:normal;font-stretch:normal;font-size:13.29987907px;line-height:1.25;font-family:'Lucida Sans Unicode';-inkscape-font-specification:'Lucida Sans Unicode';fill:#525252;fill-opacity:1;stroke-width:1.32998776"
       id="path50" />
    <path
       d="m 42.397913,113.08388 3.812026,-9.61124 h 1.350769 l 3.753579,9.61124 h -1.474156 l -1.045548,-2.66258 h -4.071789 l -1.058535,2.66258 z m 2.72102,-3.67565 h 3.279511 L 46.761936,105.265 Z"
       style="font-style:normal;font-variant:normal;font-weight:normal;font-stretch:normal;font-size:13.29987907px;line-height:1.25;font-family:'Lucida Sans Unicode';-inkscape-font-specification:'Lucida Sans Unicode';fill:#525252;fill-opacity:1;stroke-width:1.32998776"
       id="path52" />
    <path
       d="m 52.697527,113.08388 v -9.61124 h 1.337781 l 4.83809,7.42273 v -7.42273 h 1.168935 v 9.61124 h -1.331287 l -4.844585,-7.42274 v 7.42274 z"
       style="font-style:normal;font-variant:normal;font-weight:normal;font-stretch:normal;font-size:13.29987907px;line-height:1.25;font-family:'Lucida Sans Unicode';-inkscape-font-specification:'Lucida Sans Unicode';fill:#525252;fill-opacity:1;stroke-width:1.32998776"
       id="path54" />
    <path
       d="m 69.737995,112.82411 q -1.746908,0.50005 -3.045724,0.50005 -2.292411,0 -3.519792,-1.29882 -1.220888,-1.30531 -1.220888,-3.74708 0,-2.40281 1.24037,-3.72111 1.246864,-1.32479 3.50031,-1.32479 1.44818,0 3.032736,0.4351 v 1.25985 q -1.987189,-0.67538 -3.045724,-0.67538 -1.55858,0 -2.422293,1.05853 -0.857218,1.05204 -0.857218,2.97429 0,1.90277 0.922159,2.9613 0.92216,1.05854 2.584645,1.05854 0.681878,0 1.474156,-0.24028 v -3.13015 h 1.357263 z"
       style="font-style:normal;font-variant:normal;font-weight:normal;font-stretch:normal;font-size:13.29987907px;line-height:1.25;font-family:'Lucida Sans Unicode';-inkscape-font-specification:'Lucida Sans Unicode';fill:#525252;fill-opacity:1;stroke-width:1.32998776"
       id="path56" />
    <path
       d="m 72.127817,113.08388 v -9.61124 h 5.370605 v 1.01957 h -4.006848 v 3.08469 h 3.35744 v 1.00658 h -3.35744 v 3.48083 h 4.286094 v 1.01957 z"
       style="font-style:normal;font-variant:normal;font-weight:normal;font-stretch:normal;font-size:13.29987907px;line-height:1.25;font-family:'Lucida Sans Unicode';-inkscape-font-specification:'Lucida Sans Unicode';fill:#525252;fill-opacity:1;stroke-width:1.32998776"
       id="path58" />
    <path
       d="m 79.349237,113.08388 v -9.61124 h 1.363757 v 8.59167 h 4.325059 v 1.01957 z"
       style="font-style:normal;font-variant:normal;font-weight:normal;font-stretch:normal;font-size:13.29987907px;line-height:1.25;font-family:'Lucida Sans Unicode';-inkscape-font-specification:'Lucida Sans Unicode';fill:#525252;fill-opacity:1;stroke-width:1.32998776"
       id="path60" />
    <path
       d="m 90.369694,113.32416 q -2.045636,0 -3.273017,-1.37025 -1.220887,-1.37675 -1.220887,-3.67565 0,-2.29891 1.220887,-3.66916 1.227381,-1.37674 3.273017,-1.37674 2.045636,0 3.266523,1.37674 1.227382,1.37025 1.227382,3.66916 0,2.2989 -1.227382,3.67565 -1.220887,1.37025 -3.266523,1.37025 z m 0,-1.01957 q 1.435192,0 2.240458,-1.06503 0.805266,-1.07153 0.805266,-2.97429 0,-1.88978 -0.805266,-2.94831 -0.805266,-1.06503 -2.240458,-1.06503 -1.435192,0 -2.240458,1.06503 -0.805266,1.05853 -0.805266,2.94831 0,1.90276 0.805266,2.97429 0.805266,1.06503 2.240458,1.06503 z"
       style="font-style:normal;font-variant:normal;font-weight:normal;font-stretch:normal;font-size:13.29987907px;line-height:1.25;font-family:'Lucida Sans Unicode';-inkscape-font-specification:'Lucida Sans Unicode';fill:#525252;fill-opacity:1;stroke-width:1.32998776"
       id="path62" />
    <path
       d="m 104.00077,112.82411 q -1.74691,0.50005 -3.04572,0.50005 -2.292414,0 -3.519796,-1.29882 -1.220887,-1.30531 -1.220887,-3.74708 0,-2.40281 1.240369,-3.72111 1.246864,-1.32479 3.500314,-1.32479 1.44818,0 3.03273,0.4351 v 1.25985 q -1.98719,-0.67538 -3.04572,-0.67538 -1.558581,0 -2.422294,1.05853 -0.857219,1.05204 -0.857219,2.97429 0,1.90277 0.92216,2.9613 0.922159,1.05854 2.584643,1.05854 0.68188,0 1.47416,-0.24028 v -3.13015 h 1.35726 z"
       style="font-style:normal;font-variant:normal;font-weight:normal;font-stretch:normal;font-size:13.29987907px;line-height:1.25;font-family:'Lucida Sans Unicode';-inkscape-font-specification:'Lucida Sans Unicode';fill:#525252;fill-opacity:1;stroke-width:1.32998776"
       id="path64" />
  </g>
</svg>
