<?xml version="1.0" encoding="UTF-8" standalone="no"?>
<!-- Created with Inkscape (http://www.inkscape.org/) -->

<svg
   xmlns:dc="http://purl.org/dc/elements/1.1/"
   xmlns:cc="http://creativecommons.org/ns#"
   xmlns:rdf="http://www.w3.org/1999/02/22-rdf-syntax-ns#"
   xmlns:svg="http://www.w3.org/2000/svg"
   xmlns="http://www.w3.org/2000/svg"
   xmlns:xlink="http://www.w3.org/1999/xlink"
   xmlns:sodipodi="http://sodipodi.sourceforge.net/DTD/sodipodi-0.dtd"
   xmlns:inkscape="http://www.inkscape.org/namespaces/inkscape"
   version="1.1"
   width="128"
   height="128"
   id="svg3901"
   inkscape:version="0.92.1 r15371"
   sodipodi:docname="Mime Template (clear).svg">
  <sodipodi:namedview
     pagecolor="#ffffff"
     bordercolor="#666666"
     borderopacity="1"
     objecttolerance="10"
     gridtolerance="10"
     guidetolerance="10"
     inkscape:pageopacity="0"
     inkscape:pageshadow="2"
     inkscape:window-width="1366"
     inkscape:window-height="724"
     id="namedview37"
     showgrid="false"
     inkscape:zoom="2.0000001"
     inkscape:cx="-106.06499"
     inkscape:cy="63.073333"
     inkscape:window-x="0"
     inkscape:window-y="22"
     inkscape:window-maximized="1"
     inkscape:current-layer="svg3901"
     showguides="true"
     inkscape:guide-bbox="true"
     inkscape:object-nodes="true"
     inkscape:snap-smooth-nodes="true"
     inkscape:snap-object-midpoints="false"
     inkscape:snap-center="false"
     inkscape:snap-bbox="true"
     inkscape:bbox-paths="true"
     inkscape:bbox-nodes="true"
     inkscape:snap-bbox-edge-midpoints="true"
     inkscape:snap-bbox-midpoints="true"
     inkscape:snap-page="true"
     inkscape:object-paths="true"
     inkscape:snap-midpoints="true"
     inkscape:snap-intersection-paths="true">
    <inkscape:grid
       type="xygrid"
       id="grid3254"
       spacingx="0.25"
       spacingy="0.25"
       empspacing="4" />
    <sodipodi:guide
       position="32,15"
       orientation="0,1"
       id="guide195"
       inkscape:locked="false" />
    <sodipodi:guide
       position="104,14"
       orientation="1,0"
       id="guide1068"
       inkscape:locked="false" />
    <sodipodi:guide
       position="24,15"
       orientation="1,0"
       id="guide1131"
       inkscape:locked="false" />
  </sodipodi:namedview>
  <defs
     id="defs3903">
    <linearGradient
       inkscape:collect="always"
       id="linearGradient1192">
      <stop
         style="stop-color:#ffffff;stop-opacity:1"
         offset="0"
         id="stop1188" />
      <stop
         id="stop1196"
         offset="0.55000001"
         style="stop-color:#ffffff;stop-opacity:1" />
      <stop
         style="stop-color:#cfcfcf;stop-opacity:1"
         offset="1"
         id="stop1190" />
    </linearGradient>
    <linearGradient
       inkscape:collect="always"
       id="linearGradient1176">
      <stop
         style="stop-color:#e5e5e5;stop-opacity:1"
         offset="0"
         id="stop1172" />
      <stop
         id="stop1180"
         offset="0.25"
         style="stop-color:#ececec;stop-opacity:1" />
      <stop
         style="stop-color:#fafafa;stop-opacity:1"
         offset="0.625"
         id="stop1184" />
      <stop
         style="stop-color:#ffffff;stop-opacity:1"
         offset="1"
         id="stop1174" />
    </linearGradient>
    <linearGradient
       inkscape:collect="always"
       xlink:href="#linearGradient1176"
       id="linearGradient1050"
       x1="184"
       y1="2.0000246"
       x2="184"
       y2="120"
       gradientUnits="userSpaceOnUse"
       gradientTransform="translate(-120)" />
    <linearGradient
       inkscape:collect="always"
       xlink:href="#linearGradient1192"
       id="linearGradient1058"
       x1="203.75"
       y1="27.5"
       x2="212.65933"
       y2="18.345024"
       gradientUnits="userSpaceOnUse"
       gradientTransform="translate(-120)" />
    <clipPath
       clipPathUnits="userSpaceOnUse"
       id="clipPath1105">
      <path
         inkscape:connector-curvature="0"
         id="path1107"
         d="m 19,2 v 118 h 90 V 38 l -0.004,-0.01172 a 8.0000018,8.0000018 0 0 0 -2.33984,-5.644531 l -28,-28 C 77.09415,2.781653 75.04737,2 73,2 Z"
         style="opacity:1;fill:#000000;fill-opacity:1;fill-rule:evenodd;stroke:none;stroke-width:2px;stroke-linecap:butt;stroke-linejoin:miter;stroke-opacity:1" />
    </clipPath>
    <filter
       inkscape:collect="always"
       style="color-interpolation-filters:sRGB"
       id="filter1164"
       x="-0.14398219"
       width="1.2879644"
       y="-0.14401782"
       height="1.2880356">
      <feGaussianBlur
         inkscape:collect="always"
         stdDeviation="2.16029"
         id="feGaussianBlur1166" />
    </filter>
    <clipPath
       clipPathUnits="userSpaceOnUse"
       id="clipPath1172">
      <path
         inkscape:connector-curvature="0"
         id="path1174"
         d="m 19,2 v 118 h 90 V 38 l -0.004,-0.01172 a 8.0000018,8.0000018 0 0 0 -2.33984,-5.644531 l -28,-28 C 77.09415,2.781653 75.04737,2 73,2 Z"
         style="opacity:1;fill:url(#linearGradient1177);fill-opacity:1;fill-rule:evenodd;stroke:none;stroke-width:2px;stroke-linecap:butt;stroke-linejoin:miter;stroke-opacity:1" />
    </clipPath>
    <linearGradient
       inkscape:collect="always"
       xlink:href="#linearGradient1176"
       id="linearGradient1177"
       gradientUnits="userSpaceOnUse"
       gradientTransform="translate(-120)"
       x1="184"
       y1="2.0000246"
       x2="184"
       y2="120" />
    <filter
       inkscape:collect="always"
       style="color-interpolation-filters:sRGB"
       id="filter1209"
       x="-0.45594357"
       width="1.9118871"
       y="-0.45605644"
       height="1.9121129">
      <feGaussianBlur
         inkscape:collect="always"
         stdDeviation="6.8409187"
         id="feGaussianBlur1211" />
    </filter>
    <clipPath
       clipPathUnits="userSpaceOnUse"
       id="clipPath1217">
      <path
         inkscape:connector-curvature="0"
         id="path1219"
         d="m 19,2 v 118 h 90 V 38 l -0.004,-0.01172 a 8.0000018,8.0000018 0 0 0 -2.33984,-5.644531 l -28,-28 C 77.09415,2.781653 75.04737,2 73,2 Z"
         style="opacity:1;fill:url(#linearGradient1221);fill-opacity:1;fill-rule:evenodd;stroke:none;stroke-width:2px;stroke-linecap:butt;stroke-linejoin:miter;stroke-opacity:1" />
    </clipPath>
    <linearGradient
       inkscape:collect="always"
       xlink:href="#linearGradient1176"
       id="linearGradient1221"
       gradientUnits="userSpaceOnUse"
       gradientTransform="translate(-120)"
       x1="184"
       y1="2.0000246"
       x2="184"
       y2="120" />
  </defs>
  <metadata
     id="metadata3906">
    <rdf:RDF>
      <cc:Work
         rdf:about="">
        <dc:format>image/svg+xml</dc:format>
        <dc:type
           rdf:resource="http://purl.org/dc/dcmitype/StillImage" />
        <dc:title />
      </cc:Work>
    </rdf:RDF>
  </metadata>
  <path
     inkscape:connector-curvature="0"
     id="path1068"
     d="m 19,4 v 118 h 90 V 40 l -0.004,-0.01172 a 8.0000018,8.0000018 0 0 0 -2.33984,-5.644531 l -28,-28 C 77.09415,4.781653 75.04737,4 73,4 Z"
     style="opacity:0.017;fill:none;fill-opacity:1;fill-rule:evenodd;stroke:#000000;stroke-width:6;stroke-linecap:round;stroke-linejoin:round;stroke-miterlimit:4;stroke-dasharray:none;stroke-opacity:1" />
  <path
     style="opacity:0.04;fill:none;fill-opacity:1;fill-rule:evenodd;stroke:#000000;stroke-width:4;stroke-linecap:round;stroke-linejoin:round;stroke-miterlimit:4;stroke-dasharray:none;stroke-opacity:1"
     d="m 19,3 v 118 h 90 V 39 l -0.004,-0.01172 a 8.0000018,8.0000018 0 0 0 -2.33984,-5.644531 l -28,-28 C 77.09415,3.781653 75.04737,3 73,3 Z"
     id="path1066"
     inkscape:connector-curvature="0" />
  <path
     inkscape:connector-curvature="0"
     id="path1114"
     d="m 19,1 v 118 h 90 V 37 l -0.004,-0.01172 a 8.0000018,8.0000018 0 0 0 -2.33984,-5.644531 l -28,-28 C 77.09415,1.781653 75.04737,1 73,1 Z"
     style="opacity:0.07;fill:#000000;fill-opacity:1;fill-rule:evenodd;stroke:none;stroke-width:2px;stroke-linecap:butt;stroke-linejoin:miter;stroke-opacity:1" />
  <path
     inkscape:connector-curvature="0"
     id="path1060"
     d="m 19,3 v 118 h 90 V 39 l -0.004,-0.01172 a 8.0000018,8.0000018 0 0 0 -2.33984,-5.644531 l -28,-28 C 77.09415,3.781653 75.04737,3 73,3 Z"
     style="opacity:0.11;fill:none;fill-opacity:1;fill-rule:evenodd;stroke:#000000;stroke-width:2px;stroke-linecap:round;stroke-linejoin:round;stroke-opacity:1" />
  <path
     style="opacity:0.06000001;fill:#000000;fill-opacity:1;fill-rule:evenodd;stroke:#000000;stroke-width:2px;stroke-linecap:round;stroke-linejoin:round;stroke-opacity:0.47843137"
     d="m 19,5 v 118 h 90 V 41 l -0.004,-0.01172 a 8.0000018,8.0000018 0 0 0 -2.33984,-5.644531 l -28,-28 C 77.09415,5.781653 75.04737,5 73,5 Z"
     id="path1097"
     inkscape:connector-curvature="0" />
  <path
     inkscape:connector-curvature="0"
     id="path1095"
     d="m 19,3 v 118 h 90 V 39 l -0.004,-0.01172 a 8.0000018,8.0000018 0 0 0 -2.33984,-5.644531 l -28,-28 C 77.09415,3.781653 75.04737,3 73,3 Z"
     style="opacity:0.16;fill:#000000;fill-opacity:1;fill-rule:evenodd;stroke:none;stroke-width:2px;stroke-linecap:round;stroke-linejoin:round;stroke-opacity:0.80392158" />
  <path
     style="opacity:1;fill:url(#linearGradient1050);fill-opacity:1;fill-rule:evenodd;stroke:none;stroke-width:2px;stroke-linecap:butt;stroke-linejoin:miter;stroke-opacity:1"
     d="m 19,2 v 118 h 90 V 38 l -0.004,-0.01172 a 8.0000018,8.0000018 0 0 0 -2.33984,-5.644531 l -28,-28 C 77.09415,2.781653 75.04737,2 73,2 Z"
     id="path230"
     inkscape:connector-curvature="0" />
  <path
     inkscape:connector-curvature="0"
     id="path1101"
     d="m 19,2 v 118 h 90 V 38 l -0.004,-0.01172 a 8.0000018,8.0000018 0 0 0 -2.33984,-5.644531 l -28,-28 C 77.09415,2.781653 75.04737,2 73,2 Z"
     style="opacity:0.12;fill:none;fill-opacity:1;fill-rule:evenodd;stroke:#ffffff;stroke-width:2px;stroke-linecap:round;stroke-linejoin:round;stroke-opacity:1"
     clip-path="url(#clipPath1105)" />
  <path
     style="opacity:0.35;fill:#000000;fill-opacity:1;fill-rule:evenodd;stroke:#000000;stroke-width:2px;stroke-linecap:butt;stroke-linejoin:round;stroke-opacity:1;filter:url(#filter1209)"
     d="m 78.65745,13.344821 28,28 c 0,0 2.34246,2.156856 2.34246,5.656856 0,0 1.25009,-11.25 -25.24991,-10.5 1.5,-26 -10.75009,-25.499692 -10.75009,-25.499692 3.5,-3.08e-4 5.65754,2.342836 5.65754,2.342836 z"
     id="path1187"
     inkscape:connector-curvature="0"
     sodipodi:nodetypes="cccccc"
     clip-path="url(#clipPath1217)" />
  <path
     style="opacity:0.4;fill:#000000;fill-opacity:1;fill-rule:evenodd;stroke:#000000;stroke-width:4;stroke-linecap:butt;stroke-linejoin:miter;stroke-miterlimit:4;stroke-dasharray:none;stroke-opacity:1;filter:url(#filter1164)"
     d="M 82.657154,4.3432652 108.65715,34.343265 c 0,0 2.34246,2.156856 2.34246,5.656856 0,0 1.25009,-11.25 -25.249906,-10.5 1.5,-25.9999998 -8.75009,-27.4996918 -8.75009,-27.4996918 3.5,-3.08e-4 5.65754,2.342836 5.65754,2.342836 z"
     id="path1133"
     inkscape:connector-curvature="0"
     sodipodi:nodetypes="cccccc"
     clip-path="url(#clipPath1172)" />
  <path
     sodipodi:nodetypes="cccccc"
     inkscape:connector-curvature="0"
     id="path236"
     d="m 78.65745,4.343144 28,28 c 0,0 2.34246,2.156856 2.34246,5.656856 0,0 1.25009,-11.25 -25.24991,-10.5 C 85.25,1.5 72.99991,2.000308 72.99991,2.000308 76.49991,2 78.65745,4.343144 78.65745,4.343144 Z"
     style="opacity:1;fill:url(#linearGradient1058);fill-opacity:1;fill-rule:evenodd;stroke:none;stroke-width:2px;stroke-linecap:butt;stroke-linejoin:miter;stroke-opacity:1" />
  <path
     style="opacity:0.25;fill:#ffffff;fill-opacity:1;fill-rule:evenodd;stroke:none;stroke-width:2px;stroke-linecap:butt;stroke-linejoin:miter;stroke-opacity:1"
     d="M 73 2 C 73 2 85.25 1.5 83.75 27.5 C 103.61354 26.937824 107.88532 33.117422 108.7793 36.248047 C 108.20951 33.804706 106.6582 32.34375 106.6582 32.34375 L 103.30273 28.988281 C 99.569128 27.380204 93.768808 26.244751 84.75 26.5 C 85.252403 17.791686 84.209207 12.066194 82.603516 8.2890625 L 78.658203 4.34375 C 78.658203 4.34375 76.5 1.999692 73 2 z M 108.79492 36.316406 C 108.84279 36.491724 108.87542 36.649453 108.9043 36.802734 C 108.87756 36.631318 108.83136 36.479251 108.79492 36.316406 z M 108.9043 36.802734 C 108.96346 37.182023 109 37.580773 109 38 C 109 38 109.04103 37.528491 108.9043 36.802734 z "
     id="path1120" />
  <g
     aria-label="README"
     transform="scale(0.9999926,1.0000074)"
     style="font-style:normal;font-variant:normal;font-weight:normal;font-stretch:normal;font-size:21.58687401px;line-height:0%;font-family:'Lucida Sans Unicode';-inkscape-font-specification:'Lucida Sans Unicode';letter-spacing:0px;word-spacing:0px;fill:#525252;fill-opacity:1;stroke:none;stroke-width:1.79890597"
     id="text3801-7">
    <path
       d="M 28.909506,112.99916 V 99.999253 h 3.935107 q 1.870933,0 2.863493,0.825667 1.001345,0.82567 1.001345,2.39796 0,1.2385 -0.693914,2.20471 -0.685131,0.96621 -1.932419,1.48445 l 4.339158,6.08712 h -2.2662 l -3.697946,-5.49861 h -1.72161 v 5.49861 z m 1.827014,-6.87765 h 0.597293 q 1.704042,0 2.591198,-0.69392 0.887156,-0.69391 0.887156,-2.02904 0,-2.02025 -2.916196,-2.02025 H 30.73652 Z"
       style="font-style:normal;font-variant:normal;font-weight:normal;font-stretch:normal;font-size:17.98906136px;line-height:1.25;font-family:'Lucida Sans Unicode';-inkscape-font-specification:'Lucida Sans Unicode';fill:#525252;fill-opacity:1;stroke-width:1.79890597"
       id="path48" />
    <path
       d="M 40.293209,112.99916 V 99.999253 h 7.264138 v 1.379047 h -5.419556 v 4.17227 h 4.541184 v 1.36147 h -4.541184 v 4.70808 h 5.797256 v 1.37904 z"
       style="font-style:normal;font-variant:normal;font-weight:normal;font-stretch:normal;font-size:17.98906136px;line-height:1.25;font-family:'Lucida Sans Unicode';-inkscape-font-specification:'Lucida Sans Unicode';fill:#525252;fill-opacity:1;stroke-width:1.79890597"
       id="path50" />
    <path
       d="m 48.53234,112.99916 5.156044,-12.999907 h 1.827014 l 5.076991,12.999907 h -1.993904 l -1.41418,-3.60132 h -5.507393 l -1.431746,3.60132 z m 3.680379,-4.97159 h 4.435779 l -2.213497,-5.60401 z"
       style="font-style:normal;font-variant:normal;font-weight:normal;font-stretch:normal;font-size:17.98906136px;line-height:1.25;font-family:'Lucida Sans Unicode';-inkscape-font-specification:'Lucida Sans Unicode';fill:#525252;fill-opacity:1;stroke-width:1.79890597"
       id="path52" />
    <path
       d="M 62.463324,112.99916 V 99.999253 h 4.321591 q 1.932418,0 3.118221,0.430407 1.194586,0.4304 2.064174,1.45809 1.379045,1.63378 1.379045,4.30403 0,3.01281 -1.616205,4.88375 -0.878372,1.02769 -2.037823,1.47566 -1.150668,0.44797 -2.881061,0.44797 z m 1.844581,-1.37904 h 2.362821 q 2.529712,0 3.583759,-1.36148 1.1331,-1.44931 1.1331,-3.89119 0,-2.29255 -1.115533,-3.60132 -0.676346,-0.79932 -1.616205,-1.08919 -0.939858,-0.29864 -2.828358,-0.29864 h -1.519584 z"
       style="font-style:normal;font-variant:normal;font-weight:normal;font-stretch:normal;font-size:17.98906136px;line-height:1.25;font-family:'Lucida Sans Unicode';-inkscape-font-specification:'Lucida Sans Unicode';fill:#525252;fill-opacity:1;stroke-width:1.79890597"
       id="path54" />
    <path
       d="M 75.955118,112.99916 V 99.999253 h 2.556063 l 3.601326,10.057357 3.706731,-10.057357 h 2.283767 v 12.999907 h -1.721609 v -10.5756 l -3.583759,9.70601 h -1.783095 l -3.478354,-9.73236 v 10.60195 z"
       style="font-style:normal;font-variant:normal;font-weight:normal;font-stretch:normal;font-size:17.98906136px;line-height:1.25;font-family:'Lucida Sans Unicode';-inkscape-font-specification:'Lucida Sans Unicode';fill:#525252;fill-opacity:1;stroke-width:1.79890597"
       id="path56" />
    <path
       d="M 91.449602,112.99916 V 99.999253 h 7.264138 v 1.379047 h -5.419556 v 4.17227 h 4.541184 v 1.36147 h -4.541184 v 4.70808 h 5.797256 v 1.37904 z"
       style="font-style:normal;font-variant:normal;font-weight:normal;font-stretch:normal;font-size:17.98906136px;line-height:1.25;font-family:'Lucida Sans Unicode';-inkscape-font-specification:'Lucida Sans Unicode';fill:#525252;fill-opacity:1;stroke-width:1.79890597"
       id="path58" />
  </g>
</svg>
