<?xml version="1.0" encoding="UTF-8" standalone="no"?>
<!-- Created with Inkscape (http://www.inkscape.org/) -->

<svg
   xmlns:dc="http://purl.org/dc/elements/1.1/"
   xmlns:cc="http://creativecommons.org/ns#"
   xmlns:rdf="http://www.w3.org/1999/02/22-rdf-syntax-ns#"
   xmlns:svg="http://www.w3.org/2000/svg"
   xmlns="http://www.w3.org/2000/svg"
   xmlns:xlink="http://www.w3.org/1999/xlink"
   xmlns:sodipodi="http://sodipodi.sourceforge.net/DTD/sodipodi-0.dtd"
   xmlns:inkscape="http://www.inkscape.org/namespaces/inkscape"
   version="1.1"
   width="16"
   height="16"
   id="svg3901"
   inkscape:version="0.48.4 r9939"
   sodipodi:docname="application-octet-stream (копия).svg">
  <sodipodi:namedview
     pagecolor="#ffffff"
     bordercolor="#666666"
     borderopacity="1"
     objecttolerance="10"
     gridtolerance="10"
     guidetolerance="10"
     inkscape:pageopacity="0"
     inkscape:pageshadow="2"
     inkscape:window-width="1278"
     inkscape:window-height="902"
     id="namedview37"
     showgrid="false"
     inkscape:zoom="28.963094"
     inkscape:cx="10.006801"
     inkscape:cy="9.20941"
     inkscape:window-x="0"
     inkscape:window-y="24"
     inkscape:window-maximized="0"
     inkscape:current-layer="svg3901"
     showguides="true"
     inkscape:guide-bbox="true" />
  <defs
     id="defs3903">
    <linearGradient
       id="linearGradient3934">
      <stop
         offset="0"
         style="stop-color:#ffffff;stop-opacity:1;"
         id="stop3936" />
      <stop
         offset="1"
         style="stop-color:#ffffff;stop-opacity:0;"
         id="stop3938" />
    </linearGradient>
    <linearGradient
       id="linearGradient3915">
      <stop
         style="stop-color:#000000;stop-opacity:1"
         offset="0"
         id="stop3917" />
      <stop
         style="stop-color:#000000;stop-opacity:0;"
         offset="1"
         id="stop3919" />
    </linearGradient>
    <linearGradient
       x1="23.99999"
       y1="5.5641499"
       x2="23.99999"
       y2="42.110645"
       id="linearGradient3013"
       xlink:href="#linearGradient3029"
       gradientUnits="userSpaceOnUse"
       gradientTransform="matrix(0.89189189,0,0,1.1351351,2.5945999,-4.7432314)" />
    <linearGradient
       id="linearGradient3029">
      <stop
         id="stop3031"
         style="stop-color:#ffffff;stop-opacity:1"
         offset="0" />
      <stop
         id="stop3033"
         style="stop-color:#ffffff;stop-opacity:0.23529412"
         offset="0.01487851" />
      <stop
         id="stop3035"
         style="stop-color:#ffffff;stop-opacity:0.15686275"
         offset="0.98463625" />
      <stop
         id="stop3037"
         style="stop-color:#ffffff;stop-opacity:0.39215687"
         offset="1" />
    </linearGradient>
    <linearGradient
       x1="25.132275"
       y1="0.98520643"
       x2="25.132275"
       y2="47.013336"
       id="linearGradient3016"
       xlink:href="#linearGradient3600"
       gradientUnits="userSpaceOnUse"
       gradientTransform="matrix(1,0,0,0.9561695,-9.9999999e-8,-1.9149218)" />
    <linearGradient
       id="linearGradient3600">
      <stop
         id="stop3602"
         style="stop-color:#dadada;stop-opacity:1;"
         offset="0" />
      <stop
         id="stop3604"
         style="stop-color:#ffffff;stop-opacity:1;"
         offset="1" />
    </linearGradient>
    <radialGradient
       cx="605.71429"
       cy="486.64789"
       r="117.14286"
       fx="605.71429"
       fy="486.64789"
       id="radialGradient3021"
       xlink:href="#linearGradient5060"
       gradientUnits="userSpaceOnUse"
       gradientTransform="matrix(0.02303995,0,0,0.01470022,26.360882,37.040176)" />
    <linearGradient
       id="linearGradient5060">
      <stop
         id="stop5062"
         style="stop-color:#000000;stop-opacity:1"
         offset="0" />
      <stop
         id="stop5064"
         style="stop-color:#000000;stop-opacity:0"
         offset="1" />
    </linearGradient>
    <radialGradient
       cx="605.71429"
       cy="486.64789"
       r="117.14286"
       fx="605.71429"
       fy="486.64789"
       id="radialGradient3024"
       xlink:href="#linearGradient5060"
       gradientUnits="userSpaceOnUse"
       gradientTransform="matrix(-0.02303994,0,0,0.01470022,21.62311,37.040176)" />
    <linearGradient
       id="linearGradient5048">
      <stop
         id="stop5050"
         style="stop-color:#000000;stop-opacity:0"
         offset="0" />
      <stop
         id="stop5056"
         style="stop-color:#000000;stop-opacity:1"
         offset="0.5" />
      <stop
         id="stop5052"
         style="stop-color:#000000;stop-opacity:0"
         offset="1" />
    </linearGradient>
    <linearGradient
       x1="302.85715"
       y1="366.64789"
       x2="302.85715"
       y2="609.50507"
       id="linearGradient3899"
       xlink:href="#linearGradient5048"
       gradientUnits="userSpaceOnUse"
       gradientTransform="matrix(0.06732488,0,0,0.01470022,-0.3411391,37.040146)" />
    <linearGradient
       id="linearGradient3104-5">
      <stop
         id="stop3106-2"
         style="stop-color:#aaaaaa;stop-opacity:1"
         offset="0" />
      <stop
         id="stop3108-5"
         style="stop-color:#c8c8c8;stop-opacity:1"
         offset="1" />
    </linearGradient>
    <linearGradient
       x1="22.004084"
       y1="47.813133"
       x2="22.004084"
       y2="3.3638515"
       id="linearGradient3052"
       xlink:href="#linearGradient3104-5"
       gradientUnits="userSpaceOnUse"
       gradientTransform="translate(-1.982096,-3.047074)" />
    <linearGradient
       inkscape:collect="always"
       xlink:href="#linearGradient3104-5"
       id="linearGradient3015"
       gradientUnits="userSpaceOnUse"
       gradientTransform="translate(-1.982096,-3.047074)"
       x1="22.004084"
       y1="47.813133"
       x2="22.004084"
       y2="3.3638515" />
    <linearGradient
       inkscape:collect="always"
       xlink:href="#linearGradient3029"
       id="linearGradient3019"
       gradientUnits="userSpaceOnUse"
       gradientTransform="matrix(0.89189189,0,0,1.1351351,2.5945999,-4.7432314)"
       x1="23.99999"
       y1="5.5641499"
       x2="23.99999"
       y2="42.110645" />
    <radialGradient
       inkscape:collect="always"
       xlink:href="#linearGradient5060"
       id="radialGradient3025"
       gradientUnits="userSpaceOnUse"
       gradientTransform="matrix(0.02303995,0,0,0.01470022,26.360882,38.415176)"
       cx="605.71429"
       cy="486.64789"
       fx="605.71429"
       fy="486.64789"
       r="117.14286" />
    <radialGradient
       inkscape:collect="always"
       xlink:href="#linearGradient5060"
       id="radialGradient3028"
       gradientUnits="userSpaceOnUse"
       gradientTransform="matrix(-0.02303994,0,0,0.01470022,21.62311,38.415176)"
       cx="605.71429"
       cy="486.64789"
       fx="605.71429"
       fy="486.64789"
       r="117.14286" />
    <linearGradient
       inkscape:collect="always"
       xlink:href="#linearGradient5048"
       id="linearGradient3031"
       gradientUnits="userSpaceOnUse"
       gradientTransform="matrix(0.06732488,0,0,0.01470022,-0.3411391,38.415146)"
       x1="302.85715"
       y1="366.64789"
       x2="302.85715"
       y2="609.50507" />
    <linearGradient
       inkscape:collect="always"
       xlink:href="#linearGradient3897-7"
       id="linearGradient3289"
       gradientUnits="userSpaceOnUse"
       gradientTransform="matrix(0.39056994,0,0,-0.39056994,-0.8729074,48.438192)"
       x1="91.308151"
       y1="98.191689"
       x2="95.18235"
       y2="102.06589" />
    <linearGradient
       id="linearGradient3897-7">
      <stop
         id="stop3899-4"
         style="stop-color:#fcfcfc;stop-opacity:1"
         offset="0" />
      <stop
         id="stop3907-4"
         style="stop-color:#e1e1e1;stop-opacity:1;"
         offset="1" />
    </linearGradient>
    <filter
       inkscape:collect="always"
       id="filter4740"
       x="-1.2070312"
       width="3.4140625"
       y="-1.1930501"
       height="3.3861003"
       color-interpolation-filters="sRGB">
      <feGaussianBlur
         inkscape:collect="always"
         stdDeviation="7.6800744"
         id="feGaussianBlur4742" />
    </filter>
    <clipPath
       clipPathUnits="userSpaceOnUse"
       id="clipPath3823">
      <path
         sodipodi:nodetypes="cccccc"
         d="m 10.7586,0.49719902 c 5.083838,0 18.361576,0.001998 18.361576,0.001998 l 12.308735,12.55734898 3.2e-5,26.002479 c 0,0 -20.446895,0 -30.670343,0 0,-12.853941 0,-25.707883 0,-38.56182592 z"
         inkscape:connector-curvature="0"
         id="path3825"
         style="fill:#ffffff;fill-opacity:1;stroke:none;display:inline" />
    </clipPath>
    <clipPath
       clipPathUnits="userSpaceOnUse"
       id="clipPath4113">
      <path
         sodipodi:nodetypes="cccccc"
         d="m 6.4999609,1.872199 c 5.8015241,0 20.9536831,0.00228 20.9536831,0.00228 l 14.046362,14.330072 3.6e-5,29.673255 c 0,0 -23.333387,0 -35.0000811,0 0,-14.668535 0,-29.33707 0,-44.005607 z"
         inkscape:connector-curvature="0"
         id="path4115"
         style="fill:#ffffff;fill-opacity:1;stroke:none;display:inline" />
    </clipPath>
    <clipPath
       clipPathUnits="userSpaceOnUse"
       id="clipPath4160">
      <path
         sodipodi:nodetypes="cccccc"
         d="m 6.4999609,1.872199 c 5.8015241,0 20.9536831,0.00228 20.9536831,0.00228 l 14.046362,14.330072 3.6e-5,29.673255 c 0,0 -23.333387,0 -35.0000811,0 0,-14.668535 0,-29.33707 0,-44.005607 z"
         inkscape:connector-curvature="0"
         id="path4162"
         style="fill:#ffffff;fill-opacity:1;stroke:none;display:inline" />
    </clipPath>
    <radialGradient
       r="10.625"
       fy="4.625"
       fx="62.625"
       cy="4.625"
       cx="62.625"
       gradientTransform="matrix(2.1647059,0,0,0.7529402,-111.56471,36.517647)"
       gradientUnits="userSpaceOnUse"
       id="radialGradient3801"
       xlink:href="#linearGradient8838"
       inkscape:collect="always" />
    <linearGradient
       y2="45"
       x2="37.201294"
       y1="1"
       x1="37.201294"
       gradientUnits="userSpaceOnUse"
       id="linearGradient3798"
       xlink:href="#linearGradient3397"
       inkscape:collect="always" />
    <linearGradient
       y2="45.017357"
       x2="20.758585"
       y1="1"
       x1="20.758585"
       gradientUnits="userSpaceOnUse"
       id="linearGradient3796"
       xlink:href="#linearGradient3309"
       inkscape:collect="always" />
    <linearGradient
       y2="20.895"
       x2="84.63858"
       y1="105.105"
       x1="86.132919"
       gradientTransform="matrix(0.3244803,0,0,0.3244803,3.2332655,2.5577454)"
       gradientUnits="userSpaceOnUse"
       id="linearGradient3793"
       xlink:href="#linearGradient5128"
       inkscape:collect="always" />
    <linearGradient
       y2="20.895"
       x2="84.63858"
       y1="105.105"
       x1="86.132919"
       gradientTransform="matrix(0.3244803,0,0,0.3244803,3.2332655,2.5577454)"
       gradientUnits="userSpaceOnUse"
       id="linearGradient3789"
       xlink:href="#linearGradient5128"
       inkscape:collect="always" />
    <linearGradient
       y2="45"
       x2="37.201294"
       y1="1"
       x1="37.201294"
       gradientUnits="userSpaceOnUse"
       id="linearGradient3787"
       xlink:href="#linearGradient3397"
       inkscape:collect="always" />
    <linearGradient
       y2="45.017357"
       x2="20.758585"
       y1="1"
       x1="20.758585"
       gradientUnits="userSpaceOnUse"
       id="linearGradient3785"
       xlink:href="#linearGradient3309"
       inkscape:collect="always" />
    <radialGradient
       r="10.625"
       fy="4.625"
       fx="62.625"
       cy="4.625"
       cx="62.625"
       gradientTransform="matrix(2.1647059,0,0,0.7529402,-111.56471,36.517647)"
       gradientUnits="userSpaceOnUse"
       id="radialGradient3783"
       xlink:href="#linearGradient8838"
       inkscape:collect="always" />
    <linearGradient
       gradientTransform="matrix(0.3244803,0,0,0.3244803,3.2332655,2.5577454)"
       gradientUnits="userSpaceOnUse"
       xlink:href="#linearGradient5128"
       id="linearGradient2512"
       y2="20.895"
       x2="84.63858"
       y1="105.105"
       x1="86.132919" />
    <linearGradient
       id="linearGradient5128">
      <stop
         offset="0"
         style="stop-color:#acbacc;stop-opacity:1;"
         id="stop5130" />
      <stop
         offset="1"
         style="stop-color:#97a3c0;stop-opacity:1;"
         id="stop5132" />
    </linearGradient>
    <linearGradient
       gradientUnits="userSpaceOnUse"
       xlink:href="#linearGradient3309"
       id="linearGradient2515"
       y2="45.017357"
       x2="20.758585"
       y1="1"
       x1="20.758585" />
    <linearGradient
       gradientUnits="userSpaceOnUse"
       id="linearGradient3309"
       y2="122.8994"
       x2="63.9995"
       y1="3.1001"
       x1="63.9995">
      <stop
         offset="0"
         style="stop-color:#cad8ea;stop-opacity:1;"
         id="stop3311" />
      <stop
         offset="1"
         style="stop-color:#687088;stop-opacity:1;"
         id="stop3313" />
    </linearGradient>
    <linearGradient
       gradientUnits="userSpaceOnUse"
       xlink:href="#linearGradient3397"
       id="linearGradient2517"
       y2="45"
       x2="37.201294"
       y1="1"
       x1="37.201294" />
    <linearGradient
       id="linearGradient3397">
      <stop
         offset="0"
         style="stop-color:#4a5877;stop-opacity:1;"
         id="stop3399" />
      <stop
         offset="1"
         style="stop-color:#2b3249;stop-opacity:1;"
         id="stop3401" />
    </linearGradient>
    <radialGradient
       gradientTransform="matrix(2.1647059,0,0,0.7529402,-111.56471,36.517647)"
       gradientUnits="userSpaceOnUse"
       xlink:href="#linearGradient8838"
       id="radialGradient2436"
       fy="4.625"
       fx="62.625"
       r="10.625"
       cy="4.625"
       cx="62.625" />
    <linearGradient
       id="linearGradient8838">
      <stop
         offset="0"
         style="stop-color:#000000;stop-opacity:1"
         id="stop8840" />
      <stop
         offset="1"
         style="stop-color:#000000;stop-opacity:0"
         id="stop8842" />
    </linearGradient>
    <linearGradient
       inkscape:collect="always"
       xlink:href="#linearGradient3897-7"
       id="linearGradient3118"
       gradientUnits="userSpaceOnUse"
       gradientTransform="matrix(0.08072689,0,0,-0.0821514,3.3166082,12.364377)"
       x1="91.308151"
       y1="98.191689"
       x2="95.18235"
       y2="102.06589" />
    <linearGradient
       inkscape:collect="always"
       xlink:href="#linearGradient3600"
       id="linearGradient3125"
       gradientUnits="userSpaceOnUse"
       gradientTransform="matrix(0.28571362,0,0,0.26073316,1.1428732,1.342412)"
       x1="25.132275"
       y1="0.98520643"
       x2="25.132275"
       y2="47.013336" />
    <clipPath
       clipPathUnits="userSpaceOnUse"
       id="clipPath3907">
      <path
         sodipodi:nodetypes="cccccc"
         d="m 3.0000006,2.0001614 c 1.6575744,0 5.9867526,6.272e-4 5.9867526,6.272e-4 L 12.99999,5.9083854 13,13.999839 c 0,0 -6.666666,0 -9.9999994,0 0,-3.9998903 0,-7.9997809 0,-11.9996721 z"
         inkscape:connector-curvature="0"
         id="path3909"
         style="fill:url(#linearGradient3911);fill-opacity:1;stroke:none;display:inline" />
    </clipPath>
    <linearGradient
       inkscape:collect="always"
       xlink:href="#linearGradient3600"
       id="linearGradient3911"
       gradientUnits="userSpaceOnUse"
       gradientTransform="matrix(0.28571362,0,0,0.26073316,1.1428732,1.342412)"
       x1="25.132275"
       y1="0.98520643"
       x2="25.132275"
       y2="47.013336" />
    <radialGradient
       inkscape:collect="always"
       xlink:href="#linearGradient3915"
       id="radialGradient3923"
       cx="8"
       cy="13.951243"
       fx="8"
       fy="13.951243"
       r="5.9999995"
       gradientTransform="matrix(1,0,0,2.3231242,0,-17.467513)"
       gradientUnits="userSpaceOnUse" />
    <linearGradient
       inkscape:collect="always"
       xlink:href="#linearGradient3934"
       id="linearGradient3940"
       gradientUnits="userSpaceOnUse"
       gradientTransform="matrix(0.28571362,0,0,0.26073316,1.1428732,1.342412)"
       x1="25.132275"
       y1="0.98520643"
       x2="25.132275"
       y2="47.013336" />
    <linearGradient
       inkscape:collect="always"
       xlink:href="#linearGradient3997"
       id="linearGradient3270"
       gradientUnits="userSpaceOnUse"
       gradientTransform="translate(-63.258758,4.5428245)"
       x1="23.888048"
       y1="-87.832565"
       x2="23.888048"
       y2="-45.40332" />
    <linearGradient
       id="linearGradient3997">
      <stop
         id="stop3999"
         offset="0"
         style="stop-color:#aaaaaa;stop-opacity:1;" />
      <stop
         id="stop4001"
         offset="1"
         style="stop-color:#b4b4b4;stop-opacity:1;" />
    </linearGradient>
    <linearGradient
       inkscape:collect="always"
       xlink:href="#linearGradient4153"
       id="linearGradient3272"
       gradientUnits="userSpaceOnUse"
       gradientTransform="translate(-63.258758,4.5428245)"
       x1="23.88772"
       y1="-135.61078"
       x2="23.88772"
       y2="-93.187019" />
    <linearGradient
       id="linearGradient4153">
      <stop
         style="stop-color:#848484;stop-opacity:1;"
         offset="0"
         id="stop4155" />
      <stop
         style="stop-color:#9e9e9e;stop-opacity:1;"
         offset="1"
         id="stop4157" />
    </linearGradient>
    <linearGradient
       inkscape:collect="always"
       xlink:href="#linearGradient4013"
       id="linearGradient3274"
       gradientUnits="userSpaceOnUse"
       gradientTransform="translate(-63.258758,4.5428245)"
       x1="-23.889225"
       y1="-135.60519"
       x2="-23.889225"
       y2="-93.192001" />
    <linearGradient
       id="linearGradient4013">
      <stop
         id="stop4015"
         offset="0"
         style="stop-color:#545454;stop-opacity:1;" />
      <stop
         id="stop4017"
         offset="1"
         style="stop-color:#7b7b7b;stop-opacity:1;" />
    </linearGradient>
    <linearGradient
       inkscape:collect="always"
       xlink:href="#linearGradient3989"
       id="linearGradient3276"
       gradientUnits="userSpaceOnUse"
       gradientTransform="translate(-63.258758,4.5428245)"
       x1="-23.888943"
       y1="-87.833076"
       x2="-23.888945"
       y2="-45.407223" />
    <linearGradient
       id="linearGradient3989">
      <stop
         id="stop3991"
         offset="0"
         style="stop-color:#2d2d2d;stop-opacity:1;" />
      <stop
         id="stop3993"
         offset="1"
         style="stop-color:#5f5f5f;stop-opacity:1;" />
    </linearGradient>
    <clipPath
       id="clipPath3973"
       clipPathUnits="userSpaceOnUse">
      <g
         id="g3975">
        <rect
           x="2.6748068"
           y="-87.835159"
           transform="matrix(-0.70710678,0.70710678,-0.70710678,-0.70710678,0,0)"
           width="42.426468"
           height="42.426346"
           id="rect3977"
           style="fill:#bebebe" />
        <rect
           x="2.6745186"
           y="-135.61209"
           transform="matrix(-0.70710678,0.70710678,-0.70710678,-0.70710678,0,0)"
           width="42.426407"
           height="42.426407"
           id="rect3979"
           style="fill:#8d8d8d" />
        <rect
           x="-45.102425"
           y="-135.61182"
           transform="matrix(-0.70710678,0.70710678,-0.70710678,-0.70710678,0,0)"
           width="42.426407"
           height="42.426407"
           id="rect3981"
           style="fill:#787878" />
        <rect
           x="-45.10215"
           y="-87.834747"
           transform="matrix(-0.70710678,0.70710678,-0.70710678,-0.70710678,0,0)"
           width="42.426407"
           height="42.426407"
           id="rect3983"
           style="fill:#414141" />
      </g>
    </clipPath>
    <radialGradient
       inkscape:collect="always"
       xlink:href="#linearGradient4005"
       id="radialGradient3278"
       gradientUnits="userSpaceOnUse"
       gradientTransform="matrix(-1.239003,-0.54257682,0.55702034,-1.2719855,124.85761,59.937651)"
       cx="60.659531"
       cy="13.828173"
       fx="60.659531"
       fy="13.828173"
       r="24.109375" />
    <linearGradient
       id="linearGradient4005">
      <stop
         id="stop4007"
         offset="0"
         style="stop-color:#ffffff;stop-opacity:1;" />
      <stop
         id="stop4009"
         offset="1"
         style="stop-color:#ffffff;stop-opacity:0.08015267;" />
    </linearGradient>
    <clipPath
       id="clipPath4133"
       clipPathUnits="userSpaceOnUse">
      <rect
         style="fill:url(#linearGradient4137);fill-opacity:1"
         id="rect4135"
         height="42.426407"
         width="42.426407"
         transform="matrix(-0.70710678,0.70710678,-0.70710678,-0.70710678,0,0)"
         y="-87.834747"
         x="-45.10215" />
    </clipPath>
    <radialGradient
       inkscape:collect="always"
       xlink:href="#linearGradient4005"
       id="radialGradient3280"
       gradientUnits="userSpaceOnUse"
       gradientTransform="matrix(-1.239003,-0.54257682,0.55702034,-1.2719855,124.85761,59.937651)"
       cx="60.659531"
       cy="13.828173"
       fx="60.659531"
       fy="13.828173"
       r="24.109375" />
    <linearGradient
       id="linearGradient3374">
      <stop
         id="stop3376"
         offset="0"
         style="stop-color:#ffffff;stop-opacity:1;" />
      <stop
         id="stop3378"
         offset="1"
         style="stop-color:#ffffff;stop-opacity:0.08015267;" />
    </linearGradient>
    <clipPath
       id="clipPath3380"
       clipPathUnits="userSpaceOnUse">
      <rect
         style="fill:url(#linearGradient4137);fill-opacity:1"
         id="rect3382"
         height="42.426407"
         width="42.426407"
         transform="matrix(-0.70710678,0.70710678,-0.70710678,-0.70710678,0,0)"
         y="-87.834747"
         x="-45.10215" />
    </clipPath>
    <radialGradient
       inkscape:collect="always"
       xlink:href="#linearGradient4005"
       id="radialGradient3282"
       gradientUnits="userSpaceOnUse"
       gradientTransform="matrix(-1.239003,-0.54257682,0.55702034,-1.2719855,124.85761,59.937651)"
       cx="60.659531"
       cy="13.828173"
       fx="60.659531"
       fy="13.828173"
       r="24.109375" />
    <linearGradient
       id="linearGradient3385">
      <stop
         id="stop3387"
         offset="0"
         style="stop-color:#ffffff;stop-opacity:1;" />
      <stop
         id="stop3389"
         offset="1"
         style="stop-color:#ffffff;stop-opacity:0.08015267;" />
    </linearGradient>
    <clipPath
       id="clipPath3391"
       clipPathUnits="userSpaceOnUse">
      <rect
         style="fill:url(#linearGradient4137);fill-opacity:1"
         id="rect3393"
         height="42.426407"
         width="42.426407"
         transform="matrix(-0.70710678,0.70710678,-0.70710678,-0.70710678,0,0)"
         y="-87.834747"
         x="-45.10215" />
    </clipPath>
    <radialGradient
       inkscape:collect="always"
       xlink:href="#linearGradient4005"
       id="radialGradient3284"
       gradientUnits="userSpaceOnUse"
       gradientTransform="matrix(-1.239003,-0.54257682,0.55702034,-1.2719855,124.85761,59.937651)"
       cx="60.659531"
       cy="13.828173"
       fx="60.659531"
       fy="13.828173"
       r="24.109375" />
    <linearGradient
       id="linearGradient3396">
      <stop
         id="stop3398"
         offset="0"
         style="stop-color:#ffffff;stop-opacity:1;" />
      <stop
         id="stop3400"
         offset="1"
         style="stop-color:#ffffff;stop-opacity:0.08015267;" />
    </linearGradient>
    <clipPath
       id="clipPath3402"
       clipPathUnits="userSpaceOnUse">
      <rect
         style="fill:url(#linearGradient4137);fill-opacity:1"
         id="rect3404"
         height="42.426407"
         width="42.426407"
         transform="matrix(-0.70710678,0.70710678,-0.70710678,-0.70710678,0,0)"
         y="-87.834747"
         x="-45.10215" />
    </clipPath>
  </defs>
  <metadata
     id="metadata3906">
    <rdf:RDF>
      <cc:Work
         rdf:about="">
        <dc:format>image/svg+xml</dc:format>
        <dc:type
           rdf:resource="http://purl.org/dc/dcmitype/StillImage" />
        <dc:title />
      </cc:Work>
    </rdf:RDF>
  </metadata>
  <path
     sodipodi:nodetypes="cccccc"
     d="m 3.0000006,2.0001614 c 1.6575744,0 5.9867526,6.272e-4 5.9867526,6.272e-4 L 12.99999,5.9083854 13,13.999839 c 0,0 -6.666666,0 -9.9999994,0 0,-3.9998903 0,-7.9997809 0,-11.9996721 z"
     inkscape:connector-curvature="0"
     id="path3127"
     style="fill:none;fill-opacity:1;stroke:#000000;display:inline;stroke-opacity:0.23529412000000000;stroke-linejoin:round;stroke-width:2;stroke-miterlimit:4;stroke-dasharray:none" />
  <path
     style="fill:none;fill-opacity:1;stroke:url(#radialGradient3923);display:inline;stroke-opacity:0.23529412000000000;stroke-linejoin:round;stroke-width:2;stroke-miterlimit:4;stroke-dasharray:none;opacity:1"
     id="path3913"
     inkscape:connector-curvature="0"
     d="m 3.0000006,2.0001614 c 1.6575744,0 5.9867526,6.272e-4 5.9867526,6.272e-4 L 12.99999,5.9083854 13,13.999839 c 0,0 -6.666666,0 -9.9999994,0 0,-3.9998903 0,-7.9997809 0,-11.9996721 z"
     sodipodi:nodetypes="cccccc" />
  <path
     style="fill:url(#linearGradient3125);fill-opacity:1;stroke:none;display:inline"
     id="path4160"
     inkscape:connector-curvature="0"
     d="m 3.0000006,2.0001614 c 1.6575744,0 5.9867526,6.272e-4 5.9867526,6.272e-4 L 12.99999,5.9083854 13,13.999839 c 0,0 -6.666666,0 -9.9999994,0 0,-3.9998903 0,-7.9997809 0,-11.9996721 z"
     sodipodi:nodetypes="cccccc" />
  <path
     style="fill:url(#linearGradient3940);fill-opacity:1;stroke:none;display:inline;opacity:0.4"
     d="M 3 2 L 3 14 L 13 14 L 13 5.90625 L 9 2 C 9 2 4.6575744 2 3 2 z M 4 3 C 5.3260596 3 8.78125 3 8.78125 3 L 12 6.25 L 12 13 L 4 13 L 4 3 z "
     id="path3929" />
  <path
     sodipodi:nodetypes="cccc"
     d="m 33.033607,8.8038818 c -0.04937,-3.7222332 0.10108,-9.9827279 -2.010715,-13.2718925 0,0 13.793921,13.740947 15.270672,15.4496257 0,0 -2.562442,-2.0299713 -13.259957,-2.1777332 z"
     id="path3805"
     style="opacity:0.9;fill:#000000;fill-opacity:1;stroke:none;filter:url(#filter4740)"
     inkscape:connector-curvature="0"
     clip-path="url(#clipPath3823)"
     transform="matrix(0.32604787,0,0,0.31118009,-0.5078181,1.8454429)" />
  <g
     transform="matrix(0.33119111,0,0,0.33119111,0.05141323,2.03856)"
     id="g3926">
    <g
       transform="matrix(1.0020929,0,0,0.99961771,-72.200918,-0.4460706)"
       id="g4233">
      <path
         inkscape:connector-curvature="0"
         id="path4231"
         d="M 96,6.78125 90.5,12.25 96,17.75 101.5,12.25 96,6.78125 z m -6.1875,6.1875 -5.46875,5.46875 5.46875,5.5 5.5,-5.5 -5.5,-5.46875 z m 12.375,0 -5.5,5.46875 5.5,5.5 5.46875,-5.5 -5.46875,-5.46875 z M 96,19.125 l -5.5,5.5 5.5,5.5 5.5,-5.5 -5.5,-5.5 z"
         style="opacity:0.02999998;fill:none;stroke:#000000;stroke-width:2;stroke-miterlimit:4;stroke-opacity:1;stroke-dasharray:none" />
      <path
         style="opacity:0.02999998;fill:none;stroke:#000000;stroke-width:1.5;stroke-miterlimit:4;stroke-opacity:1;stroke-dasharray:none"
         d="M 96,6.78125 90.5,12.25 96,17.75 101.5,12.25 96,6.78125 z m -6.1875,6.1875 -5.46875,5.46875 5.46875,5.5 5.5,-5.5 -5.5,-5.46875 z m 12.375,0 -5.5,5.46875 5.5,5.5 5.46875,-5.5 -5.46875,-5.46875 z M 96,19.125 l -5.5,5.5 5.5,5.5 5.5,-5.5 -5.5,-5.5 z"
         id="path4229"
         inkscape:connector-curvature="0" />
      <path
         inkscape:connector-curvature="0"
         id="path4227"
         d="M 96,6.78125 90.5,12.25 96,17.75 101.5,12.25 96,6.78125 z m -6.1875,6.1875 -5.46875,5.46875 5.46875,5.5 5.5,-5.5 -5.5,-5.46875 z m 12.375,0 -5.5,5.46875 5.5,5.5 5.46875,-5.5 -5.46875,-5.46875 z M 96,19.125 l -5.5,5.5 5.5,5.5 5.5,-5.5 -5.5,-5.5 z"
         style="opacity:0.02999998;fill:none;stroke:#000000;stroke-width:1;stroke-miterlimit:4;stroke-opacity:1;stroke-dasharray:none" />
      <path
         inkscape:connector-curvature="0"
         style="opacity:0.02999998;fill:none;stroke:#000000;stroke-width:0.5;stroke-miterlimit:4;stroke-opacity:1;stroke-dasharray:none"
         d="M 96,6.78125 90.5,12.25 96,17.75 101.5,12.25 96,6.78125 z m -6.1875,6.1875 -5.46875,5.46875 5.46875,5.5 5.5,-5.5 -5.5,-5.46875 z m 12.375,0 -5.5,5.46875 5.5,5.5 5.46875,-5.5 -5.46875,-5.46875 z M 96,19.125 l -5.5,5.5 5.5,5.5 5.5,-5.5 -5.5,-5.5 z"
         id="rect3380" />
    </g>
    <g
       transform="matrix(0.18813673,0,0,0.18813671,4.1479447,14.97909)"
       id="g3239">
      <rect
         style="fill:url(#linearGradient3270);fill-opacity:1"
         id="rect6"
         height="42.426346"
         width="42.426468"
         transform="matrix(-0.70710678,0.70710678,-0.70710678,-0.70710678,0,0)"
         y="-83.292336"
         x="-60.58395" />
      <rect
         style="fill:url(#linearGradient3272);fill-opacity:1"
         id="rect12"
         height="42.426407"
         width="42.426407"
         transform="matrix(-0.70710678,0.70710678,-0.70710678,-0.70710678,0,0)"
         y="-131.06926"
         x="-60.58424" />
      <rect
         style="fill:url(#linearGradient3274);fill-opacity:1"
         id="rect18"
         height="42.426407"
         width="42.426407"
         transform="matrix(-0.70710678,0.70710678,-0.70710678,-0.70710678,0,0)"
         y="-131.06898"
         x="-108.36118" />
      <rect
         style="fill:url(#linearGradient3276);fill-opacity:1"
         id="rect24"
         height="42.426407"
         width="42.426407"
         transform="matrix(-0.70710678,0.70710678,-0.70710678,-0.70710678,0,0)"
         y="-83.291924"
         x="-108.36091" />
      <g
         id="g3945"
         style="opacity:0.4"
         transform="translate(41.518435,-47.942959)">
        <path
           inkscape:connector-curvature="0"
           id="rect3811"
           d="m 30.21875,34 -30,30 0.5,0.5 29.5,-29.5 29.5,29.5 0.5,-0.5 -30,-30 z"
           style="fill:#000000;fill-opacity:1;stroke:none" />
        <path
           inkscape:connector-curvature="0"
           id="rect3813"
           d="m 64,67.78125 -30,30 0.5,0.5 29.5,-29.5 29.5,29.5 0.5,-0.5 -30,-30 z"
           style="fill:#000000;fill-opacity:1;stroke:none" />
        <path
           inkscape:connector-curvature="0"
           id="rect3815"
           d="m 97.78125,34 -30,30 0.5,0.5 29.5,-29.5 29.5,29.5 0.5,-0.5 -30,-30 z"
           style="fill:#000000;fill-opacity:1;stroke:none" />
        <path
           inkscape:connector-curvature="0"
           id="rect3817"
           d="m 64,0.21875 -30,30 0.5,0.5 29.5,-29.5 29.5,29.5 0.5,-0.5 -30,-30 z"
           style="fill:#000000;fill-opacity:1;stroke:none" />
      </g>
      <g
         id="g3957"
         clip-path="url(#clipPath3973)"
         style="opacity:0.4"
         transform="translate(41.518435,-47.942959)">
        <path
           inkscape:connector-curvature="0"
           id="rect3827"
           d="m 30.21875,35 -30,30 0.5,0.5 29.5,-29.5 29.5,29.5 0.5,-0.5 -30,-30 z"
           style="fill:#ffffff;fill-opacity:1;stroke:none" />
        <path
           inkscape:connector-curvature="0"
           id="rect3829"
           d="m 64,68.78125 -30,30 0.5,0.5 29.5,-29.5 29.5,29.5 0.5,-0.5 -30,-30 z"
           style="fill:#ffffff;fill-opacity:1;stroke:none" />
        <path
           inkscape:connector-curvature="0"
           id="rect3831"
           d="m 97.78125,35 -30,30 0.5,0.5 29.5,-29.5 29.5,29.5 0.5,-0.5 -30,-30 z"
           style="fill:#ffffff;fill-opacity:1;stroke:none" />
        <path
           inkscape:connector-curvature="0"
           id="rect3833"
           d="m 64,1.21875 -30,30 0.5,0.5 29.5,-29.5 29.5,29.5 0.5,-0.5 -30,-30 z"
           style="fill:#ffffff;fill-opacity:1;stroke:none" />
      </g>
      <path
         style="opacity:0.5;fill:url(#radialGradient3278);fill-opacity:1"
         d="m 64.000582,2.2165094 -30,29.9999996 9.78125,9.78125 c 9.91269,-10.976022 23.30619,-18.726927 38.4375,-21.5625 L 64.000582,2.2165094 z"
         id="rect4124"
         inkscape:connector-curvature="0"
         clip-path="url(#clipPath4133)"
         transform="translate(41.518435,-47.942959)" />
      <path
         clip-path="url(#clipPath4133)"
         inkscape:connector-curvature="0"
         id="path4141"
         d="m 64.000582,2.2165094 -30,29.9999996 9.78125,9.78125 c 9.91269,-10.976022 23.30619,-18.726927 38.4375,-21.5625 L 64.000582,2.2165094 z"
         style="opacity:0.5;fill:url(#radialGradient3280);fill-opacity:1"
         transform="translate(7.735316,-14.159214)" />
      <path
         transform="translate(41.518912,19.623931)"
         style="opacity:0.5;fill:url(#radialGradient3282);fill-opacity:1"
         d="m 64.000582,2.2165094 -30,29.9999996 9.78125,9.78125 c 9.91269,-10.976022 23.30619,-18.726927 38.4375,-21.5625 L 64.000582,2.2165094 z"
         id="path4159"
         inkscape:connector-curvature="0"
         clip-path="url(#clipPath4133)" />
      <path
         clip-path="url(#clipPath4133)"
         inkscape:connector-curvature="0"
         id="path4169"
         d="m 64.000582,2.2165094 -30,29.9999996 9.78125,9.78125 c 9.91269,-10.976022 23.30619,-18.726927 38.4375,-21.5625 L 64.000582,2.2165094 z"
         style="opacity:0.5;fill:url(#radialGradient3284);fill-opacity:1"
         transform="translate(75.302118,-14.159664)" />
    </g>
  </g>
  <path
     sodipodi:nodetypes="cccc"
     d="m 9.984919,4.9276896 0,-1.9478042 1.999,1.9478042 z"
     id="path3903"
     style="fill:none;fill-opacity:1;stroke:#000000;stroke-opacity:0.15686275000000000;stroke-linejoin:miter;stroke-width:2;stroke-miterlimit:4;stroke-dasharray:none"
     inkscape:connector-curvature="0"
     clip-path="url(#clipPath3907)" />
  <path
     inkscape:connector-curvature="0"
     style="fill:url(#linearGradient3118);fill-opacity:1;stroke:none"
     id="path6011"
     d="m 9.984919,4.9276896 0,-1.9478042 1.999,1.9478042 z"
     sodipodi:nodetypes="cccc" />
</svg>
