<?xml version="1.0" encoding="UTF-8" standalone="no"?>
<!-- Created with Inkscape (http://www.inkscape.org/) -->

<svg
   xmlns:dc="http://purl.org/dc/elements/1.1/"
   xmlns:cc="http://creativecommons.org/ns#"
   xmlns:rdf="http://www.w3.org/1999/02/22-rdf-syntax-ns#"
   xmlns:svg="http://www.w3.org/2000/svg"
   xmlns="http://www.w3.org/2000/svg"
   xmlns:xlink="http://www.w3.org/1999/xlink"
   xmlns:sodipodi="http://sodipodi.sourceforge.net/DTD/sodipodi-0.dtd"
   xmlns:inkscape="http://www.inkscape.org/namespaces/inkscape"
   version="1.1"
   width="16"
   height="16"
   id="svg3901"
   inkscape:version="0.48.4 r9939"
   sodipodi:docname="application-x-bittorrent.svg">
  <sodipodi:namedview
     pagecolor="#ffffff"
     bordercolor="#666666"
     borderopacity="1"
     objecttolerance="10"
     gridtolerance="10"
     guidetolerance="10"
     inkscape:pageopacity="0"
     inkscape:pageshadow="2"
     inkscape:window-width="1278"
     inkscape:window-height="902"
     id="namedview37"
     showgrid="false"
     inkscape:zoom="28.963094"
     inkscape:cx="10.900095"
     inkscape:cy="11.665029"
     inkscape:window-x="0"
     inkscape:window-y="24"
     inkscape:window-maximized="0"
     inkscape:current-layer="svg3901"
     showguides="true"
     inkscape:guide-bbox="true" />
  <defs
     id="defs3903">
    <linearGradient
       id="linearGradient3934">
      <stop
         offset="0"
         style="stop-color:#ffffff;stop-opacity:1;"
         id="stop3936" />
      <stop
         offset="1"
         style="stop-color:#ffffff;stop-opacity:0;"
         id="stop3938" />
    </linearGradient>
    <linearGradient
       id="linearGradient3915">
      <stop
         style="stop-color:#000000;stop-opacity:1"
         offset="0"
         id="stop3917" />
      <stop
         style="stop-color:#000000;stop-opacity:0;"
         offset="1"
         id="stop3919" />
    </linearGradient>
    <linearGradient
       x1="23.99999"
       y1="5.5641499"
       x2="23.99999"
       y2="42.110645"
       id="linearGradient3013"
       xlink:href="#linearGradient3029"
       gradientUnits="userSpaceOnUse"
       gradientTransform="matrix(0.89189189,0,0,1.1351351,2.5945999,-4.7432314)" />
    <linearGradient
       id="linearGradient3029">
      <stop
         id="stop3031"
         style="stop-color:#ffffff;stop-opacity:1"
         offset="0" />
      <stop
         id="stop3033"
         style="stop-color:#ffffff;stop-opacity:0.23529412"
         offset="0.01487851" />
      <stop
         id="stop3035"
         style="stop-color:#ffffff;stop-opacity:0.15686275"
         offset="0.98463625" />
      <stop
         id="stop3037"
         style="stop-color:#ffffff;stop-opacity:0.39215687"
         offset="1" />
    </linearGradient>
    <linearGradient
       x1="25.132275"
       y1="0.98520643"
       x2="25.132275"
       y2="47.013336"
       id="linearGradient3016"
       xlink:href="#linearGradient3600"
       gradientUnits="userSpaceOnUse"
       gradientTransform="matrix(1,0,0,0.9561695,-9.9999999e-8,-1.9149218)" />
    <linearGradient
       id="linearGradient3600">
      <stop
         id="stop3602"
         style="stop-color:#dadada;stop-opacity:1;"
         offset="0" />
      <stop
         id="stop3604"
         style="stop-color:#ffffff;stop-opacity:1;"
         offset="1" />
    </linearGradient>
    <radialGradient
       cx="605.71429"
       cy="486.64789"
       r="117.14286"
       fx="605.71429"
       fy="486.64789"
       id="radialGradient3021"
       xlink:href="#linearGradient5060"
       gradientUnits="userSpaceOnUse"
       gradientTransform="matrix(0.02303995,0,0,0.01470022,26.360882,37.040176)" />
    <linearGradient
       id="linearGradient5060">
      <stop
         id="stop5062"
         style="stop-color:#000000;stop-opacity:1"
         offset="0" />
      <stop
         id="stop5064"
         style="stop-color:#000000;stop-opacity:0"
         offset="1" />
    </linearGradient>
    <radialGradient
       cx="605.71429"
       cy="486.64789"
       r="117.14286"
       fx="605.71429"
       fy="486.64789"
       id="radialGradient3024"
       xlink:href="#linearGradient5060"
       gradientUnits="userSpaceOnUse"
       gradientTransform="matrix(-0.02303994,0,0,0.01470022,21.62311,37.040176)" />
    <linearGradient
       id="linearGradient5048">
      <stop
         id="stop5050"
         style="stop-color:#000000;stop-opacity:0"
         offset="0" />
      <stop
         id="stop5056"
         style="stop-color:#000000;stop-opacity:1"
         offset="0.5" />
      <stop
         id="stop5052"
         style="stop-color:#000000;stop-opacity:0"
         offset="1" />
    </linearGradient>
    <linearGradient
       x1="302.85715"
       y1="366.64789"
       x2="302.85715"
       y2="609.50507"
       id="linearGradient3899"
       xlink:href="#linearGradient5048"
       gradientUnits="userSpaceOnUse"
       gradientTransform="matrix(0.06732488,0,0,0.01470022,-0.3411391,37.040146)" />
    <linearGradient
       id="linearGradient3104-5">
      <stop
         id="stop3106-2"
         style="stop-color:#aaaaaa;stop-opacity:1"
         offset="0" />
      <stop
         id="stop3108-5"
         style="stop-color:#c8c8c8;stop-opacity:1"
         offset="1" />
    </linearGradient>
    <linearGradient
       x1="22.004084"
       y1="47.813133"
       x2="22.004084"
       y2="3.3638515"
       id="linearGradient3052"
       xlink:href="#linearGradient3104-5"
       gradientUnits="userSpaceOnUse"
       gradientTransform="translate(-1.982096,-3.047074)" />
    <linearGradient
       inkscape:collect="always"
       xlink:href="#linearGradient3104-5"
       id="linearGradient3015"
       gradientUnits="userSpaceOnUse"
       gradientTransform="translate(-1.982096,-3.047074)"
       x1="22.004084"
       y1="47.813133"
       x2="22.004084"
       y2="3.3638515" />
    <linearGradient
       inkscape:collect="always"
       xlink:href="#linearGradient3029"
       id="linearGradient3019"
       gradientUnits="userSpaceOnUse"
       gradientTransform="matrix(0.89189189,0,0,1.1351351,2.5945999,-4.7432314)"
       x1="23.99999"
       y1="5.5641499"
       x2="23.99999"
       y2="42.110645" />
    <radialGradient
       inkscape:collect="always"
       xlink:href="#linearGradient5060"
       id="radialGradient3025"
       gradientUnits="userSpaceOnUse"
       gradientTransform="matrix(0.02303995,0,0,0.01470022,26.360882,38.415176)"
       cx="605.71429"
       cy="486.64789"
       fx="605.71429"
       fy="486.64789"
       r="117.14286" />
    <radialGradient
       inkscape:collect="always"
       xlink:href="#linearGradient5060"
       id="radialGradient3028"
       gradientUnits="userSpaceOnUse"
       gradientTransform="matrix(-0.02303994,0,0,0.01470022,21.62311,38.415176)"
       cx="605.71429"
       cy="486.64789"
       fx="605.71429"
       fy="486.64789"
       r="117.14286" />
    <linearGradient
       inkscape:collect="always"
       xlink:href="#linearGradient5048"
       id="linearGradient3031"
       gradientUnits="userSpaceOnUse"
       gradientTransform="matrix(0.06732488,0,0,0.01470022,-0.3411391,38.415146)"
       x1="302.85715"
       y1="366.64789"
       x2="302.85715"
       y2="609.50507" />
    <linearGradient
       inkscape:collect="always"
       xlink:href="#linearGradient3897-7"
       id="linearGradient3289"
       gradientUnits="userSpaceOnUse"
       gradientTransform="matrix(0.39056994,0,0,-0.39056994,-0.8729074,48.438192)"
       x1="91.308151"
       y1="98.191689"
       x2="95.18235"
       y2="102.06589" />
    <linearGradient
       id="linearGradient3897-7">
      <stop
         id="stop3899-4"
         style="stop-color:#fcfcfc;stop-opacity:1"
         offset="0" />
      <stop
         id="stop3907-4"
         style="stop-color:#e1e1e1;stop-opacity:1;"
         offset="1" />
    </linearGradient>
    <filter
       inkscape:collect="always"
       id="filter4740"
       x="-1.2070312"
       width="3.4140625"
       y="-1.1930501"
       height="3.3861003"
       color-interpolation-filters="sRGB">
      <feGaussianBlur
         inkscape:collect="always"
         stdDeviation="7.6800744"
         id="feGaussianBlur4742" />
    </filter>
    <clipPath
       clipPathUnits="userSpaceOnUse"
       id="clipPath3823">
      <path
         sodipodi:nodetypes="cccccc"
         d="m 10.7586,0.49719902 c 5.083838,0 18.361576,0.001998 18.361576,0.001998 l 12.308735,12.55734898 3.2e-5,26.002479 c 0,0 -20.446895,0 -30.670343,0 0,-12.853941 0,-25.707883 0,-38.56182592 z"
         inkscape:connector-curvature="0"
         id="path3825"
         style="fill:#ffffff;fill-opacity:1;stroke:none;display:inline" />
    </clipPath>
    <clipPath
       clipPathUnits="userSpaceOnUse"
       id="clipPath4113">
      <path
         sodipodi:nodetypes="cccccc"
         d="m 6.4999609,1.872199 c 5.8015241,0 20.9536831,0.00228 20.9536831,0.00228 l 14.046362,14.330072 3.6e-5,29.673255 c 0,0 -23.333387,0 -35.0000811,0 0,-14.668535 0,-29.33707 0,-44.005607 z"
         inkscape:connector-curvature="0"
         id="path4115"
         style="fill:#ffffff;fill-opacity:1;stroke:none;display:inline" />
    </clipPath>
    <clipPath
       clipPathUnits="userSpaceOnUse"
       id="clipPath4160">
      <path
         sodipodi:nodetypes="cccccc"
         d="m 6.4999609,1.872199 c 5.8015241,0 20.9536831,0.00228 20.9536831,0.00228 l 14.046362,14.330072 3.6e-5,29.673255 c 0,0 -23.333387,0 -35.0000811,0 0,-14.668535 0,-29.33707 0,-44.005607 z"
         inkscape:connector-curvature="0"
         id="path4162"
         style="fill:#ffffff;fill-opacity:1;stroke:none;display:inline" />
    </clipPath>
    <radialGradient
       r="10.625"
       fy="4.625"
       fx="62.625"
       cy="4.625"
       cx="62.625"
       gradientTransform="matrix(2.1647059,0,0,0.7529402,-111.56471,36.517647)"
       gradientUnits="userSpaceOnUse"
       id="radialGradient3801"
       xlink:href="#linearGradient8838"
       inkscape:collect="always" />
    <linearGradient
       y2="45"
       x2="37.201294"
       y1="1"
       x1="37.201294"
       gradientUnits="userSpaceOnUse"
       id="linearGradient3798"
       xlink:href="#linearGradient3397"
       inkscape:collect="always" />
    <linearGradient
       y2="45.017357"
       x2="20.758585"
       y1="1"
       x1="20.758585"
       gradientUnits="userSpaceOnUse"
       id="linearGradient3796"
       xlink:href="#linearGradient3309"
       inkscape:collect="always" />
    <linearGradient
       y2="20.895"
       x2="84.63858"
       y1="105.105"
       x1="86.132919"
       gradientTransform="matrix(0.3244803,0,0,0.3244803,3.2332655,2.5577454)"
       gradientUnits="userSpaceOnUse"
       id="linearGradient3793"
       xlink:href="#linearGradient5128"
       inkscape:collect="always" />
    <linearGradient
       y2="20.895"
       x2="84.63858"
       y1="105.105"
       x1="86.132919"
       gradientTransform="matrix(0.3244803,0,0,0.3244803,3.2332655,2.5577454)"
       gradientUnits="userSpaceOnUse"
       id="linearGradient3789"
       xlink:href="#linearGradient5128"
       inkscape:collect="always" />
    <linearGradient
       y2="45"
       x2="37.201294"
       y1="1"
       x1="37.201294"
       gradientUnits="userSpaceOnUse"
       id="linearGradient3787"
       xlink:href="#linearGradient3397"
       inkscape:collect="always" />
    <linearGradient
       y2="45.017357"
       x2="20.758585"
       y1="1"
       x1="20.758585"
       gradientUnits="userSpaceOnUse"
       id="linearGradient3785"
       xlink:href="#linearGradient3309"
       inkscape:collect="always" />
    <radialGradient
       r="10.625"
       fy="4.625"
       fx="62.625"
       cy="4.625"
       cx="62.625"
       gradientTransform="matrix(2.1647059,0,0,0.7529402,-111.56471,36.517647)"
       gradientUnits="userSpaceOnUse"
       id="radialGradient3783"
       xlink:href="#linearGradient8838"
       inkscape:collect="always" />
    <linearGradient
       gradientTransform="matrix(0.3244803,0,0,0.3244803,3.2332655,2.5577454)"
       gradientUnits="userSpaceOnUse"
       xlink:href="#linearGradient5128"
       id="linearGradient2512"
       y2="20.895"
       x2="84.63858"
       y1="105.105"
       x1="86.132919" />
    <linearGradient
       id="linearGradient5128">
      <stop
         offset="0"
         style="stop-color:#acbacc;stop-opacity:1;"
         id="stop5130" />
      <stop
         offset="1"
         style="stop-color:#97a3c0;stop-opacity:1;"
         id="stop5132" />
    </linearGradient>
    <linearGradient
       gradientUnits="userSpaceOnUse"
       xlink:href="#linearGradient3309"
       id="linearGradient2515"
       y2="45.017357"
       x2="20.758585"
       y1="1"
       x1="20.758585" />
    <linearGradient
       gradientUnits="userSpaceOnUse"
       id="linearGradient3309"
       y2="122.8994"
       x2="63.9995"
       y1="3.1001"
       x1="63.9995">
      <stop
         offset="0"
         style="stop-color:#cad8ea;stop-opacity:1;"
         id="stop3311" />
      <stop
         offset="1"
         style="stop-color:#687088;stop-opacity:1;"
         id="stop3313" />
    </linearGradient>
    <linearGradient
       gradientUnits="userSpaceOnUse"
       xlink:href="#linearGradient3397"
       id="linearGradient2517"
       y2="45"
       x2="37.201294"
       y1="1"
       x1="37.201294" />
    <linearGradient
       id="linearGradient3397">
      <stop
         offset="0"
         style="stop-color:#4a5877;stop-opacity:1;"
         id="stop3399" />
      <stop
         offset="1"
         style="stop-color:#2b3249;stop-opacity:1;"
         id="stop3401" />
    </linearGradient>
    <radialGradient
       gradientTransform="matrix(2.1647059,0,0,0.7529402,-111.56471,36.517647)"
       gradientUnits="userSpaceOnUse"
       xlink:href="#linearGradient8838"
       id="radialGradient2436"
       fy="4.625"
       fx="62.625"
       r="10.625"
       cy="4.625"
       cx="62.625" />
    <linearGradient
       id="linearGradient8838">
      <stop
         offset="0"
         style="stop-color:#000000;stop-opacity:1"
         id="stop8840" />
      <stop
         offset="1"
         style="stop-color:#000000;stop-opacity:0"
         id="stop8842" />
    </linearGradient>
    <linearGradient
       inkscape:collect="always"
       xlink:href="#linearGradient3897-7"
       id="linearGradient3118"
       gradientUnits="userSpaceOnUse"
       gradientTransform="matrix(0.08072689,0,0,-0.0821514,3.3166082,12.364377)"
       x1="91.308151"
       y1="98.191689"
       x2="95.18235"
       y2="102.06589" />
    <linearGradient
       inkscape:collect="always"
       xlink:href="#linearGradient3600"
       id="linearGradient3125"
       gradientUnits="userSpaceOnUse"
       gradientTransform="matrix(0.28571362,0,0,0.26073316,1.1428732,1.342412)"
       x1="25.132275"
       y1="0.98520643"
       x2="25.132275"
       y2="47.013336" />
    <clipPath
       clipPathUnits="userSpaceOnUse"
       id="clipPath3907">
      <path
         sodipodi:nodetypes="cccccc"
         d="m 3.0000006,2.0001614 c 1.6575744,0 5.9867526,6.272e-4 5.9867526,6.272e-4 L 12.99999,5.9083854 13,13.999839 c 0,0 -6.666666,0 -9.9999994,0 0,-3.9998903 0,-7.9997809 0,-11.9996721 z"
         inkscape:connector-curvature="0"
         id="path3909"
         style="fill:url(#linearGradient3911);fill-opacity:1;stroke:none;display:inline" />
    </clipPath>
    <linearGradient
       inkscape:collect="always"
       xlink:href="#linearGradient3600"
       id="linearGradient3911"
       gradientUnits="userSpaceOnUse"
       gradientTransform="matrix(0.28571362,0,0,0.26073316,1.1428732,1.342412)"
       x1="25.132275"
       y1="0.98520643"
       x2="25.132275"
       y2="47.013336" />
    <radialGradient
       inkscape:collect="always"
       xlink:href="#linearGradient3915"
       id="radialGradient3923"
       cx="8"
       cy="13.951243"
       fx="8"
       fy="13.951243"
       r="5.9999995"
       gradientTransform="matrix(1,0,0,2.3231242,0,-17.467513)"
       gradientUnits="userSpaceOnUse" />
    <linearGradient
       inkscape:collect="always"
       xlink:href="#linearGradient3934"
       id="linearGradient3940"
       gradientUnits="userSpaceOnUse"
       gradientTransform="matrix(0.28571362,0,0,0.26073316,1.1428732,1.342412)"
       x1="25.132275"
       y1="0.98520643"
       x2="25.132275"
       y2="47.013336" />
    <linearGradient
       y2="456.40686"
       x2="432.74045"
       y1="542.38678"
       x1="484.40863"
       gradientTransform="matrix(0.87967871,0.25229434,-0.25229434,0.87967871,178.74853,-57.22537)"
       gradientUnits="userSpaceOnUse"
       id="linearGradient3066"
       xlink:href="#linearGradient4333-6"
       inkscape:collect="always" />
    <radialGradient
       r="13.999958"
       fy="536.46356"
       fx="394.56799"
       cy="536.46356"
       cx="394.56799"
       gradientTransform="matrix(0.74570573,1.2916038,-0.96776872,0.55873995,622.31177,-283.72494)"
       gradientUnits="userSpaceOnUse"
       id="radialGradient3064"
       xlink:href="#linearGradient4613"
       inkscape:collect="always" />
    <radialGradient
       r="16.006945"
       fy="501.05939"
       fx="422.68771"
       cy="501.05939"
       cx="422.68771"
       gradientTransform="matrix(0.54863714,2.047545,-1.2873697,0.34494911,835.8342,-538.52615)"
       gradientUnits="userSpaceOnUse"
       id="radialGradient4258"
       xlink:href="#linearGradient3993"
       inkscape:collect="always" />
    <radialGradient
       r="16.006945"
       fy="501.05939"
       fx="422.68771"
       cy="501.05939"
       cx="422.68771"
       gradientTransform="matrix(0.54863714,2.047545,-1.2873697,0.34494911,835.8342,-538.52615)"
       gradientUnits="userSpaceOnUse"
       id="radialGradient4256"
       xlink:href="#linearGradient3993"
       inkscape:collect="always" />
    <radialGradient
       r="16.006945"
       fy="501.05939"
       fx="422.68771"
       cy="501.05939"
       cx="422.68771"
       gradientTransform="matrix(0.54863714,2.047545,-1.2873697,0.34494911,835.8342,-538.52615)"
       gradientUnits="userSpaceOnUse"
       id="radialGradient4254"
       xlink:href="#linearGradient3993"
       inkscape:collect="always" />
    <radialGradient
       r="16.006945"
       fy="501.05939"
       fx="422.68771"
       cy="501.05939"
       cx="422.68771"
       gradientTransform="matrix(0.54863714,2.047545,-1.2873697,0.34494911,835.8342,-538.52615)"
       gradientUnits="userSpaceOnUse"
       id="radialGradient4252"
       xlink:href="#linearGradient3993"
       inkscape:collect="always" />
    <radialGradient
       r="13.999958"
       fy="536.46356"
       fx="394.56799"
       cy="536.46356"
       cx="394.56799"
       gradientTransform="matrix(0.74570573,1.2916038,-0.96776872,0.55873995,622.31177,-283.72494)"
       gradientUnits="userSpaceOnUse"
       id="radialGradient4242"
       xlink:href="#linearGradient4613"
       inkscape:collect="always" />
    <clipPath
       id="clipPath4238"
       clipPathUnits="userSpaceOnUse">
      <circle
         transform="matrix(4.2857178,0,0,4.2857178,-1268.1797,-1795.4409)"
         style="fill:url(#radialGradient4242);fill-opacity:1;stroke:none"
         id="circle4240"
         cx="400.57144"
         cy="531.79797"
         r="13.999958"
         d="m 414.5714,531.79797 c 0,7.73197 -6.268,13.99996 -13.99996,13.99996 -7.73196,0 -13.99996,-6.26799 -13.99996,-13.99996 0,-7.73196 6.268,-13.99995 13.99996,-13.99995 7.73196,0 13.99996,6.26799 13.99996,13.99995 z"
         sodipodi:cx="400.57144"
         sodipodi:cy="531.79797"
         sodipodi:rx="13.999958"
         sodipodi:ry="13.999958" />
    </clipPath>
    <linearGradient
       y2="456.40686"
       x2="432.74045"
       y1="542.38678"
       x1="484.40863"
       gradientTransform="matrix(0.87967871,0.25229434,-0.25229434,0.87967871,178.74853,-57.22537)"
       gradientUnits="userSpaceOnUse"
       id="linearGradient4226"
       xlink:href="#linearGradient4333-6"
       inkscape:collect="always" />
    <linearGradient
       id="linearGradient4333-6">
      <stop
         style="stop-color:#e6e6e6;stop-opacity:1;"
         offset="0"
         id="stop4335-0" />
      <stop
         style="stop-color:#ffffff;stop-opacity:1;"
         offset="1"
         id="stop4337-9" />
    </linearGradient>
    <linearGradient
       y2="10.648995"
       x2="11.398323"
       y1="75.628754"
       x1="12.240457"
       gradientTransform="matrix(0.30527986,0,0,0.30527988,11.855285,1013.8507)"
       gradientUnits="userSpaceOnUse"
       id="linearGradient3130"
       xlink:href="#linearGradient4333-6"
       inkscape:collect="always" />
    <radialGradient
       r="13.999958"
       fy="536.46356"
       fx="394.56799"
       cy="536.46356"
       cx="394.56799"
       gradientTransform="matrix(0.74570573,1.2916038,-0.96776872,0.55873995,622.31177,-283.72494)"
       gradientUnits="userSpaceOnUse"
       id="radialGradient4116"
       xlink:href="#linearGradient4613"
       inkscape:collect="always" />
    <radialGradient
       r="13.999958"
       fy="535.84143"
       fx="394.38266"
       cy="535.84143"
       cx="394.38266"
       gradientTransform="matrix(0.75263447,1.3036011,-0.90911383,0.52487712,588.1117,-270.29249)"
       gradientUnits="userSpaceOnUse"
       id="radialGradient4035"
       xlink:href="#linearGradient4613"
       inkscape:collect="always" />
    <clipPath
       id="clipPath4031"
       clipPathUnits="userSpaceOnUse">
      <circle
         sodipodi:ry="13.999958"
         sodipodi:rx="13.999958"
         sodipodi:cy="531.79797"
         sodipodi:cx="400.57144"
         d="m 414.5714,531.79797 c 0,7.73197 -6.268,13.99996 -13.99996,13.99996 -7.73196,0 -13.99996,-6.26799 -13.99996,-13.99996 0,-7.73196 6.268,-13.99995 13.99996,-13.99995 7.73196,0 13.99996,6.26799 13.99996,13.99995 z"
         r="13.999958"
         cy="531.79797"
         cx="400.57144"
         id="circle4033"
         style="fill:url(#radialGradient4035);fill-opacity:1;stroke:none"
         transform="matrix(1.6055766,0,0,1.6055766,-215.26001,-343.25515)" />
    </clipPath>
    <radialGradient
       gradientUnits="userSpaceOnUse"
       gradientTransform="matrix(0.54863714,2.047545,-1.2873697,0.34494911,835.8342,-538.52615)"
       r="16.006945"
       fy="501.05939"
       fx="422.68771"
       cy="501.05939"
       cx="422.68771"
       id="radialGradient4001"
       xlink:href="#linearGradient3993"
       inkscape:collect="always" />
    <linearGradient
       y2="1007.7176"
       x2="36.073566"
       y1="1046.2201"
       x1="3.3645334"
       gradientUnits="userSpaceOnUse"
       id="linearGradient3851"
       xlink:href="#linearGradient4422-5"
       inkscape:collect="always" />
    <linearGradient
       y2="1007.7176"
       x2="36.073566"
       y1="1046.2201"
       x1="3.3645334"
       gradientUnits="userSpaceOnUse"
       id="linearGradient3849"
       xlink:href="#linearGradient4422-5"
       inkscape:collect="always" />
    <linearGradient
       y2="1007.7176"
       x2="36.073566"
       y1="1046.2201"
       x1="3.3645334"
       gradientUnits="userSpaceOnUse"
       id="linearGradient3839"
       xlink:href="#linearGradient4422-5"
       inkscape:collect="always" />
    <linearGradient
       y2="1007.7176"
       x2="36.073566"
       y1="1046.2201"
       x1="3.3645334"
       gradientUnits="userSpaceOnUse"
       id="linearGradient3837"
       xlink:href="#linearGradient4422-5"
       inkscape:collect="always" />
    <linearGradient
       y2="1007.7176"
       x2="36.073566"
       y1="1046.2201"
       x1="3.3645334"
       gradientUnits="userSpaceOnUse"
       id="linearGradient3056"
       xlink:href="#linearGradient4422-5"
       inkscape:collect="always" />
    <linearGradient
       y2="1007.7176"
       x2="36.073566"
       y1="1046.2201"
       x1="3.3645334"
       gradientUnits="userSpaceOnUse"
       id="linearGradient3054"
       xlink:href="#linearGradient4422-5"
       inkscape:collect="always" />
    <linearGradient
       y2="1007.7176"
       x2="36.073566"
       y1="1046.2201"
       x1="3.3645334"
       gradientUnits="userSpaceOnUse"
       id="linearGradient3052-5"
       xlink:href="#linearGradient4422-5"
       inkscape:collect="always" />
    <linearGradient
       y2="1007.7176"
       x2="36.073566"
       y1="1046.2201"
       x1="3.3645334"
       gradientUnits="userSpaceOnUse"
       id="linearGradient3038"
       xlink:href="#linearGradient4422-5"
       inkscape:collect="always" />
    <linearGradient
       y2="1007.7176"
       x2="36.073566"
       y1="1046.2201"
       x1="3.3645334"
       gradientUnits="userSpaceOnUse"
       id="linearGradient3036"
       xlink:href="#linearGradient4422-5"
       inkscape:collect="always" />
    <linearGradient
       y2="1007.7176"
       x2="36.073566"
       y1="1046.2201"
       x1="3.3645334"
       gradientUnits="userSpaceOnUse"
       id="linearGradient3034"
       xlink:href="#linearGradient4422-5"
       inkscape:collect="always" />
    <linearGradient
       y2="1007.7176"
       x2="36.073566"
       y1="1046.2201"
       x1="3.3645334"
       gradientUnits="userSpaceOnUse"
       id="linearGradient3032"
       xlink:href="#linearGradient4422-5"
       inkscape:collect="always" />
    <linearGradient
       id="linearGradient4613">
      <stop
         id="stop4615"
         offset="0"
         style="stop-color:#7fbc51;stop-opacity:1;" />
      <stop
         id="stop4617"
         offset="1"
         style="stop-color:#64ac31;stop-opacity:1;" />
    </linearGradient>
    <linearGradient
       y2="1007.7176"
       x2="36.073566"
       y1="1046.2201"
       x1="3.3645334"
       gradientUnits="userSpaceOnUse"
       id="linearGradient4606"
       xlink:href="#linearGradient4422-5"
       inkscape:collect="always" />
    <linearGradient
       y2="1007.7176"
       x2="36.073566"
       y1="1046.2201"
       x1="3.3645334"
       gradientUnits="userSpaceOnUse"
       id="linearGradient4604"
       xlink:href="#linearGradient4422-5"
       inkscape:collect="always" />
    <linearGradient
       y2="1007.7176"
       x2="36.073566"
       y1="1046.2201"
       x1="3.3645334"
       gradientUnits="userSpaceOnUse"
       id="linearGradient4602"
       xlink:href="#linearGradient4422-5"
       inkscape:collect="always" />
    <linearGradient
       gradientUnits="userSpaceOnUse"
       y2="1007.7176"
       x2="36.073566"
       y1="1046.2201"
       x1="3.3645334"
       id="linearGradient4582"
       xlink:href="#linearGradient4422-5"
       inkscape:collect="always" />
    <linearGradient
       id="linearGradient4422-5">
      <stop
         style="stop-color:#235ea2;stop-opacity:1"
         offset="0"
         id="stop4424-7" />
      <stop
         style="stop-color:#1992f1;stop-opacity:1"
         offset="1"
         id="stop4426-6" />
    </linearGradient>
    <linearGradient
       inkscape:collect="always"
       xlink:href="#linearGradient4398"
       id="linearGradient4491"
       gradientUnits="userSpaceOnUse"
       x1="404.33392"
       y1="516.97302"
       x2="412.17142"
       y2="516.97302" />
    <linearGradient
       inkscape:collect="always"
       id="linearGradient4398">
      <stop
         style="stop-color:#000000;stop-opacity:1;"
         offset="0"
         id="stop4400" />
      <stop
         style="stop-color:#000000;stop-opacity:0;"
         offset="1"
         id="stop4402" />
    </linearGradient>
    <linearGradient
       id="linearGradient3993">
      <stop
         id="stop3995"
         offset="0"
         style="stop-color:#ffffff;stop-opacity:1;" />
      <stop
         id="stop3997"
         offset="1"
         style="stop-color:#d5d5d5;stop-opacity:1;" />
    </linearGradient>
    <linearGradient
       inkscape:collect="always"
       xlink:href="#linearGradient4398"
       id="linearGradient3225"
       gradientUnits="userSpaceOnUse"
       x1="404.33392"
       y1="516.97302"
       x2="412.17142"
       y2="516.97302" />
    <linearGradient
       inkscape:collect="always"
       xlink:href="#linearGradient4422-5"
       id="linearGradient3227"
       gradientUnits="userSpaceOnUse"
       x1="3.3645334"
       y1="1046.2201"
       x2="36.073566"
       y2="1007.7176" />
    <radialGradient
       inkscape:collect="always"
       xlink:href="#linearGradient3993"
       id="radialGradient3229"
       gradientUnits="userSpaceOnUse"
       gradientTransform="matrix(0.54863714,2.047545,-1.2873697,0.34494911,835.8342,-538.52615)"
       cx="422.68771"
       cy="501.05939"
       fx="422.68771"
       fy="501.05939"
       r="16.006945" />
    <radialGradient
       inkscape:collect="always"
       xlink:href="#linearGradient3993"
       id="radialGradient3231"
       gradientUnits="userSpaceOnUse"
       gradientTransform="matrix(0.54863714,2.047545,-1.2873697,0.34494911,835.8342,-538.52615)"
       cx="422.68771"
       cy="501.05939"
       fx="422.68771"
       fy="501.05939"
       r="16.006945" />
    <radialGradient
       inkscape:collect="always"
       xlink:href="#linearGradient3993"
       id="radialGradient3233"
       gradientUnits="userSpaceOnUse"
       gradientTransform="matrix(0.54863714,2.047545,-1.2873697,0.34494911,835.8342,-538.52615)"
       cx="422.68771"
       cy="501.05939"
       fx="422.68771"
       fy="501.05939"
       r="16.006945" />
    <radialGradient
       inkscape:collect="always"
       xlink:href="#linearGradient3993"
       id="radialGradient3235"
       gradientUnits="userSpaceOnUse"
       gradientTransform="matrix(0.54863714,2.047545,-1.2873697,0.34494911,835.8342,-538.52615)"
       cx="422.68771"
       cy="501.05939"
       fx="422.68771"
       fy="501.05939"
       r="16.006945" />
    <radialGradient
       inkscape:collect="always"
       xlink:href="#linearGradient4613"
       id="radialGradient3237"
       gradientUnits="userSpaceOnUse"
       gradientTransform="matrix(0.74570573,1.2916038,-0.96776872,0.55873995,622.31177,-283.72494)"
       cx="394.56799"
       cy="536.46356"
       fx="394.56799"
       fy="536.46356"
       r="13.999958" />
    <linearGradient
       inkscape:collect="always"
       xlink:href="#linearGradient4333-6"
       id="linearGradient3239"
       gradientUnits="userSpaceOnUse"
       gradientTransform="matrix(0.87967871,0.25229434,-0.25229434,0.87967871,178.74853,-57.22537)"
       x1="484.40863"
       y1="542.38678"
       x2="432.74045"
       y2="456.40686" />
    <radialGradient
       inkscape:collect="always"
       xlink:href="#linearGradient4613"
       id="radialGradient3271"
       gradientUnits="userSpaceOnUse"
       gradientTransform="matrix(0.74570573,1.2916038,-0.96776872,0.55873995,622.31177,-283.72494)"
       cx="394.56799"
       cy="536.46356"
       fx="394.56799"
       fy="536.46356"
       r="13.999958" />
    <linearGradient
       inkscape:collect="always"
       xlink:href="#linearGradient4333-6"
       id="linearGradient3273"
       gradientUnits="userSpaceOnUse"
       gradientTransform="matrix(0.87967871,0.25229434,-0.25229434,0.87967871,178.74853,-57.22537)"
       x1="484.40863"
       y1="542.38678"
       x2="432.74045"
       y2="456.40686" />
  </defs>
  <metadata
     id="metadata3906">
    <rdf:RDF>
      <cc:Work
         rdf:about="">
        <dc:format>image/svg+xml</dc:format>
        <dc:type
           rdf:resource="http://purl.org/dc/dcmitype/StillImage" />
        <dc:title />
      </cc:Work>
    </rdf:RDF>
  </metadata>
  <path
     sodipodi:nodetypes="cccccc"
     d="m 3.0000006,2.0001614 c 1.6575744,0 5.9867526,6.272e-4 5.9867526,6.272e-4 L 12.99999,5.9083854 13,13.999839 c 0,0 -6.666666,0 -9.9999994,0 0,-3.9998903 0,-7.9997809 0,-11.9996721 z"
     inkscape:connector-curvature="0"
     id="path3127"
     style="fill:none;fill-opacity:1;stroke:#000000;display:inline;stroke-opacity:0.23529412000000000;stroke-linejoin:round;stroke-width:2;stroke-miterlimit:4;stroke-dasharray:none" />
  <path
     style="fill:none;fill-opacity:1;stroke:url(#radialGradient3923);display:inline;stroke-opacity:0.23529412000000000;stroke-linejoin:round;stroke-width:2;stroke-miterlimit:4;stroke-dasharray:none;opacity:1"
     id="path3913"
     inkscape:connector-curvature="0"
     d="m 3.0000006,2.0001614 c 1.6575744,0 5.9867526,6.272e-4 5.9867526,6.272e-4 L 12.99999,5.9083854 13,13.999839 c 0,0 -6.666666,0 -9.9999994,0 0,-3.9998903 0,-7.9997809 0,-11.9996721 z"
     sodipodi:nodetypes="cccccc" />
  <path
     style="fill:url(#linearGradient3125);fill-opacity:1;stroke:none;display:inline"
     id="path4160"
     inkscape:connector-curvature="0"
     d="m 3.0000006,2.0001614 c 1.6575744,0 5.9867526,6.272e-4 5.9867526,6.272e-4 L 12.99999,5.9083854 13,13.999839 c 0,0 -6.666666,0 -9.9999994,0 0,-3.9998903 0,-7.9997809 0,-11.9996721 z"
     sodipodi:nodetypes="cccccc" />
  <path
     style="fill:url(#linearGradient3940);fill-opacity:1;stroke:none;display:inline;opacity:0.4"
     d="M 3 2 L 3 14 L 13 14 L 13 5.90625 L 9 2 C 9 2 4.6575744 2 3 2 z M 4 3 C 5.3260596 3 8.78125 3 8.78125 3 L 12 6.25 L 12 13 L 4 13 L 4 3 z "
     id="path3929" />
  <path
     sodipodi:nodetypes="cccc"
     d="m 33.033607,8.8038818 c -0.04937,-3.7222332 0.10108,-9.9827279 -2.010715,-13.2718925 0,0 13.793921,13.740947 15.270672,15.4496257 0,0 -2.562442,-2.0299713 -13.259957,-2.1777332 z"
     id="path3805"
     style="opacity:0.9;fill:#000000;fill-opacity:1;stroke:none;filter:url(#filter4740)"
     inkscape:connector-curvature="0"
     clip-path="url(#clipPath3823)"
     transform="matrix(0.32604787,0,0,0.31118009,-0.5078181,1.8454429)" />
  <g
     id="g3261"
     transform="matrix(0.50000006,0,0,0.50000006,27.054813,-51.369067)">
    <circle
       transform="matrix(0.57142885,0,0,0.57143027,-267.00768,-185.14734)"
       style="fill:url(#radialGradient3271);fill-opacity:1;stroke:none"
       id="circle4174"
       cx="400.57144"
       cy="531.79797"
       r="13.999958"
       d="m 414.5714,531.79797 c 0,7.73197 -6.268,13.99996 -13.99996,13.99996 -7.73196,0 -13.99996,-6.26799 -13.99996,-13.99996 0,-7.73196 6.268,-13.99995 13.99996,-13.99995 7.73196,0 13.99996,6.26799 13.99996,13.99995 z"
       sodipodi:cx="400.57144"
       sodipodi:cy="531.79797"
       sodipodi:rx="13.999958"
       sodipodi:ry="13.999958" />
    <path
       inkscape:connector-curvature="0"
       id="path4268"
       d="m 476.46034,450.87098 c -2.53524,-0.47263 -4.01666,1.97188 -4.01666,1.97188 l -23.24442,39.86426 c 0,0 -4.13958,6.12926 2.23848,4.53941 l 16.95476,-4.24118 1.41252,5.55205 9.58161,38.4792 c 0.40093,1.60837 0.37461,1.61686 2.57982,1.06714 l 26.46746,-6.60034 c 2.32451,-0.57942 2.30665,-0.59696 1.79787,-2.638 l -9.40558,-37.74442 -1.47902,-5.8389 16.27497,-4.04939 c 5.23591,-1.30515 0.53865,-4.36769 0.53865,-4.36769 0,0 -34.07011,-23.38535 -38.56164,-25.60792 -0.40438,-0.20196 -0.77664,-0.31859 -1.13882,-0.3861 z m -45.6263,11.16145 c -0.36684,-0.0254 -0.916,0.103 -1.78768,0.32032 l -26.43997,6.60824 c -2.20523,0.54969 -2.18262,0.55824 -1.7817,2.16662 l 9.58951,38.45169 1.37714,5.57167 -16.98225,4.23331 c -6.37807,1.58988 0.1678,5.01657 0.1678,5.01657 l 39.25824,24.32014 c 0,0 3.17078,1.8977 5.26887,-1.04748 2.92281,-4.07076 22.02354,-40.69044 22.02354,-40.69044 0,0 2.70186,-4.91779 -2.53403,-3.61262 l -16.24748,4.05727 -1.45152,-5.83102 -9.40559,-37.74442 c -0.31798,-1.27565 -0.44348,-1.77767 -1.05488,-1.81985 z"
       clip-path="url(#clipPath4238)"
       style="opacity:0.25;fill:none;stroke:#000000;stroke-width:5.99999475;stroke-miterlimit:4;stroke-opacity:1;stroke-dasharray:none"
       transform="matrix(0.13333329,0,0,0.13333362,-97.91711,54.24529)" />
    <path
       style="fill:url(#linearGradient3273);fill-opacity:1;stroke:none"
       clip-path="url(#clipPath4238)"
       d="m 476.46034,450.87098 c -2.53524,-0.47263 -4.01666,1.97188 -4.01666,1.97188 l -23.24442,39.86426 c 0,0 -4.13958,6.12926 2.23848,4.53941 l 16.95476,-4.24118 1.41252,5.55205 9.58161,38.4792 c 0.40093,1.60837 0.37461,1.61686 2.57982,1.06714 l 26.46746,-6.60034 c 2.32451,-0.57942 2.30665,-0.59696 1.79787,-2.638 l -9.40558,-37.74442 -1.47902,-5.8389 16.27497,-4.04939 c 5.23591,-1.30515 0.53865,-4.36769 0.53865,-4.36769 0,0 -34.07011,-23.38535 -38.56164,-25.60792 -0.40438,-0.20196 -0.77664,-0.31859 -1.13882,-0.3861 z m -45.6263,11.16145 c -0.36684,-0.0254 -0.916,0.103 -1.78768,0.32032 l -26.43997,6.60824 c -2.20523,0.54969 -2.18262,0.55824 -1.7817,2.16662 l 9.58951,38.45169 1.37714,5.57167 -16.98225,4.23331 c -6.37807,1.58988 0.1678,5.01657 0.1678,5.01657 l 39.25824,24.32014 c 0,0 3.17078,1.8977 5.26887,-1.04748 2.92281,-4.07076 22.02354,-40.69044 22.02354,-40.69044 0,0 2.70186,-4.91779 -2.53403,-3.61262 l -16.24748,4.05727 -1.45152,-5.83102 -9.40559,-37.74442 c -0.31798,-1.27565 -0.44348,-1.77767 -1.05488,-1.81985 z"
       id="path7-8"
       inkscape:connector-curvature="0"
       transform="matrix(0.13333329,0,0,0.13333362,-97.91711,54.24529)" />
    <path
       id="path4359"
       d="m -43.37393,112.68804 c -1.60505,1.46312 -2.6125,3.56955 -2.6125,5.91252 0,4.41828 3.58173,8.00001 8,8.00001 2.34296,0 4.44938,-1.00745 5.91249,-2.6125 -1.42069,1.29126 -3.3081,2.07917 -5.37916,2.07917 -4.41827,0 -8,-3.58174 -8,-8.00002 0,-2.07107 0.78791,-3.95848 2.07917,-5.37918 z"
       style="opacity:0.02000002;fill:#000000;fill-opacity:1;stroke:none"
       inkscape:connector-curvature="0" />
    <path
       inkscape:connector-curvature="0"
       style="opacity:0.03999999;fill:#000000;fill-opacity:1;stroke:none"
       d="m -43.49712,112.82558 c -1.60505,1.46312 -2.6125,3.56955 -2.6125,5.91252 0,4.41827 3.58173,8.00001 8,8.00001 2.34296,0 4.44938,-1.00746 5.91249,-2.6125 -1.42069,1.29125 -3.3081,2.07917 -5.37916,2.07917 -4.41827,0 -8,-3.58174 -8,-8.00002 0,-2.07107 0.78791,-3.95848 2.07917,-5.37918 z"
       id="circle4106" />
    <path
       inkscape:connector-curvature="0"
       style="opacity:0.12000002;fill:#000000;fill-opacity:1;stroke:none"
       d="m -43.63046,112.95058 c -1.52695,1.4569 -2.47916,3.5104 -2.47916,5.78752 0,4.41827 3.58173,8.00001 8,8.00001 2.2771,0 4.33061,-0.95221 5.78749,-2.47917 -1.43579,1.36991 -3.37967,2.21251 -5.52083,2.21251 -4.41826,0 -7.99999,-3.58174 -7.99999,-8.00002 0,-2.14117 0.84258,-4.08505 2.21249,-5.52085 z"
       id="circle4039" />
    <path
       id="path4361"
       d="m -43.50727,112.81305 c -1.52695,1.45689 -2.47916,3.51039 -2.47916,5.78751 0,4.41828 3.58173,8.00001 8,8.00001 2.2771,0 4.3306,-0.95221 5.78749,-2.47917 -1.43579,1.36992 -3.37967,2.21251 -5.52083,2.21251 -4.41826,0 -8,-3.58174 -8,-8.00002 0,-2.14116 0.84259,-4.08505 2.2125,-5.52084 z"
       style="opacity:0.03999999;fill:#000000;fill-opacity:1;stroke:none"
       inkscape:connector-curvature="0" />
    <path
       style="opacity:0.2;fill:#000000;fill-opacity:1;stroke:none"
       d="m -43.95962,113.28392 c -1.33276,1.42905 -2.15,3.34594 -2.15,5.45418 0,4.41827 3.58173,8.00001 8,8.00001 2.37672,0 4.50973,-1.03777 5.97499,-2.68334 -1.46033,1.56585 -3.53996,2.54584 -5.84999,2.54584 -4.41827,0 -8,-3.58174 -8,-8.00001 0,-2.04156 0.76637,-3.90318 2.025,-5.31668 z"
       id="circle4370"
       inkscape:connector-curvature="0" />
  </g>
  <path
     sodipodi:nodetypes="cccc"
     d="m 9.984919,4.9276896 0,-1.9478042 1.999,1.9478042 z"
     id="path3903"
     style="fill:none;fill-opacity:1;stroke:#000000;stroke-opacity:0.15686275000000000;stroke-linejoin:miter;stroke-width:2;stroke-miterlimit:4;stroke-dasharray:none"
     inkscape:connector-curvature="0"
     clip-path="url(#clipPath3907)" />
  <path
     inkscape:connector-curvature="0"
     style="fill:url(#linearGradient3118);fill-opacity:1;stroke:none"
     id="path6011"
     d="m 9.984919,4.9276896 0,-1.9478042 1.999,1.9478042 z"
     sodipodi:nodetypes="cccc" />
  <g
     id="g4434-2-3"
     transform="matrix(0.39473753,0,0,2.1052628,-178.79401,-992.52291)"
     style="fill:url(#linearGradient3225);fill-opacity:1" />
  <circle
     sodipodi:ry="0"
     sodipodi:rx="0"
     sodipodi:cy="531.79791"
     sodipodi:cx="400.57138"
     r="0"
     cy="531.79791"
     cx="400.57138"
     id="ellipse4233"
     style="fill:url(#linearGradient3227);fill-opacity:1;stroke:none"
     transform="matrix(4.2857178,0,0,4.2857178,-1698.8456,-2216.3978)" />
</svg>
