<?xml version="1.0" encoding="UTF-8" standalone="no"?>
<!-- Created with Inkscape (http://www.inkscape.org/) -->

<svg
   xmlns:dc="http://purl.org/dc/elements/1.1/"
   xmlns:cc="http://creativecommons.org/ns#"
   xmlns:rdf="http://www.w3.org/1999/02/22-rdf-syntax-ns#"
   xmlns:svg="http://www.w3.org/2000/svg"
   xmlns="http://www.w3.org/2000/svg"
   xmlns:xlink="http://www.w3.org/1999/xlink"
   xmlns:sodipodi="http://sodipodi.sourceforge.net/DTD/sodipodi-0.dtd"
   xmlns:inkscape="http://www.inkscape.org/namespaces/inkscape"
   version="1.1"
   width="16"
   height="16"
   id="svg3901"
   inkscape:version="0.48.4 r9939"
   sodipodi:docname="font-x-generic.svg">
  <sodipodi:namedview
     pagecolor="#ffffff"
     bordercolor="#666666"
     borderopacity="1"
     objecttolerance="10"
     gridtolerance="10"
     guidetolerance="10"
     inkscape:pageopacity="0"
     inkscape:pageshadow="2"
     inkscape:window-width="1278"
     inkscape:window-height="902"
     id="namedview37"
     showgrid="false"
     inkscape:zoom="28.963094"
     inkscape:cx="11.009391"
     inkscape:cy="10.538493"
     inkscape:window-x="0"
     inkscape:window-y="24"
     inkscape:window-maximized="0"
     inkscape:current-layer="svg3901"
     showguides="true"
     inkscape:guide-bbox="true" />
  <defs
     id="defs3903">
    <linearGradient
       id="linearGradient3934">
      <stop
         offset="0"
         style="stop-color:#ffffff;stop-opacity:1;"
         id="stop3936" />
      <stop
         offset="1"
         style="stop-color:#ffffff;stop-opacity:0;"
         id="stop3938" />
    </linearGradient>
    <linearGradient
       id="linearGradient3915">
      <stop
         style="stop-color:#000000;stop-opacity:1"
         offset="0"
         id="stop3917" />
      <stop
         style="stop-color:#000000;stop-opacity:0;"
         offset="1"
         id="stop3919" />
    </linearGradient>
    <linearGradient
       x1="23.99999"
       y1="5.5641499"
       x2="23.99999"
       y2="42.110645"
       id="linearGradient3013"
       xlink:href="#linearGradient3029"
       gradientUnits="userSpaceOnUse"
       gradientTransform="matrix(0.89189189,0,0,1.1351351,2.5945999,-4.7432314)" />
    <linearGradient
       id="linearGradient3029">
      <stop
         id="stop3031"
         style="stop-color:#ffffff;stop-opacity:1"
         offset="0" />
      <stop
         id="stop3033"
         style="stop-color:#ffffff;stop-opacity:0.23529412"
         offset="0.01487851" />
      <stop
         id="stop3035"
         style="stop-color:#ffffff;stop-opacity:0.15686275"
         offset="0.98463625" />
      <stop
         id="stop3037"
         style="stop-color:#ffffff;stop-opacity:0.39215687"
         offset="1" />
    </linearGradient>
    <linearGradient
       x1="25.132275"
       y1="0.98520643"
       x2="25.132275"
       y2="47.013336"
       id="linearGradient3016"
       xlink:href="#linearGradient3600"
       gradientUnits="userSpaceOnUse"
       gradientTransform="matrix(1,0,0,0.9561695,-9.9999999e-8,-1.9149218)" />
    <linearGradient
       id="linearGradient3600">
      <stop
         id="stop3602"
         style="stop-color:#dadada;stop-opacity:1;"
         offset="0" />
      <stop
         id="stop3604"
         style="stop-color:#ffffff;stop-opacity:1;"
         offset="1" />
    </linearGradient>
    <radialGradient
       cx="605.71429"
       cy="486.64789"
       r="117.14286"
       fx="605.71429"
       fy="486.64789"
       id="radialGradient3021"
       xlink:href="#linearGradient5060"
       gradientUnits="userSpaceOnUse"
       gradientTransform="matrix(0.02303995,0,0,0.01470022,26.360882,37.040176)" />
    <linearGradient
       id="linearGradient5060">
      <stop
         id="stop5062"
         style="stop-color:#000000;stop-opacity:1"
         offset="0" />
      <stop
         id="stop5064"
         style="stop-color:#000000;stop-opacity:0"
         offset="1" />
    </linearGradient>
    <radialGradient
       cx="605.71429"
       cy="486.64789"
       r="117.14286"
       fx="605.71429"
       fy="486.64789"
       id="radialGradient3024"
       xlink:href="#linearGradient5060"
       gradientUnits="userSpaceOnUse"
       gradientTransform="matrix(-0.02303994,0,0,0.01470022,21.62311,37.040176)" />
    <linearGradient
       id="linearGradient5048">
      <stop
         id="stop5050"
         style="stop-color:#000000;stop-opacity:0"
         offset="0" />
      <stop
         id="stop5056"
         style="stop-color:#000000;stop-opacity:1"
         offset="0.5" />
      <stop
         id="stop5052"
         style="stop-color:#000000;stop-opacity:0"
         offset="1" />
    </linearGradient>
    <linearGradient
       x1="302.85715"
       y1="366.64789"
       x2="302.85715"
       y2="609.50507"
       id="linearGradient3899"
       xlink:href="#linearGradient5048"
       gradientUnits="userSpaceOnUse"
       gradientTransform="matrix(0.06732488,0,0,0.01470022,-0.3411391,37.040146)" />
    <linearGradient
       id="linearGradient3104-5">
      <stop
         id="stop3106-2"
         style="stop-color:#aaaaaa;stop-opacity:1"
         offset="0" />
      <stop
         id="stop3108-5"
         style="stop-color:#c8c8c8;stop-opacity:1"
         offset="1" />
    </linearGradient>
    <linearGradient
       x1="22.004084"
       y1="47.813133"
       x2="22.004084"
       y2="3.3638515"
       id="linearGradient3052"
       xlink:href="#linearGradient3104-5"
       gradientUnits="userSpaceOnUse"
       gradientTransform="translate(-1.982096,-3.047074)" />
    <linearGradient
       inkscape:collect="always"
       xlink:href="#linearGradient3104-5"
       id="linearGradient3015"
       gradientUnits="userSpaceOnUse"
       gradientTransform="translate(-1.982096,-3.047074)"
       x1="22.004084"
       y1="47.813133"
       x2="22.004084"
       y2="3.3638515" />
    <linearGradient
       inkscape:collect="always"
       xlink:href="#linearGradient3029"
       id="linearGradient3019"
       gradientUnits="userSpaceOnUse"
       gradientTransform="matrix(0.89189189,0,0,1.1351351,2.5945999,-4.7432314)"
       x1="23.99999"
       y1="5.5641499"
       x2="23.99999"
       y2="42.110645" />
    <radialGradient
       inkscape:collect="always"
       xlink:href="#linearGradient5060"
       id="radialGradient3025"
       gradientUnits="userSpaceOnUse"
       gradientTransform="matrix(0.02303995,0,0,0.01470022,26.360882,38.415176)"
       cx="605.71429"
       cy="486.64789"
       fx="605.71429"
       fy="486.64789"
       r="117.14286" />
    <radialGradient
       inkscape:collect="always"
       xlink:href="#linearGradient5060"
       id="radialGradient3028"
       gradientUnits="userSpaceOnUse"
       gradientTransform="matrix(-0.02303994,0,0,0.01470022,21.62311,38.415176)"
       cx="605.71429"
       cy="486.64789"
       fx="605.71429"
       fy="486.64789"
       r="117.14286" />
    <linearGradient
       inkscape:collect="always"
       xlink:href="#linearGradient5048"
       id="linearGradient3031"
       gradientUnits="userSpaceOnUse"
       gradientTransform="matrix(0.06732488,0,0,0.01470022,-0.3411391,38.415146)"
       x1="302.85715"
       y1="366.64789"
       x2="302.85715"
       y2="609.50507" />
    <linearGradient
       inkscape:collect="always"
       xlink:href="#linearGradient3897-7"
       id="linearGradient3289"
       gradientUnits="userSpaceOnUse"
       gradientTransform="matrix(0.39056994,0,0,-0.39056994,-0.8729074,48.438192)"
       x1="91.308151"
       y1="98.191689"
       x2="95.18235"
       y2="102.06589" />
    <linearGradient
       id="linearGradient3897-7">
      <stop
         id="stop3899-4"
         style="stop-color:#fcfcfc;stop-opacity:1"
         offset="0" />
      <stop
         id="stop3907-4"
         style="stop-color:#e1e1e1;stop-opacity:1;"
         offset="1" />
    </linearGradient>
    <filter
       inkscape:collect="always"
       id="filter4740"
       x="-1.2070312"
       width="3.4140625"
       y="-1.1930501"
       height="3.3861003"
       color-interpolation-filters="sRGB">
      <feGaussianBlur
         inkscape:collect="always"
         stdDeviation="7.6800744"
         id="feGaussianBlur4742" />
    </filter>
    <clipPath
       clipPathUnits="userSpaceOnUse"
       id="clipPath3823">
      <path
         sodipodi:nodetypes="cccccc"
         d="m 10.7586,0.49719902 c 5.083838,0 18.361576,0.001998 18.361576,0.001998 l 12.308735,12.55734898 3.2e-5,26.002479 c 0,0 -20.446895,0 -30.670343,0 0,-12.853941 0,-25.707883 0,-38.56182592 z"
         inkscape:connector-curvature="0"
         id="path3825"
         style="fill:#ffffff;fill-opacity:1;stroke:none;display:inline" />
    </clipPath>
    <clipPath
       clipPathUnits="userSpaceOnUse"
       id="clipPath4113">
      <path
         sodipodi:nodetypes="cccccc"
         d="m 6.4999609,1.872199 c 5.8015241,0 20.9536831,0.00228 20.9536831,0.00228 l 14.046362,14.330072 3.6e-5,29.673255 c 0,0 -23.333387,0 -35.0000811,0 0,-14.668535 0,-29.33707 0,-44.005607 z"
         inkscape:connector-curvature="0"
         id="path4115"
         style="fill:#ffffff;fill-opacity:1;stroke:none;display:inline" />
    </clipPath>
    <clipPath
       clipPathUnits="userSpaceOnUse"
       id="clipPath4160">
      <path
         sodipodi:nodetypes="cccccc"
         d="m 6.4999609,1.872199 c 5.8015241,0 20.9536831,0.00228 20.9536831,0.00228 l 14.046362,14.330072 3.6e-5,29.673255 c 0,0 -23.333387,0 -35.0000811,0 0,-14.668535 0,-29.33707 0,-44.005607 z"
         inkscape:connector-curvature="0"
         id="path4162"
         style="fill:#ffffff;fill-opacity:1;stroke:none;display:inline" />
    </clipPath>
    <radialGradient
       r="10.625"
       fy="4.625"
       fx="62.625"
       cy="4.625"
       cx="62.625"
       gradientTransform="matrix(2.1647059,0,0,0.7529402,-111.56471,36.517647)"
       gradientUnits="userSpaceOnUse"
       id="radialGradient3801"
       xlink:href="#linearGradient8838"
       inkscape:collect="always" />
    <linearGradient
       y2="45"
       x2="37.201294"
       y1="1"
       x1="37.201294"
       gradientUnits="userSpaceOnUse"
       id="linearGradient3798"
       xlink:href="#linearGradient3397"
       inkscape:collect="always" />
    <linearGradient
       y2="45.017357"
       x2="20.758585"
       y1="1"
       x1="20.758585"
       gradientUnits="userSpaceOnUse"
       id="linearGradient3796"
       xlink:href="#linearGradient3309"
       inkscape:collect="always" />
    <linearGradient
       y2="20.895"
       x2="84.63858"
       y1="105.105"
       x1="86.132919"
       gradientTransform="matrix(0.3244803,0,0,0.3244803,3.2332655,2.5577454)"
       gradientUnits="userSpaceOnUse"
       id="linearGradient3793"
       xlink:href="#linearGradient5128"
       inkscape:collect="always" />
    <linearGradient
       y2="20.895"
       x2="84.63858"
       y1="105.105"
       x1="86.132919"
       gradientTransform="matrix(0.3244803,0,0,0.3244803,3.2332655,2.5577454)"
       gradientUnits="userSpaceOnUse"
       id="linearGradient3789"
       xlink:href="#linearGradient5128"
       inkscape:collect="always" />
    <linearGradient
       y2="45"
       x2="37.201294"
       y1="1"
       x1="37.201294"
       gradientUnits="userSpaceOnUse"
       id="linearGradient3787"
       xlink:href="#linearGradient3397"
       inkscape:collect="always" />
    <linearGradient
       y2="45.017357"
       x2="20.758585"
       y1="1"
       x1="20.758585"
       gradientUnits="userSpaceOnUse"
       id="linearGradient3785"
       xlink:href="#linearGradient3309"
       inkscape:collect="always" />
    <radialGradient
       r="10.625"
       fy="4.625"
       fx="62.625"
       cy="4.625"
       cx="62.625"
       gradientTransform="matrix(2.1647059,0,0,0.7529402,-111.56471,36.517647)"
       gradientUnits="userSpaceOnUse"
       id="radialGradient3783"
       xlink:href="#linearGradient8838"
       inkscape:collect="always" />
    <linearGradient
       gradientTransform="matrix(0.3244803,0,0,0.3244803,3.2332655,2.5577454)"
       gradientUnits="userSpaceOnUse"
       xlink:href="#linearGradient5128"
       id="linearGradient2512"
       y2="20.895"
       x2="84.63858"
       y1="105.105"
       x1="86.132919" />
    <linearGradient
       id="linearGradient5128">
      <stop
         offset="0"
         style="stop-color:#acbacc;stop-opacity:1;"
         id="stop5130" />
      <stop
         offset="1"
         style="stop-color:#97a3c0;stop-opacity:1;"
         id="stop5132" />
    </linearGradient>
    <linearGradient
       gradientUnits="userSpaceOnUse"
       xlink:href="#linearGradient3309"
       id="linearGradient2515"
       y2="45.017357"
       x2="20.758585"
       y1="1"
       x1="20.758585" />
    <linearGradient
       gradientUnits="userSpaceOnUse"
       id="linearGradient3309"
       y2="122.8994"
       x2="63.9995"
       y1="3.1001"
       x1="63.9995">
      <stop
         offset="0"
         style="stop-color:#cad8ea;stop-opacity:1;"
         id="stop3311" />
      <stop
         offset="1"
         style="stop-color:#687088;stop-opacity:1;"
         id="stop3313" />
    </linearGradient>
    <linearGradient
       gradientUnits="userSpaceOnUse"
       xlink:href="#linearGradient3397"
       id="linearGradient2517"
       y2="45"
       x2="37.201294"
       y1="1"
       x1="37.201294" />
    <linearGradient
       id="linearGradient3397">
      <stop
         offset="0"
         style="stop-color:#4a5877;stop-opacity:1;"
         id="stop3399" />
      <stop
         offset="1"
         style="stop-color:#2b3249;stop-opacity:1;"
         id="stop3401" />
    </linearGradient>
    <radialGradient
       gradientTransform="matrix(2.1647059,0,0,0.7529402,-111.56471,36.517647)"
       gradientUnits="userSpaceOnUse"
       xlink:href="#linearGradient8838"
       id="radialGradient2436"
       fy="4.625"
       fx="62.625"
       r="10.625"
       cy="4.625"
       cx="62.625" />
    <linearGradient
       id="linearGradient8838">
      <stop
         offset="0"
         style="stop-color:#000000;stop-opacity:1"
         id="stop8840" />
      <stop
         offset="1"
         style="stop-color:#000000;stop-opacity:0"
         id="stop8842" />
    </linearGradient>
    <linearGradient
       inkscape:collect="always"
       xlink:href="#linearGradient3897-7"
       id="linearGradient3118"
       gradientUnits="userSpaceOnUse"
       gradientTransform="matrix(0.08072689,0,0,-0.0821514,3.3166082,12.364377)"
       x1="91.308151"
       y1="98.191689"
       x2="95.18235"
       y2="102.06589" />
    <linearGradient
       inkscape:collect="always"
       xlink:href="#linearGradient3600"
       id="linearGradient3125"
       gradientUnits="userSpaceOnUse"
       gradientTransform="matrix(0.28571362,0,0,0.26073316,1.1428732,1.342412)"
       x1="25.132275"
       y1="0.98520643"
       x2="25.132275"
       y2="47.013336" />
    <clipPath
       clipPathUnits="userSpaceOnUse"
       id="clipPath3907">
      <path
         sodipodi:nodetypes="cccccc"
         d="m 3.0000006,2.0001614 c 1.6575744,0 5.9867526,6.272e-4 5.9867526,6.272e-4 L 12.99999,5.9083854 13,13.999839 c 0,0 -6.666666,0 -9.9999994,0 0,-3.9998903 0,-7.9997809 0,-11.9996721 z"
         inkscape:connector-curvature="0"
         id="path3909"
         style="fill:url(#linearGradient3911);fill-opacity:1;stroke:none;display:inline" />
    </clipPath>
    <linearGradient
       inkscape:collect="always"
       xlink:href="#linearGradient3600"
       id="linearGradient3911"
       gradientUnits="userSpaceOnUse"
       gradientTransform="matrix(0.28571362,0,0,0.26073316,1.1428732,1.342412)"
       x1="25.132275"
       y1="0.98520643"
       x2="25.132275"
       y2="47.013336" />
    <radialGradient
       inkscape:collect="always"
       xlink:href="#linearGradient3915"
       id="radialGradient3923"
       cx="8"
       cy="13.951243"
       fx="8"
       fy="13.951243"
       r="5.9999995"
       gradientTransform="matrix(1,0,0,2.3231242,0,-17.467513)"
       gradientUnits="userSpaceOnUse" />
    <linearGradient
       inkscape:collect="always"
       xlink:href="#linearGradient3934"
       id="linearGradient3940"
       gradientUnits="userSpaceOnUse"
       gradientTransform="matrix(0.28571362,0,0,0.26073316,1.1428732,1.342412)"
       x1="25.132275"
       y1="0.98520643"
       x2="25.132275"
       y2="47.013336" />
    <linearGradient
       y2="68.099167"
       x2="105.73498"
       y1="68.099167"
       x1="30.409529"
       gradientTransform="matrix(0.8660254,-0.5,0.5,0.8660254,-26.114671,40.194713)"
       gradientUnits="userSpaceOnUse"
       id="linearGradient4415"
       xlink:href="#linearGradient4039"
       inkscape:collect="always" />
    <linearGradient
       id="linearGradient4039">
      <stop
         id="stop4041"
         style="stop-color:#7f8893;stop-opacity:1;"
         offset="0" />
      <stop
         id="stop4043"
         style="stop-color:#5f6c77;stop-opacity:1;"
         offset="1" />
    </linearGradient>
    <linearGradient
       y2="4.8347349"
       x2="54.853184"
       y1="4.8347349"
       x1="0.58029073"
       gradientTransform="matrix(1.124158,-0.64903298,-0.77202498,-1.3371864,60.672081,127.07048)"
       gradientUnits="userSpaceOnUse"
       id="linearGradient4417"
       xlink:href="#linearGradient4039"
       inkscape:collect="always" />
    <linearGradient
       id="linearGradient3297">
      <stop
         id="stop3299"
         style="stop-color:#7f8893;stop-opacity:1;"
         offset="0" />
      <stop
         id="stop3301"
         style="stop-color:#5f6c77;stop-opacity:1;"
         offset="1" />
    </linearGradient>
    <linearGradient
       y2="105.98841"
       x2="31.414986"
       y1="110.02519"
       x1="31.39691"
       gradientTransform="translate(-42.713327,21.752306)"
       gradientUnits="userSpaceOnUse"
       id="linearGradient4419"
       xlink:href="#linearGradient4025"
       inkscape:collect="always" />
    <linearGradient
       id="linearGradient4025">
      <stop
         id="stop4027"
         offset="0"
         style="stop-color:#7f8893;stop-opacity:1;" />
      <stop
         id="stop4029"
         offset="1"
         style="stop-color:#bdc3c8;stop-opacity:1;" />
    </linearGradient>
    <linearGradient
       y2="68.099167"
       x2="105.73498"
       y1="68.099167"
       x1="30.409529"
       gradientTransform="matrix(0.8660254,-0.5,0.5,0.8660254,-27.114672,38.462662)"
       gradientUnits="userSpaceOnUse"
       id="linearGradient4421"
       xlink:href="#linearGradient3319"
       inkscape:collect="always" />
    <linearGradient
       id="linearGradient3319">
      <stop
         offset="0"
         style="stop-color:#37404d;stop-opacity:1;"
         id="stop3321" />
      <stop
         offset="1"
         style="stop-color:#363e49;stop-opacity:1;"
         id="stop3323" />
    </linearGradient>
    <linearGradient
       y2="4.8347349"
       x2="56.379429"
       y1="4.9966469"
       x1="0.94633496"
       gradientTransform="matrix(1.124158,-0.64903298,-0.77202498,-1.3371864,59.672081,125.33843)"
       gradientUnits="userSpaceOnUse"
       id="linearGradient4423"
       xlink:href="#linearGradient3319"
       inkscape:collect="always" />
    <linearGradient
       id="linearGradient3312">
      <stop
         offset="0"
         style="stop-color:#37404d;stop-opacity:1;"
         id="stop3314" />
      <stop
         offset="1"
         style="stop-color:#363e49;stop-opacity:1;"
         id="stop3316" />
    </linearGradient>
    <linearGradient
       y2="3.592644"
       x2="24.62738"
       y1="2.9978092"
       x1="24.62738"
       gradientTransform="matrix(1.6354292,-0.9442155,-1.6085502,-2.7860908,52.122687,130.71894)"
       gradientUnits="userSpaceOnUse"
       id="linearGradient4425"
       xlink:href="#linearGradient2346"
       inkscape:collect="always" />
    <linearGradient
       id="linearGradient2346">
      <stop
         offset="0"
         style="stop-color:#ffffff;stop-opacity:1;"
         id="stop2348" />
      <stop
         offset="1"
         style="stop-color:#afafaf;stop-opacity:1;"
         id="stop2350" />
    </linearGradient>
    <radialGradient
       r="17.49832"
       fy="1.3342706"
       fx="35.748631"
       cy="1.3342706"
       cx="35.748631"
       gradientTransform="matrix(2.6038949,-1.5033594,-2.3901568,-4.139873,-78.430923,101.02395)"
       gradientUnits="userSpaceOnUse"
       id="radialGradient4427"
       xlink:href="#linearGradient8967"
       inkscape:collect="always" />
    <linearGradient
       id="linearGradient8967">
      <stop
         offset="0"
         style="stop-color:#dadcde;stop-opacity:1;"
         id="stop8969" />
      <stop
         offset="1"
         style="stop-color:#9aa1ad;stop-opacity:1;"
         id="stop8971" />
    </linearGradient>
    <linearGradient
       y2="59.898777"
       x2="0.032827038"
       y1="4.8347349"
       x1="56.059231"
       gradientTransform="matrix(1.124158,-0.64903298,-0.77202498,-1.3371864,57.67208,121.87433)"
       gradientUnits="userSpaceOnUse"
       id="linearGradient4429"
       xlink:href="#linearGradient3908"
       inkscape:collect="always" />
    <linearGradient
       id="linearGradient3908">
      <stop
         id="stop3910"
         style="stop-color:#9aa1ad;stop-opacity:1;"
         offset="0" />
      <stop
         id="stop3912"
         style="stop-color:#e6e9ea;stop-opacity:1;"
         offset="1" />
    </linearGradient>
  </defs>
  <metadata
     id="metadata3906">
    <rdf:RDF>
      <cc:Work
         rdf:about="">
        <dc:format>image/svg+xml</dc:format>
        <dc:type
           rdf:resource="http://purl.org/dc/dcmitype/StillImage" />
        <dc:title />
      </cc:Work>
    </rdf:RDF>
  </metadata>
  <path
     sodipodi:nodetypes="cccccc"
     d="m 3.0000006,2.0001614 c 1.6575744,0 5.9867526,6.272e-4 5.9867526,6.272e-4 L 12.99999,5.9083854 13,13.999839 c 0,0 -6.666666,0 -9.9999994,0 0,-3.9998903 0,-7.9997809 0,-11.9996721 z"
     inkscape:connector-curvature="0"
     id="path3127"
     style="fill:none;fill-opacity:1;stroke:#000000;display:inline;stroke-opacity:0.23529412000000000;stroke-linejoin:round;stroke-width:2;stroke-miterlimit:4;stroke-dasharray:none" />
  <path
     style="fill:none;fill-opacity:1;stroke:url(#radialGradient3923);display:inline;stroke-opacity:0.23529412000000000;stroke-linejoin:round;stroke-width:2;stroke-miterlimit:4;stroke-dasharray:none;opacity:1"
     id="path3913"
     inkscape:connector-curvature="0"
     d="m 3.0000006,2.0001614 c 1.6575744,0 5.9867526,6.272e-4 5.9867526,6.272e-4 L 12.99999,5.9083854 13,13.999839 c 0,0 -6.666666,0 -9.9999994,0 0,-3.9998903 0,-7.9997809 0,-11.9996721 z"
     sodipodi:nodetypes="cccccc" />
  <path
     style="fill:url(#linearGradient3125);fill-opacity:1;stroke:none;display:inline"
     id="path4160"
     inkscape:connector-curvature="0"
     d="m 3.0000006,2.0001614 c 1.6575744,0 5.9867526,6.272e-4 5.9867526,6.272e-4 L 12.99999,5.9083854 13,13.999839 c 0,0 -6.666666,0 -9.9999994,0 0,-3.9998903 0,-7.9997809 0,-11.9996721 z"
     sodipodi:nodetypes="cccccc" />
  <path
     style="fill:url(#linearGradient3940);fill-opacity:1;stroke:none;display:inline;opacity:0.4"
     d="M 3 2 L 3 14 L 13 14 L 13 5.90625 L 9 2 C 9 2 4.6575744 2 3 2 z M 4 3 C 5.3260596 3 8.78125 3 8.78125 3 L 12 6.25 L 12 13 L 4 13 L 4 3 z "
     id="path3929" />
  <path
     sodipodi:nodetypes="cccc"
     d="m 33.033607,8.8038818 c -0.04937,-3.7222332 0.10108,-9.9827279 -2.010715,-13.2718925 0,0 13.793921,13.740947 15.270672,15.4496257 0,0 -2.562442,-2.0299713 -13.259957,-2.1777332 z"
     id="path3805"
     style="opacity:0.9;fill:#000000;fill-opacity:1;stroke:none;filter:url(#filter4740)"
     inkscape:connector-curvature="0"
     clip-path="url(#clipPath3823)"
     transform="matrix(0.32604787,0,0,0.31118009,-0.5078181,1.8454429)" />
  <g
     id="g3462"
     transform="matrix(0.06839768,0,0,0.06839768,3.6225491,3.5667494)">
    <g
       transform="matrix(1,0,0,0.98391894,0,2.0262258)"
       id="g4477">
      <g
         style="opacity:0.02000002;fill:none;stroke:#000000;stroke-opacity:1"
         transform="matrix(1.0754731,0,0,1.0754731,-133.88706,-4.8163834)"
         id="g4329">
        <path
           sodipodi:nodetypes="cssssccccccc"
           inkscape:connector-curvature="0"
           id="path4331"
           d="m 182.4514,117.25367 51.75115,-29.878545 c 3.24538,-1.87372 4.15039,-6.335257 2.03378,-10.0061 L 200.99782,16.255932 c -2.11694,-3.670656 -6.43702,-5.115486 -9.6824,-3.241761 l -42.79447,24.707395 -5.90172,3.414636 3.83413,6.610981 17.63619,30.546773 8.67948,35.717924 3.83717,6.62145 z"
           style="fill:none;stroke:#000000;stroke-width:2.00699997;stroke-linecap:butt;stroke-linejoin:miter;stroke-miterlimit:6;stroke-opacity:1;stroke-dasharray:none;stroke-dashoffset:0;display:inline" />
        <path
           sodipodi:nodetypes="cssssccccccc"
           inkscape:connector-curvature="0"
           id="path4333"
           d="m 179.44327,112.06221 51.79312,-29.902772 c 3.24539,-1.873717 4.15243,-6.336429 2.03377,-10.00609 L 197.99779,11.059799 c -2.11868,-3.6696552 -6.43703,-5.1154818 -9.68242,-3.2417577 l -51.79313,29.9027777 -5.90172,3.414637 3.86796,6.59145 17.63619,30.546775 17.63619,30.546759 3.83717,6.62146 z"
           style="fill:none;stroke:#000000;stroke-width:2.00699997;stroke-linecap:butt;stroke-linejoin:miter;stroke-miterlimit:6;stroke-opacity:1;stroke-dasharray:none;stroke-dashoffset:0;display:inline" />
      </g>
      <g
         id="g4323"
         transform="matrix(1.0690587,0,0,1.0690587,-132.70682,-4.4070463)"
         style="opacity:0.02000002;fill:none;stroke:#000000;stroke-opacity:1">
        <path
           style="fill:none;stroke:#000000;stroke-width:2.00699997;stroke-linecap:butt;stroke-linejoin:miter;stroke-miterlimit:6;stroke-opacity:1;stroke-dasharray:none;stroke-dashoffset:0;display:inline"
           d="m 182.4514,117.25367 51.75115,-29.878545 c 3.24538,-1.87372 4.15039,-6.335257 2.03378,-10.0061 L 200.99782,16.255932 c -2.11694,-3.670656 -6.43702,-5.115486 -9.6824,-3.241761 l -42.79447,24.707395 -5.90172,3.414636 3.83413,6.610981 17.63619,30.546773 8.67948,35.717924 3.83717,6.62145 z"
           id="path4325"
           inkscape:connector-curvature="0"
           sodipodi:nodetypes="cssssccccccc" />
        <path
           style="fill:none;stroke:#000000;stroke-width:2.00699997;stroke-linecap:butt;stroke-linejoin:miter;stroke-miterlimit:6;stroke-opacity:1;stroke-dasharray:none;stroke-dashoffset:0;display:inline"
           d="m 179.44327,112.06221 51.79312,-29.902772 c 3.24539,-1.873717 4.15243,-6.336429 2.03377,-10.00609 L 197.99779,11.059799 c -2.11868,-3.6696552 -6.43703,-5.1154818 -9.68242,-3.2417577 l -51.79313,29.9027777 -5.90172,3.414637 3.86796,6.59145 17.63619,30.546775 17.63619,30.546759 3.83717,6.62146 z"
           id="path4327"
           inkscape:connector-curvature="0"
           sodipodi:nodetypes="cssssccccccc" />
      </g>
      <g
         style="opacity:0.02000002;fill:none;stroke:#000000;stroke-opacity:1"
         transform="matrix(1.0626826,0,0,1.0626826,-131.53362,-4.0001506)"
         id="g4317">
        <path
           sodipodi:nodetypes="cssssccccccc"
           inkscape:connector-curvature="0"
           id="path4319"
           d="m 182.4514,117.25367 51.75115,-29.878545 c 3.24538,-1.87372 4.15039,-6.335257 2.03378,-10.0061 L 200.99782,16.255932 c -2.11694,-3.670656 -6.43702,-5.115486 -9.6824,-3.241761 l -42.79447,24.707395 -5.90172,3.414636 3.83413,6.610981 17.63619,30.546773 8.67948,35.717924 3.83717,6.62145 z"
           style="fill:none;stroke:#000000;stroke-width:2.00699997;stroke-linecap:butt;stroke-linejoin:miter;stroke-miterlimit:6;stroke-opacity:1;stroke-dasharray:none;stroke-dashoffset:0;display:inline" />
        <path
           sodipodi:nodetypes="cssssccccccc"
           inkscape:connector-curvature="0"
           id="path4321"
           d="m 179.44327,112.06221 51.79312,-29.902772 c 3.24539,-1.873717 4.15243,-6.336429 2.03377,-10.00609 L 197.99779,11.059799 c -2.11868,-3.6696552 -6.43703,-5.1154818 -9.68242,-3.2417577 l -51.79313,29.9027777 -5.90172,3.414637 3.86796,6.59145 17.63619,30.546775 17.63619,30.546759 3.83717,6.62146 z"
           style="fill:none;stroke:#000000;stroke-width:2.00699997;stroke-linecap:butt;stroke-linejoin:miter;stroke-miterlimit:6;stroke-opacity:1;stroke-dasharray:none;stroke-dashoffset:0;display:inline" />
      </g>
      <g
         id="g4311"
         transform="matrix(1.0563445,0,0,1.0563445,-130.36742,-3.5956817)"
         style="opacity:0.02000002;fill:none;stroke:#000000;stroke-opacity:1">
        <path
           style="fill:none;stroke:#000000;stroke-width:2.00699997;stroke-linecap:butt;stroke-linejoin:miter;stroke-miterlimit:6;stroke-opacity:1;stroke-dasharray:none;stroke-dashoffset:0;display:inline"
           d="m 182.4514,117.25367 51.75115,-29.878545 c 3.24538,-1.87372 4.15039,-6.335257 2.03378,-10.0061 L 200.99782,16.255932 c -2.11694,-3.670656 -6.43702,-5.115486 -9.6824,-3.241761 l -42.79447,24.707395 -5.90172,3.414636 3.83413,6.610981 17.63619,30.546773 8.67948,35.717924 3.83717,6.62145 z"
           id="path4313"
           inkscape:connector-curvature="0"
           sodipodi:nodetypes="cssssccccccc" />
        <path
           style="fill:none;stroke:#000000;stroke-width:2.00699997;stroke-linecap:butt;stroke-linejoin:miter;stroke-miterlimit:6;stroke-opacity:1;stroke-dasharray:none;stroke-dashoffset:0;display:inline"
           d="m 179.44327,112.06221 51.79312,-29.902772 c 3.24539,-1.873717 4.15243,-6.336429 2.03377,-10.00609 L 197.99779,11.059799 c -2.11868,-3.6696552 -6.43703,-5.1154818 -9.68242,-3.2417577 l -51.79313,29.9027777 -5.90172,3.414637 3.86796,6.59145 17.63619,30.546775 17.63619,30.546759 3.83717,6.62146 z"
           id="path4315"
           inkscape:connector-curvature="0"
           sodipodi:nodetypes="cssssccccccc" />
      </g>
      <g
         style="opacity:0.02000002;fill:none;stroke:#000000;stroke-opacity:1"
         transform="matrix(1.0500442,0,0,1.0500442,-129.20817,-3.1936252)"
         id="g4305">
        <path
           sodipodi:nodetypes="cssssccccccc"
           inkscape:connector-curvature="0"
           id="path4307"
           d="m 182.4514,117.25367 51.75115,-29.878545 c 3.24538,-1.87372 4.15039,-6.335257 2.03378,-10.0061 L 200.99782,16.255932 c -2.11694,-3.670656 -6.43702,-5.115486 -9.6824,-3.241761 l -42.79447,24.707395 -5.90172,3.414636 3.83413,6.610981 17.63619,30.546773 8.67948,35.717924 3.83717,6.62145 z"
           style="fill:none;stroke:#000000;stroke-width:2.00699997;stroke-linecap:butt;stroke-linejoin:miter;stroke-miterlimit:6;stroke-opacity:1;stroke-dasharray:none;stroke-dashoffset:0;display:inline" />
        <path
           sodipodi:nodetypes="cssssccccccc"
           inkscape:connector-curvature="0"
           id="path4309"
           d="m 179.44327,112.06221 51.79312,-29.902772 c 3.24539,-1.873717 4.15243,-6.336429 2.03377,-10.00609 L 197.99779,11.059799 c -2.11868,-3.6696552 -6.43703,-5.1154818 -9.68242,-3.2417577 l -51.79313,29.9027777 -5.90172,3.414637 3.86796,6.59145 17.63619,30.546775 17.63619,30.546759 3.83717,6.62146 z"
           style="fill:none;stroke:#000000;stroke-width:2.00699997;stroke-linecap:butt;stroke-linejoin:miter;stroke-miterlimit:6;stroke-opacity:1;stroke-dasharray:none;stroke-dashoffset:0;display:inline" />
      </g>
      <g
         id="g4299"
         transform="matrix(1.0437815,0,0,1.0437815,-128.05584,-2.7939666)"
         style="opacity:0.02000002;fill:none;stroke:#000000;stroke-opacity:1">
        <path
           style="fill:none;stroke:#000000;stroke-width:2.00699997;stroke-linecap:butt;stroke-linejoin:miter;stroke-miterlimit:6;stroke-opacity:1;stroke-dasharray:none;stroke-dashoffset:0;display:inline"
           d="m 182.4514,117.25367 51.75115,-29.878545 c 3.24538,-1.87372 4.15039,-6.335257 2.03378,-10.0061 L 200.99782,16.255932 c -2.11694,-3.670656 -6.43702,-5.115486 -9.6824,-3.241761 l -42.79447,24.707395 -5.90172,3.414636 3.83413,6.610981 17.63619,30.546773 8.67948,35.717924 3.83717,6.62145 z"
           id="path4301"
           inkscape:connector-curvature="0"
           sodipodi:nodetypes="cssssccccccc" />
        <path
           style="fill:none;stroke:#000000;stroke-width:2.00699997;stroke-linecap:butt;stroke-linejoin:miter;stroke-miterlimit:6;stroke-opacity:1;stroke-dasharray:none;stroke-dashoffset:0;display:inline"
           d="m 179.44327,112.06221 51.79312,-29.902772 c 3.24539,-1.873717 4.15243,-6.336429 2.03377,-10.00609 L 197.99779,11.059799 c -2.11868,-3.6696552 -6.43703,-5.1154818 -9.68242,-3.2417577 l -51.79313,29.9027777 -5.90172,3.414637 3.86796,6.59145 17.63619,30.546775 17.63619,30.546759 3.83717,6.62146 z"
           id="path4303"
           inkscape:connector-curvature="0"
           sodipodi:nodetypes="cssssccccccc" />
      </g>
      <g
         style="opacity:0.02000002;fill:none;stroke:#000000;stroke-opacity:1"
         transform="matrix(1.0375562,0,0,1.0375562,-126.91038,-2.3966917)"
         id="g4293">
        <path
           sodipodi:nodetypes="cssssccccccc"
           inkscape:connector-curvature="0"
           id="path4295"
           d="m 182.4514,117.25367 51.75115,-29.878545 c 3.24538,-1.87372 4.15039,-6.335257 2.03378,-10.0061 L 200.99782,16.255932 c -2.11694,-3.670656 -6.43702,-5.115486 -9.6824,-3.241761 l -42.79447,24.707395 -5.90172,3.414636 3.83413,6.610981 17.63619,30.546773 8.67948,35.717924 3.83717,6.62145 z"
           style="fill:none;stroke:#000000;stroke-width:2.00699997;stroke-linecap:butt;stroke-linejoin:miter;stroke-miterlimit:6;stroke-opacity:1;stroke-dasharray:none;stroke-dashoffset:0;display:inline" />
        <path
           sodipodi:nodetypes="cssssccccccc"
           inkscape:connector-curvature="0"
           id="path4297"
           d="m 179.44327,112.06221 51.79312,-29.902772 c 3.24539,-1.873717 4.15243,-6.336429 2.03377,-10.00609 L 197.99779,11.059799 c -2.11868,-3.6696552 -6.43703,-5.1154818 -9.68242,-3.2417577 l -51.79313,29.9027777 -5.90172,3.414637 3.86796,6.59145 17.63619,30.546775 17.63619,30.546759 3.83717,6.62146 z"
           style="fill:none;stroke:#000000;stroke-width:2.00699997;stroke-linecap:butt;stroke-linejoin:miter;stroke-miterlimit:6;stroke-opacity:1;stroke-dasharray:none;stroke-dashoffset:0;display:inline" />
      </g>
      <g
         id="g4287"
         transform="matrix(1.031368,0,0,1.031368,-125.77175,-2.0017862)"
         style="opacity:0.02000002;fill:none;stroke:#000000;stroke-opacity:1">
        <path
           style="fill:none;stroke:#000000;stroke-width:2.00699997;stroke-linecap:butt;stroke-linejoin:miter;stroke-miterlimit:6;stroke-opacity:1;stroke-dasharray:none;stroke-dashoffset:0;display:inline"
           d="m 182.4514,117.25367 51.75115,-29.878545 c 3.24538,-1.87372 4.15039,-6.335257 2.03378,-10.0061 L 200.99782,16.255932 c -2.11694,-3.670656 -6.43702,-5.115486 -9.6824,-3.241761 l -42.79447,24.707395 -5.90172,3.414636 3.83413,6.610981 17.63619,30.546773 8.67948,35.717924 3.83717,6.62145 z"
           id="path4289"
           inkscape:connector-curvature="0"
           sodipodi:nodetypes="cssssccccccc" />
        <path
           style="fill:none;stroke:#000000;stroke-width:2.00699997;stroke-linecap:butt;stroke-linejoin:miter;stroke-miterlimit:6;stroke-opacity:1;stroke-dasharray:none;stroke-dashoffset:0;display:inline"
           d="m 179.44327,112.06221 51.79312,-29.902772 c 3.24539,-1.873717 4.15243,-6.336429 2.03377,-10.00609 L 197.99779,11.059799 c -2.11868,-3.6696552 -6.43703,-5.1154818 -9.68242,-3.2417577 l -51.79313,29.9027777 -5.90172,3.414637 3.86796,6.59145 17.63619,30.546775 17.63619,30.546759 3.83717,6.62146 z"
           id="path4291"
           inkscape:connector-curvature="0"
           sodipodi:nodetypes="cssssccccccc" />
      </g>
      <g
         style="opacity:0.02000002;fill:none;stroke:#000000;stroke-opacity:1"
         transform="matrix(1.0252167,0,0,1.0252167,-124.63991,-1.609236)"
         id="g4281">
        <path
           sodipodi:nodetypes="cssssccccccc"
           inkscape:connector-curvature="0"
           id="path4283"
           d="m 182.4514,117.25367 51.75115,-29.878545 c 3.24538,-1.87372 4.15039,-6.335257 2.03378,-10.0061 L 200.99782,16.255932 c -2.11694,-3.670656 -6.43702,-5.115486 -9.6824,-3.241761 l -42.79447,24.707395 -5.90172,3.414636 3.83413,6.610981 17.63619,30.546773 8.67948,35.717924 3.83717,6.62145 z"
           style="fill:none;stroke:#000000;stroke-width:2.00699997;stroke-linecap:butt;stroke-linejoin:miter;stroke-miterlimit:6;stroke-opacity:1;stroke-dasharray:none;stroke-dashoffset:0;display:inline" />
        <path
           sodipodi:nodetypes="cssssccccccc"
           inkscape:connector-curvature="0"
           id="path4285"
           d="m 179.44327,112.06221 51.79312,-29.902772 c 3.24539,-1.873717 4.15243,-6.336429 2.03377,-10.00609 L 197.99779,11.059799 c -2.11868,-3.6696552 -6.43703,-5.1154818 -9.68242,-3.2417577 l -51.79313,29.9027777 -5.90172,3.414637 3.86796,6.59145 17.63619,30.546775 17.63619,30.546759 3.83717,6.62146 z"
           style="fill:none;stroke:#000000;stroke-width:2.00699997;stroke-linecap:butt;stroke-linejoin:miter;stroke-miterlimit:6;stroke-opacity:1;stroke-dasharray:none;stroke-dashoffset:0;display:inline" />
      </g>
      <g
         id="g4275"
         transform="matrix(1.0191021,0,0,1.0191021,-123.51482,-1.219027)"
         style="opacity:0.02000002;fill:none;stroke:#000000;stroke-opacity:1">
        <path
           style="fill:none;stroke:#000000;stroke-width:2.00699997;stroke-linecap:butt;stroke-linejoin:miter;stroke-miterlimit:6;stroke-opacity:1;stroke-dasharray:none;stroke-dashoffset:0;display:inline"
           d="m 182.4514,117.25367 51.75115,-29.878545 c 3.24538,-1.87372 4.15039,-6.335257 2.03378,-10.0061 L 200.99782,16.255932 c -2.11694,-3.670656 -6.43702,-5.115486 -9.6824,-3.241761 l -42.79447,24.707395 -5.90172,3.414636 3.83413,6.610981 17.63619,30.546773 8.67948,35.717924 3.83717,6.62145 z"
           id="path4277"
           inkscape:connector-curvature="0"
           sodipodi:nodetypes="cssssccccccc" />
        <path
           style="fill:none;stroke:#000000;stroke-width:2.00699997;stroke-linecap:butt;stroke-linejoin:miter;stroke-miterlimit:6;stroke-opacity:1;stroke-dasharray:none;stroke-dashoffset:0;display:inline"
           d="m 179.44327,112.06221 51.79312,-29.902772 c 3.24539,-1.873717 4.15243,-6.336429 2.03377,-10.00609 L 197.99779,11.059799 c -2.11868,-3.6696552 -6.43703,-5.1154818 -9.68242,-3.2417577 l -51.79313,29.9027777 -5.90172,3.414637 3.86796,6.59145 17.63619,30.546775 17.63619,30.546759 3.83717,6.62146 z"
           id="path4279"
           inkscape:connector-curvature="0"
           sodipodi:nodetypes="cssssccccccc" />
      </g>
      <g
         style="opacity:0.02000002;fill:none;stroke:#000000;stroke-opacity:1"
         transform="matrix(1.012971,0,0,1.012971,-122.38668,-0.82775878)"
         id="g4269">
        <path
           sodipodi:nodetypes="cssssccccccc"
           inkscape:connector-curvature="0"
           id="path4271"
           d="m 182.4514,117.25367 51.75115,-29.878545 c 3.24538,-1.87372 4.15039,-6.335257 2.03378,-10.0061 L 200.99782,16.255932 c -2.11694,-3.670656 -6.43702,-5.115486 -9.6824,-3.241761 l -42.79447,24.707395 -5.90172,3.414636 3.83413,6.610981 17.63619,30.546773 8.67948,35.717924 3.83717,6.62145 z"
           style="fill:none;stroke:#000000;stroke-width:2.00699997;stroke-linecap:butt;stroke-linejoin:miter;stroke-miterlimit:6;stroke-opacity:1;stroke-dasharray:none;stroke-dashoffset:0;display:inline" />
        <path
           sodipodi:nodetypes="cssssccccccc"
           inkscape:connector-curvature="0"
           id="path4273"
           d="m 179.44327,112.06221 51.79312,-29.902772 c 3.24539,-1.873717 4.15243,-6.336429 2.03377,-10.00609 L 197.99779,11.059799 c -2.11868,-3.6696552 -6.43703,-5.1154818 -9.68242,-3.2417577 l -51.79313,29.9027777 -5.90172,3.414637 3.86796,6.59145 17.63619,30.546775 17.63619,30.546759 3.83717,6.62146 z"
           style="fill:none;stroke:#000000;stroke-width:2.00699997;stroke-linecap:butt;stroke-linejoin:miter;stroke-miterlimit:6;stroke-opacity:1;stroke-dasharray:none;stroke-dashoffset:0;display:inline" />
      </g>
      <g
         id="g4253"
         transform="matrix(1.0064855,0,0,1.0064855,-121.19334,-0.41387939)"
         style="opacity:0.02000002;fill:none;stroke:#000000;stroke-opacity:1">
        <path
           style="fill:none;stroke:#000000;stroke-width:2.00699997;stroke-linecap:butt;stroke-linejoin:miter;stroke-miterlimit:6;stroke-opacity:1;stroke-dasharray:none;stroke-dashoffset:0;display:inline"
           d="m 182.4514,117.25367 51.75115,-29.878545 c 3.24538,-1.87372 4.15039,-6.335257 2.03378,-10.0061 L 200.99782,16.255932 c -2.11694,-3.670656 -6.43702,-5.115486 -9.6824,-3.241761 l -42.79447,24.707395 -5.90172,3.414636 3.83413,6.610981 17.63619,30.546773 8.67948,35.717924 3.83717,6.62145 z"
           id="path4176"
           inkscape:connector-curvature="0"
           sodipodi:nodetypes="cssssccccccc" />
        <path
           style="fill:none;stroke:#000000;stroke-width:2.00699997;stroke-linecap:butt;stroke-linejoin:miter;stroke-miterlimit:6;stroke-opacity:1;stroke-dasharray:none;stroke-dashoffset:0;display:inline"
           d="m 179.44327,112.06221 51.79312,-29.902772 c 3.24539,-1.873717 4.15243,-6.336429 2.03377,-10.00609 L 197.99779,11.059799 c -2.11868,-3.6696552 -6.43703,-5.1154818 -9.68242,-3.2417577 l -51.79313,29.9027777 -5.90172,3.414637 3.86796,6.59145 17.63619,30.546775 17.63619,30.546759 3.83717,6.62146 z"
           id="path4184"
           inkscape:connector-curvature="0"
           sodipodi:nodetypes="cssssccccccc" />
      </g>
    </g>
    <g
       id="g4163">
      <path
         style="fill:url(#linearGradient4415);fill-opacity:1;stroke:url(#linearGradient4417);stroke-width:2.00699997;stroke-linecap:butt;stroke-linejoin:miter;stroke-miterlimit:6;stroke-opacity:1;stroke-dasharray:none;stroke-dashoffset:0;display:inline"
         d="M 62.451397,117.25367 114.20255,87.375125 c 3.24538,-1.87372 4.15039,-6.335257 2.03378,-10.0061 L 80.997823,16.255932 c -2.116944,-3.670656 -6.43702,-5.115486 -9.682407,-3.241761 l -42.794467,24.707395 -5.901723,3.414636 3.834138,6.610981 17.63619,30.546773 8.679479,35.717924 3.837169,6.62145 z"
         id="path4033"
         inkscape:connector-curvature="0"
         sodipodi:nodetypes="cssssccccccc" />
      <rect
         style="fill:url(#linearGradient4419);fill-opacity:1;stroke:none"
         id="rect4023"
         width="2.0030937"
         height="6.1833496"
         x="-12.299886"
         y="127.59479"
         transform="matrix(0.8660254,-0.5,0.5,0.8660254,0,0)" />
      <path
         sodipodi:nodetypes="cssssccccccc"
         inkscape:connector-curvature="0"
         id="path3977"
         d="M 63.182201,114.52234 113.20257,85.643078 c 3.24535,-1.873719 4.1504,-6.335276 2.03375,-10.006093 L 79.997814,14.523886 C 77.88087,10.853232 73.560795,9.4084005 70.315406,11.282123 l -42.794464,24.707399 -5.901724,3.414637 3.834139,6.610983 17.636187,30.546772 10.410286,34.718646 3.837167,6.62144 z"
         style="fill:url(#linearGradient4421);fill-opacity:1;stroke:url(#linearGradient4423);stroke-width:2.00699997;stroke-linecap:butt;stroke-linejoin:miter;stroke-miterlimit:6;stroke-opacity:1;stroke-dasharray:none;stroke-dashoffset:0;display:inline" />
      <path
         d="m 108.44123,76.822824 4.47666,7.8308 -55.22298,31.882996 -4.795027,-8.30223"
         inkscape:connector-curvature="0"
         id="path2723"
         style="fill:url(#linearGradient4425);fill-opacity:1;stroke:none;display:inline"
         sodipodi:nodetypes="cccc" />
      <path
         style="fill:url(#radialGradient4427);fill-opacity:1;stroke:url(#linearGradient4429);stroke-width:2.00699997;stroke-linecap:butt;stroke-linejoin:miter;stroke-miterlimit:6;stroke-opacity:1;stroke-dasharray:none;stroke-dashoffset:0;display:inline"
         d="M 59.443268,112.06221 111.23639,82.159438 c 3.24539,-1.873717 4.15243,-6.336429 2.03377,-10.00609 L 77.997788,11.059799 C 75.879112,7.3901438 71.560759,5.9443172 68.315372,7.8180413 l -51.793129,29.9027777 -5.901726,3.414637 3.867965,6.59145 17.636189,30.546775 17.636187,30.546759 3.837173,6.62146 z"
         id="rect2719"
         inkscape:connector-curvature="0"
         sodipodi:nodetypes="cssssccccccc" />
      <g
         transform="matrix(0.8660254,-0.5,0.5,0.8660254,-484.04358,-792.16725)"
         id="g4128"
         style="font-size:18.4715004px;font-style:normal;font-variant:normal;font-weight:normal;font-stretch:normal;text-align:start;line-height:100%;letter-spacing:0px;word-spacing:0px;text-anchor:start;opacity:0.65;fill:#ffffff;fill-opacity:1;stroke:none;font-family:Liberation Sans;-inkscape-font-specification:Liberation Sans">
        <path
           inkscape:connector-curvature="0"
           id="path4130"
           style="font-size:72px;fill:#ffffff;fill-opacity:1;font-family:Times New Roman;-inkscape-font-specification:Times New Roman"
           d="m 43.539755,991.29187 0,18.73833 8.683594,0 c 1.992162,0 3.445285,-0.4336 4.359375,-1.3008 0.937471,-0.8906 1.558564,-2.6367 1.863281,-5.2383 l 1.300781,0 0,16.1367 -1.300781,0 c -0.02347,-1.8515 -0.269561,-3.2109 -0.738281,-4.0781 -0.445341,-0.8672 -1.078153,-1.5117 -1.898438,-1.9336 -0.796901,-0.4453 -1.992212,-0.668 -3.585937,-0.668 l -8.683594,0 0,14.9766 c -1.5e-5,2.4141 0.152329,4.0078 0.457031,4.7812 0.23436,0.586 0.726547,1.0899 1.476563,1.5118 1.031232,0.5625 2.109356,0.8437 3.234375,0.8437 l 1.722656,0 0,1.3008 -20.460938,0 0,-1.3008 1.6875,0 c 1.968746,0 3.398432,-0.5742 4.289063,-1.7227 0.562492,-0.75 0.843742,-2.5546 0.84375,-5.414 l 0,-30.79689 c -8e-6,-2.41402 -0.152352,-4.00777 -0.457031,-4.78125 -0.234383,-0.5859 -0.714851,-1.0898 -1.441407,-1.51172 -1.007817,-0.56246 -2.085941,-0.8437 -3.234375,-0.84375 l -1.6875,0 0,-1.30078 35.472657,0 0.457031,10.47656 -1.230469,0 c -0.60941,-2.22652 -1.324253,-3.85543 -2.144531,-4.88672 -0.796908,-1.05464 -1.793001,-1.81636 -2.988281,-2.28515 -1.171905,-0.46871 -3.000028,-0.70308 -5.484375,-0.70313 l -10.511719,0" />
      </g>
      <g
         style="font-size:18.4715004px;font-style:normal;font-variant:normal;font-weight:normal;font-stretch:normal;text-align:start;line-height:100%;letter-spacing:0px;word-spacing:0px;text-anchor:start;opacity:0.4;fill:#000000;fill-opacity:1;stroke:none;font-family:Liberation Sans;-inkscape-font-specification:Liberation Sans"
         id="text3188"
         transform="matrix(0.8660254,-0.5,0.5,0.8660254,-484.04358,-793.16725)">
        <path
           d="m 43.539755,991.29187 0,18.73833 8.683594,0 c 1.992162,0 3.445285,-0.4336 4.359375,-1.3008 0.937471,-0.8906 1.558564,-2.6367 1.863281,-5.2383 l 1.300781,0 0,16.1367 -1.300781,0 c -0.02347,-1.8515 -0.269561,-3.2109 -0.738281,-4.0781 -0.445341,-0.8672 -1.078153,-1.5117 -1.898438,-1.9336 -0.796901,-0.4453 -1.992212,-0.668 -3.585937,-0.668 l -8.683594,0 0,14.9766 c -1.5e-5,2.4141 0.152329,4.0078 0.457031,4.7812 0.23436,0.586 0.726547,1.0899 1.476563,1.5118 1.031232,0.5625 2.109356,0.8437 3.234375,0.8437 l 1.722656,0 0,1.3008 -20.460938,0 0,-1.3008 1.6875,0 c 1.968746,0 3.398432,-0.5742 4.289063,-1.7227 0.562492,-0.75 0.843742,-2.5546 0.84375,-5.414 l 0,-30.79689 c -8e-6,-2.41402 -0.152352,-4.00777 -0.457031,-4.78125 -0.234383,-0.5859 -0.714851,-1.0898 -1.441407,-1.51172 -1.007817,-0.56246 -2.085941,-0.8437 -3.234375,-0.84375 l -1.6875,0 0,-1.30078 35.472657,0 0.457031,10.47656 -1.230469,0 c -0.60941,-2.22652 -1.324253,-3.85543 -2.144531,-4.88672 -0.796908,-1.05464 -1.793001,-1.81636 -2.988281,-2.28515 -1.171905,-0.46871 -3.000028,-0.70308 -5.484375,-0.70313 l -10.511719,0"
           style="font-size:72px;fill:#000000;fill-opacity:1;font-family:Times New Roman;-inkscape-font-specification:Times New Roman"
           id="path3221"
           inkscape:connector-curvature="0" />
      </g>
    </g>
  </g>
  <path
     sodipodi:nodetypes="cccc"
     d="m 9.984919,4.9276896 0,-1.9478042 1.999,1.9478042 z"
     id="path3903"
     style="fill:none;fill-opacity:1;stroke:#000000;stroke-opacity:0.15686275000000000;stroke-linejoin:miter;stroke-width:2;stroke-miterlimit:4;stroke-dasharray:none"
     inkscape:connector-curvature="0"
     clip-path="url(#clipPath3907)" />
  <path
     inkscape:connector-curvature="0"
     style="fill:url(#linearGradient3118);fill-opacity:1;stroke:none"
     id="path6011"
     d="m 9.984919,4.9276896 0,-1.9478042 1.999,1.9478042 z"
     sodipodi:nodetypes="cccc" />
</svg>
