<?xml version="1.0" encoding="UTF-8" standalone="no"?>
<!-- Created with Inkscape (http://www.inkscape.org/) -->

<svg
   xmlns:dc="http://purl.org/dc/elements/1.1/"
   xmlns:cc="http://creativecommons.org/ns#"
   xmlns:rdf="http://www.w3.org/1999/02/22-rdf-syntax-ns#"
   xmlns:svg="http://www.w3.org/2000/svg"
   xmlns="http://www.w3.org/2000/svg"
   xmlns:xlink="http://www.w3.org/1999/xlink"
   xmlns:sodipodi="http://sodipodi.sourceforge.net/DTD/sodipodi-0.dtd"
   xmlns:inkscape="http://www.inkscape.org/namespaces/inkscape"
   version="1.1"
   width="16"
   height="16"
   id="svg3901"
   inkscape:version="0.48.4 r9939"
   sodipodi:docname="application-octet-stream (копия).svg">
  <sodipodi:namedview
     pagecolor="#ffffff"
     bordercolor="#666666"
     borderopacity="1"
     objecttolerance="10"
     gridtolerance="10"
     guidetolerance="10"
     inkscape:pageopacity="0"
     inkscape:pageshadow="2"
     inkscape:window-width="1278"
     inkscape:window-height="902"
     id="namedview37"
     showgrid="false"
     inkscape:zoom="28.963094"
     inkscape:cx="11.104674"
     inkscape:cy="10.542435"
     inkscape:window-x="0"
     inkscape:window-y="24"
     inkscape:window-maximized="0"
     inkscape:current-layer="svg3901"
     showguides="true"
     inkscape:guide-bbox="true" />
  <defs
     id="defs3903">
    <linearGradient
       id="linearGradient3934">
      <stop
         offset="0"
         style="stop-color:#000000;stop-opacity:1;"
         id="stop3936" />
      <stop
         offset="1"
         style="stop-color:#000000;stop-opacity:0;"
         id="stop3938" />
    </linearGradient>
    <linearGradient
       id="linearGradient3915">
      <stop
         style="stop-color:#000000;stop-opacity:1"
         offset="0"
         id="stop3917" />
      <stop
         style="stop-color:#000000;stop-opacity:0;"
         offset="1"
         id="stop3919" />
    </linearGradient>
    <linearGradient
       x1="23.99999"
       y1="5.5641499"
       x2="23.99999"
       y2="42.110645"
       id="linearGradient3013"
       xlink:href="#linearGradient3029"
       gradientUnits="userSpaceOnUse"
       gradientTransform="matrix(0.89189189,0,0,1.1351351,2.5945999,-4.7432314)" />
    <linearGradient
       id="linearGradient3029">
      <stop
         id="stop3031"
         style="stop-color:#ffffff;stop-opacity:1"
         offset="0" />
      <stop
         id="stop3033"
         style="stop-color:#ffffff;stop-opacity:0.23529412"
         offset="0.01487851" />
      <stop
         id="stop3035"
         style="stop-color:#ffffff;stop-opacity:0.15686275"
         offset="0.98463625" />
      <stop
         id="stop3037"
         style="stop-color:#ffffff;stop-opacity:0.39215687"
         offset="1" />
    </linearGradient>
    <linearGradient
       x1="25.132275"
       y1="0.98520643"
       x2="25.132275"
       y2="47.013336"
       id="linearGradient3016"
       xlink:href="#linearGradient3600"
       gradientUnits="userSpaceOnUse"
       gradientTransform="matrix(1,0,0,0.9561695,-9.9999999e-8,-1.9149218)" />
    <linearGradient
       id="linearGradient3600">
      <stop
         id="stop3602"
         style="stop-color:#dadada;stop-opacity:1;"
         offset="0" />
      <stop
         id="stop3604"
         style="stop-color:#ffffff;stop-opacity:1;"
         offset="1" />
    </linearGradient>
    <radialGradient
       cx="605.71429"
       cy="486.64789"
       r="117.14286"
       fx="605.71429"
       fy="486.64789"
       id="radialGradient3021"
       xlink:href="#linearGradient5060"
       gradientUnits="userSpaceOnUse"
       gradientTransform="matrix(0.02303995,0,0,0.01470022,26.360882,37.040176)" />
    <linearGradient
       id="linearGradient5060">
      <stop
         id="stop5062"
         style="stop-color:#000000;stop-opacity:1"
         offset="0" />
      <stop
         id="stop5064"
         style="stop-color:#000000;stop-opacity:0"
         offset="1" />
    </linearGradient>
    <radialGradient
       cx="605.71429"
       cy="486.64789"
       r="117.14286"
       fx="605.71429"
       fy="486.64789"
       id="radialGradient3024"
       xlink:href="#linearGradient5060"
       gradientUnits="userSpaceOnUse"
       gradientTransform="matrix(-0.02303994,0,0,0.01470022,21.62311,37.040176)" />
    <linearGradient
       id="linearGradient5048">
      <stop
         id="stop5050"
         style="stop-color:#000000;stop-opacity:0"
         offset="0" />
      <stop
         id="stop5056"
         style="stop-color:#000000;stop-opacity:1"
         offset="0.5" />
      <stop
         id="stop5052"
         style="stop-color:#000000;stop-opacity:0"
         offset="1" />
    </linearGradient>
    <linearGradient
       x1="302.85715"
       y1="366.64789"
       x2="302.85715"
       y2="609.50507"
       id="linearGradient3899"
       xlink:href="#linearGradient5048"
       gradientUnits="userSpaceOnUse"
       gradientTransform="matrix(0.06732488,0,0,0.01470022,-0.3411391,37.040146)" />
    <linearGradient
       id="linearGradient3104-5">
      <stop
         id="stop3106-2"
         style="stop-color:#aaaaaa;stop-opacity:1"
         offset="0" />
      <stop
         id="stop3108-5"
         style="stop-color:#c8c8c8;stop-opacity:1"
         offset="1" />
    </linearGradient>
    <linearGradient
       x1="22.004084"
       y1="47.813133"
       x2="22.004084"
       y2="3.3638515"
       id="linearGradient3052"
       xlink:href="#linearGradient3104-5"
       gradientUnits="userSpaceOnUse"
       gradientTransform="translate(-1.982096,-3.047074)" />
    <linearGradient
       inkscape:collect="always"
       xlink:href="#linearGradient3104-5"
       id="linearGradient3015"
       gradientUnits="userSpaceOnUse"
       gradientTransform="translate(-1.982096,-3.047074)"
       x1="22.004084"
       y1="47.813133"
       x2="22.004084"
       y2="3.3638515" />
    <linearGradient
       inkscape:collect="always"
       xlink:href="#linearGradient3029"
       id="linearGradient3019"
       gradientUnits="userSpaceOnUse"
       gradientTransform="matrix(0.89189189,0,0,1.1351351,2.5945999,-4.7432314)"
       x1="23.99999"
       y1="5.5641499"
       x2="23.99999"
       y2="42.110645" />
    <radialGradient
       inkscape:collect="always"
       xlink:href="#linearGradient5060"
       id="radialGradient3025"
       gradientUnits="userSpaceOnUse"
       gradientTransform="matrix(0.02303995,0,0,0.01470022,26.360882,38.415176)"
       cx="605.71429"
       cy="486.64789"
       fx="605.71429"
       fy="486.64789"
       r="117.14286" />
    <radialGradient
       inkscape:collect="always"
       xlink:href="#linearGradient5060"
       id="radialGradient3028"
       gradientUnits="userSpaceOnUse"
       gradientTransform="matrix(-0.02303994,0,0,0.01470022,21.62311,38.415176)"
       cx="605.71429"
       cy="486.64789"
       fx="605.71429"
       fy="486.64789"
       r="117.14286" />
    <linearGradient
       inkscape:collect="always"
       xlink:href="#linearGradient5048"
       id="linearGradient3031"
       gradientUnits="userSpaceOnUse"
       gradientTransform="matrix(0.06732488,0,0,0.01470022,-0.3411391,38.415146)"
       x1="302.85715"
       y1="366.64789"
       x2="302.85715"
       y2="609.50507" />
    <linearGradient
       inkscape:collect="always"
       xlink:href="#linearGradient3897-7"
       id="linearGradient3289"
       gradientUnits="userSpaceOnUse"
       gradientTransform="matrix(0.39056994,0,0,-0.39056994,-0.8729074,48.438192)"
       x1="91.308151"
       y1="98.191689"
       x2="95.18235"
       y2="102.06589" />
    <linearGradient
       id="linearGradient3897-7">
      <stop
         id="stop3899-4"
         style="stop-color:#fcfcfc;stop-opacity:1"
         offset="0" />
      <stop
         id="stop3907-4"
         style="stop-color:#e1e1e1;stop-opacity:1;"
         offset="1" />
    </linearGradient>
    <filter
       inkscape:collect="always"
       id="filter4740"
       x="-1.2070312"
       width="3.4140625"
       y="-1.1930501"
       height="3.3861003"
       color-interpolation-filters="sRGB">
      <feGaussianBlur
         inkscape:collect="always"
         stdDeviation="7.6800744"
         id="feGaussianBlur4742" />
    </filter>
    <clipPath
       clipPathUnits="userSpaceOnUse"
       id="clipPath3823">
      <path
         sodipodi:nodetypes="cccccc"
         d="m 10.7586,0.49719902 c 5.083838,0 18.361576,0.001998 18.361576,0.001998 l 12.308735,12.55734898 3.2e-5,26.002479 c 0,0 -20.446895,0 -30.670343,0 0,-12.853941 0,-25.707883 0,-38.56182592 z"
         inkscape:connector-curvature="0"
         id="path3825"
         style="fill:#ffffff;fill-opacity:1;stroke:none;display:inline" />
    </clipPath>
    <clipPath
       clipPathUnits="userSpaceOnUse"
       id="clipPath4113">
      <path
         sodipodi:nodetypes="cccccc"
         d="m 6.4999609,1.872199 c 5.8015241,0 20.9536831,0.00228 20.9536831,0.00228 l 14.046362,14.330072 3.6e-5,29.673255 c 0,0 -23.333387,0 -35.0000811,0 0,-14.668535 0,-29.33707 0,-44.005607 z"
         inkscape:connector-curvature="0"
         id="path4115"
         style="fill:#ffffff;fill-opacity:1;stroke:none;display:inline" />
    </clipPath>
    <clipPath
       clipPathUnits="userSpaceOnUse"
       id="clipPath4160">
      <path
         sodipodi:nodetypes="cccccc"
         d="m 6.4999609,1.872199 c 5.8015241,0 20.9536831,0.00228 20.9536831,0.00228 l 14.046362,14.330072 3.6e-5,29.673255 c 0,0 -23.333387,0 -35.0000811,0 0,-14.668535 0,-29.33707 0,-44.005607 z"
         inkscape:connector-curvature="0"
         id="path4162"
         style="fill:#ffffff;fill-opacity:1;stroke:none;display:inline" />
    </clipPath>
    <radialGradient
       r="10.625"
       fy="4.625"
       fx="62.625"
       cy="4.625"
       cx="62.625"
       gradientTransform="matrix(2.1647059,0,0,0.7529402,-111.56471,36.517647)"
       gradientUnits="userSpaceOnUse"
       id="radialGradient3801"
       xlink:href="#linearGradient8838"
       inkscape:collect="always" />
    <linearGradient
       y2="45"
       x2="37.201294"
       y1="1"
       x1="37.201294"
       gradientUnits="userSpaceOnUse"
       id="linearGradient3798"
       xlink:href="#linearGradient3397"
       inkscape:collect="always" />
    <linearGradient
       y2="45.017357"
       x2="20.758585"
       y1="1"
       x1="20.758585"
       gradientUnits="userSpaceOnUse"
       id="linearGradient3796"
       xlink:href="#linearGradient3309"
       inkscape:collect="always" />
    <linearGradient
       y2="20.895"
       x2="84.63858"
       y1="105.105"
       x1="86.132919"
       gradientTransform="matrix(0.3244803,0,0,0.3244803,3.2332655,2.5577454)"
       gradientUnits="userSpaceOnUse"
       id="linearGradient3793"
       xlink:href="#linearGradient5128"
       inkscape:collect="always" />
    <linearGradient
       y2="20.895"
       x2="84.63858"
       y1="105.105"
       x1="86.132919"
       gradientTransform="matrix(0.3244803,0,0,0.3244803,3.2332655,2.5577454)"
       gradientUnits="userSpaceOnUse"
       id="linearGradient3789"
       xlink:href="#linearGradient5128"
       inkscape:collect="always" />
    <linearGradient
       y2="45"
       x2="37.201294"
       y1="1"
       x1="37.201294"
       gradientUnits="userSpaceOnUse"
       id="linearGradient3787"
       xlink:href="#linearGradient3397"
       inkscape:collect="always" />
    <linearGradient
       y2="45.017357"
       x2="20.758585"
       y1="1"
       x1="20.758585"
       gradientUnits="userSpaceOnUse"
       id="linearGradient3785"
       xlink:href="#linearGradient3309"
       inkscape:collect="always" />
    <radialGradient
       r="10.625"
       fy="4.625"
       fx="62.625"
       cy="4.625"
       cx="62.625"
       gradientTransform="matrix(2.1647059,0,0,0.7529402,-111.56471,36.517647)"
       gradientUnits="userSpaceOnUse"
       id="radialGradient3783"
       xlink:href="#linearGradient8838"
       inkscape:collect="always" />
    <linearGradient
       gradientTransform="matrix(0.3244803,0,0,0.3244803,3.2332655,2.5577454)"
       gradientUnits="userSpaceOnUse"
       xlink:href="#linearGradient5128"
       id="linearGradient2512"
       y2="20.895"
       x2="84.63858"
       y1="105.105"
       x1="86.132919" />
    <linearGradient
       id="linearGradient5128">
      <stop
         offset="0"
         style="stop-color:#acbacc;stop-opacity:1;"
         id="stop5130" />
      <stop
         offset="1"
         style="stop-color:#97a3c0;stop-opacity:1;"
         id="stop5132" />
    </linearGradient>
    <linearGradient
       gradientUnits="userSpaceOnUse"
       xlink:href="#linearGradient3309"
       id="linearGradient2515"
       y2="45.017357"
       x2="20.758585"
       y1="1"
       x1="20.758585" />
    <linearGradient
       gradientUnits="userSpaceOnUse"
       id="linearGradient3309"
       y2="122.8994"
       x2="63.9995"
       y1="3.1001"
       x1="63.9995">
      <stop
         offset="0"
         style="stop-color:#cad8ea;stop-opacity:1;"
         id="stop3311" />
      <stop
         offset="1"
         style="stop-color:#687088;stop-opacity:1;"
         id="stop3313" />
    </linearGradient>
    <linearGradient
       gradientUnits="userSpaceOnUse"
       xlink:href="#linearGradient3397"
       id="linearGradient2517"
       y2="45"
       x2="37.201294"
       y1="1"
       x1="37.201294" />
    <linearGradient
       id="linearGradient3397">
      <stop
         offset="0"
         style="stop-color:#4a5877;stop-opacity:1;"
         id="stop3399" />
      <stop
         offset="1"
         style="stop-color:#2b3249;stop-opacity:1;"
         id="stop3401" />
    </linearGradient>
    <radialGradient
       gradientTransform="matrix(2.1647059,0,0,0.7529402,-111.56471,36.517647)"
       gradientUnits="userSpaceOnUse"
       xlink:href="#linearGradient8838"
       id="radialGradient2436"
       fy="4.625"
       fx="62.625"
       r="10.625"
       cy="4.625"
       cx="62.625" />
    <linearGradient
       id="linearGradient8838">
      <stop
         offset="0"
         style="stop-color:#000000;stop-opacity:1"
         id="stop8840" />
      <stop
         offset="1"
         style="stop-color:#000000;stop-opacity:0"
         id="stop8842" />
    </linearGradient>
    <linearGradient
       inkscape:collect="always"
       xlink:href="#linearGradient3897-7-0"
       id="linearGradient3118"
       gradientUnits="userSpaceOnUse"
       gradientTransform="matrix(0.08072689,0,0,-0.0821514,3.3166082,12.364377)"
       x1="91.308151"
       y1="98.191689"
       x2="95.18235"
       y2="102.06589" />
    <linearGradient
       inkscape:collect="always"
       xlink:href="#linearGradient3600-0"
       id="linearGradient3125"
       gradientUnits="userSpaceOnUse"
       gradientTransform="matrix(0.28571362,0,0,0.26073316,1.1428732,1.342412)"
       x1="25.132275"
       y1="0.98520643"
       x2="25.132275"
       y2="47.013336" />
    <clipPath
       clipPathUnits="userSpaceOnUse"
       id="clipPath3907">
      <path
         sodipodi:nodetypes="cccccc"
         d="m 3.0000006,2.0001614 c 1.6575744,0 5.9867526,6.272e-4 5.9867526,6.272e-4 L 12.99999,5.9083854 13,13.999839 c 0,0 -6.666666,0 -9.9999994,0 0,-3.9998903 0,-7.9997809 0,-11.9996721 z"
         inkscape:connector-curvature="0"
         id="path3909"
         style="fill:url(#linearGradient3911);fill-opacity:1;stroke:none;display:inline" />
    </clipPath>
    <linearGradient
       inkscape:collect="always"
       xlink:href="#linearGradient3600"
       id="linearGradient3911"
       gradientUnits="userSpaceOnUse"
       gradientTransform="matrix(0.28571362,0,0,0.26073316,1.1428732,1.342412)"
       x1="25.132275"
       y1="0.98520643"
       x2="25.132275"
       y2="47.013336" />
    <radialGradient
       inkscape:collect="always"
       xlink:href="#linearGradient3915"
       id="radialGradient3923"
       cx="8"
       cy="13.951243"
       fx="8"
       fy="13.951243"
       r="5.9999995"
       gradientTransform="matrix(1,0,0,2.3231242,0,-17.467513)"
       gradientUnits="userSpaceOnUse" />
    <linearGradient
       inkscape:collect="always"
       xlink:href="#linearGradient3934"
       id="linearGradient3940"
       gradientUnits="userSpaceOnUse"
       gradientTransform="matrix(0.28571362,0,0,0.26073316,1.1428732,1.342412)"
       x1="25.132275"
       y1="0.98520643"
       x2="25.132275"
       y2="47.013336" />
    <linearGradient
       inkscape:collect="always"
       xlink:href="#linearGradient3897-7-0"
       id="linearGradient3091"
       gradientUnits="userSpaceOnUse"
       gradientTransform="matrix(0.56520801,0,0,-0.60266309,-62.550309,52.217197)"
       x1="91.308151"
       y1="98.191689"
       x2="95.18235"
       y2="102.06589" />
    <linearGradient
       id="linearGradient3897-7-0">
      <stop
         id="stop3899-4-8"
         style="stop-color:#46cbf8;stop-opacity:1;"
         offset="0" />
      <stop
         id="stop3907-4-6"
         style="stop-color:#2eb1e7;stop-opacity:1;"
         offset="1" />
    </linearGradient>
    <linearGradient
       inkscape:collect="always"
       xlink:href="#linearGradient3803"
       id="linearGradient3074"
       gradientUnits="userSpaceOnUse"
       gradientTransform="translate(-0.0646358,12.625273)"
       x1="24.064634"
       y1="8.4172258"
       x2="24.064634"
       y2="26.33223" />
    <linearGradient
       id="linearGradient3803">
      <stop
         style="stop-color:#46cbf8;stop-opacity:1;"
         offset="0"
         id="stop3805" />
      <stop
         style="stop-color:#2eb1e7;stop-opacity:1;"
         offset="1"
         id="stop3807" />
    </linearGradient>
    <linearGradient
       inkscape:collect="always"
       xlink:href="#linearGradient3600-0"
       id="linearGradient3096"
       gradientUnits="userSpaceOnUse"
       gradientTransform="matrix(1,0,0,0.9561695,0.500039,-0.4177278)"
       x1="25.132275"
       y1="0.98520643"
       x2="25.132275"
       y2="47.013336" />
    <linearGradient
       id="linearGradient3600-0">
      <stop
         id="stop3602-3"
         style="stop-color:#0868cc;stop-opacity:1;"
         offset="0" />
      <stop
         id="stop3604-9"
         style="stop-color:#05366e;stop-opacity:1;"
         offset="1" />
    </linearGradient>
    <linearGradient
       y2="47.013336"
       x2="25.132275"
       y1="0.98520643"
       x1="25.132275"
       gradientTransform="matrix(1,0,0,0.9561695,-43.335779,-19.059455)"
       gradientUnits="userSpaceOnUse"
       id="linearGradient3128"
       xlink:href="#linearGradient3600-0"
       inkscape:collect="always" />
    <linearGradient
       inkscape:collect="always"
       xlink:href="#linearGradient3803-8"
       id="linearGradient3074-8"
       gradientUnits="userSpaceOnUse"
       gradientTransform="translate(-0.0646358,12.625273)"
       x1="24.064634"
       y1="8.4172258"
       x2="24.064634"
       y2="26.33223" />
    <linearGradient
       id="linearGradient3803-8">
      <stop
         style="stop-color:#46cbf8;stop-opacity:1;"
         offset="0"
         id="stop3805-6" />
      <stop
         style="stop-color:#2eb1e7;stop-opacity:1;"
         offset="1"
         id="stop3807-2" />
    </linearGradient>
    <linearGradient
       y2="26.33223"
       x2="24.064634"
       y1="8.4172258"
       x1="24.064634"
       gradientTransform="translate(-0.0646358,12.625273)"
       gradientUnits="userSpaceOnUse"
       id="linearGradient3894"
       xlink:href="#linearGradient3803-8"
       inkscape:collect="always" />
    <linearGradient
       inkscape:collect="always"
       xlink:href="#linearGradient3803-8"
       id="linearGradient3918"
       gradientUnits="userSpaceOnUse"
       gradientTransform="matrix(0.36151216,0,0,0.36363636,-0.69965802,2.5454546)"
       x1="24.064634"
       y1="8.4172258"
       x2="24.064634"
       y2="26.33223" />
  </defs>
  <metadata
     id="metadata3906">
    <rdf:RDF>
      <cc:Work
         rdf:about="">
        <dc:format>image/svg+xml</dc:format>
        <dc:type
           rdf:resource="http://purl.org/dc/dcmitype/StillImage" />
        <dc:title />
      </cc:Work>
    </rdf:RDF>
  </metadata>
  <path
     sodipodi:nodetypes="cccccc"
     d="m 3.0000006,2.0001614 c 1.6575744,0 5.9867526,6.272e-4 5.9867526,6.272e-4 L 12.99999,5.9083854 13,13.999839 c 0,0 -6.666666,0 -9.9999994,0 0,-3.9998903 0,-7.9997809 0,-11.9996721 z"
     inkscape:connector-curvature="0"
     id="path3127"
     style="fill:none;fill-opacity:1;stroke:#000000;display:inline;stroke-opacity:0.23529412000000000;stroke-linejoin:round;stroke-width:2;stroke-miterlimit:4;stroke-dasharray:none" />
  <path
     style="fill:none;fill-opacity:1;stroke:url(#radialGradient3923);display:inline;stroke-opacity:0.23529412000000000;stroke-linejoin:round;stroke-width:2;stroke-miterlimit:4;stroke-dasharray:none;opacity:1"
     id="path3913"
     inkscape:connector-curvature="0"
     d="m 3.0000006,2.0001614 c 1.6575744,0 5.9867526,6.272e-4 5.9867526,6.272e-4 L 12.99999,5.9083854 13,13.999839 c 0,0 -6.666666,0 -9.9999994,0 0,-3.9998903 0,-7.9997809 0,-11.9996721 z"
     sodipodi:nodetypes="cccccc" />
  <path
     style="fill:url(#linearGradient3125);fill-opacity:1.0;stroke:none;display:inline"
     id="path4160"
     inkscape:connector-curvature="0"
     d="m 3.0000006,2.0001614 c 1.6575744,0 5.9867526,6.272e-4 5.9867526,6.272e-4 L 12.99999,5.9083854 13,13.999839 c 0,0 -6.666666,0 -9.9999994,0 0,-3.9998903 0,-7.9997809 0,-11.9996721 z"
     sodipodi:nodetypes="cccccc" />
  <path
     style="fill:url(#linearGradient3940);fill-opacity:1;stroke:none;display:inline;opacity:0.05"
     d="M 3 2 L 3 14 L 13 14 L 13 5.90625 L 9 2 C 9 2 4.6575744 2 3 2 z M 4 3 C 5.3260596 3 8.78125 3 8.78125 3 L 12 6.25 L 12 13 L 4 13 L 4 3 z "
     id="path3929" />
  <path
     sodipodi:nodetypes="cccc"
     d="m 33.033607,8.8038818 c -0.04937,-3.7222332 0.10108,-9.9827279 -2.010715,-13.2718925 0,0 13.793921,13.740947 15.270672,15.4496257 0,0 -2.562442,-2.0299713 -13.259957,-2.1777332 z"
     id="path3805"
     style="opacity:0.9;fill:#000000;fill-opacity:1;stroke:none;filter:url(#filter4740)"
     inkscape:connector-curvature="0"
     clip-path="url(#clipPath3823)"
     transform="matrix(0.32604787,0,0,0.31118009,-0.5078181,1.8454429)" />
  <path
     sodipodi:nodetypes="cccc"
     d="m 9.984919,4.9276896 0,-1.9478042 1.999,1.9478042 z"
     id="path3903"
     style="fill:none;fill-opacity:1;stroke:#000000;stroke-opacity:0.15686275000000000;stroke-linejoin:miter;stroke-width:2;stroke-miterlimit:4;stroke-dasharray:none"
     inkscape:connector-curvature="0"
     clip-path="url(#clipPath3907)" />
  <path
     inkscape:connector-curvature="0"
     style="fill:url(#linearGradient3118);fill-opacity:1.0;stroke:none"
     id="path6011"
     d="m 9.984919,4.9276896 0,-1.9478042 1.999,1.9478042 z"
     sodipodi:nodetypes="cccc" />
  <path
     style="fill:url(#linearGradient3128);fill-opacity:1;stroke:none;display:inline"
     id="path4160-2"
     inkscape:connector-curvature="0"
     d="m -36.835818,-16.647335 19.976801,0.0023 14.0463619,14.3300723 3.6e-5,29.6732547 -34.0231989,0 z"
     sodipodi:nodetypes="cccccc" />
  <path
     inkscape:connector-curvature="0"
     style="fill:url(#linearGradient3091);fill-opacity:1;stroke:none"
     id="path6011-1"
     d="m -14.835818,-4.3518377 c 0,-3.442889 -0.03584,-9.2333793 -1.971138,-12.2756433 0,0 12.6410139,12.7094893 13.9943369,14.2899053 0,0 -2.047157,-2.014262 -12.0231989,-2.014262 z"
     sodipodi:nodetypes="cccc" />
  <g
     id="g3068"
     transform="matrix(0.99415845,0,0,1,-43.695619,-18.267001)">
    <path
       style="opacity:0.5;fill:#000000;fill-opacity:1;stroke:none"
       id="path3852"
       inkscape:connector-curvature="0"
       d="m 17.685363,20.375273 c -1.317052,0.01066 -2.9753,0.103885 -4.749999,0.40625 l 0,16.84375 3.999999,0 0,-6.09375 c 0,0 7.881555,0.731286 8.03125,-5.03125 0,0 1.03964,-6.192367 -7.28125,-6.125 z m 0.40625,3 c 2.426999,0.0091 3.062209,0.869746 3.125,2.46875 0,3.352781 -4.28125,2.53125 -4.28125,2.53125 l 0,-4.9375 c 0.423663,-0.03251 0.809537,-0.06379 1.15625,-0.0625 z m 12.250001,1.46875 c -0.971367,0.04397 -1.929108,0.269708 -2.78125,0.75 -1.578811,0.930899 -1.77598,3.202648 -0.90625,4.6875 1.086843,1.604321 3.177432,1.834878 4.65625,2.9375 0.750706,0.49843 0.364171,1.763072 -0.5,1.84375 -1.592336,0.260558 -3.193524,-0.31522 -4.625,-0.96875 l 0,2.28125 c -0.198531,0.675895 0.631678,0.692696 1.09375,0.875 1.719366,0.417098 3.581629,0.479861 5.28125,-0.0625 1.501309,-0.441974 2.580978,-1.938346 2.5,-3.5 -5.23e-4,-0.418225 -0.07999,-0.822199 -0.21875,-1.21875 -0.59155,-1.63988 -2.427884,-2.174582 -3.84375,-2.875 -0.899693,-0.230442 -2.224157,-1.355809 -1.03125,-2.125 1.340661,-0.420702 2.72677,0.206239 3.9375,0.75 l 0.875,-2.09375 c 0.292694,-0.658139 -1.126295,-0.648265 -1.5625,-0.9375 -0.919632,-0.259166 -1.903632,-0.387719 -2.875,-0.34375 z" />
    <path
       d="m 17.685363,21.375273 c -1.317052,0.01066 -2.9753,0.103885 -4.749999,0.40625 l 0,16.84375 3.999999,0 0,-6.09375 c 0,0 7.881555,0.731286 8.03125,-5.03125 0,0 1.03964,-6.192367 -7.28125,-6.125 z m 0.40625,3 c 2.426999,0.0091 3.062209,0.869746 3.125,2.46875 0,3.352781 -4.28125,2.53125 -4.28125,2.53125 l 0,-4.9375 c 0.423663,-0.03251 0.809537,-0.06379 1.15625,-0.0625 z m 12.250001,1.46875 c -0.971367,0.04397 -1.929108,0.269708 -2.78125,0.75 -1.578811,0.930899 -1.77598,3.202648 -0.90625,4.6875 1.086843,1.604321 3.177432,1.834878 4.65625,2.9375 0.750706,0.49843 0.364171,1.763072 -0.5,1.84375 -1.592336,0.260558 -3.193524,-0.31522 -4.625,-0.96875 l 0,2.28125 c -0.198531,0.675895 0.631678,0.692696 1.09375,0.875 1.719366,0.417098 3.581629,0.479861 5.28125,-0.0625 1.501309,-0.441974 2.580978,-1.938346 2.5,-3.5 -5.23e-4,-0.418225 -0.07999,-0.822199 -0.21875,-1.21875 -0.59155,-1.63988 -2.427884,-2.174582 -3.84375,-2.875 -0.899693,-0.230442 -2.224157,-1.355809 -1.03125,-2.125 1.340661,-0.420702 2.72677,0.206239 3.9375,0.75 l 0.875,-2.09375 c 0.292694,-0.658139 -1.126295,-0.648265 -1.5625,-0.9375 -0.919632,-0.259166 -1.903632,-0.387719 -2.875,-0.34375 z"
       inkscape:connector-curvature="0"
       id="path3879"
       style="fill:url(#linearGradient3074);fill-opacity:1;stroke:none" />
  </g>
  <path
     d="M 5.7171824,4.7272724 C 5.2410521,4.7311488 4.6415753,4.7650488 4,4.8749997 L 4,11 l 1.4460483,0 0,-2.215909 c 0,0 2.8492779,0.265922 2.9033945,-1.8295459 0,0 0.3758425,-2.2517698 -2.6322604,-2.2272727 z m 0.1468643,1.0909091 c 0.8773897,0.00331 1.1070258,0.3162713 1.1297255,0.8977273 0,1.219193 -1.5477239,0.9204545 -1.5477239,0.9204545 l 0,-1.7954545 C 5.5992076,5.8290869 5.7387057,5.8177124 5.8640467,5.8181815 z M 10.292571,6.3522724 C 9.94141,6.3682615 9.595175,6.450348 9.2871153,6.6249997 8.716356,6.9635084 8.645077,7.7895989 8.9594949,8.329545 c 0.392907,0.58339 1.1486801,0.667228 1.6832911,1.068182 0.271389,0.181247 0.131652,0.641117 -0.180756,0.670454 C 9.886381,10.162931 9.3075321,9.953556 8.7900361,9.715909 l 0,0.829545 c -0.071771,0.24578 0.2283593,0.25189 0.3954039,0.318182 0.6215718,0.151672 1.294802,0.174495 1.909236,-0.02273 0.542742,-0.160718 0.933055,-0.704853 0.903781,-1.272728 -1.9e-4,-0.152081 -0.02892,-0.298981 -0.07908,-0.443181 C 11.705524,8.528677 11.041667,8.33424 10.529814,8.079542 10.204564,7.995745 9.7257546,7.5865207 10.157005,7.3068148 c 0.484665,-0.1529825 0.98576,0.074996 1.423454,0.2727273 L 11.896781,6.8181815 C 12.002594,6.5788582 11.489612,6.5824488 11.331918,6.4772724 10.99946,6.3830302 10.643732,6.3362837 10.292571,6.3522724 z"
     inkscape:connector-curvature="0"
     id="path3852-6"
     style="opacity:0.5;fill:#000000;fill-opacity:1;stroke:none" />
  <path
     style="fill:url(#linearGradient3918);fill-opacity:1;stroke:none"
     id="path3879-6"
     inkscape:connector-curvature="0"
     d="M 5.7171824,5.7272728 C 5.2410521,5.7311491 4.6415753,5.7650491 4,5.875 L 4,12 l 1.4460483,0 0,-2.215909 c 0,0 2.8492779,0.265922 2.9033945,-1.8295455 0,0 0.3758425,-2.2517698 -2.6322604,-2.2272727 z m 0.1468643,1.090909 c 0.8773897,0.00331 1.1070258,0.3162713 1.1297255,0.8977273 0,1.2191931 -1.5477239,0.9204545 -1.5477239,0.9204545 l 0,-1.7954545 c 0.1531593,-0.011822 0.2926574,-0.023196 0.4179984,-0.022727 z m 4.4285243,0.534091 C 9.94141,7.3682618 9.595175,7.4503484 9.2871153,7.625 8.716356,7.9635087 8.645077,8.7895993 8.9594949,9.329545 c 0.392907,0.58339 1.1486801,0.667229 1.6832911,1.068182 0.271389,0.181248 0.131652,0.641117 -0.180756,0.670455 -0.575649,0.09475 -1.1544979,-0.114626 -1.6719939,-0.352273 l 0,0.829546 c -0.071771,0.24578 0.2283593,0.251889 0.3954039,0.318181 0.6215718,0.151672 1.294802,0.174495 1.909236,-0.02273 0.542742,-0.160718 0.933055,-0.704853 0.903781,-1.272727 -1.9e-4,-0.152082 -0.02892,-0.298982 -0.07908,-0.443182 C 11.705524,9.528677 11.041667,9.33424 10.529814,9.079542 10.204564,8.995745 9.7257546,8.586521 10.157005,8.3068152 c 0.484665,-0.1529825 0.98576,0.074996 1.423454,0.2727273 L 11.896781,7.8181818 C 12.002594,7.5788586 11.489612,7.5824491 11.331918,7.4772728 10.99946,7.3830306 10.643732,7.336284 10.292571,7.3522728 z" />
</svg>
