<?xml version="1.0" encoding="UTF-8" standalone="no"?>
<!-- Created with Inkscape (http://www.inkscape.org/) -->

<svg
   xmlns:osb="http://www.openswatchbook.org/uri/2009/osb"
   xmlns:dc="http://purl.org/dc/elements/1.1/"
   xmlns:cc="http://creativecommons.org/ns#"
   xmlns:rdf="http://www.w3.org/1999/02/22-rdf-syntax-ns#"
   xmlns:svg="http://www.w3.org/2000/svg"
   xmlns="http://www.w3.org/2000/svg"
   xmlns:xlink="http://www.w3.org/1999/xlink"
   xmlns:sodipodi="http://sodipodi.sourceforge.net/DTD/sodipodi-0.dtd"
   xmlns:inkscape="http://www.inkscape.org/namespaces/inkscape"
   version="1.1"
   width="48"
   height="48"
   id="svg4057"
   inkscape:version="0.48.4 r9939"
   sodipodi:docname="apport.svg">
  <sodipodi:namedview
     pagecolor="#ffffff"
     bordercolor="#666666"
     borderopacity="1"
     objecttolerance="10"
     gridtolerance="10"
     guidetolerance="10"
     inkscape:pageopacity="0"
     inkscape:pageshadow="2"
     inkscape:window-width="1280"
     inkscape:window-height="1000"
     id="namedview50"
     showgrid="false"
     inkscape:zoom="16"
     inkscape:cx="42.760888"
     inkscape:cy="10.528536"
     inkscape:window-x="0"
     inkscape:window-y="24"
     inkscape:window-maximized="1"
     inkscape:current-layer="svg4057"
     inkscape:object-paths="true"
     inkscape:object-nodes="true"
     inkscape:snap-smooth-nodes="true" />
  <defs
     id="defs4059">
    <linearGradient
       id="linearGradient3822"
       osb:paint="solid">
      <stop
         style="stop-color:#000000;stop-opacity:1;"
         offset="0"
         id="stop3824" />
    </linearGradient>
    <linearGradient
       x1="32.123043"
       y1="17.859827"
       x2="32.123043"
       y2="42.574524"
       id="linearGradient3827"
       xlink:href="#linearGradient3821"
       gradientUnits="userSpaceOnUse" />
    <linearGradient
       id="linearGradient3821">
      <stop
         id="stop3823"
         style="stop-color:#000000;stop-opacity:1"
         offset="0" />
      <stop
         id="stop3825"
         style="stop-color:#000000;stop-opacity:0"
         offset="1" />
    </linearGradient>
    <linearGradient
       x1="30.564957"
       y1="48.083878"
       x2="30.564957"
       y2="53.290096"
       id="linearGradient3794"
       xlink:href="#linearGradient3788"
       gradientUnits="userSpaceOnUse"
       gradientTransform="matrix(1.1363636,0,0,1.1363636,-3.894484,-7.345439)" />
    <linearGradient
       id="linearGradient3788">
      <stop
         id="stop3790"
         style="stop-color:#000000;stop-opacity:1"
         offset="0" />
      <stop
         id="stop3792"
         style="stop-color:#666666;stop-opacity:0"
         offset="1" />
    </linearGradient>
    <linearGradient
       x1="44.424442"
       y1="60.535198"
       x2="44.424442"
       y2="-5.496769"
       id="linearGradient3953-9"
       xlink:href="#linearGradient3856-1-6-5"
       gradientUnits="userSpaceOnUse"
       gradientTransform="matrix(1.0034846,0,0,1.0034846,-13.361078,4.2529333)" />
    <linearGradient
       id="linearGradient3856-1-6-5">
      <stop
         id="stop3858-0-6-4"
         style="stop-color:#634215;stop-opacity:1"
         offset="0" />
      <stop
         id="stop3860-2-8-2"
         style="stop-color:#93700d;stop-opacity:1"
         offset="1" />
    </linearGradient>
    <linearGradient
       x1="29.126724"
       y1="19.787613"
       x2="29.291178"
       y2="57.567127"
       id="linearGradient3101"
       xlink:href="#linearGradient3117"
       gradientUnits="userSpaceOnUse"
       gradientTransform="matrix(1.4071472,0,-0.00612526,1.4642082,-8.86438,-25.13171)" />
    <linearGradient
       id="linearGradient3117">
      <stop
         id="stop3119"
         style="stop-color:#ffffff;stop-opacity:1"
         offset="0" />
      <stop
         id="stop3121"
         style="stop-color:#ffffff;stop-opacity:0.23529412"
         offset="0.56911701" />
      <stop
         id="stop3123"
         style="stop-color:#ffffff;stop-opacity:0.15686275"
         offset="0.93297637" />
      <stop
         id="stop3125"
         style="stop-color:#ffffff;stop-opacity:0.39215687"
         offset="1" />
    </linearGradient>
    <linearGradient
       x1="24"
       y1="-14.603537"
       x2="24"
       y2="54.669891"
       id="linearGradient3104"
       xlink:href="#linearGradient3846"
       gradientUnits="userSpaceOnUse"
       gradientTransform="matrix(1.3111652,0,0,1.3023893,0.53203,1.4798)" />
    <linearGradient
       id="linearGradient3846">
      <stop
         id="stop3848"
         style="stop-color:#fbe021;stop-opacity:1;"
         offset="0" />
      <stop
         offset="0.5"
         style="stop-color:#fbe021;stop-opacity:1;"
         id="stop5381" />
      <stop
         id="stop3854"
         style="stop-color:#fad01f;stop-opacity:1;"
         offset="1" />
    </linearGradient>
    <radialGradient
       cx="605.71429"
       cy="486.64789"
       r="117.14286"
       fx="605.71429"
       fy="486.64789"
       id="radialGradient3109"
       xlink:href="#linearGradient5060"
       gradientUnits="userSpaceOnUse"
       gradientTransform="matrix(0.03212956,0,0,0.02058823,38.63678,49.45143)" />
    <linearGradient
       id="linearGradient5060">
      <stop
         id="stop5062"
         style="stop-color:#000000;stop-opacity:1"
         offset="0" />
      <stop
         id="stop5064"
         style="stop-color:#000000;stop-opacity:0"
         offset="1" />
    </linearGradient>
    <radialGradient
       cx="605.71429"
       cy="486.64789"
       r="117.14286"
       fx="605.71429"
       fy="486.64789"
       id="radialGradient3112"
       xlink:href="#linearGradient5060"
       gradientUnits="userSpaceOnUse"
       gradientTransform="matrix(-0.03212956,0,0,0.02058823,25.36322,49.45143)" />
    <linearGradient
       id="linearGradient5048">
      <stop
         id="stop5050"
         style="stop-color:#000000;stop-opacity:0"
         offset="0" />
      <stop
         id="stop5056"
         style="stop-color:#000000;stop-opacity:1"
         offset="0.5" />
      <stop
         id="stop5052"
         style="stop-color:#000000;stop-opacity:0"
         offset="1" />
    </linearGradient>
    <linearGradient
       x1="302.85715"
       y1="366.64789"
       x2="302.85715"
       y2="609.50507"
       id="linearGradient4055"
       xlink:href="#linearGradient5048"
       gradientUnits="userSpaceOnUse"
       gradientTransform="matrix(0.10769232,0,0,0.02058823,-6.92308,49.45143)" />
    <linearGradient
       inkscape:collect="always"
       xlink:href="#linearGradient3117"
       id="linearGradient3039"
       gradientUnits="userSpaceOnUse"
       gradientTransform="matrix(1.4071472,0,-0.00612526,1.4642082,-8.86438,-25.13171)"
       x1="29.126724"
       y1="19.787613"
       x2="29.291178"
       y2="57.567127" />
    <linearGradient
       inkscape:collect="always"
       xlink:href="#linearGradient3846"
       id="linearGradient3042"
       gradientUnits="userSpaceOnUse"
       gradientTransform="matrix(2.8041089,0,0,2.7853404,-3.298625,-80.202389)"
       x1="24"
       y1="-14.603537"
       x2="24"
       y2="54.669891" />
    <radialGradient
       inkscape:collect="always"
       xlink:href="#linearGradient5060"
       id="radialGradient3045"
       gradientUnits="userSpaceOnUse"
       gradientTransform="matrix(0.03212956,0,0,0.02058823,38.63678,49.45143)"
       cx="605.71429"
       cy="486.64789"
       fx="605.71429"
       fy="486.64789"
       r="117.14286" />
    <radialGradient
       inkscape:collect="always"
       xlink:href="#linearGradient5060"
       id="radialGradient3048"
       gradientUnits="userSpaceOnUse"
       gradientTransform="matrix(-0.03212956,0,0,0.02058823,25.36322,49.45143)"
       cx="605.71429"
       cy="486.64789"
       fx="605.71429"
       fy="486.64789"
       r="117.14286" />
    <linearGradient
       inkscape:collect="always"
       xlink:href="#linearGradient5048"
       id="linearGradient3051"
       gradientUnits="userSpaceOnUse"
       gradientTransform="matrix(0.10769232,0,0,0.02058823,-6.92308,49.45143)"
       x1="302.85715"
       y1="366.64789"
       x2="302.85715"
       y2="609.50507" />
    <linearGradient
       inkscape:collect="always"
       xlink:href="#linearGradient3846"
       id="linearGradient3027"
       gradientUnits="userSpaceOnUse"
       gradientTransform="matrix(2.8041089,0,0,2.7853404,-3.298625,-80.202389)"
       x1="24"
       y1="-14.603537"
       x2="24"
       y2="54.669891" />
    <linearGradient
       inkscape:collect="always"
       xlink:href="#linearGradient3846"
       id="linearGradient3031"
       gradientUnits="userSpaceOnUse"
       gradientTransform="matrix(1.0444876,0,0,1.0005658,-1.0677065,0.93685435)"
       x1="24"
       y1="-14.603537"
       x2="24"
       y2="54.669891" />
    <linearGradient
       inkscape:collect="always"
       xlink:href="#linearGradient3846"
       id="linearGradient3857"
       x1="24.000002"
       y1="2.9880314"
       x2="24.000004"
       y2="45"
       gradientUnits="userSpaceOnUse" />
    <clipPath
       clipPathUnits="userSpaceOnUse"
       id="clipPath3880">
      <path
         sodipodi:nodetypes="cccsccsccc"
         inkscape:connector-curvature="0"
         d="M 23.71875,3 C 22.706303,3.095862 21.763548,3.7447714 21.3125,4.65625 l -18,36 C 2.8564722,41.566881 2.9079248,42.712221 3.4437682,43.578294 3.9796116,44.444366 4.9815664,45.001626 6,45 l 36,0 c 1.018434,0.0016 2.020388,-0.555634 2.556232,-1.421706 0.535843,-0.866073 0.587296,-2.011413 0.131268,-2.922044 l -18,-36 C 26.153083,3.5765825 24.918191,2.8876432 23.71875,3 z"
         style="font-size:medium;font-style:normal;font-variant:normal;font-weight:normal;font-stretch:normal;text-indent:0;text-align:start;text-decoration:none;line-height:normal;letter-spacing:normal;word-spacing:normal;text-transform:none;direction:ltr;block-progression:tb;writing-mode:lr-tb;text-anchor:start;baseline-shift:baseline;color:#000000;fill:url(#linearGradient3884);fill-opacity:1;stroke:none;stroke-width:6;marker:none;visibility:visible;display:inline;overflow:visible;enable-background:accumulate;font-family:Sans;-inkscape-font-specification:Sans"
         id="path3882" />
    </clipPath>
    <linearGradient
       inkscape:collect="always"
       xlink:href="#linearGradient3846"
       id="linearGradient3884"
       gradientUnits="userSpaceOnUse"
       x1="24.000002"
       y1="2.9880314"
       x2="24.000004"
       y2="45" />
    <linearGradient
       inkscape:collect="always"
       xlink:href="#linearGradient3846"
       id="linearGradient3890"
       gradientUnits="userSpaceOnUse"
       x1="24.000002"
       y1="2.9880314"
       x2="24.000004"
       y2="45"
       gradientTransform="translate(0,-1.0000035)" />
    <linearGradient
       inkscape:collect="always"
       xlink:href="#linearGradient3846"
       id="linearGradient3892"
       gradientUnits="userSpaceOnUse"
       x1="24.000002"
       y1="2.9880314"
       x2="24.000004"
       y2="45" />
  </defs>
  <metadata
     id="metadata4062">
    <rdf:RDF>
      <cc:Work
         rdf:about="">
        <dc:format>image/svg+xml</dc:format>
        <dc:type
           rdf:resource="http://purl.org/dc/dcmitype/StillImage" />
        <dc:title />
      </cc:Work>
    </rdf:RDF>
  </metadata>
  <path
     id="path3870"
     style="font-size:medium;font-style:normal;font-variant:normal;font-weight:normal;font-stretch:normal;text-indent:0;text-align:start;text-decoration:none;line-height:normal;letter-spacing:normal;word-spacing:normal;text-transform:none;direction:ltr;block-progression:tb;writing-mode:lr-tb;text-anchor:start;baseline-shift:baseline;opacity:0.02;color:#000000;fill:none;fill-opacity:1;stroke:#000000;stroke-width:4;marker:none;visibility:visible;display:inline;overflow:visible;enable-background:accumulate;font-family:Sans;-inkscape-font-specification:Sans;stroke-opacity:1;stroke-miterlimit:4;stroke-dasharray:none;stroke-linejoin:round"
     d="m 23.71875,3 c -1.012447,0.095862 -1.955202,0.7447714 -2.40625,1.65625 l -18,36 C 2.8564722,41.566881 2.9079248,42.712221 3.4437682,43.578294 3.9796116,44.444366 4.9815664,45.001626 6,45 l 36,0 c 1.018434,0.0016 2.020388,-0.555634 2.556232,-1.421706 0.535843,-0.866073 0.587296,-2.011413 0.131268,-2.922044 l -18,-36 C 26.153083,3.5765825 24.918191,2.8876432 23.71875,3 z"
     inkscape:connector-curvature="0"
     sodipodi:nodetypes="cccsccsccc" />
  <path
     id="path3874"
     style="font-size:medium;font-style:normal;font-variant:normal;font-weight:normal;font-stretch:normal;text-indent:0;text-align:start;text-decoration:none;line-height:normal;letter-spacing:normal;word-spacing:normal;text-transform:none;direction:ltr;block-progression:tb;writing-mode:lr-tb;text-anchor:start;baseline-shift:baseline;opacity:0.04;color:#000000;fill:none;stroke:#000000;stroke-width:2;stroke-linejoin:round;stroke-miterlimit:4;stroke-opacity:1;stroke-dasharray:none;marker:none;visibility:visible;display:inline;overflow:visible;enable-background:accumulate;font-family:Sans;-inkscape-font-specification:Sans"
     d="m 23.71875,3.9999965 c -1.012447,0.095862 -1.955202,0.7447714 -2.40625,1.65625 l -18,35.9999995 C 2.8564722,42.566877 2.9079248,43.712217 3.4437682,44.57829 3.9796116,45.444362 4.9815664,46.001622 6,45.999996 l 36,0 c 1.018434,0.0016 2.020388,-0.555634 2.556232,-1.421706 0.535843,-0.866073 0.587296,-2.011413 0.131268,-2.922044 l -18,-35.9999995 C 26.153083,4.576579 24.918191,3.8876397 23.71875,3.9999965 z"
     inkscape:connector-curvature="0"
     sodipodi:nodetypes="cccsccsccc" />
  <path
     sodipodi:nodetypes="cccsccsccc"
     inkscape:connector-curvature="0"
     d="m 23.71875,3 c -1.012447,0.095862 -1.955202,0.7447714 -2.40625,1.65625 l -18,36 C 2.8564722,41.566881 2.9079248,42.712221 3.4437682,43.578294 3.9796116,44.444366 4.9815664,45.001626 6,45 l 36,0 c 1.018434,0.0016 2.020388,-0.555634 2.556232,-1.421706 0.535843,-0.866073 0.587296,-2.011413 0.131268,-2.922044 l -18,-36 C 26.153083,3.5765825 24.918191,2.8876432 23.71875,3 z"
     style="font-size:medium;font-style:normal;font-variant:normal;font-weight:normal;font-stretch:normal;text-indent:0;text-align:start;text-decoration:none;line-height:normal;letter-spacing:normal;word-spacing:normal;text-transform:none;direction:ltr;block-progression:tb;writing-mode:lr-tb;text-anchor:start;baseline-shift:baseline;opacity:0.06;color:#000000;fill:none;fill-opacity:1;stroke:#000000;stroke-width:2;marker:none;visibility:visible;display:inline;overflow:visible;enable-background:accumulate;font-family:Sans;-inkscape-font-specification:Sans;stroke-opacity:1;stroke-miterlimit:4;stroke-dasharray:none;stroke-linejoin:round"
     id="path3868" />
  <path
     style="font-size:medium;font-style:normal;font-variant:normal;font-weight:normal;font-stretch:normal;text-indent:0;text-align:start;text-decoration:none;line-height:normal;letter-spacing:normal;word-spacing:normal;text-transform:none;direction:ltr;block-progression:tb;writing-mode:lr-tb;text-anchor:start;baseline-shift:baseline;opacity:1;color:#000000;fill:url(#linearGradient3857);fill-opacity:1;stroke:none;stroke-width:6;marker:none;visibility:visible;display:inline;overflow:visible;enable-background:accumulate;font-family:Sans;-inkscape-font-specification:Sans"
     d="m 23.71875,3 c -1.012447,0.095862 -1.955202,0.7447714 -2.40625,1.65625 l -18,36 C 2.8564722,41.566881 2.9079248,42.712221 3.4437682,43.578294 3.9796116,44.444366 4.9815664,45.001626 6,45 l 36,0 c 1.018434,0.0016 2.020388,-0.555634 2.556232,-1.421706 0.535843,-0.866073 0.587296,-2.011413 0.131268,-2.922044 l -18,-36 C 26.153083,3.5765825 24.918191,2.8876432 23.71875,3 z"
     inkscape:connector-curvature="0"
     sodipodi:nodetypes="cccsccsccc"
     id="path58" />
  <path
     id="path3897"
     d="m 24,11 c -1.656854,0 -3,1.343146 -3,3 l 2,17 c 0,0.552285 0.447715,1 1,1 0.552285,0 1,-0.447715 1,-1 l 2,-17 c 0,-1.656854 -1.343146,-3 -3,-3 z"
     style="fill:none;fill-opacity:1;stroke:#000000;stroke-opacity:1;stroke-width:2;stroke-miterlimit:4;stroke-dasharray:none;stroke-linejoin:round;opacity:0.05"
     inkscape:connector-curvature="0" />
  <path
     inkscape:connector-curvature="0"
     style="fill:#ffffff;fill-opacity:1;stroke:none"
     d="m 24,11 c -1.656854,0 -3,1.343146 -3,3 l 2,17 c 0,0.552285 0.447715,1 1,1 0.552285,0 1,-0.447715 1,-1 l 2,-17 c 0,-1.656854 -1.343146,-3 -3,-3 z"
     id="path3774" />
  <path
     sodipodi:type="arc"
     style="fill:none;fill-opacity:1;stroke:#000000;stroke-opacity:1;stroke-width:1.33463481000000006;stroke-miterlimit:4;stroke-dasharray:none;stroke-linejoin:round;opacity:0.05"
     id="path3899"
     sodipodi:cx="23.5"
     sodipodi:cy="9.03125"
     sodipodi:rx="2.25"
     sodipodi:ry="1.78125"
     d="m 25.75,9.03125 a 2.25,1.78125 0 1 1 -4.5,0 2.25,1.78125 0 1 1 4.5,0 z"
     transform="matrix(1.3333333,0,0,1.6842105,-7.3333326,22.789474)" />
  <path
     transform="matrix(1.3333333,0,0,1.6842105,-7.3333326,22.789474)"
     d="m 25.75,9.03125 a 2.25,1.78125 0 1 1 -4.5,0 2.25,1.78125 0 1 1 4.5,0 z"
     sodipodi:ry="1.78125"
     sodipodi:rx="2.25"
     sodipodi:cy="9.03125"
     sodipodi:cx="23.5"
     id="path3776"
     style="fill:#ffffff;fill-opacity:1;stroke:none"
     sodipodi:type="arc" />
  <path
     sodipodi:nodetypes="cccsccsccc"
     inkscape:connector-curvature="0"
     d="m 23.71875,3 c -1.012447,0.095862 -1.955202,0.7447714 -2.40625,1.65625 l -18,36 C 2.8564722,41.566881 2.9079248,42.712221 3.4437682,43.578294 3.9796116,44.444366 4.9815664,45.001626 6,45 l 36,0 c 1.018434,0.0016 2.020388,-0.555634 2.556232,-1.421706 0.535843,-0.866073 0.587296,-2.011413 0.131268,-2.922044 l -18,-36 C 26.153083,3.5765825 24.918191,2.8876432 23.71875,3 z"
     style="font-size:medium;font-style:normal;font-variant:normal;font-weight:normal;font-stretch:normal;text-indent:0;text-align:start;text-decoration:none;line-height:normal;letter-spacing:normal;word-spacing:normal;text-transform:none;direction:ltr;block-progression:tb;writing-mode:lr-tb;text-anchor:start;baseline-shift:baseline;opacity:0.05;color:#000000;fill:none;fill-opacity:1;stroke:#000000;stroke-width:2;marker:none;visibility:visible;display:inline;overflow:visible;enable-background:accumulate;font-family:Sans;-inkscape-font-specification:Sans;stroke-opacity:1;stroke-miterlimit:4;stroke-dasharray:none"
     id="path3876"
     clip-path="url(#clipPath3880)" />
  <path
     style="font-size:medium;font-style:normal;font-variant:normal;font-weight:normal;font-stretch:normal;text-indent:0;text-align:start;text-decoration:none;line-height:normal;letter-spacing:normal;word-spacing:normal;text-transform:none;direction:ltr;block-progression:tb;writing-mode:lr-tb;text-anchor:start;baseline-shift:baseline;opacity:0.05;color:#000000;fill:#000000;fill-opacity:1;stroke:none;stroke-width:6;marker:none;visibility:visible;display:inline;overflow:visible;enable-background:accumulate;font-family:Sans;-inkscape-font-specification:Sans"
     d="M 3.0625 41.46875 C 2.9383976 42.189124 3.0522471 42.971073 3.4375 43.59375 C 3.9733434 44.459822 4.9815664 45.001626 6 45 L 42 45 C 43.018434 45.0016 44.026656 44.459822 44.5625 43.59375 C 44.947753 42.971073 45.061602 42.189124 44.9375 41.46875 C 44.876145 41.85579 44.768872 42.260195 44.5625 42.59375 C 44.026656 43.459822 43.018434 44.0016 42 44 L 6 44 C 4.9815664 44.001626 3.9733434 43.459822 3.4375 42.59375 C 3.2311279 42.260195 3.1238546 41.85579 3.0625 41.46875 z "
     id="path3886" />
</svg>
