<?xml version="1.0" encoding="UTF-8" standalone="no"?>
<!-- Created with Inkscape (http://www.inkscape.org/) -->

<svg
   xmlns:dc="http://purl.org/dc/elements/1.1/"
   xmlns:cc="http://creativecommons.org/ns#"
   xmlns:rdf="http://www.w3.org/1999/02/22-rdf-syntax-ns#"
   xmlns:svg="http://www.w3.org/2000/svg"
   xmlns="http://www.w3.org/2000/svg"
   xmlns:sodipodi="http://sodipodi.sourceforge.net/DTD/sodipodi-0.dtd"
   xmlns:inkscape="http://www.inkscape.org/namespaces/inkscape"
   id="svg7384"
   sodipodi:docname="folder-symbolic.svg"
   version="1.1"
   inkscape:version="0.48.4 r9939"
   height="16"
   width="16">
  <metadata
     id="metadata90">
    <rdf:RDF>
      <cc:Work
         rdf:about="">
        <dc:format>image/svg+xml</dc:format>
        <dc:type
           rdf:resource="http://purl.org/dc/dcmitype/StillImage" />
        <dc:title>Gnome Symbolic Icon Theme</dc:title>
      </cc:Work>
    </rdf:RDF>
  </metadata>
  <sodipodi:namedview
     inkscape:cy="8.2617819"
     pagecolor="#ffffff"
     borderopacity="1"
     showborder="true"
     inkscape:bbox-paths="false"
     guidetolerance="10"
     inkscape:window-width="1280"
     showguides="true"
     inkscape:object-nodes="true"
     inkscape:snap-bbox="true"
     inkscape:pageshadow="2"
     inkscape:guide-bbox="true"
     inkscape:snap-nodes="true"
     bordercolor="#666666"
     objecttolerance="10"
     id="namedview88"
     showgrid="false"
     inkscape:window-maximized="1"
     inkscape:window-x="0"
     inkscape:snap-global="true"
     inkscape:window-y="24"
     gridtolerance="10"
     inkscape:window-height="1000"
     inkscape:snap-to-guides="true"
     inkscape:current-layer="layer13"
     inkscape:zoom="22.627417"
     inkscape:cx="1.7852289"
     inkscape:snap-grids="true"
     inkscape:pageopacity="1"
     inkscape:snap-smooth-nodes="true"
     inkscape:object-paths="true">
    <inkscape:grid
       spacingx="1px"
       spacingy="1px"
       id="grid4866"
       empspacing="2"
       enabled="true"
       type="xygrid"
       snapvisiblegridlinesonly="true"
       visible="true" />
  </sodipodi:namedview>
  <title
     id="title9167">Gnome Symbolic Icon Theme</title>
  <defs
     id="defs7386" />
  <g
     inkscape:label="status"
     transform="translate(-442,-176)"
     inkscape:groupmode="layer"
     id="layer9"
     style="display:inline" />
  <g
     inkscape:label="devices"
     transform="translate(-442,-176)"
     inkscape:groupmode="layer"
     id="layer10" />
  <g
     inkscape:label="apps"
     transform="translate(-442,-176)"
     inkscape:groupmode="layer"
     id="layer11" />
  <g
     inkscape:label="actions"
     transform="translate(-442,-176)"
     inkscape:groupmode="layer"
     id="layer12" />
  <g
     inkscape:label="places"
     transform="translate(-442,-176)"
     inkscape:groupmode="layer"
     id="layer13">
    <path
       sodipodi:nodetypes="ccsssscc"
       inkscape:connector-curvature="0"
       id="path3794"
       d="m 424,180 0,10 c 0,0.554 0.446,1 1,1 l 14,0 c 0.554,0 1,-0.446 1,-1 l 0,-9 c 0,-0.554 -0.446,-1 -1,-1 z"
       style="fill:#76808c;fill-opacity:1;stroke:none" />
    <path
       style="fill:#76808c;fill-opacity:1"
       d="m 460.9428,178.1 c -0.52231,0 -0.94269,0.42039 -0.94269,0.9427 l 0,1.3446 0,1.77775 0,0.33247 0,7.55979 c 0,0.52231 0.42038,0.94269 0.94269,0.94269 l 14.1144,0 c 0.52231,0 0.94269,-0.42038 0.94269,-0.94269 l 0,-7.89226 0,-2.04292 c 0,-0.52231 -0.42038,-0.9427 -0.94269,-0.9427 l -8.68303,0 c -0.57984,-0.0227 -0.72431,-0.28768 -1.04058,-0.70636 -0.31627,-0.41868 -0.51882,-0.37307 -0.94292,-0.37307 z m 0.51823,0.88888 2.41142,0 c 0.59355,0 0.78091,0.18599 1.00969,0.41477 0.22877,0.22877 0.87039,0.66466 1.23158,0.66466 l 8.42525,0 c 0.31682,0 0.57205,0.23313 0.57205,0.54995 l 0,0.60931 c -0.0182,-10e-4 -0.0353,-0.005 -0.0538,-0.005 l -14.1144,0 c -0.0185,0 -0.0356,0.004 -0.0538,0.005 l 0,-1.66665 c 0,-0.31682 0.25523,-0.57204 0.57205,-0.57204 z m 0,3.12236 13.07794,0 c 0.31682,0 0.57205,0.25522 0.57205,0.57204 l 0,6.85581 c 0,0.31682 -0.25523,0.57204 -0.57205,0.57204 l -13.07794,0 c -0.31682,0 -0.57205,-0.25522 -0.57205,-0.57204 l 0,-5.69871 0,-1.1571 c 0,-0.31682 0.25523,-0.57204 0.57205,-0.57204 z"
       id="rect4155"
       inkscape:connector-curvature="0"
       sodipodi:nodetypes="sscccsssscssczsssczssscsscssssssssscsss" />
    <path
       sodipodi:nodetypes="sssssssss"
       inkscape:connector-curvature="0"
       id="path4170"
       d="m 461.46103,182.11124 13.07794,0 c 0.31682,0 0.57205,0.25522 0.57205,0.57204 l 0,6.85581 c 0,0.31682 -0.25523,0.57204 -0.57205,0.57204 l -13.07794,0 c -0.31682,0 -0.57205,-0.25522 -0.57205,-0.57204 l 0,-6.85581 c 0,-0.31682 0.25523,-0.57204 0.57205,-0.57204 z"
       style="opacity:0.3;fill:#76808c;fill-opacity:1" />
    <path
       style="opacity:0.75;fill:#76808c;fill-opacity:1"
       d="m 460.88898,189.22225 0,0.31684 c 0,0.31682 0.25523,0.57204 0.57205,0.57204 l 13.07794,0 c 0.31682,0 0.57205,-0.25522 0.57205,-0.57204 l 0,-0.31684 -14.22204,0 z"
       id="path4182"
       inkscape:connector-curvature="0" />
    <path
       style="opacity:0.3;fill:#76808c;fill-opacity:1"
       d="m 465.52353,179.67374 9.51544,0.375 c 0.31657,0.0125 0.76184,0.31836 0.57205,0.57204 l -0.5,0.66831 c -0.18979,0.25368 -0.25523,0.57204 -0.57205,0.57204 l -13.07794,0 c -0.31682,0 -0.57205,-0.25522 -0.57205,-0.57204 l 0,-2.60581 c 0,-0.15841 2.39199,-0.32016 3.51106,-0.0345 1.11907,0.28566 0.9652,1.01873 1.12349,1.02497 z"
       id="path3804"
       inkscape:connector-curvature="0"
       sodipodi:nodetypes="ssssssssss" />
    <path
       inkscape:connector-curvature="0"
       id="path3825"
       d="m 460.88898,188.33225 0,0.31684 c 0,0.31682 -0.34139,0.57204 -0.0246,0.57204 l 14.40376,0 c 0.31682,0 -0.15715,-0.25522 -0.15715,-0.57204 l 0,-0.31684 z"
       style="opacity:0.55;fill:#76808c;fill-opacity:1"
       sodipodi:nodetypes="csssscc" />
    <path
       sodipodi:nodetypes="csssscc"
       style="opacity:0.4;fill:#76808c;fill-opacity:1"
       d="m 460.88898,187.44225 0,0.31684 c 0,0.31682 -0.34139,0.57204 -0.0246,0.57204 l 14.40376,0 c 0.31682,0 -0.15715,-0.25522 -0.15715,-0.57204 l 0,-0.31684 z"
       id="path3827"
       inkscape:connector-curvature="0" />
    <path
       inkscape:connector-curvature="0"
       id="path3829"
       d="m 460.88898,186.55225 0,0.31684 c 0,0.31682 -0.34139,0.57204 -0.0246,0.57204 l 14.40376,0 c 0.31682,0 -0.15715,-0.25522 -0.15715,-0.57204 l 0,-0.31684 z"
       style="opacity:0.25;fill:#76808c;fill-opacity:1"
       sodipodi:nodetypes="csssscc" />
    <path
       sodipodi:nodetypes="csssscc"
       style="opacity:0.2;fill:#76808c;fill-opacity:1"
       d="m 460.88898,185.66225 0,0.31684 c 0,0.31682 -0.34139,0.57204 -0.0246,0.57204 l 14.40376,0 c 0.31682,0 -0.15715,-0.25522 -0.15715,-0.57204 l 0,-0.31684 z"
       id="path3831"
       inkscape:connector-curvature="0" />
    <path
       inkscape:connector-curvature="0"
       id="path3833"
       d="m 460.88898,184.77225 0,0.31684 c 0,0.31682 -0.34139,0.57204 -0.0246,0.57204 l 14.40376,0 c 0.31682,0 -0.15715,-0.25522 -0.15715,-0.57204 l 0,-0.31684 z"
       style="opacity:0.15;fill:#76808c;fill-opacity:1"
       sodipodi:nodetypes="csssscc" />
    <path
       sodipodi:nodetypes="csssscc"
       style="opacity:0.1;fill:#76808c;fill-opacity:1"
       d="m 460.88898,183.88225 0,0.31684 c 0,0.31682 -0.34139,0.57204 -0.0246,0.57204 l 14.40376,0 c 0.31682,0 -0.15715,-0.25522 -0.15715,-0.57204 l 0,-0.31684 z"
       id="path3835"
       inkscape:connector-curvature="0" />
    <path
       inkscape:connector-curvature="0"
       id="path3837"
       d="m 460.88898,182.99225 0,0.31684 c 0,0.31682 -0.34139,0.57204 -0.0246,0.57204 l 14.40376,0 c 0.31682,0 -0.15715,-0.25522 -0.15715,-0.57204 l 0,-0.31684 z"
       style="opacity:0.05;fill:#76808c;fill-opacity:1"
       sodipodi:nodetypes="csssscc" />
    <path
       sodipodi:nodetypes="csssscc"
       style="opacity:0.15;fill:#76808c;fill-opacity:1"
       d="m 460.88898,180.32225 0,0.31684 c 0,0.31682 -0.34139,0.57204 -0.0246,0.57204 l 14.40376,0 c 0.31682,0 -0.15715,-0.25522 -0.15715,-0.57204 l 0,-0.31684 z"
       id="path3839"
       inkscape:connector-curvature="0" />
    <path
       style="fill:#76808c;fill-opacity:1;stroke:none"
       d="M 0 4 L 0 14 C 0 14.554 0.446 15 1 15 L 15 15 C 15.554 15 16 14.554 16 14 L 16 5 C 16 4.446 15.554 4 15 4 L 0 4 z M 1 5 L 15 5 L 15 14 L 1 14 L 1 5 z "
       transform="translate(442,176)"
       id="rect3002" />
    <path
       style="fill:#76808c;fill-opacity:1;stroke:none"
       d="M 3 1 C 1.892 1 1 1.892 1 3 L 1 4 L 2 4 L 2 3.34375 C 2 2.60508 2.63727 2 3.4375 2 L 5.625 2 C 6.10724 2 6.51915 2.198 6.78125 2.53125 L 8.5 4 L 10 4 L 7.625 1.8125 C 7.2621103 1.3126238 6.6676655 1 6 1 L 3 1 z "
       transform="translate(442,176)"
       id="rect3775" />
    <rect
       ry="2"
       rx="2"
       y="169"
       x="443"
       height="6"
       width="7"
       id="rect3779"
       style="fill:#76808c;fill-opacity:1;stroke:none" />
    <rect
       ry="0"
       rx="0"
       transform="matrix(-0.70710677,0.70710679,-0.70710677,-0.70710679,0,0)"
       y="-441.36481"
       x="-197.85974"
       height="3.3716125"
       width="2.2852418"
       id="rect3781"
       style="fill:#76808c;fill-opacity:1;stroke:none" />
    <path
       style="fill:#76808c;fill-opacity:1;stroke:none;opacity:0.25"
       d="M 3.4375 2 C 2.7633336 2 2.2232931 2.425343 2.0625 3 L 7.34375 3 L 6.78125 2.53125 C 6.51915 2.198 6.10724 2 5.625 2 L 3.4375 2 z "
       id="path3784"
       transform="translate(442,176)" />
    <path
       sodipodi:nodetypes="sscccss"
       inkscape:connector-curvature="0"
       id="path3786"
       d="m 427,177 c -1.108,0 -2,0.892 -2,2 l 0,1 9,0 -2.375,-2.1875 C 431.26211,177.31262 430.66767,177 430,177 z"
       style="fill:#76808c;fill-opacity:1;stroke:none" />
    <path
       style="fill:#000000;fill-opacity:1;stroke:none"
       d="M 427.44446,178 C 426.64423,178 426,178.59466 426,179.33333 l 0,0.66667 6.5,0 -1.71527,-1.45834 C 430.52263,178.20841 430.09333,178 429.61109,178 z"
       id="path3788"
       inkscape:connector-curvature="0"
       sodipodi:nodetypes="sscccss" />
    <rect
       ry="0"
       rx="0"
       y="181"
       x="425"
       height="9"
       width="14"
       id="rect3792"
       style="fill:#000000;fill-opacity:1;stroke:none" />
    <rect
       style="opacity:0.75;fill:#76808c;fill-opacity:1;stroke:none"
       id="rect3802"
       width="14"
       height="1"
       x="443"
       y="189" />
    <rect
       y="188"
       x="443"
       height="1"
       width="14"
       id="rect3804"
       style="opacity:0.65;fill:#76808c;fill-opacity:1;stroke:none" />
    <rect
       style="opacity:0.55;fill:#76808c;fill-opacity:1;stroke:none"
       id="rect3806"
       width="14"
       height="1"
       x="443"
       y="187" />
    <rect
       y="186"
       x="443"
       height="1"
       width="14"
       id="rect3808"
       style="opacity:0.5;fill:#76808c;fill-opacity:1;stroke:none" />
    <rect
       style="opacity:0.45;fill:#76808c;fill-opacity:1;stroke:none"
       id="rect3810"
       width="14"
       height="1"
       x="443"
       y="185" />
    <rect
       y="184"
       x="443"
       height="1"
       width="14"
       id="rect3812"
       style="opacity:0.4;fill:#76808c;fill-opacity:1;stroke:none" />
    <rect
       style="opacity:0.35;fill:#76808c;fill-opacity:1;stroke:none"
       id="rect3814"
       width="14"
       height="1"
       x="443"
       y="183" />
    <rect
       y="182"
       x="443"
       height="1"
       width="14"
       id="rect3816"
       style="opacity:0.3;fill:#76808c;fill-opacity:1;stroke:none" />
    <rect
       style="opacity:0.25;fill:#76808c;fill-opacity:1;stroke:none"
       id="rect3818"
       width="14"
       height="1"
       x="443"
       y="181" />
    <path
       style="fill:#76808c;fill-opacity:1;stroke:none;opacity:0.3"
       d="M 2.0625 3 C 2.032433 3.1074562 2 3.2273842 2 3.34375 L 2 4 L 8.5 4 L 7.34375 3 L 2.0625 3 z "
       id="path3823"
       transform="translate(442,176)" />
  </g>
  <g
     inkscape:label="mimetypes"
     transform="translate(-442,-176)"
     inkscape:groupmode="layer"
     id="layer14" />
  <g
     inkscape:label="emblems"
     transform="translate(-442,-176)"
     inkscape:groupmode="layer"
     id="layer15"
     style="display:inline" />
</svg>
