<?xml version="1.0" encoding="UTF-8" standalone="no"?>
<!-- Created with Inkscape (http://www.inkscape.org/) -->

<svg
   xmlns:dc="http://purl.org/dc/elements/1.1/"
   xmlns:cc="http://creativecommons.org/ns#"
   xmlns:rdf="http://www.w3.org/1999/02/22-rdf-syntax-ns#"
   xmlns:svg="http://www.w3.org/2000/svg"
   xmlns="http://www.w3.org/2000/svg"
   xmlns:sodipodi="http://sodipodi.sourceforge.net/DTD/sodipodi-0.dtd"
   xmlns:inkscape="http://www.inkscape.org/namespaces/inkscape"
   width="16"
   height="16"
   id="svg2"
   version="1.1"
   inkscape:version="0.48.4 r9939"
   sodipodi:docname="folder-pictures-symbolic.svg">
  <defs
     id="defs4">
    <linearGradient
       id="linearGradient3756">
      <stop
         style="stop-color:#818a96;stop-opacity:1;"
         offset="0"
         id="stop3758" />
      <stop
         style="stop-color:#697380;stop-opacity:1;"
         offset="1"
         id="stop3760" />
    </linearGradient>
    <inkscape:perspective
       sodipodi:type="inkscape:persp3d"
       inkscape:vp_x="0 : 526.18109 : 1"
       inkscape:vp_y="0 : 1000 : 0"
       inkscape:vp_z="744.09448 : 526.18109 : 1"
       inkscape:persp3d-origin="372.04724 : 350.78739 : 1"
       id="perspective10" />
    <inkscape:perspective
       id="perspective2902"
       inkscape:persp3d-origin="0.5 : 0.33333333 : 1"
       inkscape:vp_z="1 : 0.5 : 1"
       inkscape:vp_y="0 : 1000 : 0"
       inkscape:vp_x="0 : 0.5 : 1"
       sodipodi:type="inkscape:persp3d" />
    <inkscape:perspective
       id="perspective2944"
       inkscape:persp3d-origin="0.5 : 0.33333333 : 1"
       inkscape:vp_z="1 : 0.5 : 1"
       inkscape:vp_y="0 : 1000 : 0"
       inkscape:vp_x="0 : 0.5 : 1"
       sodipodi:type="inkscape:persp3d" />
    <inkscape:perspective
       id="perspective3851"
       inkscape:persp3d-origin="0.5 : 0.33333333 : 1"
       inkscape:vp_z="1 : 0.5 : 1"
       inkscape:vp_y="0 : 1000 : 0"
       inkscape:vp_x="0 : 0.5 : 1"
       sodipodi:type="inkscape:persp3d" />
  </defs>
  <sodipodi:namedview
     id="base"
     pagecolor="#ffffff"
     bordercolor="#666666"
     borderopacity="1.0"
     inkscape:pageopacity="0.0"
     inkscape:pageshadow="2"
     inkscape:zoom="22.627417"
     inkscape:cx="8.1129243"
     inkscape:cy="10.931569"
     inkscape:document-units="px"
     inkscape:current-layer="layer1"
     showgrid="false"
     showguides="true"
     inkscape:guide-bbox="true"
     inkscape:window-width="1280"
     inkscape:window-height="1000"
     inkscape:window-x="0"
     inkscape:window-y="24"
     inkscape:window-maximized="1" />
  <metadata
     id="metadata7">
    <rdf:RDF>
      <cc:Work
         rdf:about="">
        <dc:format>image/svg+xml</dc:format>
        <dc:type
           rdf:resource="http://purl.org/dc/dcmitype/StillImage" />
        <dc:title />
      </cc:Work>
    </rdf:RDF>
  </metadata>
  <g
     inkscape:label="Ebene 1"
     inkscape:groupmode="layer"
     id="layer1"
     transform="translate(0,-1036.3622)">
    <path
       style="opacity:0.90000000000000002;fill:#697380;fill-opacity:1;stroke:none"
       d="M 0 3 L 0 14 L 16 14 L 16 3 L 0 3 z M 1 4 L 15 4 L 15 13 L 1 13 L 1 4 z "
       transform="translate(0,1036.3622)"
       id="rect2991" />
    <path
       style="fill:#697380;fill-opacity:1;stroke:none;opacity:0.25"
       d="M 1 4 L 1 13 L 15 13 L 15 4 L 1 4 z M 10.5 5 C 12.432997 5 14 6.5670034 14 8.5 C 14 10.432997 12.432997 12 10.5 12 C 8.5670034 12 7 10.432997 7 8.5 C 7 6.5670034 8.5670034 5 10.5 5 z "
       id="rect3761"
       transform="translate(0,1036.3622)" />
    <rect
       y="1041.3622"
       x="1"
       height="1"
       width="14"
       id="rect3812"
       style="opacity:0.04000000000000000;fill:#697380;fill-opacity:1;stroke:none" />
    <rect
       style="fill:#697380;fill-opacity:1;stroke:none;opacity:0.32000000000000001"
       id="rect3798"
       width="14"
       height="1"
       x="1"
       y="1048.3622" />
    <rect
       style="opacity:1;fill:#697380;fill-opacity:1;stroke:none"
       id="rect3766"
       width="3"
       height="1"
       x="1"
       y="1038.3622" />
    <rect
       y="1038.3622"
       x="12"
       height="1"
       width="3"
       id="rect3768"
       style="opacity:1;fill:#697380;fill-opacity:1;stroke:none" />
    <rect
       style="opacity:0.08000000000000000;fill:#697380;fill-opacity:1;stroke:none"
       id="rect3810"
       width="14"
       height="1"
       x="1"
       y="1042.3622" />
    <rect
       y="1041.3622"
       x="2"
       height="1"
       width="3"
       id="rect3770"
       style="fill:#697380;fill-opacity:1;stroke:none" />
    <rect
       y="1047.3622"
       x="1"
       height="1"
       width="14"
       id="rect3800"
       style="opacity:0.28000000000000003;fill:#697380;fill-opacity:1;stroke:none" />
    <rect
       style="opacity:0.23999999999999999;fill:#697380;fill-opacity:1;stroke:none"
       id="rect3802"
       width="14"
       height="1"
       x="1"
       y="1046.3622" />
    <rect
       y="1045.3622"
       x="1"
       height="1"
       width="14"
       id="rect3804"
       style="opacity:0.20000000000000001;fill:#697380;fill-opacity:1;stroke:none" />
    <rect
       y="1043.3622"
       x="1"
       height="1"
       width="14"
       id="rect3808"
       style="opacity:0.12000000000000000;fill:#697380;fill-opacity:1;stroke:none" />
    <rect
       style="opacity:0.16000000000000000;fill:#697380;fill-opacity:1;stroke:none"
       id="rect3806"
       width="14"
       height="1"
       x="1"
       y="1044.3622" />
    <path
       style="fill:#697380;fill-opacity:1;stroke:none;opacity:0.75000000000000000"
       d="M 10.5 4 C 8.0147186 4 6 6.0147186 6 8.5 C 6 10.985281 8.0147186 13 10.5 13 C 12.985281 13 15 10.985281 15 8.5 C 15 6.0147186 12.985281 4 10.5 4 z M 10.5 5 C 12.432997 5 14 6.5670034 14 8.5 C 14 10.432997 12.432997 12 10.5 12 C 8.5670034 12 7 10.432997 7 8.5 C 7 6.5670034 8.5670034 5 10.5 5 z "
       id="path3772"
       transform="translate(0,1036.3622)" />
    <path
       style="opacity:1;fill:#697380;fill-opacity:1;stroke:none"
       d="M 10.5 6 C 9.1192881 6 8 7.1192881 8 8.5 C 8 9.8807119 9.1192881 11 10.5 11 C 11.880712 11 13 9.8807119 13 8.5 C 13 7.1192881 11.880712 6 10.5 6 z M 10.5 7 C 11.328427 7 12 7.6715729 12 8.5 C 12 9.3284271 11.328427 10 10.5 10 C 9.6715729 10 9 9.3284271 9 8.5 C 9 7.6715729 9.6715729 7 10.5 7 z "
       transform="translate(0,1036.3622)"
       id="path3774" />
    <path
       id="path3794"
       d="m 10.5,1043.3622 c -0.8284271,0 -1.5,0.6716 -1.5,1.5 0,0.8284 0.6715729,1.5 1.5,1.5 0.828427,0 1.5,-0.6716 1.5,-1.5 0,-0.8284 -0.671573,-1.5 -1.5,-1.5 z"
       style="fill:#697380;fill-opacity:1;stroke:none;opacity:0.01000000000000000"
       inkscape:connector-curvature="0"
       sodipodi:nodetypes="sssss" />
    <path
       sodipodi:nodetypes="sssss"
       inkscape:connector-curvature="0"
       style="opacity:0.7;fill:#697380;fill-opacity:1;stroke:none"
       d="m 11,1044.3622 c -0.552285,0 -1,0.4477 -1,1 0,0.5523 0.447715,1 1,1 0.552285,0 1,-0.4477 1,-1 0,-0.5523 -0.447715,-1 -1,-1 z"
       id="path3796" />
  </g>
</svg>
