<?xml version="1.0" encoding="UTF-8" standalone="no"?>
<!-- Created with Inkscape (http://www.inkscape.org/) -->

<svg
   xmlns:dc="http://purl.org/dc/elements/1.1/"
   xmlns:cc="http://creativecommons.org/ns#"
   xmlns:rdf="http://www.w3.org/1999/02/22-rdf-syntax-ns#"
   xmlns:svg="http://www.w3.org/2000/svg"
   xmlns="http://www.w3.org/2000/svg"
   xmlns:sodipodi="http://sodipodi.sourceforge.net/DTD/sodipodi-0.dtd"
   xmlns:inkscape="http://www.inkscape.org/namespaces/inkscape"
   width="16"
   height="16"
   id="svg2"
   version="1.1"
   inkscape:version="0.48.4 r9939"
   sodipodi:docname="folder-videos-symbolic.svg">
  <defs
     id="defs4">
    <linearGradient
       id="linearGradient3756">
      <stop
         style="stop-color:#818a96;stop-opacity:1;"
         offset="0"
         id="stop3758" />
      <stop
         style="stop-color:#697380;stop-opacity:1;"
         offset="1"
         id="stop3760" />
    </linearGradient>
    <inkscape:perspective
       sodipodi:type="inkscape:persp3d"
       inkscape:vp_x="0 : 526.18109 : 1"
       inkscape:vp_y="0 : 1000 : 0"
       inkscape:vp_z="744.09448 : 526.18109 : 1"
       inkscape:persp3d-origin="372.04724 : 350.78739 : 1"
       id="perspective10" />
    <inkscape:perspective
       id="perspective2902"
       inkscape:persp3d-origin="0.5 : 0.33333333 : 1"
       inkscape:vp_z="1 : 0.5 : 1"
       inkscape:vp_y="0 : 1000 : 0"
       inkscape:vp_x="0 : 0.5 : 1"
       sodipodi:type="inkscape:persp3d" />
    <inkscape:perspective
       id="perspective2944"
       inkscape:persp3d-origin="0.5 : 0.33333333 : 1"
       inkscape:vp_z="1 : 0.5 : 1"
       inkscape:vp_y="0 : 1000 : 0"
       inkscape:vp_x="0 : 0.5 : 1"
       sodipodi:type="inkscape:persp3d" />
    <inkscape:perspective
       id="perspective3851"
       inkscape:persp3d-origin="0.5 : 0.33333333 : 1"
       inkscape:vp_z="1 : 0.5 : 1"
       inkscape:vp_y="0 : 1000 : 0"
       inkscape:vp_x="0 : 0.5 : 1"
       sodipodi:type="inkscape:persp3d" />
  </defs>
  <sodipodi:namedview
     id="base"
     pagecolor="#d6dce3"
     bordercolor="#666666"
     borderopacity="1.0"
     inkscape:pageopacity="1"
     inkscape:pageshadow="2"
     inkscape:zoom="22.627417"
     inkscape:cx="11.349893"
     inkscape:cy="11.250271"
     inkscape:document-units="px"
     inkscape:current-layer="layer1"
     showgrid="false"
     showguides="true"
     inkscape:guide-bbox="true"
     inkscape:window-width="1280"
     inkscape:window-height="1000"
     inkscape:window-x="0"
     inkscape:window-y="24"
     inkscape:window-maximized="1"
     inkscape:object-paths="true"
     inkscape:object-nodes="true"
     inkscape:snap-smooth-nodes="true" />
  <metadata
     id="metadata7">
    <rdf:RDF>
      <cc:Work
         rdf:about="">
        <dc:format>image/svg+xml</dc:format>
        <dc:type
           rdf:resource="http://purl.org/dc/dcmitype/StillImage" />
        <dc:title />
      </cc:Work>
    </rdf:RDF>
  </metadata>
  <g
     inkscape:label="Ebene 1"
     inkscape:groupmode="layer"
     id="layer1"
     transform="translate(0,-1036.3622)">
    <rect
       y="1045.3622"
       x="5"
       height="1"
       width="6"
       id="rect3795"
       style="opacity:0.18000004;fill:#697380;fill-opacity:1;stroke:none" />
    <rect
       style="opacity:0.22000002;fill:#697380;fill-opacity:1;stroke:none"
       id="rect3797"
       width="6"
       height="1"
       x="5"
       y="1046.3622" />
    <rect
       y="1047.3622"
       x="5"
       height="1"
       width="6"
       id="rect3799"
       style="opacity:0.26000001;fill:#697380;fill-opacity:1;stroke:none" />
    <rect
       style="opacity:0.3;fill:#697380;fill-opacity:1;stroke:none"
       id="rect3801"
       width="6"
       height="1"
       x="5"
       y="1048.3622" />
    <rect
       style="fill:#697380;fill-opacity:1;stroke:none;opacity:0.18"
       id="rect3861"
       width="6"
       height="1"
       x="5"
       y="1038.3622" />
    <rect
       y="1039.3622"
       x="5"
       height="1"
       width="6"
       id="rect3863"
       style="fill:#697380;fill-opacity:1;stroke:none;opacity:0.22" />
    <rect
       style="fill:#697380;fill-opacity:1;stroke:none;opacity:0.26"
       id="rect3865"
       width="6"
       height="1"
       x="5"
       y="1040.3622" />
    <rect
       y="1041.3622"
       x="5"
       height="1"
       width="6"
       id="rect3867"
       style="fill:#697380;fill-opacity:1;stroke:none;opacity:0.3" />
    <path
       style="fill:#697380;stroke:none;stroke-width:1px;stroke-linecap:butt;stroke-linejoin:miter;stroke-opacity:1;fill-opacity:1;opacity:0.1"
       d="m 11,3.9999826 -6,6 0,3.0000004 6,0 z"
       id="path3803"
       inkscape:connector-curvature="0"
       transform="translate(0,1036.3622)" />
    <path
       style="opacity:1;fill:#697380;fill-opacity:1;stroke:none"
       d="M 1 0 L 1 15 L 15 15 L 15 0 L 1 0 z M 2 1 L 3 1 L 3 2 L 2 2 L 2 1 z M 4 1 L 12 1 L 12 7 L 4 7 L 4 1 z M 13 1 L 14 1 L 14 2 L 13 2 L 13 1 z M 2 3 L 3 3 L 3 4 L 2 4 L 2 3 z M 13 3 L 14 3 L 14 4 L 13 4 L 13 3 z M 2 5 L 3 5 L 3 6 L 2 6 L 2 5 z M 13 5 L 14 5 L 14 6 L 13 6 L 13 5 z M 2 7 L 3 7 L 3 8 L 2 8 L 2 7 z M 13 7 L 14 7 L 14 8 L 13 8 L 13 7 z M 4 8 L 12 8 L 12 14 L 4 14 L 4 8 z M 2 9 L 3 9 L 3 10 L 2 10 L 2 9 z M 13 9 L 14 9 L 14 10 L 13 10 L 13 9 z M 2 11 L 3 11 L 3 12 L 2 12 L 2 11 z M 13 11 L 14 11 L 14 12 L 13 12 L 13 11 z M 2 13 L 3 13 L 3 14 L 2 14 L 2 13 z M 13 13 L 14 13 L 14 14 L 13 14 L 13 13 z "
       transform="translate(0,1036.3622)"
       id="rect3007" />
  </g>
</svg>
