<?xml version="1.0" encoding="UTF-8" standalone="no"?>
<!-- Created with Inkscape (http://www.inkscape.org/) -->

<svg
   xmlns:dc="http://purl.org/dc/elements/1.1/"
   xmlns:cc="http://creativecommons.org/ns#"
   xmlns:rdf="http://www.w3.org/1999/02/22-rdf-syntax-ns#"
   xmlns:svg="http://www.w3.org/2000/svg"
   xmlns="http://www.w3.org/2000/svg"
   xmlns:sodipodi="http://sodipodi.sourceforge.net/DTD/sodipodi-0.dtd"
   xmlns:inkscape="http://www.inkscape.org/namespaces/inkscape"
   width="16"
   height="16"
   id="svg2"
   version="1.1"
   inkscape:version="0.48.4 r9939"
   sodipodi:docname="network-workgroup-symbolic.svg">
  <defs
     id="defs4">
    <linearGradient
       id="linearGradient3756">
      <stop
         style="stop-color:#818a96;stop-opacity:1;"
         offset="0"
         id="stop3758" />
      <stop
         style="stop-color:#697380;stop-opacity:1;"
         offset="1"
         id="stop3760" />
    </linearGradient>
    <inkscape:perspective
       sodipodi:type="inkscape:persp3d"
       inkscape:vp_x="0 : 526.18109 : 1"
       inkscape:vp_y="0 : 1000 : 0"
       inkscape:vp_z="744.09448 : 526.18109 : 1"
       inkscape:persp3d-origin="372.04724 : 350.78739 : 1"
       id="perspective10" />
    <inkscape:perspective
       id="perspective2902"
       inkscape:persp3d-origin="0.5 : 0.33333333 : 1"
       inkscape:vp_z="1 : 0.5 : 1"
       inkscape:vp_y="0 : 1000 : 0"
       inkscape:vp_x="0 : 0.5 : 1"
       sodipodi:type="inkscape:persp3d" />
    <inkscape:perspective
       id="perspective2944"
       inkscape:persp3d-origin="0.5 : 0.33333333 : 1"
       inkscape:vp_z="1 : 0.5 : 1"
       inkscape:vp_y="0 : 1000 : 0"
       inkscape:vp_x="0 : 0.5 : 1"
       sodipodi:type="inkscape:persp3d" />
    <inkscape:perspective
       id="perspective3851"
       inkscape:persp3d-origin="0.5 : 0.33333333 : 1"
       inkscape:vp_z="1 : 0.5 : 1"
       inkscape:vp_y="0 : 1000 : 0"
       inkscape:vp_x="0 : 0.5 : 1"
       sodipodi:type="inkscape:persp3d" />
    <clipPath
       clipPathUnits="userSpaceOnUse"
       id="clipPath3804">
      <rect
         style="opacity:0.07000002;fill:#5b5b5b;fill-opacity:1;stroke:none"
         id="rect3806"
         width="9"
         height="5"
         x="3"
         y="2.9999826"
         rx="0"
         ry="0" />
    </clipPath>
  </defs>
  <sodipodi:namedview
     id="base"
     pagecolor="#ffffff"
     bordercolor="#666666"
     borderopacity="1.0"
     inkscape:pageopacity="0.0"
     inkscape:pageshadow="2"
     inkscape:zoom="22.627417"
     inkscape:cx="7.4586797"
     inkscape:cy="11.801954"
     inkscape:document-units="px"
     inkscape:current-layer="layer1"
     showgrid="false"
     showguides="true"
     inkscape:guide-bbox="true"
     inkscape:window-width="1280"
     inkscape:window-height="1000"
     inkscape:window-x="0"
     inkscape:window-y="24"
     inkscape:window-maximized="1"
     inkscape:object-nodes="true" />
  <metadata
     id="metadata7">
    <rdf:RDF>
      <cc:Work
         rdf:about="">
        <dc:format>image/svg+xml</dc:format>
        <dc:type
           rdf:resource="http://purl.org/dc/dcmitype/StillImage" />
        <dc:title />
      </cc:Work>
    </rdf:RDF>
  </metadata>
  <g
     inkscape:label="Ebene 1"
     inkscape:groupmode="layer"
     id="layer1"
     transform="translate(0,-1036.3622)">
    <path
       style="opacity:1;fill:#697380;fill-opacity:1;stroke:none"
       d="M 3 1 L 3 2 L 12 2 L 12 1 L 3 1 z M 12 2 L 12 8 L 13 8 L 13 2 L 12 2 z M 3 2 L 2 2 L 2 8 L 3 8 L 3 2 z M 3 8 L 3 9 L 8 9 L 8 8 L 3 8 z "
       transform="translate(0,1036.3622)"
       id="rect3016" />
    <path
       style="opacity:1;fill:#697380;fill-opacity:1;stroke:none"
       d="M 0 10 L 0 12 L 1 12 L 1 11 L 5 11 L 5 12 L 6 12 L 6 10 L 0 10 z M 5 12 L 1 12 L 1 13 L 5 13 L 5 12 z "
       transform="translate(0,1036.3622)"
       id="rect3786" />
    <rect
       ry="0"
       rx="0"
       y="1039.3622"
       x="3"
       height="5"
       width="9"
       id="rect3788"
       style="fill:#697380;fill-opacity:1;stroke:none;opacity:0.07000000000000001" />
    <path
       style="opacity:0.08000000000000000;fill:#697380;fill-opacity:1;stroke:none"
       d="M 13.375 0.6875 L -0.375 8.3125 L 13.375 8.3125 L 13.375 0.6875 z M 12 3 L 12 8 L 3 8 L 12 3 z "
       transform="translate(0,1036.3622)"
       id="path3796"
       clip-path="url(#clipPath3804)" />
    <path
       style="opacity:0.14999999999999999;fill:#697380;fill-opacity:1;stroke:none"
       d="m 12,1039.3622 0,5 -9,0 z"
       id="rect3793"
       inkscape:connector-curvature="0"
       sodipodi:nodetypes="cccc" />
    <rect
       style="fill:#697380;fill-opacity:1;stroke:none;opacity:0.40000000000000002"
       id="rect3808"
       width="4"
       height="1"
       x="1"
       y="1047.3622" />
    <rect
       style="opacity:0.50000000000000000;fill:#697380;fill-opacity:1;stroke:none"
       id="rect3813"
       width="1"
       height="1"
       x="6"
       y="1045.3622" />
    <rect
       y="1046.3622"
       x="6"
       height="1"
       width="1"
       id="rect3815"
       style="opacity:0.80000000000000004;fill:#697380;fill-opacity:1;stroke:none" />
    <path
       style="opacity:1;fill:#697380;fill-opacity:1;stroke:none"
       d="M 8 7 L 8 8 L 14 8 L 14 7 L 8 7 z M 14 8 L 14 12 L 15 12 L 15 8 L 14 8 z M 14 12 L 8 12 L 8 13 L 14 13 L 14 12 z M 8 12 L 8 8 L 7 8 L 7 12 L 8 12 z "
       transform="translate(0,1036.3622)"
       id="rect3817" />
    <rect
       style="opacity:0.07000002000000000;fill:#697380;fill-opacity:1;stroke:none"
       id="rect3832"
       width="6"
       height="3.9999862"
       x="8"
       y="1044.3622"
       rx="0"
       ry="0" />
    <path
       clip-path="url(#clipPath3804)"
       id="path3834"
       transform="matrix(0.66666667,0,0,0.79999722,6,1041.9622)"
       d="m 13.375,0.6875 -13.75,7.625 13.75,0 0,-7.625 z M 12,3 12,8 3,8 12,3 z"
       style="opacity:0.07999998000000000;fill:#697380;fill-opacity:1;stroke:none"
       inkscape:connector-curvature="0" />
    <path
       sodipodi:nodetypes="cccc"
       inkscape:connector-curvature="0"
       id="path3836"
       d="m 14,1044.3622 0,4 -6,0 z"
       style="opacity:0.14999999999999999;fill:#697380;fill-opacity:1;stroke:none" />
    <g
       id="g3796">
      <g
         id="g3792">
        <rect
           y="1049.3622"
           x="6"
           height="1"
           width="1"
           id="rect3838"
           style="opacity:0.25000000000000000;fill:#697380;fill-opacity:1;stroke:none" />
        <rect
           style="opacity:0.25000000000000000;fill:#697380;fill-opacity:1;stroke:none"
           id="rect3840"
           width="1"
           height="1"
           x="15"
           y="1049.3622" />
      </g>
      <rect
         y="1049.3622"
         x="7"
         height="1"
         width="8"
         id="rect3852"
         style="opacity:0.50000000000000000;fill:#697380;fill-opacity:1;stroke:none" />
    </g>
    <path
       style="opacity:1;fill:#697380;fill-opacity:1;stroke:none"
       d="M 6 14 L 6 15 L 7 15 L 15 15 L 16 15 L 16 14 L 15 14 L 7 14 L 6 14 z "
       transform="translate(0,1036.3622)"
       id="rect3864" />
    <rect
       style="opacity:0.78000000000000003;fill:#697380;fill-opacity:1;stroke:none"
       id="rect3877"
       width="1"
       height="1"
       x="0"
       y="1048.3622" />
    <rect
       y="1048.3622"
       x="5"
       height="1"
       width="1"
       id="rect3879"
       style="opacity:0.78000000000000003;fill:#697380;fill-opacity:1;stroke:none" />
    <rect
       style="opacity:0.77999998000000004;fill:#697380;fill-opacity:1;stroke:none"
       id="rect3891"
       width="1"
       height="1"
       x="2"
       y="1044.3622" />
    <rect
       y="1037.3622"
       x="12"
       height="1"
       width="1"
       id="rect3893"
       style="opacity:0.77999998000000004;fill:#697380;fill-opacity:1;stroke:none" />
    <rect
       style="opacity:0.77999998000000004;fill:#697380;fill-opacity:1;stroke:none"
       id="rect3895"
       width="1"
       height="1"
       x="2"
       y="1037.3622" />
    <rect
       style="opacity:0.77999998000000004;fill:#697380;fill-opacity:1;stroke:none"
       id="rect3906"
       width="1"
       height="1"
       x="7"
       y="1048.3622" />
    <rect
       y="1048.3622"
       x="14"
       height="1"
       width="1"
       id="rect3908"
       style="opacity:0.77999998000000004;fill:#697380;fill-opacity:1;stroke:none" />
    <rect
       style="opacity:0.77999998000000004;fill:#697380;fill-opacity:1;stroke:none"
       id="rect3910"
       width="1"
       height="1"
       x="14"
       y="1043.3622" />
    <rect
       y="1043.3622"
       x="7"
       height="1"
       width="1"
       id="rect3912"
       style="opacity:0.77999998000000004;fill:#697380;fill-opacity:1;stroke:none" />
  </g>
</svg>
