<?xml version="1.0" encoding="UTF-8" standalone="no"?>
<!-- Created with Inkscape (http://www.inkscape.org/) -->

<svg
   xmlns:dc="http://purl.org/dc/elements/1.1/"
   xmlns:cc="http://creativecommons.org/ns#"
   xmlns:rdf="http://www.w3.org/1999/02/22-rdf-syntax-ns#"
   xmlns:svg="http://www.w3.org/2000/svg"
   xmlns="http://www.w3.org/2000/svg"
   xmlns:sodipodi="http://sodipodi.sourceforge.net/DTD/sodipodi-0.dtd"
   xmlns:inkscape="http://www.inkscape.org/namespaces/inkscape"
   width="16"
   height="16"
   id="svg2"
   version="1.1"
   inkscape:version="0.48.4 r9939"
   sodipodi:docname="user-desktop-symbolic.svg">
  <defs
     id="defs4">
    <linearGradient
       id="linearGradient3756">
      <stop
         style="stop-color:#818a96;stop-opacity:1;"
         offset="0"
         id="stop3758" />
      <stop
         style="stop-color:#697380;stop-opacity:1;"
         offset="1"
         id="stop3760" />
    </linearGradient>
    <inkscape:perspective
       sodipodi:type="inkscape:persp3d"
       inkscape:vp_x="0 : 526.18109 : 1"
       inkscape:vp_y="0 : 1000 : 0"
       inkscape:vp_z="744.09448 : 526.18109 : 1"
       inkscape:persp3d-origin="372.04724 : 350.78739 : 1"
       id="perspective10" />
    <inkscape:perspective
       id="perspective2902"
       inkscape:persp3d-origin="0.5 : 0.33333333 : 1"
       inkscape:vp_z="1 : 0.5 : 1"
       inkscape:vp_y="0 : 1000 : 0"
       inkscape:vp_x="0 : 0.5 : 1"
       sodipodi:type="inkscape:persp3d" />
    <inkscape:perspective
       id="perspective2944"
       inkscape:persp3d-origin="0.5 : 0.33333333 : 1"
       inkscape:vp_z="1 : 0.5 : 1"
       inkscape:vp_y="0 : 1000 : 0"
       inkscape:vp_x="0 : 0.5 : 1"
       sodipodi:type="inkscape:persp3d" />
    <inkscape:perspective
       id="perspective3851"
       inkscape:persp3d-origin="0.5 : 0.33333333 : 1"
       inkscape:vp_z="1 : 0.5 : 1"
       inkscape:vp_y="0 : 1000 : 0"
       inkscape:vp_x="0 : 0.5 : 1"
       sodipodi:type="inkscape:persp3d" />
  </defs>
  <sodipodi:namedview
     id="base"
     pagecolor="#ffffff"
     bordercolor="#666666"
     borderopacity="1.0"
     inkscape:pageopacity="0.0"
     inkscape:pageshadow="2"
     inkscape:zoom="16"
     inkscape:cx="10.755616"
     inkscape:cy="5.7428674"
     inkscape:document-units="px"
     inkscape:current-layer="layer1"
     showgrid="false"
     showguides="true"
     inkscape:guide-bbox="true"
     inkscape:window-width="1280"
     inkscape:window-height="1000"
     inkscape:window-x="0"
     inkscape:window-y="24"
     inkscape:window-maximized="1"
     inkscape:object-nodes="true" />
  <metadata
     id="metadata7">
    <rdf:RDF>
      <cc:Work
         rdf:about="">
        <dc:format>image/svg+xml</dc:format>
        <dc:type
           rdf:resource="http://purl.org/dc/dcmitype/StillImage" />
        <dc:title />
      </cc:Work>
    </rdf:RDF>
  </metadata>
  <g
     inkscape:label="Ebene 1"
     inkscape:groupmode="layer"
     id="layer1"
     transform="translate(0,-1036.3622)">
    <path
       sodipodi:nodetypes="csssscc"
       inkscape:connector-curvature="0"
       id="path3858"
       d="m 15,1053.3834 0,9.9576 c 0,0.5657 -0.455458,1.0212 -1.021205,1.0212 l -11.9575897,0 C 1.4554576,1064.3622 1,1063.9067 1,1063.341 l 0,-9.9576 z"
       style="opacity:0.34999999999999998;fill:#697380;fill-opacity:1;stroke:none" />
    <rect
       y="1059.3622"
       x="3"
       height="2"
       width="10"
       id="rect3866"
       style="opacity:0.4;fill:#697380;fill-opacity:1;stroke:none" />
    <g
       id="g3022"
       transform="matrix(0.44444444,0,0,0.5,18,1035.3622)">
      <g
         style="display:inline"
         id="layer9"
         transform="translate(-442,-156)"
         inkscape:label="status" />
      <g
         id="layer10"
         transform="translate(-442,-156)"
         inkscape:label="devices" />
      <g
         id="layer11"
         transform="translate(-442,-156)"
         inkscape:label="apps" />
      <g
         id="layer12"
         transform="translate(-442,-156)"
         inkscape:label="actions" />
      <g
         id="layer13"
         transform="translate(-442,-156)"
         inkscape:label="places">
        <path
           id="rect4156"
           d="M 446.10352,160 C 443.83014,160 442,161.83014 442,164.10352 l 0,19.79296 c 0,2.27338 1.83014,4.10352 4.10352,4.10352 l 27.79296,0 C 476.16986,188 478,186.16986 478,183.89648 l 0,-19.79296 C 478,161.83014 476.16986,160 473.89648,160 l -27.79296,0 z m -0.11719,2 28.02734,0 c 1.10029,0 1.98633,0.88604 1.98633,1.98633 l 0,0.0137 -32,0 0,-0.0137 C 444,162.88604 444.88604,162 445.98633,162 z M 444,166 l 32,0 0,18.01367 C 476,185.11396 475.11396,186 474.01367,186 l -28.02734,0 C 444.88604,186 444,185.11396 444,184.01367 L 444,166 z"
           style="opacity:0.75;fill:#000000;fill-opacity:1"
           inkscape:connector-curvature="0" />
        <path
           id="rect4169"
           d="m 444,166 0,18.01367 c 0,1.10029 0.88604,1.98633 1.98633,1.98633 l 6.01367,0 0,-4 16,0 0,4 6.01367,0 C 475.11396,186 476,185.11396 476,184.01367 L 476,166 l -32,0 z"
           style="opacity:0.2;fill:#000000;fill-opacity:0.90196078"
           inkscape:connector-curvature="0" />
        <path
           id="rect4175"
           d="M 450.97266,181 C 450.43402,181 450,181.43402 450,181.97266 l 0,4.02734 2,0 0,-4 4,0 0,4 2,0 0,-4 4,0 0,4 2,0 0,-4 4,0 0,4 2,0 0,-4.02734 C 470,181.43402 469.56598,181 469.02734,181 l -18.05468,0 z"
           style="opacity:0.5;fill:#000000;fill-opacity:1;stroke:none"
           inkscape:connector-curvature="0" />
      </g>
      <g
         id="layer14"
         transform="translate(-442,-156)"
         inkscape:label="mimetypes" />
      <g
         style="display:inline"
         id="layer15"
         transform="translate(-442,-156)"
         inkscape:label="emblems" />
    </g>
    <path
       style="opacity:1;fill:#697380;fill-opacity:1;stroke:none"
       d="M 1.875 1 C 0.83625 1 2.901325e-18 1.83625 0 2.875 L 0 13.125 C 0 14.16375 0.83625 15 1.875 15 L 14.125 15 C 15.16375 15 16 14.16375 16 13.125 L 16 2.875 C 16 1.83625 15.16375 1 14.125 1 L 1.875 1 z M 2.03125 2 L 13.96875 2 C 14.547482 2 15 2.4525179 15 3.03125 L 15 12.96875 C 15 13.547482 14.547482 14 13.96875 14 L 2.03125 14 C 1.4525179 14 1 13.547482 1 12.96875 L 1 3.03125 C 1 2.4525179 1.4525179 2 2.03125 2 z "
       id="rect3034"
       transform="translate(0,1036.3622)" />
    <path
       style="opacity:0.34999999999999998;fill:#697380;fill-opacity:1;stroke:none"
       d="M 1 3.03125 L 1 12.96875 C 1 13.53445 1.4655023 14 2.03125 14 L 13.96875 14 C 14.534497 14 15 13.53445 15 12.96875 L 15 3.03125 L 1 3.03125 z M 4 10 L 6 10 L 6 12 L 4 12 L 4 10 z M 7 10 L 9 10 L 9 12 L 7 12 L 7 10 z M 10 10 L 12 10 L 12 12 L 10 12 L 10 10 z "
       transform="translate(0,1036.3622)"
       id="rect3804" />
    <path
       style="fill:#697380;fill-opacity:1;stroke:none;opacity:0.40000000000000002"
       d="M 3 9 L 3 11 L 4 11 L 4 10 L 6 10 L 6 11 L 7 11 L 7 10 L 9 10 L 9 11 L 10 11 L 10 10 L 12 10 L 12 11 L 13 11 L 13 9 L 3 9 z "
       transform="translate(0,1036.3622)"
       id="rect3864" />
    <rect
       style="opacity:1;fill:#697380;fill-opacity:1;stroke:none"
       id="rect3810"
       width="14"
       height="1"
       x="1"
       y="1039.3622"
       rx="0"
       ry="0" />
    <path
       style="fill:#697380;fill-opacity:1;stroke:none"
       d="M 3 11 L 2 13 L 14 13 L 13 11 L 12 11 L 12 12 L 10 12 L 10 11 L 9 11 L 9 12 L 7 12 L 7 11 L 6 11 L 6 12 L 4 12 L 4 11 L 3 11 z "
       transform="translate(0,1036.3622)"
       id="rect3813" />
    <path
       sodipodi:nodetypes="ccccc"
       inkscape:connector-curvature="0"
       id="path3868"
       d="m 3,1061.3622 -1,2 12,0 -1,-2 z"
       style="fill:#697380;fill-opacity:1;stroke:none" />
    <g
       id="g3841"
       transform="translate(0,14)">
      <rect
         style="fill:#ffffff;fill-opacity:1;stroke:none"
         id="rect3843"
         width="2"
         height="2"
         x="10"
         y="1046.3622" />
      <rect
         y="1046.3622"
         x="7"
         height="2"
         width="2"
         id="rect3845"
         style="fill:#ffffff;fill-opacity:1;stroke:none" />
      <rect
         style="fill:#ffffff;fill-opacity:1;stroke:none"
         id="rect3847"
         width="2"
         height="2"
         x="4"
         y="1046.3622" />
    </g>
    <g
       id="g3877"
       style="fill:#697380;fill-opacity:1;opacity:0.05000000000000000">
      <rect
         y="1046.3622"
         x="10"
         height="2"
         width="2"
         id="rect3879"
         style="fill:#697380;fill-opacity:1;stroke:none" />
      <rect
         style="fill:#697380;fill-opacity:1;stroke:none"
         id="rect3881"
         width="2"
         height="2"
         x="7"
         y="1046.3622" />
      <rect
         y="1046.3622"
         x="4"
         height="2"
         width="2"
         id="rect3883"
         style="fill:#697380;fill-opacity:1;stroke:none" />
    </g>
  </g>
</svg>
