<?xml version="1.0" encoding="UTF-8" standalone="no"?>
<!-- Created with Inkscape (http://www.inkscape.org/) -->

<svg
   xmlns:dc="http://purl.org/dc/elements/1.1/"
   xmlns:cc="http://creativecommons.org/ns#"
   xmlns:rdf="http://www.w3.org/1999/02/22-rdf-syntax-ns#"
   xmlns:svg="http://www.w3.org/2000/svg"
   xmlns="http://www.w3.org/2000/svg"
   xmlns:xlink="http://www.w3.org/1999/xlink"
   xmlns:sodipodi="http://sodipodi.sourceforge.net/DTD/sodipodi-0.dtd"
   xmlns:inkscape="http://www.inkscape.org/namespaces/inkscape"
   version="1.1"
   width="48"
   height="48"
   id="svg4569"
   inkscape:version="0.48.4 r9939"
   sodipodi:docname="application-x-vmware-vm.svg">
  <sodipodi:namedview
     pagecolor="#ffffff"
     bordercolor="#666666"
     borderopacity="1"
     objecttolerance="10"
     gridtolerance="10"
     guidetolerance="10"
     inkscape:pageopacity="0"
     inkscape:pageshadow="2"
     inkscape:window-width="1280"
     inkscape:window-height="1000"
     id="namedview41"
     showgrid="false"
     inkscape:zoom="11.313709"
     inkscape:cx="37.286163"
     inkscape:cy="17.041746"
     inkscape:window-x="0"
     inkscape:window-y="24"
     inkscape:window-maximized="1"
     inkscape:current-layer="svg4569"
     inkscape:object-paths="true"
     inkscape:object-nodes="true"
     inkscape:snap-smooth-nodes="true"
     showguides="true"
     inkscape:guide-bbox="true" />
  <metadata
     id="metadata42">
    <rdf:RDF>
      <cc:Work
         rdf:about="">
        <dc:format>image/svg+xml</dc:format>
        <dc:type
           rdf:resource="http://purl.org/dc/dcmitype/StillImage" />
      </cc:Work>
    </rdf:RDF>
  </metadata>
  <defs
     id="defs4571">
    <linearGradient
       id="linearGradient3920">
      <stop
         id="stop3923"
         offset="0"
         style="stop-color:#323232;stop-opacity:1;" />
      <stop
         id="stop3925"
         offset="1"
         style="stop-color:#323232;stop-opacity:0;" />
    </linearGradient>
    <linearGradient
       id="linearGradient3911">
      <stop
         style="stop-color:#bebebe;stop-opacity:1;"
         offset="0"
         id="stop3913" />
      <stop
         style="stop-color:#bebebe;stop-opacity:0;"
         offset="1"
         id="stop3916" />
    </linearGradient>
    <linearGradient
       id="linearGradient3941">
      <stop
         style="stop-color:#bf8e9e;stop-opacity:0.28625953;"
         offset="0"
         id="stop3943" />
      <stop
         style="stop-color:#8e5165;stop-opacity:1;"
         offset="1"
         id="stop3945" />
    </linearGradient>
    <linearGradient
       id="linearGradient3906">
      <stop
         style="stop-color:#646464;stop-opacity:1;"
         offset="0"
         id="stop3908" />
      <stop
         id="stop3915"
         offset="0.5"
         style="stop-color:#f0f0f0;stop-opacity:1;" />
      <stop
         style="stop-color:#f0f0f0;stop-opacity:0;"
         offset="1"
         id="stop3910" />
    </linearGradient>
    <linearGradient
       id="linearGradient3877">
      <stop
         id="stop3879"
         offset="0"
         style="stop-color:#2e2e2f;stop-opacity:1;" />
      <stop
         id="stop3881"
         offset="1"
         style="stop-color:#2e2e2f;stop-opacity:0;" />
    </linearGradient>
    <linearGradient
       id="linearGradient3865">
      <stop
         style="stop-color:#dbdbdb;stop-opacity:1;"
         offset="0"
         id="stop3867" />
      <stop
         style="stop-color:#dbdbdb;stop-opacity:0;"
         offset="1"
         id="stop3869" />
    </linearGradient>
    <linearGradient
       id="linearGradient3843">
      <stop
         id="stop3845"
         offset="0"
         style="stop-color:#7d7d7d;stop-opacity:1;" />
      <stop
         style="stop-color:#d9d9d9;stop-opacity:1;"
         offset="0.5"
         id="stop3847" />
      <stop
         id="stop3849"
         offset="1"
         style="stop-color:#d9d9d9;stop-opacity:0;" />
    </linearGradient>
    <linearGradient
       id="linearGradient3835">
      <stop
         style="stop-color:#555555;stop-opacity:0;"
         offset="0"
         id="stop3837" />
      <stop
         style="stop-color:#555555;stop-opacity:1;"
         offset="1"
         id="stop3839" />
    </linearGradient>
    <linearGradient
       id="linearGradient3813">
      <stop
         style="stop-color:#555555;stop-opacity:1;"
         offset="0"
         id="stop3815" />
      <stop
         id="stop3825"
         offset="0.5"
         style="stop-color:#fcfcfc;stop-opacity:1;" />
      <stop
         style="stop-color:#fcfcfc;stop-opacity:0;"
         offset="1"
         id="stop3817" />
    </linearGradient>
    <linearGradient
       id="linearGradient3803">
      <stop
         style="stop-color:#dbdbdb;stop-opacity:1;"
         offset="0"
         id="stop3805" />
      <stop
         style="stop-color:#808080;stop-opacity:1;"
         offset="1"
         id="stop3807" />
    </linearGradient>
    <linearGradient
       id="linearGradient4054">
      <stop
         id="stop4056"
         style="stop-color:#ffffff;stop-opacity:1"
         offset="0" />
      <stop
         id="stop4058"
         style="stop-color:#ffffff;stop-opacity:0.23529412"
         offset="0.06316455" />
      <stop
         id="stop4060"
         style="stop-color:#ffffff;stop-opacity:0.15686275"
         offset="0.96892834" />
      <stop
         id="stop4062"
         style="stop-color:#ffffff;stop-opacity:0.39215687"
         offset="1" />
    </linearGradient>
    <linearGradient
       id="linearGradient3912">
      <stop
         id="stop3914"
         style="stop-color:#5a5a5a;stop-opacity:1;"
         offset="0" />
      <stop
         offset="0.52269441"
         style="stop-color:#999999;stop-opacity:1;"
         id="stop3935" />
      <stop
         id="stop3920"
         style="stop-color:#c9c9c9;stop-opacity:1;"
         offset="0.80272669" />
      <stop
         id="stop3922"
         style="stop-color:#929292;stop-opacity:1;"
         offset="1" />
    </linearGradient>
    <linearGradient
       id="linearGradient3342">
      <stop
         id="stop3344"
         style="stop-color:#ffffff;stop-opacity:0"
         offset="0" />
      <stop
         id="stop3346"
         style="stop-color:#ffffff;stop-opacity:1"
         offset="1" />
    </linearGradient>
    <linearGradient
       id="linearGradient10691-1">
      <stop
         id="stop10693-3"
         style="stop-color:#000000;stop-opacity:1"
         offset="0" />
      <stop
         id="stop10695-1"
         style="stop-color:#000000;stop-opacity:0"
         offset="1" />
    </linearGradient>
    <linearGradient
       x1="15.573899"
       y1="46.971004"
       x2="23.578077"
       y2="46.971004"
       id="linearGradient2993"
       xlink:href="#linearGradient3342"
       gradientUnits="userSpaceOnUse"
       gradientTransform="matrix(1.1176471,0,0,1,-2.3519696,-3.4710029)"
       spreadMethod="reflect" />
    <radialGradient
       cx="6.702713"
       cy="73.615715"
       r="7.228416"
       fx="6.702713"
       fy="73.615715"
       id="radialGradient3001"
       xlink:href="#linearGradient10691-1"
       gradientUnits="userSpaceOnUse"
       gradientTransform="matrix(1.9368007,0,0,0.4150287,11.018182,13.447365)" />
    <linearGradient
       x1="361.10583"
       y1="87.487457"
       x2="361.10583"
       y2="92.490532"
       id="linearGradient3832-9"
       xlink:href="#linearGradient3912"
       gradientUnits="userSpaceOnUse"
       gradientTransform="matrix(0.9964089,0,0,1.0001438,-332.882,-49.516717)" />
    <linearGradient
       id="outerBackgroundGradient-5-0">
      <stop
         style="stop-color:#d4001c;stop-opacity:1;"
         offset="0"
         id="stop3864-8-6-4" />
      <stop
         style="stop-color:#82000f;stop-opacity:1;"
         offset="1"
         id="stop3866-9-1-86" />
    </linearGradient>
    <linearGradient
       id="linearGradient3924-1">
      <stop
         offset="0"
         style="stop-color:#ffffff;stop-opacity:1"
         id="stop3926-3" />
      <stop
         offset="0.06316455"
         style="stop-color:#ffffff;stop-opacity:0.23529412"
         id="stop3928-91" />
      <stop
         offset="0.95056331"
         style="stop-color:#ffffff;stop-opacity:0.15686275"
         id="stop3930-6" />
      <stop
         offset="1"
         style="stop-color:#ffffff;stop-opacity:0.39215687"
         id="stop3932-6" />
    </linearGradient>
    <linearGradient
       inkscape:collect="always"
       xlink:href="#linearGradient3924-1-0"
       id="linearGradient3916-5"
       gradientUnits="userSpaceOnUse"
       gradientTransform="matrix(1.2162163,0,0,0.83783786,-5.1891986,-0.10809896)"
       x1="23.99999"
       y1="4.999989"
       x2="23.99999"
       y2="43" />
    <linearGradient
       id="linearGradient3924-1-0">
      <stop
         offset="0"
         style="stop-color:#ffffff;stop-opacity:1"
         id="stop3926-3-7" />
      <stop
         offset="0.06316455"
         style="stop-color:#ffffff;stop-opacity:0.23529412"
         id="stop3928-91-0" />
      <stop
         offset="0.95056331"
         style="stop-color:#ffffff;stop-opacity:0.15686275"
         id="stop3930-6-2" />
      <stop
         offset="1"
         style="stop-color:#ffffff;stop-opacity:0.39215687"
         id="stop3932-6-0" />
    </linearGradient>
    <linearGradient
       inkscape:collect="always"
       xlink:href="#linearGradient4054"
       id="linearGradient4052"
       gradientUnits="userSpaceOnUse"
       gradientTransform="matrix(1.2162163,0,0,0.83783786,-5.1891986,-0.10809896)"
       x1="23.386202"
       y1="42.776379"
       x2="23.386202"
       y2="51.377102" />
    <linearGradient
       inkscape:collect="always"
       xlink:href="#linearGradient3924-1-0"
       id="linearGradient4066"
       gradientUnits="userSpaceOnUse"
       gradientTransform="matrix(1.1554773,0,0,0.83783786,-3.5186976,-0.10809896)"
       x1="23.99999"
       y1="4.999989"
       x2="23.99999"
       y2="43" />
    <linearGradient
       inkscape:collect="always"
       xlink:href="#linearGradient3803"
       id="linearGradient3809"
       x1="24.000002"
       y1="2.9966743"
       x2="24.000002"
       y2="37.003349"
       gradientUnits="userSpaceOnUse"
       gradientTransform="matrix(1,0,0,1.0588235,0,-1.1764706)" />
    <linearGradient
       inkscape:collect="always"
       xlink:href="#linearGradient3813"
       id="linearGradient3823"
       gradientUnits="userSpaceOnUse"
       x1="24.000002"
       y1="2.0009475"
       x2="24.000004"
       y2="2.999052"
       gradientTransform="matrix(1,0,0,2,0,-2)" />
    <linearGradient
       inkscape:collect="always"
       xlink:href="#linearGradient3835"
       id="linearGradient3841"
       x1="47"
       y1="20"
       x2="48"
       y2="20"
       gradientUnits="userSpaceOnUse" />
    <linearGradient
       inkscape:collect="always"
       xlink:href="#linearGradient3843"
       id="linearGradient3851"
       gradientUnits="userSpaceOnUse"
       gradientTransform="matrix(1,0,0,2,0,-42.000001)"
       x1="24.000002"
       y1="2.0009475"
       x2="24.000004"
       y2="2.999052" />
    <linearGradient
       inkscape:collect="always"
       xlink:href="#linearGradient3835"
       id="linearGradient3855"
       gradientUnits="userSpaceOnUse"
       x1="47"
       y1="20"
       x2="48"
       y2="20"
       gradientTransform="translate(-48,0)" />
    <linearGradient
       inkscape:collect="always"
       xlink:href="#linearGradient3877"
       id="linearGradient3885"
       gradientUnits="userSpaceOnUse"
       gradientTransform="matrix(1.1771542,0,0,-1,-4.2516945,87.004)"
       x1="23.999966"
       y1="42.504612"
       x2="23.999966"
       y2="43.003391" />
    <linearGradient
       inkscape:collect="always"
       xlink:href="#linearGradient3865"
       id="linearGradient3888"
       gradientUnits="userSpaceOnUse"
       x1="23.999966"
       y1="42.504612"
       x2="23.999966"
       y2="43.003391"
       gradientTransform="matrix(1.1771542,0,0,1,-4.2516945,0)" />
    <clipPath
       clipPathUnits="userSpaceOnUse"
       id="clipPath3896">
      <rect
         ry="0.43446267"
         rx="0.46875"
         y="42.502003"
         x="13.999965"
         height="2"
         width="20"
         id="rect3898"
         style="fill:#a1a1a1;fill-opacity:1;stroke:none" />
    </clipPath>
    <linearGradient
       inkscape:collect="always"
       xlink:href="#linearGradient3906"
       id="linearGradient3913"
       x1="13.999965"
       y1="43.501999"
       x2="14.199965"
       y2="43.501999"
       gradientUnits="userSpaceOnUse"
       gradientTransform="matrix(10,0,0,1,-125.99968,0)" />
    <clipPath
       clipPathUnits="userSpaceOnUse"
       id="clipPath3925">
      <rect
         ry="0.43446267"
         rx="0.46875"
         y="42.502003"
         x="13.999965"
         height="2"
         width="20"
         id="rect3927"
         style="fill:#a1a1a1;fill-opacity:1;stroke:none" />
    </clipPath>
    <linearGradient
       inkscape:collect="always"
       xlink:href="#linearGradient3906"
       id="linearGradient3931"
       gradientUnits="userSpaceOnUse"
       gradientTransform="matrix(2.5,0,0,1,-20.999946,0)"
       x1="13.999965"
       y1="43.501999"
       x2="14.199965"
       y2="43.501999" />
    <radialGradient
       inkscape:collect="always"
       xlink:href="#linearGradient10691-1"
       id="radialGradient3937"
       gradientUnits="userSpaceOnUse"
       gradientTransform="matrix(3.3202298,0,0,0.4150287,1.7454548,13.447365)"
       cx="6.702713"
       cy="73.615715"
       fx="6.702713"
       fy="73.615715"
       r="7.228416" />
    <radialGradient
       inkscape:collect="always"
       xlink:href="#outerBackgroundGradient-5-0"
       id="radialGradient3939"
       cx="24"
       cy="33.87653"
       fx="24"
       fy="33.87653"
       r="22"
       gradientTransform="matrix(2.5722108,0,0,1.0995437,-37.733058,-7.7874541)"
       gradientUnits="userSpaceOnUse" />
    <radialGradient
       inkscape:collect="always"
       xlink:href="#linearGradient3941"
       id="radialGradient3949"
       cx="30.139633"
       cy="23.2439"
       fx="30.139633"
       fy="23.2439"
       r="21"
       gradientTransform="matrix(-3.6633084e-8,1.5778182,-3.3826508,-7.8536888e-8,101.66019,-21.602375)"
       gradientUnits="userSpaceOnUse" />
    <linearGradient
       inkscape:collect="always"
       xlink:href="#linearGradient3906"
       id="linearGradient3101"
       gradientUnits="userSpaceOnUse"
       gradientTransform="matrix(10,0,0,1,-125.99968,0)"
       x1="13.999965"
       y1="43.501999"
       x2="14.199965"
       y2="43.501999" />
    <linearGradient
       inkscape:collect="always"
       xlink:href="#linearGradient3877"
       id="linearGradient3104"
       gradientUnits="userSpaceOnUse"
       gradientTransform="matrix(1.1771542,0,0,-2,-4.2516945,129.508)"
       x1="23.999966"
       y1="42.504612"
       x2="23.999966"
       y2="43.003391" />
    <linearGradient
       inkscape:collect="always"
       xlink:href="#linearGradient3865"
       id="linearGradient3107"
       gradientUnits="userSpaceOnUse"
       gradientTransform="matrix(1.1771542,0,0,2,-4.2516945,-42.508)"
       x1="23.999966"
       y1="42.504612"
       x2="23.999966"
       y2="43.003391" />
    <clipPath
       clipPathUnits="userSpaceOnUse"
       id="clipPath3113">
      <rect
         style="fill:#a1a1a1;fill-opacity:1;stroke:none"
         id="rect3115"
         width="20"
         height="2"
         x="13.999965"
         y="42.502003"
         rx="0.46875"
         ry="0.43446267" />
    </clipPath>
    <clipPath
       clipPathUnits="userSpaceOnUse"
       id="clipPath3117">
      <rect
         ry="0.43446267"
         rx="0.46875"
         y="42.502003"
         x="13.999965"
         height="2"
         width="20"
         id="rect3119"
         style="fill:#a1a1a1;fill-opacity:1;stroke:none" />
    </clipPath>
    <clipPath
       clipPathUnits="userSpaceOnUse"
       id="clipPath3894">
      <rect
         rx="0.5"
         ry="0.5"
         y="42.502003"
         x="13.999965"
         height="2"
         width="20"
         id="rect3896"
         style="fill:#bebebe;fill-opacity:1;stroke:none" />
    </clipPath>
    <clipPath
       clipPathUnits="userSpaceOnUse"
       id="clipPath3901">
      <rect
         rx="0.5"
         ry="0.5"
         y="42.502003"
         x="-33.999966"
         height="2"
         width="20"
         id="rect3903"
         style="fill:#bebebe;fill-opacity:1;stroke:none"
         transform="scale(-1,1)" />
    </clipPath>
    <linearGradient
       inkscape:collect="always"
       xlink:href="#linearGradient3920"
       id="linearGradient3918"
       x1="13.999965"
       y1="42.5"
       x2="17"
       y2="42.5"
       gradientUnits="userSpaceOnUse"
       gradientTransform="matrix(0.66665883,0,0,1,5.6668,0)" />
    <clipPath
       clipPathUnits="userSpaceOnUse"
       id="clipPath3932">
      <path
         sodipodi:nodetypes="csccscc"
         style="color:#000000;fill:url(#linearGradient3936);fill-opacity:1;fill-rule:nonzero;stroke:none;stroke-width:0.99827462;marker:none;visibility:visible;display:inline;overflow:visible;enable-background:new"
         id="path3934"
         inkscape:connector-curvature="0"
         d="m 18,36.000097 c 0,0 -0.292918,5.007479 -1,5.999903 -0.707116,0.992424 -2,1 -2,1 l 18,0 c 0,0 -1.292894,-0.0076 -2,-1 -0.707106,-0.992422 -1,-6.000097 -1,-6.000097 z" />
    </clipPath>
    <linearGradient
       inkscape:collect="always"
       xlink:href="#linearGradient3912"
       id="linearGradient3936"
       gradientUnits="userSpaceOnUse"
       gradientTransform="matrix(0.9964089,0,0,1.0001438,-332.882,-49.516717)"
       x1="361.10583"
       y1="87.487457"
       x2="361.10583"
       y2="92.490532" />
    <linearGradient
       inkscape:collect="always"
       xlink:href="#linearGradient3920"
       id="linearGradient3940"
       gradientUnits="userSpaceOnUse"
       gradientTransform="matrix(0.66665883,0,0,1,5.6668,0)"
       x1="13.999965"
       y1="42.5"
       x2="17"
       y2="42.5" />
    <linearGradient
       inkscape:collect="always"
       xlink:href="#linearGradient3920"
       id="linearGradient3944"
       gradientUnits="userSpaceOnUse"
       gradientTransform="matrix(0.66665883,0,0,1,5.6668,0)"
       x1="13.999965"
       y1="42.5"
       x2="17"
       y2="42.5" />
    <linearGradient
       inkscape:collect="always"
       xlink:href="#linearGradient3912"
       id="linearGradient3948"
       gradientUnits="userSpaceOnUse"
       gradientTransform="matrix(1.4946133,0,0,1.0001438,-506.823,-49.516717)"
       x1="361.10583"
       y1="87.487457"
       x2="361.10583"
       y2="92.490532" />
    <linearGradient
       inkscape:collect="always"
       xlink:href="#linearGradient3912"
       id="linearGradient3956"
       gradientUnits="userSpaceOnUse"
       gradientTransform="matrix(0.6642726,0,0,1.0001438,-216.92133,-49.516717)"
       x1="361.10583"
       y1="87.487457"
       x2="361.10583"
       y2="92.490532" />
    <linearGradient
       inkscape:collect="always"
       xlink:href="#linearGradient3912"
       id="linearGradient3959"
       gradientUnits="userSpaceOnUse"
       gradientTransform="matrix(0.9964089,0,0,7.0010066,-332.882,-604.61702)"
       x1="361.10583"
       y1="87.487457"
       x2="361.10583"
       y2="92.490532" />
    <clipPath
       clipPathUnits="userSpaceOnUse"
       id="clipPath3963">
      <path
         sodipodi:nodetypes="csccscc"
         style="color:#000000;fill:url(#linearGradient3967);fill-opacity:1;fill-rule:nonzero;stroke:none;stroke-width:0.99827462;marker:none;visibility:visible;display:inline;overflow:visible;enable-background:new"
         id="path3965"
         inkscape:connector-curvature="0"
         d="m 17,42.000014 c 0,0 -0.195279,0.715354 -0.666667,0.857129 C 15.861923,42.998918 15,43 15,43 l 12,0 c 0,0 -0.861929,-0.0011 -1.333333,-0.142857 C 25.195263,42.715368 25,41.999986 25,41.999986 z" />
    </clipPath>
    <linearGradient
       inkscape:collect="always"
       xlink:href="#linearGradient3912"
       id="linearGradient3967"
       gradientUnits="userSpaceOnUse"
       gradientTransform="matrix(0.6642726,0,0,0.14287769,-216.92133,29.783326)"
       x1="361.10583"
       y1="87.487457"
       x2="361.10583"
       y2="92.490532" />
    <linearGradient
       inkscape:collect="always"
       xlink:href="#linearGradient3920"
       id="linearGradient3971"
       gradientUnits="userSpaceOnUse"
       gradientTransform="matrix(0.66665883,0,0,1,5.6668,0)"
       x1="13.999965"
       y1="42.5"
       x2="17"
       y2="42.5" />
    <radialGradient
       inkscape:collect="always"
       xlink:href="#linearGradient10691-1"
       id="radialGradient3272"
       gradientUnits="userSpaceOnUse"
       gradientTransform="matrix(3.3202298,0,0,0.4150287,1.7454548,13.447365)"
       cx="6.702713"
       cy="73.615715"
       fx="6.702713"
       fy="73.615715"
       r="7.228416" />
    <linearGradient
       inkscape:collect="always"
       xlink:href="#linearGradient3912"
       id="linearGradient3274"
       gradientUnits="userSpaceOnUse"
       gradientTransform="matrix(0.9964089,0,0,1.0001438,-332.882,-49.516717)"
       x1="361.10583"
       y1="86.50428"
       x2="361.10583"
       y2="92.490532" />
    <linearGradient
       inkscape:collect="always"
       xlink:href="#linearGradient3920"
       id="linearGradient3276"
       gradientUnits="userSpaceOnUse"
       gradientTransform="matrix(0.66665883,0,0,1,5.6668,0)"
       x1="13.999965"
       y1="42.5"
       x2="17"
       y2="42.5" />
    <linearGradient
       inkscape:collect="always"
       xlink:href="#linearGradient3920"
       id="linearGradient3278"
       gradientUnits="userSpaceOnUse"
       gradientTransform="matrix(0.66665883,0,0,1,5.6668,0)"
       x1="13.999965"
       y1="42.5"
       x2="17"
       y2="42.5" />
    <linearGradient
       inkscape:collect="always"
       xlink:href="#linearGradient3906"
       id="linearGradient3280"
       gradientUnits="userSpaceOnUse"
       gradientTransform="matrix(10,0,0,1,-125.99968,0)"
       x1="13.999965"
       y1="43.501999"
       x2="14.199965"
       y2="43.501999" />
    <linearGradient
       inkscape:collect="always"
       xlink:href="#linearGradient3906"
       id="linearGradient3282"
       gradientUnits="userSpaceOnUse"
       gradientTransform="matrix(10,0,0,1,-125.99968,0)"
       x1="13.999965"
       y1="43.501999"
       x2="14.199965"
       y2="43.501999" />
  </defs>
  <g
     id="g3133"
     transform="translate(0,1)">
    <path
       style="opacity:0.3;fill:url(#radialGradient3272);fill-opacity:1;fill-rule:nonzero;stroke:none;stroke-width:0.80000001;marker:none;visibility:visible;display:inline;overflow:visible"
       id="path2589"
       inkscape:connector-curvature="0"
       d="M 48,44 C 48,45.656855 37.254833,47 23.999999,47 10.745165,47 0,45.656855 0,44 0,42.343146 10.745165,41 23.999999,41 37.254833,41 48,42.343146 48,44 l 0,0 z" />
    <path
       sodipodi:nodetypes="csccscc"
       style="color:#000000;fill:url(#linearGradient3274);fill-opacity:1;fill-rule:nonzero;stroke:none;stroke-width:0.99827462000000000;marker:none;visibility:visible;display:inline;overflow:visible;enable-background:new"
       id="rect1789"
       inkscape:connector-curvature="0"
       d="m 18,36.000097 c 0,0 -0.292918,5.007479 -1,5.999903 -0.707116,0.992424 -2,1 -2,1 l 18,0 c 0,0 -1.292894,-0.0076 -2,-1 -0.707106,-0.992422 -1,-6.000097 -1,-6.000097 z" />
    <rect
       transform="matrix(1.5,0,0,7,-7.5,-258)"
       clip-path="url(#clipPath3963)"
       y="42"
       x="15"
       height="1"
       width="2"
       id="rect3909"
       style="fill:url(#linearGradient3276);fill-opacity:1;stroke:none" />
    <rect
       style="fill:url(#linearGradient3278);fill-opacity:1;stroke:none"
       id="rect3969"
       width="2"
       height="1"
       x="15"
       y="42"
       clip-path="url(#clipPath3963)"
       transform="matrix(-1.5,0,0,7,55.5,-258)" />
    <rect
       rx="0.5"
       ry="0.5"
       y="43"
       x="13.999965"
       height="2"
       width="20"
       id="rect3883"
       style="fill:#c8c8c8;fill-opacity:1;stroke:none" />
    <rect
       transform="translate(0,0.4980011)"
       clip-path="url(#clipPath3894)"
       ry="0"
       rx="0"
       y="42.501999"
       x="13.999965"
       height="2"
       width="2"
       id="rect3900"
       style="fill:url(#linearGradient3280);fill-opacity:1;stroke:none" />
    <rect
       transform="matrix(-1,0,0,1,47.999929,0.4980011)"
       style="fill:url(#linearGradient3282);fill-opacity:1;stroke:none"
       id="rect3099"
       width="2"
       height="2"
       x="13.999965"
       y="42.501999"
       rx="0"
       ry="0"
       clip-path="url(#clipPath3901)" />
  </g>
  <rect
     width="48"
     height="36"
     rx="0"
     ry="0"
     x="-3.5762787e-07"
     y="2.0000005"
     id="rect2722"
     style="fill:url(#linearGradient3809);fill-opacity:1;stroke:none" />
  <path
     style="fill:url(#radialGradient3939);fill-opacity:1;stroke:none;display:inline"
     d="M 2.0000001,5 46,5 46,35 2.0000001,35 z"
     id="rect2722-0"
     inkscape:connector-curvature="0"
     sodipodi:nodetypes="ccccc" />
  <path
     style="opacity:0.05;fill:#000000;fill-opacity:1;stroke:none;display:inline"
     d="m 2.0000001,5 0,30 L 46,35 46,5 z m 1.0476189,1.0714286 41.904762,0 0,27.8571424 -41.9047621,0 z"
     id="path3942"
     inkscape:connector-curvature="0"
     sodipodi:nodetypes="cccccccccc" />
  <path
     style="fill:url(#radialGradient3949);fill-opacity:1;stroke:none;display:inline"
     d="m 3.0000001,6.02 0,13.636039 C 20.942834,12.673359 45,11.436666 45,11.436666 L 45,6.02 z"
     id="rect3872"
     inkscape:connector-curvature="0"
     sodipodi:nodetypes="ccccc" />
  <rect
     y="2.0000005"
     x="-3.5762787e-07"
     height="2"
     width="48"
     id="rect3821"
     style="fill:url(#linearGradient3823);fill-opacity:1;stroke:none" />
  <rect
     style="fill:url(#linearGradient3851);fill-opacity:1;stroke:none;opacity:1"
     id="rect3827"
     width="48"
     height="2"
     x="-3.5762787e-07"
     y="-38"
     transform="scale(1,-1)" />
  <rect
     style="fill:url(#linearGradient3841);fill-opacity:1;stroke:none;opacity:0.4"
     id="rect3833"
     width="1"
     height="36"
     x="47"
     y="2.0000005" />
  <rect
     y="2.0000005"
     x="-0.99999964"
     height="36"
     width="1"
     id="rect3853"
     style="opacity:0.4;fill:url(#linearGradient3855);fill-opacity:1;stroke:none"
     transform="scale(-1,1)" />
  <g
     id="g3116">
    <path
       d="m 5.305583,14.000059 c -0.166001,0.03104 -0.242273,0.0207 -0.411266,0.0872 C 4.30957,14.317828 4,14.793747 4,15.408601 L 4,20.9068 c 0,0.164059 0.02243,0.344375 0.07028,0.502523 0.03439,0.11676 0.110664,0.258652 0.182453,0.359157 0.276671,0.390194 0.693918,0.597115 1.173978,0.597115 l 0.314058,0 0.72682,0 0.822532,0 c 0.185444,0 0.261716,0.0074 0.266202,0.215791 l 0,1.123286 c 0,0.78778 -0.11814,1.513485 0.628115,2.035222 0.113665,0.07834 0.254239,0.146322 0.387339,0.187707 0.152543,0.04877 0.394817,0.07242 0.556331,0.07242 l 5.395815,0 c 0.09721,0 0.345465,-0.01921 0.435196,-0.04139 C 15.570787,25.804917 15.998505,25.286135 16,24.660937 l 0,-5.643044 c 0,-0.159625 -0.02243,-0.300037 -0.07477,-0.45375 -0.03888,-0.113796 -0.11814,-0.263086 -0.189933,-0.359157 -0.276668,-0.365068 -0.677467,-0.571988 -1.139581,-0.573466 -0.717552,3.08e-4 -1.435106,-5.7e-5 -2.152658,-0.0012 l 6.12e-4,-0.428918 0,-0.932625 c 0,-0.755263 0.106188,-1.529741 -0.62961,-2.016007 -0.100201,-0.06652 -0.248257,-0.146323 -0.363411,-0.180318 -0.154038,-0.04434 -0.441177,-0.07391 -0.604187,-0.07242 -2.033263,-3e-6 -3.693999,8e-6 -5.54088,-2e-6 z m 5.298606,3.62943 c 0,0 -0.748754,0.0026 -1.123132,0.0035 -0.171984,0.03251 -0.302093,0.214311 -0.224325,0.381325 0.04337,0.09312 0.180956,0.221703 0.257228,0.297081 l 0.486041,0.468529 0.50698,0.477399 0.472583,0.508435 0.421735,0.418276 c 0.134596,0.1345 0.484546,0.509914 0.629611,0.573468 0.179462,0.07686 0.337986,-0.03842 0.39332,-0.208399 0.02094,-0.06947 0.01944,-0.143367 0.01944,-0.215789 5.23e-4,-0.310585 -6.11e-4,-0.931752 -6.11e-4,-0.931752 0,0 0.612573,-9.38e-4 0.91886,-9.38e-4 0.508474,0.0059 0.822533,0.310382 0.822533,0.812905 l 0,3.946287 -3.991528,0 c -0.110676,0 -0.182454,0 -0.29013,-0.03547 -0.270688,-0.0872 -0.460619,-0.336986 -0.50698,-0.610418 l 0,-0.382804 0,-0.526172 c -0.0016,-0.0606 -0.01056,-0.152235 0.03738,-0.198053 0.04786,-0.04582 0.142074,-0.04139 0.203391,-0.04139 l 0.701395,0 c 0.06132,0 0.134597,0.003 0.194417,-0.01331 0.164507,-0.04286 0.284148,-0.202488 0.210868,-0.369502 -0.04786,-0.107892 -0.173481,-0.220224 -0.258724,-0.304471 L 10.02093,21.223046 9.012954,20.251994 8.615147,19.829282 C 8.477559,19.694783 8.108168,19.300155 7.967588,19.236599 7.7971,19.161229 7.626611,19.286839 7.575764,19.449432 c -0.02243,0.06798 -0.01944,0.143368 -0.01944,0.214313 l 0,0.932625 -0.919742,0 C 6.132594,20.59477 5.815546,20.281569 5.814049,19.78348 l 7.92e-4,-3.944138 c 0,0 2.660466,-6.75e-4 3.990699,-6.75e-4 0.472582,0 0.797109,0.28969 0.798604,0.76561 z"
       id="path3874"
       inkscape:connector-curvature="0"
       style="opacity:0.05;fill:none;stroke:#000000;stroke-width:0.5;stroke-linecap:round;stroke-linejoin:round;stroke-miterlimit:4;stroke-opacity:1;stroke-dasharray:none"
       sodipodi:nodetypes="ccssccsccscsccssccscccccscccccccccccccccccscscccccssccccccccsccccccc" />
    <g
       style="font-size:7.06211853px;font-style:normal;font-variant:normal;font-weight:normal;font-stretch:normal;line-height:125%;letter-spacing:0px;word-spacing:0px;opacity:0.05;fill:none;stroke:#000000;stroke-width:0.5;stroke-linecap:round;stroke-linejoin:round;stroke-miterlimit:4;stroke-opacity:1;stroke-dasharray:none;font-family:MagistralC;-inkscape-font-specification:MagistralC"
       id="g3876">
      <path
         d="m 18.009884,17.549736 -1.009883,0 1.793778,4.463259 c 0.197739,0.487286 0.572032,0.536721 0.798019,0.536721 0.50141,0 0.706212,-0.303671 0.79802,-0.536721 l 1.793778,-4.463259 -1.009883,0 -1.475983,3.990097 c -0.01412,0.03531 -0.04237,0.105932 -0.105932,0.105932 -0.06356,0 -0.09181,-0.07062 -0.105931,-0.105932 l -1.475983,-3.990097"
         id="path3878"
         inkscape:connector-curvature="0"
         style="fill:none;stroke:#000000;stroke-width:0.5;stroke-linecap:round;stroke-linejoin:round;stroke-miterlimit:4;stroke-opacity:1;stroke-dasharray:none" />
      <path
         d="m 22.253003,22.493219 0.826268,0 0,-2.853096 c 0,-0.141242 0.02119,-0.183615 0.03531,-0.197739 0.02119,-0.02119 0.06356,-0.0565 0.183615,-0.0565 l 1.207622,0 0,3.107332 0.826268,0 0,-3.107332 0.769771,0 c 0.148304,0 0.360168,0.01412 0.50141,0.176553 0.13418,0.148305 0.155367,0.367231 0.155367,0.529659 l 0,2.40112 0.826268,0 0,-2.528238 c 0,-0.374292 -0.127119,-0.713274 -0.338982,-0.918075 -0.26836,-0.247174 -0.685026,-0.296609 -0.953386,-0.296609 l -3.36863,0 c -0.169491,0 -0.423728,0.02825 -0.56497,0.225987 -0.09181,0.13418 -0.105932,0.317796 -0.105932,0.423727 l 0,3.093208"
         id="path3880"
         inkscape:connector-curvature="0"
         style="fill:none;stroke:#000000;stroke-width:0.5;stroke-linecap:round;stroke-linejoin:round;stroke-miterlimit:4;stroke-opacity:1;stroke-dasharray:none" />
      <path
         d="m 28.495475,18.750297 -0.790958,0 0.889827,3.276823 c 0.04943,0.197739 0.141243,0.508472 0.642653,0.508472 0.430789,0 0.586156,-0.225988 0.642653,-0.416665 l 0.649715,-2.344623 c 0.0071,-0.02825 0.02119,-0.120056 0.0565,-0.120056 0.03531,0 0.04944,0.09181 0.0565,0.120056 l 0.649715,2.344623 c 0.105931,0.381354 0.444913,0.416665 0.642652,0.416665 0.275423,0 0.522597,-0.07062 0.642653,-0.508472 l 0.889827,-3.276823 -0.790957,0 -0.713274,2.76835 c -0.01412,0.04943 -0.04237,0.112994 -0.07768,0.112994 -0.03531,0 -0.0565,-0.07768 -0.06356,-0.105932 l -0.692087,-2.471741 c -0.08475,-0.310733 -0.374293,-0.346044 -0.543783,-0.346044 -0.141243,0 -0.451976,0.01412 -0.543783,0.346044 l -0.685026,2.471741 c -0.0071,0.02119 -0.02825,0.105932 -0.07062,0.105932 -0.03531,0 -0.06356,-0.07768 -0.07062,-0.112994 l -0.720336,-2.76835"
         id="path3882"
         inkscape:connector-curvature="0"
         style="fill:none;stroke:#000000;stroke-width:0.5;stroke-linecap:round;stroke-linejoin:round;stroke-miterlimit:4;stroke-opacity:1;stroke-dasharray:none" />
      <path
         d="m 33.753773,18.750297 0,0.63559 1.843213,0 c 0.127118,0 0.289547,0.02119 0.40254,0.162429 0.09181,0.112994 0.105932,0.240112 0.105932,0.353106 l 0,0.261298 -1.624287,0 c -0.197739,0 -0.451976,0.01412 -0.685026,0.218926 -0.282484,0.247174 -0.317795,0.579094 -0.317795,0.911013 0,0.275423 0.02119,0.755647 0.324857,1.016945 0.211864,0.183615 0.473163,0.183615 0.677964,0.183615 l 1.786716,0 c 0.176553,0 0.381354,-0.01412 0.515535,-0.148304 0.13418,-0.13418 0.148304,-0.346044 0.148304,-0.480224 l 0,-1.942083 c 0,-0.416664 -0.120056,-0.720336 -0.275423,-0.882765 -0.16949,-0.176552 -0.459038,-0.289546 -0.776833,-0.289546 l -2.125697,0 m 2.351685,2.048014 0,0.861578 c 0,0.0565 0,0.105932 -0.0565,0.155367 -0.0565,0.04237 -0.13418,0.04237 -0.183615,0.04237 l -1.151125,0 c -0.105932,0 -0.211864,-0.0565 -0.268361,-0.112994 -0.09887,-0.105932 -0.112994,-0.303671 -0.112994,-0.416665 0,-0.26836 0.06356,-0.36723 0.09181,-0.402541 0.09181,-0.120056 0.247174,-0.127118 0.303671,-0.127118 l 1.377113,0"
         id="path3884"
         inkscape:connector-curvature="0"
         style="fill:none;stroke:#000000;stroke-width:0.5;stroke-linecap:round;stroke-linejoin:round;stroke-miterlimit:4;stroke-opacity:1;stroke-dasharray:none" />
      <path
         d="m 37.49449,22.493219 0.826268,0 0,-2.111573 c 0,-0.282485 0.03531,-0.543783 0.190677,-0.73446 0.19774,-0.23305 0.487287,-0.261299 0.706212,-0.261299 l 0.346044,0 0,-0.63559 -0.557907,0 c -0.289547,0 -0.776834,0.02119 -1.122877,0.324857 -0.317795,0.275422 -0.388417,0.677964 -0.388417,1.087566 l 0,2.330499"
         id="path3886"
         inkscape:connector-curvature="0"
         style="fill:none;stroke:#000000;stroke-width:0.5;stroke-linecap:round;stroke-linejoin:round;stroke-miterlimit:4;stroke-opacity:1;stroke-dasharray:none" />
      <path
         d="m 43.242944,22.493219 0,-0.63559 -1.829089,0 c -0.30367,0 -0.649715,-0.04237 -0.755646,-0.444914 -0.02825,-0.112994 -0.04944,-0.353106 -0.04944,-0.515534 l 2.175132,0 c 0.148305,0 0.289547,-0.02825 0.402541,-0.141243 0.155367,-0.155366 0.176553,-0.374292 0.176553,-0.564969 0,-0.473162 -0.09181,-0.939262 -0.529659,-1.214685 -0.346043,-0.218925 -0.79802,-0.240112 -1.235871,-0.240112 -0.353105,0 -0.988697,1e-6 -1.398299,0.353106 -0.409602,0.353106 -0.444913,0.868642 -0.444913,1.567791 0,0.494347 0.02119,1.009883 0.26836,1.362988 0.310733,0.437851 0.762709,0.473162 1.144063,0.473162 l 2.076263,0 m -2.63417,-2.231629 c 0.0071,-0.247174 0,-0.451976 0.169491,-0.642653 0.225987,-0.254236 0.564969,-0.247174 0.783895,-0.247174 0.23305,0 0.501411,0.01412 0.706212,0.169491 0.120056,0.09181 0.240112,0.268361 0.240112,0.50141 0,0.09887 -0.02119,0.218926 -0.183615,0.218926 l -1.716095,0"
         id="path3888"
         inkscape:connector-curvature="0"
         style="fill:none;stroke:#000000;stroke-width:0.5;stroke-linecap:round;stroke-linejoin:round;stroke-miterlimit:4;stroke-opacity:1;stroke-dasharray:none" />
    </g>
  </g>
  <g
     id="g3894">
    <g
       id="text3844"
       style="font-size:7.06211853px;font-style:normal;font-variant:normal;font-weight:normal;font-stretch:normal;line-height:125%;letter-spacing:0px;word-spacing:0px;fill:#ffffff;fill-opacity:1;stroke:none;font-family:MagistralC;-inkscape-font-specification:MagistralC">
      <path
         id="path3849"
         d="m 18.009884,17.549736 -1.009883,0 1.793778,4.463259 c 0.197739,0.487286 0.572032,0.536721 0.798019,0.536721 0.50141,0 0.706212,-0.303671 0.79802,-0.536721 l 1.793778,-4.463259 -1.009883,0 -1.475983,3.990097 c -0.01412,0.03531 -0.04237,0.105932 -0.105932,0.105932 -0.06356,0 -0.09181,-0.07062 -0.105931,-0.105932 l -1.475983,-3.990097"
         inkscape:connector-curvature="0" />
      <path
         id="path3851"
         d="m 22.253003,22.493219 0.826268,0 0,-2.853096 c 0,-0.141242 0.02119,-0.183615 0.03531,-0.197739 0.02119,-0.02119 0.06356,-0.0565 0.183615,-0.0565 l 1.207622,0 0,3.107332 0.826268,0 0,-3.107332 0.769771,0 c 0.148304,0 0.360168,0.01412 0.50141,0.176553 0.13418,0.148305 0.155367,0.367231 0.155367,0.529659 l 0,2.40112 0.826268,0 0,-2.528238 c 0,-0.374292 -0.127119,-0.713274 -0.338982,-0.918075 -0.26836,-0.247174 -0.685026,-0.296609 -0.953386,-0.296609 l -3.36863,0 c -0.169491,0 -0.423728,0.02825 -0.56497,0.225987 -0.09181,0.13418 -0.105932,0.317796 -0.105932,0.423727 l 0,3.093208"
         inkscape:connector-curvature="0" />
      <path
         id="path3853"
         d="m 28.495475,18.750297 -0.790958,0 0.889827,3.276823 c 0.04943,0.197739 0.141243,0.508472 0.642653,0.508472 0.430789,0 0.586156,-0.225988 0.642653,-0.416665 l 0.649715,-2.344623 c 0.0071,-0.02825 0.02119,-0.120056 0.0565,-0.120056 0.03531,0 0.04944,0.09181 0.0565,0.120056 l 0.649715,2.344623 c 0.105931,0.381354 0.444913,0.416665 0.642652,0.416665 0.275423,0 0.522597,-0.07062 0.642653,-0.508472 l 0.889827,-3.276823 -0.790957,0 -0.713274,2.76835 c -0.01412,0.04943 -0.04237,0.112994 -0.07768,0.112994 -0.03531,0 -0.0565,-0.07768 -0.06356,-0.105932 l -0.692087,-2.471741 c -0.08475,-0.310733 -0.374293,-0.346044 -0.543783,-0.346044 -0.141243,0 -0.451976,0.01412 -0.543783,0.346044 l -0.685026,2.471741 c -0.0071,0.02119 -0.02825,0.105932 -0.07062,0.105932 -0.03531,0 -0.06356,-0.07768 -0.07062,-0.112994 l -0.720336,-2.76835"
         inkscape:connector-curvature="0" />
      <path
         id="path3855"
         d="m 33.753773,18.750297 0,0.63559 1.843213,0 c 0.127118,0 0.289547,0.02119 0.40254,0.162429 0.09181,0.112994 0.105932,0.240112 0.105932,0.353106 l 0,0.261298 -1.624287,0 c -0.197739,0 -0.451976,0.01412 -0.685026,0.218926 -0.282484,0.247174 -0.317795,0.579094 -0.317795,0.911013 0,0.275423 0.02119,0.755647 0.324857,1.016945 0.211864,0.183615 0.473163,0.183615 0.677964,0.183615 l 1.786716,0 c 0.176553,0 0.381354,-0.01412 0.515535,-0.148304 0.13418,-0.13418 0.148304,-0.346044 0.148304,-0.480224 l 0,-1.942083 c 0,-0.416664 -0.120056,-0.720336 -0.275423,-0.882765 -0.16949,-0.176552 -0.459038,-0.289546 -0.776833,-0.289546 l -2.125697,0 m 2.351685,2.048014 0,0.861578 c 0,0.0565 0,0.105932 -0.0565,0.155367 -0.0565,0.04237 -0.13418,0.04237 -0.183615,0.04237 l -1.151125,0 c -0.105932,0 -0.211864,-0.0565 -0.268361,-0.112994 -0.09887,-0.105932 -0.112994,-0.303671 -0.112994,-0.416665 0,-0.26836 0.06356,-0.36723 0.09181,-0.402541 0.09181,-0.120056 0.247174,-0.127118 0.303671,-0.127118 l 1.377113,0"
         inkscape:connector-curvature="0" />
      <path
         id="path3857"
         d="m 37.49449,22.493219 0.826268,0 0,-2.111573 c 0,-0.282485 0.03531,-0.543783 0.190677,-0.73446 0.19774,-0.23305 0.487287,-0.261299 0.706212,-0.261299 l 0.346044,0 0,-0.63559 -0.557907,0 c -0.289547,0 -0.776834,0.02119 -1.122877,0.324857 -0.317795,0.275422 -0.388417,0.677964 -0.388417,1.087566 l 0,2.330499"
         inkscape:connector-curvature="0" />
      <path
         id="path3859"
         d="m 43.242944,22.493219 0,-0.63559 -1.829089,0 c -0.30367,0 -0.649715,-0.04237 -0.755646,-0.444914 -0.02825,-0.112994 -0.04944,-0.353106 -0.04944,-0.515534 l 2.175132,0 c 0.148305,0 0.289547,-0.02825 0.402541,-0.141243 0.155367,-0.155366 0.176553,-0.374292 0.176553,-0.564969 0,-0.473162 -0.09181,-0.939262 -0.529659,-1.214685 -0.346043,-0.218925 -0.79802,-0.240112 -1.235871,-0.240112 -0.353105,0 -0.988697,1e-6 -1.398299,0.353106 -0.409602,0.353106 -0.444913,0.868642 -0.444913,1.567791 0,0.494347 0.02119,1.009883 0.26836,1.362988 0.310733,0.437851 0.762709,0.473162 1.144063,0.473162 l 2.076263,0 m -2.63417,-2.231629 c 0.0071,-0.247174 0,-0.451976 0.169491,-0.642653 0.225987,-0.254236 0.564969,-0.247174 0.783895,-0.247174 0.23305,0 0.501411,0.01412 0.706212,0.169491 0.120056,0.09181 0.240112,0.268361 0.240112,0.50141 0,0.09887 -0.02119,0.218926 -0.183615,0.218926 l -1.716095,0"
         inkscape:connector-curvature="0" />
    </g>
    <path
       d="m 5.3055633,13.999978 c -0.166001,0.03105 -0.242275,0.0207 -0.411268,0.0872 -0.584748,0.230561 -0.89432,0.706472 -0.89432,1.321318 l 0,5.498076 c 0,0.164086 0.02243,0.344386 0.07029,0.502562 0.03439,0.1167 0.110664,0.2586 0.182452,0.359086 0.276672,0.390226 0.693919,0.597151 1.173981,0.597151 0.727778,1.61e-4 1.497567,-2.74e-4 2.127656,-6.6e-4 l 0.002,1.33971 c 0,0.787772 -0.11814,1.51346 0.628114,2.035235 0.113667,0.0783 0.254242,0.146311 0.387342,0.187636 0.152524,0.04873 0.3948,0.07273 0.5563109,0.07273 l 5.3958248,0 c 0.09721,0 0.345467,-0.0195 0.435197,-0.04125 0.611669,-0.153659 1.039387,-0.672436 1.040882,-1.297623 l 0,-5.642955 c 0,-0.159616 -0.02243,-0.300031 -0.07477,-0.453737 -0.03888,-0.11379 -0.118143,-0.263086 -0.189934,-0.359161 -0.276669,-0.365063 -0.677468,-0.571975 -1.139584,-0.573453 -0.717553,3e-4 -1.435108,-5.2e-5 -2.152662,-0.0015 l 6e-4,-0.42891 0,-0.932607 c 0,-0.755251 0.106188,-1.529708 -0.629612,-2.015962 -0.1002,-0.06653 -0.248257,-0.146329 -0.36341,-0.180319 -0.154039,-0.04433 -0.441179,-0.07387 -0.604189,-0.07245 -2.0332661,0 -3.6940041,8e-6 -5.5408901,0 z m 5.2986147,3.629362 c 0,0 -0.7487565,0.003 -1.1231348,0.0038 -0.1719821,0.03255 -0.3020916,0.214307 -0.224324,0.381315 0.043365,0.09311 0.1809552,0.22171 0.2572266,0.297086 l 0.486043,0.468526 0.5069802,0.477392 0.472584,0.508426 0.421737,0.418276 c 0.134595,0.134476 0.484547,0.509911 0.629612,0.573436 0.179462,0.07688 0.337985,-0.03825 0.39332,-0.208425 0.02095,-0.06975 0.01944,-0.143325 0.01944,-0.21576 4.5e-4,-0.310577 -6e-4,-0.931713 -6e-4,-0.931713 0,0 0.612576,0 0.918863,0 0.508475,0.0075 0.822534,0.310335 0.822534,0.812912 l 0,3.946197 -3.991536,0 c -0.110675,0 -0.182454,0 -0.2901306,-0.03525 C 9.6321055,24.038328 9.4421729,23.788582 9.395813,23.515146 l -1.14e-4,-1.146832 0.942288,-0.0013 c 0.06132,0 0.134597,0 0.194417,-0.0135 0.164506,-0.04275 0.284148,-0.2025 0.21087,-0.369526 -0.04786,-0.107926 -0.173483,-0.2202 -0.258727,-0.304486 L 10.020936,21.22434 9.012959,20.253268 8.6151513,19.830566 c -0.137587,-0.13449 -0.50698,-0.52911 -0.647563,-0.592665 -0.170485,-0.07536 -0.340976,0.05025 -0.391823,0.212865 -0.02243,0.06825 -0.01944,0.14331 -0.01944,0.21426 l 0,0.932613 -0.919742,0 c -0.50399,0 -0.821039,-0.314761 -0.822535,-0.812912 l 8.25e-4,-3.944022 c 0,0 2.66047,-6e-4 3.9907069,-6e-4 0.4725828,0 0.7971088,0.289682 0.7986058,0.765594 z"
       id="Копия Копия Выделение-5"
       inkscape:connector-curvature="0"
       style="fill:#ffffff;fill-opacity:1;stroke:none"
       sodipodi:nodetypes="ccsscccccccssccscccccscccccccccccccccccscsccccccccccccscccccccc" />
  </g>
</svg>
