<?xml version="1.0" encoding="UTF-8" standalone="no"?>
<!-- Created with Inkscape (http://www.inkscape.org/) -->

<svg
   xmlns:dc="http://purl.org/dc/elements/1.1/"
   xmlns:cc="http://creativecommons.org/ns#"
   xmlns:rdf="http://www.w3.org/1999/02/22-rdf-syntax-ns#"
   xmlns:svg="http://www.w3.org/2000/svg"
   xmlns="http://www.w3.org/2000/svg"
   xmlns:xlink="http://www.w3.org/1999/xlink"
   xmlns:sodipodi="http://sodipodi.sourceforge.net/DTD/sodipodi-0.dtd"
   xmlns:inkscape="http://www.inkscape.org/namespaces/inkscape"
   version="1.1"
   width="48"
   height="48"
   id="svg3901"
   inkscape:version="0.48.4 r9939"
   sodipodi:docname="Mime Template v2.svg">
  <sodipodi:namedview
     pagecolor="#ffffff"
     bordercolor="#666666"
     borderopacity="1"
     objecttolerance="10"
     gridtolerance="10"
     guidetolerance="10"
     inkscape:pageopacity="0"
     inkscape:pageshadow="2"
     inkscape:window-width="1280"
     inkscape:window-height="1000"
     id="namedview37"
     showgrid="false"
     inkscape:zoom="8"
     inkscape:cx="20.607865"
     inkscape:cy="28.573261"
     inkscape:window-x="0"
     inkscape:window-y="24"
     inkscape:window-maximized="1"
     inkscape:current-layer="svg3901"
     showguides="true"
     inkscape:guide-bbox="true"
     inkscape:object-nodes="true"
     inkscape:snap-smooth-nodes="true"
     inkscape:snap-object-midpoints="false"
     inkscape:snap-center="false">
    <sodipodi:guide
       orientation="1,0"
       position="12,18"
       id="guide4185" />
    <sodipodi:guide
       orientation="1,0"
       position="36,18"
       id="guide4187" />
    <sodipodi:guide
       orientation="0,1"
       position="36,42"
       id="guide3065" />
    <sodipodi:guide
       orientation="0,1"
       position="36,18"
       id="guide3067" />
    <inkscape:grid
       type="xygrid"
       id="grid3254" />
  </sodipodi:namedview>
  <defs
     id="defs3903">
    <linearGradient
       x1="23.99999"
       y1="5.5641499"
       x2="23.99999"
       y2="42.110645"
       id="linearGradient3013"
       xlink:href="#linearGradient3029"
       gradientUnits="userSpaceOnUse"
       gradientTransform="matrix(0.89189189,0,0,1.1351351,2.5945999,-4.7432314)" />
    <linearGradient
       id="linearGradient3029">
      <stop
         id="stop3031"
         style="stop-color:#ffffff;stop-opacity:1"
         offset="0" />
      <stop
         id="stop3033"
         style="stop-color:#ffffff;stop-opacity:0.23529412"
         offset="0.01487851" />
      <stop
         id="stop3035"
         style="stop-color:#ffffff;stop-opacity:0.15686275"
         offset="0.98463625" />
      <stop
         id="stop3037"
         style="stop-color:#ffffff;stop-opacity:0.39215687"
         offset="1" />
    </linearGradient>
    <linearGradient
       x1="25.132275"
       y1="0.98520643"
       x2="25.132275"
       y2="47.013336"
       id="linearGradient3016"
       xlink:href="#linearGradient3600"
       gradientUnits="userSpaceOnUse"
       gradientTransform="matrix(1,0,0,0.9561695,-9.9999999e-8,-1.9149218)" />
    <linearGradient
       id="linearGradient3600">
      <stop
         id="stop3602"
         style="stop-color:#dadada;stop-opacity:1;"
         offset="0" />
      <stop
         id="stop3604"
         style="stop-color:#ffffff;stop-opacity:1;"
         offset="1" />
    </linearGradient>
    <radialGradient
       cx="605.71429"
       cy="486.64789"
       r="117.14286"
       fx="605.71429"
       fy="486.64789"
       id="radialGradient3021"
       xlink:href="#linearGradient5060"
       gradientUnits="userSpaceOnUse"
       gradientTransform="matrix(0.02303995,0,0,0.01470022,26.360882,37.040176)" />
    <linearGradient
       id="linearGradient5060">
      <stop
         id="stop5062"
         style="stop-color:#000000;stop-opacity:1"
         offset="0" />
      <stop
         id="stop5064"
         style="stop-color:#000000;stop-opacity:0"
         offset="1" />
    </linearGradient>
    <radialGradient
       cx="605.71429"
       cy="486.64789"
       r="117.14286"
       fx="605.71429"
       fy="486.64789"
       id="radialGradient3024"
       xlink:href="#linearGradient5060"
       gradientUnits="userSpaceOnUse"
       gradientTransform="matrix(-0.02303994,0,0,0.01470022,21.62311,37.040176)" />
    <linearGradient
       id="linearGradient5048">
      <stop
         id="stop5050"
         style="stop-color:#000000;stop-opacity:0"
         offset="0" />
      <stop
         id="stop5056"
         style="stop-color:#000000;stop-opacity:1"
         offset="0.5" />
      <stop
         id="stop5052"
         style="stop-color:#000000;stop-opacity:0"
         offset="1" />
    </linearGradient>
    <linearGradient
       x1="302.85715"
       y1="366.64789"
       x2="302.85715"
       y2="609.50507"
       id="linearGradient3899"
       xlink:href="#linearGradient5048"
       gradientUnits="userSpaceOnUse"
       gradientTransform="matrix(0.06732488,0,0,0.01470022,-0.3411391,37.040146)" />
    <linearGradient
       id="linearGradient3104-5">
      <stop
         id="stop3106-2"
         style="stop-color:#aaaaaa;stop-opacity:1"
         offset="0" />
      <stop
         id="stop3108-5"
         style="stop-color:#c8c8c8;stop-opacity:1"
         offset="1" />
    </linearGradient>
    <linearGradient
       x1="22.004084"
       y1="47.813133"
       x2="22.004084"
       y2="3.3638515"
       id="linearGradient3052"
       xlink:href="#linearGradient3104-5"
       gradientUnits="userSpaceOnUse"
       gradientTransform="translate(-1.982096,-3.047074)" />
    <linearGradient
       inkscape:collect="always"
       xlink:href="#linearGradient3104-5"
       id="linearGradient3015"
       gradientUnits="userSpaceOnUse"
       gradientTransform="translate(-1.982096,-3.047074)"
       x1="22.004084"
       y1="47.813133"
       x2="22.004084"
       y2="3.3638515" />
    <linearGradient
       inkscape:collect="always"
       xlink:href="#linearGradient3029"
       id="linearGradient3019"
       gradientUnits="userSpaceOnUse"
       gradientTransform="matrix(0.89189189,0,0,1.1351351,2.5945999,-4.7432314)"
       x1="23.99999"
       y1="5.5641499"
       x2="23.99999"
       y2="42.110645" />
    <linearGradient
       inkscape:collect="always"
       xlink:href="#linearGradient3600"
       id="linearGradient3022"
       gradientUnits="userSpaceOnUse"
       gradientTransform="matrix(1,0,0,0.9561695,-9.9999999e-8,-0.5399218)"
       x1="25.132275"
       y1="0.98520643"
       x2="25.132275"
       y2="47.013336" />
    <radialGradient
       inkscape:collect="always"
       xlink:href="#linearGradient5060"
       id="radialGradient3025"
       gradientUnits="userSpaceOnUse"
       gradientTransform="matrix(0.02303995,0,0,0.01470022,26.360882,38.415176)"
       cx="605.71429"
       cy="486.64789"
       fx="605.71429"
       fy="486.64789"
       r="117.14286" />
    <radialGradient
       inkscape:collect="always"
       xlink:href="#linearGradient5060"
       id="radialGradient3028"
       gradientUnits="userSpaceOnUse"
       gradientTransform="matrix(-0.02303994,0,0,0.01470022,21.62311,38.415176)"
       cx="605.71429"
       cy="486.64789"
       fx="605.71429"
       fy="486.64789"
       r="117.14286" />
    <linearGradient
       inkscape:collect="always"
       xlink:href="#linearGradient5048"
       id="linearGradient3031"
       gradientUnits="userSpaceOnUse"
       gradientTransform="matrix(0.06732488,0,0,0.01470022,-0.3411391,38.415146)"
       x1="302.85715"
       y1="366.64789"
       x2="302.85715"
       y2="609.50507" />
    <linearGradient
       inkscape:collect="always"
       xlink:href="#linearGradient3897-7"
       id="linearGradient3289"
       gradientUnits="userSpaceOnUse"
       gradientTransform="matrix(0.39056994,0,0,-0.39056994,-0.8729074,48.438192)"
       x1="91.308151"
       y1="98.191689"
       x2="95.18235"
       y2="102.06589" />
    <linearGradient
       id="linearGradient3897-7">
      <stop
         id="stop3899-4"
         style="stop-color:#fcfcfc;stop-opacity:1"
         offset="0" />
      <stop
         id="stop3907-4"
         style="stop-color:#c1c1c1;stop-opacity:1"
         offset="1" />
    </linearGradient>
    <linearGradient
       inkscape:collect="always"
       xlink:href="#linearGradient3897-7"
       id="linearGradient3807"
       gradientUnits="userSpaceOnUse"
       gradientTransform="matrix(0.56520801,0,0,-0.60266309,-19.240561,70.736731)"
       x1="91.308151"
       y1="98.191689"
       x2="95.18235"
       y2="102.06589" />
    <clipPath
       clipPathUnits="userSpaceOnUse"
       id="clipPath3823">
      <path
         sodipodi:nodetypes="cccccc"
         d="m 10.7586,0.49719902 c 5.083838,0 18.361576,0.001998 18.361576,0.001998 l 12.308735,12.55734904 3.2e-5,26.002479 c 0,0 -20.446895,0 -30.670343,0 0,-12.853941 0,-25.707883 0,-38.56182598 z"
         inkscape:connector-curvature="0"
         id="path3825"
         style="fill:#ffffff;fill-opacity:1;stroke:none;display:inline" />
    </clipPath>
    <clipPath
       clipPathUnits="userSpaceOnUse"
       id="clipPath4113">
      <path
         sodipodi:nodetypes="cccccc"
         d="m 6.4999609,1.872199 c 5.8015241,0 20.9536831,0.00228 20.9536831,0.00228 l 14.046362,14.330072 3.6e-5,29.673255 c 0,0 -23.333387,0 -35.0000811,0 0,-14.668535 0,-29.33707 0,-44.005607 z"
         inkscape:connector-curvature="0"
         id="path4115"
         style="fill:#ffffff;fill-opacity:1;stroke:none;display:inline" />
    </clipPath>
    <clipPath
       clipPathUnits="userSpaceOnUse"
       id="clipPath4160">
      <path
         sodipodi:nodetypes="cccccc"
         d="m 6.4999609,1.872199 c 5.8015241,0 20.9536831,0.00228 20.9536831,0.00228 l 14.046362,14.330072 3.6e-5,29.673255 c 0,0 -23.333387,0 -35.0000811,0 0,-14.668535 0,-29.33707 0,-44.005607 z"
         inkscape:connector-curvature="0"
         id="path4162"
         style="fill:#ffffff;fill-opacity:1;stroke:none;display:inline" />
    </clipPath>
    <radialGradient
       r="10.625"
       fy="4.625"
       fx="62.625"
       cy="4.625"
       cx="62.625"
       gradientTransform="matrix(2.1647059,0,0,0.7529402,-111.56471,36.517647)"
       gradientUnits="userSpaceOnUse"
       id="radialGradient3801"
       xlink:href="#linearGradient8838"
       inkscape:collect="always" />
    <linearGradient
       y2="45"
       x2="37.201294"
       y1="1"
       x1="37.201294"
       gradientUnits="userSpaceOnUse"
       id="linearGradient3798"
       xlink:href="#linearGradient3397"
       inkscape:collect="always" />
    <linearGradient
       y2="45.017357"
       x2="20.758585"
       y1="1"
       x1="20.758585"
       gradientUnits="userSpaceOnUse"
       id="linearGradient3796"
       xlink:href="#linearGradient3309"
       inkscape:collect="always" />
    <linearGradient
       y2="20.895"
       x2="84.63858"
       y1="105.105"
       x1="86.132919"
       gradientTransform="matrix(0.3244803,0,0,0.3244803,3.2332655,2.5577454)"
       gradientUnits="userSpaceOnUse"
       id="linearGradient3793"
       xlink:href="#linearGradient5128"
       inkscape:collect="always" />
    <linearGradient
       y2="20.895"
       x2="84.63858"
       y1="105.105"
       x1="86.132919"
       gradientTransform="matrix(0.3244803,0,0,0.3244803,3.2332655,2.5577454)"
       gradientUnits="userSpaceOnUse"
       id="linearGradient3789"
       xlink:href="#linearGradient5128"
       inkscape:collect="always" />
    <linearGradient
       y2="45"
       x2="37.201294"
       y1="1"
       x1="37.201294"
       gradientUnits="userSpaceOnUse"
       id="linearGradient3787"
       xlink:href="#linearGradient3397"
       inkscape:collect="always" />
    <linearGradient
       y2="45.017357"
       x2="20.758585"
       y1="1"
       x1="20.758585"
       gradientUnits="userSpaceOnUse"
       id="linearGradient3785"
       xlink:href="#linearGradient3309"
       inkscape:collect="always" />
    <radialGradient
       r="10.625"
       fy="4.625"
       fx="62.625"
       cy="4.625"
       cx="62.625"
       gradientTransform="matrix(2.1647059,0,0,0.7529402,-111.56471,36.517647)"
       gradientUnits="userSpaceOnUse"
       id="radialGradient3783"
       xlink:href="#linearGradient8838"
       inkscape:collect="always" />
    <linearGradient
       gradientTransform="matrix(0.3244803,0,0,0.3244803,3.2332655,2.5577454)"
       gradientUnits="userSpaceOnUse"
       xlink:href="#linearGradient5128"
       id="linearGradient2512"
       y2="20.895"
       x2="84.63858"
       y1="105.105"
       x1="86.132919" />
    <linearGradient
       id="linearGradient5128">
      <stop
         offset="0"
         style="stop-color:#acbacc;stop-opacity:1;"
         id="stop5130" />
      <stop
         offset="1"
         style="stop-color:#97a3c0;stop-opacity:1;"
         id="stop5132" />
    </linearGradient>
    <linearGradient
       gradientUnits="userSpaceOnUse"
       xlink:href="#linearGradient3309"
       id="linearGradient2515"
       y2="45.017357"
       x2="20.758585"
       y1="1"
       x1="20.758585" />
    <linearGradient
       gradientUnits="userSpaceOnUse"
       id="linearGradient3309"
       y2="122.8994"
       x2="63.9995"
       y1="3.1001"
       x1="63.9995">
      <stop
         offset="0"
         style="stop-color:#cad8ea;stop-opacity:1;"
         id="stop3311" />
      <stop
         offset="1"
         style="stop-color:#687088;stop-opacity:1;"
         id="stop3313" />
    </linearGradient>
    <linearGradient
       gradientUnits="userSpaceOnUse"
       xlink:href="#linearGradient3397"
       id="linearGradient2517"
       y2="45"
       x2="37.201294"
       y1="1"
       x1="37.201294" />
    <linearGradient
       id="linearGradient3397">
      <stop
         offset="0"
         style="stop-color:#4a5877;stop-opacity:1;"
         id="stop3399" />
      <stop
         offset="1"
         style="stop-color:#2b3249;stop-opacity:1;"
         id="stop3401" />
    </linearGradient>
    <radialGradient
       gradientTransform="matrix(2.1647059,0,0,0.7529402,-111.56471,36.517647)"
       gradientUnits="userSpaceOnUse"
       xlink:href="#linearGradient8838"
       id="radialGradient2436"
       fy="4.625"
       fx="62.625"
       r="10.625"
       cy="4.625"
       cx="62.625" />
    <linearGradient
       id="linearGradient8838">
      <stop
         offset="0"
         style="stop-color:#000000;stop-opacity:1"
         id="stop8840" />
      <stop
         offset="1"
         style="stop-color:#000000;stop-opacity:0"
         id="stop8842" />
    </linearGradient>
    <linearGradient
       inkscape:collect="always"
       xlink:href="#linearGradient3600-8"
       id="linearGradient3294"
       gradientUnits="userSpaceOnUse"
       gradientTransform="matrix(1,0,0,0.9561695,-9.9999999e-8,-0.5399218)"
       x1="25.132275"
       y1="0.98520643"
       x2="25.132275"
       y2="47.013336" />
    <linearGradient
       id="linearGradient3600-8">
      <stop
         id="stop3602-6"
         style="stop-color:#dadada;stop-opacity:1;"
         offset="0" />
      <stop
         id="stop3604-5"
         style="stop-color:#ffffff;stop-opacity:1;"
         offset="1" />
    </linearGradient>
    <clipPath
       clipPathUnits="userSpaceOnUse"
       id="clipPath3823-2">
      <path
         sodipodi:nodetypes="cccccc"
         d="m 10.7586,0.49719902 c 5.083838,0 18.361576,0.001998 18.361576,0.001998 l 12.308735,12.55734898 3.2e-5,26.002479 c 0,0 -20.446895,0 -30.670343,0 0,-12.853941 0,-25.707883 0,-38.56182592 z"
         inkscape:connector-curvature="0"
         id="path3825-3"
         style="fill:#ffffff;fill-opacity:1;stroke:none;display:inline" />
    </clipPath>
    <clipPath
       clipPathUnits="userSpaceOnUse"
       id="clipPath4113-0">
      <path
         sodipodi:nodetypes="cccccc"
         d="m 6.4999609,1.872199 c 5.8015241,0 20.9536831,0.00228 20.9536831,0.00228 l 14.046362,14.330072 3.6e-5,29.673255 c 0,0 -23.333387,0 -35.0000811,0 0,-14.668535 0,-29.33707 0,-44.005607 z"
         inkscape:connector-curvature="0"
         id="path4115-4"
         style="fill:#ffffff;fill-opacity:1;stroke:none;display:inline" />
    </clipPath>
    <linearGradient
       inkscape:collect="always"
       xlink:href="#linearGradient3897-7-2"
       id="linearGradient3296"
       gradientUnits="userSpaceOnUse"
       gradientTransform="matrix(0.56520801,0,0,-0.60266309,-19.240561,70.736731)"
       x1="91.308151"
       y1="98.191689"
       x2="95.18235"
       y2="102.06589" />
    <linearGradient
       id="linearGradient3897-7-2">
      <stop
         id="stop3899-4-0"
         style="stop-color:#fcfcfc;stop-opacity:1"
         offset="0" />
      <stop
         id="stop3907-4-2"
         style="stop-color:#c1c1c1;stop-opacity:1"
         offset="1" />
    </linearGradient>
    <linearGradient
       y2="102.06589"
       x2="95.18235"
       y1="98.191689"
       x1="91.308151"
       gradientTransform="matrix(0.56520801,0,0,-0.60266309,-19.240561,70.736731)"
       gradientUnits="userSpaceOnUse"
       id="linearGradient3332"
       xlink:href="#linearGradient3897-7-2"
       inkscape:collect="always" />
    <linearGradient
       inkscape:collect="always"
       xlink:href="#linearGradient3600-8"
       id="linearGradient3122"
       gradientUnits="userSpaceOnUse"
       gradientTransform="matrix(1,0,0,0.9561695,-9.9999999e-8,-0.5399218)"
       x1="25.132275"
       y1="0.98520643"
       x2="25.132275"
       y2="47.013336" />
    <linearGradient
       inkscape:collect="always"
       xlink:href="#linearGradient3897-7-2"
       id="linearGradient3124"
       gradientUnits="userSpaceOnUse"
       gradientTransform="matrix(0.56520801,0,0,-0.60266309,-19.240561,70.736731)"
       x1="91.308151"
       y1="98.191689"
       x2="95.18235"
       y2="102.06589" />
    <linearGradient
       inkscape:collect="always"
       xlink:href="#linearGradient3600"
       id="linearGradient3141"
       gradientUnits="userSpaceOnUse"
       gradientTransform="matrix(1,0,0,0.9561695,-9.9999999e-8,-0.5399218)"
       x1="25.132275"
       y1="0.98520643"
       x2="25.132275"
       y2="47.013336" />
    <radialGradient
       inkscape:collect="always"
       xlink:href="#linearGradient8838"
       id="radialGradient3143"
       gradientUnits="userSpaceOnUse"
       gradientTransform="matrix(2.1647059,0,0,0.7529402,-111.56471,36.517647)"
       cx="62.625"
       cy="4.625"
       fx="62.625"
       fy="4.625"
       r="10.625" />
    <linearGradient
       inkscape:collect="always"
       xlink:href="#linearGradient3309"
       id="linearGradient3145"
       gradientUnits="userSpaceOnUse"
       x1="20.758585"
       y1="1"
       x2="20.758585"
       y2="45.017357" />
    <linearGradient
       inkscape:collect="always"
       xlink:href="#linearGradient3397"
       id="linearGradient3147"
       gradientUnits="userSpaceOnUse"
       x1="37.201294"
       y1="1"
       x2="37.201294"
       y2="45" />
    <linearGradient
       inkscape:collect="always"
       xlink:href="#linearGradient5128"
       id="linearGradient3149"
       gradientUnits="userSpaceOnUse"
       gradientTransform="matrix(0.3244803,0,0,0.3244803,3.2332655,2.5577454)"
       x1="86.132919"
       y1="105.105"
       x2="84.63858"
       y2="20.895" />
    <linearGradient
       inkscape:collect="always"
       xlink:href="#linearGradient3897-7"
       id="linearGradient3151"
       gradientUnits="userSpaceOnUse"
       gradientTransform="matrix(0.56520801,0,0,-0.60266309,-19.240561,70.736731)"
       x1="91.308151"
       y1="98.191689"
       x2="95.18235"
       y2="102.06589" />
    <linearGradient
       inkscape:collect="always"
       xlink:href="#linearGradient3897-7"
       id="linearGradient3154"
       gradientUnits="userSpaceOnUse"
       gradientTransform="matrix(0.56520801,0,0,-0.60266309,-19.240561,70.736731)"
       x1="91.308151"
       y1="98.191689"
       x2="95.18235"
       y2="102.06589" />
    <linearGradient
       inkscape:collect="always"
       xlink:href="#linearGradient3600"
       id="linearGradient3163"
       gradientUnits="userSpaceOnUse"
       gradientTransform="matrix(1,0,0,0.9561695,-9.9999999e-8,-0.5399218)"
       x1="25.132275"
       y1="0.98520643"
       x2="25.132275"
       y2="47.013336" />
    <linearGradient
       inkscape:collect="always"
       xlink:href="#linearGradient3600-4"
       id="linearGradient3424"
       gradientUnits="userSpaceOnUse"
       gradientTransform="matrix(1,0,0,0.9561695,0.500039,-0.4177278)"
       x1="25.132275"
       y1="0.98520643"
       x2="25.132275"
       y2="47.013336" />
    <linearGradient
       id="linearGradient3600-4">
      <stop
         id="stop3602-0"
         style="stop-color:#dadada;stop-opacity:1;"
         offset="0" />
      <stop
         id="stop3604-3"
         style="stop-color:#ffffff;stop-opacity:1;"
         offset="1" />
    </linearGradient>
    <clipPath
       clipPathUnits="userSpaceOnUse"
       id="clipPath3823-1">
      <path
         sodipodi:nodetypes="cccccc"
         d="m 10.7586,0.49719902 c 5.083838,0 18.361576,0.001998 18.361576,0.001998 l 12.308735,12.55734898 3.2e-5,26.002479 c 0,0 -20.446895,0 -30.670343,0 0,-12.853941 0,-25.707883 0,-38.56182592 z"
         inkscape:connector-curvature="0"
         id="path3825-6"
         style="fill:#ffffff;fill-opacity:1;stroke:none;display:inline" />
    </clipPath>
    <filter
       color-interpolation-filters="sRGB"
       inkscape:collect="always"
       id="filter4740-7"
       x="-1.2070312"
       width="3.4140625"
       y="-1.1930501"
       height="3.3861003">
      <feGaussianBlur
         inkscape:collect="always"
         stdDeviation="7.6800744"
         id="feGaussianBlur4742-9" />
    </filter>
    <clipPath
       clipPathUnits="userSpaceOnUse"
       id="clipPath4113-3">
      <path
         sodipodi:nodetypes="cccccc"
         d="m 6.4999609,1.872199 c 5.8015241,0 20.9536831,0.00228 20.9536831,0.00228 l 14.046362,14.330072 3.6e-5,29.673255 c 0,0 -23.333387,0 -35.0000811,0 0,-14.668535 0,-29.33707 0,-44.005607 z"
         inkscape:connector-curvature="0"
         id="path4115-3"
         style="fill:#ffffff;fill-opacity:1;stroke:none;display:inline" />
    </clipPath>
    <filter
       color-interpolation-filters="sRGB"
       inkscape:collect="always"
       id="filter4109-3"
       x="-0.72760338"
       width="2.4552069"
       y="-0.71255386"
       height="2.4251077">
      <feGaussianBlur
         inkscape:collect="always"
         stdDeviation="4.1392406"
         id="feGaussianBlur4111-4" />
    </filter>
    <linearGradient
       inkscape:collect="always"
       xlink:href="#linearGradient3897-7-9"
       id="linearGradient3419"
       gradientUnits="userSpaceOnUse"
       gradientTransform="matrix(0.56520801,0,0,-0.60266309,-18.714491,70.858925)"
       x1="91.308151"
       y1="98.191689"
       x2="95.18235"
       y2="102.06589" />
    <linearGradient
       id="linearGradient3897-7-9">
      <stop
         id="stop3899-4-3"
         style="stop-color:#fcfcfc;stop-opacity:1"
         offset="0" />
      <stop
         id="stop3907-4-2-3"
         style="stop-color:#c1c1c1;stop-opacity:1"
         offset="1" />
    </linearGradient>
    <linearGradient
       id="linearGradient3397-0-3">
      <stop
         offset="0"
         style="stop-color:#aaaaaa;stop-opacity:1"
         id="stop3399-4-5" />
      <stop
         offset="1"
         style="stop-color:#8c8c8c;stop-opacity:1"
         id="stop3401-0-8" />
    </linearGradient>
    <linearGradient
       gradientTransform="matrix(0.77777782,0,0,0.77777782,-12.111112,-13.666669)"
       gradientUnits="userSpaceOnUse"
       xlink:href="#linearGradient3397-0-3"
       id="linearGradient3023"
       y2="47.044857"
       x2="25.922546"
       y1="19"
       x1="25.922546" />
    <linearGradient
       gradientUnits="userSpaceOnUse"
       id="linearGradient3309-1-9"
       y2="122.8994"
       x2="63.9995"
       y1="3.1001"
       x1="63.9995">
      <stop
         offset="0"
         style="stop-color:#f6f6f6;stop-opacity:1"
         id="stop3311-5-9" />
      <stop
         offset="1"
         style="stop-color:#d2d2d2;stop-opacity:1"
         id="stop3313-0-9" />
    </linearGradient>
    <linearGradient
       gradientTransform="matrix(0.77777782,0,0,0.77777782,-12.111112,-13.666669)"
       gradientUnits="userSpaceOnUse"
       xlink:href="#linearGradient3309-1-9"
       id="linearGradient3021-0"
       y2="47.012184"
       x2="32.036148"
       y1="19"
       x1="32.036148" />
    <radialGradient
       gradientTransform="matrix(1.6600963,0,0,0.36315008,0.8728521,-5.3585521)"
       gradientUnits="userSpaceOnUse"
       xlink:href="#linearGradient10691"
       id="radialGradient3026"
       fy="73.615715"
       fx="6.702713"
       r="7.228416"
       cy="73.615715"
       cx="6.702713" />
    <linearGradient
       gradientTransform="matrix(0.77777782,0,0,0.77777782,-12.111112,-13.666669)"
       gradientUnits="userSpaceOnUse"
       xlink:href="#linearGradient3309-1"
       id="linearGradient3021"
       y2="47.012184"
       x2="32.036148"
       y1="19"
       x1="32.036148" />
    <linearGradient
       gradientTransform="matrix(0.15623116,0,0,0.15623125,2.0012002,2.157431)"
       gradientUnits="userSpaceOnUse"
       xlink:href="#linearGradient5128-7"
       id="linearGradient3017"
       y2="20.895"
       x2="84.63858"
       y1="105.105"
       x1="86.132919" />
    <linearGradient
       gradientUnits="userSpaceOnUse"
       xlink:href="#linearGradient3805"
       id="linearGradient3014"
       y2="22.006775"
       x2="12.47939"
       y1="2"
       x1="12.47939" />
    <linearGradient
       gradientTransform="matrix(1.0116033,0,0,1.0116033,-0.13923977,-0.1392394)"
       gradientUnits="userSpaceOnUse"
       xlink:href="#linearGradient3805"
       id="linearGradient3011"
       y2="8"
       x2="12"
       y1="16"
       x1="12" />
    <radialGradient
       gradientTransform="matrix(1.6600963,0,0,0.36315008,0.8728521,2.6414479)"
       gradientUnits="userSpaceOnUse"
       xlink:href="#linearGradient10691"
       id="radialGradient3877"
       fy="73.615715"
       fx="6.702713"
       r="7.228416"
       cy="73.615715"
       cx="6.702713" />
    <linearGradient
       id="linearGradient10691">
      <stop
         offset="0"
         style="stop-color:#000000;stop-opacity:1"
         id="stop10693" />
      <stop
         offset="1"
         style="stop-color:#000000;stop-opacity:0"
         id="stop10695" />
    </linearGradient>
    <linearGradient
       id="linearGradient3397-0">
      <stop
         offset="0"
         style="stop-color:#aaaaaa;stop-opacity:1"
         id="stop3399-4" />
      <stop
         offset="1"
         style="stop-color:#8c8c8c;stop-opacity:1"
         id="stop3401-0" />
    </linearGradient>
    <linearGradient
       gradientTransform="matrix(0.77777782,0,0,0.77777782,-12.111112,-5.666669)"
       gradientUnits="userSpaceOnUse"
       xlink:href="#linearGradient3397-0"
       id="linearGradient3616-9"
       y2="47.044857"
       x2="25.922546"
       y1="19"
       x1="25.922546" />
    <linearGradient
       gradientUnits="userSpaceOnUse"
       id="linearGradient3309-1"
       y2="122.8994"
       x2="63.9995"
       y1="3.1001"
       x1="63.9995">
      <stop
         offset="0"
         style="stop-color:#cad8ea;stop-opacity:1;"
         id="stop3311-5" />
      <stop
         offset="1"
         style="stop-color:#687088;stop-opacity:1;"
         id="stop3313-0" />
    </linearGradient>
    <linearGradient
       gradientTransform="matrix(0.77777782,0,0,0.77777782,-12.111112,-5.666669)"
       gradientUnits="userSpaceOnUse"
       xlink:href="#linearGradient3309-1"
       id="linearGradient3614-2"
       y2="47.012184"
       x2="32.036148"
       y1="19"
       x1="32.036148" />
    <linearGradient
       id="linearGradient5128-7">
      <stop
         offset="0"
         style="stop-color:#acbacc;stop-opacity:1;"
         id="stop5130-7" />
      <stop
         offset="1"
         style="stop-color:#97a3c0;stop-opacity:1;"
         id="stop5132-2" />
    </linearGradient>
    <linearGradient
       gradientTransform="matrix(0.15623116,0,0,0.15623125,2.0012002,10.157431)"
       gradientUnits="userSpaceOnUse"
       xlink:href="#linearGradient5128-7"
       id="linearGradient3610"
       y2="20.895"
       x2="84.63858"
       y1="105.105"
       x1="86.132919" />
    <linearGradient
       gradientTransform="translate(0,8)"
       gradientUnits="userSpaceOnUse"
       xlink:href="#linearGradient3805"
       id="linearGradient3814"
       y2="22.006775"
       x2="12.47939"
       y1="2"
       x1="12.47939" />
    <linearGradient
       id="linearGradient3805">
      <stop
         offset="0"
         style="stop-color:#b0bcd2;stop-opacity:1;"
         id="stop3807" />
      <stop
         offset="1"
         style="stop-color:#8b95ad;stop-opacity:1;"
         id="stop3809" />
    </linearGradient>
    <linearGradient
       gradientUnits="userSpaceOnUse"
       xlink:href="#linearGradient3805"
       id="linearGradient3830"
       y2="8"
       x2="12"
       y1="16"
       x1="12" />
    <linearGradient
       id="linearGradient3791">
      <stop
         id="stop3793"
         offset="0"
         style="stop-color:#4a5877;stop-opacity:1;" />
      <stop
         id="stop3795"
         offset="1"
         style="stop-color:#2b3249;stop-opacity:1;" />
    </linearGradient>
    <linearGradient
       inkscape:collect="always"
       xlink:href="#linearGradient3897-7-9"
       id="linearGradient3244"
       gradientUnits="userSpaceOnUse"
       gradientTransform="matrix(0.56520801,0,0,-0.60266309,-18.714491,70.858925)"
       x1="91.308151"
       y1="98.191689"
       x2="95.18235"
       y2="102.06589" />
    <linearGradient
       inkscape:collect="always"
       xlink:href="#linearGradient3600-4"
       id="linearGradient3249"
       gradientUnits="userSpaceOnUse"
       gradientTransform="matrix(1,0,0,0.9561695,0.500039,-0.4177278)"
       x1="25.132275"
       y1="0.98520643"
       x2="25.132275"
       y2="47.013336" />
  </defs>
  <metadata
     id="metadata3906">
    <rdf:RDF>
      <cc:Work
         rdf:about="">
        <dc:format>image/svg+xml</dc:format>
        <dc:type
           rdf:resource="http://purl.org/dc/dcmitype/StillImage" />
        <dc:title />
      </cc:Work>
    </rdf:RDF>
  </metadata>
  <path
     style="fill:none;stroke:#000000;stroke-width:4;stroke-linejoin:round;stroke-miterlimit:4;stroke-opacity:0.05882353;stroke-dasharray:none;display:inline"
     id="path4644"
     inkscape:connector-curvature="0"
     d="m 7,1.994393 c 5.801524,0 20.010502,0.00228 20.010502,0.00228 L 40.989462,16.348842 40.989498,46 C 40.989498,46 18.666694,46 7,46 7,31.331465 7,16.66293 7,1.994393 z"
     sodipodi:nodetypes="cccccc" />
  <path
     style="fill:none;stroke:#000000;stroke-width:2;stroke-linejoin:round;stroke-miterlimit:4;stroke-opacity:0.05882353;stroke-dasharray:none;display:inline"
     id="path4648"
     inkscape:connector-curvature="0"
     d="M 7,2.994393 27.010502,2.996673 40.989462,17.348842 40.989498,47 7,47 z"
     sodipodi:nodetypes="cccccc" />
  <path
     sodipodi:nodetypes="cccccc"
     d="M 7,1.994393 26.976801,1.996673 41.023163,16.326745 41.023199,46 7,46 z"
     inkscape:connector-curvature="0"
     id="path5216"
     style="fill:none;stroke:#000000;stroke-width:2;stroke-linejoin:round;stroke-miterlimit:4;stroke-opacity:0.11764706;stroke-dasharray:none;display:inline" />
  <path
     style="fill:url(#linearGradient3249);fill-opacity:1;stroke:none;display:inline"
     id="path4160-9"
     inkscape:connector-curvature="0"
     d="M 7,1.994393 26.976801,1.996673 41.023163,16.326745 41.023199,46 7,46 z"
     sodipodi:nodetypes="cccccc" />
  <path
     sodipodi:nodetypes="cccc"
     d="m 33.033607,8.8038818 c -0.04937,-3.7222332 0.10108,-9.9827279 -2.010715,-13.2718925 0,0 13.793921,13.740947 15.270672,15.4496257 0,0 -2.562442,-2.0299713 -13.259957,-2.1777332 z"
     id="path3805-7"
     style="opacity:0.9;fill:#000000;fill-opacity:1;stroke:none;filter:url(#filter4740-7)"
     inkscape:connector-curvature="0"
     clip-path="url(#clipPath3823-1)"
     transform="matrix(1.1411702,0,0,1.1411702,-6.2542762,1.4268558)" />
  <path
     style="opacity:1;fill:#84ba10;fill-opacity:1;stroke:none"
     d="M 19.40625 6 C 19.321743 5.9845185 19.253256 5.9923426 19.1875 6.03125 C 18.924475 6.1868797 18.946285 6.7421329 19.25 7.28125 L 19.8125 8.28125 C 19.828096 8.3089344 19.858761 8.3173359 19.875 8.34375 C 18.393933 9.4313358 17.367845 11.093142 17.09375 13 L 30.90625 13 C 30.632155 11.093142 29.606067 9.4313358 28.125 8.34375 C 28.141239 8.3173359 28.171904 8.3089344 28.1875 8.28125 L 28.75 7.28125 C 29.053715 6.7421329 29.075525 6.1868797 28.8125 6.03125 C 28.746744 5.9923426 28.678257 5.9845185 28.59375 6 C 28.340228 6.0464446 28.040286 6.3144122 27.8125 6.71875 L 27.25 7.71875 C 27.233333 7.7483357 27.233719 7.7828858 27.21875 7.8125 C 26.25376 7.3057563 25.168192 7 24 7 C 22.831808 7 21.74624 7.3057563 20.78125 7.8125 C 20.766281 7.7828858 20.766667 7.7483357 20.75 7.71875 L 20.1875 6.71875 C 19.959714 6.3144122 19.659772 6.0464446 19.40625 6 z M 20.5 10 C 20.776142 10 21 10.223858 21 10.5 C 21 10.776142 20.776142 11 20.5 11 C 20.223858 11 20 10.776142 20 10.5 C 20 10.223858 20.223858 10 20.5 10 z M 27.5 10 C 27.776142 10 28 10.223858 28 10.5 C 28 10.776142 27.776142 11 27.5 11 C 27.223858 11 27 10.776142 27 10.5 C 27 10.223858 27.223858 10 27.5 10 z M 14.5 14 C 13.669 14 13 14.892 13 16 L 13 21 C 13 22.108 13.669 23 14.5 23 C 15.331 23 16 22.108 16 21 L 16 16 C 16 14.892 15.331 14 14.5 14 z M 17 14 L 17 16 L 17 24 C 17 25.108 17.892 26 19 26 L 20 26 L 20 28 C 20 29.108 20.669 30 21.5 30 C 22.331 30 23 29.108 23 28 L 23 26 L 25 26 L 25 28 C 25 29.108 25.669 30 26.5 30 C 27.331 30 28 29.108 28 28 L 28 26 L 29 26 C 30.108 26 31 25.108 31 24 L 31 16 L 31 14 L 29 14 L 19 14 L 17 14 z M 33.5 14 C 32.669 14 32 14.892 32 16 L 32 21 C 32 22.108 32.669 23 33.5 23 C 34.331 23 35 22.108 35 21 L 35 16 C 35 14.892 34.331 14 33.5 14 z "
     id="path3169" />
  <path
     sodipodi:nodetypes="cccc"
     d="m 31.363604,14.097603 c -0.04413,-3.358921 0.09038,-9.0083545 -1.797752,-11.9764771 0,0 12.332945,12.3997501 13.653286,13.9416511 0,0 -2.291044,-1.831833 -11.855534,-1.965174 z"
     id="path3827-2"
     style="opacity:0.9;fill:#000000;fill-opacity:1;stroke:none;filter:url(#filter4109-3)"
     inkscape:connector-curvature="0"
     clip-path="url(#clipPath4113-3)"
     transform="translate(-0.476843,0.122194)" />
  <path
     inkscape:connector-curvature="0"
     style="fill:url(#linearGradient3244);fill-opacity:1;stroke:none"
     id="path6011-2"
     d="m 29,14.28989 c 0,-3.442889 -0.03584,-9.2333791 -1.971138,-12.2756438 0,0 12.641014,12.7094898 13.994337,14.2899058 0,0 -2.047157,-2.014262 -12.023199,-2.014262 z"
     sodipodi:nodetypes="cccc" />
  <text
     xml:space="preserve"
     style="font-size:10px;font-style:normal;font-variant:normal;font-weight:normal;font-stretch:normal;line-height:125%;letter-spacing:0px;word-spacing:0px;fill:#575757;fill-opacity:1;stroke:none;font-family:Lucida Grande;-inkscape-font-specification:Lucida Grande"
     x="14.571289"
     y="42.265625"
     id="text3801-7"
     sodipodi:linespacing="125%"><tspan
       sodipodi:role="line"
       id="tspan3803-1"
       x="14.571289"
       y="42.265625">APK</tspan></text>
  <g
     style="fill:#84ba10;fill-opacity:1"
     transform="matrix(0.04895609,0,0,0.04895609,-26.695318,5.436771)"
     id="g3189">
    <path
       style="fill:#84ba10;fill-opacity:1"
       inkscape:connector-curvature="0"
       d="m 122.53,174.436 v 199.542 h 0.114 c 1.399,16.856 16.903,30.248 35.675,30.248 h 200.649 c 18.77,0 34.273,-13.392 35.675,-30.248 h 0.115 V 174.436 H 122.53 z"
       id="path3191" />
    <path
       style="fill:#84ba10;fill-opacity:1"
       inkscape:connector-curvature="0"
       d="m 112.146,320.585 c 0,19.682 -13.712,35.787 -30.47,35.787 -16.761,0 -30.475,-16.105 -30.475,-35.787 v -117.13 c 0,-19.686 13.713,-35.79 30.475,-35.79 16.758,0 30.47,16.104 30.47,35.79 v 117.13 z"
       id="path3193" />
    <path
       style="fill:#84ba10;fill-opacity:1"
       inkscape:connector-curvature="0"
       d="m 239.155,465.95 c 0,19.684 -13.714,35.79 -30.474,35.79 -16.758,0 -30.47,-16.106 -30.47,-35.79 V 348.821 c 0,-19.684 13.712,-35.789 30.47,-35.789 16.76,0 30.474,16.105 30.474,35.789 V 465.95 z"
       id="path3195" />
    <path
       style="fill:#84ba10;fill-opacity:1"
       inkscape:connector-curvature="0"
       d="m 340.733,465.95 c 0,19.684 -13.714,35.79 -30.474,35.79 -16.76,0 -30.474,-16.106 -30.474,-35.79 V 348.821 c 0,-19.684 13.714,-35.789 30.474,-35.789 16.76,0 30.474,16.105 30.474,35.789 V 465.95 z"
       id="path3197" />
    <path
       style="fill:#84ba10;fill-opacity:1"
       inkscape:connector-curvature="0"
       d="m 467.44,320.585 c 0,19.682 -13.713,35.787 -30.473,35.787 -16.757,0 -30.474,-16.105 -30.474,-35.787 v -117.13 c 0,-19.686 13.717,-35.79 30.474,-35.79 16.76,0 30.473,16.104 30.473,35.79 v 117.13 z"
       id="path3199" />
    <path
       style="fill:#84ba10;fill-opacity:1"
       inkscape:connector-curvature="0"
       d="M 325.945,54.443 345.499,19.36 c 1.595,-2.866 1.126,-6.201 -1.045,-7.412 -2.173,-1.21 -5.259,0.145 -6.854,3.01 l -20.006,35.896 c -17.835,-7.018 -37.83,-10.952 -58.949,-10.952 -21.277,0 -41.412,3.994 -59.354,11.114 L 179.196,14.958 c -1.596,-2.866 -4.681,-4.22 -6.851,-3.01 -2.173,1.21 -2.641,4.546 -1.045,7.412 l 19.649,35.26 c -40.88,19.199 -68.419,55.253 -68.419,96.567 0,4.198 0.295,8.338 0.846,12.414 H 393.91 c 0.554,-4.076 0.849,-8.215 0.849,-12.414 0,-41.444 -27.716,-77.592 -68.814,-96.744 z M 196.873,115.68 c -6.575,0 -11.904,-5.329 -11.904,-11.904 0,-6.574 5.329,-11.905 11.904,-11.905 6.574,0 11.905,5.331 11.905,11.905 0,6.576 -5.331,11.904 -11.905,11.904 z m 124.217,0 c -6.576,0 -11.906,-5.329 -11.906,-11.904 0,-6.574 5.33,-11.905 11.906,-11.905 6.574,0 11.904,5.331 11.904,11.905 0,6.576 -5.33,11.904 -11.904,11.904 z"
       id="path3201" />
  </g>
  <path
     id="path3203"
     d="m -14,7 c -3.524819,0 -6.41897,2.6100308 -6.90625,6 l 13.8125,0 C -7.58103,9.6100308 -10.475181,7 -14,7 z"
     style="opacity:0.5;fill:#000000;fill-opacity:1;stroke:none"
     inkscape:connector-curvature="0" />
  <rect
     ry="2"
     rx="2"
     y="14"
     x="-21"
     height="12"
     width="14"
     id="rect3205"
     style="opacity:0.5;fill:#000000;fill-opacity:1;stroke:none" />
  <rect
     ry="2"
     rx="2"
     y="22"
     x="-18"
     height="8"
     width="3"
     id="rect3207"
     style="opacity:0.5;fill:#000000;fill-opacity:1;stroke:none" />
  <rect
     style="opacity:0.5;fill:#000000;fill-opacity:1;stroke:none"
     id="rect3209"
     width="3"
     height="8"
     x="-13"
     y="22"
     rx="2"
     ry="2" />
  <rect
     style="opacity:0.5;fill:#000000;fill-opacity:1;stroke:none"
     id="rect3211"
     width="3"
     height="9"
     x="-25"
     y="14"
     rx="2"
     ry="2" />
  <rect
     ry="2"
     rx="2"
     y="14"
     x="-6"
     height="9"
     width="3"
     id="rect3213"
     style="opacity:0.5;fill:#000000;fill-opacity:1;stroke:none" />
  <rect
     style="opacity:0.5;fill:#000000;fill-opacity:1;stroke:none"
     id="rect3215"
     width="14"
     height="2"
     x="-21"
     y="14" />
  <rect
     transform="matrix(0.86063136,-0.5092285,0.49082791,0.87125654,0,0)"
     ry="1.1169333"
     rx="1.1033162"
     y="-4.3873906"
     x="-19.919857"
     height="3.3508"
     width="1.1033162"
     id="rect3221"
     style="opacity:0.5;fill:#000000;fill-opacity:1;stroke:none" />
  <rect
     style="opacity:0.5;fill:#000000;fill-opacity:1;stroke:none"
     id="rect3223"
     width="1.1033162"
     height="3.3508"
     x="4.4808345"
     y="9.8742275"
     rx="1.1033162"
     ry="1.1169333"
     transform="matrix(-0.86063136,-0.5092285,-0.49082791,0.87125654,0,0)" />
  <path
     sodipodi:type="arc"
     style="fill:#000000;fill-opacity:1;stroke:none;opacity:0.5"
     id="path4001"
     sodipodi:cx="-6.8124995"
     sodipodi:cy="-6.0624971"
     sodipodi:rx="1.4374999"
     sodipodi:ry="1.8124999"
     d="m -5.3749996,-6.0624971 a 1.4374999,1.8124999 0 1 1 -2.8749998,0 1.4374999,1.8124999 0 1 1 2.8749998,0 z"
     transform="matrix(0.34782612,0,0,0.27586209,-15.130435,12.172413)" />
  <path
     transform="matrix(0.34782612,0,0,0.27586209,-8.1304347,12.172413)"
     d="m -5.3749996,-6.0624971 a 1.4374999,1.8124999 0 1 1 -2.8749998,0 1.4374999,1.8124999 0 1 1 2.8749998,0 z"
     sodipodi:ry="1.8124999"
     sodipodi:rx="1.4374999"
     sodipodi:cy="-6.0624971"
     sodipodi:cx="-6.8124995"
     id="path4003"
     style="opacity:0.5;fill:#000000;fill-opacity:1;stroke:none"
     sodipodi:type="arc" />
</svg>
