<?xml version="1.0" encoding="UTF-8" standalone="no"?>
<!-- Created with Inkscape (http://www.inkscape.org/) -->

<svg
   xmlns:dc="http://purl.org/dc/elements/1.1/"
   xmlns:cc="http://creativecommons.org/ns#"
   xmlns:rdf="http://www.w3.org/1999/02/22-rdf-syntax-ns#"
   xmlns:svg="http://www.w3.org/2000/svg"
   xmlns="http://www.w3.org/2000/svg"
   xmlns:xlink="http://www.w3.org/1999/xlink"
   xmlns:sodipodi="http://sodipodi.sourceforge.net/DTD/sodipodi-0.dtd"
   xmlns:inkscape="http://www.inkscape.org/namespaces/inkscape"
   version="1.1"
   width="48"
   height="48"
   id="svg3901"
   inkscape:version="0.48.4 r9939"
   sodipodi:docname="Mime Template v2.svg">
  <sodipodi:namedview
     pagecolor="#ffffff"
     bordercolor="#666666"
     borderopacity="1"
     objecttolerance="10"
     gridtolerance="10"
     guidetolerance="10"
     inkscape:pageopacity="0"
     inkscape:pageshadow="2"
     inkscape:window-width="1280"
     inkscape:window-height="931"
     id="namedview37"
     showgrid="false"
     inkscape:zoom="11.313709"
     inkscape:cx="13.042237"
     inkscape:cy="20.358824"
     inkscape:window-x="0"
     inkscape:window-y="24"
     inkscape:window-maximized="1"
     inkscape:current-layer="svg3901"
     showguides="true"
     inkscape:guide-bbox="true"
     inkscape:object-nodes="true"
     inkscape:snap-smooth-nodes="true"
     inkscape:snap-object-midpoints="false"
     inkscape:snap-center="false">
    <sodipodi:guide
       orientation="1,0"
       position="12,18"
       id="guide4185" />
    <sodipodi:guide
       orientation="1,0"
       position="36,18"
       id="guide4187" />
    <sodipodi:guide
       orientation="0,1"
       position="36,42"
       id="guide3065" />
    <sodipodi:guide
       orientation="0,1"
       position="36,18"
       id="guide3067" />
    <sodipodi:guide
       orientation="1,0"
       position="8.4960938,5.5664063"
       id="guide3137" />
    <sodipodi:guide
       orientation="1,0"
       position="39.453125,2.7832031"
       id="guide3139" />
    <inkscape:grid
       type="xygrid"
       id="grid3254" />
  </sodipodi:namedview>
  <defs
     id="defs3903">
    <linearGradient
       x1="23.99999"
       y1="5.5641499"
       x2="23.99999"
       y2="42.110645"
       id="linearGradient3013"
       xlink:href="#linearGradient3029"
       gradientUnits="userSpaceOnUse"
       gradientTransform="matrix(0.89189189,0,0,1.1351351,2.5945999,-4.7432314)" />
    <linearGradient
       id="linearGradient3029">
      <stop
         id="stop3031"
         style="stop-color:#ffffff;stop-opacity:1"
         offset="0" />
      <stop
         id="stop3033"
         style="stop-color:#ffffff;stop-opacity:0.23529412"
         offset="0.01487851" />
      <stop
         id="stop3035"
         style="stop-color:#ffffff;stop-opacity:0.15686275"
         offset="0.98463625" />
      <stop
         id="stop3037"
         style="stop-color:#ffffff;stop-opacity:0.39215687"
         offset="1" />
    </linearGradient>
    <linearGradient
       x1="25.132275"
       y1="0.98520643"
       x2="25.132275"
       y2="47.013336"
       id="linearGradient3016"
       xlink:href="#linearGradient3600"
       gradientUnits="userSpaceOnUse"
       gradientTransform="matrix(1,0,0,0.9561695,-9.9999999e-8,-1.9149218)" />
    <linearGradient
       id="linearGradient3600">
      <stop
         id="stop3602"
         style="stop-color:#dadada;stop-opacity:1;"
         offset="0" />
      <stop
         id="stop3604"
         style="stop-color:#ffffff;stop-opacity:1;"
         offset="1" />
    </linearGradient>
    <radialGradient
       cx="605.71429"
       cy="486.64789"
       r="117.14286"
       fx="605.71429"
       fy="486.64789"
       id="radialGradient3021"
       xlink:href="#linearGradient5060"
       gradientUnits="userSpaceOnUse"
       gradientTransform="matrix(0.02303995,0,0,0.01470022,26.360882,37.040176)" />
    <linearGradient
       id="linearGradient5060">
      <stop
         id="stop5062"
         style="stop-color:#000000;stop-opacity:1"
         offset="0" />
      <stop
         id="stop5064"
         style="stop-color:#000000;stop-opacity:0"
         offset="1" />
    </linearGradient>
    <radialGradient
       cx="605.71429"
       cy="486.64789"
       r="117.14286"
       fx="605.71429"
       fy="486.64789"
       id="radialGradient3024"
       xlink:href="#linearGradient5060"
       gradientUnits="userSpaceOnUse"
       gradientTransform="matrix(-0.02303994,0,0,0.01470022,21.62311,37.040176)" />
    <linearGradient
       id="linearGradient5048">
      <stop
         id="stop5050"
         style="stop-color:#000000;stop-opacity:0"
         offset="0" />
      <stop
         id="stop5056"
         style="stop-color:#000000;stop-opacity:1"
         offset="0.5" />
      <stop
         id="stop5052"
         style="stop-color:#000000;stop-opacity:0"
         offset="1" />
    </linearGradient>
    <linearGradient
       x1="302.85715"
       y1="366.64789"
       x2="302.85715"
       y2="609.50507"
       id="linearGradient3899"
       xlink:href="#linearGradient5048"
       gradientUnits="userSpaceOnUse"
       gradientTransform="matrix(0.06732488,0,0,0.01470022,-0.3411391,37.040146)" />
    <linearGradient
       id="linearGradient3104-5">
      <stop
         id="stop3106-2"
         style="stop-color:#aaaaaa;stop-opacity:1"
         offset="0" />
      <stop
         id="stop3108-5"
         style="stop-color:#c8c8c8;stop-opacity:1"
         offset="1" />
    </linearGradient>
    <linearGradient
       x1="22.004084"
       y1="47.813133"
       x2="22.004084"
       y2="3.3638515"
       id="linearGradient3052"
       xlink:href="#linearGradient3104-5"
       gradientUnits="userSpaceOnUse"
       gradientTransform="translate(-1.982096,-3.047074)" />
    <linearGradient
       inkscape:collect="always"
       xlink:href="#linearGradient3104-5"
       id="linearGradient3015"
       gradientUnits="userSpaceOnUse"
       gradientTransform="translate(-1.982096,-3.047074)"
       x1="22.004084"
       y1="47.813133"
       x2="22.004084"
       y2="3.3638515" />
    <linearGradient
       inkscape:collect="always"
       xlink:href="#linearGradient3029"
       id="linearGradient3019"
       gradientUnits="userSpaceOnUse"
       gradientTransform="matrix(0.89189189,0,0,1.1351351,2.5945999,-4.7432314)"
       x1="23.99999"
       y1="5.5641499"
       x2="23.99999"
       y2="42.110645" />
    <linearGradient
       inkscape:collect="always"
       xlink:href="#linearGradient3600"
       id="linearGradient3022"
       gradientUnits="userSpaceOnUse"
       gradientTransform="matrix(1,0,0,0.9561695,-9.9999999e-8,-0.5399218)"
       x1="25.132275"
       y1="0.98520643"
       x2="25.132275"
       y2="47.013336" />
    <radialGradient
       inkscape:collect="always"
       xlink:href="#linearGradient5060"
       id="radialGradient3025"
       gradientUnits="userSpaceOnUse"
       gradientTransform="matrix(0.02303995,0,0,0.01470022,26.360882,38.415176)"
       cx="605.71429"
       cy="486.64789"
       fx="605.71429"
       fy="486.64789"
       r="117.14286" />
    <radialGradient
       inkscape:collect="always"
       xlink:href="#linearGradient5060"
       id="radialGradient3028"
       gradientUnits="userSpaceOnUse"
       gradientTransform="matrix(-0.02303994,0,0,0.01470022,21.62311,38.415176)"
       cx="605.71429"
       cy="486.64789"
       fx="605.71429"
       fy="486.64789"
       r="117.14286" />
    <linearGradient
       inkscape:collect="always"
       xlink:href="#linearGradient5048"
       id="linearGradient3031"
       gradientUnits="userSpaceOnUse"
       gradientTransform="matrix(0.06732488,0,0,0.01470022,-0.3411391,38.415146)"
       x1="302.85715"
       y1="366.64789"
       x2="302.85715"
       y2="609.50507" />
    <linearGradient
       inkscape:collect="always"
       xlink:href="#linearGradient3897-7"
       id="linearGradient3289"
       gradientUnits="userSpaceOnUse"
       gradientTransform="matrix(0.39056994,0,0,-0.39056994,-0.8729074,48.438192)"
       x1="91.308151"
       y1="98.191689"
       x2="95.18235"
       y2="102.06589" />
    <linearGradient
       id="linearGradient3897-7">
      <stop
         id="stop3899-4"
         style="stop-color:#fcfcfc;stop-opacity:1"
         offset="0" />
      <stop
         id="stop3907-4"
         style="stop-color:#c1c1c1;stop-opacity:1"
         offset="1" />
    </linearGradient>
    <linearGradient
       inkscape:collect="always"
       xlink:href="#linearGradient3897-7"
       id="linearGradient3807"
       gradientUnits="userSpaceOnUse"
       gradientTransform="matrix(0.56520801,0,0,-0.60266309,-19.240561,70.736731)"
       x1="91.308151"
       y1="98.191689"
       x2="95.18235"
       y2="102.06589" />
    <clipPath
       clipPathUnits="userSpaceOnUse"
       id="clipPath3823">
      <path
         sodipodi:nodetypes="cccccc"
         d="m 10.7586,0.49719902 c 5.083838,0 18.361576,0.001998 18.361576,0.001998 l 12.308735,12.55734904 3.2e-5,26.002479 c 0,0 -20.446895,0 -30.670343,0 0,-12.853941 0,-25.707883 0,-38.56182598 z"
         inkscape:connector-curvature="0"
         id="path3825"
         style="fill:#ffffff;fill-opacity:1;stroke:none;display:inline" />
    </clipPath>
    <clipPath
       clipPathUnits="userSpaceOnUse"
       id="clipPath4113">
      <path
         sodipodi:nodetypes="cccccc"
         d="m 6.4999609,1.872199 c 5.8015241,0 20.9536831,0.00228 20.9536831,0.00228 l 14.046362,14.330072 3.6e-5,29.673255 c 0,0 -23.333387,0 -35.0000811,0 0,-14.668535 0,-29.33707 0,-44.005607 z"
         inkscape:connector-curvature="0"
         id="path4115"
         style="fill:#ffffff;fill-opacity:1;stroke:none;display:inline" />
    </clipPath>
    <clipPath
       clipPathUnits="userSpaceOnUse"
       id="clipPath4160">
      <path
         sodipodi:nodetypes="cccccc"
         d="m 6.4999609,1.872199 c 5.8015241,0 20.9536831,0.00228 20.9536831,0.00228 l 14.046362,14.330072 3.6e-5,29.673255 c 0,0 -23.333387,0 -35.0000811,0 0,-14.668535 0,-29.33707 0,-44.005607 z"
         inkscape:connector-curvature="0"
         id="path4162"
         style="fill:#ffffff;fill-opacity:1;stroke:none;display:inline" />
    </clipPath>
    <radialGradient
       r="10.625"
       fy="4.625"
       fx="62.625"
       cy="4.625"
       cx="62.625"
       gradientTransform="matrix(2.1647059,0,0,0.7529402,-111.56471,36.517647)"
       gradientUnits="userSpaceOnUse"
       id="radialGradient3801"
       xlink:href="#linearGradient8838"
       inkscape:collect="always" />
    <linearGradient
       y2="45"
       x2="37.201294"
       y1="1"
       x1="37.201294"
       gradientUnits="userSpaceOnUse"
       id="linearGradient3798"
       xlink:href="#linearGradient3397"
       inkscape:collect="always" />
    <linearGradient
       y2="45.017357"
       x2="20.758585"
       y1="1"
       x1="20.758585"
       gradientUnits="userSpaceOnUse"
       id="linearGradient3796"
       xlink:href="#linearGradient3309"
       inkscape:collect="always" />
    <linearGradient
       y2="20.895"
       x2="84.63858"
       y1="105.105"
       x1="86.132919"
       gradientTransform="matrix(0.3244803,0,0,0.3244803,3.2332655,2.5577454)"
       gradientUnits="userSpaceOnUse"
       id="linearGradient3793"
       xlink:href="#linearGradient5128"
       inkscape:collect="always" />
    <linearGradient
       y2="20.895"
       x2="84.63858"
       y1="105.105"
       x1="86.132919"
       gradientTransform="matrix(0.3244803,0,0,0.3244803,3.2332655,2.5577454)"
       gradientUnits="userSpaceOnUse"
       id="linearGradient3789"
       xlink:href="#linearGradient5128"
       inkscape:collect="always" />
    <linearGradient
       y2="45"
       x2="37.201294"
       y1="1"
       x1="37.201294"
       gradientUnits="userSpaceOnUse"
       id="linearGradient3787"
       xlink:href="#linearGradient3397"
       inkscape:collect="always" />
    <linearGradient
       y2="45.017357"
       x2="20.758585"
       y1="1"
       x1="20.758585"
       gradientUnits="userSpaceOnUse"
       id="linearGradient3785"
       xlink:href="#linearGradient3309"
       inkscape:collect="always" />
    <radialGradient
       r="10.625"
       fy="4.625"
       fx="62.625"
       cy="4.625"
       cx="62.625"
       gradientTransform="matrix(2.1647059,0,0,0.7529402,-111.56471,36.517647)"
       gradientUnits="userSpaceOnUse"
       id="radialGradient3783"
       xlink:href="#linearGradient8838"
       inkscape:collect="always" />
    <linearGradient
       gradientTransform="matrix(0.3244803,0,0,0.3244803,3.2332655,2.5577454)"
       gradientUnits="userSpaceOnUse"
       xlink:href="#linearGradient5128"
       id="linearGradient2512"
       y2="20.895"
       x2="84.63858"
       y1="105.105"
       x1="86.132919" />
    <linearGradient
       id="linearGradient5128">
      <stop
         offset="0"
         style="stop-color:#acbacc;stop-opacity:1;"
         id="stop5130" />
      <stop
         offset="1"
         style="stop-color:#97a3c0;stop-opacity:1;"
         id="stop5132" />
    </linearGradient>
    <linearGradient
       gradientUnits="userSpaceOnUse"
       xlink:href="#linearGradient3309"
       id="linearGradient2515"
       y2="45.017357"
       x2="20.758585"
       y1="1"
       x1="20.758585" />
    <linearGradient
       gradientUnits="userSpaceOnUse"
       id="linearGradient3309"
       y2="122.8994"
       x2="63.9995"
       y1="3.1001"
       x1="63.9995">
      <stop
         offset="0"
         style="stop-color:#cad8ea;stop-opacity:1;"
         id="stop3311" />
      <stop
         offset="1"
         style="stop-color:#687088;stop-opacity:1;"
         id="stop3313" />
    </linearGradient>
    <linearGradient
       gradientUnits="userSpaceOnUse"
       xlink:href="#linearGradient3397"
       id="linearGradient2517"
       y2="45"
       x2="37.201294"
       y1="1"
       x1="37.201294" />
    <linearGradient
       id="linearGradient3397">
      <stop
         offset="0"
         style="stop-color:#4a5877;stop-opacity:1;"
         id="stop3399" />
      <stop
         offset="1"
         style="stop-color:#2b3249;stop-opacity:1;"
         id="stop3401" />
    </linearGradient>
    <radialGradient
       gradientTransform="matrix(2.1647059,0,0,0.7529402,-111.56471,36.517647)"
       gradientUnits="userSpaceOnUse"
       xlink:href="#linearGradient8838"
       id="radialGradient2436"
       fy="4.625"
       fx="62.625"
       r="10.625"
       cy="4.625"
       cx="62.625" />
    <linearGradient
       id="linearGradient8838">
      <stop
         offset="0"
         style="stop-color:#000000;stop-opacity:1"
         id="stop8840" />
      <stop
         offset="1"
         style="stop-color:#000000;stop-opacity:0"
         id="stop8842" />
    </linearGradient>
    <linearGradient
       inkscape:collect="always"
       xlink:href="#linearGradient3600-8"
       id="linearGradient3294"
       gradientUnits="userSpaceOnUse"
       gradientTransform="matrix(1,0,0,0.9561695,-9.9999999e-8,-0.5399218)"
       x1="25.132275"
       y1="0.98520643"
       x2="25.132275"
       y2="47.013336" />
    <linearGradient
       id="linearGradient3600-8">
      <stop
         id="stop3602-6"
         style="stop-color:#dadada;stop-opacity:1;"
         offset="0" />
      <stop
         id="stop3604-5"
         style="stop-color:#ffffff;stop-opacity:1;"
         offset="1" />
    </linearGradient>
    <clipPath
       clipPathUnits="userSpaceOnUse"
       id="clipPath3823-2">
      <path
         sodipodi:nodetypes="cccccc"
         d="m 10.7586,0.49719902 c 5.083838,0 18.361576,0.001998 18.361576,0.001998 l 12.308735,12.55734898 3.2e-5,26.002479 c 0,0 -20.446895,0 -30.670343,0 0,-12.853941 0,-25.707883 0,-38.56182592 z"
         inkscape:connector-curvature="0"
         id="path3825-3"
         style="fill:#ffffff;fill-opacity:1;stroke:none;display:inline" />
    </clipPath>
    <clipPath
       clipPathUnits="userSpaceOnUse"
       id="clipPath4113-0">
      <path
         sodipodi:nodetypes="cccccc"
         d="m 6.4999609,1.872199 c 5.8015241,0 20.9536831,0.00228 20.9536831,0.00228 l 14.046362,14.330072 3.6e-5,29.673255 c 0,0 -23.333387,0 -35.0000811,0 0,-14.668535 0,-29.33707 0,-44.005607 z"
         inkscape:connector-curvature="0"
         id="path4115-4"
         style="fill:#ffffff;fill-opacity:1;stroke:none;display:inline" />
    </clipPath>
    <linearGradient
       inkscape:collect="always"
       xlink:href="#linearGradient3897-7-2"
       id="linearGradient3296"
       gradientUnits="userSpaceOnUse"
       gradientTransform="matrix(0.56520801,0,0,-0.60266309,-19.240561,70.736731)"
       x1="91.308151"
       y1="98.191689"
       x2="95.18235"
       y2="102.06589" />
    <linearGradient
       id="linearGradient3897-7-2">
      <stop
         id="stop3899-4-0"
         style="stop-color:#fcfcfc;stop-opacity:1"
         offset="0" />
      <stop
         id="stop3907-4-2"
         style="stop-color:#c1c1c1;stop-opacity:1"
         offset="1" />
    </linearGradient>
    <linearGradient
       y2="102.06589"
       x2="95.18235"
       y1="98.191689"
       x1="91.308151"
       gradientTransform="matrix(0.56520801,0,0,-0.60266309,-19.240561,70.736731)"
       gradientUnits="userSpaceOnUse"
       id="linearGradient3332"
       xlink:href="#linearGradient3897-7-2"
       inkscape:collect="always" />
    <linearGradient
       inkscape:collect="always"
       xlink:href="#linearGradient3600-8"
       id="linearGradient3122"
       gradientUnits="userSpaceOnUse"
       gradientTransform="matrix(1,0,0,0.9561695,-9.9999999e-8,-0.5399218)"
       x1="25.132275"
       y1="0.98520643"
       x2="25.132275"
       y2="47.013336" />
    <linearGradient
       inkscape:collect="always"
       xlink:href="#linearGradient3897-7-2"
       id="linearGradient3124"
       gradientUnits="userSpaceOnUse"
       gradientTransform="matrix(0.56520801,0,0,-0.60266309,-19.240561,70.736731)"
       x1="91.308151"
       y1="98.191689"
       x2="95.18235"
       y2="102.06589" />
    <linearGradient
       inkscape:collect="always"
       xlink:href="#linearGradient3600"
       id="linearGradient3141"
       gradientUnits="userSpaceOnUse"
       gradientTransform="matrix(1,0,0,0.9561695,-9.9999999e-8,-0.5399218)"
       x1="25.132275"
       y1="0.98520643"
       x2="25.132275"
       y2="47.013336" />
    <radialGradient
       inkscape:collect="always"
       xlink:href="#linearGradient8838"
       id="radialGradient3143"
       gradientUnits="userSpaceOnUse"
       gradientTransform="matrix(2.1647059,0,0,0.7529402,-111.56471,36.517647)"
       cx="62.625"
       cy="4.625"
       fx="62.625"
       fy="4.625"
       r="10.625" />
    <linearGradient
       inkscape:collect="always"
       xlink:href="#linearGradient3309"
       id="linearGradient3145"
       gradientUnits="userSpaceOnUse"
       x1="20.758585"
       y1="1"
       x2="20.758585"
       y2="45.017357" />
    <linearGradient
       inkscape:collect="always"
       xlink:href="#linearGradient3397"
       id="linearGradient3147"
       gradientUnits="userSpaceOnUse"
       x1="37.201294"
       y1="1"
       x2="37.201294"
       y2="45" />
    <linearGradient
       inkscape:collect="always"
       xlink:href="#linearGradient5128"
       id="linearGradient3149"
       gradientUnits="userSpaceOnUse"
       gradientTransform="matrix(0.3244803,0,0,0.3244803,3.2332655,2.5577454)"
       x1="86.132919"
       y1="105.105"
       x2="84.63858"
       y2="20.895" />
    <linearGradient
       inkscape:collect="always"
       xlink:href="#linearGradient3897-7"
       id="linearGradient3151"
       gradientUnits="userSpaceOnUse"
       gradientTransform="matrix(0.56520801,0,0,-0.60266309,-19.240561,70.736731)"
       x1="91.308151"
       y1="98.191689"
       x2="95.18235"
       y2="102.06589" />
    <linearGradient
       inkscape:collect="always"
       xlink:href="#linearGradient3897-7"
       id="linearGradient3154"
       gradientUnits="userSpaceOnUse"
       gradientTransform="matrix(0.56520801,0,0,-0.60266309,-19.240561,70.736731)"
       x1="91.308151"
       y1="98.191689"
       x2="95.18235"
       y2="102.06589" />
    <linearGradient
       inkscape:collect="always"
       xlink:href="#linearGradient3600"
       id="linearGradient3163"
       gradientUnits="userSpaceOnUse"
       gradientTransform="matrix(1,0,0,0.9561695,-9.9999999e-8,-0.5399218)"
       x1="25.132275"
       y1="0.98520643"
       x2="25.132275"
       y2="47.013336" />
    <linearGradient
       inkscape:collect="always"
       xlink:href="#linearGradient3600-4"
       id="linearGradient3424"
       gradientUnits="userSpaceOnUse"
       gradientTransform="matrix(1,0,0,0.9561695,0.500039,-0.4177278)"
       x1="25.132275"
       y1="0.98520643"
       x2="25.132275"
       y2="47.013336" />
    <linearGradient
       id="linearGradient3600-4">
      <stop
         id="stop3602-0"
         style="stop-color:#dadada;stop-opacity:1;"
         offset="0" />
      <stop
         id="stop3604-3"
         style="stop-color:#ffffff;stop-opacity:1;"
         offset="1" />
    </linearGradient>
    <clipPath
       clipPathUnits="userSpaceOnUse"
       id="clipPath3823-1">
      <path
         sodipodi:nodetypes="cccccc"
         d="m 10.7586,0.49719902 c 5.083838,0 18.361576,0.001998 18.361576,0.001998 l 12.308735,12.55734898 3.2e-5,26.002479 c 0,0 -20.446895,0 -30.670343,0 0,-12.853941 0,-25.707883 0,-38.56182592 z"
         inkscape:connector-curvature="0"
         id="path3825-6"
         style="fill:#ffffff;fill-opacity:1;stroke:none;display:inline" />
    </clipPath>
    <filter
       color-interpolation-filters="sRGB"
       inkscape:collect="always"
       id="filter4740-7"
       x="-1.2070312"
       width="3.4140625"
       y="-1.1930501"
       height="3.3861003">
      <feGaussianBlur
         inkscape:collect="always"
         stdDeviation="7.6800744"
         id="feGaussianBlur4742-9" />
    </filter>
    <clipPath
       clipPathUnits="userSpaceOnUse"
       id="clipPath4113-3">
      <path
         sodipodi:nodetypes="cccccc"
         d="m 6.4999609,1.872199 c 5.8015241,0 20.9536831,0.00228 20.9536831,0.00228 l 14.046362,14.330072 3.6e-5,29.673255 c 0,0 -23.333387,0 -35.0000811,0 0,-14.668535 0,-29.33707 0,-44.005607 z"
         inkscape:connector-curvature="0"
         id="path4115-3"
         style="fill:#ffffff;fill-opacity:1;stroke:none;display:inline" />
    </clipPath>
    <filter
       color-interpolation-filters="sRGB"
       inkscape:collect="always"
       id="filter4109-3"
       x="-0.72760338"
       width="2.4552069"
       y="-0.71255386"
       height="2.4251077">
      <feGaussianBlur
         inkscape:collect="always"
         stdDeviation="4.1392406"
         id="feGaussianBlur4111-4" />
    </filter>
    <linearGradient
       inkscape:collect="always"
       xlink:href="#linearGradient3897-7-9"
       id="linearGradient3419"
       gradientUnits="userSpaceOnUse"
       gradientTransform="matrix(0.56520801,0,0,-0.60266309,-18.714491,70.858925)"
       x1="91.308151"
       y1="98.191689"
       x2="95.18235"
       y2="102.06589" />
    <linearGradient
       id="linearGradient3897-7-9">
      <stop
         id="stop3899-4-3"
         style="stop-color:#fcfcfc;stop-opacity:1"
         offset="0" />
      <stop
         id="stop3907-4-2-3"
         style="stop-color:#c1c1c1;stop-opacity:1"
         offset="1" />
    </linearGradient>
    <linearGradient
       gradientUnits="userSpaceOnUse"
       y2="22.922476"
       x2="12"
       y1="1.0775148"
       x1="12"
       id="linearGradient3797"
       xlink:href="#linearGradient3791"
       inkscape:collect="always" />
    <linearGradient
       id="linearGradient3397-0-3">
      <stop
         offset="0"
         style="stop-color:#aaaaaa;stop-opacity:1"
         id="stop3399-4-5" />
      <stop
         offset="1"
         style="stop-color:#8c8c8c;stop-opacity:1"
         id="stop3401-0-8" />
    </linearGradient>
    <linearGradient
       gradientTransform="matrix(0.77777782,0,0,0.77777782,-12.111112,-13.666669)"
       gradientUnits="userSpaceOnUse"
       xlink:href="#linearGradient3397-0-3"
       id="linearGradient3023"
       y2="47.044857"
       x2="25.922546"
       y1="19"
       x1="25.922546" />
    <linearGradient
       gradientUnits="userSpaceOnUse"
       id="linearGradient3309-1-9"
       y2="122.8994"
       x2="63.9995"
       y1="3.1001"
       x1="63.9995">
      <stop
         offset="0"
         style="stop-color:#f6f6f6;stop-opacity:1"
         id="stop3311-5-9" />
      <stop
         offset="1"
         style="stop-color:#d2d2d2;stop-opacity:1"
         id="stop3313-0-9" />
    </linearGradient>
    <linearGradient
       gradientTransform="matrix(0.77777782,0,0,0.77777782,-12.111112,-13.666669)"
       gradientUnits="userSpaceOnUse"
       xlink:href="#linearGradient3309-1-9"
       id="linearGradient3021-0"
       y2="47.012184"
       x2="32.036148"
       y1="19"
       x1="32.036148" />
    <radialGradient
       gradientTransform="matrix(1.6600963,0,0,0.36315008,0.8728521,-5.3585521)"
       gradientUnits="userSpaceOnUse"
       xlink:href="#linearGradient10691"
       id="radialGradient3026"
       fy="73.615715"
       fx="6.702713"
       r="7.228416"
       cy="73.615715"
       cx="6.702713" />
    <linearGradient
       gradientTransform="matrix(0.77777782,0,0,0.77777782,-12.111112,-13.666669)"
       gradientUnits="userSpaceOnUse"
       xlink:href="#linearGradient3309-1"
       id="linearGradient3021"
       y2="47.012184"
       x2="32.036148"
       y1="19"
       x1="32.036148" />
    <linearGradient
       gradientTransform="matrix(0.15623116,0,0,0.15623125,2.0012002,2.157431)"
       gradientUnits="userSpaceOnUse"
       xlink:href="#linearGradient5128-7"
       id="linearGradient3017"
       y2="20.895"
       x2="84.63858"
       y1="105.105"
       x1="86.132919" />
    <linearGradient
       gradientUnits="userSpaceOnUse"
       xlink:href="#linearGradient3805"
       id="linearGradient3014"
       y2="22.006775"
       x2="12.47939"
       y1="2"
       x1="12.47939" />
    <linearGradient
       gradientTransform="matrix(1.0116033,0,0,1.0116033,-0.13923977,-0.1392394)"
       gradientUnits="userSpaceOnUse"
       xlink:href="#linearGradient3805"
       id="linearGradient3011"
       y2="8"
       x2="12"
       y1="16"
       x1="12" />
    <radialGradient
       gradientTransform="matrix(1.6600963,0,0,0.36315008,0.8728521,2.6414479)"
       gradientUnits="userSpaceOnUse"
       xlink:href="#linearGradient10691"
       id="radialGradient3877"
       fy="73.615715"
       fx="6.702713"
       r="7.228416"
       cy="73.615715"
       cx="6.702713" />
    <linearGradient
       id="linearGradient10691">
      <stop
         offset="0"
         style="stop-color:#000000;stop-opacity:1"
         id="stop10693" />
      <stop
         offset="1"
         style="stop-color:#000000;stop-opacity:0"
         id="stop10695" />
    </linearGradient>
    <linearGradient
       id="linearGradient3397-0">
      <stop
         offset="0"
         style="stop-color:#aaaaaa;stop-opacity:1"
         id="stop3399-4" />
      <stop
         offset="1"
         style="stop-color:#8c8c8c;stop-opacity:1"
         id="stop3401-0" />
    </linearGradient>
    <linearGradient
       gradientTransform="matrix(0.77777782,0,0,0.77777782,-12.111112,-5.666669)"
       gradientUnits="userSpaceOnUse"
       xlink:href="#linearGradient3397-0"
       id="linearGradient3616-9"
       y2="47.044857"
       x2="25.922546"
       y1="19"
       x1="25.922546" />
    <linearGradient
       gradientUnits="userSpaceOnUse"
       id="linearGradient3309-1"
       y2="122.8994"
       x2="63.9995"
       y1="3.1001"
       x1="63.9995">
      <stop
         offset="0"
         style="stop-color:#cad8ea;stop-opacity:1;"
         id="stop3311-5" />
      <stop
         offset="1"
         style="stop-color:#687088;stop-opacity:1;"
         id="stop3313-0" />
    </linearGradient>
    <linearGradient
       gradientTransform="matrix(0.77777782,0,0,0.77777782,-12.111112,-5.666669)"
       gradientUnits="userSpaceOnUse"
       xlink:href="#linearGradient3309-1"
       id="linearGradient3614-2"
       y2="47.012184"
       x2="32.036148"
       y1="19"
       x1="32.036148" />
    <linearGradient
       id="linearGradient5128-7">
      <stop
         offset="0"
         style="stop-color:#acbacc;stop-opacity:1;"
         id="stop5130-7" />
      <stop
         offset="1"
         style="stop-color:#97a3c0;stop-opacity:1;"
         id="stop5132-2" />
    </linearGradient>
    <linearGradient
       gradientTransform="matrix(0.15623116,0,0,0.15623125,2.0012002,10.157431)"
       gradientUnits="userSpaceOnUse"
       xlink:href="#linearGradient5128-7"
       id="linearGradient3610"
       y2="20.895"
       x2="84.63858"
       y1="105.105"
       x1="86.132919" />
    <linearGradient
       gradientTransform="translate(0,8)"
       gradientUnits="userSpaceOnUse"
       xlink:href="#linearGradient3805"
       id="linearGradient3814"
       y2="22.006775"
       x2="12.47939"
       y1="2"
       x1="12.47939" />
    <linearGradient
       id="linearGradient3805">
      <stop
         offset="0"
         style="stop-color:#b0bcd2;stop-opacity:1;"
         id="stop3807" />
      <stop
         offset="1"
         style="stop-color:#8b95ad;stop-opacity:1;"
         id="stop3809" />
    </linearGradient>
    <linearGradient
       gradientUnits="userSpaceOnUse"
       xlink:href="#linearGradient3805"
       id="linearGradient3830"
       y2="8"
       x2="12"
       y1="16"
       x1="12" />
    <linearGradient
       id="linearGradient3791">
      <stop
         id="stop3793"
         offset="0"
         style="stop-color:#4a5877;stop-opacity:1;" />
      <stop
         id="stop3795"
         offset="1"
         style="stop-color:#2b3249;stop-opacity:1;" />
    </linearGradient>
    <linearGradient
       inkscape:collect="always"
       xlink:href="#linearGradient3897-7-9"
       id="linearGradient3244"
       gradientUnits="userSpaceOnUse"
       gradientTransform="matrix(0.56520801,0,0,-0.60266309,-18.714491,70.858925)"
       x1="91.308151"
       y1="98.191689"
       x2="95.18235"
       y2="102.06589" />
    <linearGradient
       inkscape:collect="always"
       xlink:href="#linearGradient3600-4"
       id="linearGradient3249"
       gradientUnits="userSpaceOnUse"
       gradientTransform="matrix(1,0,0,0.9561695,0.500039,-0.4177278)"
       x1="25.132275"
       y1="0.98520643"
       x2="25.132275"
       y2="47.013336" />
  </defs>
  <metadata
     id="metadata3906">
    <rdf:RDF>
      <cc:Work
         rdf:about="">
        <dc:format>image/svg+xml</dc:format>
        <dc:type
           rdf:resource="http://purl.org/dc/dcmitype/StillImage" />
        <dc:title></dc:title>
      </cc:Work>
    </rdf:RDF>
  </metadata>
  <path
     style="fill:none;stroke:#000000;stroke-width:4;stroke-linejoin:round;stroke-miterlimit:4;stroke-opacity:0.05882353;stroke-dasharray:none;display:inline"
     id="path4644"
     inkscape:connector-curvature="0"
     d="m 7,1.994393 c 5.801524,0 20.010502,0.00228 20.010502,0.00228 L 40.989462,16.348842 40.989498,46 C 40.989498,46 18.666694,46 7,46 7,31.331465 7,16.66293 7,1.994393 z"
     sodipodi:nodetypes="cccccc" />
  <path
     style="fill:none;stroke:#000000;stroke-width:2;stroke-linejoin:round;stroke-miterlimit:4;stroke-opacity:0.05882353;stroke-dasharray:none;display:inline"
     id="path4648"
     inkscape:connector-curvature="0"
     d="M 7,2.994393 27.010502,2.996673 40.989462,17.348842 40.989498,47 7,47 z"
     sodipodi:nodetypes="cccccc" />
  <path
     sodipodi:nodetypes="cccccc"
     d="M 7,1.994393 26.976801,1.996673 41.023163,16.326745 41.023199,46 7,46 z"
     inkscape:connector-curvature="0"
     id="path5216"
     style="fill:none;stroke:#000000;stroke-width:2;stroke-linejoin:round;stroke-miterlimit:4;stroke-opacity:0.11764706;stroke-dasharray:none;display:inline" />
  <path
     style="fill:url(#linearGradient3249);fill-opacity:1;stroke:none;display:inline"
     id="path4160-9"
     inkscape:connector-curvature="0"
     d="M 7,1.994393 26.976801,1.996673 41.023163,16.326745 41.023199,46 7,46 z"
     sodipodi:nodetypes="cccccc" />
  <path
     sodipodi:nodetypes="cccc"
     d="m 33.033607,8.8038818 c -0.04937,-3.7222332 0.10108,-9.9827279 -2.010715,-13.2718925 0,0 13.793921,13.740947 15.270672,15.4496257 0,0 -2.562442,-2.0299713 -13.259957,-2.1777332 z"
     id="path3805-7"
     style="opacity:0.9;fill:#000000;fill-opacity:1;stroke:none;filter:url(#filter4740-7)"
     inkscape:connector-curvature="0"
     clip-path="url(#clipPath3823-1)"
     transform="matrix(1.1411702,0,0,1.1411702,-6.2542762,1.4268558)" />
  <g
     id="g3234"
     transform="translate(12,6)">
    <path
       style="opacity:0.2;fill:url(#radialGradient3026);fill-opacity:1;fill-rule:nonzero;stroke:none;stroke-width:0.80000001;marker:none;visibility:visible;display:inline;overflow:visible"
       id="path10689"
       inkscape:connector-curvature="0"
       d="M 23.999865,21.375 C 23.999865,22.824748 18.627342,24 12,24 5.3726571,24 1.348125e-4,22.824748 1.348125e-4,21.375 1.348125e-4,19.925253 5.3726571,18.75 12,18.75 c 6.627342,0 11.999865,1.175253 11.999865,2.625 z" />
    <path
       style="color:#000000;fill:url(#linearGradient3021);fill-opacity:1;fill-rule:nonzero;stroke:none;stroke-width:1;marker:none;visibility:visible;display:block;overflow:visible;enable-background:accumulate"
       id="rect3623"
       inkscape:connector-curvature="0"
       d="m 10.5,1.5 c -0.554,0 -1,0.446 -1,1 l 0,1.375 C 8.9926705,4.030783 8.4932312,4.225474 8.03125,4.46875 L 7.0625,3.5 C 6.6707628,3.108263 6.0167372,3.108263 5.625,3.5 L 3.5,5.625 C 3.1082628,6.016737 3.1082628,6.670763 3.5,7.0625 L 4.46875,8.03125 C 4.2254741,8.493231 4.0307828,8.99267 3.875,9.5 L 2.5,9.5 c -0.554,0 -1,0.446 -1,1 l 0,3 c 0,0.554 0.446,1 1,1 l 1.375,0 c 0.1557828,0.507329 0.3504741,1.006769 0.59375,1.46875 L 3.5,16.9375 c -0.3917372,0.391737 -0.3917372,1.045763 0,1.4375 L 5.625,20.5 c 0.3917372,0.391737 1.0457628,0.391737 1.4375,0 L 8.03125,19.53125 C 8.4932312,19.774526 8.9926705,19.969217 9.5,20.125 l 0,1.375 c 0,0.554 0.446,1 1,1 l 3,0 c 0.554,0 1,-0.446 1,-1 l 0,-1.375 c 0.507329,-0.155783 1.006769,-0.350474 1.46875,-0.59375 L 16.9375,20.5 c 0.391737,0.391737 1.045763,0.391737 1.4375,0 L 20.5,18.375 c 0.391737,-0.391737 0.391737,-1.045763 0,-1.4375 L 19.53125,15.96875 C 19.774526,15.506769 19.969217,15.007329 20.125,14.5 l 1.375,0 c 0.554,0 1,-0.446 1,-1 l 0,-3 c 0,-0.554 -0.446,-1 -1,-1 l -1.375,0 C 19.969217,8.99267 19.774526,8.493231 19.53125,8.03125 L 20.5,7.0625 c 0.391737,-0.391737 0.391737,-1.045763 0,-1.4375 L 18.375,3.5 C 17.983263,3.108263 17.329237,3.108263 16.9375,3.5 L 15.96875,4.46875 C 15.506769,4.225474 15.007329,4.030783 14.5,3.875 l 0,-1.375 c 0,-0.554 -0.446,-1 -1,-1 l -3,0 z m 1.5,8 c 1.380712,0 2.5,1.119288 2.5,2.5 0,1.380712 -1.119288,2.5 -2.5,2.5 -1.380712,0 -2.5,-1.119288 -2.5,-2.5 0,-1.380712 1.119288,-2.5 2.5,-2.5 z" />
    <path
       style="fill:none;stroke:url(#linearGradient3017);stroke-width:1;stroke-miterlimit:4;stroke-dasharray:none"
       id="path28"
       inkscape:connector-curvature="0"
       d="m 12,5.499999 c -3.5841018,0 -6.5,2.9159 -6.5,6.499999 C 5.5,15.5841 8.4158982,18.5 12,18.5 c 3.584101,0 6.5,-2.9159 6.5,-6.500002 0,-3.584099 -2.915899,-6.499999 -6.5,-6.499999 z" />
    <path
       style="color:#000000;fill:none;stroke:url(#linearGradient3011);stroke-width:0.99999994;stroke-opacity:1;marker:none;visibility:visible;display:block;overflow:visible;enable-background:accumulate"
       id="path3822"
       inkscape:connector-curvature="0"
       d="m 15.5,12 a 3.5,3.5 0 1 1 -7,0 3.5,3.5 0 1 1 7,0 z" />
    <path
       style="color:#000000;fill:none;stroke:url(#linearGradient3797);stroke-width:1;stroke-linecap:butt;stroke-linejoin:round;stroke-miterlimit:4;stroke-opacity:1;stroke-dasharray:none;stroke-dashoffset:0;marker:none;visibility:visible;display:block;overflow:visible;enable-background:accumulate"
       id="rect3623-2"
       inkscape:connector-curvature="0"
       d="m 10.5,1.5 c -0.554,0 -1,0.446 -1,1 l 0,1.375 C 8.9926705,4.030783 8.4932312,4.225474 8.03125,4.46875 L 7.0625,3.5 C 6.6707628,3.108263 6.0167372,3.108263 5.625,3.5 L 3.5,5.625 C 3.1082628,6.016737 3.1082628,6.670763 3.5,7.0625 L 4.46875,8.03125 C 4.2254741,8.493231 4.0307828,8.99267 3.875,9.5 L 2.5,9.5 c -0.554,0 -1,0.446 -1,1 l 0,3 c 0,0.554 0.446,1 1,1 l 1.375,0 c 0.1557828,0.507329 0.3504741,1.006769 0.59375,1.46875 L 3.5,16.9375 c -0.3917372,0.391737 -0.3917372,1.045763 0,1.4375 L 5.625,20.5 c 0.3917372,0.391737 1.0457628,0.391737 1.4375,0 L 8.03125,19.53125 C 8.4932312,19.774526 8.9926705,19.969217 9.5,20.125 l 0,1.375 c 0,0.554 0.446,1 1,1 l 3,0 c 0.554,0 1,-0.446 1,-1 l 0,-1.375 c 0.507329,-0.155783 1.006769,-0.350474 1.46875,-0.59375 L 16.9375,20.5 c 0.391737,0.391737 1.045763,0.391737 1.4375,0 L 20.5,18.375 c 0.391737,-0.391737 0.391737,-1.045763 0,-1.4375 L 19.53125,15.96875 C 19.774526,15.506769 19.969217,15.007329 20.125,14.5 l 1.375,0 c 0.554,0 1,-0.446 1,-1 l 0,-3 c 0,-0.554 -0.446,-1 -1,-1 l -1.375,0 C 19.969217,8.99267 19.774526,8.493231 19.53125,8.03125 L 20.5,7.0625 c 0.391737,-0.391737 0.391737,-1.045763 0,-1.4375 L 18.375,3.5 C 17.983263,3.108263 17.329237,3.108263 16.9375,3.5 L 15.96875,4.46875 C 15.506769,4.225474 15.007329,4.030783 14.5,3.875 l 0,-1.375 c 0,-0.554 -0.446,-1 -1,-1 l -3,0 z m 1.5,8 c 1.380712,0 2.5,1.119288 2.5,2.5 0,1.380712 -1.119288,2.5 -2.5,2.5 -1.380712,0 -2.5,-1.119288 -2.5,-2.5 0,-1.380712 1.119288,-2.5 2.5,-2.5 z" />
  </g>
  <path
     sodipodi:nodetypes="cccc"
     d="m 31.363604,14.097603 c -0.04413,-3.358921 0.09038,-9.0083545 -1.797752,-11.9764771 0,0 12.332945,12.3997501 13.653286,13.9416511 0,0 -2.291044,-1.831833 -11.855534,-1.965174 z"
     id="path3827-2"
     style="opacity:0.9;fill:#000000;fill-opacity:1;stroke:none;filter:url(#filter4109-3)"
     inkscape:connector-curvature="0"
     clip-path="url(#clipPath4113-3)"
     transform="translate(-0.476843,0.122194)" />
  <path
     inkscape:connector-curvature="0"
     style="fill:url(#linearGradient3244);fill-opacity:1;stroke:none"
     id="path6011-2"
     d="m 29,14.28989 c 0,-3.442889 -0.03584,-9.2333791 -1.971138,-12.2756438 0,0 12.641014,12.7094898 13.994337,14.2899058 0,0 -2.047157,-2.014262 -12.023199,-2.014262 z"
     sodipodi:nodetypes="cccc" />
  <text
     xml:space="preserve"
     style="font-size:6.83337259px;font-style:normal;font-variant:normal;font-weight:normal;font-stretch:normal;line-height:125%;letter-spacing:0px;word-spacing:0px;fill:#575757;fill-opacity:1;stroke:none;font-family:Lucida Grande;-inkscape-font-specification:Lucida Grande"
     x="7.8841848"
     y="42.335468"
     id="text3801-7"
     sodipodi:linespacing="125%"><tspan
       sodipodi:role="line"
       id="tspan3803-1"
       x="7.8841848"
       y="42.335468">MAKEFILE</tspan></text>
</svg>
