<?xml version="1.0" encoding="UTF-8" standalone="no"?>
<!-- Created with Inkscape (http://www.inkscape.org/) -->

<svg
   xmlns:dc="http://purl.org/dc/elements/1.1/"
   xmlns:cc="http://creativecommons.org/ns#"
   xmlns:rdf="http://www.w3.org/1999/02/22-rdf-syntax-ns#"
   xmlns:svg="http://www.w3.org/2000/svg"
   xmlns="http://www.w3.org/2000/svg"
   xmlns:xlink="http://www.w3.org/1999/xlink"
   xmlns:sodipodi="http://sodipodi.sourceforge.net/DTD/sodipodi-0.dtd"
   xmlns:inkscape="http://www.inkscape.org/namespaces/inkscape"
   version="1.1"
   width="48"
   height="48"
   id="svg3901"
   inkscape:version="0.48.4 r9939"
   sodipodi:docname="text-x-moc.svg">
  <sodipodi:namedview
     pagecolor="#ffffff"
     bordercolor="#666666"
     borderopacity="1"
     objecttolerance="10"
     gridtolerance="10"
     guidetolerance="10"
     inkscape:pageopacity="0"
     inkscape:pageshadow="2"
     inkscape:window-width="1280"
     inkscape:window-height="931"
     id="namedview37"
     showgrid="false"
     inkscape:zoom="5.6568543"
     inkscape:cx="34.679048"
     inkscape:cy="45.878797"
     inkscape:window-x="0"
     inkscape:window-y="24"
     inkscape:window-maximized="1"
     inkscape:current-layer="svg3901"
     showguides="true"
     inkscape:guide-bbox="true">
    <sodipodi:guide
       orientation="1,0"
       position="12.328125,29.417969"
       id="guide4185" />
    <sodipodi:guide
       orientation="1,0"
       position="35.66608,22.131614"
       id="guide4187" />
    <sodipodi:guide
       orientation="0,1"
       position="24.560547,41.235352"
       id="guide3065" />
    <sodipodi:guide
       orientation="0,1"
       position="24.792969,17.882812"
       id="guide3067" />
    <sodipodi:guide
       orientation="1,0"
       position="8.4960938,5.5664063"
       id="guide3137" />
    <sodipodi:guide
       orientation="1,0"
       position="39.453125,2.7832031"
       id="guide3139" />
  </sodipodi:namedview>
  <defs
     id="defs3903">
    <linearGradient
       x1="23.99999"
       y1="5.5641499"
       x2="23.99999"
       y2="42.110645"
       id="linearGradient3013"
       xlink:href="#linearGradient3029"
       gradientUnits="userSpaceOnUse"
       gradientTransform="matrix(0.89189189,0,0,1.1351351,2.5945999,-4.7432314)" />
    <linearGradient
       id="linearGradient3029">
      <stop
         id="stop3031"
         style="stop-color:#ffffff;stop-opacity:1"
         offset="0" />
      <stop
         id="stop3033"
         style="stop-color:#ffffff;stop-opacity:0.23529412"
         offset="0.01487851" />
      <stop
         id="stop3035"
         style="stop-color:#ffffff;stop-opacity:0.15686275"
         offset="0.98463625" />
      <stop
         id="stop3037"
         style="stop-color:#ffffff;stop-opacity:0.39215687"
         offset="1" />
    </linearGradient>
    <linearGradient
       x1="25.132275"
       y1="0.98520643"
       x2="25.132275"
       y2="47.013336"
       id="linearGradient3016"
       xlink:href="#linearGradient3600"
       gradientUnits="userSpaceOnUse"
       gradientTransform="matrix(1,0,0,0.9561695,-9.9999999e-8,-1.9149218)" />
    <linearGradient
       id="linearGradient3600">
      <stop
         id="stop3602"
         style="stop-color:#dadada;stop-opacity:1;"
         offset="0" />
      <stop
         id="stop3604"
         style="stop-color:#ffffff;stop-opacity:1;"
         offset="1" />
    </linearGradient>
    <radialGradient
       cx="605.71429"
       cy="486.64789"
       r="117.14286"
       fx="605.71429"
       fy="486.64789"
       id="radialGradient3021"
       xlink:href="#linearGradient5060"
       gradientUnits="userSpaceOnUse"
       gradientTransform="matrix(0.02303995,0,0,0.01470022,26.360882,37.040176)" />
    <linearGradient
       id="linearGradient5060">
      <stop
         id="stop5062"
         style="stop-color:#000000;stop-opacity:1"
         offset="0" />
      <stop
         id="stop5064"
         style="stop-color:#000000;stop-opacity:0"
         offset="1" />
    </linearGradient>
    <radialGradient
       cx="605.71429"
       cy="486.64789"
       r="117.14286"
       fx="605.71429"
       fy="486.64789"
       id="radialGradient3024"
       xlink:href="#linearGradient5060"
       gradientUnits="userSpaceOnUse"
       gradientTransform="matrix(-0.02303994,0,0,0.01470022,21.62311,37.040176)" />
    <linearGradient
       id="linearGradient5048">
      <stop
         id="stop5050"
         style="stop-color:#000000;stop-opacity:0"
         offset="0" />
      <stop
         id="stop5056"
         style="stop-color:#000000;stop-opacity:1"
         offset="0.5" />
      <stop
         id="stop5052"
         style="stop-color:#000000;stop-opacity:0"
         offset="1" />
    </linearGradient>
    <linearGradient
       x1="302.85715"
       y1="366.64789"
       x2="302.85715"
       y2="609.50507"
       id="linearGradient3899"
       xlink:href="#linearGradient5048"
       gradientUnits="userSpaceOnUse"
       gradientTransform="matrix(0.06732488,0,0,0.01470022,-0.3411391,37.040146)" />
    <linearGradient
       id="linearGradient3104-5">
      <stop
         id="stop3106-2"
         style="stop-color:#aaaaaa;stop-opacity:1"
         offset="0" />
      <stop
         id="stop3108-5"
         style="stop-color:#c8c8c8;stop-opacity:1"
         offset="1" />
    </linearGradient>
    <linearGradient
       x1="22.004084"
       y1="47.813133"
       x2="22.004084"
       y2="3.3638515"
       id="linearGradient3052"
       xlink:href="#linearGradient3104-5"
       gradientUnits="userSpaceOnUse"
       gradientTransform="translate(-1.982096,-3.047074)" />
    <linearGradient
       inkscape:collect="always"
       xlink:href="#linearGradient3104-5"
       id="linearGradient3015"
       gradientUnits="userSpaceOnUse"
       gradientTransform="translate(-1.982096,-3.047074)"
       x1="22.004084"
       y1="47.813133"
       x2="22.004084"
       y2="3.3638515" />
    <linearGradient
       inkscape:collect="always"
       xlink:href="#linearGradient3029"
       id="linearGradient3019"
       gradientUnits="userSpaceOnUse"
       gradientTransform="matrix(0.89189189,0,0,1.1351351,2.5945999,-4.7432314)"
       x1="23.99999"
       y1="5.5641499"
       x2="23.99999"
       y2="42.110645" />
    <linearGradient
       inkscape:collect="always"
       xlink:href="#linearGradient3600"
       id="linearGradient3022"
       gradientUnits="userSpaceOnUse"
       gradientTransform="matrix(1,0,0,0.9561695,-9.9999999e-8,-0.5399218)"
       x1="25.132275"
       y1="0.98520643"
       x2="25.132275"
       y2="47.013336" />
    <radialGradient
       inkscape:collect="always"
       xlink:href="#linearGradient5060"
       id="radialGradient3025"
       gradientUnits="userSpaceOnUse"
       gradientTransform="matrix(0.02303995,0,0,0.01470022,26.360882,38.415176)"
       cx="605.71429"
       cy="486.64789"
       fx="605.71429"
       fy="486.64789"
       r="117.14286" />
    <radialGradient
       inkscape:collect="always"
       xlink:href="#linearGradient5060"
       id="radialGradient3028"
       gradientUnits="userSpaceOnUse"
       gradientTransform="matrix(-0.02303994,0,0,0.01470022,21.62311,38.415176)"
       cx="605.71429"
       cy="486.64789"
       fx="605.71429"
       fy="486.64789"
       r="117.14286" />
    <linearGradient
       inkscape:collect="always"
       xlink:href="#linearGradient5048"
       id="linearGradient3031"
       gradientUnits="userSpaceOnUse"
       gradientTransform="matrix(0.06732488,0,0,0.01470022,-0.3411391,38.415146)"
       x1="302.85715"
       y1="366.64789"
       x2="302.85715"
       y2="609.50507" />
    <linearGradient
       inkscape:collect="always"
       xlink:href="#linearGradient3897-7"
       id="linearGradient3289"
       gradientUnits="userSpaceOnUse"
       gradientTransform="matrix(0.39056994,0,0,-0.39056994,-0.8729074,48.438192)"
       x1="91.308151"
       y1="98.191689"
       x2="95.18235"
       y2="102.06589" />
    <linearGradient
       id="linearGradient3897-7">
      <stop
         id="stop3899-4"
         style="stop-color:#fcfcfc;stop-opacity:1"
         offset="0" />
      <stop
         id="stop3907-4"
         style="stop-color:#c1c1c1;stop-opacity:1"
         offset="1" />
    </linearGradient>
    <filter
       inkscape:collect="always"
       id="filter4740"
       x="-1.2070313"
       width="3.4140625"
       y="-1.1930502"
       height="3.3861003">
      <feGaussianBlur
         inkscape:collect="always"
         stdDeviation="7.6800744"
         id="feGaussianBlur4742" />
    </filter>
    <linearGradient
       inkscape:collect="always"
       xlink:href="#linearGradient3897-7"
       id="linearGradient3807"
       gradientUnits="userSpaceOnUse"
       gradientTransform="matrix(0.56520801,0,0,-0.60266309,-19.240561,70.736731)"
       x1="91.308151"
       y1="98.191689"
       x2="95.18235"
       y2="102.06589" />
    <clipPath
       clipPathUnits="userSpaceOnUse"
       id="clipPath3823">
      <path
         sodipodi:nodetypes="cccccc"
         d="m 10.7586,0.49719902 c 5.083838,0 18.361576,0.001998 18.361576,0.001998 l 12.308735,12.55734904 3.2e-5,26.002479 c 0,0 -20.446895,0 -30.670343,0 0,-12.853941 0,-25.707883 0,-38.56182598 z"
         inkscape:connector-curvature="0"
         id="path3825"
         style="fill:#ffffff;fill-opacity:1;stroke:none;display:inline" />
    </clipPath>
    <filter
       inkscape:collect="always"
       id="filter4109"
       x="-0.7276034"
       width="2.4552068"
       y="-0.71255386"
       height="2.4251077">
      <feGaussianBlur
         inkscape:collect="always"
         stdDeviation="4.1392406"
         id="feGaussianBlur4111" />
    </filter>
    <clipPath
       clipPathUnits="userSpaceOnUse"
       id="clipPath4113">
      <path
         sodipodi:nodetypes="cccccc"
         d="m 6.4999609,1.872199 c 5.8015241,0 20.9536831,0.00228 20.9536831,0.00228 l 14.046362,14.330072 3.6e-5,29.673255 c 0,0 -23.333387,0 -35.0000811,0 0,-14.668535 0,-29.33707 0,-44.005607 z"
         inkscape:connector-curvature="0"
         id="path4115"
         style="fill:#ffffff;fill-opacity:1;stroke:none;display:inline" />
    </clipPath>
    <clipPath
       clipPathUnits="userSpaceOnUse"
       id="clipPath4160">
      <path
         sodipodi:nodetypes="cccccc"
         d="m 6.4999609,1.872199 c 5.8015241,0 20.9536831,0.00228 20.9536831,0.00228 l 14.046362,14.330072 3.6e-5,29.673255 c 0,0 -23.333387,0 -35.0000811,0 0,-14.668535 0,-29.33707 0,-44.005607 z"
         inkscape:connector-curvature="0"
         id="path4162"
         style="fill:#ffffff;fill-opacity:1;stroke:none;display:inline" />
    </clipPath>
    <radialGradient
       r="10.625"
       fy="4.625"
       fx="62.625"
       cy="4.625"
       cx="62.625"
       gradientTransform="matrix(2.1647059,0,0,0.7529402,-111.56471,36.517647)"
       gradientUnits="userSpaceOnUse"
       id="radialGradient3801"
       xlink:href="#linearGradient8838"
       inkscape:collect="always" />
    <linearGradient
       y2="45"
       x2="37.201294"
       y1="1"
       x1="37.201294"
       gradientUnits="userSpaceOnUse"
       id="linearGradient3798"
       xlink:href="#linearGradient3397"
       inkscape:collect="always" />
    <linearGradient
       y2="45.017357"
       x2="20.758585"
       y1="1"
       x1="20.758585"
       gradientUnits="userSpaceOnUse"
       id="linearGradient3796"
       xlink:href="#linearGradient3309"
       inkscape:collect="always" />
    <linearGradient
       y2="20.895"
       x2="84.63858"
       y1="105.105"
       x1="86.132919"
       gradientTransform="matrix(0.3244803,0,0,0.3244803,3.2332655,2.5577454)"
       gradientUnits="userSpaceOnUse"
       id="linearGradient3793"
       xlink:href="#linearGradient5128"
       inkscape:collect="always" />
    <linearGradient
       y2="20.895"
       x2="84.63858"
       y1="105.105"
       x1="86.132919"
       gradientTransform="matrix(0.3244803,0,0,0.3244803,3.2332655,2.5577454)"
       gradientUnits="userSpaceOnUse"
       id="linearGradient3789"
       xlink:href="#linearGradient5128"
       inkscape:collect="always" />
    <linearGradient
       y2="45"
       x2="37.201294"
       y1="1"
       x1="37.201294"
       gradientUnits="userSpaceOnUse"
       id="linearGradient3787"
       xlink:href="#linearGradient3397"
       inkscape:collect="always" />
    <linearGradient
       y2="45.017357"
       x2="20.758585"
       y1="1"
       x1="20.758585"
       gradientUnits="userSpaceOnUse"
       id="linearGradient3785"
       xlink:href="#linearGradient3309"
       inkscape:collect="always" />
    <radialGradient
       r="10.625"
       fy="4.625"
       fx="62.625"
       cy="4.625"
       cx="62.625"
       gradientTransform="matrix(2.1647059,0,0,0.7529402,-111.56471,36.517647)"
       gradientUnits="userSpaceOnUse"
       id="radialGradient3783"
       xlink:href="#linearGradient8838"
       inkscape:collect="always" />
    <linearGradient
       gradientTransform="matrix(0.3244803,0,0,0.3244803,3.2332655,2.5577454)"
       gradientUnits="userSpaceOnUse"
       xlink:href="#linearGradient5128"
       id="linearGradient2512"
       y2="20.895"
       x2="84.63858"
       y1="105.105"
       x1="86.132919" />
    <linearGradient
       id="linearGradient5128">
      <stop
         offset="0"
         style="stop-color:#acbacc;stop-opacity:1;"
         id="stop5130" />
      <stop
         offset="1"
         style="stop-color:#97a3c0;stop-opacity:1;"
         id="stop5132" />
    </linearGradient>
    <linearGradient
       gradientUnits="userSpaceOnUse"
       xlink:href="#linearGradient3309"
       id="linearGradient2515"
       y2="45.017357"
       x2="20.758585"
       y1="1"
       x1="20.758585" />
    <linearGradient
       gradientUnits="userSpaceOnUse"
       id="linearGradient3309"
       y2="122.8994"
       x2="63.9995"
       y1="3.1001"
       x1="63.9995">
      <stop
         offset="0"
         style="stop-color:#cad8ea;stop-opacity:1;"
         id="stop3311" />
      <stop
         offset="1"
         style="stop-color:#687088;stop-opacity:1;"
         id="stop3313" />
    </linearGradient>
    <linearGradient
       gradientUnits="userSpaceOnUse"
       xlink:href="#linearGradient3397"
       id="linearGradient2517"
       y2="45"
       x2="37.201294"
       y1="1"
       x1="37.201294" />
    <linearGradient
       id="linearGradient3397">
      <stop
         offset="0"
         style="stop-color:#4a5877;stop-opacity:1;"
         id="stop3399" />
      <stop
         offset="1"
         style="stop-color:#2b3249;stop-opacity:1;"
         id="stop3401" />
    </linearGradient>
    <radialGradient
       gradientTransform="matrix(2.1647059,0,0,0.7529402,-111.56471,36.517647)"
       gradientUnits="userSpaceOnUse"
       xlink:href="#linearGradient8838"
       id="radialGradient2436"
       fy="4.625"
       fx="62.625"
       r="10.625"
       cy="4.625"
       cx="62.625" />
    <linearGradient
       id="linearGradient8838">
      <stop
         offset="0"
         style="stop-color:#000000;stop-opacity:1"
         id="stop8840" />
      <stop
         offset="1"
         style="stop-color:#000000;stop-opacity:0"
         id="stop8842" />
    </linearGradient>
    <linearGradient
       inkscape:collect="always"
       xlink:href="#linearGradient3600-8"
       id="linearGradient3294"
       gradientUnits="userSpaceOnUse"
       gradientTransform="matrix(1,0,0,0.9561695,-9.9999999e-8,-0.5399218)"
       x1="25.132275"
       y1="0.98520643"
       x2="25.132275"
       y2="47.013336" />
    <linearGradient
       id="linearGradient3600-8">
      <stop
         id="stop3602-6"
         style="stop-color:#dadada;stop-opacity:1;"
         offset="0" />
      <stop
         id="stop3604-5"
         style="stop-color:#ffffff;stop-opacity:1;"
         offset="1" />
    </linearGradient>
    <clipPath
       clipPathUnits="userSpaceOnUse"
       id="clipPath3823-2">
      <path
         sodipodi:nodetypes="cccccc"
         d="m 10.7586,0.49719902 c 5.083838,0 18.361576,0.001998 18.361576,0.001998 l 12.308735,12.55734898 3.2e-5,26.002479 c 0,0 -20.446895,0 -30.670343,0 0,-12.853941 0,-25.707883 0,-38.56182592 z"
         inkscape:connector-curvature="0"
         id="path3825-3"
         style="fill:#ffffff;fill-opacity:1;stroke:none;display:inline" />
    </clipPath>
    <clipPath
       clipPathUnits="userSpaceOnUse"
       id="clipPath4113-0">
      <path
         sodipodi:nodetypes="cccccc"
         d="m 6.4999609,1.872199 c 5.8015241,0 20.9536831,0.00228 20.9536831,0.00228 l 14.046362,14.330072 3.6e-5,29.673255 c 0,0 -23.333387,0 -35.0000811,0 0,-14.668535 0,-29.33707 0,-44.005607 z"
         inkscape:connector-curvature="0"
         id="path4115-4"
         style="fill:#ffffff;fill-opacity:1;stroke:none;display:inline" />
    </clipPath>
    <linearGradient
       inkscape:collect="always"
       xlink:href="#linearGradient3897-7-2"
       id="linearGradient3296"
       gradientUnits="userSpaceOnUse"
       gradientTransform="matrix(0.56520801,0,0,-0.60266309,-19.240561,70.736731)"
       x1="91.308151"
       y1="98.191689"
       x2="95.18235"
       y2="102.06589" />
    <linearGradient
       id="linearGradient3897-7-2">
      <stop
         id="stop3899-4-0"
         style="stop-color:#fcfcfc;stop-opacity:1"
         offset="0" />
      <stop
         id="stop3907-4-2"
         style="stop-color:#c1c1c1;stop-opacity:1"
         offset="1" />
    </linearGradient>
    <linearGradient
       y2="102.06589"
       x2="95.18235"
       y1="98.191689"
       x1="91.308151"
       gradientTransform="matrix(0.56520801,0,0,-0.60266309,-19.240561,70.736731)"
       gradientUnits="userSpaceOnUse"
       id="linearGradient3332"
       xlink:href="#linearGradient3897-7-2"
       inkscape:collect="always" />
    <linearGradient
       inkscape:collect="always"
       xlink:href="#linearGradient3600-8"
       id="linearGradient3122"
       gradientUnits="userSpaceOnUse"
       gradientTransform="matrix(1,0,0,0.9561695,-9.9999999e-8,-0.5399218)"
       x1="25.132275"
       y1="0.98520643"
       x2="25.132275"
       y2="47.013336" />
    <linearGradient
       inkscape:collect="always"
       xlink:href="#linearGradient3897-7-2"
       id="linearGradient3124"
       gradientUnits="userSpaceOnUse"
       gradientTransform="matrix(0.56520801,0,0,-0.60266309,-19.240561,70.736731)"
       x1="91.308151"
       y1="98.191689"
       x2="95.18235"
       y2="102.06589" />
    <linearGradient
       inkscape:collect="always"
       xlink:href="#linearGradient3600"
       id="linearGradient3141"
       gradientUnits="userSpaceOnUse"
       gradientTransform="matrix(1,0,0,0.9561695,-9.9999999e-8,-0.5399218)"
       x1="25.132275"
       y1="0.98520643"
       x2="25.132275"
       y2="47.013336" />
    <radialGradient
       inkscape:collect="always"
       xlink:href="#linearGradient8838"
       id="radialGradient3143"
       gradientUnits="userSpaceOnUse"
       gradientTransform="matrix(2.1647059,0,0,0.7529402,-111.56471,36.517647)"
       cx="62.625"
       cy="4.625"
       fx="62.625"
       fy="4.625"
       r="10.625" />
    <linearGradient
       inkscape:collect="always"
       xlink:href="#linearGradient3309"
       id="linearGradient3145"
       gradientUnits="userSpaceOnUse"
       x1="20.758585"
       y1="1"
       x2="20.758585"
       y2="45.017357" />
    <linearGradient
       inkscape:collect="always"
       xlink:href="#linearGradient3397"
       id="linearGradient3147"
       gradientUnits="userSpaceOnUse"
       x1="37.201294"
       y1="1"
       x2="37.201294"
       y2="45" />
    <linearGradient
       inkscape:collect="always"
       xlink:href="#linearGradient5128"
       id="linearGradient3149"
       gradientUnits="userSpaceOnUse"
       gradientTransform="matrix(0.3244803,0,0,0.3244803,3.2332655,2.5577454)"
       x1="86.132919"
       y1="105.105"
       x2="84.63858"
       y2="20.895" />
    <linearGradient
       inkscape:collect="always"
       xlink:href="#linearGradient3897-7"
       id="linearGradient3151"
       gradientUnits="userSpaceOnUse"
       gradientTransform="matrix(0.56520801,0,0,-0.60266309,-19.240561,70.736731)"
       x1="91.308151"
       y1="98.191689"
       x2="95.18235"
       y2="102.06589" />
    <linearGradient
       inkscape:collect="always"
       xlink:href="#linearGradient3897-7"
       id="linearGradient3154"
       gradientUnits="userSpaceOnUse"
       gradientTransform="matrix(0.56520801,0,0,-0.60266309,-19.240561,70.736731)"
       x1="91.308151"
       y1="98.191689"
       x2="95.18235"
       y2="102.06589" />
    <linearGradient
       inkscape:collect="always"
       xlink:href="#linearGradient3600"
       id="linearGradient3163"
       gradientUnits="userSpaceOnUse"
       gradientTransform="matrix(1,0,0,0.9561695,-9.9999999e-8,-0.5399218)"
       x1="25.132275"
       y1="0.98520643"
       x2="25.132275"
       y2="47.013336" />
  </defs>
  <metadata
     id="metadata3906">
    <rdf:RDF>
      <cc:Work
         rdf:about="">
        <dc:format>image/svg+xml</dc:format>
        <dc:type
           rdf:resource="http://purl.org/dc/dcmitype/StillImage" />
        <dc:title />
      </cc:Work>
    </rdf:RDF>
  </metadata>
  <path
     sodipodi:nodetypes="cccccc"
     d="m 6.4999609,1.872199 c 5.8015241,0 21.0210851,0.00228 21.0210851,0.00228 l 13.97896,14.352169 3.6e-5,29.651158 c 0,0 -23.333387,0 -35.0000811,0 0,-14.668535 0,-29.33707 0,-44.005607 z"
     inkscape:connector-curvature="0"
     id="path4372"
     style="fill:none;stroke:#000000;stroke-opacity:0.54901961;display:inline" />
  <path
     style="fill:url(#linearGradient3163);fill-opacity:1;stroke:none;display:inline"
     id="path4160"
     inkscape:connector-curvature="0"
     d="m 6.4999609,1.872199 c 5.8015241,0 20.9536831,0.00228 20.9536831,0.00228 l 14.046362,14.330072 3.6e-5,29.673255 c 0,0 -23.333387,0 -35.0000811,0 0,-14.668535 0,-29.33707 0,-44.005607 z"
     sodipodi:nodetypes="cccccc" />
  <text
     xml:space="preserve"
     style="font-size:10px;font-style:normal;font-variant:normal;font-weight:normal;font-stretch:normal;line-height:125%;letter-spacing:0px;word-spacing:0px;fill:#575757;fill-opacity:1;stroke:none;font-family:Lucida Grande;-inkscape-font-specification:Lucida Grande"
     x="12.15918"
     y="42.265625"
     id="text3801"
     sodipodi:linespacing="125%"><tspan
       sodipodi:role="line"
       id="tspan3803"
       x="12.15918"
       y="42.265625">MOC</tspan></text>
  <path
     sodipodi:nodetypes="cccc"
     d="m 33.033607,8.8038818 c -0.04937,-3.7222332 0.10108,-9.9827279 -2.010715,-13.2718925 0,0 13.793921,13.740947 15.270672,15.4496257 0,0 -2.562442,-2.0299713 -13.259957,-2.1777332 z"
     id="path3805"
     style="opacity:0.9;fill:#000000;fill-opacity:1;stroke:none;filter:url(#filter4740)"
     inkscape:connector-curvature="0"
     clip-path="url(#clipPath3823)"
     transform="matrix(1.1411702,0,0,1.1411702,-5.7774331,1.3048103)" />
  <g
     id="layer1"
     transform="matrix(0.30027574,0,0,0.30027574,-37.771122,-167.14017)">
    <path
       style="fill:#006325;fill-opacity:1;fill-rule:nonzero;stroke:none"
       id="path2464"
       d="m 189.35054,579.28163 c -0.79538,-0.13125 -1.57562,-0.1625 -2.32963,-0.105 l -10e-4,0 c 0,0 -5.15188,0.35 -5.38625,0.36875 -4.70263,0.37625 -8.2725,4.2425 -8.2725,9.5825 l 0,62.96625 5.26612,4.91 52.92288,-8.895 c 3.64212,-0.6325 6.518,-4.9275 6.518,-9.56625 l 0,-51.275 -48.71725,-7.98625"
       inkscape:connector-curvature="0" />
    <path
       style="fill:#80c341;fill-opacity:1;fill-rule:nonzero;stroke:none"
       id="path2466"
       d="m 238.06779,638.54413 c 0,4.6375 -2.87588,8.9325 -6.518,9.565 l -52.92288,8.895 0,-68.21 c 0,-6.20375 4.95126,-10.46375 10.72363,-9.5125 l 48.71725,7.98625 0,51.27625"
       inkscape:connector-curvature="0" />
    <path
       style="fill:#ffffff;fill-opacity:1;fill-rule:nonzero;stroke:none"
       id="path2468"
       d="m 201.42966,593.55413 c -3.771,0 -6.75787,1.44375 -8.90625,4.4375 -2.545,3.54875 -3.84375,9.16875 -3.84375,16.75 0,7.0325 0.92376,12.38625 2.78125,16.0625 1.83,3.6175 4.48438,5.7775 7.875,6.5 0.73776,3.5775 1.877,5.99625 3.4375,7.25 1.17926,0.95 2.75,1.4375 4.6875,1.4375 0.58551,0 1.22263,-0.04 1.875,-0.125 l 2.21875,-0.3125 0,-4.84375 c -0.34137,0.0388 -0.66937,0.0313 -0.96875,0.0313 -1.03512,0 -1.81062,-0.20625 -2.3125,-0.65625 -0.64699,-0.58625 -1.1475,-1.6925 -1.46875,-3.34375 3.1885,-1.09125 5.53563,-3.46 7.0625,-7.0625 1.5005,-3.5525 2.25001,-8.35125 2.25,-14.46875 0,-6.67875 -1.00737,-11.765 -3.0625,-15.3125 -2.09275,-3.6275 -5.314,-5.73875 -9.75,-6.25 -0.64312,-0.0762 -1.2715,-0.0937 -1.875,-0.0937 z m 20.34375,2.625 -1.78125,7.53125 -2.8125,-0.1875 0,5.03125 2.3125,0.125 0,19.0625 c 0,2.495 0.48776,4.305 1.5,5.4375 0.86863,0.9775 2.1495,1.46875 3.8125,1.46875 0.24863,0 0.51513,-0.0113 0.78125,-0.0313 1.8365,-0.1575 3.6875,-0.66375 5.59375,-1.5 l 0,-4.34375 c -1.12162,0.51125 -2.14699,0.82 -3.09375,0.875 -0.0615,0.004 -0.12788,0 -0.1875,0 -0.61813,0 -1.07661,-0.1975 -1.375,-0.59375 -0.331,-0.4325 -0.5,-1.37875 -0.5,-2.875 l 0,-17.21875 4.8125,0.21875 0,-4.6875 -4.8125,-0.34375 0,-7.5 -4.25,-0.46875 z m -18.875,3.09375 c 0.1275,0 0.27288,0.02 0.40625,0.0313 1.73926,0.1525 3.03913,1.3575 3.90625,3.59375 0.86676,2.225 1.28126,6.26 1.28125,12.15625 0,6.57 -0.4395,10.975 -1.3125,13.21875 -0.87887,2.26625 -2.15525,3.45375 -3.875,3.5625 -0.0776,0.005 -0.17387,0.0313 -0.25,0.0313 -1.71725,0 -3.00137,-1.2425 -3.875,-3.71875 -0.92624,-2.6 -1.40625,-7.00875 -1.40625,-13.25 0,-6.4575 0.47126,-10.7225 1.40625,-12.78125 0.86325,-1.88875 2.107,-2.84375 3.71875,-2.84375 z"
       inkscape:connector-curvature="0" />
    <path
       style="fill:#006325;fill-opacity:1;fill-rule:nonzero;stroke:none"
       id="path2470"
       d="m 199.04829,593.55505 c -3.76663,0.002 -6.75975,1.44625 -8.90625,4.4375 -2.54551,3.54875 -3.8125,9.16875 -3.8125,16.75 1e-5,7.0325 0.92375,12.38625 2.78125,16.0625 1.83051,3.6175 4.48488,5.7775 7.875,6.5 0.73775,3.5775 1.87701,5.99625 3.4375,7.25 1.17924,0.95 2.75,1.4375 4.6875,1.4375 0.0366,0 0.0889,10e-4 0.125,0 l 2.0625,0 c -1.26513,-0.02 -2.37587,-0.25375 -3.3125,-0.6875 -0.0425,-0.0188 -0.0835,-0.0425 -0.125,-0.0625 -0.004,-0.003 -0.0267,0.002 -0.0313,0 -0.038,-0.0188 -0.0561,-0.0425 -0.0937,-0.0625 -0.007,-0.004 -0.0235,0.004 -0.0313,0 -0.0343,-0.0188 -0.06,-0.0438 -0.0937,-0.0625 -0.0108,-0.006 -0.0205,-0.025 -0.0313,-0.0313 -0.0303,-0.0163 -0.064,-0.0138 -0.0937,-0.0313 -0.0146,-0.008 -0.0484,-0.0225 -0.0625,-0.0313 -0.0264,-0.015 -0.0361,-0.0463 -0.0625,-0.0625 -0.0176,-0.01 -0.0454,-0.02 -0.0625,-0.0313 -0.023,-0.015 -0.0405,-0.0175 -0.0625,-0.0313 -0.0215,-0.0138 -0.0415,-0.0175 -0.0625,-0.0313 -0.0181,-0.0125 -0.0439,-0.05 -0.0625,-0.0625 -0.0244,-0.0163 -0.038,-0.015 -0.0625,-0.0313 -0.0141,-0.0113 -0.017,-0.02 -0.0313,-0.0313 -0.0283,-0.02 -0.0655,-0.0413 -0.0937,-0.0625 -0.009,-0.008 -0.0215,-0.0238 -0.0313,-0.0313 -0.0371,-0.0288 -0.0884,-0.0638 -0.125,-0.0937 -1.56051,-1.25375 -2.69974,-3.6725 -3.4375,-7.25 -3.39063,-0.7225 -6.045,-2.8825 -7.875,-6.5 -1.8575,-3.67625 -2.78125,-9.03 -2.78125,-16.0625 0,-7.58125 1.29875,-13.20125 3.84375,-16.75 2.14837,-2.99375 5.13525,-4.4375 8.90625,-4.4375 0.0122,0 -2.375,0 -2.375,0 z m 20.46875,2.625 -1.71875,7.375 2.1875,0.15625 1.78125,-7.53125 -2.25,0 z m -16.625,3.09375 c -0.40526,0 -0.76662,0.0675 -1.125,0.1875 1.33637,0.415 2.33638,1.56375 3.0625,3.4375 0.86725,2.225 1.3125,6.26 1.3125,12.15625 0,6.57 -0.4395,10.975 -1.3125,13.21875 -0.70263,1.81125 -1.668,2.94125 -2.90625,3.375 0.35787,0.135 0.72213,0.21875 1.125,0.21875 0.0761,0 0.17238,-0.0263 0.25,-0.0313 1.71974,-0.10875 2.99613,-1.29625 3.875,-3.5625 0.87299,-2.24375 1.3125,-6.64875 1.3125,-13.21875 0,-5.89625 -0.41449,-9.93125 -1.28125,-12.15625 -0.86713,-2.23625 -2.16699,-3.44125 -3.90625,-3.59375 -0.13338,-0.0113 -0.27875,-0.0313 -0.40625,-0.0313 z m 12.03125,4.25 0,1.125 c 0.32225,1.21375 0.59375,2.5175 0.78125,3.9375 l 1.53125,0.0937 0,19.0625 c 0,2.495 0.5195,4.305 1.53125,5.4375 0.86862,0.9775 2.14988,1.46875 3.8125,1.46875 l 2.21875,0 c -1.66301,0 -2.94387,-0.49125 -3.8125,-1.46875 -1.01225,-1.1325 -1.5,-2.9425 -1.5,-5.4375 l 0,-19.0625 -2.3125,-0.125 0,-5.03125 -2.25,0 z m 11.125,5.4375 0,0.125 2.5625,0.0937 2.25,0 -4.8125,-0.21875 z m 2.90625,19.8125 c -0.67576,0.3075 -1.29588,0.54375 -1.90625,0.6875 0.24512,0.12125 0.53225,0.1875 0.875,0.1875 0.0596,0 0.12599,0.004 0.1875,0 0.94675,-0.055 1.97213,-0.36375 3.09375,-0.875 l -2.25,0 z m -19.21875,11.90625 c 0.25,0.0387 0.54874,0.0625 0.84375,0.0625 0.29923,0 0.6275,-0.0238 0.96875,-0.0625 l -1.8125,0 z"
       inkscape:connector-curvature="0" />
  </g>
  <path
     sodipodi:nodetypes="cccc"
     d="m 31.363604,14.097603 c -0.04413,-3.358921 0.09038,-9.0083545 -1.797752,-11.9764771 0,0 12.332945,12.3997501 13.653286,13.9416511 0,0 -2.291044,-1.831833 -11.855534,-1.965174 z"
     id="path3827"
     style="opacity:0.9;fill:#000000;fill-opacity:1;stroke:none;filter:url(#filter4109)"
     inkscape:connector-curvature="0"
     clip-path="url(#clipPath4113)" />
  <path
     inkscape:connector-curvature="0"
     style="fill:url(#linearGradient3154);fill-opacity:1;stroke:none"
     id="path6011"
     d="m 29.291794,14.167696 c -0.04524,-3.442826 0.09264,-9.2333791 -1.842657,-12.2756438 0,0 12.641014,12.7094898 13.994337,14.2899058 0,0 -2.348272,-1.877591 -12.15168,-2.014262 z"
     sodipodi:nodetypes="cccc" />
</svg>
