<?xml version="1.0" encoding="UTF-8" standalone="no"?>
<!-- Created with Inkscape (http://www.inkscape.org/) -->

<svg
   xmlns:dc="http://purl.org/dc/elements/1.1/"
   xmlns:cc="http://creativecommons.org/ns#"
   xmlns:rdf="http://www.w3.org/1999/02/22-rdf-syntax-ns#"
   xmlns:svg="http://www.w3.org/2000/svg"
   xmlns="http://www.w3.org/2000/svg"
   xmlns:xlink="http://www.w3.org/1999/xlink"
   xmlns:sodipodi="http://sodipodi.sourceforge.net/DTD/sodipodi-0.dtd"
   xmlns:inkscape="http://www.inkscape.org/namespaces/inkscape"
   width="64"
   height="64"
   viewBox="0 0 64 64"
   version="1.1"
   id="svg8"
   inkscape:version="0.92.1 r15371"
   sodipodi:docname="docky.svg">
  <defs
     id="defs2">
    <linearGradient
       inkscape:collect="always"
       id="linearGradient1605">
      <stop
         style="stop-color:#000000;stop-opacity:0.25"
         offset="0"
         id="stop1597" />
      <stop
         id="stop1599"
         offset="0.08928589"
         style="stop-color:#000000;stop-opacity:0.5" />
      <stop
         style="stop-color:#000000;stop-opacity:0.75"
         offset="0.91071427"
         id="stop1601" />
      <stop
         style="stop-color:#000000;stop-opacity:1"
         offset="1"
         id="stop1603" />
    </linearGradient>
    <linearGradient
       inkscape:collect="always"
       id="linearGradient851">
      <stop
         style="stop-color:#a7a7a7;stop-opacity:1"
         offset="0"
         id="stop847" />
      <stop
         id="stop855"
         offset="0.55000001"
         style="stop-color:#696969;stop-opacity:1" />
      <stop
         style="stop-color:#535353;stop-opacity:1"
         offset="1"
         id="stop849" />
    </linearGradient>
    <linearGradient
       inkscape:collect="always"
       xlink:href="#linearGradient851"
       id="linearGradient853"
       x1="32.000004"
       y1="284.06665"
       x2="32.000004"
       y2="338.06665"
       gradientUnits="userSpaceOnUse" />
    <clipPath
       clipPathUnits="userSpaceOnUse"
       id="clipPath861">
      <path
         inkscape:connector-curvature="0"
         id="path863"
         d="m 6,284.06666 a 4,4 0 0 0 -4,4 v 46 a 4,4 0 0 0 4,4 h 52 a 4,4 0 0 0 4,-4 v -46 a 4,4 0 0 0 -4,-4 z"
         style="opacity:1;fill:#000000;fill-opacity:1;stroke:none;stroke-width:2.01784277;stroke-linecap:butt;stroke-linejoin:miter;stroke-miterlimit:4;stroke-dasharray:none;stroke-opacity:1" />
    </clipPath>
    <linearGradient
       inkscape:collect="always"
       xlink:href="#linearGradient1605"
       id="linearGradient1595"
       gradientUnits="userSpaceOnUse"
       x1="32"
       y1="283.06665"
       x2="32"
       y2="339.06665" />
  </defs>
  <sodipodi:namedview
     id="base"
     pagecolor="#ffffff"
     bordercolor="#666666"
     borderopacity="1.0"
     inkscape:pageopacity="0.0"
     inkscape:pageshadow="2"
     inkscape:zoom="2.8284271"
     inkscape:cx="27.524254"
     inkscape:cy="33.145685"
     inkscape:document-units="px"
     inkscape:current-layer="layer1"
     showgrid="false"
     units="px"
     inkscape:snap-bbox="true"
     inkscape:bbox-paths="true"
     inkscape:bbox-nodes="true"
     inkscape:snap-bbox-edge-midpoints="true"
     inkscape:snap-bbox-midpoints="true"
     inkscape:object-paths="true"
     inkscape:snap-smooth-nodes="true"
     inkscape:snap-page="true"
     inkscape:snap-intersection-paths="true"
     showguides="true"
     inkscape:window-width="1366"
     inkscape:window-height="725"
     inkscape:window-x="0"
     inkscape:window-y="21"
     inkscape:window-maximized="1"
     inkscape:guide-bbox="true" />
  <metadata
     id="metadata5">
    <rdf:RDF>
      <cc:Work
         rdf:about="">
        <dc:format>image/svg+xml</dc:format>
        <dc:type
           rdf:resource="http://purl.org/dc/dcmitype/StillImage" />
        <dc:title />
      </cc:Work>
    </rdf:RDF>
  </metadata>
  <g
     inkscape:label="Layer 1"
     inkscape:groupmode="layer"
     id="layer1"
     transform="translate(0,-280.06666)">
    <use
       x="0"
       y="0"
       xlink:href="#path1089"
       id="use1091"
       transform="translate(0,1)"
       width="100%"
       height="100%"
       style="opacity:0.13999999" />
    <path
       inkscape:connector-curvature="0"
       id="path1089"
       d="m 6,284.06666 a 4,4 0 0 0 -4,4 v 46 a 4,4 0 0 0 4,4 h 52 a 4,4 0 0 0 4,-4 v -46 a 4,4 0 0 0 -4,-4 z"
       style="opacity:0.3;fill:none;fill-opacity:1;stroke:url(#linearGradient1595);stroke-width:2;stroke-linecap:round;stroke-linejoin:round;stroke-miterlimit:4;stroke-dasharray:none;stroke-opacity:1" />
    <path
       style="opacity:1;fill:url(#linearGradient853);fill-opacity:1;stroke:none;stroke-width:2.01784277;stroke-linecap:butt;stroke-linejoin:miter;stroke-miterlimit:4;stroke-dasharray:none;stroke-opacity:1"
       d="m 6,284.06666 a 4,4 0 0 0 -4,4 v 46 a 4,4 0 0 0 4,4 h 52 a 4,4 0 0 0 4,-4 v -46 a 4,4 0 0 0 -4,-4 z"
       id="path21"
       inkscape:connector-curvature="0" />
    <g
       id="g870">
      <path
         inkscape:connector-curvature="0"
         id="path992"
         d="m 5,335.06665 v -0.99999 l 6,-8 h 42 l 6,8 v 0.99999 z"
         style="opacity:0.1;fill:none;fill-rule:evenodd;stroke:#000000;stroke-width:2;stroke-linecap:round;stroke-linejoin:round;stroke-miterlimit:4;stroke-dasharray:none;stroke-opacity:1" />
      <path
         sodipodi:nodetypes="ccccc"
         inkscape:connector-curvature="0"
         id="path910"
         d="m 5,334.06666 6,-8 h 42 l 6,8 z"
         style="opacity:0.5;fill:#ffffff;fill-opacity:1;fill-rule:evenodd;stroke:none;stroke-width:1px;stroke-linecap:butt;stroke-linejoin:miter;stroke-opacity:1" />
      <rect
         y="334.06665"
         x="5"
         height="1"
         width="54"
         id="rect931"
         style="opacity:0.86000001;fill:#ffffff;fill-opacity:1;stroke:none;stroke-width:1.5493952;stroke-linecap:round;stroke-linejoin:round;stroke-miterlimit:4;stroke-dasharray:none;stroke-opacity:1" />
      <ellipse
         ry="0.75"
         rx="2"
         cy="332.81665"
         cx="32"
         id="path1068"
         style="opacity:1;fill:#ffffff;fill-opacity:1;stroke:none;stroke-width:1.60000241;stroke-linecap:round;stroke-linejoin:round;stroke-miterlimit:4;stroke-dasharray:none;stroke-opacity:1" />
      <path
         sodipodi:nodetypes="ccccc"
         inkscape:connector-curvature="0"
         id="rect858"
         d="m 5.75,333.06665 52.5,1e-5 0.75,0.99999 H 5 Z"
         style="opacity:0.025;fill:#000000;fill-opacity:1;stroke:none;stroke-width:1.63944793;stroke-linecap:butt;stroke-linejoin:miter;stroke-miterlimit:4;stroke-dasharray:none;stroke-opacity:1" />
    </g>
    <g
       id="g990">
      <path
         clip-path="url(#clipPath861)"
         style="opacity:0.28;fill:none;fill-opacity:1;stroke:#000000;stroke-width:2;stroke-linecap:round;stroke-linejoin:round;stroke-miterlimit:4;stroke-dasharray:none;stroke-opacity:1"
         d="m 6,284.06666 a 4,4 0 0 0 -4,4 v 46 a 4,4 0 0 0 4,4 h 52 a 4,4 0 0 0 4,-4 v -46 a 4,4 0 0 0 -4,-4 z"
         id="path857"
         inkscape:connector-curvature="0" />
      <path
         id="path865"
         transform="translate(0,280.06666)"
         d="M 6 5 A 3 3 0 0 0 3 8 L 3 9 A 3 3 0 0 1 6 6 L 58 6 A 3 3 0 0 1 61 9 L 61 8 A 3 3 0 0 0 58 5 L 6 5 z "
         style="opacity:0.16;fill:#ffffff;fill-opacity:1;stroke:none;stroke-width:2.24034834;stroke-linecap:round;stroke-linejoin:round;stroke-miterlimit:4;stroke-dasharray:none;stroke-opacity:1" />
    </g>
    <g
       id="g940">
      <path
         inkscape:connector-curvature="0"
         id="path935"
         d="m 10,321.06666 a 1,1 0 0 0 -1,1 v 8 a 1,1 0 0 0 1,1 h 8 a 1,1 0 0 0 1,-1 v -8 a 1,1 0 0 0 -1,-1 z"
         style="opacity:0.03999999;fill:none;fill-opacity:1;stroke:#000000;stroke-width:2;stroke-linecap:round;stroke-linejoin:round;stroke-miterlimit:4;stroke-dasharray:none;stroke-opacity:1" />
      <path
         style="opacity:0.12000002;fill:none;fill-opacity:1;stroke:#000000;stroke-width:2;stroke-linecap:round;stroke-linejoin:round;stroke-miterlimit:4;stroke-dasharray:none;stroke-opacity:1"
         d="m 10,320.06666 a 1,1 0 0 0 -1,1 v 8 a 1,1 0 0 0 1,1 h 8 a 1,1 0 0 0 1,-1 v -8 a 1,1 0 0 0 -1,-1 z"
         id="path933"
         inkscape:connector-curvature="0" />
      <path
         inkscape:connector-curvature="0"
         id="path912"
         d="m 10,320.06666 a 1,1 0 0 0 -1,1 v 8 a 1,1 0 0 0 1,1 h 8 a 1,1 0 0 0 1,-1 v -8 a 1,1 0 0 0 -1,-1 z"
         style="opacity:1;fill:#ffffff;fill-opacity:1;stroke:none;stroke-width:1.91236579;stroke-linecap:round;stroke-linejoin:round;stroke-miterlimit:4;stroke-dasharray:none;stroke-opacity:1" />
    </g>
    <g
       id="g952"
       transform="translate(12)">
      <path
         style="opacity:0.03999999;fill:none;fill-opacity:1;stroke:#000000;stroke-width:2;stroke-linecap:round;stroke-linejoin:round;stroke-miterlimit:4;stroke-dasharray:none;stroke-opacity:1"
         d="m 10,321.06666 a 1,1 0 0 0 -1,1 v 8 a 1,1 0 0 0 1,1 h 8 a 1,1 0 0 0 1,-1 v -8 a 1,1 0 0 0 -1,-1 z"
         id="path946"
         inkscape:connector-curvature="0" />
      <path
         inkscape:connector-curvature="0"
         id="path948"
         d="m 10,320.06666 a 1,1 0 0 0 -1,1 v 8 a 1,1 0 0 0 1,1 h 8 a 1,1 0 0 0 1,-1 v -8 a 1,1 0 0 0 -1,-1 z"
         style="opacity:0.12000002;fill:none;fill-opacity:1;stroke:#000000;stroke-width:2;stroke-linecap:round;stroke-linejoin:round;stroke-miterlimit:4;stroke-dasharray:none;stroke-opacity:1" />
      <path
         style="opacity:1;fill:#ffffff;fill-opacity:1;stroke:none;stroke-width:1.91236579;stroke-linecap:round;stroke-linejoin:round;stroke-miterlimit:4;stroke-dasharray:none;stroke-opacity:1"
         d="m 10,320.06666 a 1,1 0 0 0 -1,1 v 8 a 1,1 0 0 0 1,1 h 8 a 1,1 0 0 0 1,-1 v -8 a 1,1 0 0 0 -1,-1 z"
         id="path950"
         inkscape:connector-curvature="0" />
    </g>
    <g
       id="g960"
       transform="translate(24)">
      <path
         style="opacity:0.03999999;fill:none;fill-opacity:1;stroke:#000000;stroke-width:2;stroke-linecap:round;stroke-linejoin:round;stroke-miterlimit:4;stroke-dasharray:none;stroke-opacity:1"
         d="m 10,321.06666 a 1,1 0 0 0 -1,1 v 8 a 1,1 0 0 0 1,1 h 8 a 1,1 0 0 0 1,-1 v -8 a 1,1 0 0 0 -1,-1 z"
         id="path954"
         inkscape:connector-curvature="0" />
      <path
         inkscape:connector-curvature="0"
         id="path956"
         d="m 10,320.06666 a 1,1 0 0 0 -1,1 v 8 a 1,1 0 0 0 1,1 h 8 a 1,1 0 0 0 1,-1 v -8 a 1,1 0 0 0 -1,-1 z"
         style="opacity:0.12000002;fill:none;fill-opacity:1;stroke:#000000;stroke-width:2;stroke-linecap:round;stroke-linejoin:round;stroke-miterlimit:4;stroke-dasharray:none;stroke-opacity:1" />
      <path
         style="opacity:1;fill:#ffffff;fill-opacity:1;stroke:none;stroke-width:1.91236579;stroke-linecap:round;stroke-linejoin:round;stroke-miterlimit:4;stroke-dasharray:none;stroke-opacity:1"
         d="m 10,320.06666 a 1,1 0 0 0 -1,1 v 8 a 1,1 0 0 0 1,1 h 8 a 1,1 0 0 0 1,-1 v -8 a 1,1 0 0 0 -1,-1 z"
         id="path958"
         inkscape:connector-curvature="0" />
    </g>
    <g
       transform="translate(36)"
       id="g968">
      <path
         inkscape:connector-curvature="0"
         id="path962"
         d="m 10,321.06666 a 1,1 0 0 0 -1,1 v 8 a 1,1 0 0 0 1,1 h 8 a 1,1 0 0 0 1,-1 v -8 a 1,1 0 0 0 -1,-1 z"
         style="opacity:0.03999999;fill:none;fill-opacity:1;stroke:#000000;stroke-width:2;stroke-linecap:round;stroke-linejoin:round;stroke-miterlimit:4;stroke-dasharray:none;stroke-opacity:1" />
      <path
         style="opacity:0.12000002;fill:none;fill-opacity:1;stroke:#000000;stroke-width:2;stroke-linecap:round;stroke-linejoin:round;stroke-miterlimit:4;stroke-dasharray:none;stroke-opacity:1"
         d="m 10,320.06666 a 1,1 0 0 0 -1,1 v 8 a 1,1 0 0 0 1,1 h 8 a 1,1 0 0 0 1,-1 v -8 a 1,1 0 0 0 -1,-1 z"
         id="path964"
         inkscape:connector-curvature="0" />
      <path
         inkscape:connector-curvature="0"
         id="path966"
         d="m 10,320.06666 a 1,1 0 0 0 -1,1 v 8 a 1,1 0 0 0 1,1 h 8 a 1,1 0 0 0 1,-1 v -8 a 1,1 0 0 0 -1,-1 z"
         style="opacity:1;fill:#ffffff;fill-opacity:1;stroke:none;stroke-width:1.91236579;stroke-linecap:round;stroke-linejoin:round;stroke-miterlimit:4;stroke-dasharray:none;stroke-opacity:1" />
    </g>
  </g>
</svg>
