<?xml version="1.0" encoding="UTF-8" standalone="no"?>
<!-- Created with Inkscape (http://www.inkscape.org/) -->

<svg
   xmlns:dc="http://purl.org/dc/elements/1.1/"
   xmlns:cc="http://creativecommons.org/ns#"
   xmlns:rdf="http://www.w3.org/1999/02/22-rdf-syntax-ns#"
   xmlns:svg="http://www.w3.org/2000/svg"
   xmlns="http://www.w3.org/2000/svg"
   xmlns:sodipodi="http://sodipodi.sourceforge.net/DTD/sodipodi-0.dtd"
   xmlns:inkscape="http://www.inkscape.org/namespaces/inkscape"
   version="1.1"
   width="16"
   height="16"
   id="svg17534"
   inkscape:version="0.48.4 r9939"
   sodipodi:docname="haguichi-connected.svg">
  <metadata
     id="metadata9">
    <rdf:RDF>
      <cc:Work
         rdf:about="">
        <dc:format>image/svg+xml</dc:format>
        <dc:type
           rdf:resource="http://purl.org/dc/dcmitype/StillImage" />
      </cc:Work>
    </rdf:RDF>
  </metadata>
  <sodipodi:namedview
     pagecolor="#b6b6b6"
     bordercolor="#666666"
     borderopacity="1"
     objecttolerance="10"
     gridtolerance="10"
     guidetolerance="10"
     inkscape:pageopacity="1"
     inkscape:pageshadow="2"
     inkscape:window-width="1280"
     inkscape:window-height="1000"
     id="namedview7"
     showgrid="false"
     inkscape:zoom="29.5"
     inkscape:cx="9.9146474"
     inkscape:cy="9.7993065"
     inkscape:window-x="0"
     inkscape:window-y="24"
     inkscape:window-maximized="1"
     inkscape:current-layer="svg17534" />
  <defs
     id="defs17536" />
  <path
     inkscape:connector-curvature="0"
     style="opacity:0.5;fill:#ffffff;fill-opacity:1;stroke:none;display:inline;enable-background:new"
     id="rect12906-1-1-0-2"
     d="M 11.36338,2.57687 C 11.00384,2.21346 10.50713,2 9.9585,2 8.86122,2 7.98289,2.88777 7.98289,3.99683 c 0,1.11174 -0.21035,1.42622 -0.8561,2.15214 C 6.48104,6.87488 5.93204,6.95418 5.04142,6.96989 3.90602,6.96989 3,8.03782 3,9.03329 c 0,0.99547 0.87833,1.99683 1.97561,1.99683 0.85106,0 1.51887,0.34266 2.05905,0.89992 0.54018,0.55726 1.01411,1.0022 1.01412,2.07313 0,1.10906 0.87833,1.99683 1.97561,1.99683 0.54863,0 1.04534,-0.21345 1.40488,-0.57687 0.35953,-0.36339 0.57072,-0.86542 0.57073,-1.41996 0,-1.10907 -0.87834,-1.99683 -1.97561,-1.99683 -0.82801,0 -1.43009,-0.23868 -2.27317,-1.09997 -0.84308,-0.8613 -0.91279,-2.871 0.078,-3.78404 0.99084,-0.91304 1.41016,-1.12867 2.12926,-1.12867 1.09728,0 1.97561,-0.88776 1.97562,-1.99683 -4e-5,-0.55449 -0.21123,-1.05653 -0.57077,-1.41992 l -10e-6,-4e-5 z" />
  <path
     inkscape:connector-curvature="0"
     style="fill:#000000;fill-opacity:1;stroke:none;display:inline;enable-background:new"
     id="rect12906-1-1-5-6-0"
     d="M 11.36338,1.57687 C 11.00384,1.21346 10.50713,1 9.9585,1 8.86122,1 7.98289,1.88777 7.98289,2.99683 c 0,1.11174 -0.21035,1.42622 -0.8561,2.15214 C 6.48104,5.87488 5.93204,5.95418 5.04142,5.96989 3.90602,5.96989 3,7.03782 3,8.03329 c 0,0.99547 0.87833,1.99683 1.97561,1.99683 0.85106,0 1.51887,0.34266 2.05905,0.89992 0.54018,0.55726 1.01411,1.0022 1.01412,2.07313 0,1.10906 0.87833,1.99683 1.97561,1.99683 0.54863,0 1.04534,-0.21345 1.40488,-0.57687 C 11.7888,14.05974 11.99999,13.55771 12,13.00317 12,11.8941 11.12166,11.00634 10.02439,11.00634 9.19638,11.00634 8.5943,10.76766 7.75122,9.90637 6.90814,9.04507 6.83843,7.03537 7.82922,6.12233 8.82006,5.20929 9.23938,4.99366 9.95848,4.99366 c 1.09728,0 1.97561,-0.88776 1.97562,-1.99683 -4e-5,-0.55449 -0.21123,-1.05653 -0.57077,-1.41992 l -10e-6,-4e-5 z" />
</svg>
