<?xml version="1.0" encoding="UTF-8" standalone="no"?>
<!-- Created with Inkscape (http://www.inkscape.org/) -->

<svg
   xmlns:dc="http://purl.org/dc/elements/1.1/"
   xmlns:cc="http://creativecommons.org/ns#"
   xmlns:rdf="http://www.w3.org/1999/02/22-rdf-syntax-ns#"
   xmlns:svg="http://www.w3.org/2000/svg"
   xmlns="http://www.w3.org/2000/svg"
   xmlns:xlink="http://www.w3.org/1999/xlink"
   xmlns:sodipodi="http://sodipodi.sourceforge.net/DTD/sodipodi-0.dtd"
   xmlns:inkscape="http://www.inkscape.org/namespaces/inkscape"
   version="1.0"
   width="16"
   height="16"
   id="svg2"
   style="display:inline;enable-background:new"
   sodipodi:version="0.32"
   inkscape:version="0.92.1 r15371"
   sodipodi:docname="shutter-panel.svg"
   inkscape:output_extension="org.inkscape.output.svg.inkscape"
   inkscape:export-filename="/home/mario/shutter/experimental/share/pixmaps/shutter.xpm.png"
   inkscape:export-xdpi="60"
   inkscape:export-ydpi="60">
  <metadata
     id="metadata57">
    <rdf:RDF>
      <cc:Work
         rdf:about="">
        <dc:format>image/svg+xml</dc:format>
        <dc:type
           rdf:resource="http://purl.org/dc/dcmitype/StillImage" />
        <dc:title></dc:title>
      </cc:Work>
    </rdf:RDF>
  </metadata>
  <sodipodi:namedview
     inkscape:window-height="725"
     inkscape:window-width="1366"
     inkscape:pageshadow="2"
     inkscape:pageopacity="0"
     guidetolerance="10.0"
     gridtolerance="10.0"
     objecttolerance="10.0"
     borderopacity="1.0"
     bordercolor="#666666"
     pagecolor="#b0b0b0"
     id="base"
     showgrid="false"
     inkscape:zoom="1"
     inkscape:cx="26.96213"
     inkscape:cy="-11.164621"
     inkscape:window-x="0"
     inkscape:window-y="21"
     inkscape:current-layer="svg2"
     inkscape:window-maximized="1" />
  <defs
     id="defs4">
    <inkscape:perspective
       sodipodi:type="inkscape:persp3d"
       inkscape:vp_x="0 : 245 : 1"
       inkscape:vp_y="0 : 1000 : 0"
       inkscape:vp_z="440 : 245 : 1"
       inkscape:persp3d-origin="220 : 163.33333 : 1"
       id="perspective59" />
    <linearGradient
       id="linearGradient6793">
      <stop
         id="stop6795"
         style="stop-color:#44b5e8;stop-opacity:1"
         offset="0" />
      <stop
         id="stop6797"
         style="stop-color:#116b98;stop-opacity:1"
         offset="1" />
    </linearGradient>
    <filter
       id="filter3383"
       style="color-interpolation-filters:sRGB">
      <feBlend
         inkscape:collect="always"
         mode="multiply"
         in2="BackgroundImage"
         id="feBlend3385" />
    </filter>
    <filter
       id="filter3985"
       x="-0.071800567"
       width="1.1436011"
       y="-0.15538733"
       height="1.3107746"
       style="color-interpolation-filters:sRGB">
      <feGaussianBlur
         inkscape:collect="always"
         stdDeviation="6.7803529"
         id="feGaussianBlur3987" />
    </filter>
    <filter
       id="filter3989"
       style="color-interpolation-filters:sRGB">
      <feGaussianBlur
         inkscape:collect="always"
         stdDeviation="6.7803529"
         id="feGaussianBlur3991" />
    </filter>
    <filter
       id="filter3993"
       x="-0.1490933"
       width="1.2981865"
       y="-0.072374105"
       height="1.1447482"
       style="color-interpolation-filters:sRGB">
      <feGaussianBlur
         inkscape:collect="always"
         stdDeviation="6.7803529"
         id="feGaussianBlur3995" />
    </filter>
    <filter
       id="filter3997"
       x="-0.081570871"
       width="1.1631417"
       y="-0.11038305"
       height="1.2207661"
       style="color-interpolation-filters:sRGB">
      <feGaussianBlur
         inkscape:collect="always"
         stdDeviation="6.7803529"
         id="feGaussianBlur3999" />
    </filter>
    <filter
       id="filter4001"
       x="-0.07492853"
       width="1.149857"
       y="-0.12866202"
       height="1.257324"
       style="color-interpolation-filters:sRGB">
      <feGaussianBlur
         inkscape:collect="always"
         stdDeviation="6.7803529"
         id="feGaussianBlur4003" />
    </filter>
    <filter
       id="filter4005"
       x="-0.12232576"
       width="1.2446516"
       y="-0.076450996"
       height="1.152902"
       style="color-interpolation-filters:sRGB">
      <feGaussianBlur
         inkscape:collect="always"
         stdDeviation="6.7803529"
         id="feGaussianBlur4007" />
    </filter>
    <filter
       id="filter4009"
       x="-0.11224329"
       width="1.2244866"
       y="-0.079873785"
       height="1.1597476"
       style="color-interpolation-filters:sRGB">
      <feGaussianBlur
         inkscape:collect="always"
         stdDeviation="6.7803529"
         id="feGaussianBlur4011" />
    </filter>
    <radialGradient
       cx="353.6283"
       cy="241.04938"
       r="220.11942"
       fx="353.6283"
       fy="241.04938"
       id="radialGradient2607"
       xlink:href="#linearGradient6793"
       gradientUnits="userSpaceOnUse"
       gradientTransform="matrix(-1,0,0,0.9878188,582.03434,46.933265)" />
    <radialGradient
       cx="353.6283"
       cy="241.04938"
       r="220.11942"
       fx="353.6283"
       fy="241.04938"
       id="radialGradient2609"
       xlink:href="#linearGradient6793"
       gradientUnits="userSpaceOnUse"
       gradientTransform="matrix(-0.999176,-0.04058613,-0.04009174,0.9870049,587.79647,48.361326)" />
    <radialGradient
       cx="353.6283"
       cy="241.04938"
       r="220.11942"
       fx="353.6283"
       fy="241.04938"
       id="radialGradient2611"
       xlink:href="#linearGradient6793"
       gradientUnits="userSpaceOnUse"
       gradientTransform="matrix(-1,0,0,0.9878188,582.03434,46.933265)" />
    <radialGradient
       cx="353.6283"
       cy="241.04938"
       r="220.11942"
       fx="353.6283"
       fy="241.04938"
       id="radialGradient2613"
       xlink:href="#linearGradient6793"
       gradientUnits="userSpaceOnUse"
       gradientTransform="matrix(-1,0,0,0.9878188,582.03434,46.933265)" />
    <radialGradient
       cx="353.6283"
       cy="241.04938"
       r="220.11942"
       fx="353.6283"
       fy="241.04938"
       id="radialGradient2615"
       xlink:href="#linearGradient6793"
       gradientUnits="userSpaceOnUse"
       gradientTransform="matrix(-1,0,0,0.9878188,582.03434,46.933265)" />
    <radialGradient
       cx="353.6283"
       cy="241.04938"
       r="220.11942"
       fx="353.6283"
       fy="241.04938"
       id="radialGradient2617"
       xlink:href="#linearGradient6793"
       gradientUnits="userSpaceOnUse"
       gradientTransform="matrix(-0.999176,-0.04058613,-0.04009174,0.9870049,587.79647,48.361326)" />
    <radialGradient
       cx="353.6283"
       cy="241.04938"
       r="220.11942"
       fx="353.6283"
       fy="241.04938"
       id="radialGradient2619"
       xlink:href="#linearGradient6793"
       gradientUnits="userSpaceOnUse"
       gradientTransform="matrix(-1,0,0,0.9878188,582.03434,46.933265)" />
    <radialGradient
       cx="353.6283"
       cy="241.04938"
       r="220.11942"
       fx="353.6283"
       fy="241.04938"
       id="radialGradient2621"
       xlink:href="#linearGradient6793"
       gradientUnits="userSpaceOnUse"
       gradientTransform="matrix(-1,0,0,0.9878188,582.03434,46.933265)" />
    <radialGradient
       cx="353.6283"
       cy="241.04938"
       r="220.11942"
       fx="353.6283"
       fy="241.04938"
       id="radialGradient2623"
       xlink:href="#linearGradient6793"
       gradientUnits="userSpaceOnUse"
       gradientTransform="matrix(-1,0,0,0.9878188,582.03434,46.933265)" />
    <radialGradient
       cx="353.6283"
       cy="241.04938"
       r="220.11942"
       fx="353.6283"
       fy="241.04938"
       id="radialGradient2625"
       xlink:href="#linearGradient6793"
       gradientUnits="userSpaceOnUse"
       gradientTransform="matrix(-1,0,0,0.9878188,582.03434,46.933265)" />
    <filter
       id="filter3380"
       inkscape:label="Desaturate"
       x="0"
       y="0"
       width="1"
       height="1"
       inkscape:menu="Color"
       inkscape:menu-tooltip="Render in shades of gray by reducing saturation to zero"
       style="color-interpolation-filters:sRGB">
      <feColorMatrix
         id="feColorMatrix3382"
         type="saturate"
         values="0" />
    </filter>
  </defs>
  <g
     id="g891"
     style="opacity:0.5;fill:#ffffff;fill-opacity:1"
     transform="translate(0,1)">
    <path
       style="color:#000000;display:inline;overflow:visible;visibility:visible;fill:#ffffff;fill-opacity:1;stroke:none;stroke-width:1.4000001;marker:none;enable-background:accumulate"
       d="M 5.3738457,9.2886076 C 4.3662515,8.6067586 3.5872472,7.8499837 3.3783731,7.3500772 3.2817807,7.1188986 3.2556147,6.4827194 3.3249716,6.051707 3.4615393,5.2030181 3.9955622,4.3503296 4.7114224,3.8379252 c 0.070732,-0.050629 0.1339179,-0.092053 0.1404122,-0.092053 0.0065,0 0.01938,0.29674 0.028634,0.6594217 0.039588,1.5516051 0.2261047,2.7660009 0.6958266,4.5304876 0.083331,0.3130295 0.1482371,0.5721506 0.1442361,0.5758263 -0.00401,0.00364 -0.1600092,-0.096675 -0.3466856,-0.2230002 z"
       id="path877"
       inkscape:connector-curvature="0" />
    <path
       style="color:#000000;display:inline;overflow:visible;visibility:visible;fill:#ffffff;fill-opacity:1;fill-rule:nonzero;stroke:none;stroke-width:1.4000001;marker:none;enable-background:accumulate"
       d="M 6.187105,6.6975685 C 6.1955715,6.5594038 6.2090011,6.3107078 6.2169481,6.1449104 6.2564337,5.3212596 6.4062132,4.1899646 6.5574859,3.5728009 6.7163944,2.9244853 6.83457,2.6781584 7.0917407,2.459192 7.8961814,1.7742562 9.6447603,1.2544189 11.855294,1.0430284 c 0.744342,-0.07118 2.054443,-0.050537 2.288538,0.03606 0.04447,0.016451 -0.0058,0.049486 -0.29475,0.1935942 C 12.420273,1.9853275 10.932562,2.9184114 9.4311352,4.0435929 8.2628967,4.9190813 7.2898057,5.771285 6.457459,6.6478485 L 6.171711,6.9487766 6.187103,6.6975683 Z"
       id="path879"
       inkscape:connector-curvature="0" />
    <path
       style="color:#000000;display:inline;overflow:visible;visibility:visible;fill:#ffffff;fill-opacity:1;fill-rule:nonzero;stroke:none;stroke-width:1.4000001;marker:none;enable-background:accumulate"
       d="M 13.714237,7.0974037 C 13.523687,7.0360162 12.768696,6.8617416 12.357713,6.784277 11.362569,6.5967072 10.403115,6.5105471 9.0549082,6.487681 L 8.0997329,6.4714804 8.3974667,6.2077116 C 9.1319908,5.5569815 9.9641853,5.021251 10.517918,4.8426588 c 0.272103,-0.087759 0.346747,-0.096337 0.573215,-0.065866 0.438356,0.05898 0.912636,0.2211638 1.277392,0.4368136 0.655168,0.3873463 1.208572,1.0505867 1.494977,1.7916913 0.05885,0.1522703 0.05152,0.1567903 -0.149265,0.092106 z"
       id="path881"
       inkscape:connector-curvature="0" />
    <path
       style="color:#000000;display:inline;overflow:visible;visibility:visible;fill:#ffffff;fill-opacity:1;fill-rule:nonzero;stroke:none;stroke-width:1.4000001;marker:none;enable-background:accumulate"
       d="M 12.559507,12.456517 C 12.540927,12.383977 12.453784,12.121213 12.365866,11.872589 11.893247,10.536057 11.27993,9.3197464 10.36094,7.8964742 10.176044,7.6101202 10.038156,7.3727524 10.054522,7.3689899 c 0.04469,-0.010276 0.765126,0.2054472 1.122511,0.3361141 0.400151,0.1463027 1.115938,0.4964518 1.343965,0.6574413 0.323816,0.2286187 0.439723,0.3508037 0.54427,0.5737558 0.228225,0.4867051 0.33221,0.9467389 0.3315,1.4665889 -8.4e-4,0.623865 -0.176783,1.250494 -0.502873,1.791126 -0.108768,0.18033 -0.263774,0.394385 -0.285587,0.394385 -0.0082,0 -0.03022,-0.05935 -0.0488,-0.131884 v 0 z"
       id="path883"
       inkscape:connector-curvature="0" />
    <path
       style="color:#000000;display:inline;overflow:visible;visibility:visible;fill:#ffffff;fill-opacity:1;fill-rule:nonzero;stroke:none;stroke-width:1.4000001;marker:none;enable-background:accumulate"
       d="m 8.1077522,14.893237 c 0.1128203,-0.164475 0.501419,-0.844416 0.7151389,-1.251299 0.477666,-0.909391 0.9271392,-2.054945 1.3103079,-3.339532 0.09273,-0.31087 0.177754,-0.5934784 0.18895,-0.62802 0.01833,-0.056532 0.03164,-0.03899 0.133407,0.175845 0.509942,1.076455 0.808671,2.153452 0.762742,2.749895 -0.01347,0.175048 -0.03247,0.23487 -0.151467,0.477296 -0.240932,0.490813 -0.627181,0.957486 -1.041327,1.258155 C 9.7963953,14.501908 9.3964627,14.705821 9.0950756,14.80997 8.8144288,14.90695 8.3550719,15 8.1569348,15 H 8.0345174 Z"
       id="path885"
       inkscape:connector-curvature="0" />
    <path
       style="color:#000000;display:inline;overflow:visible;visibility:visible;fill:#ffffff;fill-opacity:1;fill-rule:nonzero;stroke:none;stroke-width:1.4000001;marker:none;enable-background:accumulate"
       d="M 5.2613442,14.054924 C 4.8113817,13.973724 4.2596826,13.734706 3.8592012,13.447461 3.6410861,13.291018 3.2689859,12.95352 3.2901506,12.931327 c 0.00749,-0.0078 0.097923,-0.0269 0.2009664,-0.04233 1.3008921,-0.194798 2.4444064,-0.49928 3.7318152,-0.993666 0.440292,-0.169079 1.3701286,-0.561753 1.5479285,-0.653697 0.041035,-0.02122 0.08052,-0.03267 0.087748,-0.02544 0.023338,0.02333 -0.5118821,1.074217 -0.6988717,1.372208 -0.3535042,0.56335 -0.7130787,0.997444 -0.9982121,1.205083 -0.2685881,0.19559 -0.7534629,0.303449 -1.3477863,0.299811 -0.1934304,-0.0012 -0.4420078,-0.01845 -0.5523943,-0.03838 v 0 z"
       id="path887"
       inkscape:connector-curvature="0" />
    <path
       style="color:#000000;display:inline;overflow:visible;visibility:visible;fill:#ffffff;fill-opacity:1;fill-rule:nonzero;stroke:none;stroke-width:1.4000001;marker:none;enable-background:accumulate"
       d="M 4.005039,11.506872 C 3.6737653,11.470338 3.573104,11.435773 3.3359788,11.277168 2.4863188,10.708839 1.9666134,9.814938 1.856451,8.7323554 1.8274117,8.4469815 1.8447537,7.9768335 1.8852424,7.9518099 c 0.012421,-0.00768 0.0875,0.046746 0.1668414,0.1209403 0.2178639,0.2037323 0.6803809,0.5813858 1.0737268,0.8767158 0.8882939,0.6669467 1.9310371,1.291821 3.1652234,1.896792 0.2901454,0.142223 0.5201897,0.258908 0.5112093,0.259301 -0.00898,3.83e-4 -0.1615892,0.04071 -0.3391312,0.08959 -0.8847162,0.243584 -1.9039278,0.372837 -2.4580731,0.311723 z"
       id="path889"
       inkscape:connector-curvature="0" />
  </g>
  <g
     id="layer3"
     style="display:none"
     transform="translate(0,-32)">
    <path
       d="m 324.38759,135.62452 c -45.38059,3.2742 -125.14974,80.45343 -113.93317,80.06244 92.77726,-3.23392 150.72813,2.10512 223.11793,24.5811 10.71863,3.32799 -11.56647,-97.10992 -109.18476,-104.64354 z"
       id="path2544"
       style="display:inline;fill:#dbdbdb;fill-opacity:1;fill-rule:nonzero;stroke:none;stroke-width:25;marker-mid:none;filter:url(#filter3985);enable-background:new"
       inkscape:connector-curvature="0" />
    <path
       d="M 186.37822,72.150309 C 160.57833,109.62675 157.33905,256.29261 163.99898,247.2588 218.88951,172.80293 350.45207,80.852043 428.9148,43.825512 525.90264,-1.943011 243.81268,3.6410539 186.37822,72.150309 Z"
       id="path2546"
       style="display:inline;fill:#dbdbdb;fill-opacity:1;fill-rule:nonzero;stroke:#000000;stroke-width:0;stroke-linecap:butt;stroke-linejoin:round;stroke-miterlimit:4;stroke-dasharray:none;stroke-dashoffset:1;stroke-opacity:1;marker-mid:none;filter:url(#filter3989);enable-background:new"
       inkscape:connector-curvature="0" />
    <path
       d="M 69.5521,231.67976 C 84.41923,274.68075 179.56014,331.84683 176.28962,321.11052 149.23774,232.30583 139.45061,174.93843 142.49683,99.2009 142.94789,87.986573 51.65499,135.42084 69.5521,231.67976 Z"
       id="path2548"
       style="display:inline;fill:#dbdbdb;fill-opacity:1;fill-rule:nonzero;stroke:none;stroke-width:25;marker-mid:none;filter:url(#filter3993);enable-background:new"
       inkscape:connector-curvature="0" />
    <path
       d="m 81.97729,372.8505 c 42.13653,17.1648 147.83895,-16.69886 137.60948,-21.31646 -84.61255,-38.1942 -134.204,-68.649 -189.1504,-120.86343 -8.1358,-7.73129 -32.64264,92.18775 51.54092,142.17989 z"
       id="path2550"
       style="display:inline;fill:#dbdbdb;fill-opacity:1;fill-rule:nonzero;stroke:none;stroke-width:25;marker-mid:none;filter:url(#filter3997);enable-background:new"
       inkscape:connector-curvature="0" />
    <path
       d="m 203.88504,453.62703 c 40.28664,-21.14484 82.54559,-123.77977 72.42084,-118.93689 -83.74641,40.05772 -138.99861,58.33341 -214.33707,66.67436 -11.15521,1.23503 49.42757,84.38627 141.91623,52.26253 z"
       id="path2552"
       style="display:inline;fill:#dbdbdb;fill-opacity:1;fill-rule:nonzero;stroke:none;stroke-width:25;marker-mid:none;filter:url(#filter4001);enable-background:new"
       inkscape:connector-curvature="0" />
    <path
       d="m 345.96158,410.03296 c 9.84126,-44.42146 -41.30053,-142.93171 -44.13379,-132.07183 -23.43513,89.82691 -45.12493,143.83025 -87.36533,206.76832 -6.25446,9.31914 96.3617,16.68976 131.49912,-74.69649 z"
       id="path2554"
       style="display:inline;fill:#dbdbdb;fill-opacity:1;fill-rule:nonzero;stroke:none;stroke-width:25;marker-mid:none;filter:url(#filter4005);enable-background:new"
       inkscape:connector-curvature="0" />
    <path
       d="M 401.89383,270.24178 C 374.5208,233.89852 266.4087,208.76833 272.82303,217.97814 c 53.05584,76.17847 80.01415,127.7542 100.41172,200.75689 3.02024,10.80938 75.29683,-62.40604 28.65908,-148.49325 z"
       id="path2556"
       style="display:inline;fill:#dbdbdb;fill-opacity:1;fill-rule:nonzero;stroke:none;stroke-width:25;marker-mid:none;filter:url(#filter4009);enable-background:new"
       inkscape:connector-curvature="0" />
  </g>
  <g
     id="g67">
    <path
       inkscape:connector-curvature="0"
       id="path4054"
       d="M 5.3738457,9.2886076 C 4.3662515,8.6067586 3.5872472,7.8499837 3.3783731,7.3500772 3.2817807,7.1188986 3.2556147,6.4827194 3.3249716,6.051707 3.4615393,5.2030181 3.9955622,4.3503296 4.7114224,3.8379252 c 0.070732,-0.050629 0.1339179,-0.092053 0.1404122,-0.092053 0.0065,0 0.01938,0.29674 0.028634,0.6594217 0.039588,1.5516051 0.2261047,2.7660009 0.6958266,4.5304876 0.083331,0.3130295 0.1482371,0.5721506 0.1442361,0.5758263 -0.00401,0.00364 -0.1600092,-0.096675 -0.3466856,-0.2230002 z"
       style="color:#000000;display:inline;overflow:visible;visibility:visible;fill:#000000;fill-opacity:1;stroke:none;stroke-width:1.4000001;marker:none;enable-background:accumulate" />
    <path
       inkscape:connector-curvature="0"
       id="path4056"
       d="M 6.187105,6.6975685 C 6.1955715,6.5594038 6.2090011,6.3107078 6.2169481,6.1449104 6.2564337,5.3212596 6.4062132,4.1899646 6.5574859,3.5728009 6.7163944,2.9244853 6.83457,2.6781584 7.0917407,2.459192 7.8961814,1.7742562 9.6447603,1.2544189 11.855294,1.0430284 c 0.744342,-0.07118 2.054443,-0.050537 2.288538,0.03606 0.04447,0.016451 -0.0058,0.049486 -0.29475,0.1935942 C 12.420273,1.9853275 10.932562,2.9184114 9.4311352,4.0435929 8.2628967,4.9190813 7.2898057,5.771285 6.457459,6.6478485 L 6.171711,6.9487766 6.187103,6.6975683 Z"
       style="color:#000000;display:inline;overflow:visible;visibility:visible;fill:#000000;fill-opacity:1;fill-rule:nonzero;stroke:none;stroke-width:1.4000001;marker:none;enable-background:accumulate" />
    <path
       inkscape:connector-curvature="0"
       id="path4058"
       d="M 13.714237,7.0974037 C 13.523687,7.0360162 12.768696,6.8617416 12.357713,6.784277 11.362569,6.5967072 10.403115,6.5105471 9.0549082,6.487681 L 8.0997329,6.4714804 8.3974667,6.2077116 C 9.1319908,5.5569815 9.9641853,5.021251 10.517918,4.8426588 c 0.272103,-0.087759 0.346747,-0.096337 0.573215,-0.065866 0.438356,0.05898 0.912636,0.2211638 1.277392,0.4368136 0.655168,0.3873463 1.208572,1.0505867 1.494977,1.7916913 0.05885,0.1522703 0.05152,0.1567903 -0.149265,0.092106 z"
       style="color:#000000;display:inline;overflow:visible;visibility:visible;fill:#000000;fill-opacity:1;fill-rule:nonzero;stroke:none;stroke-width:1.4000001;marker:none;enable-background:accumulate" />
    <path
       inkscape:connector-curvature="0"
       id="path4060"
       d="M 12.559507,12.456517 C 12.540927,12.383977 12.453784,12.121213 12.365866,11.872589 11.893247,10.536057 11.27993,9.3197464 10.36094,7.8964742 10.176044,7.6101202 10.038156,7.3727524 10.054522,7.3689899 c 0.04469,-0.010276 0.765126,0.2054472 1.122511,0.3361141 0.400151,0.1463027 1.115938,0.4964518 1.343965,0.6574413 0.323816,0.2286187 0.439723,0.3508037 0.54427,0.5737558 0.228225,0.4867051 0.33221,0.9467389 0.3315,1.4665889 -8.4e-4,0.623865 -0.176783,1.250494 -0.502873,1.791126 -0.108768,0.18033 -0.263774,0.394385 -0.285587,0.394385 -0.0082,0 -0.03022,-0.05935 -0.0488,-0.131884 v 0 z"
       style="color:#000000;display:inline;overflow:visible;visibility:visible;fill:#000000;fill-opacity:1;fill-rule:nonzero;stroke:none;stroke-width:1.4000001;marker:none;enable-background:accumulate" />
    <path
       inkscape:connector-curvature="0"
       id="path4062"
       d="m 8.1077522,14.893237 c 0.1128203,-0.164475 0.501419,-0.844416 0.7151389,-1.251299 0.477666,-0.909391 0.9271392,-2.054945 1.3103079,-3.339532 0.09273,-0.31087 0.177754,-0.5934784 0.18895,-0.62802 0.01833,-0.056532 0.03164,-0.03899 0.133407,0.175845 0.509942,1.076455 0.808671,2.153452 0.762742,2.749895 -0.01347,0.175048 -0.03247,0.23487 -0.151467,0.477296 -0.240932,0.490813 -0.627181,0.957486 -1.041327,1.258155 C 9.7963953,14.501908 9.3964627,14.705821 9.0950756,14.80997 8.8144288,14.90695 8.3550719,15 8.1569348,15 H 8.0345174 Z"
       style="color:#000000;display:inline;overflow:visible;visibility:visible;fill:#000000;fill-opacity:1;fill-rule:nonzero;stroke:none;stroke-width:1.4000001;marker:none;enable-background:accumulate" />
    <path
       inkscape:connector-curvature="0"
       id="path4064"
       d="M 5.2613442,14.054924 C 4.8113817,13.973724 4.2596826,13.734706 3.8592012,13.447461 3.6410861,13.291018 3.2689859,12.95352 3.2901506,12.931327 c 0.00749,-0.0078 0.097923,-0.0269 0.2009664,-0.04233 1.3008921,-0.194798 2.4444064,-0.49928 3.7318152,-0.993666 0.440292,-0.169079 1.3701286,-0.561753 1.5479285,-0.653697 0.041035,-0.02122 0.08052,-0.03267 0.087748,-0.02544 0.023338,0.02333 -0.5118821,1.074217 -0.6988717,1.372208 -0.3535042,0.56335 -0.7130787,0.997444 -0.9982121,1.205083 -0.2685881,0.19559 -0.7534629,0.303449 -1.3477863,0.299811 -0.1934304,-0.0012 -0.4420078,-0.01845 -0.5523943,-0.03838 v 0 z"
       style="color:#000000;display:inline;overflow:visible;visibility:visible;fill:#000000;fill-opacity:1;fill-rule:nonzero;stroke:none;stroke-width:1.4000001;marker:none;enable-background:accumulate" />
    <path
       inkscape:connector-curvature="0"
       id="path4066"
       d="M 4.005039,11.506872 C 3.6737653,11.470338 3.573104,11.435773 3.3359788,11.277168 2.4863188,10.708839 1.9666134,9.814938 1.856451,8.7323554 1.8274117,8.4469815 1.8447537,7.9768335 1.8852424,7.9518099 c 0.012421,-0.00768 0.0875,0.046746 0.1668414,0.1209403 0.2178639,0.2037323 0.6803809,0.5813858 1.0737268,0.8767158 0.8882939,0.6669467 1.9310371,1.291821 3.1652234,1.896792 0.2901454,0.142223 0.5201897,0.258908 0.5112093,0.259301 -0.00898,3.83e-4 -0.1615892,0.04071 -0.3391312,0.08959 -0.8847162,0.243584 -1.9039278,0.372837 -2.4580731,0.311723 z"
       style="color:#000000;display:inline;overflow:visible;visibility:visible;fill:#000000;fill-opacity:1;fill-rule:nonzero;stroke:none;stroke-width:1.4000001;marker:none;enable-background:accumulate" />
  </g>
</svg>
