<?xml version="1.0" encoding="UTF-8" standalone="no"?>
<!-- Generator: Adobe Illustrator 14.0.0, SVG Export Plug-In . SVG Version: 6.00 Build 43363)  -->

<svg
   xmlns:dc="http://purl.org/dc/elements/1.1/"
   xmlns:cc="http://creativecommons.org/ns#"
   xmlns:rdf="http://www.w3.org/1999/02/22-rdf-syntax-ns#"
   xmlns:svg="http://www.w3.org/2000/svg"
   xmlns="http://www.w3.org/2000/svg"
   xmlns:xlink="http://www.w3.org/1999/xlink"
   xmlns:sodipodi="http://sodipodi.sourceforge.net/DTD/sodipodi-0.dtd"
   xmlns:inkscape="http://www.inkscape.org/namespaces/inkscape"
   version="1.1"
   id="katman_1"
   x="0px"
   y="0px"
   width="128"
   height="128"
   viewBox="0 0 128 128"
   enable-background="new 0 0 342 322"
   xml:space="preserve"
   inkscape:version="0.48.4 r9939"
   sodipodi:docname="gimp.svg"><metadata
     id="metadata32"><rdf:RDF><cc:Work
         rdf:about=""><dc:format>image/svg+xml</dc:format><dc:type
           rdf:resource="http://purl.org/dc/dcmitype/StillImage" /><dc:title /></cc:Work></rdf:RDF></metadata><defs
     id="defs30"><linearGradient
       spreadMethod="pad"
       gradientTransform="matrix(0.37605038,0,0,0.37605038,-0.3145805,3.4510017)"
       y2="258.07501"
       x2="179.0625"
       y1="82.3591"
       x1="179.0625"
       gradientUnits="userSpaceOnUse"
       id="linearGradient4216"><stop
         id="stop4218"
         style="stop-color:#0868c9;stop-opacity:1"
         offset="0" /><stop
         id="stop4220"
         style="stop-color:#053870;stop-opacity:1"
         offset="1" /></linearGradient><linearGradient
       inkscape:collect="always"
       id="linearGradient4187"><stop
         style="stop-color:#096bce;stop-opacity:1"
         offset="0"
         id="stop4189" /><stop
         style="stop-color:#065db6;stop-opacity:1"
         offset="1"
         id="stop4191" /></linearGradient><linearGradient
       inkscape:collect="always"
       xlink:href="#SVGID_2_"
       id="linearGradient4285"
       x1="4.4999084"
       y1="117.99252"
       x2="4.4999084"
       y2="-0.00052741636"
       gradientUnits="userSpaceOnUse"
       gradientTransform="translate(4,3)" /><radialGradient
       inkscape:collect="always"
       xlink:href="#SVGID_1_"
       id="radialGradient4308"
       gradientUnits="userSpaceOnUse"
       gradientTransform="matrix(0,2.5125648,-6.00466,0,216.48869,-157.32078)"
       cx="67.187767"
       cy="30.513025"
       fx="67.187767"
       fy="30.513025"
       r="60.978073" /><radialGradient
       inkscape:collect="always"
       xlink:href="#linearGradient4187"
       id="radialGradient4312"
       gradientUnits="userSpaceOnUse"
       gradientTransform="matrix(0,0.99118425,-1.3081228,0,33.637616,-27.209764)"
       cx="30.727684"
       cy="-1.3324316"
       fx="30.727684"
       fy="-1.3324316"
       r="60.977886" /><linearGradient
       inkscape:collect="always"
       xlink:href="#SVGID_3_"
       id="linearGradient4186"
       x1="68.5"
       y1="29.500002"
       x2="68.5"
       y2="97.5"
       gradientUnits="userSpaceOnUse" /><radialGradient
       inkscape:collect="always"
       xlink:href="#linearGradient4187"
       id="radialGradient3060"
       gradientUnits="userSpaceOnUse"
       gradientTransform="matrix(0,0.99118425,-1.3081228,0,33.637616,-27.209764)"
       cx="30.727684"
       cy="-1.3324316"
       fx="30.727684"
       fy="-1.3324316"
       r="60.977886" /><linearGradient
       inkscape:collect="always"
       xlink:href="#SVGID_2_"
       id="linearGradient3062"
       gradientUnits="userSpaceOnUse"
       gradientTransform="translate(4,3)"
       x1="4.4999084"
       y1="117.99252"
       x2="4.4999084"
       y2="-0.00052741636" /><radialGradient
       inkscape:collect="always"
       xlink:href="#SVGID_1_"
       id="radialGradient3064"
       gradientUnits="userSpaceOnUse"
       gradientTransform="matrix(0,2.5125648,-6.00466,0,216.48869,-157.32078)"
       cx="67.187767"
       cy="30.513025"
       fx="67.187767"
       fy="30.513025"
       r="60.978073" /><linearGradient
       inkscape:collect="always"
       xlink:href="#SVGID_3_"
       id="linearGradient3066"
       gradientUnits="userSpaceOnUse"
       x1="68.5"
       y1="29.500002"
       x2="68.5"
       y2="97.5" /><linearGradient
       inkscape:collect="always"
       xlink:href="#SVGID_3_"
       id="linearGradient3068"
       gradientUnits="userSpaceOnUse"
       x1="68.5"
       y1="29.500002"
       x2="68.5"
       y2="97.5" /><linearGradient
       inkscape:collect="always"
       xlink:href="#SVGID_3_"
       id="linearGradient3070"
       gradientUnits="userSpaceOnUse"
       x1="68.5"
       y1="29.500002"
       x2="68.5"
       y2="97.5" /><radialGradient
       inkscape:collect="always"
       xlink:href="#SVGID_1_"
       id="radialGradient3080"
       gradientUnits="userSpaceOnUse"
       gradientTransform="matrix(0,2.5125648,-6.00466,0,348.48869,-157.32078)"
       cx="67.187767"
       cy="30.513025"
       fx="67.187767"
       fy="30.513025"
       r="60.978073" /><linearGradient
       inkscape:collect="always"
       xlink:href="#SVGID_2_"
       id="linearGradient3083"
       gradientUnits="userSpaceOnUse"
       gradientTransform="translate(136,3)"
       x1="4.4999084"
       y1="117.99252"
       x2="4.4999084"
       y2="-0.00052741636" /><radialGradient
       inkscape:collect="always"
       xlink:href="#linearGradient4187"
       id="radialGradient3086"
       gradientUnits="userSpaceOnUse"
       gradientTransform="matrix(0,0.99118425,-1.3081228,0,165.63762,-27.209764)"
       cx="30.727684"
       cy="-1.3324316"
       fx="30.727684"
       fy="-1.3324316"
       r="60.977886" /></defs><sodipodi:namedview
     pagecolor="#ffffff"
     bordercolor="#666666"
     borderopacity="1"
     objecttolerance="10"
     gridtolerance="10"
     guidetolerance="10"
     inkscape:pageopacity="0"
     inkscape:pageshadow="2"
     inkscape:window-width="1278"
     inkscape:window-height="931"
     id="namedview28"
     showgrid="false"
     inkscape:zoom="4.1542523"
     inkscape:cx="89.588917"
     inkscape:cy="54.764696"
     inkscape:window-x="0"
     inkscape:window-y="24"
     inkscape:window-maximized="0"
     inkscape:current-layer="katman_1"
     showguides="true"
     inkscape:guide-bbox="true" /><linearGradient
     id="SVGID_1_"
     gradientUnits="userSpaceOnUse"
     x1="179.06351"
     y1="15.9397"
     x2="179.06351"
     y2="321.99579"
     gradientTransform="matrix(0.37605038,0,0,0.37605038,-0.3145805,3.4510017)"><stop
       offset="0"
       style="stop-color:#44d1ff;stop-opacity:1"
       id="stop6" /><stop
       offset="1"
       style="stop-color:#0b65ac;stop-opacity:1"
       id="stop8" /></linearGradient><linearGradient
     id="SVGID_2_"
     gradientUnits="userSpaceOnUse"
     x1="8.8705997"
     y1="322.0256"
     x2="8.8705997"
     y2="0.00073242188"
     gradientTransform="matrix(0.55805473,0,0,0.3656203,-14.466534,0)"><stop
       offset="0"
       style="stop-color:#08659b;stop-opacity:1"
       id="stop13" /><stop
       offset="1"
       style="stop-color:#2793cb;stop-opacity:1"
       id="stop15" /></linearGradient><linearGradient
     id="SVGID_3_"
     gradientUnits="userSpaceOnUse"
     x1="179.0625"
     y1="82.3591"
     x2="179.0625"
     y2="258.07501"
     gradientTransform="matrix(0.37605038,0,0,0.37605038,-0.3145805,3.4510017)"
     spreadMethod="pad"><stop
       offset="0"
       style="stop-color:#0868c9;stop-opacity:1"
       id="stop22" /><stop
       offset="1"
       style="stop-color:#053870;stop-opacity:1"
       id="stop24" /></linearGradient><g
     id="g3874"><g
       id="g3867"><path
         style="opacity:0.02999998;fill:none;stroke:#000000;stroke-width:5;stroke-linejoin:round;stroke-miterlimit:4;stroke-opacity:1;stroke-dasharray:none"
         d="m 4,3.5 0,105 9,8 111,0 0,-105 -9,0 0,-8 -111,0 z"
         id="path3863"
         inkscape:connector-curvature="0" /><path
         inkscape:connector-curvature="0"
         id="path3861"
         d="m 4,3.5 0,105 9,8 111,0 0,-105 -9,0 0,-8 -111,0 z"
         style="opacity:0.02999998;fill:none;stroke:#000000;stroke-width:4;stroke-linejoin:round;stroke-miterlimit:4;stroke-opacity:1;stroke-dasharray:none" /><path
         style="opacity:0.02999998;fill:none;stroke:#000000;stroke-width:3;stroke-linejoin:round;stroke-miterlimit:4;stroke-opacity:1;stroke-dasharray:none"
         d="m 4,3.5 0,105 9,8 111,0 0,-105 -9,0 0,-8 -111,0 z"
         id="path3859"
         inkscape:connector-curvature="0" /><path
         inkscape:connector-curvature="0"
         id="path3857"
         d="m 4,3.5 0,105 9,8 111,0 0,-105 -9,0 0,-8 -111,0 z"
         style="opacity:0.02999998;fill:none;stroke:#000000;stroke-width:2;stroke-linejoin:round;stroke-miterlimit:4;stroke-opacity:1;stroke-dasharray:none" /><path
         style="opacity:0.02999998;fill:none;stroke:#000000;stroke-linejoin:round;stroke-opacity:1"
         d="m 4,3.5 0,105 9,8 111,0 0,-105 -9,0 0,-8 -111,0 z"
         id="rect3040"
         inkscape:connector-curvature="0" /></g><path
       style="opacity:0.02999998;fill:none;stroke:#000000;stroke-linejoin:round;stroke-opacity:1"
       d="m 4,3 0,105 9,8 111,0 0,-105 -9,0 0,-8 L 4,3 z"
       id="path3865"
       inkscape:connector-curvature="0" /></g><g
     id="g3026"><rect
       x="4"
       y="3"
       width="111"
       height="105"
       id="rect4310"
       style="opacity:0.97;fill:url(#radialGradient4312);fill-opacity:1" /><path
       sodipodi:nodetypes="ccccc"
       inkscape:connector-curvature="0"
       id="path4277"
       d="m 4,3 9,8 0,105 -9,-8 z"
       style="fill:url(#linearGradient4285);fill-opacity:1;fill-rule:evenodd;stroke:none" /><path
       style="fill:url(#radialGradient4308);fill-opacity:1"
       d="m 13,11 111,0 0,105 -111,0 z"
       id="rect4306" /><g
       id="text4197"
       style="font-style:normal;font-variant:normal;font-weight:bold;font-stretch:normal;font-size:76.99313354px;line-height:125%;font-family:'Adobe Clean';-inkscape-font-specification:'Adobe Clean Bold';letter-spacing:0px;word-spacing:0px;opacity:0.07999998;fill:#ffffff;fill-opacity:1;stroke:none;stroke-width:1px;stroke-linecap:butt;stroke-linejoin:miter;stroke-opacity:1"><path
         id="path4209"
         style="fill:#ffffff;fill-opacity:1"
         d="m 60.726464,62.144247 0,11.164004 c -1.385877,0.615945 -3.618678,1.23189 -6.698403,1.23189 -12.010929,0 -17.785414,-8.392251 -17.785414,-17.9394 0,-11.54897 6.62141,-18.093386 18.016393,-18.093386 4.850568,0 9.855121,1.23189 13.473799,3.156718 0.307972,0.153987 0.615945,0 0.615945,-0.461959 l 0,-7.006375 c 0,-0.461959 -0.07699,-0.769931 -0.461959,-0.923917 -2.848746,-1.616856 -8.161272,-2.771753 -13.858764,-2.771753 -16.014572,0 -27.332562,10.163094 -27.332562,26.331652 0,13.704777 8.084279,25.484727 26.254658,25.484727 5.928471,0 11.702956,-1.23189 16.553524,-3.387698 0.461959,-0.23098 0.538952,-0.384966 0.538952,-0.846925 l 0,-22.789967 c 0,-0.384966 -0.07699,-0.615945 -0.615945,-0.615945 l -17.323455,0 c -0.307973,0 -0.538952,0.153986 -0.538952,0.461959 l 0,6.082457 c 0,0.461959 0.153986,0.615945 0.615945,0.692938 l 8.546238,0.23098 z" /><path
         id="path4211"
         style="fill:#ffffff;fill-opacity:1"
         d="m 91.672163,43.357922 c -6.467423,0 -12.857853,2.155808 -16.322544,3.310705 -0.230979,0.07699 -0.307973,0.307972 -0.307973,0.461959 0.153987,1.00091 0.307973,3.541684 0.307973,4.465601 l 0,46.42686 c 0,0.307973 0.07699,0.538952 0.538952,0.461959 l 8.161272,-0.769932 c 0.461959,-0.07699 0.538952,-0.307972 0.538952,-0.615945 l 0,-15.090654 c 0.846924,0.153986 1.924828,0.307973 3.387698,0.307973 11.010018,-0.07699 22.328007,-7.160362 22.328007,-20.788146 0,-10.009108 -6.00546,-18.17038 -18.632337,-18.17038 z m -1.00091,7.468334 c 5.774485,0 10.086097,3.618677 10.086097,11.164004 0,8.854211 -5.774482,13.165826 -12.472885,13.165826 -1.308883,0 -2.694759,-0.153986 -3.69567,-0.461958 l 0,-23.020947 c 1.770842,-0.461959 3.464691,-0.846925 6.082458,-0.846925 z" /></g><g
       id="text3376"
       style="font-style:normal;font-variant:normal;font-weight:bold;font-stretch:normal;font-size:76.99313354000000231px;line-height:125%;font-family:Adobe Clean;-inkscape-font-specification:Adobe Clean Bold;letter-spacing:0px;word-spacing:0px;opacity:0.8;fill:url(#linearGradient4186);fill-opacity:1;stroke:none;stroke-width:1px;stroke-linecap:butt;stroke-linejoin:miter;stroke-opacity:1"><path
         id="path4204"
         style="fill:url(#linearGradient4186);fill-opacity:1"
         d="m 60.726464,61.144247 0,11.164004 c -1.385877,0.615945 -3.618678,1.23189 -6.698403,1.23189 -12.010929,0 -17.785414,-8.392251 -17.785414,-17.9394 0,-11.54897 6.62141,-18.093386 18.016393,-18.093386 4.850568,0 9.855121,1.23189 13.473799,3.156718 0.307972,0.153987 0.615945,0 0.615945,-0.461959 l 0,-7.006375 c 0,-0.461959 -0.07699,-0.769931 -0.461959,-0.923917 -2.848746,-1.616856 -8.161272,-2.771753 -13.858764,-2.771753 -16.014572,0 -27.332562,10.163094 -27.332562,26.331652 0,13.704777 8.084279,25.484727 26.254658,25.484727 5.928471,0 11.702956,-1.23189 16.553524,-3.387698 0.461959,-0.23098 0.538952,-0.384966 0.538952,-0.846925 l 0,-22.789967 c 0,-0.384966 -0.07699,-0.615945 -0.615945,-0.615945 l -17.323455,0 c -0.307973,0 -0.538952,0.153986 -0.538952,0.461959 l 0,6.082457 c 0,0.461959 0.153986,0.615945 0.615945,0.692938 l 8.546238,0.23098 z" /><path
         id="path4206"
         style="fill:url(#linearGradient4186);fill-opacity:1"
         d="m 91.672163,42.357922 c -6.467423,0 -12.857853,2.155808 -16.322544,3.310705 -0.230979,0.07699 -0.307973,0.307972 -0.307973,0.461959 0.153987,1.00091 0.307973,3.541684 0.307973,4.465601 l 0,46.42686 c 0,0.307973 0.07699,0.538952 0.538952,0.461959 l 8.161272,-0.769932 c 0.461959,-0.07699 0.538952,-0.307972 0.538952,-0.615945 l 0,-15.090654 c 0.846924,0.153986 1.924828,0.307973 3.387698,0.307973 11.010018,-0.07699 22.328007,-7.160362 22.328007,-20.788146 0,-10.009108 -6.00546,-18.17038 -18.632337,-18.17038 z m -1.00091,7.468334 c 5.774485,0 10.086097,3.618677 10.086097,11.164004 0,8.854211 -5.774482,13.165826 -12.472885,13.165826 -1.308883,0 -2.694759,-0.153986 -3.69567,-0.461958 l 0,-23.020947 c 1.770842,-0.461959 3.464691,-0.846925 6.082458,-0.846925 z" /></g><path
       inkscape:connector-curvature="0"
       id="text4188"
       d="m 54.027344,29.5 c -16.014572,0 -27.332032,10.163473 -27.332032,26.332031 0,0.124896 0.01233,0.246525 0.01367,0.371094 C 27.000929,40.402897 38.22287,30.5 54.027344,30.5 c 5.697492,0 11.010629,1.154629 13.859375,2.771484 0.384965,0.153987 0.46289,0.46187 0.46289,0.923828 l 0,-1 c 0,-0.461958 -0.07793,-0.769841 -0.46289,-0.923828 C 65.037973,30.654629 59.724836,29.5 54.027344,29.5 Z m 37.644531,12.857422 c -6.467423,0 -12.857575,2.15565 -16.322266,3.310547 -0.230979,0.07699 -0.308593,0.308904 -0.308593,0.46289 0.02514,0.163378 0.04585,0.506577 0.07031,0.738282 0.0482,-0.08566 0.123836,-0.163024 0.238281,-0.201172 3.464691,-1.154897 9.854843,-3.310547 16.322266,-3.310547 12.452235,0 18.453255,7.940685 18.617185,17.759766 0.005,-0.196596 0.0156,-0.390445 0.0156,-0.589844 0,-10.009108 -6.00594,-18.169922 -18.632815,-18.169922 z M 52.103516,53.675781 c -0.307973,0 -0.539063,0.154918 -0.539063,0.462891 l 0,1 c 0,-0.307973 0.23109,-0.462891 0.539063,-0.462891 l 17.322265,0 c 0.538952,0 0.617188,0.230269 0.617188,0.615235 l 0,-1 c 0,-0.384966 -0.07824,-0.615235 -0.617188,-0.615235 l -17.322265,0 z m -15.841797,2.416016 c -0.003,0.172314 -0.01953,0.335158 -0.01953,0.509765 0,9.547149 5.774227,17.939454 17.785156,17.939454 3.079725,0 5.313342,-0.616477 6.699218,-1.232422 l 0,-1 c -1.385876,0.615945 -3.619493,1.232422 -6.699218,1.232422 -11.803406,0 -17.569396,-8.108367 -17.765625,-17.449219 z m 64.476561,5.371094 c -0.20674,8.527667 -5.877824,12.693359 -12.453124,12.693359 -1.308883,0 -2.696355,-0.154918 -3.697265,-0.462891 l 0,1 c 1.00091,0.307973 2.388382,0.462891 3.697265,0.462891 6.698403,0 12.472654,-4.311805 12.472654,-13.166016 0,-0.181636 -0.0146,-0.350254 -0.0195,-0.527343 z"
       style="font-style:normal;font-variant:normal;font-weight:bold;font-stretch:normal;font-size:76.99313354000000231px;line-height:125%;font-family:Adobe Clean;-inkscape-font-specification:Adobe Clean Bold;letter-spacing:0px;word-spacing:0px;opacity:0.58;fill:#000000;fill-opacity:1;stroke:none;stroke-width:1px;stroke-linecap:butt;stroke-linejoin:miter;stroke-opacity:1" /></g></svg>