<?xml version="1.0" encoding="UTF-8" standalone="no"?>
<!-- Created with Inkscape (http://www.inkscape.org/) -->

<svg
   xmlns:dc="http://purl.org/dc/elements/1.1/"
   xmlns:cc="http://creativecommons.org/ns#"
   xmlns:rdf="http://www.w3.org/1999/02/22-rdf-syntax-ns#"
   xmlns:svg="http://www.w3.org/2000/svg"
   xmlns="http://www.w3.org/2000/svg"
   xmlns:xlink="http://www.w3.org/1999/xlink"
   xmlns:sodipodi="http://sodipodi.sourceforge.net/DTD/sodipodi-0.dtd"
   xmlns:inkscape="http://www.inkscape.org/namespaces/inkscape"
   width="128"
   height="128"
   id="svg2"
   version="1.1"
   inkscape:version="0.92.1 r15371"
   sodipodi:docname="vmware-workstation.svg">
  <defs
     id="defs4">
    <linearGradient
       id="linearGradient4757">
      <stop
         style="stop-color:#b1b1b2;stop-opacity:1"
         offset="0"
         id="stop4759" />
      <stop
         id="stop4254"
         offset="0.27500001"
         style="stop-color:#e6e6e8;stop-opacity:1;" />
      <stop
         style="stop-color:#e6e6e8;stop-opacity:1;"
         offset="0.72500002"
         id="stop4256" />
      <stop
         style="stop-color:#a0a0a2;stop-opacity:1"
         offset="1"
         id="stop4761" />
    </linearGradient>
    <linearGradient
       id="linearGradient4560">
      <stop
         id="stop4562"
         offset="0"
         style="stop-color:#bfc0c4;stop-opacity:1" />
      <stop
         style="stop-color:#a5a5a8;stop-opacity:1"
         offset="0.25013667"
         id="stop4566" />
      <stop
         id="stop4235"
         offset="0.43514535"
         style="stop-color:#dadbdb;stop-opacity:1;" />
      <stop
         id="stop4564"
         offset="1"
         style="stop-color:#8c8d91;stop-opacity:1" />
    </linearGradient>
    <linearGradient
       id="linearGradient3070">
      <stop
         id="stop3072"
         offset="0"
         style="stop-color:#9c9ea1;stop-opacity:1;" />
      <stop
         style="stop-color:#e7e7e9;stop-opacity:1"
         offset="1"
         id="stop4300" />
    </linearGradient>
    <linearGradient
       inkscape:collect="always"
       id="linearGradient4310">
      <stop
         style="stop-color:#1c7af2;stop-opacity:1"
         offset="0"
         id="stop4312" />
      <stop
         style="stop-color:#1bd4fa;stop-opacity:1"
         offset="1"
         id="stop4314" />
    </linearGradient>
    <linearGradient
       inkscape:collect="always"
       xlink:href="#linearGradient4757"
       id="linearGradient3373"
       gradientUnits="userSpaceOnUse"
       gradientTransform="matrix(1.358408,0,0,1.358408,-1.2035862,-375.62518)"
       x1="33.046661"
       y1="1045.1122"
       x2="62.949478"
       y2="1045.1122" />
    <linearGradient
       inkscape:collect="always"
       xlink:href="#linearGradient4560"
       id="linearGradient3376"
       gradientUnits="userSpaceOnUse"
       gradientTransform="matrix(1.7423241,0,0,1.7423241,-19.631566,-762.31044)"
       x1="47.357555"
       y1="1036.3221"
       x2="47.357555"
       y2="1028.6837" />
    <linearGradient
       inkscape:collect="always"
       xlink:href="#linearGradient4310"
       id="linearGradient3465"
       gradientUnits="userSpaceOnUse"
       gradientTransform="matrix(1.4945055,0,0,1.4304635,506.1246,-4.6622493)"
       x1="-989.953"
       y1="85.748726"
       x2="-989.953"
       y2="10.249388" />
    <linearGradient
       inkscape:collect="always"
       xlink:href="#linearGradient3070"
       id="linearGradient4251"
       gradientUnits="userSpaceOnUse"
       gradientTransform="matrix(1.4959035,0,0,1.4285714,-1066.934,-1370.8032)"
       x1="29.407114"
       y1="962.36304"
       x2="29.407114"
       y2="1046.3878" />
    <clipPath
       clipPathUnits="userSpaceOnUse"
       id="clipPath4325">
      <rect
         style="fill:url(#linearGradient4329);fill-opacity:1;stroke:none"
         id="rect4327"
         width="95.72834"
         height="120"
         x="-1025.0398"
         y="4.0000043"
         rx="4.4156322"
         ry="4.6534958" />
    </clipPath>
    <linearGradient
       inkscape:collect="always"
       xlink:href="#linearGradient3070"
       id="linearGradient4329"
       gradientUnits="userSpaceOnUse"
       gradientTransform="matrix(1.4916704,0,0,1.4285714,-1063.5608,-1370.8032)"
       x1="29.407114"
       y1="962.36304"
       x2="29.407114"
       y2="1046.3878" />
    <linearGradient
       id="SVGID_1_"
       gradientUnits="userSpaceOnUse"
       x1="-890.18903"
       y1="594.69043"
       x2="-909.90399"
       y2="594.69043"
       gradientTransform="matrix(0,-1.15,1.1667,0,-663.3176,-1008.7126)">
      <stop
         offset="0"
         style="stop-color:#FFFFFF"
         id="stop41" />
      <stop
         offset="1"
         style="stop-color:#FFFFFF;stop-opacity:0"
         id="stop43" />
    </linearGradient>
    <linearGradient
       y2="594.69043"
       x2="-908.88177"
       y1="594.69043"
       x1="-880.18097"
       gradientTransform="matrix(0,-1.15,1.1667,0,-663.3176,-1008.7126)"
       gradientUnits="userSpaceOnUse"
       id="linearGradient3051"
       xlink:href="#SVGID_1_"
       inkscape:collect="always" />
    <clipPath
       clipPathUnits="userSpaceOnUse"
       id="clipPath4387">
      <rect
         ry="1.9199212"
         rx="1.8269542"
         y="-2.0091324"
         x="-43.101284"
         height="49.509132"
         width="39.607304"
         id="rect4389"
         style="fill:url(#linearGradient4391);fill-opacity:1;stroke:none"
         transform="matrix(0,-1,1,0,0,0)" />
    </clipPath>
    <linearGradient
       inkscape:collect="always"
       xlink:href="#linearGradient3070"
       id="linearGradient4391"
       gradientUnits="userSpaceOnUse"
       gradientTransform="matrix(0.61717402,0,0,0.58939441,-59.039268,-569.22007)"
       x1="29.407114"
       y1="962.36304"
       x2="29.407114"
       y2="1046.3878" />
  </defs>
  <sodipodi:namedview
     id="base"
     pagecolor="#ffffff"
     bordercolor="#666666"
     borderopacity="1.0"
     inkscape:pageopacity="0.0"
     inkscape:pageshadow="2"
     inkscape:zoom="2.8284271"
     inkscape:cx="22.716294"
     inkscape:cy="88.239218"
     inkscape:document-units="px"
     inkscape:current-layer="layer1"
     showgrid="false"
     inkscape:window-width="1366"
     inkscape:window-height="724"
     inkscape:window-x="0"
     inkscape:window-y="22"
     inkscape:window-maximized="1"
     showguides="true"
     inkscape:guide-bbox="true"
     inkscape:showpageshadow="true"
     borderlayer="true" />
  <metadata
     id="metadata7">
    <rdf:RDF>
      <cc:Work
         rdf:about="">
        <dc:format>image/svg+xml</dc:format>
        <dc:type
           rdf:resource="http://purl.org/dc/dcmitype/StillImage" />
        <dc:title />
      </cc:Work>
    </rdf:RDF>
  </metadata>
  <g
     inkscape:label="Layer 1"
     inkscape:groupmode="layer"
     id="layer1"
     transform="translate(0,-924.36218)">
    <g
       id="g4277">
      <g
         transform="translate(0,0.5)"
         id="g4268">
        <path
           sodipodi:nodetypes="cccscssccsscsccccccc"
           id="path4266"
           d="m 49.765339,1025.843 c -0.09234,2.9827 -0.287448,8.0687 -1.075344,11.3339 -0.926778,3.8404 -4.684865,3.1794 -4.971739,5.487 -0.01046,0.048 -0.02718,0.092 -0.02718,0.1429 l 0,0.1359 0,0.7419 c 0,0.4072 0.327871,0.7351 0.735054,0.7351 l 6.625587,0 25.896649,0 6.625606,0 c 0.407163,0 0.735034,-0.3279 0.735034,-0.7351 l 0,-0.7419 0,-0.1359 c 0,-0.05 -0.01743,-0.094 -0.02718,-0.1429 -0.286874,-2.3076 -4.041564,-1.6466 -4.968342,-5.487 -0.787895,-3.2652 -0.986346,-8.3512 -1.078741,-11.3339 l -1.286341,0 -24.460593,0 -2.722381,0 z"
           style="opacity:0.02999998;fill:none;stroke:#000000;stroke-width:5;stroke-linejoin:round;stroke-miterlimit:4;stroke-opacity:1;stroke-dasharray:none"
           inkscape:connector-curvature="0" />
        <path
           inkscape:connector-curvature="0"
           style="opacity:0.02999998;fill:none;stroke:#000000;stroke-width:4;stroke-linejoin:round;stroke-miterlimit:4;stroke-opacity:1;stroke-dasharray:none"
           d="m 49.765339,1025.843 c -0.09234,2.9827 -0.287448,8.0687 -1.075344,11.3339 -0.926778,3.8404 -4.684865,3.1794 -4.971739,5.487 -0.01046,0.048 -0.02718,0.092 -0.02718,0.1429 l 0,0.1359 0,0.7419 c 0,0.4072 0.327871,0.7351 0.735054,0.7351 l 6.625587,0 25.896649,0 6.625606,0 c 0.407163,0 0.735034,-0.3279 0.735034,-0.7351 l 0,-0.7419 0,-0.1359 c 0,-0.05 -0.01743,-0.094 -0.02718,-0.1429 -0.286874,-2.3076 -4.041564,-1.6466 -4.968342,-5.487 -0.787895,-3.2652 -0.986346,-8.3512 -1.078741,-11.3339 l -1.286341,0 -24.460593,0 -2.722381,0 z"
           id="path4264"
           sodipodi:nodetypes="cccscssccsscsccccccc" />
        <path
           sodipodi:nodetypes="cccscssccsscsccccccc"
           id="path4262"
           d="m 49.765339,1025.843 c -0.09234,2.9827 -0.287448,8.0687 -1.075344,11.3339 -0.926778,3.8404 -4.684865,3.1794 -4.971739,5.487 -0.01046,0.048 -0.02718,0.092 -0.02718,0.1429 l 0,0.1359 0,0.7419 c 0,0.4072 0.327871,0.7351 0.735054,0.7351 l 6.625587,0 25.896649,0 6.625606,0 c 0.407163,0 0.735034,-0.3279 0.735034,-0.7351 l 0,-0.7419 0,-0.1359 c 0,-0.05 -0.01743,-0.094 -0.02718,-0.1429 -0.286874,-2.3076 -4.041564,-1.6466 -4.968342,-5.487 -0.787895,-3.2652 -0.986346,-8.3512 -1.078741,-11.3339 l -1.286341,0 -24.460593,0 -2.722381,0 z"
           style="opacity:0.02999998;fill:none;stroke:#000000;stroke-width:3;stroke-linejoin:round;stroke-miterlimit:4;stroke-opacity:1;stroke-dasharray:none"
           inkscape:connector-curvature="0" />
        <path
           inkscape:connector-curvature="0"
           style="opacity:0.02999998;fill:none;stroke:#000000;stroke-width:2;stroke-linejoin:round;stroke-miterlimit:4;stroke-opacity:1;stroke-dasharray:none"
           d="m 49.765339,1025.843 c -0.09234,2.9827 -0.287448,8.0687 -1.075344,11.3339 -0.926778,3.8404 -4.684865,3.1794 -4.971739,5.487 -0.01046,0.048 -0.02718,0.092 -0.02718,0.1429 l 0,0.1359 0,0.7419 c 0,0.4072 0.327871,0.7351 0.735054,0.7351 l 6.625587,0 25.896649,0 6.625606,0 c 0.407163,0 0.735034,-0.3279 0.735034,-0.7351 l 0,-0.7419 0,-0.1359 c 0,-0.05 -0.01743,-0.094 -0.02718,-0.1429 -0.286874,-2.3076 -4.041564,-1.6466 -4.968342,-5.487 -0.787895,-3.2652 -0.986346,-8.3512 -1.078741,-11.3339 l -1.286341,0 -24.460593,0 -2.722381,0 z"
           id="path4260"
           sodipodi:nodetypes="cccscssccsscsccccccc" />
        <path
           sodipodi:nodetypes="cccscssccsscsccccccc"
           id="path4258"
           d="m 49.765339,1025.843 c -0.09234,2.9827 -0.287448,8.0687 -1.075344,11.3339 -0.926778,3.8404 -4.684865,3.1794 -4.971739,5.487 -0.01046,0.048 -0.02718,0.092 -0.02718,0.1429 l 0,0.1359 0,0.7419 c 0,0.4072 0.327871,0.7351 0.735054,0.7351 l 6.625587,0 25.896649,0 6.625606,0 c 0.407163,0 0.735034,-0.3279 0.735034,-0.7351 l 0,-0.7419 0,-0.1359 c 0,-0.05 -0.01743,-0.094 -0.02718,-0.1429 -0.286874,-2.3076 -4.041564,-1.6466 -4.968342,-5.487 -0.787895,-3.2652 -0.986346,-8.3512 -1.078741,-11.3339 l -1.286341,0 -24.460593,0 -2.722381,0 z"
           style="opacity:0.02999998;fill:none;stroke:#000000;stroke-linejoin:round;stroke-opacity:1"
           inkscape:connector-curvature="0" />
      </g>
      <path
         inkscape:connector-curvature="0"
         style="fill:none;fill-opacity:1;stroke:#000000;stroke-opacity:1;opacity:0.03000000000000000;stroke-linejoin:round"
         d="m 49.765339,1025.843 c -0.09234,2.9827 -0.287448,8.0687 -1.075344,11.3339 -0.926778,3.8404 -4.684865,3.1794 -4.971739,5.487 -0.01046,0.048 -0.02718,0.092 -0.02718,0.1429 l 0,0.1359 0,0.7419 c 0,0.4072 0.327871,0.7351 0.735054,0.7351 l 6.625587,0 25.896649,0 6.625606,0 c 0.407163,0 0.735034,-0.3279 0.735034,-0.7351 l 0,-0.7419 0,-0.1359 c 0,-0.05 -0.01743,-0.094 -0.02718,-0.1429 -0.286874,-2.3076 -4.041564,-1.6466 -4.968342,-5.487 -0.787895,-3.2652 -0.986346,-8.3512 -1.078741,-11.3339 l -1.286341,0 -24.460593,0 -2.722381,0 z"
         id="path4275"
         sodipodi:nodetypes="cccscssccsscsccccccc" />
    </g>
    <path
       inkscape:connector-curvature="0"
       style="fill:url(#linearGradient3376);fill-opacity:1;stroke:none"
       d="m 49.765339,1025.843 c -0.09234,2.9827 -0.287448,8.0687 -1.075344,11.3339 -0.926778,3.8404 -4.684865,3.1794 -4.971739,5.487 -0.01046,0.048 -0.02718,0.092 -0.02718,0.1429 l 0,0.1359 0,0.7419 c 0,0.4072 0.327871,0.7351 0.735054,0.7351 l 6.625587,0 25.896649,0 6.625606,0 c 0.407163,0 0.735034,-0.3279 0.735034,-0.7351 l 0,-0.7419 0,-0.1359 c 0,-0.05 -0.01743,-0.094 -0.02718,-0.1429 -0.286874,-2.3076 -4.041564,-1.6466 -4.968342,-5.487 -0.787895,-3.2652 -0.986346,-8.3512 -1.078741,-11.3339 l -1.286341,0 -24.460593,0 -2.722381,0 z"
       id="rect4523"
       sodipodi:nodetypes="cccscssccsscsccccccc" />
    <path
       inkscape:connector-curvature="0"
       style="fill:url(#linearGradient3373);fill-opacity:1;stroke:none"
       d="m 43.708046,1042.7218 c -0.0035,0.03 -0.01743,0.054 -0.01743,0.086 l 0,0.8779 c 0,0.4071 0.32787,0.7351 0.735052,0.7351 l 39.147845,0 c 0.407165,0 0.735034,-0.328 0.735034,-0.7351 l 0,-0.8779 c 0,-0.03 -0.01394,-0.056 -0.01743,-0.086 -0.04464,0.363 -0.341565,0.6466 -0.71721,0.6466 l -39.147845,0 c -0.375663,0 -0.672591,-0.2836 -0.71803,-0.6466 z"
       id="rect4538" />
    <g
       id="g4305">
      <g
         transform="translate(0,0.5)"
         id="g4296">
        <rect
           transform="matrix(0,-1,1,0,0,0)"
           style="opacity:0.02999998;fill:none;stroke:#000000;stroke-width:5;stroke-linejoin:round;stroke-miterlimit:4;stroke-opacity:1;stroke-dasharray:none"
           id="rect4294"
           width="96"
           height="120"
           x="-1028.3036"
           y="4"
           rx="4.4281631"
           ry="4.6534958" />
        <rect
           ry="4.6534958"
           rx="4.4281631"
           y="4"
           x="-1028.3036"
           height="120"
           width="96"
           id="rect4292"
           style="opacity:0.02999998;fill:none;stroke:#000000;stroke-width:4;stroke-linejoin:round;stroke-miterlimit:4;stroke-opacity:1;stroke-dasharray:none"
           transform="matrix(0,-1,1,0,0,0)" />
        <rect
           transform="matrix(0,-1,1,0,0,0)"
           style="opacity:0.02999998;fill:none;stroke:#000000;stroke-width:3;stroke-linejoin:round;stroke-miterlimit:4;stroke-opacity:1;stroke-dasharray:none"
           id="rect4290"
           width="96"
           height="120"
           x="-1028.3036"
           y="4"
           rx="4.4281631"
           ry="4.6534958" />
        <rect
           ry="4.6534958"
           rx="4.4281631"
           y="4"
           x="-1028.3036"
           height="120"
           width="96"
           id="rect4288"
           style="opacity:0.02999998;fill:none;stroke:#000000;stroke-width:2;stroke-linejoin:round;stroke-miterlimit:4;stroke-opacity:1;stroke-dasharray:none"
           transform="matrix(0,-1,1,0,0,0)" />
        <rect
           transform="matrix(0,-1,1,0,0,0)"
           style="opacity:0.02999998;fill:none;stroke:#000000;stroke-linejoin:round;stroke-opacity:1"
           id="rect4286"
           width="96"
           height="120"
           x="-1028.3036"
           y="4"
           rx="4.4281631"
           ry="4.6534958" />
      </g>
      <rect
         ry="4.6534958"
         rx="4.4281631"
         y="4"
         x="-1028.3036"
         height="120"
         width="96"
         id="rect4303"
         style="fill:none;fill-opacity:1;stroke:#000000;stroke-opacity:1;opacity:0.03000000000000000;stroke-linejoin:round"
         transform="matrix(0,-1,1,0,0,0)" />
    </g>
    <rect
       ry="4.6534958"
       rx="4.4281631"
       y="4"
       x="-1028.3036"
       height="120"
       width="96"
       id="rect3036"
       style="fill:url(#linearGradient4251);fill-opacity:1;stroke:none"
       transform="matrix(0,-1,1,0,0,0)" />
    <rect
       transform="matrix(0,-1.0028378,1,0,-4.2915344e-6,0.35498761)"
       style="fill:#000000;fill-opacity:1;stroke:none"
       id="rect4237"
       width="81.240051"
       height="133.5"
       x="-1009.085"
       y="-2.7499971"
       rx="0"
       ry="0"
       clip-path="url(#clipPath4325)" />
    <rect
       ry="0"
       rx="0"
       y="10"
       x="-1006.3036"
       height="108"
       width="68"
       id="rect4308-7"
       style="fill:url(#linearGradient3465);fill-opacity:1;stroke:none"
       transform="matrix(0,-1,1,0,0,0)" />
    <g
       id="g4491">
      <g
         transform="translate(0,0.5)"
         id="g4482">
        <path
           sodipodi:nodetypes="cccccccccccccccccscc"
           inkscape:connector-curvature="0"
           style="opacity:0.02999998;fill:none;stroke:#000000;stroke-width:5;stroke-linejoin:round;stroke-miterlimit:4;stroke-opacity:1;stroke-dasharray:none"
           d="m 45.000229,958.64182 16.029211,-2.11491 0.007,14.97918 -16.021816,0.0884 z m 16.021811,14.59016 0.0121,14.99224 -16.021806,-2.13403 -8.71e-4,-12.95877 z m 0.7575,-16.81601 21.21545,-3.17088 0,18.07049 -21.21545,0.16346 z m 21.220231,16.957 -0.005,17.98912 -21.21544,-3.02764 -0.0288,-14.99516 z"
           id="path4480" />
        <path
           id="path4478"
           d="m 45.000229,958.64182 16.029211,-2.11491 0.007,14.97918 -16.021816,0.0884 z m 16.021811,14.59016 0.0121,14.99224 -16.021806,-2.13403 -8.71e-4,-12.95877 z m 0.7575,-16.81601 21.21545,-3.17088 0,18.07049 -21.21545,0.16346 z m 21.220231,16.957 -0.005,17.98912 -21.21544,-3.02764 -0.0288,-14.99516 z"
           style="opacity:0.02999998;fill:none;stroke:#000000;stroke-width:4;stroke-linejoin:round;stroke-miterlimit:4;stroke-opacity:1;stroke-dasharray:none"
           inkscape:connector-curvature="0"
           sodipodi:nodetypes="cccccccccccccccccscc" />
        <path
           sodipodi:nodetypes="cccccccccccccccccscc"
           inkscape:connector-curvature="0"
           style="opacity:0.02999998;fill:none;stroke:#000000;stroke-width:3;stroke-linejoin:round;stroke-miterlimit:4;stroke-opacity:1;stroke-dasharray:none"
           d="m 45.000229,958.64182 16.029211,-2.11491 0.007,14.97918 -16.021816,0.0884 z m 16.021811,14.59016 0.0121,14.99224 -16.021806,-2.13403 -8.71e-4,-12.95877 z m 0.7575,-16.81601 21.21545,-3.17088 0,18.07049 -21.21545,0.16346 z m 21.220231,16.957 -0.005,17.98912 -21.21544,-3.02764 -0.0288,-14.99516 z"
           id="path4476" />
        <path
           id="path4474"
           d="m 45.000229,958.64182 16.029211,-2.11491 0.007,14.97918 -16.021816,0.0884 z m 16.021811,14.59016 0.0121,14.99224 -16.021806,-2.13403 -8.71e-4,-12.95877 z m 0.7575,-16.81601 21.21545,-3.17088 0,18.07049 -21.21545,0.16346 z m 21.220231,16.957 -0.005,17.98912 -21.21544,-3.02764 -0.0288,-14.99516 z"
           style="opacity:0.02999998;fill:none;stroke:#000000;stroke-width:2;stroke-linejoin:round;stroke-miterlimit:4;stroke-opacity:1;stroke-dasharray:none"
           inkscape:connector-curvature="0"
           sodipodi:nodetypes="cccccccccccccccccscc" />
        <path
           sodipodi:nodetypes="cccccccccccccccccscc"
           inkscape:connector-curvature="0"
           style="opacity:0.02999998;fill:none;stroke:#000000;stroke-linejoin:round;stroke-opacity:1"
           d="m 45.000229,958.64182 16.029211,-2.11491 0.007,14.97918 -16.021816,0.0884 z m 16.021811,14.59016 0.0121,14.99224 -16.021806,-2.13403 -8.71e-4,-12.95877 z m 0.7575,-16.81601 21.21545,-3.17088 0,18.07049 -21.21545,0.16346 z m 21.220231,16.957 -0.005,17.98912 -21.21544,-3.02764 -0.0288,-14.99516 z"
           id="path4472" />
      </g>
      <path
         id="path4489"
         d="m 45.000229,958.64182 16.029211,-2.11491 0.007,14.97918 -16.021816,0.0884 z m 16.021811,14.59016 0.0121,14.99224 -16.021806,-2.13403 -8.71e-4,-12.95877 z m 0.7575,-16.81601 21.21545,-3.17088 0,18.07049 -21.21545,0.16346 z m 21.220231,16.957 -0.005,17.98912 -21.21544,-3.02764 -0.0288,-14.99516 z"
         style="fill:none;fill-opacity:1;stroke:#000000;stroke-opacity:1;stroke-linejoin:round;opacity:0.03"
         inkscape:connector-curvature="0"
         sodipodi:nodetypes="cccccccccccccccccscc" />
    </g>
    <path
       id="path4446"
       d="m 45.000229,958.64182 16.029211,-2.11491 0.007,14.97918 -16.021816,0.0884 z m 16.021811,14.59016 0.0121,14.99224 -16.021806,-2.13403 -8.71e-4,-12.95877 z m 0.7575,-16.81601 21.21545,-3.17088 0,18.07049 -21.21545,0.16346 z m 21.220231,16.957 -0.005,17.98912 -21.21544,-3.02764 -0.0288,-14.99516 z"
       style="fill:#ffffff;fill-opacity:1"
       inkscape:connector-curvature="0"
       sodipodi:nodetypes="cccccccccccccccccscc" />
    <rect
       transform="matrix(0,-1,1,0,0,0)"
       style="opacity:0.25;fill:#ffffff;fill-opacity:1;stroke:none"
       id="rect4546"
       width="1.0000002"
       height="120"
       x="-1013.3036"
       y="3.9999998"
       rx="0"
       ry="0" />
    <g
       transform="matrix(2.4237953,0,0,2.4237953,8.8697257,923.8349)"
       id="rect3872-7"
       inkscape:connector-curvature="0"
       sodipodi:nodetypes="ccccc"
       enable-background="new    "
       style="opacity:0.2"
       clip-path="url(#clipPath4387)">
      <linearGradient
         id="linearGradient3029-8"
         gradientUnits="userSpaceOnUse"
         x1="-890.18903"
         y1="594.69043"
         x2="-909.90399"
         y2="594.69043"
         gradientTransform="matrix(0,-1.15,1.1667,0,-663.3176,-1008.7126)">
        <stop
           offset="0"
           style="stop-color:#FFFFFF"
           id="stop3031-6" />
        <stop
           offset="1"
           style="stop-color:#FFFFFF;stop-opacity:0"
           id="stop3033-8" />
      </linearGradient>
      <path
         d="m 47.5,35.5 c 0,0.55 -0.45,1 -1,1 l -39.1496414,0 c -0.021,0 -0.03,-0.013 -0.019,-0.027 L 32.137359,3.494 46.5,3.494 c 0.55,0 1,0.45 1,1 z"
         id="path45"
         style="fill:url(#linearGradient3051)"
         inkscape:connector-curvature="0"
         sodipodi:nodetypes="scccccss" />
    </g>
    <g
       id="g4121">
      <g
         id="g4114">
        <path
           d="m 44.703882,964.86216 c -1.106665,0.207 -1.615155,0.138 -2.741769,0.58134 C 38.063799,966.98057 36,970.1533 36,974.25226 l 0,36.65374 c 0,1.0939 0.149549,2.2959 0.468599,3.3504 0.22925,0.778 0.73776,1.724 1.216345,2.3939 1.844479,2.6015 4.626119,3.981 7.826523,3.981 l 2.093714,0 4.845468,0 5.483539,0 c 1.236299,0 1.744779,0.05 1.774679,1.4384 l 0,7.4884 c 0,5.2518 -0.78759,10.0897 4.187424,13.5682 0.757775,0.522 1.694939,0.9754 2.582269,1.2509 1.016955,0.325 2.632119,0.485 3.708864,0.485 l 35.972076,0 c 0.64807,0 2.30311,-0.13 2.90131,-0.275 4.07778,-1.0244 6.92923,-4.4829 6.93919,-8.6508 l 0,-37.6196 c 0,-1.0641 -0.14955,-2.0002 -0.49845,-3.0249 -0.2592,-0.7586 -0.78761,-1.7539 -1.26622,-2.3944 -1.84445,-2.43375 -4.51644,-3.81316 -7.59721,-3.82301 -4.78367,0.002 -9.56736,-3.5e-4 -14.35104,-0.01 l 0.004,-2.85939 0,-6.21737 c 0,-5.03499 0.70792,-10.19802 -4.1974,-13.4397 -0.668002,-0.44349 -1.655041,-0.97553 -2.422731,-1.20213 -1.02692,-0.29549 -2.941184,-0.49248 -4.027919,-0.48299 -13.555071,0 -24.626632,5e-5 -36.939173,0 z m 35.324019,24.19568 c 0,0 -4.991699,0.02 -7.487543,0.025 -1.14655,0.21699 -2.013949,1.42871 -1.495494,2.54209 0.289099,0.62075 1.206364,1.47807 1.714844,1.98057 l 3.240274,3.1235 3.379859,3.1826 3.150559,3.3895 2.811564,2.7885 c 0.897305,0.8965 3.230306,3.3994 4.197406,3.8229 1.19641,0.5125 2.25323,-0.255 2.62213,-1.3895 0.13965,-0.465 0.1296,-0.9555 0.1296,-1.4384 0.003,-2.0705 -0.004,-6.2114 -0.004,-6.2114 0,0 4.08383,0 6.12574,0 3.38982,0.05 5.48354,2.0689 5.48354,5.4194 l 0,26.3079 -26.610173,0 c -0.73783,0 -1.21636,0 -1.934195,-0.235 -1.804579,-0.5815 -3.070789,-2.2465 -3.379859,-4.0694 l 0,-2.552 0,-3.5079 c -0.0105,-0.405 -0.0704,-1.0145 0.24925,-1.32 0.31895,-0.3049 0.94716,-0.2749 1.35594,-0.2749 l 4.675963,0 c 0.4088,0 0.89731,0 1.29611,-0.09 1.096705,-0.285 1.894319,-1.35 1.405794,-2.4635 -0.319049,-0.7195 -1.156549,-1.468 -1.724839,-2.0299 l -3.090734,-3.034 -6.719833,-6.4738 -2.652044,-2.818 c -0.917245,-0.8965 -3.379859,-3.5273 -4.317069,-3.951 -1.136569,-0.5024 -2.273169,0.335 -2.612154,1.4191 -0.14955,0.455 -0.1296,0.9554 -0.1296,1.4284 l 0,6.2174 -6.131598,0 c -3.359924,0 -5.473578,-2.0984 -5.483553,-5.4194 l 0.0055,-26.2934 c 0,0 17.736429,-0.004 26.604646,-0.004 3.150544,0 5.314049,1.9312 5.324029,5.10394 z"
           id="path4408"
           inkscape:connector-curvature="0"
           style="opacity:0.02999998;fill:none;stroke:#000000;stroke-width:5;stroke-linejoin:round;stroke-miterlimit:4;stroke-opacity:1;stroke-dasharray:none"
           sodipodi:nodetypes="ccssccsccscsccssccscccccscccccccccccccccccscscccccssccccccccsccccccc" />
        <path
           sodipodi:nodetypes="ccssccsccscsccssccscccccscccccccccccccccccscscccccssccccccccsccccccc"
           style="opacity:0.02999998;fill:none;stroke:#000000;stroke-width:4;stroke-linejoin:round;stroke-miterlimit:4;stroke-opacity:1;stroke-dasharray:none"
           inkscape:connector-curvature="0"
           id="path4406"
           d="m 44.703882,964.86216 c -1.106665,0.207 -1.615155,0.138 -2.741769,0.58134 C 38.063799,966.98057 36,970.1533 36,974.25226 l 0,36.65374 c 0,1.0939 0.149549,2.2959 0.468599,3.3504 0.22925,0.778 0.73776,1.724 1.216345,2.3939 1.844479,2.6015 4.626119,3.981 7.826523,3.981 l 2.093714,0 4.845468,0 5.483539,0 c 1.236299,0 1.744779,0.05 1.774679,1.4384 l 0,7.4884 c 0,5.2518 -0.78759,10.0897 4.187424,13.5682 0.757775,0.522 1.694939,0.9754 2.582269,1.2509 1.016955,0.325 2.632119,0.485 3.708864,0.485 l 35.972076,0 c 0.64807,0 2.30311,-0.13 2.90131,-0.275 4.07778,-1.0244 6.92923,-4.4829 6.93919,-8.6508 l 0,-37.6196 c 0,-1.0641 -0.14955,-2.0002 -0.49845,-3.0249 -0.2592,-0.7586 -0.78761,-1.7539 -1.26622,-2.3944 -1.84445,-2.43375 -4.51644,-3.81316 -7.59721,-3.82301 -4.78367,0.002 -9.56736,-3.5e-4 -14.35104,-0.01 l 0.004,-2.85939 0,-6.21737 c 0,-5.03499 0.70792,-10.19802 -4.1974,-13.4397 -0.668002,-0.44349 -1.655041,-0.97553 -2.422731,-1.20213 -1.02692,-0.29549 -2.941184,-0.49248 -4.027919,-0.48299 -13.555071,0 -24.626632,5e-5 -36.939173,0 z m 35.324019,24.19568 c 0,0 -4.991699,0.02 -7.487543,0.025 -1.14655,0.21699 -2.013949,1.42871 -1.495494,2.54209 0.289099,0.62075 1.206364,1.47807 1.714844,1.98057 l 3.240274,3.1235 3.379859,3.1826 3.150559,3.3895 2.811564,2.7885 c 0.897305,0.8965 3.230306,3.3994 4.197406,3.8229 1.19641,0.5125 2.25323,-0.255 2.62213,-1.3895 0.13965,-0.465 0.1296,-0.9555 0.1296,-1.4384 0.003,-2.0705 -0.004,-6.2114 -0.004,-6.2114 0,0 4.08383,0 6.12574,0 3.38982,0.05 5.48354,2.0689 5.48354,5.4194 l 0,26.3079 -26.610173,0 c -0.73783,0 -1.21636,0 -1.934195,-0.235 -1.804579,-0.5815 -3.070789,-2.2465 -3.379859,-4.0694 l 0,-2.552 0,-3.5079 c -0.0105,-0.405 -0.0704,-1.0145 0.24925,-1.32 0.31895,-0.3049 0.94716,-0.2749 1.35594,-0.2749 l 4.675963,0 c 0.4088,0 0.89731,0 1.29611,-0.09 1.096705,-0.285 1.894319,-1.35 1.405794,-2.4635 -0.319049,-0.7195 -1.156549,-1.468 -1.724839,-2.0299 l -3.090734,-3.034 -6.719833,-6.4738 -2.652044,-2.818 c -0.917245,-0.8965 -3.379859,-3.5273 -4.317069,-3.951 -1.136569,-0.5024 -2.273169,0.335 -2.612154,1.4191 -0.14955,0.455 -0.1296,0.9554 -0.1296,1.4284 l 0,6.2174 -6.131598,0 c -3.359924,0 -5.473578,-2.0984 -5.483553,-5.4194 l 0.0055,-26.2934 c 0,0 17.736429,-0.004 26.604646,-0.004 3.150544,0 5.314049,1.9312 5.324029,5.10394 z" />
        <path
           d="m 44.703882,964.86216 c -1.106665,0.207 -1.615155,0.138 -2.741769,0.58134 C 38.063799,966.98057 36,970.1533 36,974.25226 l 0,36.65374 c 0,1.0939 0.149549,2.2959 0.468599,3.3504 0.22925,0.778 0.73776,1.724 1.216345,2.3939 1.844479,2.6015 4.626119,3.981 7.826523,3.981 l 2.093714,0 4.845468,0 5.483539,0 c 1.236299,0 1.744779,0.05 1.774679,1.4384 l 0,7.4884 c 0,5.2518 -0.78759,10.0897 4.187424,13.5682 0.757775,0.522 1.694939,0.9754 2.582269,1.2509 1.016955,0.325 2.632119,0.485 3.708864,0.485 l 35.972076,0 c 0.64807,0 2.30311,-0.13 2.90131,-0.275 4.07778,-1.0244 6.92923,-4.4829 6.93919,-8.6508 l 0,-37.6196 c 0,-1.0641 -0.14955,-2.0002 -0.49845,-3.0249 -0.2592,-0.7586 -0.78761,-1.7539 -1.26622,-2.3944 -1.84445,-2.43375 -4.51644,-3.81316 -7.59721,-3.82301 -4.78367,0.002 -9.56736,-3.5e-4 -14.35104,-0.01 l 0.004,-2.85939 0,-6.21737 c 0,-5.03499 0.70792,-10.19802 -4.1974,-13.4397 -0.668002,-0.44349 -1.655041,-0.97553 -2.422731,-1.20213 -1.02692,-0.29549 -2.941184,-0.49248 -4.027919,-0.48299 -13.555071,0 -24.626632,5e-5 -36.939173,0 z m 35.324019,24.19568 c 0,0 -4.991699,0.02 -7.487543,0.025 -1.14655,0.21699 -2.013949,1.42871 -1.495494,2.54209 0.289099,0.62075 1.206364,1.47807 1.714844,1.98057 l 3.240274,3.1235 3.379859,3.1826 3.150559,3.3895 2.811564,2.7885 c 0.897305,0.8965 3.230306,3.3994 4.197406,3.8229 1.19641,0.5125 2.25323,-0.255 2.62213,-1.3895 0.13965,-0.465 0.1296,-0.9555 0.1296,-1.4384 0.003,-2.0705 -0.004,-6.2114 -0.004,-6.2114 0,0 4.08383,0 6.12574,0 3.38982,0.05 5.48354,2.0689 5.48354,5.4194 l 0,26.3079 -26.610173,0 c -0.73783,0 -1.21636,0 -1.934195,-0.235 -1.804579,-0.5815 -3.070789,-2.2465 -3.379859,-4.0694 l 0,-2.552 0,-3.5079 c -0.0105,-0.405 -0.0704,-1.0145 0.24925,-1.32 0.31895,-0.3049 0.94716,-0.2749 1.35594,-0.2749 l 4.675963,0 c 0.4088,0 0.89731,0 1.29611,-0.09 1.096705,-0.285 1.894319,-1.35 1.405794,-2.4635 -0.319049,-0.7195 -1.156549,-1.468 -1.724839,-2.0299 l -3.090734,-3.034 -6.719833,-6.4738 -2.652044,-2.818 c -0.917245,-0.8965 -3.379859,-3.5273 -4.317069,-3.951 -1.136569,-0.5024 -2.273169,0.335 -2.612154,1.4191 -0.14955,0.455 -0.1296,0.9554 -0.1296,1.4284 l 0,6.2174 -6.131598,0 c -3.359924,0 -5.473578,-2.0984 -5.483553,-5.4194 l 0.0055,-26.2934 c 0,0 17.736429,-0.004 26.604646,-0.004 3.150544,0 5.314049,1.9312 5.324029,5.10394 z"
           id="path4404"
           inkscape:connector-curvature="0"
           style="opacity:0.02999998;fill:none;stroke:#000000;stroke-width:3;stroke-linejoin:round;stroke-miterlimit:4;stroke-opacity:1;stroke-dasharray:none"
           sodipodi:nodetypes="ccssccsccscsccssccscccccscccccccccccccccccscscccccssccccccccsccccccc" />
        <path
           sodipodi:nodetypes="ccsscccccccssccscccccscccccccccccccccccscsccccccccccccscccccccc"
           style="opacity:0.02999998;fill:none;stroke:#000000;stroke-width:2;stroke-linejoin:round;stroke-miterlimit:4;stroke-opacity:1;stroke-dasharray:none"
           inkscape:connector-curvature="0"
           id="path4110"
           d="m 44.703866,964.86213 c -1.106662,0.208 -1.61515,0.136 -2.741765,0.5812 C 38.063794,966.98043 36,970.15303 36,974.25163 l 0,36.65197 c 0,1.0936 0.14956,2.2955 0.468598,3.3502 0.229241,0.778 0.737761,1.7239 1.216344,2.3935 1.844473,2.6015 4.626111,3.981 7.826512,3.981 4.851833,0 9.98374,0 14.184312,0 l 0.0132,8.9307 c 0,5.2517 -0.787592,10.0895 4.187415,13.5677 0.757775,0.5219 1.694937,0.9751 2.582265,1.2507 1.016939,0.324 2.632102,0.4848 3.708844,0.4848 l 35.972,0 c 0.64808,0 2.30312,-0.132 2.90132,-0.276 4.07779,-1.0244 6.92923,-4.4826 6.93919,-8.6503 l 0,-37.61757 c 0,-1.0639 -0.1496,-1.9999 -0.49844,-3.0246 -0.2592,-0.7588 -0.78764,-1.7539 -1.26624,-2.3943 -1.84444,-2.4335 -4.51643,-3.813 -7.59719,-3.823 -4.78368,0 -9.56735,0 -14.35102,0 l 0.004,-2.859 0,-6.2169 c 0,-5.0349 0.70791,-10.1974 -4.1974,-13.4393 -0.668,-0.4431 -1.65504,-0.9755 -2.42272,-1.2019 -1.02692,-0.296 -2.94119,-0.4924 -4.02791,-0.4828 -13.555052,0 -24.626596,0 -36.939119,0 z m 35.323965,24.1943 c 0,0 -4.99169,0 -7.487531,0.04 -1.146547,0.216 -2.013947,1.4287 -1.495491,2.5423 0.289079,0.6203 1.206359,1.4779 1.714838,1.9803 l 3.240273,3.1234 3.379851,3.18217 3.15055,3.3894 2.811549,2.7883 c 0.89732,0.8963 3.230321,3.3994 4.1974,3.8226 1.19644,0.5127 2.253241,-0.256 2.62216,-1.3892 0.1396,-0.4651 0.1296,-0.9555 0.1296,-1.4383 0.003,-2.0707 -0.004,-6.2112 -0.004,-6.2112 0,0 4.08379,0 6.12571,0 3.38979,0.052 5.48351,2.0687 5.48351,5.4193 l 0,26.3061 -26.61011,0 c -0.73783,0 -1.216357,0 -1.934192,-0.2359 -1.804574,-0.5812 -3.070785,-2.2463 -3.379853,-4.069 l -7.6e-4,-7.6452 6.281895,0 c 0.4088,0 0.897311,0 1.29611,-0.088 1.0967,-0.284 1.8943,-1.3499 1.40578,-2.4635 -0.31904,-0.7191 -1.15654,-1.4679 -1.72483,-2.0295 l -3.090727,-3.0338 -6.719821,-6.4736 -2.652041,-2.8179 c -0.917242,-0.8963 -3.379851,-3.527 -4.317063,-3.951 -1.136567,-0.5023 -2.273166,0.336 -2.612149,1.4191 -0.14956,0.4552 -0.1296,0.9556 -0.1296,1.4284 l 0,6.2172 -6.131585,0 c -3.359921,0 -5.473569,-2.0983 -5.483546,-5.4193 l 0.0056,-26.29167 c 0,0 17.7364,0 26.604602,0 3.15054,0 5.31404,1.9311 5.32402,5.1037 z" />
        <path
           d="m 44.703866,964.86213 c -1.106662,0.208 -1.61515,0.136 -2.741765,0.5812 C 38.063794,966.98043 36,970.15303 36,974.25163 l 0,36.65197 c 0,1.0936 0.14956,2.2955 0.468598,3.3502 0.229241,0.778 0.737761,1.7239 1.216344,2.3935 1.844473,2.6015 4.626111,3.981 7.826512,3.981 4.851833,0 9.98374,0 14.184312,0 l 0.0132,8.9307 c 0,5.2517 -0.787592,10.0895 4.187415,13.5677 0.757775,0.5219 1.694937,0.9751 2.582265,1.2507 1.016939,0.324 2.632102,0.4848 3.708844,0.4848 l 35.972,0 c 0.64808,0 2.30312,-0.132 2.90132,-0.276 4.07779,-1.0244 6.92923,-4.4826 6.93919,-8.6503 l 0,-37.61757 c 0,-1.0639 -0.1496,-1.9999 -0.49844,-3.0246 -0.2592,-0.7588 -0.78764,-1.7539 -1.26624,-2.3943 -1.84444,-2.4335 -4.51643,-3.813 -7.59719,-3.823 -4.78368,0 -9.56735,0 -14.35102,0 l 0.004,-2.859 0,-6.2169 c 0,-5.0349 0.70791,-10.1974 -4.1974,-13.4393 -0.668,-0.4431 -1.65504,-0.9755 -2.42272,-1.2019 -1.02692,-0.296 -2.94119,-0.4924 -4.02791,-0.4828 -13.555052,0 -24.626596,0 -36.939119,0 z m 35.323965,24.1943 c 0,0 -4.99169,0 -7.487531,0.04 -1.146547,0.216 -2.013947,1.4287 -1.495491,2.5423 0.289079,0.6203 1.206359,1.4779 1.714838,1.9803 l 3.240273,3.1234 3.379851,3.18217 3.15055,3.3894 2.811549,2.7883 c 0.89732,0.8963 3.230321,3.3994 4.1974,3.8226 1.19644,0.5127 2.253241,-0.256 2.62216,-1.3892 0.1396,-0.4651 0.1296,-0.9555 0.1296,-1.4383 0.003,-2.0707 -0.004,-6.2112 -0.004,-6.2112 0,0 4.08379,0 6.12571,0 3.38979,0.052 5.48351,2.0687 5.48351,5.4193 l 0,26.3061 -26.61011,0 c -0.73783,0 -1.216357,0 -1.934192,-0.2359 -1.804574,-0.5812 -3.070785,-2.2463 -3.379853,-4.069 l -7.6e-4,-7.6452 6.281895,0 c 0.4088,0 0.897311,0 1.29611,-0.088 1.0967,-0.284 1.8943,-1.3499 1.40578,-2.4635 -0.31904,-0.7191 -1.15654,-1.4679 -1.72483,-2.0295 l -3.090727,-3.0338 -6.719821,-6.4736 -2.652041,-2.8179 c -0.917242,-0.8963 -3.379851,-3.527 -4.317063,-3.951 -1.136567,-0.5023 -2.273166,0.336 -2.612149,1.4191 -0.14956,0.4552 -0.1296,0.9556 -0.1296,1.4284 l 0,6.2172 -6.131585,0 c -3.359921,0 -5.473569,-2.0983 -5.483546,-5.4193 l 0.0056,-26.29167 c 0,0 17.7364,0 26.604602,0 3.15054,0 5.31404,1.9311 5.32402,5.1037 z"
           id="path3340"
           inkscape:connector-curvature="0"
           style="opacity:0.02999998;fill:none;stroke:#000000;stroke-linejoin:round;stroke-opacity:1"
           sodipodi:nodetypes="ccsscccccccssccscccccscccccccccccccccccscsccccccccccccscccccccc" />
      </g>
      <path
         d="m 44.703866,964.36213 c -1.106662,0.208 -1.61515,0.136 -2.741765,0.5812 C 38.063794,966.48043 36,969.65303 36,973.75163 l 0,36.65197 c 0,1.0936 0.14956,2.2955 0.468598,3.3502 0.229241,0.778 0.737761,1.7239 1.216344,2.3935 1.844473,2.6015 4.626111,3.981 7.826512,3.981 4.851833,0 9.98374,0 14.184312,0 l 0.0132,8.9307 c 0,5.2517 -0.787592,10.0895 4.187415,13.5677 0.757775,0.5219 1.694937,0.9751 2.582265,1.2507 1.016939,0.324 2.632102,0.4848 3.708844,0.4848 l 35.972,0 c 0.64808,0 2.30312,-0.132 2.90132,-0.276 4.07779,-1.0244 6.92923,-4.4826 6.93919,-8.6503 l 0,-37.61757 c 0,-1.0639 -0.1496,-1.9999 -0.49844,-3.0246 -0.2592,-0.7588 -0.78764,-1.7539 -1.26624,-2.3943 -1.84444,-2.4335 -4.51643,-3.813 -7.59719,-3.823 -4.78368,0 -9.56735,0 -14.35102,0 l 0.004,-2.859 0,-6.2169 c 0,-5.0349 0.70791,-10.1974 -4.1974,-13.4393 -0.668,-0.4431 -1.65504,-0.9755 -2.42272,-1.2019 -1.02692,-0.296 -2.94119,-0.4924 -4.02791,-0.4828 -13.555052,0 -24.626596,0 -36.939119,0 z m 35.323965,24.1943 c 0,0 -4.99169,0 -7.487531,0.04 -1.146547,0.216 -2.013947,1.4287 -1.495491,2.5423 0.289079,0.6203 1.206359,1.4779 1.714838,1.9803 l 3.240273,3.1234 3.379851,3.18217 3.15055,3.3894 2.811549,2.7883 c 0.89732,0.8963 3.230321,3.3994 4.1974,3.8226 1.19644,0.5127 2.253241,-0.256 2.62216,-1.3892 0.1396,-0.4651 0.1296,-0.9555 0.1296,-1.4383 0.003,-2.0707 -0.004,-6.2112 -0.004,-6.2112 0,0 4.08379,0 6.12571,0 3.38979,0.052 5.48351,2.0687 5.48351,5.4193 l 0,26.3061 -26.61011,0 c -0.73783,0 -1.216357,0 -1.934192,-0.2359 -1.804574,-0.5812 -3.070785,-2.2463 -3.379853,-4.069 l -7.6e-4,-7.6452 6.281895,0 c 0.4088,0 0.897311,0 1.29611,-0.088 1.0967,-0.284 1.8943,-1.3499 1.40578,-2.4635 -0.31904,-0.7191 -1.15654,-1.4679 -1.72483,-2.0295 l -3.090727,-3.0338 -6.719821,-6.4736 -2.652041,-2.8179 c -0.917242,-0.8963 -3.379851,-3.527 -4.317063,-3.951 -1.136567,-0.5023 -2.273166,0.336 -2.612149,1.4191 -0.14956,0.4552 -0.1296,0.9556 -0.1296,1.4284 l 0,6.2172 -6.131585,0 c -3.359921,0 -5.473569,-2.0983 -5.483546,-5.4193 l 0.0056,-26.29167 c 0,0 17.7364,0 26.604602,0 3.15054,0 5.31404,1.9311 5.32402,5.1037 z"
         id="path4112"
         inkscape:connector-curvature="0"
         style="opacity:0.02999998;fill:none;stroke:#000000;stroke-linejoin:round;stroke-opacity:1"
         sodipodi:nodetypes="ccsscccccccssccscccccscccccccccccccccccscsccccccccccccscccccccc" />
    </g>
    <path
       sodipodi:nodetypes="ccsscccccccssccscccccscccccccccccccccccscsccccccccccccscccccccc"
       style="fill:#f3442b;fill-opacity:1;stroke:none"
       inkscape:connector-curvature="0"
       id="Копия Копия Выделение-7"
       d="m 44.703866,964.36213 c -1.106662,0.208 -1.61515,0.136 -2.741765,0.5812 C 38.063794,966.48043 36,969.65303 36,973.75163 l 0,36.65197 c 0,1.0936 0.14956,2.2955 0.468598,3.3502 0.229241,0.778 0.737761,1.7239 1.216344,2.3935 1.844473,2.6015 4.626111,3.981 7.826512,3.981 4.851833,0 9.98374,0 14.184312,0 l 0.0132,8.9307 c 0,5.2517 -0.787592,10.0895 4.187415,13.5677 0.757775,0.5219 1.694937,0.9751 2.582265,1.2507 1.016939,0.324 2.632102,0.4848 3.708844,0.4848 l 35.972,0 c 0.64808,0 2.30312,-0.132 2.90132,-0.276 4.07779,-1.0244 6.92923,-4.4826 6.93919,-8.6503 l 0,-37.61757 c 0,-1.0639 -0.1496,-1.9999 -0.49844,-3.0246 -0.2592,-0.7588 -0.78764,-1.7539 -1.26624,-2.3943 -1.84444,-2.4335 -4.51643,-3.813 -7.59719,-3.823 -4.78368,0 -9.56735,0 -14.35102,0 l 0.004,-2.859 0,-6.2169 c 0,-5.0349 0.70791,-10.1974 -4.1974,-13.4393 -0.668,-0.4431 -1.65504,-0.9755 -2.42272,-1.2019 -1.02692,-0.296 -2.94119,-0.4924 -4.02791,-0.4828 -13.555052,0 -24.626596,0 -36.939119,0 z m 35.323965,24.1943 c 0,0 -4.99169,0 -7.487531,0.04 -1.146547,0.216 -2.013947,1.4287 -1.495491,2.5423 0.289079,0.6203 1.206359,1.4779 1.714838,1.9803 l 3.240273,3.1234 3.379851,3.18217 3.15055,3.3894 2.811549,2.7883 c 0.89732,0.8963 3.230321,3.3994 4.1974,3.8226 1.19644,0.5127 2.253241,-0.256 2.62216,-1.3892 0.1396,-0.4651 0.1296,-0.9555 0.1296,-1.4383 0.003,-2.0707 -0.004,-6.2112 -0.004,-6.2112 0,0 4.08379,0 6.12571,0 3.38979,0.052 5.48351,2.0687 5.48351,5.4193 l 0,26.3061 -26.61011,0 c -0.73783,0 -1.216357,0 -1.934192,-0.2359 -1.804574,-0.5812 -3.070785,-2.2463 -3.379853,-4.069 l -7.6e-4,-7.6452 6.281895,0 c 0.4088,0 0.897311,0 1.29611,-0.088 1.0967,-0.284 1.8943,-1.3499 1.40578,-2.4635 -0.31904,-0.7191 -1.15654,-1.4679 -1.72483,-2.0295 l -3.090727,-3.0338 -6.719821,-6.4736 -2.652041,-2.8179 c -0.917242,-0.8963 -3.379851,-3.527 -4.317063,-3.951 -1.136567,-0.5023 -2.273166,0.336 -2.612149,1.4191 -0.14956,0.4552 -0.1296,0.9556 -0.1296,1.4284 l 0,6.2172 -6.131585,0 c -3.359921,0 -5.473569,-2.0983 -5.483546,-5.4193 l 0.0056,-26.29167 c 0,0 17.7364,0 26.604602,0 3.15054,0 5.31404,1.9311 5.32402,5.1037 z" />
  </g>
</svg>
