<?xml version="1.0" encoding="UTF-8" standalone="no"?>
<!-- Created with Inkscape (http://www.inkscape.org/) -->

<svg
   xmlns:dc="http://purl.org/dc/elements/1.1/"
   xmlns:cc="http://creativecommons.org/ns#"
   xmlns:rdf="http://www.w3.org/1999/02/22-rdf-syntax-ns#"
   xmlns:svg="http://www.w3.org/2000/svg"
   xmlns="http://www.w3.org/2000/svg"
   xmlns:sodipodi="http://sodipodi.sourceforge.net/DTD/sodipodi-0.dtd"
   xmlns:inkscape="http://www.inkscape.org/namespaces/inkscape"
   width="22"
   height="22"
   viewBox="0 0 22 22"
   id="svg4196"
   version="1.1"
   inkscape:version="0.92.1 r15371"
   sodipodi:docname="menu.svg">
  <defs
     id="defs4198" />
  <sodipodi:namedview
     id="base"
     pagecolor="#aeaeae"
     bordercolor="#666666"
     borderopacity="1.0"
     inkscape:pageopacity="1"
     inkscape:pageshadow="2"
     inkscape:zoom="12.475"
     inkscape:cx="10.397529"
     inkscape:cy="8.8910687"
     inkscape:document-units="px"
     inkscape:current-layer="layer1"
     showgrid="false"
     units="px"
     inkscape:snap-bbox="true"
     inkscape:bbox-paths="true"
     inkscape:bbox-nodes="true"
     inkscape:snap-bbox-edge-midpoints="true"
     inkscape:window-width="1366"
     inkscape:window-height="724"
     inkscape:window-x="0"
     inkscape:window-y="22"
     inkscape:window-maximized="1"
     inkscape:snap-bbox-midpoints="true"
     inkscape:object-paths="true"
     inkscape:snap-smooth-nodes="true"
     inkscape:snap-page="true"
     showguides="true"
     inkscape:guide-bbox="true">
    <inkscape:grid
       type="xygrid"
       id="grid4762"
       empspacing="1" />
  </sodipodi:namedview>
  <metadata
     id="metadata4201">
    <rdf:RDF>
      <cc:Work
         rdf:about="">
        <dc:format>image/svg+xml</dc:format>
        <dc:type
           rdf:resource="http://purl.org/dc/dcmitype/StillImage" />
        <dc:title />
      </cc:Work>
    </rdf:RDF>
  </metadata>
  <g
     inkscape:label="Ebene 1"
     inkscape:groupmode="layer"
     id="layer1"
     transform="translate(0,-1030.3622)">
    <path
       style="opacity:0.18000004;fill:#000000;fill-opacity:1;stroke:none;stroke-width:1.89158165;stroke-linecap:butt;stroke-linejoin:miter;stroke-miterlimit:4;stroke-dasharray:none;stroke-opacity:1"
       d="M 4 0 C 1.784 0 -1.3829649e-17 1.784 0 4 L 0 18 C 0 20.216 1.784 22 4 22 L 18 22 C 20.216 22 22 20.216 22 18 L 22 4 C 22 1.784 20.216 -1.3829649e-17 18 0 L 4 0 z M 4 1 L 18 1 C 19.662 1 21 2.338 21 4 L 21 18 C 21 19.662 19.662 21 18 21 L 4 21 C 2.338 21 1 19.662 1 18 L 1 4 C 1 2.338 2.338 1 4 1 z "
       transform="translate(0,1030.3622)"
       id="rect21" />
    <rect
       ry="3"
       rx="3"
       y="1031.3622"
       x="1"
       height="20"
       width="20"
       id="rect25"
       style="opacity:0.96;fill:#ffffff;fill-opacity:1;stroke:none;stroke-width:1.71962035;stroke-linecap:butt;stroke-linejoin:miter;stroke-miterlimit:4;stroke-dasharray:none;stroke-opacity:1" />
  </g>
</svg>
