<?xml version="1.0" encoding="UTF-8" standalone="no"?>
<!-- Created with Inkscape (http://www.inkscape.org/) -->

<svg
   xmlns:dc="http://purl.org/dc/elements/1.1/"
   xmlns:cc="http://creativecommons.org/ns#"
   xmlns:rdf="http://www.w3.org/1999/02/22-rdf-syntax-ns#"
   xmlns:svg="http://www.w3.org/2000/svg"
   xmlns="http://www.w3.org/2000/svg"
   xmlns:xlink="http://www.w3.org/1999/xlink"
   xmlns:sodipodi="http://sodipodi.sourceforge.net/DTD/sodipodi-0.dtd"
   xmlns:inkscape="http://www.inkscape.org/namespaces/inkscape"
   id="svg7384"
   sodipodi:docname="application-x-gnome-saved-search.svg"
   version="1.1"
   inkscape:version="0.48.4 r9939"
   height="48"
   width="48">
  <metadata
     id="metadata90">
    <rdf:RDF>
      <cc:Work
         rdf:about="">
        <dc:format>image/svg+xml</dc:format>
        <dc:type
           rdf:resource="http://purl.org/dc/dcmitype/StillImage" />
        <dc:title>Gnome Symbolic Icon Theme</dc:title>
      </cc:Work>
    </rdf:RDF>
  </metadata>
  <sodipodi:namedview
     inkscape:cy="24.301645"
     pagecolor="#ffffff"
     borderopacity="1"
     showborder="true"
     inkscape:bbox-paths="false"
     guidetolerance="10"
     inkscape:window-width="1280"
     showguides="true"
     inkscape:object-nodes="true"
     inkscape:snap-bbox="true"
     inkscape:pageshadow="2"
     inkscape:guide-bbox="true"
     inkscape:snap-nodes="true"
     bordercolor="#666666"
     objecttolerance="10"
     id="namedview88"
     showgrid="false"
     inkscape:window-maximized="1"
     inkscape:window-x="0"
     inkscape:snap-global="true"
     inkscape:window-y="24"
     gridtolerance="10"
     inkscape:window-height="1000"
     inkscape:snap-to-guides="true"
     inkscape:current-layer="layer13"
     inkscape:zoom="5.656854"
     inkscape:cx="44.997814"
     inkscape:snap-grids="true"
     inkscape:pageopacity="1">
    <inkscape:grid
       spacingx="1px"
       spacingy="1px"
       id="grid4866"
       empspacing="2"
       enabled="true"
       type="xygrid"
       snapvisiblegridlinesonly="true"
       visible="true" />
  </sodipodi:namedview>
  <title
     id="title9167">Gnome Symbolic Icon Theme</title>
  <defs
     id="defs7386">
    <linearGradient
       id="linearGradient4044">
      <stop
         style="stop-color:#000000;stop-opacity:0.49803922;"
         offset="0"
         id="stop4046" />
      <stop
         style="stop-color:#000000;stop-opacity:0;"
         offset="1"
         id="stop4048" />
    </linearGradient>
    <linearGradient
       id="linearGradient4032">
      <stop
         style="stop-color:#000000;stop-opacity:0;"
         offset="0"
         id="stop4034" />
      <stop
         id="stop4040"
         offset="0.5"
         style="stop-color:#000000;stop-opacity:0.49803922;" />
      <stop
         style="stop-color:#000000;stop-opacity:0;"
         offset="1"
         id="stop4036" />
    </linearGradient>
    <linearGradient
       id="linearGradient3842">
      <stop
         id="stop3844"
         offset="0"
         style="stop-color:#6860ba;stop-opacity:1;" />
      <stop
         style="stop-color:#9185cb;stop-opacity:1;"
         offset="0.5074119"
         id="stop3846" />
      <stop
         id="stop3848"
         offset="1"
         style="stop-color:#a399d4;stop-opacity:1;" />
    </linearGradient>
    <linearGradient
       id="linearGradient3804">
      <stop
         style="stop-color:#c4bee4;stop-opacity:1;"
         offset="0"
         id="stop3806" />
      <stop
         style="stop-color:#c4bee4;stop-opacity:0;"
         offset="1"
         id="stop3810" />
    </linearGradient>
    <linearGradient
       id="linearGradient3978">
      <stop
         style="stop-color:#becfe4;stop-opacity:0;"
         offset="0"
         id="stop3980" />
      <stop
         style="stop-color:#becfe4;stop-opacity:1;"
         offset="1"
         id="stop3984" />
    </linearGradient>
    <linearGradient
       id="linearGradient3821">
      <stop
         style="stop-color:#6087ba;stop-opacity:1;"
         offset="0"
         id="stop3823" />
      <stop
         id="stop3829"
         offset="0.57654178"
         style="stop-color:#85a5cb;stop-opacity:1;" />
      <stop
         style="stop-color:#99b4d4;stop-opacity:1;"
         offset="1"
         id="stop3825" />
    </linearGradient>
    <linearGradient
       id="linearGradient3811">
      <stop
         id="stop3813"
         offset="0"
         style="stop-color:#507099;stop-opacity:1;" />
      <stop
         style="stop-color:#7999c2;stop-opacity:1;"
         offset="0.1"
         id="stop3815" />
      <stop
         id="stop3819"
         offset="1"
         style="stop-color:#becfe4;stop-opacity:1;" />
    </linearGradient>
    <linearGradient
       id="linearGradient3767">
      <stop
         style="stop-color:#c0b1d9;stop-opacity:1;"
         offset="0"
         id="stop3769" />
      <stop
         id="stop3777"
         offset="0.155"
         style="stop-color:#b3abdb;stop-opacity:1;" />
      <stop
         id="stop3775"
         offset="0.83099997"
         style="stop-color:#927fc8;stop-opacity:1;" />
      <stop
         style="stop-color:#8675c4;stop-opacity:0.99607843;"
         offset="1"
         id="stop3771" />
    </linearGradient>
    <linearGradient
       inkscape:collect="always"
       xlink:href="#linearGradient3978"
       id="linearGradient3840"
       gradientUnits="userSpaceOnUse"
       x1="24.000002"
       y1="20.169643"
       x2="24.000002"
       y2="13.00059"
       gradientTransform="translate(442,144)" />
    <radialGradient
       inkscape:collect="always"
       xlink:href="#linearGradient3767"
       id="radialGradient3782"
       cx="7.9357204"
       cy="-24.355911"
       fx="7.9357204"
       fy="-24.355911"
       r="24"
       gradientTransform="matrix(0,1.2062971,-3.2912536,0,-67.617741,3.4452919)"
       gradientUnits="userSpaceOnUse"
       spreadMethod="pad" />
    <radialGradient
       inkscape:collect="always"
       xlink:href="#linearGradient3804"
       id="radialGradient3812"
       cx="463.44406"
       cy="147.75865"
       fx="463.44406"
       fy="147.75865"
       r="24"
       gradientTransform="matrix(0,0.15293779,-1.2695525,0,601.01826,86.141386)"
       gradientUnits="userSpaceOnUse" />
    <radialGradient
       inkscape:collect="always"
       xlink:href="#linearGradient3842"
       id="radialGradient3814"
       cx="466.00003"
       cy="169.99817"
       fx="466.00003"
       fy="169.99817"
       r="22.000299"
       gradientTransform="matrix(1.7299411,0,0,0.13076234,-340.15263,135.34573)"
       gradientUnits="userSpaceOnUse" />
    <clipPath
       id="clipPath4082"
       clipPathUnits="userSpaceOnUse">
      <path
         inkscape:connector-curvature="0"
         id="path4084"
         d="m 468.00076,172.00781 0,-1 -3,0 0,-3 -1,0 0,4 z"
         style="opacity:0.1;fill:#000000;fill-opacity:1;stroke:none"
         sodipodi:nodetypes="ccccccc" />
    </clipPath>
    <clipPath
       id="clipPath4005"
       clipPathUnits="userSpaceOnUse">
      <path
         sodipodi:nodetypes="cccccccc"
         inkscape:connector-curvature="0"
         id="path4007"
         d="m 464.00076,165.00781 0,2 5,5 0,3 3,0 0,-6.5 -3.49729,-3.5 z"
         style="opacity:0.06000001;fill:#000000;fill-opacity:1;stroke:none" />
    </clipPath>
    <clipPath
       clipPathUnits="userSpaceOnUse"
       id="clipPath4014">
      <rect
         style="opacity:0.21000001;fill:#000000;fill-opacity:1;stroke:none"
         id="rect4016"
         width="8"
         height="1"
         x="2"
         y="4" />
    </clipPath>
    <clipPath
       clipPathUnits="userSpaceOnUse"
       id="clipPath4022">
      <rect
         y="6"
         x="2"
         height="1"
         width="8"
         id="rect4024"
         style="opacity:0.21000001;fill:#000000;fill-opacity:1;stroke:none" />
    </clipPath>
    <clipPath
       clipPathUnits="userSpaceOnUse"
       id="clipPath4026">
      <rect
         style="opacity:0.21000001;fill:#000000;fill-opacity:1;stroke:none"
         id="rect4028"
         width="8"
         height="1"
         x="2"
         y="7" />
    </clipPath>
    <clipPath
       clipPathUnits="userSpaceOnUse"
       id="clipPath4030">
      <rect
         y="8"
         x="2"
         height="1"
         width="8"
         id="rect4032"
         style="opacity:0.21000001;fill:#000000;fill-opacity:1;stroke:none" />
    </clipPath>
    <clipPath
       clipPathUnits="userSpaceOnUse"
       id="clipPath4034">
      <rect
         style="opacity:0.21000001;fill:#000000;fill-opacity:1;stroke:none"
         id="rect4036"
         width="8"
         height="1"
         x="2"
         y="9" />
    </clipPath>
    <clipPath
       clipPathUnits="userSpaceOnUse"
       id="clipPath4038">
      <rect
         y="10"
         x="2"
         height="1"
         width="8"
         id="rect4040"
         style="opacity:0.21000001;fill:#000000;fill-opacity:1;stroke:none" />
    </clipPath>
    <clipPath
       clipPathUnits="userSpaceOnUse"
       id="clipPath4052">
      <rect
         y="11"
         x="2"
         height="1"
         width="8"
         id="rect4054"
         style="opacity:0.21000001;fill:#000000;fill-opacity:1;stroke:none" />
    </clipPath>
    <clipPath
       clipPathUnits="userSpaceOnUse"
       id="clipPath4056">
      <rect
         style="opacity:0.21000001;fill:#000000;fill-opacity:1;stroke:none"
         id="rect4058"
         width="8"
         height="1"
         x="2"
         y="12" />
    </clipPath>
    <clipPath
       clipPathUnits="userSpaceOnUse"
       id="clipPath4060">
      <rect
         y="189"
         x="444"
         height="1"
         width="8"
         id="rect4062"
         style="opacity:0.21000001;fill:#000000;fill-opacity:1;stroke:none" />
    </clipPath>
    <clipPath
       clipPathUnits="userSpaceOnUse"
       id="clipPath4066">
      <rect
         style="opacity:0.21000001;fill:#000000;fill-opacity:1;stroke:none"
         id="rect4068"
         width="8"
         height="1"
         x="2"
         y="4" />
    </clipPath>
    <linearGradient
       gradientTransform="translate(442,144)"
       y2="13.00059"
       x2="24.000002"
       y1="20.169643"
       x1="24.000002"
       gradientUnits="userSpaceOnUse"
       id="linearGradient3840-3"
       xlink:href="#linearGradient3978-3"
       inkscape:collect="always" />
    <linearGradient
       id="linearGradient3767-5">
      <stop
         id="stop3769-5"
         offset="0"
         style="stop-color:#aec8dc;stop-opacity:1;" />
      <stop
         style="stop-color:#abc6db;stop-opacity:1;"
         offset="0.155"
         id="stop3777-4" />
      <stop
         style="stop-color:#7fa9c8;stop-opacity:1;"
         offset="0.83099997"
         id="stop3775-8" />
      <stop
         id="stop3771-7"
         offset="1"
         style="stop-color:#7599c4;stop-opacity:0.99607843;" />
    </linearGradient>
    <linearGradient
       id="linearGradient3811-3">
      <stop
         style="stop-color:#507099;stop-opacity:1;"
         offset="0"
         id="stop3813-0" />
      <stop
         id="stop3815-7"
         offset="0.1"
         style="stop-color:#7999c2;stop-opacity:1;" />
      <stop
         style="stop-color:#becfe4;stop-opacity:1;"
         offset="1"
         id="stop3819-1" />
    </linearGradient>
    <linearGradient
       id="linearGradient3821-1">
      <stop
         id="stop3823-4"
         offset="0"
         style="stop-color:#6087ba;stop-opacity:1;" />
      <stop
         style="stop-color:#85a5cb;stop-opacity:1;"
         offset="0.57654178"
         id="stop3829-0" />
      <stop
         id="stop3825-4"
         offset="1"
         style="stop-color:#99b4d4;stop-opacity:1;" />
    </linearGradient>
    <linearGradient
       id="linearGradient3978-3">
      <stop
         id="stop3980-8"
         offset="0"
         style="stop-color:#becfe4;stop-opacity:0;" />
      <stop
         id="stop3984-0"
         offset="1"
         style="stop-color:#becfe4;stop-opacity:1;" />
    </linearGradient>
    <linearGradient
       id="linearGradient3804-6">
      <stop
         id="stop3806-2"
         offset="0"
         style="stop-color:#becfe4;stop-opacity:1;" />
      <stop
         id="stop3810-1"
         offset="1"
         style="stop-color:#becfe4;stop-opacity:0;" />
    </linearGradient>
    <linearGradient
       id="linearGradient3842-7">
      <stop
         style="stop-color:#6087ba;stop-opacity:1;"
         offset="0"
         id="stop3844-2" />
      <stop
         id="stop3846-3"
         offset="0.5074119"
         style="stop-color:#85a5cb;stop-opacity:1;" />
      <stop
         style="stop-color:#99b4d4;stop-opacity:1;"
         offset="1"
         id="stop3848-8" />
    </linearGradient>
    <linearGradient
       inkscape:collect="always"
       xlink:href="#linearGradient4032"
       id="linearGradient4067"
       gradientUnits="userSpaceOnUse"
       gradientTransform="matrix(2.6981199,0,0,1.483765,438.75337,124.97601)"
       x1="10.098371"
       y1="42.476883"
       x2="10.098371"
       y2="45.170418" />
    <radialGradient
       inkscape:collect="always"
       xlink:href="#linearGradient4044"
       id="radialGradient4069"
       gradientUnits="userSpaceOnUse"
       gradientTransform="matrix(1.6100629,0,0,1.6100629,-27.59749,-26.99371)"
       cx="45.710941"
       cy="45.335938"
       fx="45.710941"
       fy="45.335938"
       r="1.2421875" />
    <radialGradient
       inkscape:collect="always"
       xlink:href="#linearGradient4044"
       id="radialGradient4071"
       gradientUnits="userSpaceOnUse"
       gradientTransform="matrix(1.6100629,0,0,1.6100629,-71.59749,-26.99371)"
       cx="45.710941"
       cy="45.335938"
       fx="45.710941"
       fy="45.335938"
       r="1.2421875" />
    <linearGradient
       inkscape:collect="always"
       xlink:href="#linearGradient4032"
       id="linearGradient4081"
       gradientUnits="userSpaceOnUse"
       gradientTransform="matrix(2.6981199,0,0,1.483765,438.75337,124.97601)"
       x1="10.098371"
       y1="42.476883"
       x2="10.098371"
       y2="45.170418" />
    <radialGradient
       inkscape:collect="always"
       xlink:href="#linearGradient4044"
       id="radialGradient4083"
       gradientUnits="userSpaceOnUse"
       gradientTransform="matrix(1.6100629,0,0,1.6100629,-27.59749,-26.99371)"
       cx="45.710941"
       cy="45.335938"
       fx="45.710941"
       fy="45.335938"
       r="1.2421875" />
    <radialGradient
       inkscape:collect="always"
       xlink:href="#linearGradient4044"
       id="radialGradient4085"
       gradientUnits="userSpaceOnUse"
       gradientTransform="matrix(1.6100629,0,0,1.6100629,-71.59749,-26.99371)"
       cx="45.710941"
       cy="45.335938"
       fx="45.710941"
       fy="45.335938"
       r="1.2421875" />
    <radialGradient
       inkscape:collect="always"
       xlink:href="#linearGradient3767"
       id="radialGradient4098"
       gradientUnits="userSpaceOnUse"
       gradientTransform="matrix(0,1.2062815,-3.2911491,0,374.38517,147.4456)"
       spreadMethod="pad"
       cx="7.9357204"
       cy="-24.355911"
       fx="7.9357204"
       fy="-24.355911"
       r="24" />
    <radialGradient
       inkscape:collect="always"
       xlink:href="#linearGradient3767"
       id="radialGradient4104"
       gradientUnits="userSpaceOnUse"
       gradientTransform="matrix(0,1.1230437,-3.1540178,0,378.20249,149.10598)"
       spreadMethod="pad"
       cx="7.9357204"
       cy="-24.355911"
       fx="7.9357204"
       fy="-24.355911"
       r="24" />
    <radialGradient
       inkscape:collect="always"
       xlink:href="#linearGradient3767"
       id="radialGradient4106"
       gradientUnits="userSpaceOnUse"
       gradientTransform="matrix(0,1.2062815,-3.2911491,0,-67.61483,3.4456)"
       spreadMethod="pad"
       cx="7.9357204"
       cy="-24.355911"
       fx="7.9357204"
       fy="-24.355911"
       r="24" />
    <radialGradient
       inkscape:collect="always"
       xlink:href="#linearGradient3804"
       id="radialGradient4119"
       cx="25.782488"
       cy="11.29454"
       fx="25.782488"
       fy="11.29454"
       r="24.000761"
       gradientTransform="matrix(0,0.15173916,-1.2794878,0,31.944393,9.4047155)"
       gradientUnits="userSpaceOnUse" />
    <radialGradient
       inkscape:collect="always"
       xlink:href="#linearGradient3877"
       id="radialGradient3971"
       gradientUnits="userSpaceOnUse"
       gradientTransform="matrix(-1.8646017,0,0,1.3984512,561.60954,128.82468)"
       cx="40.549969"
       cy="40.884739"
       fx="40.549969"
       fy="40.884739"
       r="2.1452303" />
    <linearGradient
       inkscape:collect="always"
       id="linearGradient3877">
      <stop
         style="stop-color:#000000;stop-opacity:1;"
         offset="0"
         id="stop3879" />
      <stop
         style="stop-color:#000000;stop-opacity:0;"
         offset="1"
         id="stop3881" />
    </linearGradient>
    <radialGradient
       inkscape:collect="always"
       xlink:href="#linearGradient3877"
       id="radialGradient3968"
       gradientUnits="userSpaceOnUse"
       gradientTransform="matrix(1.8646017,0,0,1.3984512,370.39046,128.82468)"
       cx="40.549969"
       cy="40.884739"
       fx="40.549969"
       fy="40.884739"
       r="2.1452303" />
    <linearGradient
       inkscape:collect="always"
       xlink:href="#linearGradient3893"
       id="linearGradient3965"
       gradientUnits="userSpaceOnUse"
       gradientTransform="matrix(1,0,0,1.5,0,-93)"
       x1="466"
       y1="188.00159"
       x2="466"
       y2="183.99841" />
    <linearGradient
       id="linearGradient3893">
      <stop
         style="stop-color:#000000;stop-opacity:0;"
         offset="0"
         id="stop3895" />
      <stop
         id="stop3901"
         offset="0.5"
         style="stop-color:#000000;stop-opacity:1;" />
      <stop
         style="stop-color:#000000;stop-opacity:0;"
         offset="1"
         id="stop3897" />
    </linearGradient>
    <linearGradient
       y2="183.99841"
       x2="466"
       y1="188.00159"
       x1="466"
       gradientTransform="matrix(1,0,0,1.5,0,-93)"
       gradientUnits="userSpaceOnUse"
       id="linearGradient4008"
       xlink:href="#linearGradient3893"
       inkscape:collect="always" />
    <linearGradient
       id="linearGradient3842-3">
      <stop
         id="stop3844-6"
         offset="0"
         style="stop-color:#6087ba;stop-opacity:1;" />
      <stop
         style="stop-color:#85a5cb;stop-opacity:1;"
         offset="0.5074119"
         id="stop3846-9" />
      <stop
         id="stop3848-3"
         offset="1"
         style="stop-color:#99b4d4;stop-opacity:1;" />
    </linearGradient>
    <clipPath
       clipPathUnits="userSpaceOnUse"
       id="clipPath4031">
      <path
         sodipodi:nodetypes="sssccsssssssssss"
         inkscape:connector-curvature="0"
         id="path4033"
         d="M 6,6 C 4.892,6 4,6.892 4,8 L 4,8.1875 C 4,9.1410192 3.6639388,9.9535066 3.21875,10.15625 L 3.15625,10.1875 C 2.4720246,10.504525 2,11.193701 2,12 l 0,14 c 0,1.108 0.892,2 2,2 l 40,0 c 1.108,0 2,-0.892 2,-2 l 0,-14 c 0,-1.108 -0.892,-2 -2,-2 L 22,10 C 20.892,10 20,9.108 20,8 20,6.892 19.108,6 18,6 z"
         style="fill:url(#radialGradient4035);fill-opacity:1;stroke:none" />
    </clipPath>
    <linearGradient
       inkscape:collect="always"
       id="linearGradient3877-7">
      <stop
         style="stop-color:#000000;stop-opacity:1;"
         offset="0"
         id="stop3879-7" />
      <stop
         style="stop-color:#000000;stop-opacity:0;"
         offset="1"
         id="stop3881-0" />
    </linearGradient>
    <linearGradient
       id="linearGradient3893-5">
      <stop
         style="stop-color:#000000;stop-opacity:0;"
         offset="0"
         id="stop3895-7" />
      <stop
         id="stop3901-1"
         offset="0.5"
         style="stop-color:#000000;stop-opacity:1;" />
      <stop
         style="stop-color:#000000;stop-opacity:0;"
         offset="1"
         id="stop3897-3" />
    </linearGradient>
    <linearGradient
       id="linearGradient3767-0">
      <stop
         style="stop-color:#aec8dc;stop-opacity:1;"
         offset="0"
         id="stop3769-2" />
      <stop
         id="stop3777-5"
         offset="0.155"
         style="stop-color:#abc6db;stop-opacity:1;" />
      <stop
         id="stop3775-0"
         offset="0.83099997"
         style="stop-color:#7fa9c8;stop-opacity:1;" />
      <stop
         style="stop-color:#7599c4;stop-opacity:0.99607843;"
         offset="1"
         id="stop3771-77" />
    </linearGradient>
    <radialGradient
       inkscape:collect="always"
       xlink:href="#linearGradient3804-5"
       id="radialGradient4019"
       gradientUnits="userSpaceOnUse"
       gradientTransform="matrix(3.4562171e-7,0.16657485,-1.2499999,2.5907372e-6,651.88566,79.391409)"
       cx="466"
       cy="153.50829"
       fx="466"
       fy="153.50829"
       r="24.000002" />
    <linearGradient
       id="linearGradient3804-5">
      <stop
         style="stop-color:#becfe4;stop-opacity:1;"
         offset="0"
         id="stop3806-9" />
      <stop
         style="stop-color:#becfe4;stop-opacity:0;"
         offset="1"
         id="stop3810-2" />
    </linearGradient>
    <clipPath
       clipPathUnits="userSpaceOnUse"
       id="clipPath4043">
      <path
         sodipodi:nodetypes="scscsccscss"
         inkscape:connector-curvature="0"
         id="path4045"
         d="m 443.9382,157.01581 c -1.06924,0 -1.93744,0.86898 -1.93744,1.96873 0,0 0.75422,5.33421 1.0001,8.01552 0.51835,5.65267 1.00009,16.99978 1.00009,16.99978 0.13097,1.09193 0.8682,1.99997 1.93744,1.99997 l 40.12322,0 c 1.06924,0 1.93744,-0.90022 1.93744,-1.99997 0,0 0.48174,-11.34711 1.00009,-16.99978 0.24588,-2.68131 1.0001,-8.01552 1.0001,-8.01552 0.0439,-1.09887 -0.8682,-1.96873 -1.93744,-1.96873 z"
         style="fill:url(#radialGradient4047);fill-opacity:1" />
    </clipPath>
    <radialGradient
       r="24.000002"
       fy="153.50829"
       fx="466"
       cy="153.50829"
       cx="466"
       gradientTransform="matrix(3.4562171e-7,0.16657485,-1.2499999,2.5907372e-6,651.88566,79.391409)"
       gradientUnits="userSpaceOnUse"
       id="radialGradient4074"
       xlink:href="#linearGradient3804"
       inkscape:collect="always" />
    <radialGradient
       inkscape:collect="always"
       xlink:href="#linearGradient3842"
       id="radialGradient4059"
       gradientUnits="userSpaceOnUse"
       gradientTransform="matrix(1.9687502,0,0,0.13752596,418.74846,154.16651)"
       cx="24.003258"
       cy="20.718264"
       fx="24.003258"
       fy="20.718264"
       r="22" />
    <radialGradient
       inkscape:collect="always"
       xlink:href="#linearGradient3877-7"
       id="radialGradient4061"
       gradientUnits="userSpaceOnUse"
       gradientTransform="matrix(-0.9323017,0,0,0.9323008,524.80404,147.88312)"
       cx="40.549969"
       cy="40.884739"
       fx="40.549969"
       fy="40.884739"
       r="2.1452303" />
    <radialGradient
       inkscape:collect="always"
       xlink:href="#linearGradient3877-7"
       id="radialGradient4063"
       gradientUnits="userSpaceOnUse"
       gradientTransform="matrix(0.93230167,0,0,0.9323008,407.19444,147.88312)"
       cx="40.549969"
       cy="40.884739"
       fx="40.549969"
       fy="40.884739"
       r="2.1452303" />
    <linearGradient
       inkscape:collect="always"
       xlink:href="#linearGradient3893-5"
       id="linearGradient4065"
       gradientUnits="userSpaceOnUse"
       gradientTransform="matrix(1.05,0,0,1,-23.300785,-1.31e-6)"
       x1="466"
       y1="188.00159"
       x2="466"
       y2="183.99841" />
    <radialGradient
       inkscape:collect="always"
       xlink:href="#linearGradient3767"
       id="radialGradient4067"
       gradientUnits="userSpaceOnUse"
       gradientTransform="matrix(0,1.2069474,-3.2911491,0,374.38441,147.42432)"
       spreadMethod="pad"
       cx="7.9357204"
       cy="-24.355911"
       fx="7.9357204"
       fy="-24.355911"
       r="24" />
  </defs>
  <g
     inkscape:label="status"
     transform="translate(-442,-144)"
     inkscape:groupmode="layer"
     id="layer9"
     style="display:inline" />
  <g
     inkscape:label="devices"
     transform="translate(-442,-144)"
     inkscape:groupmode="layer"
     id="layer10" />
  <g
     inkscape:label="apps"
     transform="translate(-442,-144)"
     inkscape:groupmode="layer"
     id="layer11" />
  <g
     inkscape:label="actions"
     transform="translate(-442,-144)"
     inkscape:groupmode="layer"
     id="layer12" />
  <g
     inkscape:label="places"
     transform="translate(-442,-144)"
     inkscape:groupmode="layer"
     id="layer13">
    <g
       transform="translate(-1.38e-4,0)"
       id="g3948">
      <path
         sodipodi:nodetypes="sssccsssssssssss"
         inkscape:connector-curvature="0"
         id="rect3135"
         d="m 447.99924,150 c -1.108,0 -2,0.892 -2,2 l 0,0.1875 c 0,0.95352 -0.33606,1.76601 -0.78125,1.96875 l -0.0625,0.0313 c -0.68423,0.31702 -1.15625,1.0062 -1.15625,1.8125 l 0,14 c 0,1.108 0.892,2 2,2 l 40,0 c 1.108,0 2,-0.892 2,-2 l 0,-14 c 0,-1.108 -0.892,-2 -2,-2 l -22,0 c -1.108,0 -2,-0.892 -2,-2 0,-1.108 -0.892,-2 -2,-2 z"
         style="fill:url(#radialGradient4059);fill-opacity:1;stroke:none" />
      <path
         clip-path="url(#clipPath4031)"
         style="opacity:0.02000002;fill:none;stroke:#000000;stroke-width:2;stroke-linejoin:round;stroke-miterlimit:4;stroke-opacity:1;stroke-dasharray:none"
         d="M 6,6 C 4.892,6 4,6.892 4,8 L 4,8.1875 C 4,9.1410192 3.6639388,9.9535066 3.21875,10.15625 L 3.15625,10.1875 C 2.4720246,10.504525 2,11.193701 2,12 l 0,14 c 0,1.108 0.892,2 2,2 l 40,0 c 1.108,0 2,-0.892 2,-2 l 0,-14 c 0,-1.108 -0.892,-2 -2,-2 L 22,10 C 20.892,10 20,9.108 20,8 20,6.892 19.108,6 18,6 z"
         transform="translate(441.99924,144)"
         id="path4027"
         inkscape:connector-curvature="0"
         sodipodi:nodetypes="sssccsssssssssss" />
      <path
         inkscape:connector-curvature="0"
         style="opacity:0.6;fill:url(#radialGradient4061);fill-opacity:1;stroke:none"
         d="m 486.99924,184 c 1.10457,0 2,0.89543 2,2 0,1.10457 -0.89543,2 -2,2 l 0,-4 z"
         id="path3949-0" />
      <path
         id="path3103-2"
         d="m 444.99924,184 c -1.10457,0 -2,0.89543 -2,2 0,1.10457 0.89543,2 2,2 l 0,-4 z"
         style="opacity:0.6;fill:url(#radialGradient4063);fill-opacity:1;stroke:none"
         inkscape:connector-curvature="0" />
      <rect
         ry="0"
         rx="0"
         y="184"
         x="444.99924"
         height="4"
         width="42"
         id="rect3107-0"
         style="opacity:0.6;fill:url(#linearGradient4065);fill-opacity:1;stroke:none" />
      <path
         sodipodi:nodetypes="scscsccscss"
         inkscape:connector-curvature="0"
         id="path4170-9"
         d="m 443.93744,156.99981 c -1.06924,0 -1.93744,0.86946 -1.93744,1.96982 0,0 0.75422,5.33715 1.0001,8.01994 0.51835,5.65579 1.00009,17.00917 1.00009,17.00917 0.13097,1.09253 0.8682,2.00107 1.93744,2.00107 l 40.12322,0 c 1.06924,0 1.93744,-0.90072 1.93744,-2.00107 0,0 0.48174,-11.35338 1.00009,-17.00917 0.24588,-2.68279 1.0001,-8.01994 1.0001,-8.01994 0.0439,-1.09948 -0.8682,-1.96982 -1.93744,-1.96982 z"
         style="fill:url(#radialGradient4067);fill-opacity:1" />
      <path
         transform="matrix(1.0000002,0,0,1.0005509,-5.8356545e-4,-0.10218424)"
         clip-path="url(#clipPath4043)"
         style="fill:none;stroke:url(#radialGradient4074);stroke-width:1.99944913;stroke-linejoin:round;stroke-miterlimit:4;stroke-opacity:1;stroke-dasharray:none"
         d="m 443.9382,157.01581 c -1.06924,0 -1.93744,0.86898 -1.93744,1.96873 0,0 0.75422,5.33421 1.0001,8.01552 0.51835,5.65267 1.00009,16.99978 1.00009,16.99978 0.13097,1.09193 0.8682,1.99997 1.93744,1.99997 l 40.12322,0 c 1.06924,0 1.93744,-0.90022 1.93744,-1.99997 0,0 0.48174,-11.34711 1.00009,-16.99978 0.24588,-2.68131 1.0001,-8.01552 1.0001,-8.01552 0.0439,-1.09887 -0.8682,-1.96873 -1.93744,-1.96873 z"
         id="path4039"
         inkscape:connector-curvature="0"
         sodipodi:nodetypes="scscsccscss" />
    </g>
    <g
       inkscape:label="status"
       transform="translate(60.32173,1.10742)"
       id="layer9-7"
       style="display:inline" />
    <g
       inkscape:label="devices"
       transform="translate(60.32173,1.10742)"
       id="layer10-9" />
    <g
       inkscape:label="apps"
       transform="translate(60.32173,1.10742)"
       id="layer11-7" />
    <g
       inkscape:label="actions"
       transform="translate(60.32173,1.10742)"
       id="layer12-39" />
    <g
       style="display:inline"
       id="layer9-8"
       transform="translate(121.09299,-8.3354123)"
       inkscape:label="status" />
    <g
       id="layer10-2"
       transform="translate(121.09299,-8.3354123)"
       inkscape:label="devices" />
    <g
       id="layer11-1"
       transform="translate(121.09299,-8.3354123)"
       inkscape:label="apps" />
    <g
       id="layer12-3"
       transform="translate(121.09299,-8.3354123)"
       inkscape:label="actions" />
    <g
       transform="translate(121.09299,-8.3354123)"
       style="fill:#697380;fill-opacity:1"
       id="g3941" />
    <g
       id="layer14-8"
       transform="translate(121.09299,-8.3354123)"
       inkscape:label="mimetypes" />
    <g
       style="display:inline"
       id="layer15-1"
       transform="translate(121.09299,-8.3354123)"
       inkscape:label="emblems" />
    <g
       inkscape:label="mimetypes"
       transform="translate(60.32173,1.10742)"
       id="layer14-2" />
    <g
       inkscape:label="emblems"
       transform="translate(60.32173,1.10742)"
       id="layer15-0"
       style="display:inline" />
    <path
       id="path3815"
       d="m 465,163 0,2.09375 c -0.90834,0.1512 -1.71589,0.52065 -2.4375,1.03125 l -1.5,-1.5 -1.4375,1.4375 1.5,1.5 c -0.5106,0.72161 -0.88005,1.52916 -1.03125,2.4375 L 458,170 l 0,2 2.09375,0 c 0.1512,0.90834 0.52065,1.71589 1.03125,2.4375 l -1.5,1.5 1.4375,1.4375 1.5,-1.5 c 0.72161,0.5106 1.52916,0.88005 2.4375,1.03125 l 0,2.09375 2,0 0,-2.09375 c 0.90834,-0.1512 1.71589,-0.52065 2.4375,-1.03125 l 1.5,1.5 1.4375,-1.4375 -1.5,-1.5 c 0.5106,-0.72161 0.88005,-1.52916 1.03125,-2.4375 l 2.09375,0 0,-2 -2.09375,0 c -0.1512,-0.90834 -0.52065,-1.71589 -1.03125,-2.4375 l 1.5,-1.5 -1.4375,-1.4375 -1.5,1.5 c -0.72161,-0.5106 -1.52916,-0.88005 -2.4375,-1.03125 L 467,163 l -2,0 z m 1,6 c 1.10457,0 2,0.89543 2,2 0,1.10457 -0.89543,2 -2,2 -1.10457,0 -2,-0.89543 -2,-2 0,-1.10457 0.89543,-2 2,-2 z"
       style="opacity:0.1;fill:#000000;fill-opacity:1;stroke:none"
       inkscape:connector-curvature="0" />
    <path
       style="opacity:0.1;fill:#000000;fill-opacity:1;stroke:none"
       d="M 23 19 L 23 20 L 25 20 L 25 19 L 23 19 z M 19.0625 20.625 L 17.625 22.0625 L 18.125 22.5625 L 19.0625 21.625 L 20.5625 23.125 C 21.28411 22.6144 22.09166 22.24495 23 22.09375 L 23 21.09375 C 22.09166 21.24495 21.28411 21.6144 20.5625 22.125 L 19.0625 20.625 z M 28.9375 20.625 L 27.4375 22.125 C 26.71589 21.6144 25.90834 21.24495 25 21.09375 L 25 22.09375 C 25.90834 22.24495 26.71589 22.6144 27.4375 23.125 L 28.9375 21.625 L 29.875 22.5625 L 30.375 22.0625 L 28.9375 20.625 z M 18.75 24.1875 C 18.441008 24.745091 18.203214 25.342389 18.09375 26 L 16 26 L 16 27 L 18.09375 27 C 18.24495 26.09166 18.6144 25.28411 19.125 24.5625 L 18.75 24.1875 z M 29.25 24.1875 L 28.875 24.5625 C 29.3856 25.28411 29.75505 26.09166 29.90625 27 L 32 27 L 32 26 L 29.90625 26 C 29.796786 25.342389 29.558992 24.745091 29.25 24.1875 z M 22.0625 27.5 C 22.021396 27.659759 22 27.827411 22 28 C 22 29.10457 22.89543 30 24 30 C 25.10457 30 26 29.10457 26 28 C 26 27.827411 25.978604 27.659759 25.9375 27.5 C 25.715537 28.362699 24.931981 29 24 29 C 23.068019 29 22.284463 28.362699 22.0625 27.5 z M 18.75 30.8125 L 17.625 31.9375 L 18.125 32.4375 L 19.125 31.4375 C 18.984059 31.238314 18.86781 31.025095 18.75 30.8125 z M 29.25 30.8125 C 29.13219 31.025095 29.015941 31.238314 28.875 31.4375 L 29.875 32.4375 L 30.375 31.9375 L 29.25 30.8125 z "
       transform="translate(442,144)"
       id="path3874" />
    <path
       style="opacity:0.2;fill:#ffffff;fill-opacity:1;stroke:none"
       d="m 460.125,166.5625 -0.5,0.5 1.125,1.125 c 0.11781,-0.21259 0.23406,-0.42581 0.375,-0.625 l -1,-1 z m 11.75,0 -1,1 c 0.14094,0.19919 0.25719,0.41241 0.375,0.625 l 1.125,-1.125 -0.5,-0.5 z M 466,169 c -1.10457,0 -2,0.89543 -2,2 0,0.17259 0.0214,0.34024 0.0625,0.5 0.22196,-0.8627 1.00552,-1.5 1.9375,-1.5 0.93198,0 1.71554,0.6373 1.9375,1.5 0.0411,-0.15976 0.0625,-0.32741 0.0625,-0.5 0,-1.10457 -0.89543,-2 -2,-2 z m -8,3 0,1 2.09375,0 c 0.10946,0.65761 0.34726,1.25491 0.65625,1.8125 l 0.375,-0.375 c -0.5106,-0.72161 -0.88005,-1.52916 -1.03125,-2.4375 L 458,172 z m 13.90625,0 c -0.1512,0.90834 -0.52065,1.71589 -1.03125,2.4375 l 0.375,0.375 c 0.30899,-0.55759 0.54679,-1.15489 0.65625,-1.8125 l 2.09375,0 0,-1 -2.09375,0 z m -9.34375,3.875 -1.5,1.5 -0.9375,-0.9375 -0.5,0.5 1.4375,1.4375 1.5,-1.5 c 0.72161,0.5106 1.52916,0.88005 2.4375,1.03125 l 0,-1 c -0.90834,-0.1512 -1.71589,-0.52065 -2.4375,-1.03125 z m 6.875,0 c -0.72161,0.5106 -1.52916,0.88005 -2.4375,1.03125 l 0,1 c 0.90834,-0.1512 1.71589,-0.52065 2.4375,-1.03125 l 1.5,1.5 1.4375,-1.4375 -0.5,-0.5 -0.9375,0.9375 -1.5,-1.5 z M 465,179 l 0,1 2,0 0,-1 -2,0 z"
       id="path3879"
       inkscape:connector-curvature="0" />
  </g>
  <g
     inkscape:label="mimetypes"
     transform="translate(-442,-144)"
     inkscape:groupmode="layer"
     id="layer14" />
  <g
     inkscape:label="emblems"
     transform="translate(-442,-144)"
     inkscape:groupmode="layer"
     id="layer15"
     style="display:inline" />
</svg>
