<?xml version="1.0" encoding="UTF-8" standalone="no"?>
<!-- Created with Inkscape (http://www.inkscape.org/) -->

<svg
   xmlns:dc="http://purl.org/dc/elements/1.1/"
   xmlns:cc="http://creativecommons.org/ns#"
   xmlns:rdf="http://www.w3.org/1999/02/22-rdf-syntax-ns#"
   xmlns:svg="http://www.w3.org/2000/svg"
   xmlns="http://www.w3.org/2000/svg"
   xmlns:xlink="http://www.w3.org/1999/xlink"
   xmlns:sodipodi="http://sodipodi.sourceforge.net/DTD/sodipodi-0.dtd"
   xmlns:inkscape="http://www.inkscape.org/namespaces/inkscape"
   id="svg7384"
   sodipodi:docname="folder-music.svg"
   version="1.1"
   inkscape:version="0.48.4 r9939"
   height="48"
   width="48">
  <metadata
     id="metadata90">
    <rdf:RDF>
      <cc:Work
         rdf:about="">
        <dc:format>image/svg+xml</dc:format>
        <dc:type
           rdf:resource="http://purl.org/dc/dcmitype/StillImage" />
        <dc:title>Gnome Symbolic Icon Theme</dc:title>
      </cc:Work>
    </rdf:RDF>
  </metadata>
  <sodipodi:namedview
     inkscape:cy="17.872509"
     pagecolor="#ffffff"
     borderopacity="1"
     showborder="true"
     inkscape:bbox-paths="false"
     guidetolerance="10"
     inkscape:window-width="1280"
     showguides="true"
     inkscape:object-nodes="true"
     inkscape:snap-bbox="true"
     inkscape:pageshadow="2"
     inkscape:guide-bbox="true"
     inkscape:snap-nodes="true"
     bordercolor="#666666"
     objecttolerance="10"
     id="namedview88"
     showgrid="false"
     inkscape:window-maximized="1"
     inkscape:window-x="0"
     inkscape:snap-global="true"
     inkscape:window-y="24"
     gridtolerance="10"
     inkscape:window-height="1000"
     inkscape:snap-to-guides="true"
     inkscape:current-layer="layer13"
     inkscape:zoom="11.313708"
     inkscape:cx="18.033712"
     inkscape:snap-grids="true"
     inkscape:pageopacity="1">
    <inkscape:grid
       spacingx="1px"
       spacingy="1px"
       id="grid4866"
       empspacing="2"
       enabled="true"
       type="xygrid"
       snapvisiblegridlinesonly="true"
       visible="true" />
  </sodipodi:namedview>
  <title
     id="title9167">Gnome Symbolic Icon Theme</title>
  <defs
     id="defs7386">
    <linearGradient
       id="linearGradient4044">
      <stop
         style="stop-color:#000000;stop-opacity:0.49803922;"
         offset="0"
         id="stop4046" />
      <stop
         style="stop-color:#000000;stop-opacity:0;"
         offset="1"
         id="stop4048" />
    </linearGradient>
    <linearGradient
       id="linearGradient4032">
      <stop
         style="stop-color:#000000;stop-opacity:0;"
         offset="0"
         id="stop4034" />
      <stop
         id="stop4040"
         offset="0.5"
         style="stop-color:#000000;stop-opacity:0.49803922;" />
      <stop
         style="stop-color:#000000;stop-opacity:0;"
         offset="1"
         id="stop4036" />
    </linearGradient>
    <linearGradient
       id="linearGradient3842">
      <stop
         id="stop3844"
         offset="0"
         style="stop-color:#6087ba;stop-opacity:1;" />
      <stop
         style="stop-color:#85a5cb;stop-opacity:1;"
         offset="0.5074119"
         id="stop3846" />
      <stop
         id="stop3848"
         offset="1"
         style="stop-color:#99b4d4;stop-opacity:1;" />
    </linearGradient>
    <linearGradient
       id="linearGradient3804">
      <stop
         style="stop-color:#becfe4;stop-opacity:1;"
         offset="0"
         id="stop3806" />
      <stop
         style="stop-color:#becfe4;stop-opacity:0;"
         offset="1"
         id="stop3810" />
    </linearGradient>
    <linearGradient
       id="linearGradient3978">
      <stop
         style="stop-color:#becfe4;stop-opacity:0;"
         offset="0"
         id="stop3980" />
      <stop
         style="stop-color:#becfe4;stop-opacity:1;"
         offset="1"
         id="stop3984" />
    </linearGradient>
    <linearGradient
       id="linearGradient3821">
      <stop
         style="stop-color:#6087ba;stop-opacity:1;"
         offset="0"
         id="stop3823" />
      <stop
         id="stop3829"
         offset="0.57654178"
         style="stop-color:#85a5cb;stop-opacity:1;" />
      <stop
         style="stop-color:#99b4d4;stop-opacity:1;"
         offset="1"
         id="stop3825" />
    </linearGradient>
    <linearGradient
       id="linearGradient3811">
      <stop
         id="stop3813"
         offset="0"
         style="stop-color:#507099;stop-opacity:1;" />
      <stop
         style="stop-color:#7999c2;stop-opacity:1;"
         offset="0.1"
         id="stop3815" />
      <stop
         id="stop3819"
         offset="1"
         style="stop-color:#becfe4;stop-opacity:1;" />
    </linearGradient>
    <linearGradient
       id="linearGradient3767">
      <stop
         style="stop-color:#aec8dc;stop-opacity:1;"
         offset="0"
         id="stop3769" />
      <stop
         id="stop3777"
         offset="0.155"
         style="stop-color:#abc6db;stop-opacity:1;" />
      <stop
         id="stop3775"
         offset="0.83099997"
         style="stop-color:#7fa9c8;stop-opacity:1;" />
      <stop
         style="stop-color:#7599c4;stop-opacity:0.99607843;"
         offset="1"
         id="stop3771" />
    </linearGradient>
    <linearGradient
       inkscape:collect="always"
       xlink:href="#linearGradient3978"
       id="linearGradient3840"
       gradientUnits="userSpaceOnUse"
       x1="24.000002"
       y1="20.169643"
       x2="24.000002"
       y2="13.00059"
       gradientTransform="translate(442,144)" />
    <radialGradient
       inkscape:collect="always"
       xlink:href="#linearGradient3767"
       id="radialGradient3782"
       cx="7.9357204"
       cy="-24.355911"
       fx="7.9357204"
       fy="-24.355911"
       r="24"
       gradientTransform="matrix(0,1.2062971,-3.2912536,0,-67.617741,3.4452919)"
       gradientUnits="userSpaceOnUse"
       spreadMethod="pad" />
    <radialGradient
       inkscape:collect="always"
       xlink:href="#linearGradient3804"
       id="radialGradient3812"
       cx="463.44406"
       cy="147.75865"
       fx="463.44406"
       fy="147.75865"
       r="24"
       gradientTransform="matrix(0,0.15293779,-1.2695525,0,601.01826,86.141386)"
       gradientUnits="userSpaceOnUse" />
    <radialGradient
       inkscape:collect="always"
       xlink:href="#linearGradient3842"
       id="radialGradient3814"
       cx="466.00003"
       cy="169.99817"
       fx="466.00003"
       fy="169.99817"
       r="22.000299"
       gradientTransform="matrix(1.7299411,0,0,0.13076234,-340.15263,135.34573)"
       gradientUnits="userSpaceOnUse" />
    <clipPath
       id="clipPath4082"
       clipPathUnits="userSpaceOnUse">
      <path
         inkscape:connector-curvature="0"
         id="path4084"
         d="m 468.00076,172.00781 0,-1 -3,0 0,-3 -1,0 0,4 z"
         style="opacity:0.1;fill:#000000;fill-opacity:1;stroke:none"
         sodipodi:nodetypes="ccccccc" />
    </clipPath>
    <clipPath
       id="clipPath4005"
       clipPathUnits="userSpaceOnUse">
      <path
         sodipodi:nodetypes="cccccccc"
         inkscape:connector-curvature="0"
         id="path4007"
         d="m 464.00076,165.00781 0,2 5,5 0,3 3,0 0,-6.5 -3.49729,-3.5 z"
         style="opacity:0.06000001;fill:#000000;fill-opacity:1;stroke:none" />
    </clipPath>
    <clipPath
       clipPathUnits="userSpaceOnUse"
       id="clipPath4014">
      <rect
         style="opacity:0.21000001;fill:#000000;fill-opacity:1;stroke:none"
         id="rect4016"
         width="8"
         height="1"
         x="2"
         y="4" />
    </clipPath>
    <clipPath
       clipPathUnits="userSpaceOnUse"
       id="clipPath4022">
      <rect
         y="6"
         x="2"
         height="1"
         width="8"
         id="rect4024"
         style="opacity:0.21000001;fill:#000000;fill-opacity:1;stroke:none" />
    </clipPath>
    <clipPath
       clipPathUnits="userSpaceOnUse"
       id="clipPath4026">
      <rect
         style="opacity:0.21000001;fill:#000000;fill-opacity:1;stroke:none"
         id="rect4028"
         width="8"
         height="1"
         x="2"
         y="7" />
    </clipPath>
    <clipPath
       clipPathUnits="userSpaceOnUse"
       id="clipPath4030">
      <rect
         y="8"
         x="2"
         height="1"
         width="8"
         id="rect4032"
         style="opacity:0.21000001;fill:#000000;fill-opacity:1;stroke:none" />
    </clipPath>
    <clipPath
       clipPathUnits="userSpaceOnUse"
       id="clipPath4034">
      <rect
         style="opacity:0.21000001;fill:#000000;fill-opacity:1;stroke:none"
         id="rect4036"
         width="8"
         height="1"
         x="2"
         y="9" />
    </clipPath>
    <clipPath
       clipPathUnits="userSpaceOnUse"
       id="clipPath4038">
      <rect
         y="10"
         x="2"
         height="1"
         width="8"
         id="rect4040"
         style="opacity:0.21000001;fill:#000000;fill-opacity:1;stroke:none" />
    </clipPath>
    <clipPath
       clipPathUnits="userSpaceOnUse"
       id="clipPath4052">
      <rect
         y="11"
         x="2"
         height="1"
         width="8"
         id="rect4054"
         style="opacity:0.21000001;fill:#000000;fill-opacity:1;stroke:none" />
    </clipPath>
    <clipPath
       clipPathUnits="userSpaceOnUse"
       id="clipPath4056">
      <rect
         style="opacity:0.21000001;fill:#000000;fill-opacity:1;stroke:none"
         id="rect4058"
         width="8"
         height="1"
         x="2"
         y="12" />
    </clipPath>
    <clipPath
       clipPathUnits="userSpaceOnUse"
       id="clipPath4060">
      <rect
         y="189"
         x="444"
         height="1"
         width="8"
         id="rect4062"
         style="opacity:0.21000001;fill:#000000;fill-opacity:1;stroke:none" />
    </clipPath>
    <clipPath
       clipPathUnits="userSpaceOnUse"
       id="clipPath4066">
      <rect
         style="opacity:0.21000001;fill:#000000;fill-opacity:1;stroke:none"
         id="rect4068"
         width="8"
         height="1"
         x="2"
         y="4" />
    </clipPath>
    <linearGradient
       gradientTransform="translate(442,144)"
       y2="13.00059"
       x2="24.000002"
       y1="20.169643"
       x1="24.000002"
       gradientUnits="userSpaceOnUse"
       id="linearGradient3840-3"
       xlink:href="#linearGradient3978-3"
       inkscape:collect="always" />
    <linearGradient
       id="linearGradient3767-5">
      <stop
         id="stop3769-5"
         offset="0"
         style="stop-color:#aec8dc;stop-opacity:1;" />
      <stop
         style="stop-color:#abc6db;stop-opacity:1;"
         offset="0.155"
         id="stop3777-4" />
      <stop
         style="stop-color:#7fa9c8;stop-opacity:1;"
         offset="0.83099997"
         id="stop3775-8" />
      <stop
         id="stop3771-7"
         offset="1"
         style="stop-color:#7599c4;stop-opacity:0.99607843;" />
    </linearGradient>
    <linearGradient
       id="linearGradient3811-3">
      <stop
         style="stop-color:#507099;stop-opacity:1;"
         offset="0"
         id="stop3813-0" />
      <stop
         id="stop3815-7"
         offset="0.1"
         style="stop-color:#7999c2;stop-opacity:1;" />
      <stop
         style="stop-color:#becfe4;stop-opacity:1;"
         offset="1"
         id="stop3819-1" />
    </linearGradient>
    <linearGradient
       id="linearGradient3821-1">
      <stop
         id="stop3823-4"
         offset="0"
         style="stop-color:#6087ba;stop-opacity:1;" />
      <stop
         style="stop-color:#85a5cb;stop-opacity:1;"
         offset="0.57654178"
         id="stop3829-0" />
      <stop
         id="stop3825-4"
         offset="1"
         style="stop-color:#99b4d4;stop-opacity:1;" />
    </linearGradient>
    <linearGradient
       id="linearGradient3978-3">
      <stop
         id="stop3980-8"
         offset="0"
         style="stop-color:#becfe4;stop-opacity:0;" />
      <stop
         id="stop3984-0"
         offset="1"
         style="stop-color:#becfe4;stop-opacity:1;" />
    </linearGradient>
    <linearGradient
       id="linearGradient3804-6">
      <stop
         id="stop3806-2"
         offset="0"
         style="stop-color:#becfe4;stop-opacity:1;" />
      <stop
         id="stop3810-1"
         offset="1"
         style="stop-color:#becfe4;stop-opacity:0;" />
    </linearGradient>
    <linearGradient
       id="linearGradient3842-7">
      <stop
         style="stop-color:#6087ba;stop-opacity:1;"
         offset="0"
         id="stop3844-2" />
      <stop
         id="stop3846-3"
         offset="0.5074119"
         style="stop-color:#85a5cb;stop-opacity:1;" />
      <stop
         style="stop-color:#99b4d4;stop-opacity:1;"
         offset="1"
         id="stop3848-8" />
    </linearGradient>
    <linearGradient
       inkscape:collect="always"
       xlink:href="#linearGradient4032"
       id="linearGradient4067"
       gradientUnits="userSpaceOnUse"
       gradientTransform="matrix(2.6981199,0,0,1.483765,438.75337,124.97601)"
       x1="10.098371"
       y1="42.476883"
       x2="10.098371"
       y2="45.170418" />
    <radialGradient
       inkscape:collect="always"
       xlink:href="#linearGradient4044"
       id="radialGradient4069"
       gradientUnits="userSpaceOnUse"
       gradientTransform="matrix(1.6100629,0,0,1.6100629,-27.59749,-26.99371)"
       cx="45.710941"
       cy="45.335938"
       fx="45.710941"
       fy="45.335938"
       r="1.2421875" />
    <radialGradient
       inkscape:collect="always"
       xlink:href="#linearGradient4044"
       id="radialGradient4071"
       gradientUnits="userSpaceOnUse"
       gradientTransform="matrix(1.6100629,0,0,1.6100629,-71.59749,-26.99371)"
       cx="45.710941"
       cy="45.335938"
       fx="45.710941"
       fy="45.335938"
       r="1.2421875" />
    <linearGradient
       inkscape:collect="always"
       xlink:href="#linearGradient4032"
       id="linearGradient4081"
       gradientUnits="userSpaceOnUse"
       gradientTransform="matrix(2.6981199,0,0,1.483765,438.75337,124.97601)"
       x1="10.098371"
       y1="42.476883"
       x2="10.098371"
       y2="45.170418" />
    <radialGradient
       inkscape:collect="always"
       xlink:href="#linearGradient4044"
       id="radialGradient4083"
       gradientUnits="userSpaceOnUse"
       gradientTransform="matrix(1.6100629,0,0,1.6100629,-27.59749,-26.99371)"
       cx="45.710941"
       cy="45.335938"
       fx="45.710941"
       fy="45.335938"
       r="1.2421875" />
    <radialGradient
       inkscape:collect="always"
       xlink:href="#linearGradient4044"
       id="radialGradient4085"
       gradientUnits="userSpaceOnUse"
       gradientTransform="matrix(1.6100629,0,0,1.6100629,-71.59749,-26.99371)"
       cx="45.710941"
       cy="45.335938"
       fx="45.710941"
       fy="45.335938"
       r="1.2421875" />
    <radialGradient
       inkscape:collect="always"
       xlink:href="#linearGradient3767"
       id="radialGradient4098"
       gradientUnits="userSpaceOnUse"
       gradientTransform="matrix(0,1.2062815,-3.2911491,0,374.38517,147.4456)"
       spreadMethod="pad"
       cx="7.9357204"
       cy="-24.355911"
       fx="7.9357204"
       fy="-24.355911"
       r="24" />
    <radialGradient
       inkscape:collect="always"
       xlink:href="#linearGradient3767"
       id="radialGradient4104"
       gradientUnits="userSpaceOnUse"
       gradientTransform="matrix(0,1.1230437,-3.1540178,0,378.20249,149.10598)"
       spreadMethod="pad"
       cx="7.9357204"
       cy="-24.355911"
       fx="7.9357204"
       fy="-24.355911"
       r="24" />
    <radialGradient
       inkscape:collect="always"
       xlink:href="#linearGradient3767"
       id="radialGradient4106"
       gradientUnits="userSpaceOnUse"
       gradientTransform="matrix(0,1.2062815,-3.2911491,0,-67.61483,3.4456)"
       spreadMethod="pad"
       cx="7.9357204"
       cy="-24.355911"
       fx="7.9357204"
       fy="-24.355911"
       r="24" />
    <radialGradient
       inkscape:collect="always"
       xlink:href="#linearGradient3804"
       id="radialGradient4119"
       cx="25.782488"
       cy="11.29454"
       fx="25.782488"
       fy="11.29454"
       r="24.000761"
       gradientTransform="matrix(0,0.15173916,-1.2794878,0,31.944393,9.4047155)"
       gradientUnits="userSpaceOnUse" />
    <radialGradient
       inkscape:collect="always"
       xlink:href="#linearGradient3877"
       id="radialGradient3971"
       gradientUnits="userSpaceOnUse"
       gradientTransform="matrix(-1.8646017,0,0,1.3984512,561.60954,128.82468)"
       cx="40.549969"
       cy="40.884739"
       fx="40.549969"
       fy="40.884739"
       r="2.1452303" />
    <linearGradient
       inkscape:collect="always"
       id="linearGradient3877">
      <stop
         style="stop-color:#000000;stop-opacity:1;"
         offset="0"
         id="stop3879" />
      <stop
         style="stop-color:#000000;stop-opacity:0;"
         offset="1"
         id="stop3881" />
    </linearGradient>
    <radialGradient
       inkscape:collect="always"
       xlink:href="#linearGradient3877"
       id="radialGradient3968"
       gradientUnits="userSpaceOnUse"
       gradientTransform="matrix(1.8646017,0,0,1.3984512,370.39046,128.82468)"
       cx="40.549969"
       cy="40.884739"
       fx="40.549969"
       fy="40.884739"
       r="2.1452303" />
    <linearGradient
       inkscape:collect="always"
       xlink:href="#linearGradient3893"
       id="linearGradient3965"
       gradientUnits="userSpaceOnUse"
       gradientTransform="matrix(1,0,0,1.5,0,-93)"
       x1="466"
       y1="188.00159"
       x2="466"
       y2="183.99841" />
    <linearGradient
       id="linearGradient3893">
      <stop
         style="stop-color:#000000;stop-opacity:0;"
         offset="0"
         id="stop3895" />
      <stop
         id="stop3901"
         offset="0.5"
         style="stop-color:#000000;stop-opacity:1;" />
      <stop
         style="stop-color:#000000;stop-opacity:0;"
         offset="1"
         id="stop3897" />
    </linearGradient>
    <linearGradient
       y2="183.99841"
       x2="466"
       y1="188.00159"
       x1="466"
       gradientTransform="matrix(1,0,0,1.5,0,-93)"
       gradientUnits="userSpaceOnUse"
       id="linearGradient4136"
       xlink:href="#linearGradient3893"
       inkscape:collect="always" />
    <radialGradient
       inkscape:collect="always"
       xlink:href="#linearGradient3842-3"
       id="radialGradient4123"
       gradientUnits="userSpaceOnUse"
       gradientTransform="matrix(1.9687502,0,0,0.13752596,-23.250784,10.166511)"
       cx="24.003258"
       cy="20.718264"
       fx="24.003258"
       fy="20.718264"
       r="22" />
    <linearGradient
       id="linearGradient3842-3">
      <stop
         id="stop3844-29"
         offset="0"
         style="stop-color:#6087ba;stop-opacity:1;" />
      <stop
         style="stop-color:#85a5cb;stop-opacity:1;"
         offset="0.5074119"
         id="stop3846-1" />
      <stop
         id="stop3848-9"
         offset="1"
         style="stop-color:#99b4d4;stop-opacity:1;" />
    </linearGradient>
    <clipPath
       clipPathUnits="userSpaceOnUse"
       id="clipPath4031">
      <path
         sodipodi:nodetypes="sssccsssssssssss"
         inkscape:connector-curvature="0"
         id="path4033"
         d="M 6,6 C 4.892,6 4,6.892 4,8 L 4,8.1875 C 4,9.1410192 3.6639388,9.9535066 3.21875,10.15625 L 3.15625,10.1875 C 2.4720246,10.504525 2,11.193701 2,12 l 0,14 c 0,1.108 0.892,2 2,2 l 40,0 c 1.108,0 2,-0.892 2,-2 l 0,-14 c 0,-1.108 -0.892,-2 -2,-2 L 22,10 C 20.892,10 20,9.108 20,8 20,6.892 19.108,6 18,6 z"
         style="fill:url(#radialGradient4035);fill-opacity:1;stroke:none" />
    </clipPath>
    <radialGradient
       inkscape:collect="always"
       xlink:href="#linearGradient3877-8"
       id="radialGradient4125"
       gradientUnits="userSpaceOnUse"
       gradientTransform="matrix(-0.9323017,0,0,0.9323008,524.8048,147.88312)"
       cx="40.549969"
       cy="40.884739"
       fx="40.549969"
       fy="40.884739"
       r="2.1452303" />
    <linearGradient
       inkscape:collect="always"
       id="linearGradient3877-8">
      <stop
         style="stop-color:#000000;stop-opacity:1;"
         offset="0"
         id="stop3879-1" />
      <stop
         style="stop-color:#000000;stop-opacity:0;"
         offset="1"
         id="stop3881-8" />
    </linearGradient>
    <radialGradient
       inkscape:collect="always"
       xlink:href="#linearGradient3877-8"
       id="radialGradient4127"
       gradientUnits="userSpaceOnUse"
       gradientTransform="matrix(0.93230167,0,0,0.9323008,407.1952,147.88312)"
       cx="40.549969"
       cy="40.884739"
       fx="40.549969"
       fy="40.884739"
       r="2.1452303" />
    <linearGradient
       inkscape:collect="always"
       xlink:href="#linearGradient3893-9"
       id="linearGradient4129"
       gradientUnits="userSpaceOnUse"
       gradientTransform="matrix(1.05,0,0,1,-23.300025,-1.31e-6)"
       x1="466"
       y1="188.00159"
       x2="466"
       y2="183.99841" />
    <linearGradient
       id="linearGradient3893-9">
      <stop
         style="stop-color:#000000;stop-opacity:0;"
         offset="0"
         id="stop3895-8" />
      <stop
         id="stop3901-2"
         offset="0.5"
         style="stop-color:#000000;stop-opacity:1;" />
      <stop
         style="stop-color:#000000;stop-opacity:0;"
         offset="1"
         id="stop3897-0" />
    </linearGradient>
    <radialGradient
       inkscape:collect="always"
       xlink:href="#linearGradient3767-9"
       id="radialGradient4131"
       gradientUnits="userSpaceOnUse"
       gradientTransform="matrix(0,1.2062815,-3.2911491,0,374.38517,147.4456)"
       spreadMethod="pad"
       cx="7.9357204"
       cy="-24.355911"
       fx="7.9357204"
       fy="-24.355911"
       r="24" />
    <linearGradient
       id="linearGradient3767-9">
      <stop
         style="stop-color:#aec8dc;stop-opacity:1;"
         offset="0"
         id="stop3769-0" />
      <stop
         id="stop3777-9"
         offset="0.155"
         style="stop-color:#abc6db;stop-opacity:1;" />
      <stop
         id="stop3775-3"
         offset="0.83099997"
         style="stop-color:#7fa9c8;stop-opacity:1;" />
      <stop
         style="stop-color:#7599c4;stop-opacity:0.99607843;"
         offset="1"
         id="stop3771-3" />
    </linearGradient>
    <radialGradient
       inkscape:collect="always"
       xlink:href="#linearGradient3804-68"
       id="radialGradient4133"
       gradientUnits="userSpaceOnUse"
       gradientTransform="matrix(0,0.16340358,-0.999968,0,613.50386,80.869617)"
       cx="466.00076"
       cy="147.50781"
       fx="466.00076"
       fy="147.50781"
       r="24.000002" />
    <linearGradient
       id="linearGradient3804-68">
      <stop
         style="stop-color:#becfe4;stop-opacity:1;"
         offset="0"
         id="stop3806-9" />
      <stop
         style="stop-color:#becfe4;stop-opacity:0;"
         offset="1"
         id="stop3810-9" />
    </linearGradient>
    <clipPath
       clipPathUnits="userSpaceOnUse"
       id="clipPath4043">
      <path
         sodipodi:nodetypes="scscsccscss"
         inkscape:connector-curvature="0"
         id="path4045"
         d="m 443.9382,157.01581 c -1.06924,0 -1.93744,0.86898 -1.93744,1.96873 0,0 0.75422,5.33421 1.0001,8.01552 0.51835,5.65267 1.00009,16.99978 1.00009,16.99978 0.13097,1.09193 0.8682,1.99997 1.93744,1.99997 l 40.12322,0 c 1.06924,0 1.93744,-0.90022 1.93744,-1.99997 0,0 0.48174,-11.34711 1.00009,-16.99978 0.24588,-2.68131 1.0001,-8.01552 1.0001,-8.01552 0.0439,-1.09887 -0.8682,-1.96873 -1.93744,-1.96873 z"
         style="fill:url(#radialGradient4047);fill-opacity:1" />
    </clipPath>
    <radialGradient
       r="24.000002"
       fy="147.50781"
       fx="466.00076"
       cy="147.50781"
       cx="466.00076"
       gradientTransform="matrix(0,0.16340358,-0.999968,0,613.50386,80.869617)"
       gradientUnits="userSpaceOnUse"
       id="radialGradient4298"
       xlink:href="#linearGradient3804-68"
       inkscape:collect="always" />
    <radialGradient
       inkscape:collect="always"
       xlink:href="#linearGradient3842-9"
       id="radialGradient3174"
       gradientUnits="userSpaceOnUse"
       gradientTransform="matrix(1.9687502,0,0,0.13752596,418.74846,154.16651)"
       cx="24.003258"
       cy="20.718264"
       fx="24.003258"
       fy="20.718264"
       r="22" />
    <linearGradient
       id="linearGradient3842-9">
      <stop
         id="stop3844-8"
         offset="0"
         style="stop-color:#6087ba;stop-opacity:1;" />
      <stop
         style="stop-color:#85a5cb;stop-opacity:1;"
         offset="0.5074119"
         id="stop3846-6" />
      <stop
         id="stop3848-3"
         offset="1"
         style="stop-color:#99b4d4;stop-opacity:1;" />
    </linearGradient>
    <clipPath
       clipPathUnits="userSpaceOnUse"
       id="clipPath4031-9">
      <path
         sodipodi:nodetypes="sssccsssssssssss"
         inkscape:connector-curvature="0"
         id="path4033-7"
         d="M 6,6 C 4.892,6 4,6.892 4,8 L 4,8.1875 C 4,9.1410192 3.6639388,9.9535066 3.21875,10.15625 L 3.15625,10.1875 C 2.4720246,10.504525 2,11.193701 2,12 l 0,14 c 0,1.108 0.892,2 2,2 l 40,0 c 1.108,0 2,-0.892 2,-2 l 0,-14 c 0,-1.108 -0.892,-2 -2,-2 L 22,10 C 20.892,10 20,9.108 20,8 20,6.892 19.108,6 18,6 z"
         style="fill:url(#radialGradient4035);fill-opacity:1;stroke:none" />
    </clipPath>
    <radialGradient
       inkscape:collect="always"
       xlink:href="#linearGradient3877-9"
       id="radialGradient3170"
       gradientUnits="userSpaceOnUse"
       gradientTransform="matrix(-0.9323017,0,0,0.9323008,524.80404,147.88312)"
       cx="40.549969"
       cy="40.884739"
       fx="40.549969"
       fy="40.884739"
       r="2.1452303" />
    <linearGradient
       inkscape:collect="always"
       id="linearGradient3877-9">
      <stop
         style="stop-color:#000000;stop-opacity:1;"
         offset="0"
         id="stop3879-8" />
      <stop
         style="stop-color:#000000;stop-opacity:0;"
         offset="1"
         id="stop3881-9" />
    </linearGradient>
    <radialGradient
       inkscape:collect="always"
       xlink:href="#linearGradient3877-9"
       id="radialGradient3167"
       gradientUnits="userSpaceOnUse"
       gradientTransform="matrix(0.93230167,0,0,0.9323008,407.19444,147.88312)"
       cx="40.549969"
       cy="40.884739"
       fx="40.549969"
       fy="40.884739"
       r="2.1452303" />
    <linearGradient
       inkscape:collect="always"
       xlink:href="#linearGradient3893-8"
       id="linearGradient3164"
       gradientUnits="userSpaceOnUse"
       gradientTransform="matrix(1.05,0,0,1,-23.300785,-1.31e-6)"
       x1="466"
       y1="188.00159"
       x2="466"
       y2="183.99841" />
    <linearGradient
       id="linearGradient3893-8">
      <stop
         style="stop-color:#000000;stop-opacity:0;"
         offset="0"
         id="stop3895-3" />
      <stop
         id="stop3901-3"
         offset="0.5"
         style="stop-color:#000000;stop-opacity:1;" />
      <stop
         style="stop-color:#000000;stop-opacity:0;"
         offset="1"
         id="stop3897-8" />
    </linearGradient>
    <radialGradient
       inkscape:collect="always"
       xlink:href="#linearGradient3767-3"
       id="radialGradient3161"
       gradientUnits="userSpaceOnUse"
       gradientTransform="matrix(0,1.2069474,-3.2911491,0,374.38441,147.42432)"
       spreadMethod="pad"
       cx="7.9357204"
       cy="-24.355911"
       fx="7.9357204"
       fy="-24.355911"
       r="24" />
    <linearGradient
       id="linearGradient3767-3">
      <stop
         style="stop-color:#aec8dc;stop-opacity:1;"
         offset="0"
         id="stop3769-54" />
      <stop
         id="stop3777-2"
         offset="0.155"
         style="stop-color:#abc6db;stop-opacity:1;" />
      <stop
         id="stop3775-84"
         offset="0.83099997"
         style="stop-color:#7fa9c8;stop-opacity:1;" />
      <stop
         style="stop-color:#7599c4;stop-opacity:0.99607843;"
         offset="1"
         id="stop3771-1" />
    </linearGradient>
    <radialGradient
       inkscape:collect="always"
       xlink:href="#linearGradient3804-3"
       id="radialGradient4019"
       gradientUnits="userSpaceOnUse"
       gradientTransform="matrix(3.4562171e-7,0.16657485,-1.2499999,2.5907372e-6,651.88566,79.391409)"
       cx="466"
       cy="153.50829"
       fx="466"
       fy="153.50829"
       r="24.000002" />
    <linearGradient
       id="linearGradient3804-3">
      <stop
         style="stop-color:#becfe4;stop-opacity:1;"
         offset="0"
         id="stop3806-0" />
      <stop
         style="stop-color:#becfe4;stop-opacity:0;"
         offset="1"
         id="stop3810-4" />
    </linearGradient>
    <clipPath
       clipPathUnits="userSpaceOnUse"
       id="clipPath4043-2">
      <path
         sodipodi:nodetypes="scscsccscss"
         inkscape:connector-curvature="0"
         id="path4045-1"
         d="m 443.9382,157.01581 c -1.06924,0 -1.93744,0.86898 -1.93744,1.96873 0,0 0.75422,5.33421 1.0001,8.01552 0.51835,5.65267 1.00009,16.99978 1.00009,16.99978 0.13097,1.09193 0.8682,1.99997 1.93744,1.99997 l 40.12322,0 c 1.06924,0 1.93744,-0.90022 1.93744,-1.99997 0,0 0.48174,-11.34711 1.00009,-16.99978 0.24588,-2.68131 1.0001,-8.01552 1.0001,-8.01552 0.0439,-1.09887 -0.8682,-1.96873 -1.93744,-1.96873 z"
         style="fill:url(#radialGradient4047);fill-opacity:1" />
    </clipPath>
    <radialGradient
       r="24.000002"
       fy="153.50829"
       fx="466"
       cy="153.50829"
       cx="466"
       gradientTransform="matrix(3.4562171e-7,0.16657485,-1.2499999,2.5907372e-6,651.88566,79.391409)"
       gradientUnits="userSpaceOnUse"
       id="radialGradient4129"
       xlink:href="#linearGradient3804-3"
       inkscape:collect="always" />
  </defs>
  <g
     inkscape:label="status"
     transform="translate(-442,-144)"
     inkscape:groupmode="layer"
     id="layer9"
     style="display:inline" />
  <g
     inkscape:label="devices"
     transform="translate(-442,-144)"
     inkscape:groupmode="layer"
     id="layer10" />
  <g
     inkscape:label="apps"
     transform="translate(-442,-144)"
     inkscape:groupmode="layer"
     id="layer11" />
  <g
     inkscape:label="actions"
     transform="translate(-442,-144)"
     inkscape:groupmode="layer"
     id="layer12" />
  <g
     inkscape:label="places"
     transform="translate(-442,-144)"
     inkscape:groupmode="layer"
     id="layer13">
    <g
       transform="translate(-1.3808926e-4,0)"
       id="g3948">
      <path
         sodipodi:nodetypes="sssccsssssssssss"
         inkscape:connector-curvature="0"
         id="rect3135"
         d="m 447.99924,150 c -1.108,0 -2,0.892 -2,2 l 0,0.1875 c 0,0.95352 -0.33606,1.76601 -0.78125,1.96875 l -0.0625,0.0313 c -0.68423,0.31702 -1.15625,1.0062 -1.15625,1.8125 l 0,14 c 0,1.108 0.892,2 2,2 l 40,0 c 1.108,0 2,-0.892 2,-2 l 0,-14 c 0,-1.108 -0.892,-2 -2,-2 l -22,0 c -1.108,0 -2,-0.892 -2,-2 0,-1.108 -0.892,-2 -2,-2 z"
         style="fill:url(#radialGradient3174);fill-opacity:1;stroke:none" />
      <path
         clip-path="url(#clipPath4031-9)"
         style="opacity:0.02000002;fill:none;stroke:#000000;stroke-width:2;stroke-linejoin:round;stroke-miterlimit:4;stroke-opacity:1;stroke-dasharray:none"
         d="M 6,6 C 4.892,6 4,6.892 4,8 L 4,8.1875 C 4,9.1410192 3.6639388,9.9535066 3.21875,10.15625 L 3.15625,10.1875 C 2.4720246,10.504525 2,11.193701 2,12 l 0,14 c 0,1.108 0.892,2 2,2 l 40,0 c 1.108,0 2,-0.892 2,-2 l 0,-14 c 0,-1.108 -0.892,-2 -2,-2 L 22,10 C 20.892,10 20,9.108 20,8 20,6.892 19.108,6 18,6 z"
         transform="translate(441.99924,144)"
         id="path4027"
         inkscape:connector-curvature="0"
         sodipodi:nodetypes="sssccsssssssssss" />
      <path
         inkscape:connector-curvature="0"
         style="opacity:0.6;fill:url(#radialGradient3170);fill-opacity:1;stroke:none"
         d="m 486.99924,184 c 1.10457,0 2,0.89543 2,2 0,1.10457 -0.89543,2 -2,2 l 0,-4 z"
         id="path3949" />
      <path
         id="path3103"
         d="m 444.99924,184 c -1.10457,0 -2,0.89543 -2,2 0,1.10457 0.89543,2 2,2 l 0,-4 z"
         style="opacity:0.6;fill:url(#radialGradient3167);fill-opacity:1;stroke:none"
         inkscape:connector-curvature="0" />
      <rect
         ry="0"
         rx="0"
         y="184"
         x="444.99924"
         height="4"
         width="42"
         id="rect3107"
         style="opacity:0.6;fill:url(#linearGradient3164);fill-opacity:1;stroke:none" />
      <path
         sodipodi:nodetypes="scscsccscss"
         inkscape:connector-curvature="0"
         id="path4170"
         d="m 443.93744,156.99981 c -1.06924,0 -1.93744,0.86946 -1.93744,1.96982 0,0 0.75422,5.33715 1.0001,8.01994 0.51835,5.65579 1.00009,17.00917 1.00009,17.00917 0.13097,1.09253 0.8682,2.00107 1.93744,2.00107 l 40.12322,0 c 1.06924,0 1.93744,-0.90072 1.93744,-2.00107 0,0 0.48174,-11.35338 1.00009,-17.00917 0.24588,-2.68279 1.0001,-8.01994 1.0001,-8.01994 0.0439,-1.09948 -0.8682,-1.96982 -1.93744,-1.96982 z"
         style="fill:url(#radialGradient3161);fill-opacity:1" />
      <path
         transform="matrix(1.0000002,0,0,1.0005509,-5.8356545e-4,-0.10218424)"
         clip-path="url(#clipPath4043-2)"
         style="fill:none;stroke:url(#radialGradient4129);stroke-width:1.99944913;stroke-linejoin:round;stroke-miterlimit:4;stroke-opacity:1;stroke-dasharray:none"
         d="m 443.9382,157.01581 c -1.06924,0 -1.93744,0.86898 -1.93744,1.96873 0,0 0.75422,5.33421 1.0001,8.01552 0.51835,5.65267 1.00009,16.99978 1.00009,16.99978 0.13097,1.09193 0.8682,1.99997 1.93744,1.99997 l 40.12322,0 c 1.06924,0 1.93744,-0.90022 1.93744,-1.99997 0,0 0.48174,-11.34711 1.00009,-16.99978 0.24588,-2.68131 1.0001,-8.01552 1.0001,-8.01552 0.0439,-1.09887 -0.8682,-1.96873 -1.93744,-1.96873 z"
         id="path4039"
         inkscape:connector-curvature="0"
         sodipodi:nodetypes="scscsccscss" />
    </g>
    <path
       id="path3027"
       d="m 465.89556,163.98767 h 0.2105 c 0,0 7.89475,0 7.89475,8.64174 0,3.88881 -0.84209,5.18507 -1.26315,5.61714 0,0 -1.26317,0.86416 -0.84211,-0.32406 0,-1.00007 0.42108,-3.13265 0.42108,-3.13265 0,0 0.42106,0 0.42106,-2.16043 0,-2.59251 -1.68423,-7.1294 -6.31579,-7.1294 h -0.84209 c -4.63159,0 -6.31578,4.53692 -6.31578,7.1294 0,2.16043 0.42106,2.16043 0.42106,2.16043 0,0 0.42107,2.13258 0.42107,3.13265 0.42106,1.18825 -0.8421,0.32406 -0.8421,0.32406 -0.42116,-0.4321 -1.26325,-1.72836 -1.26325,-5.61714 0,-8.64174 7.89475,-8.64174 7.89475,-8.64174 z m -4.71444,8.71349 c 0.69078,-0.0995 1.32957,0.39409 1.4266,1.103 l 0.64475,4.70653 c 0.097,0.7089 -0.38425,1.36464 -1.07503,1.46421 -0.69101,0.0995 -1.5401,-0.39409 -1.63734,-1.10301 l -0.64454,-4.70698 c -0.0971,-0.70889 0.59476,-1.36422 1.28556,-1.46375 z m 9.6396,0 c 0.69074,0.0995 1.38237,0.75486 1.28534,1.46379 l -0.64472,4.70694 c -0.097,0.70889 -0.94612,1.20259 -1.63737,1.10301 -0.69076,-0.0995 -1.17188,-0.75531 -1.07485,-1.46421 l 0.64475,-4.70653 c 0.0971,-0.70891 0.73607,-1.20261 1.42685,-1.103 z"
       inkscape:connector-curvature="0"
       style="opacity:0.1" />
    <path
       inkscape:connector-curvature="0"
       style="opacity:0.1"
       d="m 465.9063,163.98767 c 0,0 -7.90625,0.0145 -7.90625,8.65625 0,0.26632 0.0238,0.47619 0.0313,0.71875 0.17765,-8.34665 7.875,-8.375 7.875,-8.375 l 0.1875,0 c 0,0 7.69735,0.0283 7.875,8.375 0.007,-0.24256 0.0313,-0.45243 0.0313,-0.71875 0,-8.64174 -7.90625,-8.65625 -7.90625,-8.65625 l -0.1875,0 z m -4.71875,8.71875 c -0.6908,0.0995 -1.37835,0.75986 -1.28125,1.46875 l 0.0625,0.46875 c 0.186,-0.48804 0.70065,-0.86285 1.21875,-0.9375 0.69078,-0.0995 1.30922,0.38484 1.40625,1.09375 l 0.59375,4.28125 c 0.0581,-0.18213 0.0902,-0.35996 0.0625,-0.5625 l -0.65625,-4.71875 c -0.097,-0.70891 -0.71547,-1.19325 -1.40625,-1.09375 z m 9.375,0 c -0.5864,0.0375 -1.07129,0.47345 -1.15625,1.09375 l -0.65625,4.71875 c -0.0277,0.20254 0.004,0.38036 0.0625,0.5625 l 0.59375,-4.28125 c 0.0971,-0.70891 0.71547,-1.19336 1.40625,-1.09375 0.51805,0.0746 1.03278,0.44944 1.21875,0.9375 l 0.0625,-0.46875 c 0.097,-0.70893 -0.59051,-1.36925 -1.28125,-1.46875 -0.0863,-0.0125 -0.16623,-0.005 -0.25,0 z m -11.28125,0.46875 c -0.0104,0.1534 -0.0313,0.32605 -0.0313,0.46875 0,2.16043 0.4375,2.15625 0.4375,2.15625 0,0 0.30056,1.64177 0.375,2.71875 0.12827,-0.0456 0.17336,-0.19272 0.0313,-0.59375 0,-1.00007 -0.40625,-3.125 -0.40625,-3.125 0,0 -0.33484,-0.082 -0.40625,-1.625 z m 13.4375,0 c -0.0714,1.54303 -0.40625,1.625 -0.40625,1.625 0,0 -0.40625,2.12493 -0.40625,3.125 -0.14211,0.40102 -0.097,0.54816 0.0313,0.59375 0.0744,-1.07698 0.375,-2.71875 0.375,-2.71875 0,0 0.4375,0.004 0.4375,-2.15625 0,-0.1427 -0.0208,-0.31535 -0.0313,-0.46875 z"
       id="path3804" />
    <path
       style="opacity:0.2;fill:#ffffff;fill-opacity:1"
       d="m 465.5938,165.48767 c -4.63159,0 -6.34375,4.56377 -6.34375,7.15625 0,0.22927 0.0228,0.34806 0.0313,0.53125 0.17882,-2.6335 1.93585,-6.6875 6.3125,-6.6875 l 0.8125,0 c 4.37662,0 6.13368,4.05398 6.3125,6.6875 0.008,-0.18319 0.0313,-0.30198 0.0313,-0.53125 0,-2.59251 -1.71219,-7.15625 -6.34375,-7.15625 l -0.8125,0 z m -7.5625,7.875 c -0.002,0.0972 -0.0313,0.18174 -0.0313,0.28125 0,3.88878 0.82884,5.16165 1.25,5.59375 0,0 1.26481,0.87575 0.84375,-0.3125 0,-0.11214 -0.0218,-0.27024 -0.0313,-0.40625 -0.25179,0.0895 -0.8125,-0.28125 -0.8125,-0.28125 -0.39232,-0.40251 -1.11683,-1.57577 -1.21875,-4.875 z m 15.9375,0 c -0.10192,3.29926 -0.82653,4.47252 -1.21875,4.875 0,0 -0.5607,0.37074 -0.8125,0.28125 -0.009,0.13601 -0.0313,0.29411 -0.0313,0.40625 -0.42106,1.18822 0.84375,0.3125 0.84375,0.3125 0.42106,-0.43207 1.25,-1.70494 1.25,-5.59375 0,-0.0995 -0.0292,-0.18402 -0.0313,-0.28125 z m -14,1.28125 c -0.062,0.16268 -0.0868,0.35403 -0.0625,0.53125 l 0.625,4.6875 c 0.0972,0.70892 0.96524,1.2245 1.65625,1.125 0.69078,-0.0996 1.1595,-0.75985 1.0625,-1.46875 l -0.0625,-0.4375 c -0.14524,0.45533 -0.50659,0.83513 -1,0.90625 -0.69101,0.0995 -1.55901,-0.41608 -1.65625,-1.125 l -0.5625,-4.21875 z m 12.0625,0 -0.5625,4.21875 c -0.097,0.70889 -0.965,1.22458 -1.65625,1.125 -0.4934,-0.0711 -0.85481,-0.45091 -1,-0.90625 l -0.0625,0.4375 c -0.097,0.7089 0.37174,1.36925 1.0625,1.46875 0.69125,0.0996 1.55925,-0.41611 1.65625,-1.125 l 0.625,-4.6875 c 0.0243,-0.17723 -5.1e-4,-0.36856 -0.0625,-0.53125 z"
       id="path3809"
       inkscape:connector-curvature="0" />
  </g>
  <g
     inkscape:label="mimetypes"
     transform="translate(-442,-144)"
     inkscape:groupmode="layer"
     id="layer14" />
  <g
     inkscape:label="emblems"
     transform="translate(-442,-144)"
     inkscape:groupmode="layer"
     id="layer15"
     style="display:inline" />
</svg>
