<?xml version="1.0" encoding="UTF-8" standalone="no"?>
<!-- Created with Inkscape (http://www.inkscape.org/) -->

<svg
   xmlns:osb="http://www.openswatchbook.org/uri/2009/osb"
   xmlns:dc="http://purl.org/dc/elements/1.1/"
   xmlns:cc="http://creativecommons.org/ns#"
   xmlns:rdf="http://www.w3.org/1999/02/22-rdf-syntax-ns#"
   xmlns:svg="http://www.w3.org/2000/svg"
   xmlns="http://www.w3.org/2000/svg"
   xmlns:xlink="http://www.w3.org/1999/xlink"
   xmlns:sodipodi="http://sodipodi.sourceforge.net/DTD/sodipodi-0.dtd"
   xmlns:inkscape="http://www.inkscape.org/namespaces/inkscape"
   id="svg2"
   version="1.1"
   inkscape:version="0.48.4 r9939"
   width="48"
   height="48"
   sodipodi:docname="error.svg">
  <metadata
     id="metadata8">
    <rdf:RDF>
      <cc:Work
         rdf:about="">
        <dc:format>image/svg+xml</dc:format>
        <dc:type
           rdf:resource="http://purl.org/dc/dcmitype/StillImage" />
        <dc:title />
      </cc:Work>
    </rdf:RDF>
  </metadata>
  <defs
     id="defs6">
    <linearGradient
       id="linearGradient3794"
       osb:paint="solid">
      <stop
         style="stop-color:#000000;stop-opacity:1;"
         offset="0"
         id="stop3796" />
    </linearGradient>
    <linearGradient
       id="linearGradient3791">
      <stop
         style="stop-color:#f90000;stop-opacity:1;"
         offset="0"
         id="stop3793" />
      <stop
         style="stop-color:#d40000;stop-opacity:1;"
         offset="1"
         id="stop3795" />
    </linearGradient>
    <linearGradient
       id="linearGradient3775">
      <stop
         style="stop-color:#f90000;stop-opacity:1;"
         offset="0"
         id="stop3777" />
      <stop
         style="stop-color:#d40000;stop-opacity:1;"
         offset="1"
         id="stop3779" />
    </linearGradient>
    <linearGradient
       inkscape:collect="always"
       xlink:href="#linearGradient3775"
       id="linearGradient3781"
       x1="10.430193"
       y1="63.952904"
       x2="117.47224"
       y2="63.952904"
       gradientUnits="userSpaceOnUse"
       gradientTransform="matrix(0.0036117,0.99999348,-0.99999348,0.0036117,127.67273,-0.228873)" />
    <linearGradient
       inkscape:collect="always"
       xlink:href="#linearGradient3791"
       id="linearGradient3797"
       x1="10.930193"
       y1="63.952904"
       x2="116.97224"
       y2="63.952904"
       gradientUnits="userSpaceOnUse"
       gradientTransform="matrix(0.0036117,0.99999348,-0.99999348,0.0036117,127.67273,-0.228873)" />
    <linearGradient
       inkscape:collect="always"
       xlink:href="#linearGradient3791"
       id="linearGradient3810"
       gradientUnits="userSpaceOnUse"
       gradientTransform="matrix(-3.5593448e-6,1.1879,-1.1879,-3.5593448e-6,139.96988,-91.967423)"
       x1="10.930193"
       y1="63.952904"
       x2="116.97224"
       y2="63.952904" />
    <linearGradient
       inkscape:collect="always"
       xlink:href="#linearGradient3791"
       id="linearGradient3006"
       gradientUnits="userSpaceOnUse"
       gradientTransform="matrix(-3.5593448e-6,1.1879,-1.1879,-3.5593448e-6,139.96988,-91.967423)"
       x1="10.930193"
       y1="63.952904"
       x2="116.97224"
       y2="63.952904" />
    <linearGradient
       inkscape:collect="always"
       xlink:href="#linearGradient3791"
       id="linearGradient3010"
       gradientUnits="userSpaceOnUse"
       gradientTransform="matrix(-1.1889043e-6,0.39606884,-0.39678633,-1.1867545e-6,49.375714,-1.329008)"
       x1="10.930193"
       y1="63.952904"
       x2="116.97224"
       y2="63.952904" />
    <clipPath
       clipPathUnits="userSpaceOnUse"
       id="clipPath3841">
      <path
         inkscape:connector-curvature="0"
         id="path3843"
         d="M 32.369617,3.0000492 45,15.607665 44.999948,32.392458 32.369491,45 15.70647,44.999951 3.0000001,32.392332 3.0000505,15.607542 15.706595,3 z"
         style="fill:url(#linearGradient3845);fill-opacity:1;stroke:none" />
    </clipPath>
    <linearGradient
       inkscape:collect="always"
       xlink:href="#linearGradient3791"
       id="linearGradient3845"
       gradientUnits="userSpaceOnUse"
       gradientTransform="matrix(-1.1889043e-6,0.39606884,-0.39678633,-1.1867545e-6,49.375714,-1.329008)"
       x1="10.930193"
       y1="63.952904"
       x2="116.97224"
       y2="63.952904" />
    <linearGradient
       inkscape:collect="always"
       xlink:href="#linearGradient3791"
       id="linearGradient3862"
       gradientUnits="userSpaceOnUse"
       gradientTransform="matrix(-1.1889043e-6,0.39606884,-0.39678633,-1.1867545e-6,49.375714,-2.329008)"
       x1="10.930193"
       y1="63.952904"
       x2="116.97224"
       y2="63.952904" />
    <linearGradient
       inkscape:collect="always"
       xlink:href="#linearGradient3791"
       id="linearGradient3864"
       gradientUnits="userSpaceOnUse"
       gradientTransform="matrix(-1.1889043e-6,0.39606884,-0.39678633,-1.1867545e-6,49.375714,-1.329008)"
       x1="10.930193"
       y1="63.952904"
       x2="116.97224"
       y2="63.952904" />
    <linearGradient
       inkscape:collect="always"
       xlink:href="#linearGradient3791"
       id="linearGradient3871"
       gradientUnits="userSpaceOnUse"
       gradientTransform="matrix(-1.1889043e-6,0.39606884,-0.39678633,-1.1867545e-6,49.375714,-0.329008)"
       x1="10.930193"
       y1="63.952904"
       x2="116.97224"
       y2="63.952904" />
    <linearGradient
       inkscape:collect="always"
       xlink:href="#linearGradient3791"
       id="linearGradient3873"
       gradientUnits="userSpaceOnUse"
       gradientTransform="matrix(-1.1889043e-6,0.39606884,-0.39678633,-1.1867545e-6,49.375714,-1.329008)"
       x1="10.930193"
       y1="63.952904"
       x2="116.97224"
       y2="63.952904" />
  </defs>
  <sodipodi:namedview
     pagecolor="#c0c0c0"
     bordercolor="#666666"
     borderopacity="1"
     objecttolerance="10"
     gridtolerance="10"
     guidetolerance="10"
     inkscape:pageopacity="1"
     inkscape:pageshadow="2"
     inkscape:window-width="1278"
     inkscape:window-height="931"
     id="namedview4"
     showgrid="false"
     showguides="true"
     inkscape:guide-bbox="true"
     inkscape:snap-global="true"
     inkscape:zoom="1"
     inkscape:cx="-15.706546"
     inkscape:cy="183.32059"
     inkscape:window-x="0"
     inkscape:window-y="34"
     inkscape:window-maximized="0"
     inkscape:current-layer="svg2"
     inkscape:object-paths="true"
     inkscape:object-nodes="true"
     inkscape:snap-smooth-nodes="true" />
  <path
     inkscape:connector-curvature="0"
     id="path3768"
     d="M 31.971064,4.0000469 44,16.0073 43.99995,31.992817 31.970944,44 16.1014,43.999953 4.0000001,31.992697 4.0000481,16.007183 16.101519,4 z"
     style="fill:none;fill-opacity:1;stroke:#000000;stroke-opacity:1;stroke-width:6;stroke-miterlimit:4;stroke-dasharray:none;stroke-linejoin:round;opacity:0.02" />
  <path
     inkscape:connector-curvature="0"
     id="path3772"
     d="M 31.971064,5.0000469 44,17.0073 43.99995,32.992817 31.970944,45 16.1014,44.999953 4.0000001,32.992697 4.0000481,17.007183 16.101519,5 z"
     style="opacity:0.04;fill:none;stroke:#000000;stroke-width:4;stroke-linejoin:round;stroke-miterlimit:4;stroke-opacity:1;stroke-dasharray:none" />
  <path
     style="fill:none;fill-opacity:1;stroke:#000000;stroke-opacity:1;stroke-width:4;stroke-miterlimit:4;stroke-dasharray:none;stroke-linejoin:round;opacity:0.06"
     d="M 31.971064,4.0000469 44,16.0073 43.99995,31.992817 31.970944,44 16.1014,43.999953 4.0000001,31.992697 4.0000481,16.007183 16.101519,4 z"
     id="path3766"
     inkscape:connector-curvature="0" />
  <path
     style="fill:none;fill-opacity:1;stroke:#000000;stroke-opacity:1;stroke-width:4;stroke-miterlimit:4;stroke-dasharray:none;stroke-linejoin:round;opacity:0.05000000000000000"
     d="M 24 8 C 22.343146 8 21 9.3431458 21 11 L 23 28 C 23 28.552285 23.447715 29 24 29 C 24.552285 29 25 28.552285 25 28 L 27 11 C 27 9.3431458 25.656854 8 24 8 z "
     id="path3833" />
  <path
     transform="matrix(1.3333333,0,0,1.6842105,-7.3333326,19.789474)"
     d="m 25.75,9.03125 a 2.25,1.78125 0 1 1 -4.5,0 2.25,1.78125 0 1 1 4.5,0 z"
     sodipodi:ry="1.78125"
     sodipodi:rx="2.25"
     sodipodi:cy="9.03125"
     sodipodi:cx="23.5"
     id="path3835"
     style="fill:none;fill-opacity:1;stroke:#000000;stroke-opacity:1;stroke-width:2.66926962;stroke-miterlimit:4;stroke-dasharray:none;stroke-linejoin:round;opacity:0.05000000000000000"
     sodipodi:type="arc" />
  <path
     style="fill:url(#linearGradient3010);fill-opacity:1;stroke:none"
     d="M 32.369617,3.0000492 45,15.607665 44.999948,32.392458 32.369491,45 15.70647,44.999951 3.0000001,32.392332 3.0000505,15.607542 15.706595,3 z"
     id="path3005"
     inkscape:connector-curvature="0" />
  <path
     style="font-size:62.4582634px;font-style:normal;font-variant:normal;font-weight:normal;font-stretch:normal;text-align:start;line-height:125%;writing-mode:lr-tb;text-anchor:start;color:#000000;fill:#ffffff;fill-opacity:1;fill-rule:nonzero;stroke:none;stroke-width:1;marker:none;visibility:visible;display:inline;overflow:visible;enable-background:accumulate;font-family:Georgia"
     id="text2315"
     inkscape:connector-curvature="0"
     d="m 55.051371,10.124684 c 0.698747,6.825429 1.499124,13.603888 2.093932,20.456051 0.598259,0 1.299957,0 1.898227,0 0.493371,-6.580251 1.28916,-13.120737 1.863217,-19.692834 0.292634,-1.5561869 -0.506366,-3.4038598 -2.149651,-3.781936 -1.623821,-0.4747547 -3.438019,0.7008875 -3.65394,2.3801965 -0.03584,0.2108107 -0.05176,0.4247681 -0.05176,0.6385225 l 0,0 z m -0.207086,27.750285 c -0.07391,2.031667 2.161603,3.624298 4.070284,2.980182 1.848697,-0.471812 2.822436,-2.795404 1.874974,-4.447077 -0.848139,-1.707368 -3.335262,-2.269908 -4.765986,-0.963196 -0.7232,0.594155 -1.202553,1.481161 -1.179272,2.430091 l 0,0 z" />
  <path
     style="fill:#ffffff;fill-opacity:1;stroke:none"
     d="M 24 8 C 22.343146 8 21 9.3431458 21 11 L 23 28 C 23 28.552285 23.447715 29 24 29 C 24.552285 29 25 28.552285 25 28 L 27 11 C 27 9.3431458 25.656854 8 24 8 z "
     id="path3774" />
  <path
     transform="matrix(1.3333333,0,0,1.6842105,-7.3333326,19.789474)"
     d="m 25.75,9.03125 a 2.25,1.78125 0 1 1 -4.5,0 2.25,1.78125 0 1 1 4.5,0 z"
     sodipodi:ry="1.78125"
     sodipodi:rx="2.25"
     sodipodi:cy="9.03125"
     sodipodi:cx="23.5"
     id="path3776"
     style="fill:#ffffff;fill-opacity:1;stroke:none"
     sodipodi:type="arc" />
  <path
     sodipodi:nodetypes="cscc"
     inkscape:connector-curvature="0"
     id="path3820"
     d="m -13,11 c 0,-1.6568542 1.343146,-3 3,-3 1.656854,0 3,1.3431458 3,3 l -6,0"
     style="fill:#ffffff;fill-opacity:1;stroke:none" />
  <path
     sodipodi:type="arc"
     style="fill:#ffffff;fill-opacity:1;stroke:none"
     id="path3822"
     sodipodi:cx="23.5"
     sodipodi:cy="9.03125"
     sodipodi:rx="2.25"
     sodipodi:ry="1.78125"
     d="m 25.75,9.03125 a 2.25,1.78125 0 1 1 -4.5,0 2.25,1.78125 0 1 1 4.5,0 z"
     transform="matrix(1.3333333,0,0,1.6842105,-41.333333,19.789474)" />
  <path
     sodipodi:nodetypes="ccccc"
     inkscape:connector-curvature="0"
     id="path3824"
     d="m -13,11 6,0 -2,17 -2,0 z"
     style="opacity:0.68055558;fill:#ffffff;fill-opacity:1;stroke:none" />
  <path
     transform="matrix(0.846671,0,0,0.73149707,-30.685101,7.7865851)"
     d="m 25.612193,27.63294 a 1.1810963,1.3670595 0 1 1 -2.362192,0 1.1810963,1.3670595 0 1 1 2.362192,0 z"
     sodipodi:ry="1.3670595"
     sodipodi:rx="1.1810963"
     sodipodi:cy="27.63294"
     sodipodi:cx="24.431097"
     id="path3826"
     style="fill:#ffffff;fill-opacity:1;stroke:none"
     sodipodi:type="arc" />
  <path
     style="fill:#000000;fill-opacity:1;stroke:none;opacity:0.1"
     d="M 3 31.40625 L 3 32.40625 L 15.71875 45 L 32.375 45 L 45 32.40625 L 45 31.40625 L 32.375 44 L 15.71875 44 L 3 31.40625 z "
     id="path3858" />
</svg>
