<?xml version="1.0" encoding="UTF-8" standalone="no"?>
<!-- Created with Inkscape (http://www.inkscape.org/) -->

<svg
   xmlns:dc="http://purl.org/dc/elements/1.1/"
   xmlns:cc="http://creativecommons.org/ns#"
   xmlns:rdf="http://www.w3.org/1999/02/22-rdf-syntax-ns#"
   xmlns:svg="http://www.w3.org/2000/svg"
   xmlns="http://www.w3.org/2000/svg"
   xmlns:xlink="http://www.w3.org/1999/xlink"
   xmlns:sodipodi="http://sodipodi.sourceforge.net/DTD/sodipodi-0.dtd"
   xmlns:inkscape="http://www.inkscape.org/namespaces/inkscape"
   width="48"
   height="48"
   id="svg2"
   version="1.1"
   inkscape:version="0.92.1 r15371"
   sodipodi:docname="credentials-preferences.svg">
  <defs
     id="defs4">
    <linearGradient
       inkscape:collect="always"
       id="linearGradient3823">
      <stop
         style="stop-color:#000000;stop-opacity:1;"
         offset="0"
         id="stop3825" />
      <stop
         style="stop-color:#000000;stop-opacity:0;"
         offset="1"
         id="stop3827" />
    </linearGradient>
    <linearGradient
       id="linearGradient3813">
      <stop
         id="stop3815"
         offset="0"
         style="stop-color:#5bc2fb;stop-opacity:1;" />
      <stop
         id="stop3817"
         offset="1"
         style="stop-color:#46a2f6;stop-opacity:0;" />
    </linearGradient>
    <linearGradient
       id="linearGradient3794">
      <stop
         style="stop-color:#3498ff;stop-opacity:1;"
         offset="0"
         id="stop3796" />
      <stop
         style="stop-color:#246aed;stop-opacity:1;"
         offset="1"
         id="stop3798" />
    </linearGradient>
    <linearGradient
       id="linearGradient3786">
      <stop
         style="stop-color:#73d3f9;stop-opacity:1;"
         offset="0"
         id="stop3788" />
      <stop
         style="stop-color:#73d3f9;stop-opacity:0;"
         offset="1"
         id="stop3790" />
    </linearGradient>
    <linearGradient
       id="linearGradient3773">
      <stop
         style="stop-color:#4e8cc8;stop-opacity:1;"
         offset="0"
         id="stop3775" />
      <stop
         style="stop-color:#1b3879;stop-opacity:1;"
         offset="1"
         id="stop3777" />
    </linearGradient>
    <linearGradient
       id="linearGradient3772">
      <stop
         style="stop-color:#6633CC;stop-opacity:1;"
         offset="0"
         id="stop3774" />
      <stop
         style="stop-color:#01648d;stop-opacity:1;"
         offset="1"
         id="stop3776" />
    </linearGradient>
    <radialGradient
       inkscape:collect="always"
       xlink:href="#linearGradient3823"
       id="radialGradient3829"
       cx="23.53125"
       cy="43.34375"
       fx="23.53125"
       fy="43.34375"
       r="14.71875"
       gradientTransform="matrix(1,0,0,0.27813163,0,31.288482)"
       gradientUnits="userSpaceOnUse" />
    <linearGradient
       inkscape:collect="always"
       xlink:href="#linearGradient3794"
       id="linearGradient3789"
       x1="7.8658061"
       y1="3.4549053"
       x2="17.059725"
       y2="12.642021"
       gradientUnits="userSpaceOnUse" />
    <linearGradient
       inkscape:collect="always"
       xlink:href="#linearGradient3773"
       id="linearGradient3803"
       gradientUnits="userSpaceOnUse"
       gradientTransform="matrix(2.2844987,0,0,3.9597976,1.453984,991.19492)"
       x1="10.083009"
       y1="2.9246011"
       x2="14.842519"
       y2="13.17233" />
    <linearGradient
       inkscape:collect="always"
       xlink:href="#linearGradient3786"
       id="linearGradient3814"
       gradientUnits="userSpaceOnUse"
       gradientTransform="matrix(2.1757131,0,0,3.7712358,2.809753,992.71255)"
       x1="8.8656549"
       y1="2.8795567"
       x2="11.328358"
       y2="8.1820183" />
    <linearGradient
       inkscape:collect="always"
       xlink:href="#linearGradient3813"
       id="linearGradient3827"
       gradientUnits="userSpaceOnUse"
       gradientTransform="matrix(2.2844987,0,0,3.9597976,1.453984,991.19492)"
       x1="7.8658061"
       y1="3.4549053"
       x2="12.462356"
       y2="13.351766" />
    <radialGradient
       inkscape:collect="always"
       xlink:href="#linearGradient8838"
       id="radialGradient3085"
       gradientUnits="userSpaceOnUse"
       gradientTransform="matrix(2.1647059,0,0,0.7529402,-111.56471,36.517647)"
       cx="62.625"
       cy="4.625"
       fx="62.625"
       fy="4.625"
       r="10.625" />
    <linearGradient
       id="linearGradient8838">
      <stop
         id="stop8840"
         style="stop-color:#000000;stop-opacity:1"
         offset="0" />
      <stop
         id="stop8842"
         style="stop-color:#000000;stop-opacity:0"
         offset="1" />
    </linearGradient>
    <radialGradient
       r="10.625"
       fy="4.625"
       fx="62.625"
       cy="4.625"
       cx="62.625"
       gradientTransform="matrix(1.9764706,0,0,0.47058763,-93.851334,1039.8888)"
       gradientUnits="userSpaceOnUse"
       id="radialGradient3299"
       xlink:href="#linearGradient8838"
       inkscape:collect="always" />
  </defs>
  <sodipodi:namedview
     id="base"
     pagecolor="#ffffff"
     bordercolor="#666666"
     borderopacity="1.0"
     inkscape:pageopacity="0"
     inkscape:pageshadow="2"
     inkscape:zoom="2.8284271"
     inkscape:cx="58.251102"
     inkscape:cy="-12.566835"
     inkscape:document-units="px"
     inkscape:current-layer="layer1"
     showgrid="false"
     inkscape:window-width="1366"
     inkscape:window-height="724"
     inkscape:window-x="0"
     inkscape:window-y="22"
     inkscape:window-maximized="1"
     fit-margin-top="0"
     fit-margin-left="0"
     fit-margin-right="0"
     fit-margin-bottom="0"
     showguides="true"
     inkscape:guide-bbox="true"
     inkscape:object-paths="true"
     inkscape:object-nodes="true"
     inkscape:snap-smooth-nodes="true"
     inkscape:snap-midpoints="false"
     inkscape:snap-intersection-paths="false"
     inkscape:snap-nodes="true"
     inkscape:snap-center="false"
     inkscape:snap-object-midpoints="false"
     inkscape:snap-bbox="false"
     inkscape:snap-page="false" />
  <metadata
     id="metadata7">
    <rdf:RDF>
      <cc:Work
         rdf:about="">
        <dc:format>image/svg+xml</dc:format>
        <dc:type
           rdf:resource="http://purl.org/dc/dcmitype/StillImage" />
        <dc:title />
      </cc:Work>
    </rdf:RDF>
  </metadata>
  <g
     inkscape:label="Capa 1"
     inkscape:groupmode="layer"
     id="layer1"
     transform="translate(-5.9251389,-999.06521)">
    <path
       inkscape:connector-curvature="0"
       style="opacity:0.4;fill:url(#radialGradient3299);fill-opacity:1;fill-rule:evenodd;stroke:none;stroke-width:0.99999988;marker:none;visibility:visible;display:inline;overflow:visible"
       id="path8836"
       d="m 50.925139,1042.0652 c 0,2.7614 -9.402021,5 -21,5 -11.597979,0 -21.0000001,-2.2386 -21.0000001,-5 0,-2.7614 9.4020211,-5 21.0000001,-5 11.597979,0 21,2.2386 21,5 l 0,0 z" />
    <path
       sodipodi:type="arc"
       style="fill:url(#linearGradient3789);fill-opacity:1;stroke:none"
       id="path3013"
       sodipodi:cx="12.462758"
       sodipodi:cy="8.0484648"
       sodipodi:rx="9.1923885"
       sodipodi:ry="5.3033013"
       d="M 21.655147,8.0484648 A 9.1923885,5.3033013 0 0 1 12.462758,13.351766 9.1923885,5.3033013 0 0 1 3.2703695,8.0484648 9.1923885,5.3033013 0 0 1 12.462758,2.7451634 9.1923885,5.3033013 0 0 1 21.655147,8.0484648 Z"
       transform="matrix(2.2844987,0,0,3.9597976,1.453984,991.19492)" />
    <path
       style="fill:url(#linearGradient3827);fill-opacity:1;stroke:none"
       d="m 29.925139,1002.0652 c -11.59798,0 -21,9.402 -21,21 0,3.4734 0.850786,6.7391 2.34375,9.625 8.396862,-9.0028 20.37422,-14.625 33.65625,-14.625 1.848884,0 3.676903,0.1317 5.46875,0.3438 -2.121728,-9.3525 -10.474347,-16.3438 -20.46875,-16.3438 z"
       id="path3822"
       inkscape:connector-curvature="0" />
    <path
       style="opacity:0.7;fill:url(#linearGradient3803);fill-opacity:1;stroke:none"
       d="m 29.925139,1002.0652 c -11.59798,0 -21,9.402 -21,21 0,11.598 9.40202,21 21,21 11.59798,0 21,-9.402 21,-21 0,-11.598 -9.40202,-21 -21,-21 z m 0,1 c 11.045695,0 20,8.9543 20,20 0,11.0457 -8.954305,20 -20,20 -11.045695,0 -20,-8.9543 -20,-20 0,-11.0457 8.954305,-20 20,-20 z"
       id="path3791"
       inkscape:connector-curvature="0" />
    <path
       style="fill:url(#linearGradient3814);fill-opacity:1;stroke:none"
       d="m 29.925139,1003.0652 c -11.045695,0 -20,8.9543 -20,20 0,0.1672 -0.0041,0.3338 0,0.5 0.265441,-10.8146 9.12151,-19.5 20,-19.5 10.87849,0 19.734559,8.6854 20,19.5 0.0041,-0.1662 0,-0.3328 0,-0.5 0,-11.0457 -8.954305,-20 -20,-20 z"
       id="path3805"
       inkscape:connector-curvature="0" />
    <path
       sodipodi:type="arc"
       style="opacity:0.55902782;fill:#000000;fill-opacity:1;stroke:none"
       id="path3820"
       sodipodi:cx="12.462758"
       sodipodi:cy="8.0484648"
       sodipodi:rx="9.1923885"
       sodipodi:ry="5.3033013"
       d="M 21.655147,8.0484648 A 9.1923885,5.3033013 0 0 1 12.462758,13.351766 9.1923885,5.3033013 0 0 1 3.2703695,8.0484648 9.1923885,5.3033013 0 0 1 12.462758,2.7451634 9.1923885,5.3033013 0 0 1 21.655147,8.0484648 Z"
       transform="matrix(5.0041401,0,0,8.6738424,38.55975,994.25403)" />
    <g
       id="g3847"
       style="font-size:32px;font-style:normal;font-variant:normal;font-weight:normal;font-stretch:normal;line-height:125%;letter-spacing:0px;word-spacing:0px;fill:#000000;fill-opacity:1;stroke:none;font-family:Droid Sans Fallback;-inkscape-font-specification:Droid Sans Fallback;opacity:0.15"
       transform="translate(0,-0.99999)">
      <path
         id="path3849"
         style="fill:#000000;fill-opacity:1"
         d="m 33.425138,1026.8152 c -1.000016,1.8333 -2.500014,2.75 -4.5,2.75 -1.500011,0 -2.708343,-0.5 -3.625,-1.5 -0.916675,-1.0833 -1.375007,-2.5833 -1.375,-4.5 -7e-6,-2.1667 0.583325,-3.875 1.75,-5.125 1.24999,-1.3333 2.874988,-2 4.875,-2 1.749984,0 3.374983,0.25 4.875,0.75 l -0.375,6.5 0,1 0,0.125 c -1.9e-5,0.9167 0.124981,1.625 0.375,2.125 0.333314,0.4167 0.833314,0.625 1.5,0.625 0.749979,0 1.416645,-0.5 2,-1.5 0.58331,-1 0.874977,-2.5 0.875,-4.5 -2.3e-5,-2.8333 -0.833356,-5.0833 -2.5,-6.75 -1.583353,-1.6667 -3.70835,-2.5 -6.375,-2.5 -3.333344,0 -6.000008,1.0417 -8,3.125 -1.916671,2.0833 -2.875004,4.9167 -2.875,8.5 -4e-6,3.1667 0.833329,5.625 2.5,7.375 1.666659,1.6667 3.99999,2.5 7,2.5 2.249985,0 4.499982,-0.4583 6.75,-1.375 l 0,2.125 c -1.916685,0.9166 -4.166682,1.375 -6.75,1.375 -3.666676,0 -6.541673,-1.0417 -8.625,-3.125 -2.083336,-2.0833 -3.125001,-5 -3.125,-8.75 -1e-6,-4.0833 1.208331,-7.4167 3.625,-10 2.499993,-2.5833 5.666656,-3.875 9.5,-3.875 3.333316,0 5.99998,1.0417 8,3.125 2.083309,2.0833 3.124974,4.875 3.125,8.375 -2.6e-5,2.4167 -0.541692,4.3333 -1.625,5.75 -1.000023,1.4167 -2.250022,2.125 -3.75,2.125 -1.750018,0 -2.833351,-0.9167 -3.25,-2.75 m -0.625,-8 c -0.750016,-0.25 -1.500015,-0.375 -2.25,-0.375 -1.250013,0 -2.250012,0.4583 -3,1.375 -0.75001,0.9167 -1.12501,2.2083 -1.125,3.875 -10e-6,1.25 0.208323,2.2083 0.625,2.875 0.499989,0.6667 1.249988,1 2.25,1 1.999985,0 3.124984,-1.625 3.375,-4.875 l 0.125,-3.875"
         inkscape:connector-curvature="0" />
    </g>
    <g
       style="font-size:32px;font-style:normal;font-variant:normal;font-weight:normal;font-stretch:normal;line-height:125%;letter-spacing:0px;word-spacing:0px;fill:#ffffff;fill-opacity:1;stroke:none;font-family:Droid Sans Fallback;-inkscape-font-specification:Droid Sans Fallback"
       id="text3833">
      <path
         d="m 33.425138,1026.8152 c -1.000016,1.8333 -2.500014,2.75 -4.5,2.75 -1.500011,0 -2.708343,-0.5 -3.625,-1.5 -0.916675,-1.0833 -1.375007,-2.5833 -1.375,-4.5 -7e-6,-2.1667 0.583325,-3.875 1.75,-5.125 1.24999,-1.3333 2.874988,-2 4.875,-2 1.749984,0 3.374983,0.25 4.875,0.75 l -0.375,6.5 0,1 0,0.125 c -1.9e-5,0.9167 0.124981,1.625 0.375,2.125 0.333314,0.4167 0.833314,0.625 1.5,0.625 0.749979,0 1.416645,-0.5 2,-1.5 0.58331,-1 0.874977,-2.5 0.875,-4.5 -2.3e-5,-2.8333 -0.833356,-5.0833 -2.5,-6.75 -1.583353,-1.6667 -3.70835,-2.5 -6.375,-2.5 -3.333344,0 -6.000008,1.0417 -8,3.125 -1.916671,2.0833 -2.875004,4.9167 -2.875,8.5 -4e-6,3.1667 0.833329,5.625 2.5,7.375 1.666659,1.6667 3.99999,2.5 7,2.5 2.249985,0 4.499982,-0.4583 6.75,-1.375 l 0,2.125 c -1.916685,0.9166 -4.166682,1.375 -6.75,1.375 -3.666676,0 -6.541673,-1.0417 -8.625,-3.125 -2.083336,-2.0833 -3.125001,-5 -3.125,-8.75 -1e-6,-4.0833 1.208331,-7.4167 3.625,-10 2.499993,-2.5833 5.666656,-3.875 9.5,-3.875 3.333316,0 5.99998,1.0417 8,3.125 2.083309,2.0833 3.124974,4.875 3.125,8.375 -2.6e-5,2.4167 -0.541692,4.3333 -1.625,5.75 -1.000023,1.4167 -2.250022,2.125 -3.75,2.125 -1.750018,0 -2.833351,-0.9167 -3.25,-2.75 m -0.625,-8 c -0.750016,-0.25 -1.500015,-0.375 -2.25,-0.375 -1.250013,0 -2.250012,0.4583 -3,1.375 -0.75001,0.9167 -1.12501,2.2083 -1.125,3.875 -10e-6,1.25 0.208323,2.2083 0.625,2.875 0.499989,0.6667 1.249988,1 2.25,1 1.999985,0 3.124984,-1.625 3.375,-4.875 l 0.125,-3.875"
         style="fill:#ffffff;fill-opacity:1"
         id="path3845" />
    </g>
    <text
       id="text3840"
       y="1033.0652"
       x="-25.94986"
       style="font-style:normal;font-variant:normal;font-weight:normal;font-stretch:normal;line-height:0%;font-family:'Droid Sans Fallback';-inkscape-font-specification:'Droid Sans Fallback';letter-spacing:0px;word-spacing:0px;fill:#000000;fill-opacity:1;stroke:none"
       xml:space="preserve"><tspan
         y="1033.0652"
         x="-25.94986"
         id="tspan3842"
         sodipodi:role="line"
         style="font-size:32px;line-height:1.25">@</tspan></text>
    <g
       transform="translate(0,-0.99999)"
       style="font-size:32px;font-style:normal;font-variant:normal;font-weight:normal;font-stretch:normal;line-height:125%;letter-spacing:0px;word-spacing:0px;fill:#000000;fill-opacity:1;stroke:none;font-family:Droid Sans Fallback;-inkscape-font-specification:Droid Sans Fallback;opacity:0.1"
       id="g3871">
      <path
         style="fill:#000000;fill-opacity:1"
         d="m 30.925139,1011.1902 c -3.833344,0 -7.000007,1.2917 -9.5,3.875 -2.416669,2.5833 -3.625001,5.9167 -3.625,10 0,0.16 0.02746,0.3118 0.03125,0.4688 0.10232,-3.8389 1.284145,-6.9999 3.59375,-9.4688 2.499993,-2.5833 5.666656,-3.875 9.5,-3.875 3.333316,0 5.99998,1.0417 8,3.125 1.994289,1.9943 3.00851,4.645 3.09375,7.9375 0.007,-0.1879 0.03125,-0.3682 0.03125,-0.5625 -2.6e-5,-3.5 -1.041691,-6.2917 -3.125,-8.375 -2.00002,-2.0833 -4.666684,-3.125 -8,-3.125 z m -0.375,6.25 c -2.000012,0 -3.62501,0.6667 -4.875,2 -1.166675,1.25 -1.750007,2.9583 -1.75,5.125 0,0.077 0.02978,0.1435 0.03125,0.2188 0.127599,-1.7956 0.697909,-3.2501 1.71875,-4.3438 1.24999,-1.3333 2.874988,-2 4.875,-2 1.725026,0 3.330362,0.2329 4.8125,0.7187 l 0.0625,-0.9687 c -1.500017,-0.5 -3.125016,-0.75 -4.875,-0.75 z m 2.21875,3.375 -0.09375,2.875 c -0.250016,3.25 -1.375015,4.875 -3.375,4.875 -1.000012,0 -1.750011,-0.3333 -2.25,-1 -0.345948,-0.5535 -0.535034,-1.3256 -0.59375,-2.2812 -0.0055,0.1372 -0.03125,0.2635 -0.03125,0.4062 -1e-5,1.25 0.208323,2.2083 0.625,2.875 0.499989,0.6667 1.249988,1 2.25,1 1.999985,0 3.124984,-1.625 3.375,-4.875 l 0.125,-3.875 c -0.0098,-0 -0.02145,0 -0.03125,0 z m 7,2.1562 c -0.03916,1.7883 -0.302629,3.1661 -0.84375,4.0938 -0.583355,1 -1.250021,1.5 -2,1.5 -0.666686,0 -1.166686,-0.2083 -1.5,-0.625 -0.250019,-0.5 -0.375019,-1.2083 -0.375,-2.125 l 0,0.875 0,0.125 c -1.9e-5,0.9167 0.124981,1.625 0.375,2.125 0.333314,0.4167 0.833314,0.625 1.5,0.625 0.749979,0 1.416645,-0.5 2,-1.5 0.58331,-1 0.874977,-2.5 0.875,-4.5 -2e-6,-0.2041 -0.0226,-0.3958 -0.03125,-0.5938 z m -19.71875,2.4376 c -0.0049,0.1773 0,0.35 0,0.5312 -4e-6,3.1667 0.833329,5.625 2.5,7.375 1.666659,1.6667 3.99999,2.5 7,2.5 2.249985,0 4.499982,-0.4583 6.75,-1.375 l 0,-1 c -2.250018,0.9167 -4.500015,1.375 -6.75,1.375 -3.00001,0 -5.333341,-0.8333 -7,-2.5 -1.582273,-1.6614 -2.419879,-3.968 -2.5,-6.9062 z"
         id="path3873"
         inkscape:connector-curvature="0" />
    </g>
    <g
       id="g3867"
       style="font-size:32px;font-style:normal;font-variant:normal;font-weight:normal;font-stretch:normal;line-height:125%;letter-spacing:0px;word-spacing:0px;fill:#ffffff;fill-opacity:1;stroke:none;font-family:Droid Sans Fallback;-inkscape-font-specification:Droid Sans Fallback" />
  </g>
</svg>
